%TF.GenerationSoftware,KiCad,Pcbnew,7.0.6*%
%TF.CreationDate,2023-08-10T21:44:00+02:00*%
%TF.ProjectId,ps2_mouse_to_serial_rev2,7073325f-6d6f-4757-9365-5f746f5f7365,rev?*%
%TF.SameCoordinates,Original*%
%TF.FileFunction,Soldermask,Top*%
%TF.FilePolarity,Negative*%
%FSLAX46Y46*%
G04 Gerber Fmt 4.6, Leading zero omitted, Abs format (unit mm)*
G04 Created by KiCad (PCBNEW 7.0.6) date 2023-08-10 21:44:00*
%MOMM*%
%LPD*%
G01*
G04 APERTURE LIST*
G04 Aperture macros list*
%AMRoundRect*
0 Rectangle with rounded corners*
0 $1 Rounding radius*
0 $2 $3 $4 $5 $6 $7 $8 $9 X,Y pos of 4 corners*
0 Add a 4 corners polygon primitive as box body*
4,1,4,$2,$3,$4,$5,$6,$7,$8,$9,$2,$3,0*
0 Add four circle primitives for the rounded corners*
1,1,$1+$1,$2,$3*
1,1,$1+$1,$4,$5*
1,1,$1+$1,$6,$7*
1,1,$1+$1,$8,$9*
0 Add four rect primitives between the rounded corners*
20,1,$1+$1,$2,$3,$4,$5,0*
20,1,$1+$1,$4,$5,$6,$7,0*
20,1,$1+$1,$6,$7,$8,$9,0*
20,1,$1+$1,$8,$9,$2,$3,0*%
G04 Aperture macros list end*
%ADD10R,3.500000X3.500000*%
%ADD11RoundRect,0.750000X-0.750000X-1.000000X0.750000X-1.000000X0.750000X1.000000X-0.750000X1.000000X0*%
%ADD12RoundRect,0.875000X-0.875000X-0.875000X0.875000X-0.875000X0.875000X0.875000X-0.875000X0.875000X0*%
%ADD13R,1.600000X1.600000*%
%ADD14C,1.600000*%
%ADD15C,4.000500*%
%ADD16R,2.200000X2.200000*%
%ADD17O,2.200000X2.200000*%
%ADD18R,1.800000X1.800000*%
%ADD19C,1.800000*%
%ADD20O,1.600000X1.600000*%
%ADD21R,1.500000X1.050000*%
%ADD22O,1.500000X1.050000*%
%ADD23C,4.000000*%
%ADD24R,1.050000X1.500000*%
%ADD25O,1.050000X1.500000*%
%ADD26R,1.905000X2.000000*%
%ADD27O,1.905000X2.000000*%
%ADD28C,1.371600*%
%ADD29R,2.100000X2.100000*%
%ADD30C,2.100000*%
G04 APERTURE END LIST*
D10*
%TO.C,J1*%
X33940000Y-81280000D03*
D11*
X27940000Y-81280000D03*
D12*
X30940000Y-85980000D03*
%TD*%
D13*
%TO.C,C4*%
X88900000Y-87640000D03*
D14*
X88900000Y-91440000D03*
%TD*%
D15*
%TO.C,*%
X27940000Y-27940000D03*
%TD*%
%TO.C,*%
X114300000Y-93980000D03*
%TD*%
D16*
%TO.C,D1*%
X43180000Y-78740000D03*
D17*
X43180000Y-68580000D03*
%TD*%
D18*
%TO.C,D2*%
X111760000Y-83820000D03*
D19*
X109220000Y-83820000D03*
%TD*%
D13*
%TO.C,U1*%
X53340000Y-63500000D03*
D20*
X53340000Y-66040000D03*
X53340000Y-68580000D03*
X53340000Y-71120000D03*
X53340000Y-73660000D03*
X53340000Y-76200000D03*
X53340000Y-78740000D03*
X60960000Y-78740000D03*
X60960000Y-76200000D03*
X60960000Y-73660000D03*
X60960000Y-71120000D03*
X60960000Y-68580000D03*
X60960000Y-66040000D03*
X60960000Y-63500000D03*
%TD*%
D13*
%TO.C,D3*%
X43180000Y-33020000D03*
D20*
X43180000Y-40640000D03*
%TD*%
D14*
%TO.C,R4*%
X60960000Y-40640000D03*
D20*
X60960000Y-33020000D03*
%TD*%
D14*
%TO.C,C2*%
X53340000Y-86360000D03*
X53340000Y-91360000D03*
%TD*%
%TO.C,R3*%
X53340000Y-40640000D03*
D20*
X53340000Y-33020000D03*
%TD*%
D18*
%TO.C,D4*%
X111760000Y-76200000D03*
D19*
X109220000Y-76200000D03*
%TD*%
D21*
%TO.C,U3*%
X48260000Y-35560000D03*
D22*
X48260000Y-34290000D03*
X48260000Y-33020000D03*
%TD*%
D15*
%TO.C,*%
X27940000Y-93980000D03*
%TD*%
D14*
%TO.C,R2*%
X60960000Y-48260000D03*
D20*
X53340000Y-48260000D03*
%TD*%
D14*
%TO.C,R5*%
X95250000Y-76200000D03*
D20*
X102870000Y-76200000D03*
%TD*%
D15*
%TO.C,*%
X114300000Y-27940000D03*
%TD*%
D14*
%TO.C,C3*%
X78740000Y-86360000D03*
X78740000Y-91360000D03*
%TD*%
D23*
%TO.C,J2*%
X33220331Y-35770000D03*
X33220331Y-60770000D03*
D13*
X33520331Y-53810000D03*
D14*
X33520331Y-51040000D03*
X33520331Y-48270000D03*
X33520331Y-45500000D03*
X33520331Y-42730000D03*
X30680331Y-52425000D03*
X30680331Y-49655000D03*
X30680331Y-46885000D03*
X30680331Y-44115000D03*
%TD*%
D24*
%TO.C,Q1*%
X49530000Y-48260000D03*
D25*
X48260000Y-48260000D03*
X46990000Y-48260000D03*
%TD*%
D13*
%TO.C,A1*%
X88900000Y-68580000D03*
D20*
X88900000Y-66040000D03*
X88900000Y-63500000D03*
X88900000Y-60960000D03*
X88900000Y-58420000D03*
X88900000Y-55880000D03*
X88900000Y-53340000D03*
X88900000Y-50800000D03*
X88900000Y-48260000D03*
X88900000Y-45720000D03*
X88900000Y-43180000D03*
X88900000Y-40640000D03*
X88900000Y-38100000D03*
X88900000Y-35560000D03*
X88900000Y-33020000D03*
X73660000Y-33020000D03*
X73660000Y-35560000D03*
X73660000Y-38100000D03*
X73660000Y-40640000D03*
X73660000Y-43180000D03*
X73660000Y-45720000D03*
X73660000Y-48260000D03*
X73660000Y-50800000D03*
X73660000Y-53340000D03*
X73660000Y-55880000D03*
X73660000Y-58420000D03*
X73660000Y-60960000D03*
X73660000Y-63500000D03*
X73660000Y-66040000D03*
X73660000Y-68580000D03*
%TD*%
D14*
%TO.C,R1*%
X95250000Y-83820000D03*
D20*
X102870000Y-83820000D03*
%TD*%
D26*
%TO.C,U2*%
X63500000Y-91440000D03*
D27*
X66040000Y-91440000D03*
X68580000Y-91440000D03*
%TD*%
D28*
%TO.C,J3*%
X112219740Y-43670220D03*
X112219740Y-41069260D03*
X112219740Y-45720000D03*
X112219740Y-39019480D03*
X114711480Y-45720000D03*
X114711480Y-39019480D03*
D15*
X109220000Y-49128680D03*
X108409740Y-42369740D03*
X109220000Y-35610800D03*
%TD*%
D13*
%TO.C,C1*%
X43180000Y-87640000D03*
D14*
X43180000Y-91440000D03*
%TD*%
D13*
%TO.C,C6*%
X102880000Y-60960000D03*
D14*
X106680000Y-60960000D03*
%TD*%
D29*
%TO.C,SW1*%
X30480000Y-71120000D03*
D30*
X30480000Y-68580000D03*
%TD*%
D14*
%TO.C,C5*%
X58340000Y-58420000D03*
X53340000Y-58420000D03*
%TD*%
M02*
