M48
; DRILL file {KiCad 7.0.6} date Fri Aug 11 08:56:51 2023
; FORMAT={-:-/ absolute / inch / decimal}
; #@! TF.CreationDate,2023-08-11T08:56:51+02:00
; #@! TF.GenerationSoftware,Kicad,Pcbnew,7.0.6
; #@! TF.FileFunction,Plated,1,2,PTH
FMAT,2
INCH
; #@! TA.AperFunction,Plated,PTH,ComponentDrill
T1C0.0295
; #@! TA.AperFunction,Plated,PTH,ComponentDrill
T2C0.0315
; #@! TA.AperFunction,Plated,PTH,ComponentDrill
T3C0.0350
; #@! TA.AperFunction,Plated,PTH,ComponentDrill
T4C0.0354
; #@! TA.AperFunction,Plated,PTH,ComponentDrill
T5C0.0394
; #@! TA.AperFunction,Plated,PTH,ComponentDrill
T6C0.0433
; #@! TA.AperFunction,Plated,PTH,ComponentDrill
T7C0.0902
; #@! TA.AperFunction,Plated,PTH,ComponentDrill
T8C0.1260
%
G90
G05
T1
X1.85Y-1.9
X1.9Y-1.3
X1.9Y-1.35
X1.9Y-1.4
X1.9Y-1.9
X1.95Y-1.9
T2
X1.7Y-1.3
X1.7Y-1.6
X1.7Y-3.4504
X1.7Y-3.6
X2.1Y-1.3
X2.1Y-1.6
X2.1Y-1.9
X2.1Y-2.3
X2.1Y-2.5
X2.1Y-2.6
X2.1Y-2.7
X2.1Y-2.8
X2.1Y-2.9
X2.1Y-3.0
X2.1Y-3.1
X2.1Y-3.4
X2.1Y-3.5969
X2.2969Y-2.3
X2.4Y-1.3
X2.4Y-1.6
X2.4Y-1.9
X2.4Y-2.5
X2.4Y-2.6
X2.4Y-2.7
X2.4Y-2.8
X2.4Y-2.9
X2.4Y-3.0
X2.4Y-3.1
X3.1Y-3.4
X3.1Y-3.5969
X3.5Y-3.4504
X3.5Y-3.6
X3.75Y-3.0
X3.75Y-3.3
X4.05Y-3.0
X4.05Y-3.3
X4.0504Y-2.4
X4.2Y-2.4
T3
X4.1669Y-1.5362
X4.1669Y-1.8
X4.265Y-1.5362
X4.265Y-1.6169
X4.265Y-1.7193
X4.265Y-1.8
T4
X4.3Y-3.0
X4.3Y-3.3
X4.4Y-3.0
X4.4Y-3.3
T5
X1.2079Y-1.7368
X1.2079Y-1.8459
X1.2079Y-1.9549
X1.2079Y-2.064
X1.3197Y-1.6823
X1.3197Y-1.7913
X1.3197Y-1.9004
X1.3197Y-2.0094
X1.3197Y-2.1185
X2.9Y-1.3
X2.9Y-1.4
X2.9Y-1.5
X2.9Y-1.6
X2.9Y-1.7
X2.9Y-1.8
X2.9Y-1.9
X2.9Y-2.0
X2.9Y-2.1
X2.9Y-2.2
X2.9Y-2.3
X2.9Y-2.4
X2.9Y-2.5
X2.9Y-2.6
X2.9Y-2.7
X3.5Y-1.3
X3.5Y-1.4
X3.5Y-1.5
X3.5Y-1.6
X3.5Y-1.7
X3.5Y-1.8
X3.5Y-1.9
X3.5Y-2.0
X3.5Y-2.1
X3.5Y-2.2
X3.5Y-2.3
X3.5Y-2.4
X3.5Y-2.5
X3.5Y-2.6
X3.5Y-2.7
T6
X1.2Y-2.7
X1.2Y-2.8
X1.7Y-2.7
X1.7Y-3.1
X2.5Y-3.6
X2.6Y-3.6
X2.7Y-3.6
T7
X1.1Y-1.1
X1.1Y-3.7
X4.3831Y-1.402
X4.3831Y-1.9342
X4.415Y-1.6681
X4.5Y-1.1
X4.5Y-3.7
T8
X1.3079Y-1.4083
X1.3079Y-2.3925
T5
G00X1.1Y-3.1606
M15
G01X1.1Y-3.2394
M16
G05
G00X1.1787Y-3.385
M15
G01X1.2575Y-3.385
M16
G05
G00X1.3362Y-3.1606
M15
G01X1.3362Y-3.2394
M16
G05
T0
M30
