%TF.GenerationSoftware,KiCad,Pcbnew,7.0.6*%
%TF.CreationDate,2023-08-12T10:13:39+02:00*%
%TF.ProjectId,ps2_mouse_to_serial_port_adapter_stand_alone,7073325f-6d6f-4757-9365-5f746f5f7365,rev?*%
%TF.SameCoordinates,Original*%
%TF.FileFunction,Drillmap*%
%TF.FilePolarity,Positive*%
%FSLAX45Y45*%
G04 Gerber Fmt 4.5, Leading zero omitted, Abs format (unit mm)*
G04 Created by KiCad (PCBNEW 7.0.6) date 2023-08-12 10:13:39*
%MOMM*%
%LPD*%
G01*
G04 APERTURE LIST*
%ADD10C,0.050000*%
%ADD11C,0.200000*%
G04 APERTURE END LIST*
D10*
X2540000Y-2540000D02*
X11684000Y-2540000D01*
X11684000Y-9652000D01*
X2540000Y-9652000D01*
X2540000Y-2540000D01*
D11*
X2798277Y-9965984D02*
X2798277Y-9765984D01*
X2798277Y-9765984D02*
X2845896Y-9765984D01*
X2845896Y-9765984D02*
X2874467Y-9775508D01*
X2874467Y-9775508D02*
X2893515Y-9794555D01*
X2893515Y-9794555D02*
X2903039Y-9813603D01*
X2903039Y-9813603D02*
X2912562Y-9851698D01*
X2912562Y-9851698D02*
X2912562Y-9880270D01*
X2912562Y-9880270D02*
X2903039Y-9918365D01*
X2903039Y-9918365D02*
X2893515Y-9937412D01*
X2893515Y-9937412D02*
X2874467Y-9956460D01*
X2874467Y-9956460D02*
X2845896Y-9965984D01*
X2845896Y-9965984D02*
X2798277Y-9965984D01*
X2998277Y-9965984D02*
X2998277Y-9832650D01*
X2998277Y-9870746D02*
X3007801Y-9851698D01*
X3007801Y-9851698D02*
X3017324Y-9842174D01*
X3017324Y-9842174D02*
X3036372Y-9832650D01*
X3036372Y-9832650D02*
X3055420Y-9832650D01*
X3122086Y-9965984D02*
X3122086Y-9832650D01*
X3122086Y-9765984D02*
X3112562Y-9775508D01*
X3112562Y-9775508D02*
X3122086Y-9785031D01*
X3122086Y-9785031D02*
X3131610Y-9775508D01*
X3131610Y-9775508D02*
X3122086Y-9765984D01*
X3122086Y-9765984D02*
X3122086Y-9785031D01*
X3245896Y-9965984D02*
X3226848Y-9956460D01*
X3226848Y-9956460D02*
X3217324Y-9937412D01*
X3217324Y-9937412D02*
X3217324Y-9765984D01*
X3350658Y-9965984D02*
X3331610Y-9956460D01*
X3331610Y-9956460D02*
X3322086Y-9937412D01*
X3322086Y-9937412D02*
X3322086Y-9765984D01*
X3579229Y-9965984D02*
X3579229Y-9765984D01*
X3579229Y-9765984D02*
X3645896Y-9908841D01*
X3645896Y-9908841D02*
X3712562Y-9765984D01*
X3712562Y-9765984D02*
X3712562Y-9965984D01*
X3893515Y-9965984D02*
X3893515Y-9861222D01*
X3893515Y-9861222D02*
X3883991Y-9842174D01*
X3883991Y-9842174D02*
X3864943Y-9832650D01*
X3864943Y-9832650D02*
X3826848Y-9832650D01*
X3826848Y-9832650D02*
X3807801Y-9842174D01*
X3893515Y-9956460D02*
X3874467Y-9965984D01*
X3874467Y-9965984D02*
X3826848Y-9965984D01*
X3826848Y-9965984D02*
X3807801Y-9956460D01*
X3807801Y-9956460D02*
X3798277Y-9937412D01*
X3798277Y-9937412D02*
X3798277Y-9918365D01*
X3798277Y-9918365D02*
X3807801Y-9899317D01*
X3807801Y-9899317D02*
X3826848Y-9889793D01*
X3826848Y-9889793D02*
X3874467Y-9889793D01*
X3874467Y-9889793D02*
X3893515Y-9880270D01*
X3988753Y-9832650D02*
X3988753Y-10032650D01*
X3988753Y-9842174D02*
X4007801Y-9832650D01*
X4007801Y-9832650D02*
X4045896Y-9832650D01*
X4045896Y-9832650D02*
X4064943Y-9842174D01*
X4064943Y-9842174D02*
X4074467Y-9851698D01*
X4074467Y-9851698D02*
X4083991Y-9870746D01*
X4083991Y-9870746D02*
X4083991Y-9927889D01*
X4083991Y-9927889D02*
X4074467Y-9946936D01*
X4074467Y-9946936D02*
X4064943Y-9956460D01*
X4064943Y-9956460D02*
X4045896Y-9965984D01*
X4045896Y-9965984D02*
X4007801Y-9965984D01*
X4007801Y-9965984D02*
X3988753Y-9956460D01*
X4169705Y-9946936D02*
X4179229Y-9956460D01*
X4179229Y-9956460D02*
X4169705Y-9965984D01*
X4169705Y-9965984D02*
X4160182Y-9956460D01*
X4160182Y-9956460D02*
X4169705Y-9946936D01*
X4169705Y-9946936D02*
X4169705Y-9965984D01*
X4169705Y-9842174D02*
X4179229Y-9851698D01*
X4179229Y-9851698D02*
X4169705Y-9861222D01*
X4169705Y-9861222D02*
X4160182Y-9851698D01*
X4160182Y-9851698D02*
X4169705Y-9842174D01*
X4169705Y-9842174D02*
X4169705Y-9861222D01*
M02*
