%TF.GenerationSoftware,KiCad,Pcbnew,7.0.6*%
%TF.CreationDate,2023-08-29T13:31:32+02:00*%
%TF.ProjectId,ps2_mouse_to_serial_port_adapter_stand_alone,7073325f-6d6f-4757-9365-5f746f5f7365,rev?*%
%TF.SameCoordinates,Original*%
%TF.FileFunction,Drillmap*%
%TF.FilePolarity,Positive*%
%FSLAX45Y45*%
G04 Gerber Fmt 4.5, Leading zero omitted, Abs format (unit mm)*
G04 Created by KiCad (PCBNEW 7.0.6) date 2023-08-29 13:31:32*
%MOMM*%
%LPD*%
G01*
G04 APERTURE LIST*
%ADD10C,0.050000*%
%ADD11C,0.200000*%
%ADD12C,0.075000*%
%ADD13C,0.080000*%
%ADD14C,0.088900*%
%ADD15C,0.090000*%
%ADD16C,0.100000*%
%ADD17C,0.110000*%
%ADD18C,0.229108*%
%ADD19C,0.320000*%
G04 APERTURE END LIST*
D10*
X2286000Y-1397000D02*
X11286000Y-1397000D01*
X11286000Y-8397000D01*
X2286000Y-8397000D01*
X2286000Y-1397000D01*
D11*
D12*
X4335500Y-2192500D02*
X4410500Y-2267500D01*
X4410500Y-2192500D02*
X4335500Y-2267500D01*
X4335500Y-3589500D02*
X4410500Y-3664500D01*
X4410500Y-3589500D02*
X4335500Y-3664500D01*
X4462500Y-2065500D02*
X4537500Y-2140500D01*
X4537500Y-2065500D02*
X4462500Y-2140500D01*
X4462500Y-2319500D02*
X4537500Y-2394500D01*
X4537500Y-2319500D02*
X4462500Y-2394500D01*
X4462500Y-3716500D02*
X4537500Y-3791500D01*
X4537500Y-3716500D02*
X4462500Y-3791500D01*
X4589500Y-3589500D02*
X4664500Y-3664500D01*
X4664500Y-3589500D02*
X4589500Y-3664500D01*
D13*
X4032000Y-2103000D02*
G75*
G03*
X4032000Y-2103000I-40000J0D01*
G01*
X4032000Y-2865000D02*
G75*
G03*
X4032000Y-2865000I-40000J0D01*
G01*
X4032000Y-7565000D02*
G75*
G03*
X4032000Y-7565000I-40000J0D01*
G01*
X4032000Y-7945000D02*
G75*
G03*
X4032000Y-7945000I-40000J0D01*
G01*
X5048000Y-2103000D02*
G75*
G03*
X5048000Y-2103000I-40000J0D01*
G01*
X5048000Y-2865000D02*
G75*
G03*
X5048000Y-2865000I-40000J0D01*
G01*
X5048000Y-3627000D02*
G75*
G03*
X5048000Y-3627000I-40000J0D01*
G01*
X5048000Y-4643000D02*
G75*
G03*
X5048000Y-4643000I-40000J0D01*
G01*
X5048000Y-5151000D02*
G75*
G03*
X5048000Y-5151000I-40000J0D01*
G01*
X5048000Y-5405000D02*
G75*
G03*
X5048000Y-5405000I-40000J0D01*
G01*
X5048000Y-5659000D02*
G75*
G03*
X5048000Y-5659000I-40000J0D01*
G01*
X5048000Y-5913000D02*
G75*
G03*
X5048000Y-5913000I-40000J0D01*
G01*
X5048000Y-6167000D02*
G75*
G03*
X5048000Y-6167000I-40000J0D01*
G01*
X5048000Y-6421000D02*
G75*
G03*
X5048000Y-6421000I-40000J0D01*
G01*
X5048000Y-6675000D02*
G75*
G03*
X5048000Y-6675000I-40000J0D01*
G01*
X5048000Y-7437000D02*
G75*
G03*
X5048000Y-7437000I-40000J0D01*
G01*
X5048000Y-7937000D02*
G75*
G03*
X5048000Y-7937000I-40000J0D01*
G01*
X5548000Y-4643000D02*
G75*
G03*
X5548000Y-4643000I-40000J0D01*
G01*
X5810000Y-2103000D02*
G75*
G03*
X5810000Y-2103000I-40000J0D01*
G01*
X5810000Y-2865000D02*
G75*
G03*
X5810000Y-2865000I-40000J0D01*
G01*
X5810000Y-3627000D02*
G75*
G03*
X5810000Y-3627000I-40000J0D01*
G01*
X5810000Y-5151000D02*
G75*
G03*
X5810000Y-5151000I-40000J0D01*
G01*
X5810000Y-5405000D02*
G75*
G03*
X5810000Y-5405000I-40000J0D01*
G01*
X5810000Y-5659000D02*
G75*
G03*
X5810000Y-5659000I-40000J0D01*
G01*
X5810000Y-5913000D02*
G75*
G03*
X5810000Y-5913000I-40000J0D01*
G01*
X5810000Y-6167000D02*
G75*
G03*
X5810000Y-6167000I-40000J0D01*
G01*
X5810000Y-6421000D02*
G75*
G03*
X5810000Y-6421000I-40000J0D01*
G01*
X5810000Y-6675000D02*
G75*
G03*
X5810000Y-6675000I-40000J0D01*
G01*
X7588000Y-7437000D02*
G75*
G03*
X7588000Y-7437000I-40000J0D01*
G01*
X7588000Y-7937000D02*
G75*
G03*
X7588000Y-7937000I-40000J0D01*
G01*
X8604000Y-7565000D02*
G75*
G03*
X8604000Y-7565000I-40000J0D01*
G01*
X8604000Y-7945000D02*
G75*
G03*
X8604000Y-7945000I-40000J0D01*
G01*
X9239000Y-6421000D02*
G75*
G03*
X9239000Y-6421000I-40000J0D01*
G01*
X9239000Y-7183000D02*
G75*
G03*
X9239000Y-7183000I-40000J0D01*
G01*
X10001000Y-6421000D02*
G75*
G03*
X10001000Y-6421000I-40000J0D01*
G01*
X10001000Y-7183000D02*
G75*
G03*
X10001000Y-7183000I-40000J0D01*
G01*
X10002000Y-4897000D02*
G75*
G03*
X10002000Y-4897000I-40000J0D01*
G01*
X10382000Y-4897000D02*
G75*
G03*
X10382000Y-4897000I-40000J0D01*
G01*
D14*
X10291826Y-2841498D02*
X10291826Y-2930398D01*
X10247376Y-2885948D02*
X10336276Y-2885948D01*
X10291826Y-3511550D02*
X10291826Y-3600450D01*
X10247376Y-3556000D02*
X10336276Y-3556000D01*
X10541000Y-2841498D02*
X10541000Y-2930398D01*
X10496550Y-2885948D02*
X10585450Y-2885948D01*
X10541000Y-3046476D02*
X10541000Y-3135376D01*
X10496550Y-3090926D02*
X10585450Y-3090926D01*
X10541000Y-3306572D02*
X10541000Y-3395472D01*
X10496550Y-3351022D02*
X10585450Y-3351022D01*
X10541000Y-3511550D02*
X10541000Y-3600450D01*
X10496550Y-3556000D02*
X10585450Y-3556000D01*
D15*
X10627820Y-6452820D02*
X10627820Y-6389180D01*
X10564180Y-6389180D01*
X10564180Y-6452820D01*
X10627820Y-6452820D01*
X10627820Y-7214820D02*
X10627820Y-7151180D01*
X10564180Y-7151180D01*
X10564180Y-7214820D01*
X10627820Y-7214820D01*
X10881820Y-6452820D02*
X10881820Y-6389180D01*
X10818180Y-6389180D01*
X10818180Y-6452820D01*
X10881820Y-6452820D01*
X10881820Y-7214820D02*
X10881820Y-7151180D01*
X10818180Y-7151180D01*
X10818180Y-7214820D01*
X10881820Y-7214820D01*
D16*
X2748000Y-6946000D02*
X2798000Y-6896000D01*
X2748000Y-6846000D01*
X2698000Y-6896000D01*
X2748000Y-6946000D01*
D11*
X2698000Y-6796000D02*
X2698000Y-6996000D01*
X2698000Y-6996000D02*
G75*
G03*
X2798000Y-6996000I50000J0D01*
G01*
X2798000Y-6996000D02*
X2798000Y-6796000D01*
X2798000Y-6796000D02*
G75*
G03*
X2698000Y-6796000I-50000J0D01*
G01*
D16*
X2819400Y-3426400D02*
X2869400Y-3376400D01*
X2819400Y-3326400D01*
X2769400Y-3376400D01*
X2819400Y-3426400D01*
X2819400Y-3703400D02*
X2869400Y-3653400D01*
X2819400Y-3603400D01*
X2769400Y-3653400D01*
X2819400Y-3703400D01*
X2819400Y-3980400D02*
X2869400Y-3930400D01*
X2819400Y-3880400D01*
X2769400Y-3930400D01*
X2819400Y-3980400D01*
X2819400Y-4257400D02*
X2869400Y-4207400D01*
X2819400Y-4157400D01*
X2769400Y-4207400D01*
X2819400Y-4257400D01*
X3048000Y-7416000D02*
X3098000Y-7366000D01*
X3048000Y-7316000D01*
X2998000Y-7366000D01*
X3048000Y-7416000D01*
D11*
X2948000Y-7416000D02*
X3148000Y-7416000D01*
X3148000Y-7416000D02*
G75*
G03*
X3148000Y-7316000I0J50000D01*
G01*
X3148000Y-7316000D02*
X2948000Y-7316000D01*
X2948000Y-7316000D02*
G75*
G03*
X2948000Y-7416000I0J-50000D01*
G01*
D16*
X3103400Y-3287900D02*
X3153400Y-3237900D01*
X3103400Y-3187900D01*
X3053400Y-3237900D01*
X3103400Y-3287900D01*
X3103400Y-3564900D02*
X3153400Y-3514900D01*
X3103400Y-3464900D01*
X3053400Y-3514900D01*
X3103400Y-3564900D01*
X3103400Y-3841900D02*
X3153400Y-3791900D01*
X3103400Y-3741900D01*
X3053400Y-3791900D01*
X3103400Y-3841900D01*
X3103400Y-4118900D02*
X3153400Y-4068900D01*
X3103400Y-4018900D01*
X3053400Y-4068900D01*
X3103400Y-4118900D01*
X3103400Y-4395900D02*
X3153400Y-4345900D01*
X3103400Y-4295900D01*
X3053400Y-4345900D01*
X3103400Y-4395900D01*
X3368000Y-6946000D02*
X3418000Y-6896000D01*
X3368000Y-6846000D01*
X3318000Y-6896000D01*
X3368000Y-6946000D01*
D11*
X3318000Y-6771000D02*
X3318000Y-7021000D01*
X3318000Y-7021000D02*
G75*
G03*
X3418000Y-7021000I50000J0D01*
G01*
X3418000Y-7021000D02*
X3418000Y-6771000D01*
X3418000Y-6771000D02*
G75*
G03*
X3318000Y-6771000I-50000J0D01*
G01*
D16*
X7040000Y-2153000D02*
X7090000Y-2103000D01*
X7040000Y-2053000D01*
X6990000Y-2103000D01*
X7040000Y-2153000D01*
X7040000Y-2407000D02*
X7090000Y-2357000D01*
X7040000Y-2307000D01*
X6990000Y-2357000D01*
X7040000Y-2407000D01*
X7040000Y-2661000D02*
X7090000Y-2611000D01*
X7040000Y-2561000D01*
X6990000Y-2611000D01*
X7040000Y-2661000D01*
X7040000Y-2915000D02*
X7090000Y-2865000D01*
X7040000Y-2815000D01*
X6990000Y-2865000D01*
X7040000Y-2915000D01*
X7040000Y-3169000D02*
X7090000Y-3119000D01*
X7040000Y-3069000D01*
X6990000Y-3119000D01*
X7040000Y-3169000D01*
X7040000Y-3423000D02*
X7090000Y-3373000D01*
X7040000Y-3323000D01*
X6990000Y-3373000D01*
X7040000Y-3423000D01*
X7040000Y-3677000D02*
X7090000Y-3627000D01*
X7040000Y-3577000D01*
X6990000Y-3627000D01*
X7040000Y-3677000D01*
X7040000Y-3931000D02*
X7090000Y-3881000D01*
X7040000Y-3831000D01*
X6990000Y-3881000D01*
X7040000Y-3931000D01*
X7040000Y-4185000D02*
X7090000Y-4135000D01*
X7040000Y-4085000D01*
X6990000Y-4135000D01*
X7040000Y-4185000D01*
X7040000Y-4439000D02*
X7090000Y-4389000D01*
X7040000Y-4339000D01*
X6990000Y-4389000D01*
X7040000Y-4439000D01*
X7040000Y-4693000D02*
X7090000Y-4643000D01*
X7040000Y-4593000D01*
X6990000Y-4643000D01*
X7040000Y-4693000D01*
X7040000Y-4947000D02*
X7090000Y-4897000D01*
X7040000Y-4847000D01*
X6990000Y-4897000D01*
X7040000Y-4947000D01*
X7040000Y-5201000D02*
X7090000Y-5151000D01*
X7040000Y-5101000D01*
X6990000Y-5151000D01*
X7040000Y-5201000D01*
X7040000Y-5455000D02*
X7090000Y-5405000D01*
X7040000Y-5355000D01*
X6990000Y-5405000D01*
X7040000Y-5455000D01*
X7040000Y-5709000D02*
X7090000Y-5659000D01*
X7040000Y-5609000D01*
X6990000Y-5659000D01*
X7040000Y-5709000D01*
X8564000Y-2153000D02*
X8614000Y-2103000D01*
X8564000Y-2053000D01*
X8514000Y-2103000D01*
X8564000Y-2153000D01*
X8564000Y-2407000D02*
X8614000Y-2357000D01*
X8564000Y-2307000D01*
X8514000Y-2357000D01*
X8564000Y-2407000D01*
X8564000Y-2661000D02*
X8614000Y-2611000D01*
X8564000Y-2561000D01*
X8514000Y-2611000D01*
X8564000Y-2661000D01*
X8564000Y-2915000D02*
X8614000Y-2865000D01*
X8564000Y-2815000D01*
X8514000Y-2865000D01*
X8564000Y-2915000D01*
X8564000Y-3169000D02*
X8614000Y-3119000D01*
X8564000Y-3069000D01*
X8514000Y-3119000D01*
X8564000Y-3169000D01*
X8564000Y-3423000D02*
X8614000Y-3373000D01*
X8564000Y-3323000D01*
X8514000Y-3373000D01*
X8564000Y-3423000D01*
X8564000Y-3677000D02*
X8614000Y-3627000D01*
X8564000Y-3577000D01*
X8514000Y-3627000D01*
X8564000Y-3677000D01*
X8564000Y-3931000D02*
X8614000Y-3881000D01*
X8564000Y-3831000D01*
X8514000Y-3881000D01*
X8564000Y-3931000D01*
X8564000Y-4185000D02*
X8614000Y-4135000D01*
X8564000Y-4085000D01*
X8514000Y-4135000D01*
X8564000Y-4185000D01*
X8564000Y-4439000D02*
X8614000Y-4389000D01*
X8564000Y-4339000D01*
X8514000Y-4389000D01*
X8564000Y-4439000D01*
X8564000Y-4693000D02*
X8614000Y-4643000D01*
X8564000Y-4593000D01*
X8514000Y-4643000D01*
X8564000Y-4693000D01*
X8564000Y-4947000D02*
X8614000Y-4897000D01*
X8564000Y-4847000D01*
X8514000Y-4897000D01*
X8564000Y-4947000D01*
X8564000Y-5201000D02*
X8614000Y-5151000D01*
X8564000Y-5101000D01*
X8514000Y-5151000D01*
X8564000Y-5201000D01*
X8564000Y-5455000D02*
X8614000Y-5405000D01*
X8564000Y-5355000D01*
X8514000Y-5405000D01*
X8564000Y-5455000D01*
X8564000Y-5709000D02*
X8614000Y-5659000D01*
X8564000Y-5609000D01*
X8514000Y-5659000D01*
X8564000Y-5709000D01*
D17*
X2726300Y-5685400D02*
X2836300Y-5795400D01*
X2836300Y-5685400D02*
X2726300Y-5795400D01*
X2836300Y-5740400D02*
G75*
G03*
X2836300Y-5740400I-55000J0D01*
G01*
X2726300Y-5939400D02*
X2836300Y-6049400D01*
X2836300Y-5939400D02*
X2726300Y-6049400D01*
X2836300Y-5994400D02*
G75*
G03*
X2836300Y-5994400I-55000J0D01*
G01*
X3937000Y-5604000D02*
X4047000Y-5714000D01*
X4047000Y-5604000D02*
X3937000Y-5714000D01*
X4047000Y-5659000D02*
G75*
G03*
X4047000Y-5659000I-55000J0D01*
G01*
X3937000Y-6620000D02*
X4047000Y-6730000D01*
X4047000Y-6620000D02*
X3937000Y-6730000D01*
X4047000Y-6675000D02*
G75*
G03*
X4047000Y-6675000I-55000J0D01*
G01*
X5969000Y-7890000D02*
X6079000Y-8000000D01*
X6079000Y-7890000D02*
X5969000Y-8000000D01*
X6079000Y-7945000D02*
G75*
G03*
X6079000Y-7945000I-55000J0D01*
G01*
X6223000Y-7890000D02*
X6333000Y-8000000D01*
X6333000Y-7890000D02*
X6223000Y-8000000D01*
X6333000Y-7945000D02*
G75*
G03*
X6333000Y-7945000I-55000J0D01*
G01*
X6477000Y-7890000D02*
X6587000Y-8000000D01*
X6587000Y-7890000D02*
X6477000Y-8000000D01*
X6587000Y-7945000D02*
G75*
G03*
X6587000Y-7945000I-55000J0D01*
G01*
D18*
X10726420Y-2430526D02*
X10955528Y-2659634D01*
X10955528Y-2430526D02*
X10726420Y-2659634D01*
X10840974Y-2430526D02*
X10840974Y-2659634D01*
X10726420Y-2545080D02*
X10955528Y-2545080D01*
X10726420Y-3782314D02*
X10955528Y-4011422D01*
X10955528Y-3782314D02*
X10726420Y-4011422D01*
X10840974Y-3782314D02*
X10840974Y-4011422D01*
X10726420Y-3896868D02*
X10955528Y-3896868D01*
X10807446Y-3106420D02*
X11036554Y-3335528D01*
X11036554Y-3106420D02*
X10807446Y-3335528D01*
X10922000Y-3106420D02*
X10922000Y-3335528D01*
X10807446Y-3220974D02*
X11036554Y-3220974D01*
D19*
X2913400Y-2381900D02*
X3233400Y-2701900D01*
X3233400Y-2381900D02*
X2913400Y-2701900D01*
X3186538Y-2655038D02*
X3186538Y-2428762D01*
X2960262Y-2428762D01*
X2960262Y-2655038D01*
X3186538Y-2655038D01*
X2913400Y-4881900D02*
X3233400Y-5201900D01*
X3233400Y-4881900D02*
X2913400Y-5201900D01*
X3186538Y-5155038D02*
X3186538Y-4928762D01*
X2960262Y-4928762D01*
X2960262Y-5155038D01*
X3186538Y-5155038D01*
D11*
X2544277Y-8710984D02*
X2544277Y-8510984D01*
X2544277Y-8510984D02*
X2591896Y-8510984D01*
X2591896Y-8510984D02*
X2620467Y-8520508D01*
X2620467Y-8520508D02*
X2639515Y-8539555D01*
X2639515Y-8539555D02*
X2649039Y-8558603D01*
X2649039Y-8558603D02*
X2658563Y-8596698D01*
X2658563Y-8596698D02*
X2658563Y-8625270D01*
X2658563Y-8625270D02*
X2649039Y-8663365D01*
X2649039Y-8663365D02*
X2639515Y-8682412D01*
X2639515Y-8682412D02*
X2620467Y-8701460D01*
X2620467Y-8701460D02*
X2591896Y-8710984D01*
X2591896Y-8710984D02*
X2544277Y-8710984D01*
X2744277Y-8710984D02*
X2744277Y-8577650D01*
X2744277Y-8615746D02*
X2753801Y-8596698D01*
X2753801Y-8596698D02*
X2763324Y-8587174D01*
X2763324Y-8587174D02*
X2782372Y-8577650D01*
X2782372Y-8577650D02*
X2801420Y-8577650D01*
X2868086Y-8710984D02*
X2868086Y-8577650D01*
X2868086Y-8510984D02*
X2858562Y-8520508D01*
X2858562Y-8520508D02*
X2868086Y-8530031D01*
X2868086Y-8530031D02*
X2877610Y-8520508D01*
X2877610Y-8520508D02*
X2868086Y-8510984D01*
X2868086Y-8510984D02*
X2868086Y-8530031D01*
X2991896Y-8710984D02*
X2972848Y-8701460D01*
X2972848Y-8701460D02*
X2963324Y-8682412D01*
X2963324Y-8682412D02*
X2963324Y-8510984D01*
X3096658Y-8710984D02*
X3077610Y-8701460D01*
X3077610Y-8701460D02*
X3068086Y-8682412D01*
X3068086Y-8682412D02*
X3068086Y-8510984D01*
X3325229Y-8710984D02*
X3325229Y-8510984D01*
X3325229Y-8510984D02*
X3391896Y-8653841D01*
X3391896Y-8653841D02*
X3458562Y-8510984D01*
X3458562Y-8510984D02*
X3458562Y-8710984D01*
X3639515Y-8710984D02*
X3639515Y-8606222D01*
X3639515Y-8606222D02*
X3629991Y-8587174D01*
X3629991Y-8587174D02*
X3610943Y-8577650D01*
X3610943Y-8577650D02*
X3572848Y-8577650D01*
X3572848Y-8577650D02*
X3553801Y-8587174D01*
X3639515Y-8701460D02*
X3620467Y-8710984D01*
X3620467Y-8710984D02*
X3572848Y-8710984D01*
X3572848Y-8710984D02*
X3553801Y-8701460D01*
X3553801Y-8701460D02*
X3544277Y-8682412D01*
X3544277Y-8682412D02*
X3544277Y-8663365D01*
X3544277Y-8663365D02*
X3553801Y-8644317D01*
X3553801Y-8644317D02*
X3572848Y-8634793D01*
X3572848Y-8634793D02*
X3620467Y-8634793D01*
X3620467Y-8634793D02*
X3639515Y-8625270D01*
X3734753Y-8577650D02*
X3734753Y-8777650D01*
X3734753Y-8587174D02*
X3753801Y-8577650D01*
X3753801Y-8577650D02*
X3791896Y-8577650D01*
X3791896Y-8577650D02*
X3810943Y-8587174D01*
X3810943Y-8587174D02*
X3820467Y-8596698D01*
X3820467Y-8596698D02*
X3829991Y-8615746D01*
X3829991Y-8615746D02*
X3829991Y-8672889D01*
X3829991Y-8672889D02*
X3820467Y-8691936D01*
X3820467Y-8691936D02*
X3810943Y-8701460D01*
X3810943Y-8701460D02*
X3791896Y-8710984D01*
X3791896Y-8710984D02*
X3753801Y-8710984D01*
X3753801Y-8710984D02*
X3734753Y-8701460D01*
X3915705Y-8691936D02*
X3925229Y-8701460D01*
X3925229Y-8701460D02*
X3915705Y-8710984D01*
X3915705Y-8710984D02*
X3906182Y-8701460D01*
X3906182Y-8701460D02*
X3915705Y-8691936D01*
X3915705Y-8691936D02*
X3915705Y-8710984D01*
X3915705Y-8587174D02*
X3925229Y-8596698D01*
X3925229Y-8596698D02*
X3915705Y-8606222D01*
X3915705Y-8606222D02*
X3906182Y-8596698D01*
X3906182Y-8596698D02*
X3915705Y-8587174D01*
X3915705Y-8587174D02*
X3915705Y-8606222D01*
D12*
X2208500Y-9002000D02*
X2283500Y-9077000D01*
X2283500Y-9002000D02*
X2208500Y-9077000D01*
D11*
X2582372Y-8930984D02*
X2601420Y-8930984D01*
X2601420Y-8930984D02*
X2620467Y-8940508D01*
X2620467Y-8940508D02*
X2629991Y-8950031D01*
X2629991Y-8950031D02*
X2639515Y-8969079D01*
X2639515Y-8969079D02*
X2649039Y-9007174D01*
X2649039Y-9007174D02*
X2649039Y-9054793D01*
X2649039Y-9054793D02*
X2639515Y-9092889D01*
X2639515Y-9092889D02*
X2629991Y-9111936D01*
X2629991Y-9111936D02*
X2620467Y-9121460D01*
X2620467Y-9121460D02*
X2601420Y-9130984D01*
X2601420Y-9130984D02*
X2582372Y-9130984D01*
X2582372Y-9130984D02*
X2563324Y-9121460D01*
X2563324Y-9121460D02*
X2553801Y-9111936D01*
X2553801Y-9111936D02*
X2544277Y-9092889D01*
X2544277Y-9092889D02*
X2534753Y-9054793D01*
X2534753Y-9054793D02*
X2534753Y-9007174D01*
X2534753Y-9007174D02*
X2544277Y-8969079D01*
X2544277Y-8969079D02*
X2553801Y-8950031D01*
X2553801Y-8950031D02*
X2563324Y-8940508D01*
X2563324Y-8940508D02*
X2582372Y-8930984D01*
X2734753Y-9111936D02*
X2744277Y-9121460D01*
X2744277Y-9121460D02*
X2734753Y-9130984D01*
X2734753Y-9130984D02*
X2725229Y-9121460D01*
X2725229Y-9121460D02*
X2734753Y-9111936D01*
X2734753Y-9111936D02*
X2734753Y-9130984D01*
X2810943Y-8930984D02*
X2944277Y-8930984D01*
X2944277Y-8930984D02*
X2858562Y-9130984D01*
X3115705Y-8930984D02*
X3020467Y-8930984D01*
X3020467Y-8930984D02*
X3010943Y-9026222D01*
X3010943Y-9026222D02*
X3020467Y-9016698D01*
X3020467Y-9016698D02*
X3039515Y-9007174D01*
X3039515Y-9007174D02*
X3087134Y-9007174D01*
X3087134Y-9007174D02*
X3106182Y-9016698D01*
X3106182Y-9016698D02*
X3115705Y-9026222D01*
X3115705Y-9026222D02*
X3125229Y-9045270D01*
X3125229Y-9045270D02*
X3125229Y-9092889D01*
X3125229Y-9092889D02*
X3115705Y-9111936D01*
X3115705Y-9111936D02*
X3106182Y-9121460D01*
X3106182Y-9121460D02*
X3087134Y-9130984D01*
X3087134Y-9130984D02*
X3039515Y-9130984D01*
X3039515Y-9130984D02*
X3020467Y-9121460D01*
X3020467Y-9121460D02*
X3010943Y-9111936D01*
X3249039Y-8930984D02*
X3268086Y-8930984D01*
X3268086Y-8930984D02*
X3287134Y-8940508D01*
X3287134Y-8940508D02*
X3296658Y-8950031D01*
X3296658Y-8950031D02*
X3306182Y-8969079D01*
X3306182Y-8969079D02*
X3315705Y-9007174D01*
X3315705Y-9007174D02*
X3315705Y-9054793D01*
X3315705Y-9054793D02*
X3306182Y-9092889D01*
X3306182Y-9092889D02*
X3296658Y-9111936D01*
X3296658Y-9111936D02*
X3287134Y-9121460D01*
X3287134Y-9121460D02*
X3268086Y-9130984D01*
X3268086Y-9130984D02*
X3249039Y-9130984D01*
X3249039Y-9130984D02*
X3229991Y-9121460D01*
X3229991Y-9121460D02*
X3220467Y-9111936D01*
X3220467Y-9111936D02*
X3210943Y-9092889D01*
X3210943Y-9092889D02*
X3201420Y-9054793D01*
X3201420Y-9054793D02*
X3201420Y-9007174D01*
X3201420Y-9007174D02*
X3210943Y-8969079D01*
X3210943Y-8969079D02*
X3220467Y-8950031D01*
X3220467Y-8950031D02*
X3229991Y-8940508D01*
X3229991Y-8940508D02*
X3249039Y-8930984D01*
X3401420Y-9130984D02*
X3401420Y-8997650D01*
X3401420Y-9016698D02*
X3410943Y-9007174D01*
X3410943Y-9007174D02*
X3429991Y-8997650D01*
X3429991Y-8997650D02*
X3458563Y-8997650D01*
X3458563Y-8997650D02*
X3477610Y-9007174D01*
X3477610Y-9007174D02*
X3487134Y-9026222D01*
X3487134Y-9026222D02*
X3487134Y-9130984D01*
X3487134Y-9026222D02*
X3496658Y-9007174D01*
X3496658Y-9007174D02*
X3515705Y-8997650D01*
X3515705Y-8997650D02*
X3544277Y-8997650D01*
X3544277Y-8997650D02*
X3563324Y-9007174D01*
X3563324Y-9007174D02*
X3572848Y-9026222D01*
X3572848Y-9026222D02*
X3572848Y-9130984D01*
X3668086Y-9130984D02*
X3668086Y-8997650D01*
X3668086Y-9016698D02*
X3677610Y-9007174D01*
X3677610Y-9007174D02*
X3696658Y-8997650D01*
X3696658Y-8997650D02*
X3725229Y-8997650D01*
X3725229Y-8997650D02*
X3744277Y-9007174D01*
X3744277Y-9007174D02*
X3753801Y-9026222D01*
X3753801Y-9026222D02*
X3753801Y-9130984D01*
X3753801Y-9026222D02*
X3763324Y-9007174D01*
X3763324Y-9007174D02*
X3782372Y-8997650D01*
X3782372Y-8997650D02*
X3810943Y-8997650D01*
X3810943Y-8997650D02*
X3829991Y-9007174D01*
X3829991Y-9007174D02*
X3839515Y-9026222D01*
X3839515Y-9026222D02*
X3839515Y-9130984D01*
X4229991Y-8921460D02*
X4058563Y-9178603D01*
X4487134Y-8930984D02*
X4506182Y-8930984D01*
X4506182Y-8930984D02*
X4525229Y-8940508D01*
X4525229Y-8940508D02*
X4534753Y-8950031D01*
X4534753Y-8950031D02*
X4544277Y-8969079D01*
X4544277Y-8969079D02*
X4553801Y-9007174D01*
X4553801Y-9007174D02*
X4553801Y-9054793D01*
X4553801Y-9054793D02*
X4544277Y-9092889D01*
X4544277Y-9092889D02*
X4534753Y-9111936D01*
X4534753Y-9111936D02*
X4525229Y-9121460D01*
X4525229Y-9121460D02*
X4506182Y-9130984D01*
X4506182Y-9130984D02*
X4487134Y-9130984D01*
X4487134Y-9130984D02*
X4468087Y-9121460D01*
X4468087Y-9121460D02*
X4458563Y-9111936D01*
X4458563Y-9111936D02*
X4449039Y-9092889D01*
X4449039Y-9092889D02*
X4439515Y-9054793D01*
X4439515Y-9054793D02*
X4439515Y-9007174D01*
X4439515Y-9007174D02*
X4449039Y-8969079D01*
X4449039Y-8969079D02*
X4458563Y-8950031D01*
X4458563Y-8950031D02*
X4468087Y-8940508D01*
X4468087Y-8940508D02*
X4487134Y-8930984D01*
X4639515Y-9111936D02*
X4649039Y-9121460D01*
X4649039Y-9121460D02*
X4639515Y-9130984D01*
X4639515Y-9130984D02*
X4629991Y-9121460D01*
X4629991Y-9121460D02*
X4639515Y-9111936D01*
X4639515Y-9111936D02*
X4639515Y-9130984D01*
X4772848Y-8930984D02*
X4791896Y-8930984D01*
X4791896Y-8930984D02*
X4810944Y-8940508D01*
X4810944Y-8940508D02*
X4820468Y-8950031D01*
X4820468Y-8950031D02*
X4829991Y-8969079D01*
X4829991Y-8969079D02*
X4839515Y-9007174D01*
X4839515Y-9007174D02*
X4839515Y-9054793D01*
X4839515Y-9054793D02*
X4829991Y-9092889D01*
X4829991Y-9092889D02*
X4820468Y-9111936D01*
X4820468Y-9111936D02*
X4810944Y-9121460D01*
X4810944Y-9121460D02*
X4791896Y-9130984D01*
X4791896Y-9130984D02*
X4772848Y-9130984D01*
X4772848Y-9130984D02*
X4753801Y-9121460D01*
X4753801Y-9121460D02*
X4744277Y-9111936D01*
X4744277Y-9111936D02*
X4734753Y-9092889D01*
X4734753Y-9092889D02*
X4725229Y-9054793D01*
X4725229Y-9054793D02*
X4725229Y-9007174D01*
X4725229Y-9007174D02*
X4734753Y-8969079D01*
X4734753Y-8969079D02*
X4744277Y-8950031D01*
X4744277Y-8950031D02*
X4753801Y-8940508D01*
X4753801Y-8940508D02*
X4772848Y-8930984D01*
X4915706Y-8950031D02*
X4925229Y-8940508D01*
X4925229Y-8940508D02*
X4944277Y-8930984D01*
X4944277Y-8930984D02*
X4991896Y-8930984D01*
X4991896Y-8930984D02*
X5010944Y-8940508D01*
X5010944Y-8940508D02*
X5020468Y-8950031D01*
X5020468Y-8950031D02*
X5029991Y-8969079D01*
X5029991Y-8969079D02*
X5029991Y-8988127D01*
X5029991Y-8988127D02*
X5020468Y-9016698D01*
X5020468Y-9016698D02*
X4906182Y-9130984D01*
X4906182Y-9130984D02*
X5029991Y-9130984D01*
X5125229Y-9130984D02*
X5163325Y-9130984D01*
X5163325Y-9130984D02*
X5182372Y-9121460D01*
X5182372Y-9121460D02*
X5191896Y-9111936D01*
X5191896Y-9111936D02*
X5210944Y-9083365D01*
X5210944Y-9083365D02*
X5220468Y-9045270D01*
X5220468Y-9045270D02*
X5220468Y-8969079D01*
X5220468Y-8969079D02*
X5210944Y-8950031D01*
X5210944Y-8950031D02*
X5201420Y-8940508D01*
X5201420Y-8940508D02*
X5182372Y-8930984D01*
X5182372Y-8930984D02*
X5144277Y-8930984D01*
X5144277Y-8930984D02*
X5125229Y-8940508D01*
X5125229Y-8940508D02*
X5115706Y-8950031D01*
X5115706Y-8950031D02*
X5106182Y-8969079D01*
X5106182Y-8969079D02*
X5106182Y-9016698D01*
X5106182Y-9016698D02*
X5115706Y-9035746D01*
X5115706Y-9035746D02*
X5125229Y-9045270D01*
X5125229Y-9045270D02*
X5144277Y-9054793D01*
X5144277Y-9054793D02*
X5182372Y-9054793D01*
X5182372Y-9054793D02*
X5201420Y-9045270D01*
X5201420Y-9045270D02*
X5210944Y-9035746D01*
X5210944Y-9035746D02*
X5220468Y-9016698D01*
X5401420Y-8930984D02*
X5306182Y-8930984D01*
X5306182Y-8930984D02*
X5296658Y-9026222D01*
X5296658Y-9026222D02*
X5306182Y-9016698D01*
X5306182Y-9016698D02*
X5325229Y-9007174D01*
X5325229Y-9007174D02*
X5372849Y-9007174D01*
X5372849Y-9007174D02*
X5391896Y-9016698D01*
X5391896Y-9016698D02*
X5401420Y-9026222D01*
X5401420Y-9026222D02*
X5410944Y-9045270D01*
X5410944Y-9045270D02*
X5410944Y-9092889D01*
X5410944Y-9092889D02*
X5401420Y-9111936D01*
X5401420Y-9111936D02*
X5391896Y-9121460D01*
X5391896Y-9121460D02*
X5372849Y-9130984D01*
X5372849Y-9130984D02*
X5325229Y-9130984D01*
X5325229Y-9130984D02*
X5306182Y-9121460D01*
X5306182Y-9121460D02*
X5296658Y-9111936D01*
X5487134Y-8930984D02*
X5487134Y-8969079D01*
X5563325Y-8930984D02*
X5563325Y-8969079D01*
X5858563Y-9207174D02*
X5849039Y-9197650D01*
X5849039Y-9197650D02*
X5829991Y-9169079D01*
X5829991Y-9169079D02*
X5820468Y-9150031D01*
X5820468Y-9150031D02*
X5810944Y-9121460D01*
X5810944Y-9121460D02*
X5801420Y-9073841D01*
X5801420Y-9073841D02*
X5801420Y-9035746D01*
X5801420Y-9035746D02*
X5810944Y-8988127D01*
X5810944Y-8988127D02*
X5820468Y-8959555D01*
X5820468Y-8959555D02*
X5829991Y-8940508D01*
X5829991Y-8940508D02*
X5849039Y-8911936D01*
X5849039Y-8911936D02*
X5858563Y-8902412D01*
X6020468Y-8930984D02*
X5982372Y-8930984D01*
X5982372Y-8930984D02*
X5963325Y-8940508D01*
X5963325Y-8940508D02*
X5953801Y-8950031D01*
X5953801Y-8950031D02*
X5934753Y-8978603D01*
X5934753Y-8978603D02*
X5925229Y-9016698D01*
X5925229Y-9016698D02*
X5925229Y-9092889D01*
X5925229Y-9092889D02*
X5934753Y-9111936D01*
X5934753Y-9111936D02*
X5944277Y-9121460D01*
X5944277Y-9121460D02*
X5963325Y-9130984D01*
X5963325Y-9130984D02*
X6001420Y-9130984D01*
X6001420Y-9130984D02*
X6020468Y-9121460D01*
X6020468Y-9121460D02*
X6029991Y-9111936D01*
X6029991Y-9111936D02*
X6039515Y-9092889D01*
X6039515Y-9092889D02*
X6039515Y-9045270D01*
X6039515Y-9045270D02*
X6029991Y-9026222D01*
X6029991Y-9026222D02*
X6020468Y-9016698D01*
X6020468Y-9016698D02*
X6001420Y-9007174D01*
X6001420Y-9007174D02*
X5963325Y-9007174D01*
X5963325Y-9007174D02*
X5944277Y-9016698D01*
X5944277Y-9016698D02*
X5934753Y-9026222D01*
X5934753Y-9026222D02*
X5925229Y-9045270D01*
X6277610Y-9130984D02*
X6277610Y-8930984D01*
X6363325Y-9130984D02*
X6363325Y-9026222D01*
X6363325Y-9026222D02*
X6353801Y-9007174D01*
X6353801Y-9007174D02*
X6334753Y-8997650D01*
X6334753Y-8997650D02*
X6306182Y-8997650D01*
X6306182Y-8997650D02*
X6287134Y-9007174D01*
X6287134Y-9007174D02*
X6277610Y-9016698D01*
X6487134Y-9130984D02*
X6468087Y-9121460D01*
X6468087Y-9121460D02*
X6458563Y-9111936D01*
X6458563Y-9111936D02*
X6449039Y-9092889D01*
X6449039Y-9092889D02*
X6449039Y-9035746D01*
X6449039Y-9035746D02*
X6458563Y-9016698D01*
X6458563Y-9016698D02*
X6468087Y-9007174D01*
X6468087Y-9007174D02*
X6487134Y-8997650D01*
X6487134Y-8997650D02*
X6515706Y-8997650D01*
X6515706Y-8997650D02*
X6534753Y-9007174D01*
X6534753Y-9007174D02*
X6544277Y-9016698D01*
X6544277Y-9016698D02*
X6553801Y-9035746D01*
X6553801Y-9035746D02*
X6553801Y-9092889D01*
X6553801Y-9092889D02*
X6544277Y-9111936D01*
X6544277Y-9111936D02*
X6534753Y-9121460D01*
X6534753Y-9121460D02*
X6515706Y-9130984D01*
X6515706Y-9130984D02*
X6487134Y-9130984D01*
X6668087Y-9130984D02*
X6649039Y-9121460D01*
X6649039Y-9121460D02*
X6639515Y-9102412D01*
X6639515Y-9102412D02*
X6639515Y-8930984D01*
X6820468Y-9121460D02*
X6801420Y-9130984D01*
X6801420Y-9130984D02*
X6763325Y-9130984D01*
X6763325Y-9130984D02*
X6744277Y-9121460D01*
X6744277Y-9121460D02*
X6734753Y-9102412D01*
X6734753Y-9102412D02*
X6734753Y-9026222D01*
X6734753Y-9026222D02*
X6744277Y-9007174D01*
X6744277Y-9007174D02*
X6763325Y-8997650D01*
X6763325Y-8997650D02*
X6801420Y-8997650D01*
X6801420Y-8997650D02*
X6820468Y-9007174D01*
X6820468Y-9007174D02*
X6829991Y-9026222D01*
X6829991Y-9026222D02*
X6829991Y-9045270D01*
X6829991Y-9045270D02*
X6734753Y-9064317D01*
X6906182Y-9121460D02*
X6925230Y-9130984D01*
X6925230Y-9130984D02*
X6963325Y-9130984D01*
X6963325Y-9130984D02*
X6982372Y-9121460D01*
X6982372Y-9121460D02*
X6991896Y-9102412D01*
X6991896Y-9102412D02*
X6991896Y-9092889D01*
X6991896Y-9092889D02*
X6982372Y-9073841D01*
X6982372Y-9073841D02*
X6963325Y-9064317D01*
X6963325Y-9064317D02*
X6934753Y-9064317D01*
X6934753Y-9064317D02*
X6915706Y-9054793D01*
X6915706Y-9054793D02*
X6906182Y-9035746D01*
X6906182Y-9035746D02*
X6906182Y-9026222D01*
X6906182Y-9026222D02*
X6915706Y-9007174D01*
X6915706Y-9007174D02*
X6934753Y-8997650D01*
X6934753Y-8997650D02*
X6963325Y-8997650D01*
X6963325Y-8997650D02*
X6982372Y-9007174D01*
X7058563Y-9207174D02*
X7068087Y-9197650D01*
X7068087Y-9197650D02*
X7087134Y-9169079D01*
X7087134Y-9169079D02*
X7096658Y-9150031D01*
X7096658Y-9150031D02*
X7106182Y-9121460D01*
X7106182Y-9121460D02*
X7115706Y-9073841D01*
X7115706Y-9073841D02*
X7115706Y-9035746D01*
X7115706Y-9035746D02*
X7106182Y-8988127D01*
X7106182Y-8988127D02*
X7096658Y-8959555D01*
X7096658Y-8959555D02*
X7087134Y-8940508D01*
X7087134Y-8940508D02*
X7068087Y-8911936D01*
X7068087Y-8911936D02*
X7058563Y-8902412D01*
D13*
X2283500Y-9303500D02*
G75*
G03*
X2283500Y-9303500I-40000J0D01*
G01*
D11*
X2582372Y-9194984D02*
X2601420Y-9194984D01*
X2601420Y-9194984D02*
X2620467Y-9204508D01*
X2620467Y-9204508D02*
X2629991Y-9214031D01*
X2629991Y-9214031D02*
X2639515Y-9233079D01*
X2639515Y-9233079D02*
X2649039Y-9271174D01*
X2649039Y-9271174D02*
X2649039Y-9318793D01*
X2649039Y-9318793D02*
X2639515Y-9356889D01*
X2639515Y-9356889D02*
X2629991Y-9375936D01*
X2629991Y-9375936D02*
X2620467Y-9385460D01*
X2620467Y-9385460D02*
X2601420Y-9394984D01*
X2601420Y-9394984D02*
X2582372Y-9394984D01*
X2582372Y-9394984D02*
X2563324Y-9385460D01*
X2563324Y-9385460D02*
X2553801Y-9375936D01*
X2553801Y-9375936D02*
X2544277Y-9356889D01*
X2544277Y-9356889D02*
X2534753Y-9318793D01*
X2534753Y-9318793D02*
X2534753Y-9271174D01*
X2534753Y-9271174D02*
X2544277Y-9233079D01*
X2544277Y-9233079D02*
X2553801Y-9214031D01*
X2553801Y-9214031D02*
X2563324Y-9204508D01*
X2563324Y-9204508D02*
X2582372Y-9194984D01*
X2734753Y-9375936D02*
X2744277Y-9385460D01*
X2744277Y-9385460D02*
X2734753Y-9394984D01*
X2734753Y-9394984D02*
X2725229Y-9385460D01*
X2725229Y-9385460D02*
X2734753Y-9375936D01*
X2734753Y-9375936D02*
X2734753Y-9394984D01*
X2858562Y-9280698D02*
X2839515Y-9271174D01*
X2839515Y-9271174D02*
X2829991Y-9261650D01*
X2829991Y-9261650D02*
X2820467Y-9242603D01*
X2820467Y-9242603D02*
X2820467Y-9233079D01*
X2820467Y-9233079D02*
X2829991Y-9214031D01*
X2829991Y-9214031D02*
X2839515Y-9204508D01*
X2839515Y-9204508D02*
X2858562Y-9194984D01*
X2858562Y-9194984D02*
X2896658Y-9194984D01*
X2896658Y-9194984D02*
X2915705Y-9204508D01*
X2915705Y-9204508D02*
X2925229Y-9214031D01*
X2925229Y-9214031D02*
X2934753Y-9233079D01*
X2934753Y-9233079D02*
X2934753Y-9242603D01*
X2934753Y-9242603D02*
X2925229Y-9261650D01*
X2925229Y-9261650D02*
X2915705Y-9271174D01*
X2915705Y-9271174D02*
X2896658Y-9280698D01*
X2896658Y-9280698D02*
X2858562Y-9280698D01*
X2858562Y-9280698D02*
X2839515Y-9290222D01*
X2839515Y-9290222D02*
X2829991Y-9299746D01*
X2829991Y-9299746D02*
X2820467Y-9318793D01*
X2820467Y-9318793D02*
X2820467Y-9356889D01*
X2820467Y-9356889D02*
X2829991Y-9375936D01*
X2829991Y-9375936D02*
X2839515Y-9385460D01*
X2839515Y-9385460D02*
X2858562Y-9394984D01*
X2858562Y-9394984D02*
X2896658Y-9394984D01*
X2896658Y-9394984D02*
X2915705Y-9385460D01*
X2915705Y-9385460D02*
X2925229Y-9375936D01*
X2925229Y-9375936D02*
X2934753Y-9356889D01*
X2934753Y-9356889D02*
X2934753Y-9318793D01*
X2934753Y-9318793D02*
X2925229Y-9299746D01*
X2925229Y-9299746D02*
X2915705Y-9290222D01*
X2915705Y-9290222D02*
X2896658Y-9280698D01*
X3058562Y-9194984D02*
X3077610Y-9194984D01*
X3077610Y-9194984D02*
X3096658Y-9204508D01*
X3096658Y-9204508D02*
X3106182Y-9214031D01*
X3106182Y-9214031D02*
X3115705Y-9233079D01*
X3115705Y-9233079D02*
X3125229Y-9271174D01*
X3125229Y-9271174D02*
X3125229Y-9318793D01*
X3125229Y-9318793D02*
X3115705Y-9356889D01*
X3115705Y-9356889D02*
X3106182Y-9375936D01*
X3106182Y-9375936D02*
X3096658Y-9385460D01*
X3096658Y-9385460D02*
X3077610Y-9394984D01*
X3077610Y-9394984D02*
X3058562Y-9394984D01*
X3058562Y-9394984D02*
X3039515Y-9385460D01*
X3039515Y-9385460D02*
X3029991Y-9375936D01*
X3029991Y-9375936D02*
X3020467Y-9356889D01*
X3020467Y-9356889D02*
X3010943Y-9318793D01*
X3010943Y-9318793D02*
X3010943Y-9271174D01*
X3010943Y-9271174D02*
X3020467Y-9233079D01*
X3020467Y-9233079D02*
X3029991Y-9214031D01*
X3029991Y-9214031D02*
X3039515Y-9204508D01*
X3039515Y-9204508D02*
X3058562Y-9194984D01*
X3249039Y-9194984D02*
X3268086Y-9194984D01*
X3268086Y-9194984D02*
X3287134Y-9204508D01*
X3287134Y-9204508D02*
X3296658Y-9214031D01*
X3296658Y-9214031D02*
X3306182Y-9233079D01*
X3306182Y-9233079D02*
X3315705Y-9271174D01*
X3315705Y-9271174D02*
X3315705Y-9318793D01*
X3315705Y-9318793D02*
X3306182Y-9356889D01*
X3306182Y-9356889D02*
X3296658Y-9375936D01*
X3296658Y-9375936D02*
X3287134Y-9385460D01*
X3287134Y-9385460D02*
X3268086Y-9394984D01*
X3268086Y-9394984D02*
X3249039Y-9394984D01*
X3249039Y-9394984D02*
X3229991Y-9385460D01*
X3229991Y-9385460D02*
X3220467Y-9375936D01*
X3220467Y-9375936D02*
X3210943Y-9356889D01*
X3210943Y-9356889D02*
X3201420Y-9318793D01*
X3201420Y-9318793D02*
X3201420Y-9271174D01*
X3201420Y-9271174D02*
X3210943Y-9233079D01*
X3210943Y-9233079D02*
X3220467Y-9214031D01*
X3220467Y-9214031D02*
X3229991Y-9204508D01*
X3229991Y-9204508D02*
X3249039Y-9194984D01*
X3401420Y-9394984D02*
X3401420Y-9261650D01*
X3401420Y-9280698D02*
X3410943Y-9271174D01*
X3410943Y-9271174D02*
X3429991Y-9261650D01*
X3429991Y-9261650D02*
X3458563Y-9261650D01*
X3458563Y-9261650D02*
X3477610Y-9271174D01*
X3477610Y-9271174D02*
X3487134Y-9290222D01*
X3487134Y-9290222D02*
X3487134Y-9394984D01*
X3487134Y-9290222D02*
X3496658Y-9271174D01*
X3496658Y-9271174D02*
X3515705Y-9261650D01*
X3515705Y-9261650D02*
X3544277Y-9261650D01*
X3544277Y-9261650D02*
X3563324Y-9271174D01*
X3563324Y-9271174D02*
X3572848Y-9290222D01*
X3572848Y-9290222D02*
X3572848Y-9394984D01*
X3668086Y-9394984D02*
X3668086Y-9261650D01*
X3668086Y-9280698D02*
X3677610Y-9271174D01*
X3677610Y-9271174D02*
X3696658Y-9261650D01*
X3696658Y-9261650D02*
X3725229Y-9261650D01*
X3725229Y-9261650D02*
X3744277Y-9271174D01*
X3744277Y-9271174D02*
X3753801Y-9290222D01*
X3753801Y-9290222D02*
X3753801Y-9394984D01*
X3753801Y-9290222D02*
X3763324Y-9271174D01*
X3763324Y-9271174D02*
X3782372Y-9261650D01*
X3782372Y-9261650D02*
X3810943Y-9261650D01*
X3810943Y-9261650D02*
X3829991Y-9271174D01*
X3829991Y-9271174D02*
X3839515Y-9290222D01*
X3839515Y-9290222D02*
X3839515Y-9394984D01*
X4229991Y-9185460D02*
X4058563Y-9442603D01*
X4487134Y-9194984D02*
X4506182Y-9194984D01*
X4506182Y-9194984D02*
X4525229Y-9204508D01*
X4525229Y-9204508D02*
X4534753Y-9214031D01*
X4534753Y-9214031D02*
X4544277Y-9233079D01*
X4544277Y-9233079D02*
X4553801Y-9271174D01*
X4553801Y-9271174D02*
X4553801Y-9318793D01*
X4553801Y-9318793D02*
X4544277Y-9356889D01*
X4544277Y-9356889D02*
X4534753Y-9375936D01*
X4534753Y-9375936D02*
X4525229Y-9385460D01*
X4525229Y-9385460D02*
X4506182Y-9394984D01*
X4506182Y-9394984D02*
X4487134Y-9394984D01*
X4487134Y-9394984D02*
X4468087Y-9385460D01*
X4468087Y-9385460D02*
X4458563Y-9375936D01*
X4458563Y-9375936D02*
X4449039Y-9356889D01*
X4449039Y-9356889D02*
X4439515Y-9318793D01*
X4439515Y-9318793D02*
X4439515Y-9271174D01*
X4439515Y-9271174D02*
X4449039Y-9233079D01*
X4449039Y-9233079D02*
X4458563Y-9214031D01*
X4458563Y-9214031D02*
X4468087Y-9204508D01*
X4468087Y-9204508D02*
X4487134Y-9194984D01*
X4639515Y-9375936D02*
X4649039Y-9385460D01*
X4649039Y-9385460D02*
X4639515Y-9394984D01*
X4639515Y-9394984D02*
X4629991Y-9385460D01*
X4629991Y-9385460D02*
X4639515Y-9375936D01*
X4639515Y-9375936D02*
X4639515Y-9394984D01*
X4772848Y-9194984D02*
X4791896Y-9194984D01*
X4791896Y-9194984D02*
X4810944Y-9204508D01*
X4810944Y-9204508D02*
X4820468Y-9214031D01*
X4820468Y-9214031D02*
X4829991Y-9233079D01*
X4829991Y-9233079D02*
X4839515Y-9271174D01*
X4839515Y-9271174D02*
X4839515Y-9318793D01*
X4839515Y-9318793D02*
X4829991Y-9356889D01*
X4829991Y-9356889D02*
X4820468Y-9375936D01*
X4820468Y-9375936D02*
X4810944Y-9385460D01*
X4810944Y-9385460D02*
X4791896Y-9394984D01*
X4791896Y-9394984D02*
X4772848Y-9394984D01*
X4772848Y-9394984D02*
X4753801Y-9385460D01*
X4753801Y-9385460D02*
X4744277Y-9375936D01*
X4744277Y-9375936D02*
X4734753Y-9356889D01*
X4734753Y-9356889D02*
X4725229Y-9318793D01*
X4725229Y-9318793D02*
X4725229Y-9271174D01*
X4725229Y-9271174D02*
X4734753Y-9233079D01*
X4734753Y-9233079D02*
X4744277Y-9214031D01*
X4744277Y-9214031D02*
X4753801Y-9204508D01*
X4753801Y-9204508D02*
X4772848Y-9194984D01*
X4906182Y-9194984D02*
X5029991Y-9194984D01*
X5029991Y-9194984D02*
X4963325Y-9271174D01*
X4963325Y-9271174D02*
X4991896Y-9271174D01*
X4991896Y-9271174D02*
X5010944Y-9280698D01*
X5010944Y-9280698D02*
X5020468Y-9290222D01*
X5020468Y-9290222D02*
X5029991Y-9309270D01*
X5029991Y-9309270D02*
X5029991Y-9356889D01*
X5029991Y-9356889D02*
X5020468Y-9375936D01*
X5020468Y-9375936D02*
X5010944Y-9385460D01*
X5010944Y-9385460D02*
X4991896Y-9394984D01*
X4991896Y-9394984D02*
X4934753Y-9394984D01*
X4934753Y-9394984D02*
X4915706Y-9385460D01*
X4915706Y-9385460D02*
X4906182Y-9375936D01*
X5220468Y-9394984D02*
X5106182Y-9394984D01*
X5163325Y-9394984D02*
X5163325Y-9194984D01*
X5163325Y-9194984D02*
X5144277Y-9223555D01*
X5144277Y-9223555D02*
X5125229Y-9242603D01*
X5125229Y-9242603D02*
X5106182Y-9252127D01*
X5401420Y-9194984D02*
X5306182Y-9194984D01*
X5306182Y-9194984D02*
X5296658Y-9290222D01*
X5296658Y-9290222D02*
X5306182Y-9280698D01*
X5306182Y-9280698D02*
X5325229Y-9271174D01*
X5325229Y-9271174D02*
X5372849Y-9271174D01*
X5372849Y-9271174D02*
X5391896Y-9280698D01*
X5391896Y-9280698D02*
X5401420Y-9290222D01*
X5401420Y-9290222D02*
X5410944Y-9309270D01*
X5410944Y-9309270D02*
X5410944Y-9356889D01*
X5410944Y-9356889D02*
X5401420Y-9375936D01*
X5401420Y-9375936D02*
X5391896Y-9385460D01*
X5391896Y-9385460D02*
X5372849Y-9394984D01*
X5372849Y-9394984D02*
X5325229Y-9394984D01*
X5325229Y-9394984D02*
X5306182Y-9385460D01*
X5306182Y-9385460D02*
X5296658Y-9375936D01*
X5487134Y-9194984D02*
X5487134Y-9233079D01*
X5563325Y-9194984D02*
X5563325Y-9233079D01*
X5858563Y-9471174D02*
X5849039Y-9461650D01*
X5849039Y-9461650D02*
X5829991Y-9433079D01*
X5829991Y-9433079D02*
X5820468Y-9414031D01*
X5820468Y-9414031D02*
X5810944Y-9385460D01*
X5810944Y-9385460D02*
X5801420Y-9337841D01*
X5801420Y-9337841D02*
X5801420Y-9299746D01*
X5801420Y-9299746D02*
X5810944Y-9252127D01*
X5810944Y-9252127D02*
X5820468Y-9223555D01*
X5820468Y-9223555D02*
X5829991Y-9204508D01*
X5829991Y-9204508D02*
X5849039Y-9175936D01*
X5849039Y-9175936D02*
X5858563Y-9166412D01*
X5915706Y-9194984D02*
X6039515Y-9194984D01*
X6039515Y-9194984D02*
X5972848Y-9271174D01*
X5972848Y-9271174D02*
X6001420Y-9271174D01*
X6001420Y-9271174D02*
X6020468Y-9280698D01*
X6020468Y-9280698D02*
X6029991Y-9290222D01*
X6029991Y-9290222D02*
X6039515Y-9309270D01*
X6039515Y-9309270D02*
X6039515Y-9356889D01*
X6039515Y-9356889D02*
X6029991Y-9375936D01*
X6029991Y-9375936D02*
X6020468Y-9385460D01*
X6020468Y-9385460D02*
X6001420Y-9394984D01*
X6001420Y-9394984D02*
X5944277Y-9394984D01*
X5944277Y-9394984D02*
X5925229Y-9385460D01*
X5925229Y-9385460D02*
X5915706Y-9375936D01*
X6153801Y-9280698D02*
X6134753Y-9271174D01*
X6134753Y-9271174D02*
X6125229Y-9261650D01*
X6125229Y-9261650D02*
X6115706Y-9242603D01*
X6115706Y-9242603D02*
X6115706Y-9233079D01*
X6115706Y-9233079D02*
X6125229Y-9214031D01*
X6125229Y-9214031D02*
X6134753Y-9204508D01*
X6134753Y-9204508D02*
X6153801Y-9194984D01*
X6153801Y-9194984D02*
X6191896Y-9194984D01*
X6191896Y-9194984D02*
X6210944Y-9204508D01*
X6210944Y-9204508D02*
X6220468Y-9214031D01*
X6220468Y-9214031D02*
X6229991Y-9233079D01*
X6229991Y-9233079D02*
X6229991Y-9242603D01*
X6229991Y-9242603D02*
X6220468Y-9261650D01*
X6220468Y-9261650D02*
X6210944Y-9271174D01*
X6210944Y-9271174D02*
X6191896Y-9280698D01*
X6191896Y-9280698D02*
X6153801Y-9280698D01*
X6153801Y-9280698D02*
X6134753Y-9290222D01*
X6134753Y-9290222D02*
X6125229Y-9299746D01*
X6125229Y-9299746D02*
X6115706Y-9318793D01*
X6115706Y-9318793D02*
X6115706Y-9356889D01*
X6115706Y-9356889D02*
X6125229Y-9375936D01*
X6125229Y-9375936D02*
X6134753Y-9385460D01*
X6134753Y-9385460D02*
X6153801Y-9394984D01*
X6153801Y-9394984D02*
X6191896Y-9394984D01*
X6191896Y-9394984D02*
X6210944Y-9385460D01*
X6210944Y-9385460D02*
X6220468Y-9375936D01*
X6220468Y-9375936D02*
X6229991Y-9356889D01*
X6229991Y-9356889D02*
X6229991Y-9318793D01*
X6229991Y-9318793D02*
X6220468Y-9299746D01*
X6220468Y-9299746D02*
X6210944Y-9290222D01*
X6210944Y-9290222D02*
X6191896Y-9280698D01*
X6468087Y-9394984D02*
X6468087Y-9194984D01*
X6553801Y-9394984D02*
X6553801Y-9290222D01*
X6553801Y-9290222D02*
X6544277Y-9271174D01*
X6544277Y-9271174D02*
X6525230Y-9261650D01*
X6525230Y-9261650D02*
X6496658Y-9261650D01*
X6496658Y-9261650D02*
X6477610Y-9271174D01*
X6477610Y-9271174D02*
X6468087Y-9280698D01*
X6677610Y-9394984D02*
X6658563Y-9385460D01*
X6658563Y-9385460D02*
X6649039Y-9375936D01*
X6649039Y-9375936D02*
X6639515Y-9356889D01*
X6639515Y-9356889D02*
X6639515Y-9299746D01*
X6639515Y-9299746D02*
X6649039Y-9280698D01*
X6649039Y-9280698D02*
X6658563Y-9271174D01*
X6658563Y-9271174D02*
X6677610Y-9261650D01*
X6677610Y-9261650D02*
X6706182Y-9261650D01*
X6706182Y-9261650D02*
X6725230Y-9271174D01*
X6725230Y-9271174D02*
X6734753Y-9280698D01*
X6734753Y-9280698D02*
X6744277Y-9299746D01*
X6744277Y-9299746D02*
X6744277Y-9356889D01*
X6744277Y-9356889D02*
X6734753Y-9375936D01*
X6734753Y-9375936D02*
X6725230Y-9385460D01*
X6725230Y-9385460D02*
X6706182Y-9394984D01*
X6706182Y-9394984D02*
X6677610Y-9394984D01*
X6858563Y-9394984D02*
X6839515Y-9385460D01*
X6839515Y-9385460D02*
X6829991Y-9366412D01*
X6829991Y-9366412D02*
X6829991Y-9194984D01*
X7010944Y-9385460D02*
X6991896Y-9394984D01*
X6991896Y-9394984D02*
X6953801Y-9394984D01*
X6953801Y-9394984D02*
X6934753Y-9385460D01*
X6934753Y-9385460D02*
X6925230Y-9366412D01*
X6925230Y-9366412D02*
X6925230Y-9290222D01*
X6925230Y-9290222D02*
X6934753Y-9271174D01*
X6934753Y-9271174D02*
X6953801Y-9261650D01*
X6953801Y-9261650D02*
X6991896Y-9261650D01*
X6991896Y-9261650D02*
X7010944Y-9271174D01*
X7010944Y-9271174D02*
X7020468Y-9290222D01*
X7020468Y-9290222D02*
X7020468Y-9309270D01*
X7020468Y-9309270D02*
X6925230Y-9328317D01*
X7096658Y-9385460D02*
X7115706Y-9394984D01*
X7115706Y-9394984D02*
X7153801Y-9394984D01*
X7153801Y-9394984D02*
X7172849Y-9385460D01*
X7172849Y-9385460D02*
X7182372Y-9366412D01*
X7182372Y-9366412D02*
X7182372Y-9356889D01*
X7182372Y-9356889D02*
X7172849Y-9337841D01*
X7172849Y-9337841D02*
X7153801Y-9328317D01*
X7153801Y-9328317D02*
X7125230Y-9328317D01*
X7125230Y-9328317D02*
X7106182Y-9318793D01*
X7106182Y-9318793D02*
X7096658Y-9299746D01*
X7096658Y-9299746D02*
X7096658Y-9290222D01*
X7096658Y-9290222D02*
X7106182Y-9271174D01*
X7106182Y-9271174D02*
X7125230Y-9261650D01*
X7125230Y-9261650D02*
X7153801Y-9261650D01*
X7153801Y-9261650D02*
X7172849Y-9271174D01*
X7249039Y-9471174D02*
X7258563Y-9461650D01*
X7258563Y-9461650D02*
X7277611Y-9433079D01*
X7277611Y-9433079D02*
X7287134Y-9414031D01*
X7287134Y-9414031D02*
X7296658Y-9385460D01*
X7296658Y-9385460D02*
X7306182Y-9337841D01*
X7306182Y-9337841D02*
X7306182Y-9299746D01*
X7306182Y-9299746D02*
X7296658Y-9252127D01*
X7296658Y-9252127D02*
X7287134Y-9223555D01*
X7287134Y-9223555D02*
X7277611Y-9204508D01*
X7277611Y-9204508D02*
X7258563Y-9175936D01*
X7258563Y-9175936D02*
X7249039Y-9166412D01*
D14*
X2239050Y-9523050D02*
X2239050Y-9611950D01*
X2194600Y-9567500D02*
X2283500Y-9567500D01*
D11*
X2582372Y-9458984D02*
X2601420Y-9458984D01*
X2601420Y-9458984D02*
X2620467Y-9468508D01*
X2620467Y-9468508D02*
X2629991Y-9478031D01*
X2629991Y-9478031D02*
X2639515Y-9497079D01*
X2639515Y-9497079D02*
X2649039Y-9535174D01*
X2649039Y-9535174D02*
X2649039Y-9582793D01*
X2649039Y-9582793D02*
X2639515Y-9620889D01*
X2639515Y-9620889D02*
X2629991Y-9639936D01*
X2629991Y-9639936D02*
X2620467Y-9649460D01*
X2620467Y-9649460D02*
X2601420Y-9658984D01*
X2601420Y-9658984D02*
X2582372Y-9658984D01*
X2582372Y-9658984D02*
X2563324Y-9649460D01*
X2563324Y-9649460D02*
X2553801Y-9639936D01*
X2553801Y-9639936D02*
X2544277Y-9620889D01*
X2544277Y-9620889D02*
X2534753Y-9582793D01*
X2534753Y-9582793D02*
X2534753Y-9535174D01*
X2534753Y-9535174D02*
X2544277Y-9497079D01*
X2544277Y-9497079D02*
X2553801Y-9478031D01*
X2553801Y-9478031D02*
X2563324Y-9468508D01*
X2563324Y-9468508D02*
X2582372Y-9458984D01*
X2734753Y-9639936D02*
X2744277Y-9649460D01*
X2744277Y-9649460D02*
X2734753Y-9658984D01*
X2734753Y-9658984D02*
X2725229Y-9649460D01*
X2725229Y-9649460D02*
X2734753Y-9639936D01*
X2734753Y-9639936D02*
X2734753Y-9658984D01*
X2858562Y-9544698D02*
X2839515Y-9535174D01*
X2839515Y-9535174D02*
X2829991Y-9525650D01*
X2829991Y-9525650D02*
X2820467Y-9506603D01*
X2820467Y-9506603D02*
X2820467Y-9497079D01*
X2820467Y-9497079D02*
X2829991Y-9478031D01*
X2829991Y-9478031D02*
X2839515Y-9468508D01*
X2839515Y-9468508D02*
X2858562Y-9458984D01*
X2858562Y-9458984D02*
X2896658Y-9458984D01*
X2896658Y-9458984D02*
X2915705Y-9468508D01*
X2915705Y-9468508D02*
X2925229Y-9478031D01*
X2925229Y-9478031D02*
X2934753Y-9497079D01*
X2934753Y-9497079D02*
X2934753Y-9506603D01*
X2934753Y-9506603D02*
X2925229Y-9525650D01*
X2925229Y-9525650D02*
X2915705Y-9535174D01*
X2915705Y-9535174D02*
X2896658Y-9544698D01*
X2896658Y-9544698D02*
X2858562Y-9544698D01*
X2858562Y-9544698D02*
X2839515Y-9554222D01*
X2839515Y-9554222D02*
X2829991Y-9563746D01*
X2829991Y-9563746D02*
X2820467Y-9582793D01*
X2820467Y-9582793D02*
X2820467Y-9620889D01*
X2820467Y-9620889D02*
X2829991Y-9639936D01*
X2829991Y-9639936D02*
X2839515Y-9649460D01*
X2839515Y-9649460D02*
X2858562Y-9658984D01*
X2858562Y-9658984D02*
X2896658Y-9658984D01*
X2896658Y-9658984D02*
X2915705Y-9649460D01*
X2915705Y-9649460D02*
X2925229Y-9639936D01*
X2925229Y-9639936D02*
X2934753Y-9620889D01*
X2934753Y-9620889D02*
X2934753Y-9582793D01*
X2934753Y-9582793D02*
X2925229Y-9563746D01*
X2925229Y-9563746D02*
X2915705Y-9554222D01*
X2915705Y-9554222D02*
X2896658Y-9544698D01*
X3049039Y-9544698D02*
X3029991Y-9535174D01*
X3029991Y-9535174D02*
X3020467Y-9525650D01*
X3020467Y-9525650D02*
X3010943Y-9506603D01*
X3010943Y-9506603D02*
X3010943Y-9497079D01*
X3010943Y-9497079D02*
X3020467Y-9478031D01*
X3020467Y-9478031D02*
X3029991Y-9468508D01*
X3029991Y-9468508D02*
X3049039Y-9458984D01*
X3049039Y-9458984D02*
X3087134Y-9458984D01*
X3087134Y-9458984D02*
X3106182Y-9468508D01*
X3106182Y-9468508D02*
X3115705Y-9478031D01*
X3115705Y-9478031D02*
X3125229Y-9497079D01*
X3125229Y-9497079D02*
X3125229Y-9506603D01*
X3125229Y-9506603D02*
X3115705Y-9525650D01*
X3115705Y-9525650D02*
X3106182Y-9535174D01*
X3106182Y-9535174D02*
X3087134Y-9544698D01*
X3087134Y-9544698D02*
X3049039Y-9544698D01*
X3049039Y-9544698D02*
X3029991Y-9554222D01*
X3029991Y-9554222D02*
X3020467Y-9563746D01*
X3020467Y-9563746D02*
X3010943Y-9582793D01*
X3010943Y-9582793D02*
X3010943Y-9620889D01*
X3010943Y-9620889D02*
X3020467Y-9639936D01*
X3020467Y-9639936D02*
X3029991Y-9649460D01*
X3029991Y-9649460D02*
X3049039Y-9658984D01*
X3049039Y-9658984D02*
X3087134Y-9658984D01*
X3087134Y-9658984D02*
X3106182Y-9649460D01*
X3106182Y-9649460D02*
X3115705Y-9639936D01*
X3115705Y-9639936D02*
X3125229Y-9620889D01*
X3125229Y-9620889D02*
X3125229Y-9582793D01*
X3125229Y-9582793D02*
X3115705Y-9563746D01*
X3115705Y-9563746D02*
X3106182Y-9554222D01*
X3106182Y-9554222D02*
X3087134Y-9544698D01*
X3220467Y-9658984D02*
X3258562Y-9658984D01*
X3258562Y-9658984D02*
X3277610Y-9649460D01*
X3277610Y-9649460D02*
X3287134Y-9639936D01*
X3287134Y-9639936D02*
X3306182Y-9611365D01*
X3306182Y-9611365D02*
X3315705Y-9573270D01*
X3315705Y-9573270D02*
X3315705Y-9497079D01*
X3315705Y-9497079D02*
X3306182Y-9478031D01*
X3306182Y-9478031D02*
X3296658Y-9468508D01*
X3296658Y-9468508D02*
X3277610Y-9458984D01*
X3277610Y-9458984D02*
X3239515Y-9458984D01*
X3239515Y-9458984D02*
X3220467Y-9468508D01*
X3220467Y-9468508D02*
X3210943Y-9478031D01*
X3210943Y-9478031D02*
X3201420Y-9497079D01*
X3201420Y-9497079D02*
X3201420Y-9544698D01*
X3201420Y-9544698D02*
X3210943Y-9563746D01*
X3210943Y-9563746D02*
X3220467Y-9573270D01*
X3220467Y-9573270D02*
X3239515Y-9582793D01*
X3239515Y-9582793D02*
X3277610Y-9582793D01*
X3277610Y-9582793D02*
X3296658Y-9573270D01*
X3296658Y-9573270D02*
X3306182Y-9563746D01*
X3306182Y-9563746D02*
X3315705Y-9544698D01*
X3401420Y-9658984D02*
X3401420Y-9525650D01*
X3401420Y-9544698D02*
X3410943Y-9535174D01*
X3410943Y-9535174D02*
X3429991Y-9525650D01*
X3429991Y-9525650D02*
X3458563Y-9525650D01*
X3458563Y-9525650D02*
X3477610Y-9535174D01*
X3477610Y-9535174D02*
X3487134Y-9554222D01*
X3487134Y-9554222D02*
X3487134Y-9658984D01*
X3487134Y-9554222D02*
X3496658Y-9535174D01*
X3496658Y-9535174D02*
X3515705Y-9525650D01*
X3515705Y-9525650D02*
X3544277Y-9525650D01*
X3544277Y-9525650D02*
X3563324Y-9535174D01*
X3563324Y-9535174D02*
X3572848Y-9554222D01*
X3572848Y-9554222D02*
X3572848Y-9658984D01*
X3668086Y-9658984D02*
X3668086Y-9525650D01*
X3668086Y-9544698D02*
X3677610Y-9535174D01*
X3677610Y-9535174D02*
X3696658Y-9525650D01*
X3696658Y-9525650D02*
X3725229Y-9525650D01*
X3725229Y-9525650D02*
X3744277Y-9535174D01*
X3744277Y-9535174D02*
X3753801Y-9554222D01*
X3753801Y-9554222D02*
X3753801Y-9658984D01*
X3753801Y-9554222D02*
X3763324Y-9535174D01*
X3763324Y-9535174D02*
X3782372Y-9525650D01*
X3782372Y-9525650D02*
X3810943Y-9525650D01*
X3810943Y-9525650D02*
X3829991Y-9535174D01*
X3829991Y-9535174D02*
X3839515Y-9554222D01*
X3839515Y-9554222D02*
X3839515Y-9658984D01*
X4229991Y-9449460D02*
X4058563Y-9706603D01*
X4487134Y-9458984D02*
X4506182Y-9458984D01*
X4506182Y-9458984D02*
X4525229Y-9468508D01*
X4525229Y-9468508D02*
X4534753Y-9478031D01*
X4534753Y-9478031D02*
X4544277Y-9497079D01*
X4544277Y-9497079D02*
X4553801Y-9535174D01*
X4553801Y-9535174D02*
X4553801Y-9582793D01*
X4553801Y-9582793D02*
X4544277Y-9620889D01*
X4544277Y-9620889D02*
X4534753Y-9639936D01*
X4534753Y-9639936D02*
X4525229Y-9649460D01*
X4525229Y-9649460D02*
X4506182Y-9658984D01*
X4506182Y-9658984D02*
X4487134Y-9658984D01*
X4487134Y-9658984D02*
X4468087Y-9649460D01*
X4468087Y-9649460D02*
X4458563Y-9639936D01*
X4458563Y-9639936D02*
X4449039Y-9620889D01*
X4449039Y-9620889D02*
X4439515Y-9582793D01*
X4439515Y-9582793D02*
X4439515Y-9535174D01*
X4439515Y-9535174D02*
X4449039Y-9497079D01*
X4449039Y-9497079D02*
X4458563Y-9478031D01*
X4458563Y-9478031D02*
X4468087Y-9468508D01*
X4468087Y-9468508D02*
X4487134Y-9458984D01*
X4639515Y-9639936D02*
X4649039Y-9649460D01*
X4649039Y-9649460D02*
X4639515Y-9658984D01*
X4639515Y-9658984D02*
X4629991Y-9649460D01*
X4629991Y-9649460D02*
X4639515Y-9639936D01*
X4639515Y-9639936D02*
X4639515Y-9658984D01*
X4772848Y-9458984D02*
X4791896Y-9458984D01*
X4791896Y-9458984D02*
X4810944Y-9468508D01*
X4810944Y-9468508D02*
X4820468Y-9478031D01*
X4820468Y-9478031D02*
X4829991Y-9497079D01*
X4829991Y-9497079D02*
X4839515Y-9535174D01*
X4839515Y-9535174D02*
X4839515Y-9582793D01*
X4839515Y-9582793D02*
X4829991Y-9620889D01*
X4829991Y-9620889D02*
X4820468Y-9639936D01*
X4820468Y-9639936D02*
X4810944Y-9649460D01*
X4810944Y-9649460D02*
X4791896Y-9658984D01*
X4791896Y-9658984D02*
X4772848Y-9658984D01*
X4772848Y-9658984D02*
X4753801Y-9649460D01*
X4753801Y-9649460D02*
X4744277Y-9639936D01*
X4744277Y-9639936D02*
X4734753Y-9620889D01*
X4734753Y-9620889D02*
X4725229Y-9582793D01*
X4725229Y-9582793D02*
X4725229Y-9535174D01*
X4725229Y-9535174D02*
X4734753Y-9497079D01*
X4734753Y-9497079D02*
X4744277Y-9478031D01*
X4744277Y-9478031D02*
X4753801Y-9468508D01*
X4753801Y-9468508D02*
X4772848Y-9458984D01*
X4906182Y-9458984D02*
X5029991Y-9458984D01*
X5029991Y-9458984D02*
X4963325Y-9535174D01*
X4963325Y-9535174D02*
X4991896Y-9535174D01*
X4991896Y-9535174D02*
X5010944Y-9544698D01*
X5010944Y-9544698D02*
X5020468Y-9554222D01*
X5020468Y-9554222D02*
X5029991Y-9573270D01*
X5029991Y-9573270D02*
X5029991Y-9620889D01*
X5029991Y-9620889D02*
X5020468Y-9639936D01*
X5020468Y-9639936D02*
X5010944Y-9649460D01*
X5010944Y-9649460D02*
X4991896Y-9658984D01*
X4991896Y-9658984D02*
X4934753Y-9658984D01*
X4934753Y-9658984D02*
X4915706Y-9649460D01*
X4915706Y-9649460D02*
X4906182Y-9639936D01*
X5210944Y-9458984D02*
X5115706Y-9458984D01*
X5115706Y-9458984D02*
X5106182Y-9554222D01*
X5106182Y-9554222D02*
X5115706Y-9544698D01*
X5115706Y-9544698D02*
X5134753Y-9535174D01*
X5134753Y-9535174D02*
X5182372Y-9535174D01*
X5182372Y-9535174D02*
X5201420Y-9544698D01*
X5201420Y-9544698D02*
X5210944Y-9554222D01*
X5210944Y-9554222D02*
X5220468Y-9573270D01*
X5220468Y-9573270D02*
X5220468Y-9620889D01*
X5220468Y-9620889D02*
X5210944Y-9639936D01*
X5210944Y-9639936D02*
X5201420Y-9649460D01*
X5201420Y-9649460D02*
X5182372Y-9658984D01*
X5182372Y-9658984D02*
X5134753Y-9658984D01*
X5134753Y-9658984D02*
X5115706Y-9649460D01*
X5115706Y-9649460D02*
X5106182Y-9639936D01*
X5344277Y-9458984D02*
X5363325Y-9458984D01*
X5363325Y-9458984D02*
X5382372Y-9468508D01*
X5382372Y-9468508D02*
X5391896Y-9478031D01*
X5391896Y-9478031D02*
X5401420Y-9497079D01*
X5401420Y-9497079D02*
X5410944Y-9535174D01*
X5410944Y-9535174D02*
X5410944Y-9582793D01*
X5410944Y-9582793D02*
X5401420Y-9620889D01*
X5401420Y-9620889D02*
X5391896Y-9639936D01*
X5391896Y-9639936D02*
X5382372Y-9649460D01*
X5382372Y-9649460D02*
X5363325Y-9658984D01*
X5363325Y-9658984D02*
X5344277Y-9658984D01*
X5344277Y-9658984D02*
X5325229Y-9649460D01*
X5325229Y-9649460D02*
X5315706Y-9639936D01*
X5315706Y-9639936D02*
X5306182Y-9620889D01*
X5306182Y-9620889D02*
X5296658Y-9582793D01*
X5296658Y-9582793D02*
X5296658Y-9535174D01*
X5296658Y-9535174D02*
X5306182Y-9497079D01*
X5306182Y-9497079D02*
X5315706Y-9478031D01*
X5315706Y-9478031D02*
X5325229Y-9468508D01*
X5325229Y-9468508D02*
X5344277Y-9458984D01*
X5487134Y-9458984D02*
X5487134Y-9497079D01*
X5563325Y-9458984D02*
X5563325Y-9497079D01*
X5858563Y-9735174D02*
X5849039Y-9725650D01*
X5849039Y-9725650D02*
X5829991Y-9697079D01*
X5829991Y-9697079D02*
X5820468Y-9678031D01*
X5820468Y-9678031D02*
X5810944Y-9649460D01*
X5810944Y-9649460D02*
X5801420Y-9601841D01*
X5801420Y-9601841D02*
X5801420Y-9563746D01*
X5801420Y-9563746D02*
X5810944Y-9516127D01*
X5810944Y-9516127D02*
X5820468Y-9487555D01*
X5820468Y-9487555D02*
X5829991Y-9468508D01*
X5829991Y-9468508D02*
X5849039Y-9439936D01*
X5849039Y-9439936D02*
X5858563Y-9430412D01*
X6020468Y-9458984D02*
X5982372Y-9458984D01*
X5982372Y-9458984D02*
X5963325Y-9468508D01*
X5963325Y-9468508D02*
X5953801Y-9478031D01*
X5953801Y-9478031D02*
X5934753Y-9506603D01*
X5934753Y-9506603D02*
X5925229Y-9544698D01*
X5925229Y-9544698D02*
X5925229Y-9620889D01*
X5925229Y-9620889D02*
X5934753Y-9639936D01*
X5934753Y-9639936D02*
X5944277Y-9649460D01*
X5944277Y-9649460D02*
X5963325Y-9658984D01*
X5963325Y-9658984D02*
X6001420Y-9658984D01*
X6001420Y-9658984D02*
X6020468Y-9649460D01*
X6020468Y-9649460D02*
X6029991Y-9639936D01*
X6029991Y-9639936D02*
X6039515Y-9620889D01*
X6039515Y-9620889D02*
X6039515Y-9573270D01*
X6039515Y-9573270D02*
X6029991Y-9554222D01*
X6029991Y-9554222D02*
X6020468Y-9544698D01*
X6020468Y-9544698D02*
X6001420Y-9535174D01*
X6001420Y-9535174D02*
X5963325Y-9535174D01*
X5963325Y-9535174D02*
X5944277Y-9544698D01*
X5944277Y-9544698D02*
X5934753Y-9554222D01*
X5934753Y-9554222D02*
X5925229Y-9573270D01*
X6277610Y-9658984D02*
X6277610Y-9458984D01*
X6363325Y-9658984D02*
X6363325Y-9554222D01*
X6363325Y-9554222D02*
X6353801Y-9535174D01*
X6353801Y-9535174D02*
X6334753Y-9525650D01*
X6334753Y-9525650D02*
X6306182Y-9525650D01*
X6306182Y-9525650D02*
X6287134Y-9535174D01*
X6287134Y-9535174D02*
X6277610Y-9544698D01*
X6487134Y-9658984D02*
X6468087Y-9649460D01*
X6468087Y-9649460D02*
X6458563Y-9639936D01*
X6458563Y-9639936D02*
X6449039Y-9620889D01*
X6449039Y-9620889D02*
X6449039Y-9563746D01*
X6449039Y-9563746D02*
X6458563Y-9544698D01*
X6458563Y-9544698D02*
X6468087Y-9535174D01*
X6468087Y-9535174D02*
X6487134Y-9525650D01*
X6487134Y-9525650D02*
X6515706Y-9525650D01*
X6515706Y-9525650D02*
X6534753Y-9535174D01*
X6534753Y-9535174D02*
X6544277Y-9544698D01*
X6544277Y-9544698D02*
X6553801Y-9563746D01*
X6553801Y-9563746D02*
X6553801Y-9620889D01*
X6553801Y-9620889D02*
X6544277Y-9639936D01*
X6544277Y-9639936D02*
X6534753Y-9649460D01*
X6534753Y-9649460D02*
X6515706Y-9658984D01*
X6515706Y-9658984D02*
X6487134Y-9658984D01*
X6668087Y-9658984D02*
X6649039Y-9649460D01*
X6649039Y-9649460D02*
X6639515Y-9630412D01*
X6639515Y-9630412D02*
X6639515Y-9458984D01*
X6820468Y-9649460D02*
X6801420Y-9658984D01*
X6801420Y-9658984D02*
X6763325Y-9658984D01*
X6763325Y-9658984D02*
X6744277Y-9649460D01*
X6744277Y-9649460D02*
X6734753Y-9630412D01*
X6734753Y-9630412D02*
X6734753Y-9554222D01*
X6734753Y-9554222D02*
X6744277Y-9535174D01*
X6744277Y-9535174D02*
X6763325Y-9525650D01*
X6763325Y-9525650D02*
X6801420Y-9525650D01*
X6801420Y-9525650D02*
X6820468Y-9535174D01*
X6820468Y-9535174D02*
X6829991Y-9554222D01*
X6829991Y-9554222D02*
X6829991Y-9573270D01*
X6829991Y-9573270D02*
X6734753Y-9592317D01*
X6906182Y-9649460D02*
X6925230Y-9658984D01*
X6925230Y-9658984D02*
X6963325Y-9658984D01*
X6963325Y-9658984D02*
X6982372Y-9649460D01*
X6982372Y-9649460D02*
X6991896Y-9630412D01*
X6991896Y-9630412D02*
X6991896Y-9620889D01*
X6991896Y-9620889D02*
X6982372Y-9601841D01*
X6982372Y-9601841D02*
X6963325Y-9592317D01*
X6963325Y-9592317D02*
X6934753Y-9592317D01*
X6934753Y-9592317D02*
X6915706Y-9582793D01*
X6915706Y-9582793D02*
X6906182Y-9563746D01*
X6906182Y-9563746D02*
X6906182Y-9554222D01*
X6906182Y-9554222D02*
X6915706Y-9535174D01*
X6915706Y-9535174D02*
X6934753Y-9525650D01*
X6934753Y-9525650D02*
X6963325Y-9525650D01*
X6963325Y-9525650D02*
X6982372Y-9535174D01*
X7058563Y-9735174D02*
X7068087Y-9725650D01*
X7068087Y-9725650D02*
X7087134Y-9697079D01*
X7087134Y-9697079D02*
X7096658Y-9678031D01*
X7096658Y-9678031D02*
X7106182Y-9649460D01*
X7106182Y-9649460D02*
X7115706Y-9601841D01*
X7115706Y-9601841D02*
X7115706Y-9563746D01*
X7115706Y-9563746D02*
X7106182Y-9516127D01*
X7106182Y-9516127D02*
X7096658Y-9487555D01*
X7096658Y-9487555D02*
X7087134Y-9468508D01*
X7087134Y-9468508D02*
X7068087Y-9439936D01*
X7068087Y-9439936D02*
X7058563Y-9430412D01*
D15*
X2270320Y-9863320D02*
X2270320Y-9799680D01*
X2206680Y-9799680D01*
X2206680Y-9863320D01*
X2270320Y-9863320D01*
D11*
X2582372Y-9722984D02*
X2601420Y-9722984D01*
X2601420Y-9722984D02*
X2620467Y-9732508D01*
X2620467Y-9732508D02*
X2629991Y-9742031D01*
X2629991Y-9742031D02*
X2639515Y-9761079D01*
X2639515Y-9761079D02*
X2649039Y-9799174D01*
X2649039Y-9799174D02*
X2649039Y-9846793D01*
X2649039Y-9846793D02*
X2639515Y-9884889D01*
X2639515Y-9884889D02*
X2629991Y-9903936D01*
X2629991Y-9903936D02*
X2620467Y-9913460D01*
X2620467Y-9913460D02*
X2601420Y-9922984D01*
X2601420Y-9922984D02*
X2582372Y-9922984D01*
X2582372Y-9922984D02*
X2563324Y-9913460D01*
X2563324Y-9913460D02*
X2553801Y-9903936D01*
X2553801Y-9903936D02*
X2544277Y-9884889D01*
X2544277Y-9884889D02*
X2534753Y-9846793D01*
X2534753Y-9846793D02*
X2534753Y-9799174D01*
X2534753Y-9799174D02*
X2544277Y-9761079D01*
X2544277Y-9761079D02*
X2553801Y-9742031D01*
X2553801Y-9742031D02*
X2563324Y-9732508D01*
X2563324Y-9732508D02*
X2582372Y-9722984D01*
X2734753Y-9903936D02*
X2744277Y-9913460D01*
X2744277Y-9913460D02*
X2734753Y-9922984D01*
X2734753Y-9922984D02*
X2725229Y-9913460D01*
X2725229Y-9913460D02*
X2734753Y-9903936D01*
X2734753Y-9903936D02*
X2734753Y-9922984D01*
X2839515Y-9922984D02*
X2877610Y-9922984D01*
X2877610Y-9922984D02*
X2896658Y-9913460D01*
X2896658Y-9913460D02*
X2906182Y-9903936D01*
X2906182Y-9903936D02*
X2925229Y-9875365D01*
X2925229Y-9875365D02*
X2934753Y-9837270D01*
X2934753Y-9837270D02*
X2934753Y-9761079D01*
X2934753Y-9761079D02*
X2925229Y-9742031D01*
X2925229Y-9742031D02*
X2915705Y-9732508D01*
X2915705Y-9732508D02*
X2896658Y-9722984D01*
X2896658Y-9722984D02*
X2858562Y-9722984D01*
X2858562Y-9722984D02*
X2839515Y-9732508D01*
X2839515Y-9732508D02*
X2829991Y-9742031D01*
X2829991Y-9742031D02*
X2820467Y-9761079D01*
X2820467Y-9761079D02*
X2820467Y-9808698D01*
X2820467Y-9808698D02*
X2829991Y-9827746D01*
X2829991Y-9827746D02*
X2839515Y-9837270D01*
X2839515Y-9837270D02*
X2858562Y-9846793D01*
X2858562Y-9846793D02*
X2896658Y-9846793D01*
X2896658Y-9846793D02*
X2915705Y-9837270D01*
X2915705Y-9837270D02*
X2925229Y-9827746D01*
X2925229Y-9827746D02*
X2934753Y-9808698D01*
X3058562Y-9722984D02*
X3077610Y-9722984D01*
X3077610Y-9722984D02*
X3096658Y-9732508D01*
X3096658Y-9732508D02*
X3106182Y-9742031D01*
X3106182Y-9742031D02*
X3115705Y-9761079D01*
X3115705Y-9761079D02*
X3125229Y-9799174D01*
X3125229Y-9799174D02*
X3125229Y-9846793D01*
X3125229Y-9846793D02*
X3115705Y-9884889D01*
X3115705Y-9884889D02*
X3106182Y-9903936D01*
X3106182Y-9903936D02*
X3096658Y-9913460D01*
X3096658Y-9913460D02*
X3077610Y-9922984D01*
X3077610Y-9922984D02*
X3058562Y-9922984D01*
X3058562Y-9922984D02*
X3039515Y-9913460D01*
X3039515Y-9913460D02*
X3029991Y-9903936D01*
X3029991Y-9903936D02*
X3020467Y-9884889D01*
X3020467Y-9884889D02*
X3010943Y-9846793D01*
X3010943Y-9846793D02*
X3010943Y-9799174D01*
X3010943Y-9799174D02*
X3020467Y-9761079D01*
X3020467Y-9761079D02*
X3029991Y-9742031D01*
X3029991Y-9742031D02*
X3039515Y-9732508D01*
X3039515Y-9732508D02*
X3058562Y-9722984D01*
X3249039Y-9722984D02*
X3268086Y-9722984D01*
X3268086Y-9722984D02*
X3287134Y-9732508D01*
X3287134Y-9732508D02*
X3296658Y-9742031D01*
X3296658Y-9742031D02*
X3306182Y-9761079D01*
X3306182Y-9761079D02*
X3315705Y-9799174D01*
X3315705Y-9799174D02*
X3315705Y-9846793D01*
X3315705Y-9846793D02*
X3306182Y-9884889D01*
X3306182Y-9884889D02*
X3296658Y-9903936D01*
X3296658Y-9903936D02*
X3287134Y-9913460D01*
X3287134Y-9913460D02*
X3268086Y-9922984D01*
X3268086Y-9922984D02*
X3249039Y-9922984D01*
X3249039Y-9922984D02*
X3229991Y-9913460D01*
X3229991Y-9913460D02*
X3220467Y-9903936D01*
X3220467Y-9903936D02*
X3210943Y-9884889D01*
X3210943Y-9884889D02*
X3201420Y-9846793D01*
X3201420Y-9846793D02*
X3201420Y-9799174D01*
X3201420Y-9799174D02*
X3210943Y-9761079D01*
X3210943Y-9761079D02*
X3220467Y-9742031D01*
X3220467Y-9742031D02*
X3229991Y-9732508D01*
X3229991Y-9732508D02*
X3249039Y-9722984D01*
X3401420Y-9922984D02*
X3401420Y-9789650D01*
X3401420Y-9808698D02*
X3410943Y-9799174D01*
X3410943Y-9799174D02*
X3429991Y-9789650D01*
X3429991Y-9789650D02*
X3458563Y-9789650D01*
X3458563Y-9789650D02*
X3477610Y-9799174D01*
X3477610Y-9799174D02*
X3487134Y-9818222D01*
X3487134Y-9818222D02*
X3487134Y-9922984D01*
X3487134Y-9818222D02*
X3496658Y-9799174D01*
X3496658Y-9799174D02*
X3515705Y-9789650D01*
X3515705Y-9789650D02*
X3544277Y-9789650D01*
X3544277Y-9789650D02*
X3563324Y-9799174D01*
X3563324Y-9799174D02*
X3572848Y-9818222D01*
X3572848Y-9818222D02*
X3572848Y-9922984D01*
X3668086Y-9922984D02*
X3668086Y-9789650D01*
X3668086Y-9808698D02*
X3677610Y-9799174D01*
X3677610Y-9799174D02*
X3696658Y-9789650D01*
X3696658Y-9789650D02*
X3725229Y-9789650D01*
X3725229Y-9789650D02*
X3744277Y-9799174D01*
X3744277Y-9799174D02*
X3753801Y-9818222D01*
X3753801Y-9818222D02*
X3753801Y-9922984D01*
X3753801Y-9818222D02*
X3763324Y-9799174D01*
X3763324Y-9799174D02*
X3782372Y-9789650D01*
X3782372Y-9789650D02*
X3810943Y-9789650D01*
X3810943Y-9789650D02*
X3829991Y-9799174D01*
X3829991Y-9799174D02*
X3839515Y-9818222D01*
X3839515Y-9818222D02*
X3839515Y-9922984D01*
X4229991Y-9713460D02*
X4058563Y-9970603D01*
X4487134Y-9722984D02*
X4506182Y-9722984D01*
X4506182Y-9722984D02*
X4525229Y-9732508D01*
X4525229Y-9732508D02*
X4534753Y-9742031D01*
X4534753Y-9742031D02*
X4544277Y-9761079D01*
X4544277Y-9761079D02*
X4553801Y-9799174D01*
X4553801Y-9799174D02*
X4553801Y-9846793D01*
X4553801Y-9846793D02*
X4544277Y-9884889D01*
X4544277Y-9884889D02*
X4534753Y-9903936D01*
X4534753Y-9903936D02*
X4525229Y-9913460D01*
X4525229Y-9913460D02*
X4506182Y-9922984D01*
X4506182Y-9922984D02*
X4487134Y-9922984D01*
X4487134Y-9922984D02*
X4468087Y-9913460D01*
X4468087Y-9913460D02*
X4458563Y-9903936D01*
X4458563Y-9903936D02*
X4449039Y-9884889D01*
X4449039Y-9884889D02*
X4439515Y-9846793D01*
X4439515Y-9846793D02*
X4439515Y-9799174D01*
X4439515Y-9799174D02*
X4449039Y-9761079D01*
X4449039Y-9761079D02*
X4458563Y-9742031D01*
X4458563Y-9742031D02*
X4468087Y-9732508D01*
X4468087Y-9732508D02*
X4487134Y-9722984D01*
X4639515Y-9903936D02*
X4649039Y-9913460D01*
X4649039Y-9913460D02*
X4639515Y-9922984D01*
X4639515Y-9922984D02*
X4629991Y-9913460D01*
X4629991Y-9913460D02*
X4639515Y-9903936D01*
X4639515Y-9903936D02*
X4639515Y-9922984D01*
X4772848Y-9722984D02*
X4791896Y-9722984D01*
X4791896Y-9722984D02*
X4810944Y-9732508D01*
X4810944Y-9732508D02*
X4820468Y-9742031D01*
X4820468Y-9742031D02*
X4829991Y-9761079D01*
X4829991Y-9761079D02*
X4839515Y-9799174D01*
X4839515Y-9799174D02*
X4839515Y-9846793D01*
X4839515Y-9846793D02*
X4829991Y-9884889D01*
X4829991Y-9884889D02*
X4820468Y-9903936D01*
X4820468Y-9903936D02*
X4810944Y-9913460D01*
X4810944Y-9913460D02*
X4791896Y-9922984D01*
X4791896Y-9922984D02*
X4772848Y-9922984D01*
X4772848Y-9922984D02*
X4753801Y-9913460D01*
X4753801Y-9913460D02*
X4744277Y-9903936D01*
X4744277Y-9903936D02*
X4734753Y-9884889D01*
X4734753Y-9884889D02*
X4725229Y-9846793D01*
X4725229Y-9846793D02*
X4725229Y-9799174D01*
X4725229Y-9799174D02*
X4734753Y-9761079D01*
X4734753Y-9761079D02*
X4744277Y-9742031D01*
X4744277Y-9742031D02*
X4753801Y-9732508D01*
X4753801Y-9732508D02*
X4772848Y-9722984D01*
X4906182Y-9722984D02*
X5029991Y-9722984D01*
X5029991Y-9722984D02*
X4963325Y-9799174D01*
X4963325Y-9799174D02*
X4991896Y-9799174D01*
X4991896Y-9799174D02*
X5010944Y-9808698D01*
X5010944Y-9808698D02*
X5020468Y-9818222D01*
X5020468Y-9818222D02*
X5029991Y-9837270D01*
X5029991Y-9837270D02*
X5029991Y-9884889D01*
X5029991Y-9884889D02*
X5020468Y-9903936D01*
X5020468Y-9903936D02*
X5010944Y-9913460D01*
X5010944Y-9913460D02*
X4991896Y-9922984D01*
X4991896Y-9922984D02*
X4934753Y-9922984D01*
X4934753Y-9922984D02*
X4915706Y-9913460D01*
X4915706Y-9913460D02*
X4906182Y-9903936D01*
X5210944Y-9722984D02*
X5115706Y-9722984D01*
X5115706Y-9722984D02*
X5106182Y-9818222D01*
X5106182Y-9818222D02*
X5115706Y-9808698D01*
X5115706Y-9808698D02*
X5134753Y-9799174D01*
X5134753Y-9799174D02*
X5182372Y-9799174D01*
X5182372Y-9799174D02*
X5201420Y-9808698D01*
X5201420Y-9808698D02*
X5210944Y-9818222D01*
X5210944Y-9818222D02*
X5220468Y-9837270D01*
X5220468Y-9837270D02*
X5220468Y-9884889D01*
X5220468Y-9884889D02*
X5210944Y-9903936D01*
X5210944Y-9903936D02*
X5201420Y-9913460D01*
X5201420Y-9913460D02*
X5182372Y-9922984D01*
X5182372Y-9922984D02*
X5134753Y-9922984D01*
X5134753Y-9922984D02*
X5115706Y-9913460D01*
X5115706Y-9913460D02*
X5106182Y-9903936D01*
X5391896Y-9789650D02*
X5391896Y-9922984D01*
X5344277Y-9713460D02*
X5296658Y-9856317D01*
X5296658Y-9856317D02*
X5420468Y-9856317D01*
X5487134Y-9722984D02*
X5487134Y-9761079D01*
X5563325Y-9722984D02*
X5563325Y-9761079D01*
X5858563Y-9999174D02*
X5849039Y-9989650D01*
X5849039Y-9989650D02*
X5829991Y-9961079D01*
X5829991Y-9961079D02*
X5820468Y-9942031D01*
X5820468Y-9942031D02*
X5810944Y-9913460D01*
X5810944Y-9913460D02*
X5801420Y-9865841D01*
X5801420Y-9865841D02*
X5801420Y-9827746D01*
X5801420Y-9827746D02*
X5810944Y-9780127D01*
X5810944Y-9780127D02*
X5820468Y-9751555D01*
X5820468Y-9751555D02*
X5829991Y-9732508D01*
X5829991Y-9732508D02*
X5849039Y-9703936D01*
X5849039Y-9703936D02*
X5858563Y-9694412D01*
X6020468Y-9789650D02*
X6020468Y-9922984D01*
X5972848Y-9713460D02*
X5925229Y-9856317D01*
X5925229Y-9856317D02*
X6049039Y-9856317D01*
X6277610Y-9922984D02*
X6277610Y-9722984D01*
X6363325Y-9922984D02*
X6363325Y-9818222D01*
X6363325Y-9818222D02*
X6353801Y-9799174D01*
X6353801Y-9799174D02*
X6334753Y-9789650D01*
X6334753Y-9789650D02*
X6306182Y-9789650D01*
X6306182Y-9789650D02*
X6287134Y-9799174D01*
X6287134Y-9799174D02*
X6277610Y-9808698D01*
X6487134Y-9922984D02*
X6468087Y-9913460D01*
X6468087Y-9913460D02*
X6458563Y-9903936D01*
X6458563Y-9903936D02*
X6449039Y-9884889D01*
X6449039Y-9884889D02*
X6449039Y-9827746D01*
X6449039Y-9827746D02*
X6458563Y-9808698D01*
X6458563Y-9808698D02*
X6468087Y-9799174D01*
X6468087Y-9799174D02*
X6487134Y-9789650D01*
X6487134Y-9789650D02*
X6515706Y-9789650D01*
X6515706Y-9789650D02*
X6534753Y-9799174D01*
X6534753Y-9799174D02*
X6544277Y-9808698D01*
X6544277Y-9808698D02*
X6553801Y-9827746D01*
X6553801Y-9827746D02*
X6553801Y-9884889D01*
X6553801Y-9884889D02*
X6544277Y-9903936D01*
X6544277Y-9903936D02*
X6534753Y-9913460D01*
X6534753Y-9913460D02*
X6515706Y-9922984D01*
X6515706Y-9922984D02*
X6487134Y-9922984D01*
X6668087Y-9922984D02*
X6649039Y-9913460D01*
X6649039Y-9913460D02*
X6639515Y-9894412D01*
X6639515Y-9894412D02*
X6639515Y-9722984D01*
X6820468Y-9913460D02*
X6801420Y-9922984D01*
X6801420Y-9922984D02*
X6763325Y-9922984D01*
X6763325Y-9922984D02*
X6744277Y-9913460D01*
X6744277Y-9913460D02*
X6734753Y-9894412D01*
X6734753Y-9894412D02*
X6734753Y-9818222D01*
X6734753Y-9818222D02*
X6744277Y-9799174D01*
X6744277Y-9799174D02*
X6763325Y-9789650D01*
X6763325Y-9789650D02*
X6801420Y-9789650D01*
X6801420Y-9789650D02*
X6820468Y-9799174D01*
X6820468Y-9799174D02*
X6829991Y-9818222D01*
X6829991Y-9818222D02*
X6829991Y-9837270D01*
X6829991Y-9837270D02*
X6734753Y-9856317D01*
X6906182Y-9913460D02*
X6925230Y-9922984D01*
X6925230Y-9922984D02*
X6963325Y-9922984D01*
X6963325Y-9922984D02*
X6982372Y-9913460D01*
X6982372Y-9913460D02*
X6991896Y-9894412D01*
X6991896Y-9894412D02*
X6991896Y-9884889D01*
X6991896Y-9884889D02*
X6982372Y-9865841D01*
X6982372Y-9865841D02*
X6963325Y-9856317D01*
X6963325Y-9856317D02*
X6934753Y-9856317D01*
X6934753Y-9856317D02*
X6915706Y-9846793D01*
X6915706Y-9846793D02*
X6906182Y-9827746D01*
X6906182Y-9827746D02*
X6906182Y-9818222D01*
X6906182Y-9818222D02*
X6915706Y-9799174D01*
X6915706Y-9799174D02*
X6934753Y-9789650D01*
X6934753Y-9789650D02*
X6963325Y-9789650D01*
X6963325Y-9789650D02*
X6982372Y-9799174D01*
X7058563Y-9999174D02*
X7068087Y-9989650D01*
X7068087Y-9989650D02*
X7087134Y-9961079D01*
X7087134Y-9961079D02*
X7096658Y-9942031D01*
X7096658Y-9942031D02*
X7106182Y-9913460D01*
X7106182Y-9913460D02*
X7115706Y-9865841D01*
X7115706Y-9865841D02*
X7115706Y-9827746D01*
X7115706Y-9827746D02*
X7106182Y-9780127D01*
X7106182Y-9780127D02*
X7096658Y-9751555D01*
X7096658Y-9751555D02*
X7087134Y-9732508D01*
X7087134Y-9732508D02*
X7068087Y-9703936D01*
X7068087Y-9703936D02*
X7058563Y-9694412D01*
D16*
X2233500Y-10145500D02*
X2283500Y-10095500D01*
X2233500Y-10045500D01*
X2183500Y-10095500D01*
X2233500Y-10145500D01*
D11*
X2649039Y-10186984D02*
X2534753Y-10186984D01*
X2591896Y-10186984D02*
X2591896Y-9986984D01*
X2591896Y-9986984D02*
X2572848Y-10015555D01*
X2572848Y-10015555D02*
X2553801Y-10034603D01*
X2553801Y-10034603D02*
X2534753Y-10044127D01*
X2734753Y-10167936D02*
X2744277Y-10177460D01*
X2744277Y-10177460D02*
X2734753Y-10186984D01*
X2734753Y-10186984D02*
X2725229Y-10177460D01*
X2725229Y-10177460D02*
X2734753Y-10167936D01*
X2734753Y-10167936D02*
X2734753Y-10186984D01*
X2868086Y-9986984D02*
X2887134Y-9986984D01*
X2887134Y-9986984D02*
X2906182Y-9996508D01*
X2906182Y-9996508D02*
X2915705Y-10006031D01*
X2915705Y-10006031D02*
X2925229Y-10025079D01*
X2925229Y-10025079D02*
X2934753Y-10063174D01*
X2934753Y-10063174D02*
X2934753Y-10110793D01*
X2934753Y-10110793D02*
X2925229Y-10148889D01*
X2925229Y-10148889D02*
X2915705Y-10167936D01*
X2915705Y-10167936D02*
X2906182Y-10177460D01*
X2906182Y-10177460D02*
X2887134Y-10186984D01*
X2887134Y-10186984D02*
X2868086Y-10186984D01*
X2868086Y-10186984D02*
X2849039Y-10177460D01*
X2849039Y-10177460D02*
X2839515Y-10167936D01*
X2839515Y-10167936D02*
X2829991Y-10148889D01*
X2829991Y-10148889D02*
X2820467Y-10110793D01*
X2820467Y-10110793D02*
X2820467Y-10063174D01*
X2820467Y-10063174D02*
X2829991Y-10025079D01*
X2829991Y-10025079D02*
X2839515Y-10006031D01*
X2839515Y-10006031D02*
X2849039Y-9996508D01*
X2849039Y-9996508D02*
X2868086Y-9986984D01*
X3058562Y-9986984D02*
X3077610Y-9986984D01*
X3077610Y-9986984D02*
X3096658Y-9996508D01*
X3096658Y-9996508D02*
X3106182Y-10006031D01*
X3106182Y-10006031D02*
X3115705Y-10025079D01*
X3115705Y-10025079D02*
X3125229Y-10063174D01*
X3125229Y-10063174D02*
X3125229Y-10110793D01*
X3125229Y-10110793D02*
X3115705Y-10148889D01*
X3115705Y-10148889D02*
X3106182Y-10167936D01*
X3106182Y-10167936D02*
X3096658Y-10177460D01*
X3096658Y-10177460D02*
X3077610Y-10186984D01*
X3077610Y-10186984D02*
X3058562Y-10186984D01*
X3058562Y-10186984D02*
X3039515Y-10177460D01*
X3039515Y-10177460D02*
X3029991Y-10167936D01*
X3029991Y-10167936D02*
X3020467Y-10148889D01*
X3020467Y-10148889D02*
X3010943Y-10110793D01*
X3010943Y-10110793D02*
X3010943Y-10063174D01*
X3010943Y-10063174D02*
X3020467Y-10025079D01*
X3020467Y-10025079D02*
X3029991Y-10006031D01*
X3029991Y-10006031D02*
X3039515Y-9996508D01*
X3039515Y-9996508D02*
X3058562Y-9986984D01*
X3249039Y-9986984D02*
X3268086Y-9986984D01*
X3268086Y-9986984D02*
X3287134Y-9996508D01*
X3287134Y-9996508D02*
X3296658Y-10006031D01*
X3296658Y-10006031D02*
X3306182Y-10025079D01*
X3306182Y-10025079D02*
X3315705Y-10063174D01*
X3315705Y-10063174D02*
X3315705Y-10110793D01*
X3315705Y-10110793D02*
X3306182Y-10148889D01*
X3306182Y-10148889D02*
X3296658Y-10167936D01*
X3296658Y-10167936D02*
X3287134Y-10177460D01*
X3287134Y-10177460D02*
X3268086Y-10186984D01*
X3268086Y-10186984D02*
X3249039Y-10186984D01*
X3249039Y-10186984D02*
X3229991Y-10177460D01*
X3229991Y-10177460D02*
X3220467Y-10167936D01*
X3220467Y-10167936D02*
X3210943Y-10148889D01*
X3210943Y-10148889D02*
X3201420Y-10110793D01*
X3201420Y-10110793D02*
X3201420Y-10063174D01*
X3201420Y-10063174D02*
X3210943Y-10025079D01*
X3210943Y-10025079D02*
X3220467Y-10006031D01*
X3220467Y-10006031D02*
X3229991Y-9996508D01*
X3229991Y-9996508D02*
X3249039Y-9986984D01*
X3401420Y-10186984D02*
X3401420Y-10053650D01*
X3401420Y-10072698D02*
X3410943Y-10063174D01*
X3410943Y-10063174D02*
X3429991Y-10053650D01*
X3429991Y-10053650D02*
X3458563Y-10053650D01*
X3458563Y-10053650D02*
X3477610Y-10063174D01*
X3477610Y-10063174D02*
X3487134Y-10082222D01*
X3487134Y-10082222D02*
X3487134Y-10186984D01*
X3487134Y-10082222D02*
X3496658Y-10063174D01*
X3496658Y-10063174D02*
X3515705Y-10053650D01*
X3515705Y-10053650D02*
X3544277Y-10053650D01*
X3544277Y-10053650D02*
X3563324Y-10063174D01*
X3563324Y-10063174D02*
X3572848Y-10082222D01*
X3572848Y-10082222D02*
X3572848Y-10186984D01*
X3668086Y-10186984D02*
X3668086Y-10053650D01*
X3668086Y-10072698D02*
X3677610Y-10063174D01*
X3677610Y-10063174D02*
X3696658Y-10053650D01*
X3696658Y-10053650D02*
X3725229Y-10053650D01*
X3725229Y-10053650D02*
X3744277Y-10063174D01*
X3744277Y-10063174D02*
X3753801Y-10082222D01*
X3753801Y-10082222D02*
X3753801Y-10186984D01*
X3753801Y-10082222D02*
X3763324Y-10063174D01*
X3763324Y-10063174D02*
X3782372Y-10053650D01*
X3782372Y-10053650D02*
X3810943Y-10053650D01*
X3810943Y-10053650D02*
X3829991Y-10063174D01*
X3829991Y-10063174D02*
X3839515Y-10082222D01*
X3839515Y-10082222D02*
X3839515Y-10186984D01*
X4229991Y-9977460D02*
X4058563Y-10234603D01*
X4487134Y-9986984D02*
X4506182Y-9986984D01*
X4506182Y-9986984D02*
X4525229Y-9996508D01*
X4525229Y-9996508D02*
X4534753Y-10006031D01*
X4534753Y-10006031D02*
X4544277Y-10025079D01*
X4544277Y-10025079D02*
X4553801Y-10063174D01*
X4553801Y-10063174D02*
X4553801Y-10110793D01*
X4553801Y-10110793D02*
X4544277Y-10148889D01*
X4544277Y-10148889D02*
X4534753Y-10167936D01*
X4534753Y-10167936D02*
X4525229Y-10177460D01*
X4525229Y-10177460D02*
X4506182Y-10186984D01*
X4506182Y-10186984D02*
X4487134Y-10186984D01*
X4487134Y-10186984D02*
X4468087Y-10177460D01*
X4468087Y-10177460D02*
X4458563Y-10167936D01*
X4458563Y-10167936D02*
X4449039Y-10148889D01*
X4449039Y-10148889D02*
X4439515Y-10110793D01*
X4439515Y-10110793D02*
X4439515Y-10063174D01*
X4439515Y-10063174D02*
X4449039Y-10025079D01*
X4449039Y-10025079D02*
X4458563Y-10006031D01*
X4458563Y-10006031D02*
X4468087Y-9996508D01*
X4468087Y-9996508D02*
X4487134Y-9986984D01*
X4639515Y-10167936D02*
X4649039Y-10177460D01*
X4649039Y-10177460D02*
X4639515Y-10186984D01*
X4639515Y-10186984D02*
X4629991Y-10177460D01*
X4629991Y-10177460D02*
X4639515Y-10167936D01*
X4639515Y-10167936D02*
X4639515Y-10186984D01*
X4772848Y-9986984D02*
X4791896Y-9986984D01*
X4791896Y-9986984D02*
X4810944Y-9996508D01*
X4810944Y-9996508D02*
X4820468Y-10006031D01*
X4820468Y-10006031D02*
X4829991Y-10025079D01*
X4829991Y-10025079D02*
X4839515Y-10063174D01*
X4839515Y-10063174D02*
X4839515Y-10110793D01*
X4839515Y-10110793D02*
X4829991Y-10148889D01*
X4829991Y-10148889D02*
X4820468Y-10167936D01*
X4820468Y-10167936D02*
X4810944Y-10177460D01*
X4810944Y-10177460D02*
X4791896Y-10186984D01*
X4791896Y-10186984D02*
X4772848Y-10186984D01*
X4772848Y-10186984D02*
X4753801Y-10177460D01*
X4753801Y-10177460D02*
X4744277Y-10167936D01*
X4744277Y-10167936D02*
X4734753Y-10148889D01*
X4734753Y-10148889D02*
X4725229Y-10110793D01*
X4725229Y-10110793D02*
X4725229Y-10063174D01*
X4725229Y-10063174D02*
X4734753Y-10025079D01*
X4734753Y-10025079D02*
X4744277Y-10006031D01*
X4744277Y-10006031D02*
X4753801Y-9996508D01*
X4753801Y-9996508D02*
X4772848Y-9986984D01*
X4906182Y-9986984D02*
X5029991Y-9986984D01*
X5029991Y-9986984D02*
X4963325Y-10063174D01*
X4963325Y-10063174D02*
X4991896Y-10063174D01*
X4991896Y-10063174D02*
X5010944Y-10072698D01*
X5010944Y-10072698D02*
X5020468Y-10082222D01*
X5020468Y-10082222D02*
X5029991Y-10101270D01*
X5029991Y-10101270D02*
X5029991Y-10148889D01*
X5029991Y-10148889D02*
X5020468Y-10167936D01*
X5020468Y-10167936D02*
X5010944Y-10177460D01*
X5010944Y-10177460D02*
X4991896Y-10186984D01*
X4991896Y-10186984D02*
X4934753Y-10186984D01*
X4934753Y-10186984D02*
X4915706Y-10177460D01*
X4915706Y-10177460D02*
X4906182Y-10167936D01*
X5125229Y-10186984D02*
X5163325Y-10186984D01*
X5163325Y-10186984D02*
X5182372Y-10177460D01*
X5182372Y-10177460D02*
X5191896Y-10167936D01*
X5191896Y-10167936D02*
X5210944Y-10139365D01*
X5210944Y-10139365D02*
X5220468Y-10101270D01*
X5220468Y-10101270D02*
X5220468Y-10025079D01*
X5220468Y-10025079D02*
X5210944Y-10006031D01*
X5210944Y-10006031D02*
X5201420Y-9996508D01*
X5201420Y-9996508D02*
X5182372Y-9986984D01*
X5182372Y-9986984D02*
X5144277Y-9986984D01*
X5144277Y-9986984D02*
X5125229Y-9996508D01*
X5125229Y-9996508D02*
X5115706Y-10006031D01*
X5115706Y-10006031D02*
X5106182Y-10025079D01*
X5106182Y-10025079D02*
X5106182Y-10072698D01*
X5106182Y-10072698D02*
X5115706Y-10091746D01*
X5115706Y-10091746D02*
X5125229Y-10101270D01*
X5125229Y-10101270D02*
X5144277Y-10110793D01*
X5144277Y-10110793D02*
X5182372Y-10110793D01*
X5182372Y-10110793D02*
X5201420Y-10101270D01*
X5201420Y-10101270D02*
X5210944Y-10091746D01*
X5210944Y-10091746D02*
X5220468Y-10072698D01*
X5391896Y-10053650D02*
X5391896Y-10186984D01*
X5344277Y-9977460D02*
X5296658Y-10120317D01*
X5296658Y-10120317D02*
X5420468Y-10120317D01*
X5487134Y-9986984D02*
X5487134Y-10025079D01*
X5563325Y-9986984D02*
X5563325Y-10025079D01*
X5858563Y-10263174D02*
X5849039Y-10253650D01*
X5849039Y-10253650D02*
X5829991Y-10225079D01*
X5829991Y-10225079D02*
X5820468Y-10206031D01*
X5820468Y-10206031D02*
X5810944Y-10177460D01*
X5810944Y-10177460D02*
X5801420Y-10129841D01*
X5801420Y-10129841D02*
X5801420Y-10091746D01*
X5801420Y-10091746D02*
X5810944Y-10044127D01*
X5810944Y-10044127D02*
X5820468Y-10015555D01*
X5820468Y-10015555D02*
X5829991Y-9996508D01*
X5829991Y-9996508D02*
X5849039Y-9967936D01*
X5849039Y-9967936D02*
X5858563Y-9958412D01*
X5915706Y-9986984D02*
X6039515Y-9986984D01*
X6039515Y-9986984D02*
X5972848Y-10063174D01*
X5972848Y-10063174D02*
X6001420Y-10063174D01*
X6001420Y-10063174D02*
X6020468Y-10072698D01*
X6020468Y-10072698D02*
X6029991Y-10082222D01*
X6029991Y-10082222D02*
X6039515Y-10101270D01*
X6039515Y-10101270D02*
X6039515Y-10148889D01*
X6039515Y-10148889D02*
X6029991Y-10167936D01*
X6029991Y-10167936D02*
X6020468Y-10177460D01*
X6020468Y-10177460D02*
X6001420Y-10186984D01*
X6001420Y-10186984D02*
X5944277Y-10186984D01*
X5944277Y-10186984D02*
X5925229Y-10177460D01*
X5925229Y-10177460D02*
X5915706Y-10167936D01*
X6134753Y-10186984D02*
X6172848Y-10186984D01*
X6172848Y-10186984D02*
X6191896Y-10177460D01*
X6191896Y-10177460D02*
X6201420Y-10167936D01*
X6201420Y-10167936D02*
X6220468Y-10139365D01*
X6220468Y-10139365D02*
X6229991Y-10101270D01*
X6229991Y-10101270D02*
X6229991Y-10025079D01*
X6229991Y-10025079D02*
X6220468Y-10006031D01*
X6220468Y-10006031D02*
X6210944Y-9996508D01*
X6210944Y-9996508D02*
X6191896Y-9986984D01*
X6191896Y-9986984D02*
X6153801Y-9986984D01*
X6153801Y-9986984D02*
X6134753Y-9996508D01*
X6134753Y-9996508D02*
X6125229Y-10006031D01*
X6125229Y-10006031D02*
X6115706Y-10025079D01*
X6115706Y-10025079D02*
X6115706Y-10072698D01*
X6115706Y-10072698D02*
X6125229Y-10091746D01*
X6125229Y-10091746D02*
X6134753Y-10101270D01*
X6134753Y-10101270D02*
X6153801Y-10110793D01*
X6153801Y-10110793D02*
X6191896Y-10110793D01*
X6191896Y-10110793D02*
X6210944Y-10101270D01*
X6210944Y-10101270D02*
X6220468Y-10091746D01*
X6220468Y-10091746D02*
X6229991Y-10072698D01*
X6468087Y-10186984D02*
X6468087Y-9986984D01*
X6553801Y-10186984D02*
X6553801Y-10082222D01*
X6553801Y-10082222D02*
X6544277Y-10063174D01*
X6544277Y-10063174D02*
X6525230Y-10053650D01*
X6525230Y-10053650D02*
X6496658Y-10053650D01*
X6496658Y-10053650D02*
X6477610Y-10063174D01*
X6477610Y-10063174D02*
X6468087Y-10072698D01*
X6677610Y-10186984D02*
X6658563Y-10177460D01*
X6658563Y-10177460D02*
X6649039Y-10167936D01*
X6649039Y-10167936D02*
X6639515Y-10148889D01*
X6639515Y-10148889D02*
X6639515Y-10091746D01*
X6639515Y-10091746D02*
X6649039Y-10072698D01*
X6649039Y-10072698D02*
X6658563Y-10063174D01*
X6658563Y-10063174D02*
X6677610Y-10053650D01*
X6677610Y-10053650D02*
X6706182Y-10053650D01*
X6706182Y-10053650D02*
X6725230Y-10063174D01*
X6725230Y-10063174D02*
X6734753Y-10072698D01*
X6734753Y-10072698D02*
X6744277Y-10091746D01*
X6744277Y-10091746D02*
X6744277Y-10148889D01*
X6744277Y-10148889D02*
X6734753Y-10167936D01*
X6734753Y-10167936D02*
X6725230Y-10177460D01*
X6725230Y-10177460D02*
X6706182Y-10186984D01*
X6706182Y-10186984D02*
X6677610Y-10186984D01*
X6858563Y-10186984D02*
X6839515Y-10177460D01*
X6839515Y-10177460D02*
X6829991Y-10158412D01*
X6829991Y-10158412D02*
X6829991Y-9986984D01*
X7010944Y-10177460D02*
X6991896Y-10186984D01*
X6991896Y-10186984D02*
X6953801Y-10186984D01*
X6953801Y-10186984D02*
X6934753Y-10177460D01*
X6934753Y-10177460D02*
X6925230Y-10158412D01*
X6925230Y-10158412D02*
X6925230Y-10082222D01*
X6925230Y-10082222D02*
X6934753Y-10063174D01*
X6934753Y-10063174D02*
X6953801Y-10053650D01*
X6953801Y-10053650D02*
X6991896Y-10053650D01*
X6991896Y-10053650D02*
X7010944Y-10063174D01*
X7010944Y-10063174D02*
X7020468Y-10082222D01*
X7020468Y-10082222D02*
X7020468Y-10101270D01*
X7020468Y-10101270D02*
X6925230Y-10120317D01*
X7096658Y-10177460D02*
X7115706Y-10186984D01*
X7115706Y-10186984D02*
X7153801Y-10186984D01*
X7153801Y-10186984D02*
X7172849Y-10177460D01*
X7172849Y-10177460D02*
X7182372Y-10158412D01*
X7182372Y-10158412D02*
X7182372Y-10148889D01*
X7182372Y-10148889D02*
X7172849Y-10129841D01*
X7172849Y-10129841D02*
X7153801Y-10120317D01*
X7153801Y-10120317D02*
X7125230Y-10120317D01*
X7125230Y-10120317D02*
X7106182Y-10110793D01*
X7106182Y-10110793D02*
X7096658Y-10091746D01*
X7096658Y-10091746D02*
X7096658Y-10082222D01*
X7096658Y-10082222D02*
X7106182Y-10063174D01*
X7106182Y-10063174D02*
X7125230Y-10053650D01*
X7125230Y-10053650D02*
X7153801Y-10053650D01*
X7153801Y-10053650D02*
X7172849Y-10063174D01*
X7420468Y-10110793D02*
X7572849Y-10110793D01*
X7496658Y-10186984D02*
X7496658Y-10034603D01*
X7801420Y-9986984D02*
X7925230Y-9986984D01*
X7925230Y-9986984D02*
X7858563Y-10063174D01*
X7858563Y-10063174D02*
X7887134Y-10063174D01*
X7887134Y-10063174D02*
X7906182Y-10072698D01*
X7906182Y-10072698D02*
X7915706Y-10082222D01*
X7915706Y-10082222D02*
X7925230Y-10101270D01*
X7925230Y-10101270D02*
X7925230Y-10148889D01*
X7925230Y-10148889D02*
X7915706Y-10167936D01*
X7915706Y-10167936D02*
X7906182Y-10177460D01*
X7906182Y-10177460D02*
X7887134Y-10186984D01*
X7887134Y-10186984D02*
X7829992Y-10186984D01*
X7829992Y-10186984D02*
X7810944Y-10177460D01*
X7810944Y-10177460D02*
X7801420Y-10167936D01*
X8153801Y-10177460D02*
X8172849Y-10186984D01*
X8172849Y-10186984D02*
X8210944Y-10186984D01*
X8210944Y-10186984D02*
X8229992Y-10177460D01*
X8229992Y-10177460D02*
X8239515Y-10158412D01*
X8239515Y-10158412D02*
X8239515Y-10148889D01*
X8239515Y-10148889D02*
X8229992Y-10129841D01*
X8229992Y-10129841D02*
X8210944Y-10120317D01*
X8210944Y-10120317D02*
X8182373Y-10120317D01*
X8182373Y-10120317D02*
X8163325Y-10110793D01*
X8163325Y-10110793D02*
X8153801Y-10091746D01*
X8153801Y-10091746D02*
X8153801Y-10082222D01*
X8153801Y-10082222D02*
X8163325Y-10063174D01*
X8163325Y-10063174D02*
X8182373Y-10053650D01*
X8182373Y-10053650D02*
X8210944Y-10053650D01*
X8210944Y-10053650D02*
X8229992Y-10063174D01*
X8353801Y-10186984D02*
X8334754Y-10177460D01*
X8334754Y-10177460D02*
X8325230Y-10158412D01*
X8325230Y-10158412D02*
X8325230Y-9986984D01*
X8458563Y-10186984D02*
X8439516Y-10177460D01*
X8439516Y-10177460D02*
X8429992Y-10167936D01*
X8429992Y-10167936D02*
X8420468Y-10148889D01*
X8420468Y-10148889D02*
X8420468Y-10091746D01*
X8420468Y-10091746D02*
X8429992Y-10072698D01*
X8429992Y-10072698D02*
X8439516Y-10063174D01*
X8439516Y-10063174D02*
X8458563Y-10053650D01*
X8458563Y-10053650D02*
X8487135Y-10053650D01*
X8487135Y-10053650D02*
X8506182Y-10063174D01*
X8506182Y-10063174D02*
X8515706Y-10072698D01*
X8515706Y-10072698D02*
X8525230Y-10091746D01*
X8525230Y-10091746D02*
X8525230Y-10148889D01*
X8525230Y-10148889D02*
X8515706Y-10167936D01*
X8515706Y-10167936D02*
X8506182Y-10177460D01*
X8506182Y-10177460D02*
X8487135Y-10186984D01*
X8487135Y-10186984D02*
X8458563Y-10186984D01*
X8582373Y-10053650D02*
X8658563Y-10053650D01*
X8610944Y-9986984D02*
X8610944Y-10158412D01*
X8610944Y-10158412D02*
X8620468Y-10177460D01*
X8620468Y-10177460D02*
X8639516Y-10186984D01*
X8639516Y-10186984D02*
X8658563Y-10186984D01*
X8715706Y-10177460D02*
X8734754Y-10186984D01*
X8734754Y-10186984D02*
X8772849Y-10186984D01*
X8772849Y-10186984D02*
X8791897Y-10177460D01*
X8791897Y-10177460D02*
X8801420Y-10158412D01*
X8801420Y-10158412D02*
X8801420Y-10148889D01*
X8801420Y-10148889D02*
X8791897Y-10129841D01*
X8791897Y-10129841D02*
X8772849Y-10120317D01*
X8772849Y-10120317D02*
X8744277Y-10120317D01*
X8744277Y-10120317D02*
X8725230Y-10110793D01*
X8725230Y-10110793D02*
X8715706Y-10091746D01*
X8715706Y-10091746D02*
X8715706Y-10082222D01*
X8715706Y-10082222D02*
X8725230Y-10063174D01*
X8725230Y-10063174D02*
X8744277Y-10053650D01*
X8744277Y-10053650D02*
X8772849Y-10053650D01*
X8772849Y-10053650D02*
X8791897Y-10063174D01*
X8868087Y-10263174D02*
X8877611Y-10253650D01*
X8877611Y-10253650D02*
X8896658Y-10225079D01*
X8896658Y-10225079D02*
X8906182Y-10206031D01*
X8906182Y-10206031D02*
X8915706Y-10177460D01*
X8915706Y-10177460D02*
X8925230Y-10129841D01*
X8925230Y-10129841D02*
X8925230Y-10091746D01*
X8925230Y-10091746D02*
X8915706Y-10044127D01*
X8915706Y-10044127D02*
X8906182Y-10015555D01*
X8906182Y-10015555D02*
X8896658Y-9996508D01*
X8896658Y-9996508D02*
X8877611Y-9967936D01*
X8877611Y-9967936D02*
X8868087Y-9958412D01*
D17*
X2173500Y-10304500D02*
X2283500Y-10414500D01*
X2283500Y-10304500D02*
X2173500Y-10414500D01*
X2283500Y-10359500D02*
G75*
G03*
X2283500Y-10359500I-55000J0D01*
G01*
D11*
X2649039Y-10450984D02*
X2534753Y-10450984D01*
X2591896Y-10450984D02*
X2591896Y-10250984D01*
X2591896Y-10250984D02*
X2572848Y-10279555D01*
X2572848Y-10279555D02*
X2553801Y-10298603D01*
X2553801Y-10298603D02*
X2534753Y-10308127D01*
X2734753Y-10431936D02*
X2744277Y-10441460D01*
X2744277Y-10441460D02*
X2734753Y-10450984D01*
X2734753Y-10450984D02*
X2725229Y-10441460D01*
X2725229Y-10441460D02*
X2734753Y-10431936D01*
X2734753Y-10431936D02*
X2734753Y-10450984D01*
X2934753Y-10450984D02*
X2820467Y-10450984D01*
X2877610Y-10450984D02*
X2877610Y-10250984D01*
X2877610Y-10250984D02*
X2858562Y-10279555D01*
X2858562Y-10279555D02*
X2839515Y-10298603D01*
X2839515Y-10298603D02*
X2820467Y-10308127D01*
X3058562Y-10250984D02*
X3077610Y-10250984D01*
X3077610Y-10250984D02*
X3096658Y-10260508D01*
X3096658Y-10260508D02*
X3106182Y-10270031D01*
X3106182Y-10270031D02*
X3115705Y-10289079D01*
X3115705Y-10289079D02*
X3125229Y-10327174D01*
X3125229Y-10327174D02*
X3125229Y-10374793D01*
X3125229Y-10374793D02*
X3115705Y-10412889D01*
X3115705Y-10412889D02*
X3106182Y-10431936D01*
X3106182Y-10431936D02*
X3096658Y-10441460D01*
X3096658Y-10441460D02*
X3077610Y-10450984D01*
X3077610Y-10450984D02*
X3058562Y-10450984D01*
X3058562Y-10450984D02*
X3039515Y-10441460D01*
X3039515Y-10441460D02*
X3029991Y-10431936D01*
X3029991Y-10431936D02*
X3020467Y-10412889D01*
X3020467Y-10412889D02*
X3010943Y-10374793D01*
X3010943Y-10374793D02*
X3010943Y-10327174D01*
X3010943Y-10327174D02*
X3020467Y-10289079D01*
X3020467Y-10289079D02*
X3029991Y-10270031D01*
X3029991Y-10270031D02*
X3039515Y-10260508D01*
X3039515Y-10260508D02*
X3058562Y-10250984D01*
X3249039Y-10250984D02*
X3268086Y-10250984D01*
X3268086Y-10250984D02*
X3287134Y-10260508D01*
X3287134Y-10260508D02*
X3296658Y-10270031D01*
X3296658Y-10270031D02*
X3306182Y-10289079D01*
X3306182Y-10289079D02*
X3315705Y-10327174D01*
X3315705Y-10327174D02*
X3315705Y-10374793D01*
X3315705Y-10374793D02*
X3306182Y-10412889D01*
X3306182Y-10412889D02*
X3296658Y-10431936D01*
X3296658Y-10431936D02*
X3287134Y-10441460D01*
X3287134Y-10441460D02*
X3268086Y-10450984D01*
X3268086Y-10450984D02*
X3249039Y-10450984D01*
X3249039Y-10450984D02*
X3229991Y-10441460D01*
X3229991Y-10441460D02*
X3220467Y-10431936D01*
X3220467Y-10431936D02*
X3210943Y-10412889D01*
X3210943Y-10412889D02*
X3201420Y-10374793D01*
X3201420Y-10374793D02*
X3201420Y-10327174D01*
X3201420Y-10327174D02*
X3210943Y-10289079D01*
X3210943Y-10289079D02*
X3220467Y-10270031D01*
X3220467Y-10270031D02*
X3229991Y-10260508D01*
X3229991Y-10260508D02*
X3249039Y-10250984D01*
X3401420Y-10450984D02*
X3401420Y-10317650D01*
X3401420Y-10336698D02*
X3410943Y-10327174D01*
X3410943Y-10327174D02*
X3429991Y-10317650D01*
X3429991Y-10317650D02*
X3458563Y-10317650D01*
X3458563Y-10317650D02*
X3477610Y-10327174D01*
X3477610Y-10327174D02*
X3487134Y-10346222D01*
X3487134Y-10346222D02*
X3487134Y-10450984D01*
X3487134Y-10346222D02*
X3496658Y-10327174D01*
X3496658Y-10327174D02*
X3515705Y-10317650D01*
X3515705Y-10317650D02*
X3544277Y-10317650D01*
X3544277Y-10317650D02*
X3563324Y-10327174D01*
X3563324Y-10327174D02*
X3572848Y-10346222D01*
X3572848Y-10346222D02*
X3572848Y-10450984D01*
X3668086Y-10450984D02*
X3668086Y-10317650D01*
X3668086Y-10336698D02*
X3677610Y-10327174D01*
X3677610Y-10327174D02*
X3696658Y-10317650D01*
X3696658Y-10317650D02*
X3725229Y-10317650D01*
X3725229Y-10317650D02*
X3744277Y-10327174D01*
X3744277Y-10327174D02*
X3753801Y-10346222D01*
X3753801Y-10346222D02*
X3753801Y-10450984D01*
X3753801Y-10346222D02*
X3763324Y-10327174D01*
X3763324Y-10327174D02*
X3782372Y-10317650D01*
X3782372Y-10317650D02*
X3810943Y-10317650D01*
X3810943Y-10317650D02*
X3829991Y-10327174D01*
X3829991Y-10327174D02*
X3839515Y-10346222D01*
X3839515Y-10346222D02*
X3839515Y-10450984D01*
X4229991Y-10241460D02*
X4058563Y-10498603D01*
X4487134Y-10250984D02*
X4506182Y-10250984D01*
X4506182Y-10250984D02*
X4525229Y-10260508D01*
X4525229Y-10260508D02*
X4534753Y-10270031D01*
X4534753Y-10270031D02*
X4544277Y-10289079D01*
X4544277Y-10289079D02*
X4553801Y-10327174D01*
X4553801Y-10327174D02*
X4553801Y-10374793D01*
X4553801Y-10374793D02*
X4544277Y-10412889D01*
X4544277Y-10412889D02*
X4534753Y-10431936D01*
X4534753Y-10431936D02*
X4525229Y-10441460D01*
X4525229Y-10441460D02*
X4506182Y-10450984D01*
X4506182Y-10450984D02*
X4487134Y-10450984D01*
X4487134Y-10450984D02*
X4468087Y-10441460D01*
X4468087Y-10441460D02*
X4458563Y-10431936D01*
X4458563Y-10431936D02*
X4449039Y-10412889D01*
X4449039Y-10412889D02*
X4439515Y-10374793D01*
X4439515Y-10374793D02*
X4439515Y-10327174D01*
X4439515Y-10327174D02*
X4449039Y-10289079D01*
X4449039Y-10289079D02*
X4458563Y-10270031D01*
X4458563Y-10270031D02*
X4468087Y-10260508D01*
X4468087Y-10260508D02*
X4487134Y-10250984D01*
X4639515Y-10431936D02*
X4649039Y-10441460D01*
X4649039Y-10441460D02*
X4639515Y-10450984D01*
X4639515Y-10450984D02*
X4629991Y-10441460D01*
X4629991Y-10441460D02*
X4639515Y-10431936D01*
X4639515Y-10431936D02*
X4639515Y-10450984D01*
X4772848Y-10250984D02*
X4791896Y-10250984D01*
X4791896Y-10250984D02*
X4810944Y-10260508D01*
X4810944Y-10260508D02*
X4820468Y-10270031D01*
X4820468Y-10270031D02*
X4829991Y-10289079D01*
X4829991Y-10289079D02*
X4839515Y-10327174D01*
X4839515Y-10327174D02*
X4839515Y-10374793D01*
X4839515Y-10374793D02*
X4829991Y-10412889D01*
X4829991Y-10412889D02*
X4820468Y-10431936D01*
X4820468Y-10431936D02*
X4810944Y-10441460D01*
X4810944Y-10441460D02*
X4791896Y-10450984D01*
X4791896Y-10450984D02*
X4772848Y-10450984D01*
X4772848Y-10450984D02*
X4753801Y-10441460D01*
X4753801Y-10441460D02*
X4744277Y-10431936D01*
X4744277Y-10431936D02*
X4734753Y-10412889D01*
X4734753Y-10412889D02*
X4725229Y-10374793D01*
X4725229Y-10374793D02*
X4725229Y-10327174D01*
X4725229Y-10327174D02*
X4734753Y-10289079D01*
X4734753Y-10289079D02*
X4744277Y-10270031D01*
X4744277Y-10270031D02*
X4753801Y-10260508D01*
X4753801Y-10260508D02*
X4772848Y-10250984D01*
X5010944Y-10317650D02*
X5010944Y-10450984D01*
X4963325Y-10241460D02*
X4915706Y-10384317D01*
X4915706Y-10384317D02*
X5039515Y-10384317D01*
X5096658Y-10250984D02*
X5220468Y-10250984D01*
X5220468Y-10250984D02*
X5153801Y-10327174D01*
X5153801Y-10327174D02*
X5182372Y-10327174D01*
X5182372Y-10327174D02*
X5201420Y-10336698D01*
X5201420Y-10336698D02*
X5210944Y-10346222D01*
X5210944Y-10346222D02*
X5220468Y-10365270D01*
X5220468Y-10365270D02*
X5220468Y-10412889D01*
X5220468Y-10412889D02*
X5210944Y-10431936D01*
X5210944Y-10431936D02*
X5201420Y-10441460D01*
X5201420Y-10441460D02*
X5182372Y-10450984D01*
X5182372Y-10450984D02*
X5125229Y-10450984D01*
X5125229Y-10450984D02*
X5106182Y-10441460D01*
X5106182Y-10441460D02*
X5096658Y-10431936D01*
X5287134Y-10250984D02*
X5410944Y-10250984D01*
X5410944Y-10250984D02*
X5344277Y-10327174D01*
X5344277Y-10327174D02*
X5372849Y-10327174D01*
X5372849Y-10327174D02*
X5391896Y-10336698D01*
X5391896Y-10336698D02*
X5401420Y-10346222D01*
X5401420Y-10346222D02*
X5410944Y-10365270D01*
X5410944Y-10365270D02*
X5410944Y-10412889D01*
X5410944Y-10412889D02*
X5401420Y-10431936D01*
X5401420Y-10431936D02*
X5391896Y-10441460D01*
X5391896Y-10441460D02*
X5372849Y-10450984D01*
X5372849Y-10450984D02*
X5315706Y-10450984D01*
X5315706Y-10450984D02*
X5296658Y-10441460D01*
X5296658Y-10441460D02*
X5287134Y-10431936D01*
X5487134Y-10250984D02*
X5487134Y-10289079D01*
X5563325Y-10250984D02*
X5563325Y-10289079D01*
X5858563Y-10527174D02*
X5849039Y-10517650D01*
X5849039Y-10517650D02*
X5829991Y-10489079D01*
X5829991Y-10489079D02*
X5820468Y-10470031D01*
X5820468Y-10470031D02*
X5810944Y-10441460D01*
X5810944Y-10441460D02*
X5801420Y-10393841D01*
X5801420Y-10393841D02*
X5801420Y-10355746D01*
X5801420Y-10355746D02*
X5810944Y-10308127D01*
X5810944Y-10308127D02*
X5820468Y-10279555D01*
X5820468Y-10279555D02*
X5829991Y-10260508D01*
X5829991Y-10260508D02*
X5849039Y-10231936D01*
X5849039Y-10231936D02*
X5858563Y-10222412D01*
X5915706Y-10250984D02*
X6049039Y-10250984D01*
X6049039Y-10250984D02*
X5963325Y-10450984D01*
X6277610Y-10450984D02*
X6277610Y-10250984D01*
X6363325Y-10450984D02*
X6363325Y-10346222D01*
X6363325Y-10346222D02*
X6353801Y-10327174D01*
X6353801Y-10327174D02*
X6334753Y-10317650D01*
X6334753Y-10317650D02*
X6306182Y-10317650D01*
X6306182Y-10317650D02*
X6287134Y-10327174D01*
X6287134Y-10327174D02*
X6277610Y-10336698D01*
X6487134Y-10450984D02*
X6468087Y-10441460D01*
X6468087Y-10441460D02*
X6458563Y-10431936D01*
X6458563Y-10431936D02*
X6449039Y-10412889D01*
X6449039Y-10412889D02*
X6449039Y-10355746D01*
X6449039Y-10355746D02*
X6458563Y-10336698D01*
X6458563Y-10336698D02*
X6468087Y-10327174D01*
X6468087Y-10327174D02*
X6487134Y-10317650D01*
X6487134Y-10317650D02*
X6515706Y-10317650D01*
X6515706Y-10317650D02*
X6534753Y-10327174D01*
X6534753Y-10327174D02*
X6544277Y-10336698D01*
X6544277Y-10336698D02*
X6553801Y-10355746D01*
X6553801Y-10355746D02*
X6553801Y-10412889D01*
X6553801Y-10412889D02*
X6544277Y-10431936D01*
X6544277Y-10431936D02*
X6534753Y-10441460D01*
X6534753Y-10441460D02*
X6515706Y-10450984D01*
X6515706Y-10450984D02*
X6487134Y-10450984D01*
X6668087Y-10450984D02*
X6649039Y-10441460D01*
X6649039Y-10441460D02*
X6639515Y-10422412D01*
X6639515Y-10422412D02*
X6639515Y-10250984D01*
X6820468Y-10441460D02*
X6801420Y-10450984D01*
X6801420Y-10450984D02*
X6763325Y-10450984D01*
X6763325Y-10450984D02*
X6744277Y-10441460D01*
X6744277Y-10441460D02*
X6734753Y-10422412D01*
X6734753Y-10422412D02*
X6734753Y-10346222D01*
X6734753Y-10346222D02*
X6744277Y-10327174D01*
X6744277Y-10327174D02*
X6763325Y-10317650D01*
X6763325Y-10317650D02*
X6801420Y-10317650D01*
X6801420Y-10317650D02*
X6820468Y-10327174D01*
X6820468Y-10327174D02*
X6829991Y-10346222D01*
X6829991Y-10346222D02*
X6829991Y-10365270D01*
X6829991Y-10365270D02*
X6734753Y-10384317D01*
X6906182Y-10441460D02*
X6925230Y-10450984D01*
X6925230Y-10450984D02*
X6963325Y-10450984D01*
X6963325Y-10450984D02*
X6982372Y-10441460D01*
X6982372Y-10441460D02*
X6991896Y-10422412D01*
X6991896Y-10422412D02*
X6991896Y-10412889D01*
X6991896Y-10412889D02*
X6982372Y-10393841D01*
X6982372Y-10393841D02*
X6963325Y-10384317D01*
X6963325Y-10384317D02*
X6934753Y-10384317D01*
X6934753Y-10384317D02*
X6915706Y-10374793D01*
X6915706Y-10374793D02*
X6906182Y-10355746D01*
X6906182Y-10355746D02*
X6906182Y-10346222D01*
X6906182Y-10346222D02*
X6915706Y-10327174D01*
X6915706Y-10327174D02*
X6934753Y-10317650D01*
X6934753Y-10317650D02*
X6963325Y-10317650D01*
X6963325Y-10317650D02*
X6982372Y-10327174D01*
X7058563Y-10527174D02*
X7068087Y-10517650D01*
X7068087Y-10517650D02*
X7087134Y-10489079D01*
X7087134Y-10489079D02*
X7096658Y-10470031D01*
X7096658Y-10470031D02*
X7106182Y-10441460D01*
X7106182Y-10441460D02*
X7115706Y-10393841D01*
X7115706Y-10393841D02*
X7115706Y-10355746D01*
X7115706Y-10355746D02*
X7106182Y-10308127D01*
X7106182Y-10308127D02*
X7096658Y-10279555D01*
X7096658Y-10279555D02*
X7087134Y-10260508D01*
X7087134Y-10260508D02*
X7068087Y-10231936D01*
X7068087Y-10231936D02*
X7058563Y-10222412D01*
X2083500Y-10523500D02*
X2283500Y-10723500D01*
X2283500Y-10523500D02*
X2083500Y-10723500D01*
X2183500Y-10523500D02*
X2183500Y-10723500D01*
X2083500Y-10623500D02*
X2283500Y-10623500D01*
X2534753Y-10534031D02*
X2544277Y-10524508D01*
X2544277Y-10524508D02*
X2563324Y-10514984D01*
X2563324Y-10514984D02*
X2610944Y-10514984D01*
X2610944Y-10514984D02*
X2629991Y-10524508D01*
X2629991Y-10524508D02*
X2639515Y-10534031D01*
X2639515Y-10534031D02*
X2649039Y-10553079D01*
X2649039Y-10553079D02*
X2649039Y-10572127D01*
X2649039Y-10572127D02*
X2639515Y-10600698D01*
X2639515Y-10600698D02*
X2525229Y-10714984D01*
X2525229Y-10714984D02*
X2649039Y-10714984D01*
X2734753Y-10695936D02*
X2744277Y-10705460D01*
X2744277Y-10705460D02*
X2734753Y-10714984D01*
X2734753Y-10714984D02*
X2725229Y-10705460D01*
X2725229Y-10705460D02*
X2734753Y-10695936D01*
X2734753Y-10695936D02*
X2734753Y-10714984D01*
X2820467Y-10534031D02*
X2829991Y-10524508D01*
X2829991Y-10524508D02*
X2849039Y-10514984D01*
X2849039Y-10514984D02*
X2896658Y-10514984D01*
X2896658Y-10514984D02*
X2915705Y-10524508D01*
X2915705Y-10524508D02*
X2925229Y-10534031D01*
X2925229Y-10534031D02*
X2934753Y-10553079D01*
X2934753Y-10553079D02*
X2934753Y-10572127D01*
X2934753Y-10572127D02*
X2925229Y-10600698D01*
X2925229Y-10600698D02*
X2810943Y-10714984D01*
X2810943Y-10714984D02*
X2934753Y-10714984D01*
X3029991Y-10714984D02*
X3068086Y-10714984D01*
X3068086Y-10714984D02*
X3087134Y-10705460D01*
X3087134Y-10705460D02*
X3096658Y-10695936D01*
X3096658Y-10695936D02*
X3115705Y-10667365D01*
X3115705Y-10667365D02*
X3125229Y-10629270D01*
X3125229Y-10629270D02*
X3125229Y-10553079D01*
X3125229Y-10553079D02*
X3115705Y-10534031D01*
X3115705Y-10534031D02*
X3106182Y-10524508D01*
X3106182Y-10524508D02*
X3087134Y-10514984D01*
X3087134Y-10514984D02*
X3049039Y-10514984D01*
X3049039Y-10514984D02*
X3029991Y-10524508D01*
X3029991Y-10524508D02*
X3020467Y-10534031D01*
X3020467Y-10534031D02*
X3010943Y-10553079D01*
X3010943Y-10553079D02*
X3010943Y-10600698D01*
X3010943Y-10600698D02*
X3020467Y-10619746D01*
X3020467Y-10619746D02*
X3029991Y-10629270D01*
X3029991Y-10629270D02*
X3049039Y-10638793D01*
X3049039Y-10638793D02*
X3087134Y-10638793D01*
X3087134Y-10638793D02*
X3106182Y-10629270D01*
X3106182Y-10629270D02*
X3115705Y-10619746D01*
X3115705Y-10619746D02*
X3125229Y-10600698D01*
X3315705Y-10714984D02*
X3201420Y-10714984D01*
X3258562Y-10714984D02*
X3258562Y-10514984D01*
X3258562Y-10514984D02*
X3239515Y-10543555D01*
X3239515Y-10543555D02*
X3220467Y-10562603D01*
X3220467Y-10562603D02*
X3201420Y-10572127D01*
X3401420Y-10714984D02*
X3401420Y-10581650D01*
X3401420Y-10600698D02*
X3410943Y-10591174D01*
X3410943Y-10591174D02*
X3429991Y-10581650D01*
X3429991Y-10581650D02*
X3458563Y-10581650D01*
X3458563Y-10581650D02*
X3477610Y-10591174D01*
X3477610Y-10591174D02*
X3487134Y-10610222D01*
X3487134Y-10610222D02*
X3487134Y-10714984D01*
X3487134Y-10610222D02*
X3496658Y-10591174D01*
X3496658Y-10591174D02*
X3515705Y-10581650D01*
X3515705Y-10581650D02*
X3544277Y-10581650D01*
X3544277Y-10581650D02*
X3563324Y-10591174D01*
X3563324Y-10591174D02*
X3572848Y-10610222D01*
X3572848Y-10610222D02*
X3572848Y-10714984D01*
X3668086Y-10714984D02*
X3668086Y-10581650D01*
X3668086Y-10600698D02*
X3677610Y-10591174D01*
X3677610Y-10591174D02*
X3696658Y-10581650D01*
X3696658Y-10581650D02*
X3725229Y-10581650D01*
X3725229Y-10581650D02*
X3744277Y-10591174D01*
X3744277Y-10591174D02*
X3753801Y-10610222D01*
X3753801Y-10610222D02*
X3753801Y-10714984D01*
X3753801Y-10610222D02*
X3763324Y-10591174D01*
X3763324Y-10591174D02*
X3782372Y-10581650D01*
X3782372Y-10581650D02*
X3810943Y-10581650D01*
X3810943Y-10581650D02*
X3829991Y-10591174D01*
X3829991Y-10591174D02*
X3839515Y-10610222D01*
X3839515Y-10610222D02*
X3839515Y-10714984D01*
X4229991Y-10505460D02*
X4058563Y-10762603D01*
X4487134Y-10514984D02*
X4506182Y-10514984D01*
X4506182Y-10514984D02*
X4525229Y-10524508D01*
X4525229Y-10524508D02*
X4534753Y-10534031D01*
X4534753Y-10534031D02*
X4544277Y-10553079D01*
X4544277Y-10553079D02*
X4553801Y-10591174D01*
X4553801Y-10591174D02*
X4553801Y-10638793D01*
X4553801Y-10638793D02*
X4544277Y-10676889D01*
X4544277Y-10676889D02*
X4534753Y-10695936D01*
X4534753Y-10695936D02*
X4525229Y-10705460D01*
X4525229Y-10705460D02*
X4506182Y-10714984D01*
X4506182Y-10714984D02*
X4487134Y-10714984D01*
X4487134Y-10714984D02*
X4468087Y-10705460D01*
X4468087Y-10705460D02*
X4458563Y-10695936D01*
X4458563Y-10695936D02*
X4449039Y-10676889D01*
X4449039Y-10676889D02*
X4439515Y-10638793D01*
X4439515Y-10638793D02*
X4439515Y-10591174D01*
X4439515Y-10591174D02*
X4449039Y-10553079D01*
X4449039Y-10553079D02*
X4458563Y-10534031D01*
X4458563Y-10534031D02*
X4468087Y-10524508D01*
X4468087Y-10524508D02*
X4487134Y-10514984D01*
X4639515Y-10695936D02*
X4649039Y-10705460D01*
X4649039Y-10705460D02*
X4639515Y-10714984D01*
X4639515Y-10714984D02*
X4629991Y-10705460D01*
X4629991Y-10705460D02*
X4639515Y-10695936D01*
X4639515Y-10695936D02*
X4639515Y-10714984D01*
X4772848Y-10514984D02*
X4791896Y-10514984D01*
X4791896Y-10514984D02*
X4810944Y-10524508D01*
X4810944Y-10524508D02*
X4820468Y-10534031D01*
X4820468Y-10534031D02*
X4829991Y-10553079D01*
X4829991Y-10553079D02*
X4839515Y-10591174D01*
X4839515Y-10591174D02*
X4839515Y-10638793D01*
X4839515Y-10638793D02*
X4829991Y-10676889D01*
X4829991Y-10676889D02*
X4820468Y-10695936D01*
X4820468Y-10695936D02*
X4810944Y-10705460D01*
X4810944Y-10705460D02*
X4791896Y-10714984D01*
X4791896Y-10714984D02*
X4772848Y-10714984D01*
X4772848Y-10714984D02*
X4753801Y-10705460D01*
X4753801Y-10705460D02*
X4744277Y-10695936D01*
X4744277Y-10695936D02*
X4734753Y-10676889D01*
X4734753Y-10676889D02*
X4725229Y-10638793D01*
X4725229Y-10638793D02*
X4725229Y-10591174D01*
X4725229Y-10591174D02*
X4734753Y-10553079D01*
X4734753Y-10553079D02*
X4744277Y-10534031D01*
X4744277Y-10534031D02*
X4753801Y-10524508D01*
X4753801Y-10524508D02*
X4772848Y-10514984D01*
X4934753Y-10714984D02*
X4972848Y-10714984D01*
X4972848Y-10714984D02*
X4991896Y-10705460D01*
X4991896Y-10705460D02*
X5001420Y-10695936D01*
X5001420Y-10695936D02*
X5020468Y-10667365D01*
X5020468Y-10667365D02*
X5029991Y-10629270D01*
X5029991Y-10629270D02*
X5029991Y-10553079D01*
X5029991Y-10553079D02*
X5020468Y-10534031D01*
X5020468Y-10534031D02*
X5010944Y-10524508D01*
X5010944Y-10524508D02*
X4991896Y-10514984D01*
X4991896Y-10514984D02*
X4953801Y-10514984D01*
X4953801Y-10514984D02*
X4934753Y-10524508D01*
X4934753Y-10524508D02*
X4925229Y-10534031D01*
X4925229Y-10534031D02*
X4915706Y-10553079D01*
X4915706Y-10553079D02*
X4915706Y-10600698D01*
X4915706Y-10600698D02*
X4925229Y-10619746D01*
X4925229Y-10619746D02*
X4934753Y-10629270D01*
X4934753Y-10629270D02*
X4953801Y-10638793D01*
X4953801Y-10638793D02*
X4991896Y-10638793D01*
X4991896Y-10638793D02*
X5010944Y-10629270D01*
X5010944Y-10629270D02*
X5020468Y-10619746D01*
X5020468Y-10619746D02*
X5029991Y-10600698D01*
X5153801Y-10514984D02*
X5172849Y-10514984D01*
X5172849Y-10514984D02*
X5191896Y-10524508D01*
X5191896Y-10524508D02*
X5201420Y-10534031D01*
X5201420Y-10534031D02*
X5210944Y-10553079D01*
X5210944Y-10553079D02*
X5220468Y-10591174D01*
X5220468Y-10591174D02*
X5220468Y-10638793D01*
X5220468Y-10638793D02*
X5210944Y-10676889D01*
X5210944Y-10676889D02*
X5201420Y-10695936D01*
X5201420Y-10695936D02*
X5191896Y-10705460D01*
X5191896Y-10705460D02*
X5172849Y-10714984D01*
X5172849Y-10714984D02*
X5153801Y-10714984D01*
X5153801Y-10714984D02*
X5134753Y-10705460D01*
X5134753Y-10705460D02*
X5125229Y-10695936D01*
X5125229Y-10695936D02*
X5115706Y-10676889D01*
X5115706Y-10676889D02*
X5106182Y-10638793D01*
X5106182Y-10638793D02*
X5106182Y-10591174D01*
X5106182Y-10591174D02*
X5115706Y-10553079D01*
X5115706Y-10553079D02*
X5125229Y-10534031D01*
X5125229Y-10534031D02*
X5134753Y-10524508D01*
X5134753Y-10524508D02*
X5153801Y-10514984D01*
X5296658Y-10534031D02*
X5306182Y-10524508D01*
X5306182Y-10524508D02*
X5325229Y-10514984D01*
X5325229Y-10514984D02*
X5372849Y-10514984D01*
X5372849Y-10514984D02*
X5391896Y-10524508D01*
X5391896Y-10524508D02*
X5401420Y-10534031D01*
X5401420Y-10534031D02*
X5410944Y-10553079D01*
X5410944Y-10553079D02*
X5410944Y-10572127D01*
X5410944Y-10572127D02*
X5401420Y-10600698D01*
X5401420Y-10600698D02*
X5287134Y-10714984D01*
X5287134Y-10714984D02*
X5410944Y-10714984D01*
X5487134Y-10514984D02*
X5487134Y-10553079D01*
X5563325Y-10514984D02*
X5563325Y-10553079D01*
X5858563Y-10791174D02*
X5849039Y-10781650D01*
X5849039Y-10781650D02*
X5829991Y-10753079D01*
X5829991Y-10753079D02*
X5820468Y-10734031D01*
X5820468Y-10734031D02*
X5810944Y-10705460D01*
X5810944Y-10705460D02*
X5801420Y-10657841D01*
X5801420Y-10657841D02*
X5801420Y-10619746D01*
X5801420Y-10619746D02*
X5810944Y-10572127D01*
X5810944Y-10572127D02*
X5820468Y-10543555D01*
X5820468Y-10543555D02*
X5829991Y-10524508D01*
X5829991Y-10524508D02*
X5849039Y-10495936D01*
X5849039Y-10495936D02*
X5858563Y-10486412D01*
X5915706Y-10514984D02*
X6039515Y-10514984D01*
X6039515Y-10514984D02*
X5972848Y-10591174D01*
X5972848Y-10591174D02*
X6001420Y-10591174D01*
X6001420Y-10591174D02*
X6020468Y-10600698D01*
X6020468Y-10600698D02*
X6029991Y-10610222D01*
X6029991Y-10610222D02*
X6039515Y-10629270D01*
X6039515Y-10629270D02*
X6039515Y-10676889D01*
X6039515Y-10676889D02*
X6029991Y-10695936D01*
X6029991Y-10695936D02*
X6020468Y-10705460D01*
X6020468Y-10705460D02*
X6001420Y-10714984D01*
X6001420Y-10714984D02*
X5944277Y-10714984D01*
X5944277Y-10714984D02*
X5925229Y-10705460D01*
X5925229Y-10705460D02*
X5915706Y-10695936D01*
X6277610Y-10714984D02*
X6277610Y-10514984D01*
X6363325Y-10714984D02*
X6363325Y-10610222D01*
X6363325Y-10610222D02*
X6353801Y-10591174D01*
X6353801Y-10591174D02*
X6334753Y-10581650D01*
X6334753Y-10581650D02*
X6306182Y-10581650D01*
X6306182Y-10581650D02*
X6287134Y-10591174D01*
X6287134Y-10591174D02*
X6277610Y-10600698D01*
X6487134Y-10714984D02*
X6468087Y-10705460D01*
X6468087Y-10705460D02*
X6458563Y-10695936D01*
X6458563Y-10695936D02*
X6449039Y-10676889D01*
X6449039Y-10676889D02*
X6449039Y-10619746D01*
X6449039Y-10619746D02*
X6458563Y-10600698D01*
X6458563Y-10600698D02*
X6468087Y-10591174D01*
X6468087Y-10591174D02*
X6487134Y-10581650D01*
X6487134Y-10581650D02*
X6515706Y-10581650D01*
X6515706Y-10581650D02*
X6534753Y-10591174D01*
X6534753Y-10591174D02*
X6544277Y-10600698D01*
X6544277Y-10600698D02*
X6553801Y-10619746D01*
X6553801Y-10619746D02*
X6553801Y-10676889D01*
X6553801Y-10676889D02*
X6544277Y-10695936D01*
X6544277Y-10695936D02*
X6534753Y-10705460D01*
X6534753Y-10705460D02*
X6515706Y-10714984D01*
X6515706Y-10714984D02*
X6487134Y-10714984D01*
X6668087Y-10714984D02*
X6649039Y-10705460D01*
X6649039Y-10705460D02*
X6639515Y-10686412D01*
X6639515Y-10686412D02*
X6639515Y-10514984D01*
X6820468Y-10705460D02*
X6801420Y-10714984D01*
X6801420Y-10714984D02*
X6763325Y-10714984D01*
X6763325Y-10714984D02*
X6744277Y-10705460D01*
X6744277Y-10705460D02*
X6734753Y-10686412D01*
X6734753Y-10686412D02*
X6734753Y-10610222D01*
X6734753Y-10610222D02*
X6744277Y-10591174D01*
X6744277Y-10591174D02*
X6763325Y-10581650D01*
X6763325Y-10581650D02*
X6801420Y-10581650D01*
X6801420Y-10581650D02*
X6820468Y-10591174D01*
X6820468Y-10591174D02*
X6829991Y-10610222D01*
X6829991Y-10610222D02*
X6829991Y-10629270D01*
X6829991Y-10629270D02*
X6734753Y-10648317D01*
X6906182Y-10705460D02*
X6925230Y-10714984D01*
X6925230Y-10714984D02*
X6963325Y-10714984D01*
X6963325Y-10714984D02*
X6982372Y-10705460D01*
X6982372Y-10705460D02*
X6991896Y-10686412D01*
X6991896Y-10686412D02*
X6991896Y-10676889D01*
X6991896Y-10676889D02*
X6982372Y-10657841D01*
X6982372Y-10657841D02*
X6963325Y-10648317D01*
X6963325Y-10648317D02*
X6934753Y-10648317D01*
X6934753Y-10648317D02*
X6915706Y-10638793D01*
X6915706Y-10638793D02*
X6906182Y-10619746D01*
X6906182Y-10619746D02*
X6906182Y-10610222D01*
X6906182Y-10610222D02*
X6915706Y-10591174D01*
X6915706Y-10591174D02*
X6934753Y-10581650D01*
X6934753Y-10581650D02*
X6963325Y-10581650D01*
X6963325Y-10581650D02*
X6982372Y-10591174D01*
X7058563Y-10791174D02*
X7068087Y-10781650D01*
X7068087Y-10781650D02*
X7087134Y-10753079D01*
X7087134Y-10753079D02*
X7096658Y-10734031D01*
X7096658Y-10734031D02*
X7106182Y-10705460D01*
X7106182Y-10705460D02*
X7115706Y-10657841D01*
X7115706Y-10657841D02*
X7115706Y-10619746D01*
X7115706Y-10619746D02*
X7106182Y-10572127D01*
X7106182Y-10572127D02*
X7096658Y-10543555D01*
X7096658Y-10543555D02*
X7087134Y-10524508D01*
X7087134Y-10524508D02*
X7068087Y-10495936D01*
X7068087Y-10495936D02*
X7058563Y-10486412D01*
X2083500Y-10843500D02*
X2283500Y-11043500D01*
X2283500Y-10843500D02*
X2083500Y-11043500D01*
X2254211Y-11014211D02*
X2254211Y-10872789D01*
X2112789Y-10872789D01*
X2112789Y-11014211D01*
X2254211Y-11014211D01*
X2525229Y-10834984D02*
X2649039Y-10834984D01*
X2649039Y-10834984D02*
X2582372Y-10911174D01*
X2582372Y-10911174D02*
X2610944Y-10911174D01*
X2610944Y-10911174D02*
X2629991Y-10920698D01*
X2629991Y-10920698D02*
X2639515Y-10930222D01*
X2639515Y-10930222D02*
X2649039Y-10949270D01*
X2649039Y-10949270D02*
X2649039Y-10996889D01*
X2649039Y-10996889D02*
X2639515Y-11015936D01*
X2639515Y-11015936D02*
X2629991Y-11025460D01*
X2629991Y-11025460D02*
X2610944Y-11034984D01*
X2610944Y-11034984D02*
X2553801Y-11034984D01*
X2553801Y-11034984D02*
X2534753Y-11025460D01*
X2534753Y-11025460D02*
X2525229Y-11015936D01*
X2734753Y-11015936D02*
X2744277Y-11025460D01*
X2744277Y-11025460D02*
X2734753Y-11034984D01*
X2734753Y-11034984D02*
X2725229Y-11025460D01*
X2725229Y-11025460D02*
X2734753Y-11015936D01*
X2734753Y-11015936D02*
X2734753Y-11034984D01*
X2820467Y-10854031D02*
X2829991Y-10844508D01*
X2829991Y-10844508D02*
X2849039Y-10834984D01*
X2849039Y-10834984D02*
X2896658Y-10834984D01*
X2896658Y-10834984D02*
X2915705Y-10844508D01*
X2915705Y-10844508D02*
X2925229Y-10854031D01*
X2925229Y-10854031D02*
X2934753Y-10873079D01*
X2934753Y-10873079D02*
X2934753Y-10892127D01*
X2934753Y-10892127D02*
X2925229Y-10920698D01*
X2925229Y-10920698D02*
X2810943Y-11034984D01*
X2810943Y-11034984D02*
X2934753Y-11034984D01*
X3058562Y-10834984D02*
X3077610Y-10834984D01*
X3077610Y-10834984D02*
X3096658Y-10844508D01*
X3096658Y-10844508D02*
X3106182Y-10854031D01*
X3106182Y-10854031D02*
X3115705Y-10873079D01*
X3115705Y-10873079D02*
X3125229Y-10911174D01*
X3125229Y-10911174D02*
X3125229Y-10958793D01*
X3125229Y-10958793D02*
X3115705Y-10996889D01*
X3115705Y-10996889D02*
X3106182Y-11015936D01*
X3106182Y-11015936D02*
X3096658Y-11025460D01*
X3096658Y-11025460D02*
X3077610Y-11034984D01*
X3077610Y-11034984D02*
X3058562Y-11034984D01*
X3058562Y-11034984D02*
X3039515Y-11025460D01*
X3039515Y-11025460D02*
X3029991Y-11015936D01*
X3029991Y-11015936D02*
X3020467Y-10996889D01*
X3020467Y-10996889D02*
X3010943Y-10958793D01*
X3010943Y-10958793D02*
X3010943Y-10911174D01*
X3010943Y-10911174D02*
X3020467Y-10873079D01*
X3020467Y-10873079D02*
X3029991Y-10854031D01*
X3029991Y-10854031D02*
X3039515Y-10844508D01*
X3039515Y-10844508D02*
X3058562Y-10834984D01*
X3249039Y-10834984D02*
X3268086Y-10834984D01*
X3268086Y-10834984D02*
X3287134Y-10844508D01*
X3287134Y-10844508D02*
X3296658Y-10854031D01*
X3296658Y-10854031D02*
X3306182Y-10873079D01*
X3306182Y-10873079D02*
X3315705Y-10911174D01*
X3315705Y-10911174D02*
X3315705Y-10958793D01*
X3315705Y-10958793D02*
X3306182Y-10996889D01*
X3306182Y-10996889D02*
X3296658Y-11015936D01*
X3296658Y-11015936D02*
X3287134Y-11025460D01*
X3287134Y-11025460D02*
X3268086Y-11034984D01*
X3268086Y-11034984D02*
X3249039Y-11034984D01*
X3249039Y-11034984D02*
X3229991Y-11025460D01*
X3229991Y-11025460D02*
X3220467Y-11015936D01*
X3220467Y-11015936D02*
X3210943Y-10996889D01*
X3210943Y-10996889D02*
X3201420Y-10958793D01*
X3201420Y-10958793D02*
X3201420Y-10911174D01*
X3201420Y-10911174D02*
X3210943Y-10873079D01*
X3210943Y-10873079D02*
X3220467Y-10854031D01*
X3220467Y-10854031D02*
X3229991Y-10844508D01*
X3229991Y-10844508D02*
X3249039Y-10834984D01*
X3401420Y-11034984D02*
X3401420Y-10901650D01*
X3401420Y-10920698D02*
X3410943Y-10911174D01*
X3410943Y-10911174D02*
X3429991Y-10901650D01*
X3429991Y-10901650D02*
X3458563Y-10901650D01*
X3458563Y-10901650D02*
X3477610Y-10911174D01*
X3477610Y-10911174D02*
X3487134Y-10930222D01*
X3487134Y-10930222D02*
X3487134Y-11034984D01*
X3487134Y-10930222D02*
X3496658Y-10911174D01*
X3496658Y-10911174D02*
X3515705Y-10901650D01*
X3515705Y-10901650D02*
X3544277Y-10901650D01*
X3544277Y-10901650D02*
X3563324Y-10911174D01*
X3563324Y-10911174D02*
X3572848Y-10930222D01*
X3572848Y-10930222D02*
X3572848Y-11034984D01*
X3668086Y-11034984D02*
X3668086Y-10901650D01*
X3668086Y-10920698D02*
X3677610Y-10911174D01*
X3677610Y-10911174D02*
X3696658Y-10901650D01*
X3696658Y-10901650D02*
X3725229Y-10901650D01*
X3725229Y-10901650D02*
X3744277Y-10911174D01*
X3744277Y-10911174D02*
X3753801Y-10930222D01*
X3753801Y-10930222D02*
X3753801Y-11034984D01*
X3753801Y-10930222D02*
X3763324Y-10911174D01*
X3763324Y-10911174D02*
X3782372Y-10901650D01*
X3782372Y-10901650D02*
X3810943Y-10901650D01*
X3810943Y-10901650D02*
X3829991Y-10911174D01*
X3829991Y-10911174D02*
X3839515Y-10930222D01*
X3839515Y-10930222D02*
X3839515Y-11034984D01*
X4229991Y-10825460D02*
X4058563Y-11082603D01*
X4487134Y-10834984D02*
X4506182Y-10834984D01*
X4506182Y-10834984D02*
X4525229Y-10844508D01*
X4525229Y-10844508D02*
X4534753Y-10854031D01*
X4534753Y-10854031D02*
X4544277Y-10873079D01*
X4544277Y-10873079D02*
X4553801Y-10911174D01*
X4553801Y-10911174D02*
X4553801Y-10958793D01*
X4553801Y-10958793D02*
X4544277Y-10996889D01*
X4544277Y-10996889D02*
X4534753Y-11015936D01*
X4534753Y-11015936D02*
X4525229Y-11025460D01*
X4525229Y-11025460D02*
X4506182Y-11034984D01*
X4506182Y-11034984D02*
X4487134Y-11034984D01*
X4487134Y-11034984D02*
X4468087Y-11025460D01*
X4468087Y-11025460D02*
X4458563Y-11015936D01*
X4458563Y-11015936D02*
X4449039Y-10996889D01*
X4449039Y-10996889D02*
X4439515Y-10958793D01*
X4439515Y-10958793D02*
X4439515Y-10911174D01*
X4439515Y-10911174D02*
X4449039Y-10873079D01*
X4449039Y-10873079D02*
X4458563Y-10854031D01*
X4458563Y-10854031D02*
X4468087Y-10844508D01*
X4468087Y-10844508D02*
X4487134Y-10834984D01*
X4639515Y-11015936D02*
X4649039Y-11025460D01*
X4649039Y-11025460D02*
X4639515Y-11034984D01*
X4639515Y-11034984D02*
X4629991Y-11025460D01*
X4629991Y-11025460D02*
X4639515Y-11015936D01*
X4639515Y-11015936D02*
X4639515Y-11034984D01*
X4839515Y-11034984D02*
X4725229Y-11034984D01*
X4782372Y-11034984D02*
X4782372Y-10834984D01*
X4782372Y-10834984D02*
X4763325Y-10863555D01*
X4763325Y-10863555D02*
X4744277Y-10882603D01*
X4744277Y-10882603D02*
X4725229Y-10892127D01*
X4915706Y-10854031D02*
X4925229Y-10844508D01*
X4925229Y-10844508D02*
X4944277Y-10834984D01*
X4944277Y-10834984D02*
X4991896Y-10834984D01*
X4991896Y-10834984D02*
X5010944Y-10844508D01*
X5010944Y-10844508D02*
X5020468Y-10854031D01*
X5020468Y-10854031D02*
X5029991Y-10873079D01*
X5029991Y-10873079D02*
X5029991Y-10892127D01*
X5029991Y-10892127D02*
X5020468Y-10920698D01*
X5020468Y-10920698D02*
X4906182Y-11034984D01*
X4906182Y-11034984D02*
X5029991Y-11034984D01*
X5201420Y-10834984D02*
X5163325Y-10834984D01*
X5163325Y-10834984D02*
X5144277Y-10844508D01*
X5144277Y-10844508D02*
X5134753Y-10854031D01*
X5134753Y-10854031D02*
X5115706Y-10882603D01*
X5115706Y-10882603D02*
X5106182Y-10920698D01*
X5106182Y-10920698D02*
X5106182Y-10996889D01*
X5106182Y-10996889D02*
X5115706Y-11015936D01*
X5115706Y-11015936D02*
X5125229Y-11025460D01*
X5125229Y-11025460D02*
X5144277Y-11034984D01*
X5144277Y-11034984D02*
X5182372Y-11034984D01*
X5182372Y-11034984D02*
X5201420Y-11025460D01*
X5201420Y-11025460D02*
X5210944Y-11015936D01*
X5210944Y-11015936D02*
X5220468Y-10996889D01*
X5220468Y-10996889D02*
X5220468Y-10949270D01*
X5220468Y-10949270D02*
X5210944Y-10930222D01*
X5210944Y-10930222D02*
X5201420Y-10920698D01*
X5201420Y-10920698D02*
X5182372Y-10911174D01*
X5182372Y-10911174D02*
X5144277Y-10911174D01*
X5144277Y-10911174D02*
X5125229Y-10920698D01*
X5125229Y-10920698D02*
X5115706Y-10930222D01*
X5115706Y-10930222D02*
X5106182Y-10949270D01*
X5344277Y-10834984D02*
X5363325Y-10834984D01*
X5363325Y-10834984D02*
X5382372Y-10844508D01*
X5382372Y-10844508D02*
X5391896Y-10854031D01*
X5391896Y-10854031D02*
X5401420Y-10873079D01*
X5401420Y-10873079D02*
X5410944Y-10911174D01*
X5410944Y-10911174D02*
X5410944Y-10958793D01*
X5410944Y-10958793D02*
X5401420Y-10996889D01*
X5401420Y-10996889D02*
X5391896Y-11015936D01*
X5391896Y-11015936D02*
X5382372Y-11025460D01*
X5382372Y-11025460D02*
X5363325Y-11034984D01*
X5363325Y-11034984D02*
X5344277Y-11034984D01*
X5344277Y-11034984D02*
X5325229Y-11025460D01*
X5325229Y-11025460D02*
X5315706Y-11015936D01*
X5315706Y-11015936D02*
X5306182Y-10996889D01*
X5306182Y-10996889D02*
X5296658Y-10958793D01*
X5296658Y-10958793D02*
X5296658Y-10911174D01*
X5296658Y-10911174D02*
X5306182Y-10873079D01*
X5306182Y-10873079D02*
X5315706Y-10854031D01*
X5315706Y-10854031D02*
X5325229Y-10844508D01*
X5325229Y-10844508D02*
X5344277Y-10834984D01*
X5487134Y-10834984D02*
X5487134Y-10873079D01*
X5563325Y-10834984D02*
X5563325Y-10873079D01*
X5858563Y-11111174D02*
X5849039Y-11101650D01*
X5849039Y-11101650D02*
X5829991Y-11073079D01*
X5829991Y-11073079D02*
X5820468Y-11054031D01*
X5820468Y-11054031D02*
X5810944Y-11025460D01*
X5810944Y-11025460D02*
X5801420Y-10977841D01*
X5801420Y-10977841D02*
X5801420Y-10939746D01*
X5801420Y-10939746D02*
X5810944Y-10892127D01*
X5810944Y-10892127D02*
X5820468Y-10863555D01*
X5820468Y-10863555D02*
X5829991Y-10844508D01*
X5829991Y-10844508D02*
X5849039Y-10815936D01*
X5849039Y-10815936D02*
X5858563Y-10806412D01*
X5925229Y-10854031D02*
X5934753Y-10844508D01*
X5934753Y-10844508D02*
X5953801Y-10834984D01*
X5953801Y-10834984D02*
X6001420Y-10834984D01*
X6001420Y-10834984D02*
X6020468Y-10844508D01*
X6020468Y-10844508D02*
X6029991Y-10854031D01*
X6029991Y-10854031D02*
X6039515Y-10873079D01*
X6039515Y-10873079D02*
X6039515Y-10892127D01*
X6039515Y-10892127D02*
X6029991Y-10920698D01*
X6029991Y-10920698D02*
X5915706Y-11034984D01*
X5915706Y-11034984D02*
X6039515Y-11034984D01*
X6277610Y-11034984D02*
X6277610Y-10834984D01*
X6363325Y-11034984D02*
X6363325Y-10930222D01*
X6363325Y-10930222D02*
X6353801Y-10911174D01*
X6353801Y-10911174D02*
X6334753Y-10901650D01*
X6334753Y-10901650D02*
X6306182Y-10901650D01*
X6306182Y-10901650D02*
X6287134Y-10911174D01*
X6287134Y-10911174D02*
X6277610Y-10920698D01*
X6487134Y-11034984D02*
X6468087Y-11025460D01*
X6468087Y-11025460D02*
X6458563Y-11015936D01*
X6458563Y-11015936D02*
X6449039Y-10996889D01*
X6449039Y-10996889D02*
X6449039Y-10939746D01*
X6449039Y-10939746D02*
X6458563Y-10920698D01*
X6458563Y-10920698D02*
X6468087Y-10911174D01*
X6468087Y-10911174D02*
X6487134Y-10901650D01*
X6487134Y-10901650D02*
X6515706Y-10901650D01*
X6515706Y-10901650D02*
X6534753Y-10911174D01*
X6534753Y-10911174D02*
X6544277Y-10920698D01*
X6544277Y-10920698D02*
X6553801Y-10939746D01*
X6553801Y-10939746D02*
X6553801Y-10996889D01*
X6553801Y-10996889D02*
X6544277Y-11015936D01*
X6544277Y-11015936D02*
X6534753Y-11025460D01*
X6534753Y-11025460D02*
X6515706Y-11034984D01*
X6515706Y-11034984D02*
X6487134Y-11034984D01*
X6668087Y-11034984D02*
X6649039Y-11025460D01*
X6649039Y-11025460D02*
X6639515Y-11006412D01*
X6639515Y-11006412D02*
X6639515Y-10834984D01*
X6820468Y-11025460D02*
X6801420Y-11034984D01*
X6801420Y-11034984D02*
X6763325Y-11034984D01*
X6763325Y-11034984D02*
X6744277Y-11025460D01*
X6744277Y-11025460D02*
X6734753Y-11006412D01*
X6734753Y-11006412D02*
X6734753Y-10930222D01*
X6734753Y-10930222D02*
X6744277Y-10911174D01*
X6744277Y-10911174D02*
X6763325Y-10901650D01*
X6763325Y-10901650D02*
X6801420Y-10901650D01*
X6801420Y-10901650D02*
X6820468Y-10911174D01*
X6820468Y-10911174D02*
X6829991Y-10930222D01*
X6829991Y-10930222D02*
X6829991Y-10949270D01*
X6829991Y-10949270D02*
X6734753Y-10968317D01*
X6906182Y-11025460D02*
X6925230Y-11034984D01*
X6925230Y-11034984D02*
X6963325Y-11034984D01*
X6963325Y-11034984D02*
X6982372Y-11025460D01*
X6982372Y-11025460D02*
X6991896Y-11006412D01*
X6991896Y-11006412D02*
X6991896Y-10996889D01*
X6991896Y-10996889D02*
X6982372Y-10977841D01*
X6982372Y-10977841D02*
X6963325Y-10968317D01*
X6963325Y-10968317D02*
X6934753Y-10968317D01*
X6934753Y-10968317D02*
X6915706Y-10958793D01*
X6915706Y-10958793D02*
X6906182Y-10939746D01*
X6906182Y-10939746D02*
X6906182Y-10930222D01*
X6906182Y-10930222D02*
X6915706Y-10911174D01*
X6915706Y-10911174D02*
X6934753Y-10901650D01*
X6934753Y-10901650D02*
X6963325Y-10901650D01*
X6963325Y-10901650D02*
X6982372Y-10911174D01*
X7058563Y-11111174D02*
X7068087Y-11101650D01*
X7068087Y-11101650D02*
X7087134Y-11073079D01*
X7087134Y-11073079D02*
X7096658Y-11054031D01*
X7096658Y-11054031D02*
X7106182Y-11025460D01*
X7106182Y-11025460D02*
X7115706Y-10977841D01*
X7115706Y-10977841D02*
X7115706Y-10939746D01*
X7115706Y-10939746D02*
X7106182Y-10892127D01*
X7106182Y-10892127D02*
X7096658Y-10863555D01*
X7096658Y-10863555D02*
X7087134Y-10844508D01*
X7087134Y-10844508D02*
X7068087Y-10815936D01*
X7068087Y-10815936D02*
X7058563Y-10806412D01*
M02*
