%TF.GenerationSoftware,KiCad,Pcbnew,7.0.6*%
%TF.CreationDate,2023-08-13T20:35:56+02:00*%
%TF.ProjectId,ps2_mouse_to_serial_port_adapter_stand_alone,7073325f-6d6f-4757-9365-5f746f5f7365,rev?*%
%TF.SameCoordinates,Original*%
%TF.FileFunction,Soldermask,Top*%
%TF.FilePolarity,Negative*%
%FSLAX46Y46*%
G04 Gerber Fmt 4.6, Leading zero omitted, Abs format (unit mm)*
G04 Created by KiCad (PCBNEW 7.0.6) date 2023-08-13 20:35:56*
%MOMM*%
%LPD*%
G01*
G04 APERTURE LIST*
%ADD10R,1.600000X1.600000*%
%ADD11C,1.600000*%
%ADD12C,4.000500*%
%ADD13R,2.200000X2.200000*%
%ADD14O,2.200000X2.200000*%
%ADD15R,1.800000X1.800000*%
%ADD16C,1.800000*%
%ADD17O,1.600000X1.600000*%
%ADD18R,1.500000X1.050000*%
%ADD19O,1.500000X1.050000*%
%ADD20C,4.000000*%
%ADD21R,1.050000X1.500000*%
%ADD22O,1.050000X1.500000*%
%ADD23R,1.905000X2.000000*%
%ADD24O,1.905000X2.000000*%
%ADD25C,1.371600*%
%ADD26R,2.000000X4.500000*%
%ADD27O,2.000000X4.000000*%
%ADD28O,4.000000X2.000000*%
%ADD29R,2.100000X2.100000*%
%ADD30C,2.100000*%
G04 APERTURE END LIST*
D10*
%TO.C,C5*%
X85640000Y-75650000D03*
D11*
X85640000Y-79450000D03*
%TD*%
D12*
%TO.C,*%
X26110000Y-17220000D03*
%TD*%
%TO.C,*%
X109610000Y-80720000D03*
%TD*%
D13*
%TO.C,D2*%
X39920000Y-66750000D03*
D14*
X39920000Y-56590000D03*
%TD*%
D15*
%TO.C,D4*%
X108500000Y-71830000D03*
D16*
X105960000Y-71830000D03*
%TD*%
D10*
%TO.C,U1*%
X50080000Y-51510000D03*
D17*
X50080000Y-54050000D03*
X50080000Y-56590000D03*
X50080000Y-59130000D03*
X50080000Y-61670000D03*
X50080000Y-64210000D03*
X50080000Y-66750000D03*
X57700000Y-66750000D03*
X57700000Y-64210000D03*
X57700000Y-61670000D03*
X57700000Y-59130000D03*
X57700000Y-56590000D03*
X57700000Y-54050000D03*
X57700000Y-51510000D03*
%TD*%
D10*
%TO.C,D1*%
X39920000Y-21030000D03*
D17*
X39920000Y-28650000D03*
%TD*%
D11*
%TO.C,R1*%
X57700000Y-28650000D03*
D17*
X57700000Y-21030000D03*
%TD*%
D11*
%TO.C,C3*%
X50080000Y-74370000D03*
X50080000Y-79370000D03*
%TD*%
%TO.C,R2*%
X50080000Y-28650000D03*
D17*
X50080000Y-21030000D03*
%TD*%
D15*
%TO.C,D3*%
X108500000Y-64210000D03*
D16*
X105960000Y-64210000D03*
%TD*%
D18*
%TO.C,U2*%
X45000000Y-23570000D03*
D19*
X45000000Y-22300000D03*
X45000000Y-21030000D03*
%TD*%
D12*
%TO.C,*%
X26110000Y-80720000D03*
%TD*%
D11*
%TO.C,R3*%
X57700000Y-36270000D03*
D17*
X50080000Y-36270000D03*
%TD*%
D11*
%TO.C,R4*%
X91990000Y-64210000D03*
D17*
X99610000Y-64210000D03*
%TD*%
D12*
%TO.C,*%
X109610000Y-17220000D03*
%TD*%
D11*
%TO.C,C4*%
X75480000Y-74370000D03*
X75480000Y-79370000D03*
%TD*%
D20*
%TO.C,J2*%
X30861000Y-23780000D03*
X30861000Y-48780000D03*
D10*
X31161000Y-41820000D03*
D11*
X31161000Y-39050000D03*
X31161000Y-36280000D03*
X31161000Y-33510000D03*
X31161000Y-30740000D03*
X28321000Y-40435000D03*
X28321000Y-37665000D03*
X28321000Y-34895000D03*
X28321000Y-32125000D03*
%TD*%
D21*
%TO.C,Q1*%
X46270000Y-36270000D03*
D22*
X45000000Y-36270000D03*
X43730000Y-36270000D03*
%TD*%
D10*
%TO.C,A1*%
X85640000Y-56590000D03*
D17*
X85640000Y-54050000D03*
X85640000Y-51510000D03*
X85640000Y-48970000D03*
X85640000Y-46430000D03*
X85640000Y-43890000D03*
X85640000Y-41350000D03*
X85640000Y-38810000D03*
X85640000Y-36270000D03*
X85640000Y-33730000D03*
X85640000Y-31190000D03*
X85640000Y-28650000D03*
X85640000Y-26110000D03*
X85640000Y-23570000D03*
X85640000Y-21030000D03*
X70400000Y-21030000D03*
X70400000Y-23570000D03*
X70400000Y-26110000D03*
X70400000Y-28650000D03*
X70400000Y-31190000D03*
X70400000Y-33730000D03*
X70400000Y-36270000D03*
X70400000Y-38810000D03*
X70400000Y-41350000D03*
X70400000Y-43890000D03*
X70400000Y-46430000D03*
X70400000Y-48970000D03*
X70400000Y-51510000D03*
X70400000Y-54050000D03*
X70400000Y-56590000D03*
%TD*%
D11*
%TO.C,R5*%
X91990000Y-71830000D03*
D17*
X99610000Y-71830000D03*
%TD*%
D23*
%TO.C,U3*%
X60240000Y-79450000D03*
D24*
X62780000Y-79450000D03*
X65320000Y-79450000D03*
%TD*%
D25*
%TO.C,J3*%
X105410000Y-30909260D03*
X105410000Y-33510220D03*
X105410000Y-28859480D03*
X105410000Y-35560000D03*
X102918260Y-28859480D03*
X102918260Y-35560000D03*
D12*
X108409740Y-25450800D03*
X109220000Y-32209740D03*
X108409740Y-38968680D03*
%TD*%
D26*
%TO.C,J1*%
X33680000Y-68960000D03*
D27*
X27480000Y-68960000D03*
D28*
X30480000Y-73660000D03*
%TD*%
D10*
%TO.C,C2*%
X39920000Y-75650000D03*
D11*
X39920000Y-79450000D03*
%TD*%
D10*
%TO.C,C1*%
X99620000Y-48970000D03*
D11*
X103420000Y-48970000D03*
%TD*%
D29*
%TO.C,SW1*%
X27940000Y-59130000D03*
D30*
X27940000Y-56590000D03*
%TD*%
D11*
%TO.C,C6*%
X55080000Y-46430000D03*
X50080000Y-46430000D03*
%TD*%
M02*
