%TF.GenerationSoftware,KiCad,Pcbnew,7.0.6*%
%TF.CreationDate,2023-08-28T20:04:36+02:00*%
%TF.ProjectId,ps2_mouse_to_serial_port_adapter_stand_alone,7073325f-6d6f-4757-9365-5f746f5f7365,rev?*%
%TF.SameCoordinates,Original*%
%TF.FileFunction,Soldermask,Bot*%
%TF.FilePolarity,Negative*%
%FSLAX46Y46*%
G04 Gerber Fmt 4.6, Leading zero omitted, Abs format (unit mm)*
G04 Created by KiCad (PCBNEW 7.0.6) date 2023-08-28 20:04:36*
%MOMM*%
%LPD*%
G01*
G04 APERTURE LIST*
G04 Aperture macros list*
%AMRoundRect*
0 Rectangle with rounded corners*
0 $1 Rounding radius*
0 $2 $3 $4 $5 $6 $7 $8 $9 X,Y pos of 4 corners*
0 Add a 4 corners polygon primitive as box body*
4,1,4,$2,$3,$4,$5,$6,$7,$8,$9,$2,$3,0*
0 Add four circle primitives for the rounded corners*
1,1,$1+$1,$2,$3*
1,1,$1+$1,$4,$5*
1,1,$1+$1,$6,$7*
1,1,$1+$1,$8,$9*
0 Add four rect primitives between the rounded corners*
20,1,$1+$1,$2,$3,$4,$5,0*
20,1,$1+$1,$4,$5,$6,$7,0*
20,1,$1+$1,$6,$7,$8,$9,0*
20,1,$1+$1,$8,$9,$2,$3,0*%
G04 Aperture macros list end*
%ADD10R,1.800000X1.100000*%
%ADD11RoundRect,0.275000X0.625000X-0.275000X0.625000X0.275000X-0.625000X0.275000X-0.625000X-0.275000X0*%
%ADD12R,1.100000X1.800000*%
%ADD13RoundRect,0.275000X0.275000X0.625000X-0.275000X0.625000X-0.275000X-0.625000X0.275000X-0.625000X0*%
%ADD14R,1.600000X1.600000*%
%ADD15C,1.600000*%
%ADD16R,2.200000X2.200000*%
%ADD17O,2.200000X2.200000*%
%ADD18R,1.800000X1.800000*%
%ADD19C,1.800000*%
%ADD20O,1.600000X1.600000*%
%ADD21C,4.000000*%
%ADD22C,3.200000*%
%ADD23R,1.905000X2.000000*%
%ADD24O,1.905000X2.000000*%
%ADD25C,1.371600*%
%ADD26C,4.000500*%
%ADD27R,2.000000X4.500000*%
%ADD28O,2.000000X4.000000*%
%ADD29O,4.000000X2.000000*%
%ADD30R,2.100000X2.100000*%
%ADD31C,2.100000*%
G04 APERTURE END LIST*
D10*
%TO.C,U2*%
X45400000Y-23570000D03*
D11*
X43330000Y-22300000D03*
X45400000Y-21030000D03*
%TD*%
D12*
%TO.C,Q1*%
X46270000Y-35870000D03*
D13*
X45000000Y-37940000D03*
X43730000Y-35870000D03*
%TD*%
D14*
%TO.C,C5*%
X85640000Y-75650000D03*
D15*
X85640000Y-79450000D03*
%TD*%
D16*
%TO.C,D2*%
X39920000Y-66750000D03*
D17*
X39920000Y-56590000D03*
%TD*%
D18*
%TO.C,D4*%
X108500000Y-71830000D03*
D19*
X105960000Y-71830000D03*
%TD*%
D14*
%TO.C,U1*%
X50080000Y-51510000D03*
D20*
X50080000Y-54050000D03*
X50080000Y-56590000D03*
X50080000Y-59130000D03*
X50080000Y-61670000D03*
X50080000Y-64210000D03*
X50080000Y-66750000D03*
X57700000Y-66750000D03*
X57700000Y-64210000D03*
X57700000Y-61670000D03*
X57700000Y-59130000D03*
X57700000Y-56590000D03*
X57700000Y-54050000D03*
X57700000Y-51510000D03*
%TD*%
D14*
%TO.C,D1*%
X39920000Y-21030000D03*
D20*
X39920000Y-28650000D03*
%TD*%
D15*
%TO.C,R1*%
X57700000Y-28650000D03*
D20*
X57700000Y-21030000D03*
%TD*%
D15*
%TO.C,C3*%
X50080000Y-74370000D03*
X50080000Y-79370000D03*
%TD*%
%TO.C,R2*%
X50080000Y-28650000D03*
D20*
X50080000Y-21030000D03*
%TD*%
D18*
%TO.C,D3*%
X108500000Y-64210000D03*
D19*
X105960000Y-64210000D03*
%TD*%
D15*
%TO.C,R3*%
X57700000Y-36270000D03*
D20*
X50080000Y-36270000D03*
%TD*%
D15*
%TO.C,R4*%
X91990000Y-64210000D03*
D20*
X99610000Y-64210000D03*
%TD*%
D15*
%TO.C,C4*%
X75480000Y-74370000D03*
X75480000Y-79370000D03*
%TD*%
D21*
%TO.C,J2*%
X30734000Y-25419000D03*
X30734000Y-50419000D03*
D14*
X31034000Y-43459000D03*
D15*
X31034000Y-40689000D03*
X31034000Y-37919000D03*
X31034000Y-35149000D03*
X31034000Y-32379000D03*
X28194000Y-42074000D03*
X28194000Y-39304000D03*
X28194000Y-36534000D03*
X28194000Y-33764000D03*
%TD*%
D22*
%TO.C,H2*%
X109610000Y-17220000D03*
%TD*%
D14*
%TO.C,A1*%
X85640000Y-56590000D03*
D20*
X85640000Y-54050000D03*
X85640000Y-51510000D03*
X85640000Y-48970000D03*
X85640000Y-46430000D03*
X85640000Y-43890000D03*
X85640000Y-41350000D03*
X85640000Y-38810000D03*
X85640000Y-36270000D03*
X85640000Y-33730000D03*
X85640000Y-31190000D03*
X85640000Y-28650000D03*
X85640000Y-26110000D03*
X85640000Y-23570000D03*
X85640000Y-21030000D03*
X70400000Y-21030000D03*
X70400000Y-23570000D03*
X70400000Y-26110000D03*
X70400000Y-28650000D03*
X70400000Y-31190000D03*
X70400000Y-33730000D03*
X70400000Y-36270000D03*
X70400000Y-38810000D03*
X70400000Y-41350000D03*
X70400000Y-43890000D03*
X70400000Y-46430000D03*
X70400000Y-48970000D03*
X70400000Y-51510000D03*
X70400000Y-54050000D03*
X70400000Y-56590000D03*
%TD*%
D15*
%TO.C,R5*%
X91990000Y-71830000D03*
D20*
X99610000Y-71830000D03*
%TD*%
D23*
%TO.C,U3*%
X60240000Y-79450000D03*
D24*
X62780000Y-79450000D03*
X65320000Y-79450000D03*
%TD*%
D25*
%TO.C,J3*%
X105410000Y-30909260D03*
X105410000Y-33510220D03*
X105410000Y-28859480D03*
X105410000Y-35560000D03*
X102918260Y-28859480D03*
X102918260Y-35560000D03*
D26*
X108409740Y-25450800D03*
X109220000Y-32209740D03*
X108409740Y-38968680D03*
%TD*%
D22*
%TO.C,H1*%
X26110000Y-17220000D03*
%TD*%
D27*
%TO.C,J1*%
X33680000Y-68960000D03*
D28*
X27480000Y-68960000D03*
D29*
X30480000Y-73660000D03*
%TD*%
D14*
%TO.C,C2*%
X39920000Y-75650000D03*
D15*
X39920000Y-79450000D03*
%TD*%
D14*
%TO.C,C1*%
X99620000Y-48970000D03*
D15*
X103420000Y-48970000D03*
%TD*%
D30*
%TO.C,SW1*%
X27813000Y-59944000D03*
D31*
X27813000Y-57404000D03*
%TD*%
D15*
%TO.C,C6*%
X55080000Y-46430000D03*
X50080000Y-46430000D03*
%TD*%
D22*
%TO.C,H4*%
X109610000Y-80720000D03*
%TD*%
%TO.C,H3*%
X26110000Y-80720000D03*
%TD*%
M02*
