%TF.GenerationSoftware,KiCad,Pcbnew,7.0.6*%
%TF.CreationDate,2023-08-13T20:35:56+02:00*%
%TF.ProjectId,ps2_mouse_to_serial_port_adapter_stand_alone,7073325f-6d6f-4757-9365-5f746f5f7365,rev?*%
%TF.SameCoordinates,Original*%
%TF.FileFunction,Copper,L1,Top*%
%TF.FilePolarity,Positive*%
%FSLAX46Y46*%
G04 Gerber Fmt 4.6, Leading zero omitted, Abs format (unit mm)*
G04 Created by KiCad (PCBNEW 7.0.6) date 2023-08-13 20:35:56*
%MOMM*%
%LPD*%
G01*
G04 APERTURE LIST*
%TA.AperFunction,ComponentPad*%
%ADD10R,1.600000X1.600000*%
%TD*%
%TA.AperFunction,ComponentPad*%
%ADD11C,1.600000*%
%TD*%
%TA.AperFunction,ComponentPad*%
%ADD12C,4.000500*%
%TD*%
%TA.AperFunction,ComponentPad*%
%ADD13R,2.200000X2.200000*%
%TD*%
%TA.AperFunction,ComponentPad*%
%ADD14O,2.200000X2.200000*%
%TD*%
%TA.AperFunction,ComponentPad*%
%ADD15R,1.800000X1.800000*%
%TD*%
%TA.AperFunction,ComponentPad*%
%ADD16C,1.800000*%
%TD*%
%TA.AperFunction,ComponentPad*%
%ADD17O,1.600000X1.600000*%
%TD*%
%TA.AperFunction,ComponentPad*%
%ADD18R,1.500000X1.050000*%
%TD*%
%TA.AperFunction,ComponentPad*%
%ADD19O,1.500000X1.050000*%
%TD*%
%TA.AperFunction,ComponentPad*%
%ADD20C,4.000000*%
%TD*%
%TA.AperFunction,ComponentPad*%
%ADD21R,1.050000X1.500000*%
%TD*%
%TA.AperFunction,ComponentPad*%
%ADD22O,1.050000X1.500000*%
%TD*%
%TA.AperFunction,ComponentPad*%
%ADD23R,1.905000X2.000000*%
%TD*%
%TA.AperFunction,ComponentPad*%
%ADD24O,1.905000X2.000000*%
%TD*%
%TA.AperFunction,ComponentPad*%
%ADD25C,1.371600*%
%TD*%
%TA.AperFunction,ComponentPad*%
%ADD26R,2.000000X4.500000*%
%TD*%
%TA.AperFunction,ComponentPad*%
%ADD27O,2.000000X4.000000*%
%TD*%
%TA.AperFunction,ComponentPad*%
%ADD28O,4.000000X2.000000*%
%TD*%
%TA.AperFunction,ComponentPad*%
%ADD29R,2.100000X2.100000*%
%TD*%
%TA.AperFunction,ComponentPad*%
%ADD30C,2.100000*%
%TD*%
%TA.AperFunction,Conductor*%
%ADD31C,0.800000*%
%TD*%
%TA.AperFunction,Conductor*%
%ADD32C,0.400000*%
%TD*%
G04 APERTURE END LIST*
D10*
%TO.P,C5,1*%
%TO.N,/+5V*%
X85640000Y-75650000D03*
D11*
%TO.P,C5,2*%
%TO.N,/GND*%
X85640000Y-79450000D03*
%TD*%
D12*
%TO.P,,GND*%
%TO.N,/GND*%
X26110000Y-17220000D03*
%TD*%
%TO.P,,GND*%
%TO.N,/GND*%
X109610000Y-80720000D03*
%TD*%
D13*
%TO.P,D2,1,K*%
%TO.N,Net-(D2-K)*%
X39920000Y-66750000D03*
D14*
%TO.P,D2,2,A*%
%TO.N,Net-(D2-A)*%
X39920000Y-56590000D03*
%TD*%
D15*
%TO.P,D4,1,K*%
%TO.N,/GND*%
X108500000Y-71830000D03*
D16*
%TO.P,D4,2,A*%
%TO.N,Net-(D4-A)*%
X105960000Y-71830000D03*
%TD*%
D10*
%TO.P,U1,1*%
%TO.N,Net-(A1-D1{slash}TX)*%
X50080000Y-51510000D03*
D17*
%TO.P,U1,2*%
X50080000Y-54050000D03*
%TO.P,U1,3*%
%TO.N,Net-(J2-Pad2)*%
X50080000Y-56590000D03*
%TO.P,U1,4*%
%TO.N,unconnected-(U1-Pad4)*%
X50080000Y-59130000D03*
%TO.P,U1,5*%
%TO.N,unconnected-(U1-Pad5)*%
X50080000Y-61670000D03*
%TO.P,U1,6*%
%TO.N,unconnected-(U1-Pad6)*%
X50080000Y-64210000D03*
%TO.P,U1,7,GND*%
%TO.N,/GND*%
X50080000Y-66750000D03*
%TO.P,U1,8*%
%TO.N,Net-(A1-D7)*%
X57700000Y-66750000D03*
%TO.P,U1,9*%
%TO.N,Net-(Q1-C)*%
X57700000Y-64210000D03*
%TO.P,U1,10*%
X57700000Y-61670000D03*
%TO.P,U1,11*%
%TO.N,unconnected-(U1-Pad11)*%
X57700000Y-59130000D03*
%TO.P,U1,12*%
%TO.N,unconnected-(U1-Pad12)*%
X57700000Y-56590000D03*
%TO.P,U1,13*%
%TO.N,unconnected-(U1-Pad13)*%
X57700000Y-54050000D03*
%TO.P,U1,14,VCC*%
%TO.N,/+5V*%
X57700000Y-51510000D03*
%TD*%
D10*
%TO.P,D1,1,K*%
%TO.N,Net-(D1-K)*%
X39920000Y-21030000D03*
D17*
%TO.P,D1,2,A*%
%TO.N,Net-(D1-A)*%
X39920000Y-28650000D03*
%TD*%
D11*
%TO.P,R1,1*%
%TO.N,Net-(Q1-B)*%
X57700000Y-28650000D03*
D17*
%TO.P,R1,2*%
%TO.N,Net-(U2-VO)*%
X57700000Y-21030000D03*
%TD*%
D11*
%TO.P,C3,1*%
%TO.N,Net-(D2-K)*%
X50080000Y-74370000D03*
%TO.P,C3,2*%
%TO.N,/GND*%
X50080000Y-79370000D03*
%TD*%
%TO.P,R2,1*%
%TO.N,Net-(Q1-B)*%
X50080000Y-28650000D03*
D17*
%TO.P,R2,2*%
%TO.N,/GND*%
X50080000Y-21030000D03*
%TD*%
D15*
%TO.P,D3,1,K*%
%TO.N,/GND*%
X108500000Y-64210000D03*
D16*
%TO.P,D3,2,A*%
%TO.N,Net-(D3-A)*%
X105960000Y-64210000D03*
%TD*%
D18*
%TO.P,U2,1,VO*%
%TO.N,Net-(U2-VO)*%
X45000000Y-23570000D03*
D19*
%TO.P,U2,2,GND*%
%TO.N,/GND*%
X45000000Y-22300000D03*
%TO.P,U2,3,VI*%
%TO.N,Net-(D1-K)*%
X45000000Y-21030000D03*
%TD*%
D12*
%TO.P,,GND*%
%TO.N,/GND*%
X26110000Y-80720000D03*
%TD*%
D11*
%TO.P,R3,1*%
%TO.N,/+5V*%
X57700000Y-36270000D03*
D17*
%TO.P,R3,2*%
%TO.N,Net-(Q1-C)*%
X50080000Y-36270000D03*
%TD*%
D11*
%TO.P,R4,1*%
%TO.N,Net-(A1-D8)*%
X91990000Y-64210000D03*
D17*
%TO.P,R4,2*%
%TO.N,Net-(D3-A)*%
X99610000Y-64210000D03*
%TD*%
D12*
%TO.P,,GND*%
%TO.N,/GND*%
X109610000Y-17220000D03*
%TD*%
D11*
%TO.P,C4,1*%
%TO.N,/+5V*%
X75480000Y-74370000D03*
%TO.P,C4,2*%
%TO.N,/GND*%
X75480000Y-79370000D03*
%TD*%
D20*
%TO.P,J2,0,PAD*%
%TO.N,/GND*%
X30861000Y-23780000D03*
X30861000Y-48780000D03*
D10*
%TO.P,J2,1,1*%
%TO.N,unconnected-(J2-Pad1)*%
X31161000Y-41820000D03*
D11*
%TO.P,J2,2,2*%
%TO.N,Net-(J2-Pad2)*%
X31161000Y-39050000D03*
%TO.P,J2,3,3*%
%TO.N,unconnected-(J2-Pad3)*%
X31161000Y-36280000D03*
%TO.P,J2,4,4*%
%TO.N,unconnected-(J2-Pad4)*%
X31161000Y-33510000D03*
%TO.P,J2,5,5*%
%TO.N,/GND*%
X31161000Y-30740000D03*
%TO.P,J2,6,6*%
%TO.N,unconnected-(J2-Pad6)*%
X28321000Y-40435000D03*
%TO.P,J2,7,7*%
%TO.N,Net-(D1-A)*%
X28321000Y-37665000D03*
%TO.P,J2,8,8*%
%TO.N,unconnected-(J2-Pad8)*%
X28321000Y-34895000D03*
%TO.P,J2,9,9*%
%TO.N,unconnected-(J2-Pad9)*%
X28321000Y-32125000D03*
%TD*%
D21*
%TO.P,Q1,1,C*%
%TO.N,Net-(Q1-C)*%
X46270000Y-36270000D03*
D22*
%TO.P,Q1,2,B*%
%TO.N,Net-(Q1-B)*%
X45000000Y-36270000D03*
%TO.P,Q1,3,E*%
%TO.N,/GND*%
X43730000Y-36270000D03*
%TD*%
D10*
%TO.P,A1,1,D1/TX*%
%TO.N,Net-(A1-D1{slash}TX)*%
X85640000Y-56590000D03*
D17*
%TO.P,A1,2,D0/RX*%
%TO.N,unconnected-(A1-D0{slash}RX-Pad2)*%
X85640000Y-54050000D03*
%TO.P,A1,3,~{RESET}*%
%TO.N,unconnected-(A1-~{RESET}-Pad3)*%
X85640000Y-51510000D03*
%TO.P,A1,4,GND*%
%TO.N,unconnected-(A1-GND-Pad4)*%
X85640000Y-48970000D03*
%TO.P,A1,5,D2*%
%TO.N,Net-(A1-D2)*%
X85640000Y-46430000D03*
%TO.P,A1,6,D3*%
%TO.N,unconnected-(A1-D3-Pad6)*%
X85640000Y-43890000D03*
%TO.P,A1,7,D4*%
%TO.N,unconnected-(A1-D4-Pad7)*%
X85640000Y-41350000D03*
%TO.P,A1,8,D5*%
%TO.N,Net-(A1-D5)*%
X85640000Y-38810000D03*
%TO.P,A1,9,D6*%
%TO.N,unconnected-(A1-D6-Pad9)*%
X85640000Y-36270000D03*
%TO.P,A1,10,D7*%
%TO.N,Net-(A1-D7)*%
X85640000Y-33730000D03*
%TO.P,A1,11,D8*%
%TO.N,Net-(A1-D8)*%
X85640000Y-31190000D03*
%TO.P,A1,12,D9*%
%TO.N,unconnected-(A1-D9-Pad12)*%
X85640000Y-28650000D03*
%TO.P,A1,13,D10*%
%TO.N,unconnected-(A1-D10-Pad13)*%
X85640000Y-26110000D03*
%TO.P,A1,14,D11*%
%TO.N,unconnected-(A1-D11-Pad14)*%
X85640000Y-23570000D03*
%TO.P,A1,15,D12*%
%TO.N,unconnected-(A1-D12-Pad15)*%
X85640000Y-21030000D03*
%TO.P,A1,16,D13*%
%TO.N,unconnected-(A1-D13-Pad16)*%
X70400000Y-21030000D03*
%TO.P,A1,17,3V3*%
%TO.N,unconnected-(A1-3V3-Pad17)*%
X70400000Y-23570000D03*
%TO.P,A1,18,AREF*%
%TO.N,unconnected-(A1-AREF-Pad18)*%
X70400000Y-26110000D03*
%TO.P,A1,19,A0*%
%TO.N,unconnected-(A1-A0-Pad19)*%
X70400000Y-28650000D03*
%TO.P,A1,20,A1*%
%TO.N,unconnected-(A1-A1-Pad20)*%
X70400000Y-31190000D03*
%TO.P,A1,21,A2*%
%TO.N,unconnected-(A1-A2-Pad21)*%
X70400000Y-33730000D03*
%TO.P,A1,22,A3*%
%TO.N,unconnected-(A1-A3-Pad22)*%
X70400000Y-36270000D03*
%TO.P,A1,23,A4*%
%TO.N,unconnected-(A1-A4-Pad23)*%
X70400000Y-38810000D03*
%TO.P,A1,24,A5*%
%TO.N,unconnected-(A1-A5-Pad24)*%
X70400000Y-41350000D03*
%TO.P,A1,25,A6*%
%TO.N,unconnected-(A1-A6-Pad25)*%
X70400000Y-43890000D03*
%TO.P,A1,26,A7*%
%TO.N,unconnected-(A1-A7-Pad26)*%
X70400000Y-46430000D03*
%TO.P,A1,27,+5V*%
%TO.N,unconnected-(A1-+5V-Pad27)*%
X70400000Y-48970000D03*
%TO.P,A1,28,~{RESET}*%
%TO.N,unconnected-(A1-~{RESET}-Pad28)*%
X70400000Y-51510000D03*
%TO.P,A1,29,GND*%
%TO.N,/GND*%
X70400000Y-54050000D03*
%TO.P,A1,30,VIN*%
%TO.N,/+5V*%
X70400000Y-56590000D03*
%TD*%
D11*
%TO.P,R5,1*%
%TO.N,/+5V*%
X91990000Y-71830000D03*
D17*
%TO.P,R5,2*%
%TO.N,Net-(D4-A)*%
X99610000Y-71830000D03*
%TD*%
D23*
%TO.P,U3,1,IN*%
%TO.N,Net-(D2-K)*%
X60240000Y-79450000D03*
D24*
%TO.P,U3,2,GND*%
%TO.N,/GND*%
X62780000Y-79450000D03*
%TO.P,U3,3,OUT*%
%TO.N,/+5V*%
X65320000Y-79450000D03*
%TD*%
D25*
%TO.P,J3,1*%
%TO.N,Net-(A1-D5)*%
X105410000Y-30909260D03*
%TO.P,J3,2*%
%TO.N,unconnected-(J3-Pad2)*%
X105410000Y-33510220D03*
%TO.P,J3,3*%
%TO.N,/GND*%
X105410000Y-28859480D03*
%TO.P,J3,4*%
%TO.N,/+5V*%
X105410000Y-35560000D03*
%TO.P,J3,5*%
%TO.N,Net-(A1-D2)*%
X102918260Y-28859480D03*
%TO.P,J3,6*%
%TO.N,unconnected-(J3-Pad6)*%
X102918260Y-35560000D03*
D12*
%TO.P,J3,GND*%
%TO.N,/GND*%
X108409740Y-25450800D03*
X109220000Y-32209740D03*
X108409740Y-38968680D03*
%TD*%
D26*
%TO.P,J1,1*%
%TO.N,Net-(SW1-A)*%
X33680000Y-68960000D03*
D27*
%TO.P,J1,2*%
%TO.N,/GND*%
X27480000Y-68960000D03*
D28*
%TO.P,J1,3,MountPin*%
%TO.N,unconnected-(J1-MountPin-Pad3)*%
X30480000Y-73660000D03*
%TD*%
D10*
%TO.P,C2,1*%
%TO.N,Net-(D2-K)*%
X39920000Y-75650000D03*
D11*
%TO.P,C2,2*%
%TO.N,/GND*%
X39920000Y-79450000D03*
%TD*%
D10*
%TO.P,C1,1*%
%TO.N,/+5V*%
X99620000Y-48970000D03*
D11*
%TO.P,C1,2*%
%TO.N,/GND*%
X103420000Y-48970000D03*
%TD*%
D29*
%TO.P,SW1,1,A*%
%TO.N,Net-(SW1-A)*%
X27940000Y-59130000D03*
D30*
%TO.P,SW1,2,B*%
%TO.N,Net-(D2-A)*%
X27940000Y-56590000D03*
%TD*%
D11*
%TO.P,C6,1*%
%TO.N,/+5V*%
X55080000Y-46430000D03*
%TO.P,C6,2*%
%TO.N,/GND*%
X50080000Y-46430000D03*
%TD*%
D31*
%TO.N,/GND*%
X30861000Y-23780000D02*
X30861000Y-30440000D01*
D32*
X60240000Y-48970000D02*
X52620000Y-48970000D01*
D31*
X52620000Y-69290000D02*
X50080000Y-66750000D01*
D32*
X70400000Y-54050000D02*
X65320000Y-54050000D01*
X65320000Y-54050000D02*
X60240000Y-48970000D01*
D31*
X33401000Y-32980000D02*
X31161000Y-30740000D01*
D32*
X52540000Y-76910000D02*
X52620000Y-76910000D01*
D31*
X33401000Y-46240000D02*
X33401000Y-32980000D01*
X52620000Y-76910000D02*
X52620000Y-69290000D01*
X50080000Y-79370000D02*
X52540000Y-76910000D01*
X33401000Y-46240000D02*
X30861000Y-48780000D01*
D32*
X52620000Y-48970000D02*
X50080000Y-46430000D01*
%TO.N,Net-(A1-D1{slash}TX)*%
X52620000Y-66750000D02*
X52620000Y-56590000D01*
X55160000Y-69290000D02*
X52620000Y-66750000D01*
X50080000Y-51510000D02*
X50080000Y-54050000D01*
X52620000Y-56590000D02*
X50080000Y-54050000D01*
X85640000Y-56590000D02*
X85640000Y-64210000D01*
X85640000Y-64210000D02*
X80560000Y-69290000D01*
X80560000Y-69290000D02*
X55160000Y-69290000D01*
%TO.N,Net-(A1-D7)*%
X83100000Y-33730000D02*
X80560000Y-36270000D01*
X85640000Y-33730000D02*
X83100000Y-33730000D01*
X80560000Y-36270000D02*
X80560000Y-64210000D01*
X80560000Y-64210000D02*
X78020000Y-66750000D01*
X78020000Y-66750000D02*
X57700000Y-66750000D01*
%TO.N,Net-(A1-D5)*%
X104569260Y-31750000D02*
X96520000Y-31750000D01*
X96520000Y-31750000D02*
X89460000Y-38810000D01*
X105410000Y-30909260D02*
X104569260Y-31750000D01*
X89460000Y-38810000D02*
X85640000Y-38810000D01*
%TD*%
%TA.AperFunction,Conductor*%
%TO.N,/GND*%
G36*
X112302539Y-14490185D02*
G01*
X112348294Y-14542989D01*
X112359500Y-14594500D01*
X112359500Y-17157402D01*
X112339815Y-17224441D01*
X112339464Y-17224744D01*
X112356436Y-17255202D01*
X112359500Y-17282597D01*
X112359500Y-80657402D01*
X112339815Y-80724441D01*
X112339464Y-80724744D01*
X112356436Y-80755202D01*
X112359500Y-80782597D01*
X112359500Y-83345500D01*
X112339815Y-83412539D01*
X112287011Y-83458294D01*
X112235500Y-83469500D01*
X23484500Y-83469500D01*
X23417461Y-83449815D01*
X23371706Y-83397011D01*
X23360500Y-83345500D01*
X23360500Y-80782597D01*
X23378109Y-80722629D01*
X23587389Y-80722629D01*
X23603477Y-80747662D01*
X23608255Y-80774811D01*
X23624559Y-81033973D01*
X23624560Y-81033980D01*
X23683513Y-81343020D01*
X23780730Y-81642224D01*
X23780732Y-81642229D01*
X23914680Y-81926882D01*
X23914684Y-81926888D01*
X24083254Y-82192513D01*
X24083256Y-82192516D01*
X24174108Y-82302337D01*
X25142678Y-81333767D01*
X25191923Y-81413300D01*
X25334948Y-81570191D01*
X25493572Y-81689979D01*
X24524793Y-82658758D01*
X24524794Y-82658760D01*
X24767638Y-82835196D01*
X24767656Y-82835207D01*
X25043341Y-82986766D01*
X25043349Y-82986770D01*
X25335849Y-83102579D01*
X25335852Y-83102580D01*
X25640577Y-83180819D01*
X25952688Y-83220249D01*
X25952700Y-83220250D01*
X26267300Y-83220250D01*
X26267311Y-83220249D01*
X26579422Y-83180819D01*
X26884147Y-83102580D01*
X26884150Y-83102579D01*
X27176650Y-82986770D01*
X27176658Y-82986766D01*
X27452343Y-82835207D01*
X27452353Y-82835201D01*
X27695204Y-82658758D01*
X27695205Y-82658758D01*
X26726427Y-81689979D01*
X26885052Y-81570191D01*
X27028077Y-81413300D01*
X27077321Y-81333768D01*
X28045890Y-82302337D01*
X28136742Y-82192517D01*
X28136745Y-82192513D01*
X28305315Y-81926888D01*
X28305319Y-81926882D01*
X28439267Y-81642229D01*
X28439269Y-81642224D01*
X28536486Y-81343020D01*
X28595439Y-81033980D01*
X28595440Y-81033973D01*
X28615193Y-80720005D01*
X28615193Y-80719994D01*
X28595440Y-80406026D01*
X28595439Y-80406019D01*
X28536486Y-80096979D01*
X28439269Y-79797775D01*
X28439267Y-79797770D01*
X28305319Y-79513117D01*
X28305315Y-79513111D01*
X28265265Y-79450002D01*
X38615034Y-79450002D01*
X38634858Y-79676599D01*
X38634860Y-79676610D01*
X38693730Y-79896317D01*
X38693734Y-79896326D01*
X38789865Y-80102481D01*
X38789866Y-80102483D01*
X38840973Y-80175471D01*
X38840974Y-80175472D01*
X39522046Y-79494399D01*
X39534835Y-79575148D01*
X39592359Y-79688045D01*
X39681955Y-79777641D01*
X39794852Y-79835165D01*
X39875599Y-79847953D01*
X39194526Y-80529025D01*
X39194526Y-80529026D01*
X39267512Y-80580131D01*
X39267516Y-80580133D01*
X39473673Y-80676265D01*
X39473682Y-80676269D01*
X39693389Y-80735139D01*
X39693400Y-80735141D01*
X39919998Y-80754966D01*
X39920002Y-80754966D01*
X40146599Y-80735141D01*
X40146610Y-80735139D01*
X40366317Y-80676269D01*
X40366331Y-80676264D01*
X40572478Y-80580136D01*
X40645472Y-80529025D01*
X39964401Y-79847953D01*
X40045148Y-79835165D01*
X40158045Y-79777641D01*
X40247641Y-79688045D01*
X40305165Y-79575148D01*
X40317953Y-79494400D01*
X40999025Y-80175472D01*
X41050136Y-80102478D01*
X41146264Y-79896331D01*
X41146269Y-79896317D01*
X41205139Y-79676610D01*
X41205141Y-79676599D01*
X41224966Y-79450002D01*
X41224966Y-79449997D01*
X41217967Y-79370002D01*
X48775034Y-79370002D01*
X48794858Y-79596599D01*
X48794860Y-79596610D01*
X48853730Y-79816317D01*
X48853734Y-79816326D01*
X48949865Y-80022481D01*
X48949866Y-80022483D01*
X49000973Y-80095471D01*
X49000974Y-80095472D01*
X49682046Y-79414399D01*
X49694835Y-79495148D01*
X49752359Y-79608045D01*
X49841955Y-79697641D01*
X49954852Y-79755165D01*
X50035599Y-79767953D01*
X49354526Y-80449025D01*
X49354526Y-80449026D01*
X49427512Y-80500131D01*
X49427516Y-80500133D01*
X49633673Y-80596265D01*
X49633682Y-80596269D01*
X49853389Y-80655139D01*
X49853400Y-80655141D01*
X50079998Y-80674966D01*
X50080002Y-80674966D01*
X50306599Y-80655141D01*
X50306610Y-80655139D01*
X50526317Y-80596269D01*
X50526331Y-80596264D01*
X50732478Y-80500136D01*
X50735714Y-80497870D01*
X58787000Y-80497870D01*
X58787001Y-80497876D01*
X58793408Y-80557483D01*
X58843702Y-80692328D01*
X58843706Y-80692335D01*
X58929952Y-80807544D01*
X58929955Y-80807547D01*
X59045164Y-80893793D01*
X59045171Y-80893797D01*
X59180017Y-80944091D01*
X59180016Y-80944091D01*
X59186944Y-80944835D01*
X59239627Y-80950500D01*
X61240372Y-80950499D01*
X61299983Y-80944091D01*
X61434831Y-80893796D01*
X61550046Y-80807546D01*
X61636296Y-80692331D01*
X61636297Y-80692328D01*
X61636298Y-80692327D01*
X61642773Y-80674966D01*
X61647907Y-80661197D01*
X61689776Y-80605264D01*
X61755240Y-80580844D01*
X61823513Y-80595694D01*
X61840252Y-80606675D01*
X61982831Y-80717649D01*
X61982840Y-80717655D01*
X62194531Y-80832215D01*
X62194545Y-80832221D01*
X62422207Y-80910379D01*
X62529999Y-80928366D01*
X62529999Y-79941683D01*
X62558819Y-79959209D01*
X62704404Y-80000000D01*
X62817622Y-80000000D01*
X62929783Y-79984584D01*
X63030000Y-79941053D01*
X63030000Y-80928365D01*
X63137792Y-80910379D01*
X63365454Y-80832221D01*
X63365468Y-80832215D01*
X63577159Y-80717655D01*
X63577168Y-80717649D01*
X63767116Y-80569806D01*
X63767126Y-80569797D01*
X63930154Y-80392702D01*
X63930155Y-80392701D01*
X63945891Y-80368616D01*
X63999036Y-80323258D01*
X64068267Y-80313833D01*
X64131604Y-80343333D01*
X64153510Y-80368614D01*
X64169446Y-80393007D01*
X64181431Y-80406026D01*
X64332537Y-80570171D01*
X64479809Y-80684797D01*
X64522017Y-80717649D01*
X64522561Y-80718072D01*
X64641793Y-80782597D01*
X64733478Y-80832215D01*
X64734336Y-80832679D01*
X64852598Y-80873278D01*
X64962083Y-80910865D01*
X64962085Y-80910865D01*
X64962087Y-80910866D01*
X65199601Y-80950500D01*
X65199602Y-80950500D01*
X65440398Y-80950500D01*
X65440399Y-80950500D01*
X65677913Y-80910866D01*
X65905664Y-80832679D01*
X66117439Y-80718072D01*
X66307463Y-80570171D01*
X66470551Y-80393010D01*
X66602255Y-80191422D01*
X66698983Y-79970905D01*
X66758095Y-79737476D01*
X66773000Y-79557600D01*
X66773000Y-79370002D01*
X74175034Y-79370002D01*
X74194858Y-79596599D01*
X74194860Y-79596610D01*
X74253730Y-79816317D01*
X74253734Y-79816326D01*
X74349865Y-80022481D01*
X74349866Y-80022483D01*
X74400973Y-80095471D01*
X74400974Y-80095472D01*
X75082046Y-79414399D01*
X75094835Y-79495148D01*
X75152359Y-79608045D01*
X75241955Y-79697641D01*
X75354852Y-79755165D01*
X75435599Y-79767953D01*
X74754526Y-80449025D01*
X74754526Y-80449026D01*
X74827512Y-80500131D01*
X74827516Y-80500133D01*
X75033673Y-80596265D01*
X75033682Y-80596269D01*
X75253389Y-80655139D01*
X75253400Y-80655141D01*
X75479998Y-80674966D01*
X75480002Y-80674966D01*
X75706599Y-80655141D01*
X75706610Y-80655139D01*
X75926317Y-80596269D01*
X75926331Y-80596264D01*
X76132478Y-80500136D01*
X76205472Y-80449025D01*
X75524401Y-79767953D01*
X75605148Y-79755165D01*
X75718045Y-79697641D01*
X75807641Y-79608045D01*
X75865165Y-79495148D01*
X75877953Y-79414400D01*
X76559025Y-80095472D01*
X76610136Y-80022478D01*
X76706264Y-79816331D01*
X76706269Y-79816317D01*
X76765139Y-79596610D01*
X76765141Y-79596599D01*
X76777967Y-79450002D01*
X84335034Y-79450002D01*
X84354858Y-79676599D01*
X84354860Y-79676610D01*
X84413730Y-79896317D01*
X84413734Y-79896326D01*
X84509865Y-80102481D01*
X84509866Y-80102483D01*
X84560973Y-80175471D01*
X84560974Y-80175472D01*
X85242046Y-79494399D01*
X85254835Y-79575148D01*
X85312359Y-79688045D01*
X85401955Y-79777641D01*
X85514852Y-79835165D01*
X85595599Y-79847953D01*
X84914526Y-80529025D01*
X84914526Y-80529026D01*
X84987512Y-80580131D01*
X84987516Y-80580133D01*
X85193673Y-80676265D01*
X85193682Y-80676269D01*
X85413389Y-80735139D01*
X85413400Y-80735141D01*
X85639998Y-80754966D01*
X85640002Y-80754966D01*
X85866599Y-80735141D01*
X85866610Y-80735139D01*
X85923091Y-80720005D01*
X107104807Y-80720005D01*
X107124559Y-81033973D01*
X107124560Y-81033980D01*
X107183513Y-81343020D01*
X107280730Y-81642224D01*
X107280732Y-81642229D01*
X107414680Y-81926882D01*
X107414684Y-81926888D01*
X107583254Y-82192513D01*
X107583256Y-82192516D01*
X107674108Y-82302337D01*
X108642678Y-81333767D01*
X108691923Y-81413300D01*
X108834948Y-81570191D01*
X108993572Y-81689979D01*
X108024793Y-82658758D01*
X108024794Y-82658760D01*
X108267638Y-82835196D01*
X108267656Y-82835207D01*
X108543341Y-82986766D01*
X108543349Y-82986770D01*
X108835849Y-83102579D01*
X108835852Y-83102580D01*
X109140577Y-83180819D01*
X109452688Y-83220249D01*
X109452700Y-83220250D01*
X109767300Y-83220250D01*
X109767311Y-83220249D01*
X110079422Y-83180819D01*
X110384147Y-83102580D01*
X110384150Y-83102579D01*
X110676650Y-82986770D01*
X110676658Y-82986766D01*
X110952343Y-82835207D01*
X110952353Y-82835201D01*
X111195204Y-82658758D01*
X111195205Y-82658758D01*
X110226427Y-81689979D01*
X110385052Y-81570191D01*
X110528077Y-81413300D01*
X110577321Y-81333768D01*
X111545890Y-82302337D01*
X111636742Y-82192517D01*
X111636745Y-82192513D01*
X111805315Y-81926888D01*
X111805319Y-81926882D01*
X111939267Y-81642229D01*
X111939269Y-81642224D01*
X112036486Y-81343020D01*
X112095439Y-81033980D01*
X112095440Y-81033973D01*
X112111745Y-80774811D01*
X112132610Y-80717369D01*
X112116523Y-80692337D01*
X112111745Y-80665188D01*
X112095440Y-80406026D01*
X112095439Y-80406019D01*
X112036486Y-80096979D01*
X111939269Y-79797775D01*
X111939267Y-79797770D01*
X111805319Y-79513117D01*
X111805315Y-79513111D01*
X111636747Y-79247489D01*
X111545889Y-79137661D01*
X110577320Y-80106230D01*
X110528077Y-80026700D01*
X110385052Y-79869809D01*
X110226426Y-79750019D01*
X111195205Y-78781240D01*
X111195204Y-78781238D01*
X110952361Y-78604803D01*
X110952343Y-78604792D01*
X110676658Y-78453233D01*
X110676650Y-78453229D01*
X110384150Y-78337420D01*
X110384147Y-78337419D01*
X110079422Y-78259180D01*
X109767311Y-78219750D01*
X109452688Y-78219750D01*
X109140577Y-78259180D01*
X108835852Y-78337419D01*
X108835849Y-78337420D01*
X108543349Y-78453229D01*
X108543341Y-78453233D01*
X108267653Y-78604793D01*
X108267648Y-78604796D01*
X108024794Y-78781239D01*
X108024793Y-78781240D01*
X108993573Y-79750019D01*
X108834948Y-79869809D01*
X108691923Y-80026700D01*
X108642678Y-80106231D01*
X107674108Y-79137661D01*
X107583256Y-79247484D01*
X107583254Y-79247487D01*
X107414684Y-79513111D01*
X107414680Y-79513117D01*
X107280732Y-79797770D01*
X107280730Y-79797775D01*
X107183513Y-80096979D01*
X107124560Y-80406019D01*
X107124559Y-80406026D01*
X107104807Y-80719994D01*
X107104807Y-80720005D01*
X85923091Y-80720005D01*
X86086317Y-80676269D01*
X86086331Y-80676264D01*
X86292478Y-80580136D01*
X86365472Y-80529025D01*
X85684401Y-79847953D01*
X85765148Y-79835165D01*
X85878045Y-79777641D01*
X85967641Y-79688045D01*
X86025165Y-79575148D01*
X86037953Y-79494400D01*
X86719025Y-80175472D01*
X86770136Y-80102478D01*
X86866264Y-79896331D01*
X86866269Y-79896317D01*
X86925139Y-79676610D01*
X86925141Y-79676599D01*
X86944966Y-79450002D01*
X86944966Y-79449997D01*
X86925141Y-79223400D01*
X86925139Y-79223389D01*
X86866269Y-79003682D01*
X86866265Y-79003673D01*
X86770133Y-78797516D01*
X86770131Y-78797512D01*
X86719026Y-78724526D01*
X86719025Y-78724526D01*
X86037953Y-79405598D01*
X86025165Y-79324852D01*
X85967641Y-79211955D01*
X85878045Y-79122359D01*
X85765148Y-79064835D01*
X85684400Y-79052046D01*
X86365472Y-78370974D01*
X86365471Y-78370973D01*
X86292483Y-78319866D01*
X86292481Y-78319865D01*
X86086326Y-78223734D01*
X86086317Y-78223730D01*
X85866610Y-78164860D01*
X85866599Y-78164858D01*
X85640002Y-78145034D01*
X85639998Y-78145034D01*
X85413400Y-78164858D01*
X85413389Y-78164860D01*
X85193682Y-78223730D01*
X85193673Y-78223734D01*
X84987513Y-78319868D01*
X84914527Y-78370972D01*
X84914526Y-78370973D01*
X85595600Y-79052046D01*
X85514852Y-79064835D01*
X85401955Y-79122359D01*
X85312359Y-79211955D01*
X85254835Y-79324852D01*
X85242046Y-79405599D01*
X84560973Y-78724526D01*
X84560972Y-78724527D01*
X84509868Y-78797513D01*
X84413734Y-79003673D01*
X84413730Y-79003682D01*
X84354860Y-79223389D01*
X84354858Y-79223400D01*
X84335034Y-79449997D01*
X84335034Y-79450002D01*
X76777967Y-79450002D01*
X76784966Y-79370002D01*
X76784966Y-79369997D01*
X76765141Y-79143400D01*
X76765139Y-79143389D01*
X76706269Y-78923682D01*
X76706265Y-78923673D01*
X76610133Y-78717516D01*
X76610131Y-78717512D01*
X76559026Y-78644526D01*
X76559025Y-78644526D01*
X75877953Y-79325598D01*
X75865165Y-79244852D01*
X75807641Y-79131955D01*
X75718045Y-79042359D01*
X75605148Y-78984835D01*
X75524400Y-78972046D01*
X76205472Y-78290974D01*
X76205471Y-78290973D01*
X76132483Y-78239866D01*
X76132481Y-78239865D01*
X75926326Y-78143734D01*
X75926317Y-78143730D01*
X75706610Y-78084860D01*
X75706599Y-78084858D01*
X75480002Y-78065034D01*
X75479998Y-78065034D01*
X75253400Y-78084858D01*
X75253389Y-78084860D01*
X75033682Y-78143730D01*
X75033673Y-78143734D01*
X74827513Y-78239868D01*
X74754527Y-78290972D01*
X74754526Y-78290973D01*
X75435600Y-78972046D01*
X75354852Y-78984835D01*
X75241955Y-79042359D01*
X75152359Y-79131955D01*
X75094835Y-79244852D01*
X75082046Y-79325599D01*
X74400973Y-78644526D01*
X74400972Y-78644527D01*
X74349868Y-78717513D01*
X74253734Y-78923673D01*
X74253730Y-78923682D01*
X74194860Y-79143389D01*
X74194858Y-79143400D01*
X74175034Y-79369997D01*
X74175034Y-79370002D01*
X66773000Y-79370002D01*
X66773000Y-79342400D01*
X66758095Y-79162524D01*
X66698983Y-78929095D01*
X66602255Y-78708578D01*
X66470551Y-78506990D01*
X66307463Y-78329829D01*
X66150505Y-78207664D01*
X66117441Y-78181929D01*
X65905665Y-78067321D01*
X65905656Y-78067318D01*
X65677916Y-77989134D01*
X65478800Y-77955908D01*
X65440399Y-77949500D01*
X65199601Y-77949500D01*
X65161200Y-77955908D01*
X64962083Y-77989134D01*
X64734343Y-78067318D01*
X64734334Y-78067321D01*
X64522558Y-78181929D01*
X64448119Y-78239868D01*
X64332537Y-78329829D01*
X64332534Y-78329831D01*
X64332534Y-78329832D01*
X64169450Y-78506988D01*
X64169446Y-78506994D01*
X64153507Y-78531389D01*
X64100359Y-78576744D01*
X64031127Y-78586165D01*
X63967793Y-78556661D01*
X63945892Y-78531385D01*
X63930154Y-78507296D01*
X63767126Y-78330202D01*
X63767116Y-78330193D01*
X63577168Y-78182350D01*
X63577159Y-78182344D01*
X63365468Y-78067784D01*
X63365454Y-78067778D01*
X63137791Y-77989619D01*
X63030000Y-77971633D01*
X63030000Y-78958316D01*
X63001181Y-78940791D01*
X62855596Y-78900000D01*
X62742378Y-78900000D01*
X62630217Y-78915416D01*
X62529999Y-78958946D01*
X62529999Y-77971633D01*
X62529998Y-77971633D01*
X62422213Y-77989619D01*
X62194545Y-78067778D01*
X62194531Y-78067784D01*
X61982840Y-78182344D01*
X61982838Y-78182345D01*
X61840252Y-78293325D01*
X61775258Y-78318967D01*
X61706718Y-78305400D01*
X61656393Y-78256932D01*
X61647907Y-78238801D01*
X61636297Y-78207671D01*
X61636293Y-78207664D01*
X61550047Y-78092455D01*
X61550044Y-78092452D01*
X61434835Y-78006206D01*
X61434828Y-78006202D01*
X61299982Y-77955908D01*
X61299983Y-77955908D01*
X61240383Y-77949501D01*
X61240381Y-77949500D01*
X61240373Y-77949500D01*
X61240364Y-77949500D01*
X59239629Y-77949500D01*
X59239623Y-77949501D01*
X59180016Y-77955908D01*
X59045171Y-78006202D01*
X59045164Y-78006206D01*
X58929955Y-78092452D01*
X58929952Y-78092455D01*
X58843706Y-78207664D01*
X58843702Y-78207671D01*
X58793408Y-78342517D01*
X58787001Y-78402116D01*
X58787000Y-78402135D01*
X58787000Y-80497870D01*
X50735714Y-80497870D01*
X50805472Y-80449025D01*
X50124401Y-79767953D01*
X50205148Y-79755165D01*
X50318045Y-79697641D01*
X50407641Y-79608045D01*
X50465165Y-79495148D01*
X50477953Y-79414400D01*
X51159025Y-80095472D01*
X51210136Y-80022478D01*
X51306264Y-79816331D01*
X51306269Y-79816317D01*
X51365139Y-79596610D01*
X51365141Y-79596599D01*
X51384966Y-79370002D01*
X51384966Y-79369997D01*
X51365141Y-79143400D01*
X51365139Y-79143389D01*
X51306269Y-78923682D01*
X51306265Y-78923673D01*
X51210133Y-78717516D01*
X51210131Y-78717512D01*
X51159026Y-78644526D01*
X51159025Y-78644526D01*
X50477953Y-79325598D01*
X50465165Y-79244852D01*
X50407641Y-79131955D01*
X50318045Y-79042359D01*
X50205148Y-78984835D01*
X50124400Y-78972046D01*
X50805472Y-78290974D01*
X50805471Y-78290973D01*
X50732483Y-78239866D01*
X50732481Y-78239865D01*
X50526326Y-78143734D01*
X50526317Y-78143730D01*
X50306610Y-78084860D01*
X50306599Y-78084858D01*
X50080002Y-78065034D01*
X50079998Y-78065034D01*
X49853400Y-78084858D01*
X49853389Y-78084860D01*
X49633682Y-78143730D01*
X49633673Y-78143734D01*
X49427513Y-78239868D01*
X49354527Y-78290972D01*
X49354526Y-78290973D01*
X50035600Y-78972046D01*
X49954852Y-78984835D01*
X49841955Y-79042359D01*
X49752359Y-79131955D01*
X49694835Y-79244852D01*
X49682046Y-79325599D01*
X49000973Y-78644526D01*
X49000972Y-78644527D01*
X48949868Y-78717513D01*
X48853734Y-78923673D01*
X48853730Y-78923682D01*
X48794860Y-79143389D01*
X48794858Y-79143400D01*
X48775034Y-79369997D01*
X48775034Y-79370002D01*
X41217967Y-79370002D01*
X41205141Y-79223400D01*
X41205139Y-79223389D01*
X41146269Y-79003682D01*
X41146265Y-79003673D01*
X41050133Y-78797516D01*
X41050131Y-78797512D01*
X40999026Y-78724526D01*
X40999025Y-78724526D01*
X40317953Y-79405598D01*
X40305165Y-79324852D01*
X40247641Y-79211955D01*
X40158045Y-79122359D01*
X40045148Y-79064835D01*
X39964400Y-79052046D01*
X40645472Y-78370974D01*
X40645471Y-78370973D01*
X40572483Y-78319866D01*
X40572481Y-78319865D01*
X40366326Y-78223734D01*
X40366317Y-78223730D01*
X40146610Y-78164860D01*
X40146599Y-78164858D01*
X39920002Y-78145034D01*
X39919998Y-78145034D01*
X39693400Y-78164858D01*
X39693389Y-78164860D01*
X39473682Y-78223730D01*
X39473673Y-78223734D01*
X39267513Y-78319868D01*
X39194527Y-78370972D01*
X39194526Y-78370973D01*
X39875600Y-79052046D01*
X39794852Y-79064835D01*
X39681955Y-79122359D01*
X39592359Y-79211955D01*
X39534835Y-79324852D01*
X39522046Y-79405599D01*
X38840973Y-78724526D01*
X38840972Y-78724527D01*
X38789868Y-78797513D01*
X38693734Y-79003673D01*
X38693730Y-79003682D01*
X38634860Y-79223389D01*
X38634858Y-79223400D01*
X38615034Y-79449997D01*
X38615034Y-79450002D01*
X28265265Y-79450002D01*
X28136747Y-79247489D01*
X28045889Y-79137661D01*
X27077320Y-80106230D01*
X27028077Y-80026700D01*
X26885052Y-79869809D01*
X26726426Y-79750019D01*
X27695205Y-78781240D01*
X27695204Y-78781238D01*
X27452361Y-78604803D01*
X27452343Y-78604792D01*
X27176658Y-78453233D01*
X27176650Y-78453229D01*
X26884150Y-78337420D01*
X26884147Y-78337419D01*
X26579422Y-78259180D01*
X26267311Y-78219750D01*
X25952688Y-78219750D01*
X25640577Y-78259180D01*
X25335852Y-78337419D01*
X25335849Y-78337420D01*
X25043349Y-78453229D01*
X25043341Y-78453233D01*
X24767653Y-78604793D01*
X24767648Y-78604796D01*
X24524794Y-78781239D01*
X24524793Y-78781240D01*
X25493573Y-79750019D01*
X25334948Y-79869809D01*
X25191923Y-80026700D01*
X25142678Y-80106231D01*
X24174108Y-79137661D01*
X24083256Y-79247484D01*
X24083254Y-79247487D01*
X23914684Y-79513111D01*
X23914680Y-79513117D01*
X23780732Y-79797770D01*
X23780730Y-79797775D01*
X23683513Y-80096979D01*
X23624560Y-80406019D01*
X23624559Y-80406026D01*
X23608255Y-80665188D01*
X23587389Y-80722629D01*
X23378109Y-80722629D01*
X23380185Y-80715558D01*
X23380535Y-80715254D01*
X23363564Y-80684797D01*
X23360500Y-80657402D01*
X23360500Y-76497870D01*
X38619500Y-76497870D01*
X38619501Y-76497876D01*
X38625908Y-76557483D01*
X38676202Y-76692328D01*
X38676206Y-76692335D01*
X38762452Y-76807544D01*
X38762455Y-76807547D01*
X38877664Y-76893793D01*
X38877671Y-76893797D01*
X39012517Y-76944091D01*
X39012516Y-76944091D01*
X39019444Y-76944835D01*
X39072127Y-76950500D01*
X40767872Y-76950499D01*
X40827483Y-76944091D01*
X40962331Y-76893796D01*
X41077546Y-76807546D01*
X41163796Y-76692331D01*
X41214091Y-76557483D01*
X41220500Y-76497873D01*
X41220500Y-76497870D01*
X84339500Y-76497870D01*
X84339501Y-76497876D01*
X84345908Y-76557483D01*
X84396202Y-76692328D01*
X84396206Y-76692335D01*
X84482452Y-76807544D01*
X84482455Y-76807547D01*
X84597664Y-76893793D01*
X84597671Y-76893797D01*
X84732517Y-76944091D01*
X84732516Y-76944091D01*
X84739444Y-76944835D01*
X84792127Y-76950500D01*
X86487872Y-76950499D01*
X86547483Y-76944091D01*
X86682331Y-76893796D01*
X86797546Y-76807546D01*
X86883796Y-76692331D01*
X86934091Y-76557483D01*
X86940500Y-76497873D01*
X86940499Y-74802128D01*
X86934091Y-74742517D01*
X86910678Y-74679744D01*
X86883797Y-74607671D01*
X86883793Y-74607664D01*
X86797547Y-74492455D01*
X86797544Y-74492452D01*
X86682335Y-74406206D01*
X86682328Y-74406202D01*
X86547482Y-74355908D01*
X86547483Y-74355908D01*
X86487883Y-74349501D01*
X86487881Y-74349500D01*
X86487873Y-74349500D01*
X86487864Y-74349500D01*
X84792129Y-74349500D01*
X84792123Y-74349501D01*
X84732516Y-74355908D01*
X84597671Y-74406202D01*
X84597664Y-74406206D01*
X84482455Y-74492452D01*
X84482452Y-74492455D01*
X84396206Y-74607664D01*
X84396202Y-74607671D01*
X84345908Y-74742517D01*
X84339501Y-74802116D01*
X84339501Y-74802123D01*
X84339500Y-74802135D01*
X84339500Y-76497870D01*
X41220500Y-76497870D01*
X41220499Y-74802128D01*
X41214091Y-74742517D01*
X41190678Y-74679744D01*
X41163797Y-74607671D01*
X41163793Y-74607664D01*
X41077547Y-74492455D01*
X41077544Y-74492452D01*
X40962335Y-74406206D01*
X40962328Y-74406202D01*
X40865268Y-74370001D01*
X48774532Y-74370001D01*
X48794364Y-74596686D01*
X48794366Y-74596697D01*
X48853258Y-74816488D01*
X48853261Y-74816497D01*
X48949431Y-75022732D01*
X48949432Y-75022734D01*
X49079954Y-75209141D01*
X49240858Y-75370045D01*
X49240861Y-75370047D01*
X49427266Y-75500568D01*
X49633504Y-75596739D01*
X49853308Y-75655635D01*
X50015230Y-75669801D01*
X50079998Y-75675468D01*
X50080000Y-75675468D01*
X50080002Y-75675468D01*
X50136672Y-75670509D01*
X50306692Y-75655635D01*
X50526496Y-75596739D01*
X50732734Y-75500568D01*
X50919139Y-75370047D01*
X51080047Y-75209139D01*
X51210568Y-75022734D01*
X51306739Y-74816496D01*
X51365635Y-74596692D01*
X51385468Y-74370001D01*
X74174532Y-74370001D01*
X74194364Y-74596686D01*
X74194366Y-74596697D01*
X74253258Y-74816488D01*
X74253261Y-74816497D01*
X74349431Y-75022732D01*
X74349432Y-75022734D01*
X74479954Y-75209141D01*
X74640858Y-75370045D01*
X74640861Y-75370047D01*
X74827266Y-75500568D01*
X75033504Y-75596739D01*
X75253308Y-75655635D01*
X75415230Y-75669801D01*
X75479998Y-75675468D01*
X75480000Y-75675468D01*
X75480002Y-75675468D01*
X75536673Y-75670509D01*
X75706692Y-75655635D01*
X75926496Y-75596739D01*
X76132734Y-75500568D01*
X76319139Y-75370047D01*
X76480047Y-75209139D01*
X76610568Y-75022734D01*
X76706739Y-74816496D01*
X76765635Y-74596692D01*
X76785468Y-74370000D01*
X76783674Y-74349500D01*
X76765635Y-74143313D01*
X76765635Y-74143308D01*
X76706739Y-73923504D01*
X76610568Y-73717266D01*
X76480047Y-73530861D01*
X76480045Y-73530858D01*
X76319141Y-73369954D01*
X76132734Y-73239432D01*
X76132732Y-73239431D01*
X75926497Y-73143261D01*
X75926488Y-73143258D01*
X75706697Y-73084366D01*
X75706693Y-73084365D01*
X75706692Y-73084365D01*
X75706691Y-73084364D01*
X75706686Y-73084364D01*
X75480002Y-73064532D01*
X75479998Y-73064532D01*
X75253313Y-73084364D01*
X75253302Y-73084366D01*
X75033511Y-73143258D01*
X75033502Y-73143261D01*
X74827267Y-73239431D01*
X74827265Y-73239432D01*
X74640858Y-73369954D01*
X74479954Y-73530858D01*
X74349432Y-73717265D01*
X74349431Y-73717267D01*
X74253261Y-73923502D01*
X74253258Y-73923511D01*
X74194366Y-74143302D01*
X74194364Y-74143313D01*
X74174532Y-74369998D01*
X74174532Y-74370001D01*
X51385468Y-74370001D01*
X51385468Y-74370000D01*
X51383674Y-74349500D01*
X51365635Y-74143313D01*
X51365635Y-74143308D01*
X51306739Y-73923504D01*
X51210568Y-73717266D01*
X51080047Y-73530861D01*
X51080045Y-73530858D01*
X50919141Y-73369954D01*
X50732734Y-73239432D01*
X50732732Y-73239431D01*
X50526497Y-73143261D01*
X50526488Y-73143258D01*
X50306697Y-73084366D01*
X50306693Y-73084365D01*
X50306692Y-73084365D01*
X50306691Y-73084364D01*
X50306686Y-73084364D01*
X50080002Y-73064532D01*
X50079998Y-73064532D01*
X49853313Y-73084364D01*
X49853302Y-73084366D01*
X49633511Y-73143258D01*
X49633502Y-73143261D01*
X49427267Y-73239431D01*
X49427265Y-73239432D01*
X49240858Y-73369954D01*
X49079954Y-73530858D01*
X48949432Y-73717265D01*
X48949431Y-73717267D01*
X48853261Y-73923502D01*
X48853258Y-73923511D01*
X48794366Y-74143302D01*
X48794364Y-74143313D01*
X48774532Y-74369998D01*
X48774532Y-74370001D01*
X40865268Y-74370001D01*
X40827482Y-74355908D01*
X40827483Y-74355908D01*
X40767883Y-74349501D01*
X40767881Y-74349500D01*
X40767873Y-74349500D01*
X40767864Y-74349500D01*
X39072129Y-74349500D01*
X39072123Y-74349501D01*
X39012516Y-74355908D01*
X38877671Y-74406202D01*
X38877664Y-74406206D01*
X38762455Y-74492452D01*
X38762452Y-74492455D01*
X38676206Y-74607664D01*
X38676202Y-74607671D01*
X38625908Y-74742517D01*
X38619501Y-74802116D01*
X38619501Y-74802123D01*
X38619500Y-74802135D01*
X38619500Y-76497870D01*
X23360500Y-76497870D01*
X23360500Y-73784334D01*
X27979500Y-73784334D01*
X28020429Y-74029616D01*
X28101169Y-74264802D01*
X28101172Y-74264811D01*
X28219524Y-74483506D01*
X28219526Y-74483509D01*
X28372262Y-74679744D01*
X28531744Y-74826557D01*
X28555217Y-74848166D01*
X28763393Y-74984173D01*
X28991118Y-75084063D01*
X29232175Y-75145107D01*
X29232179Y-75145108D01*
X29232181Y-75145108D01*
X29232186Y-75145109D01*
X29365376Y-75156145D01*
X29417933Y-75160500D01*
X29417935Y-75160500D01*
X31542065Y-75160500D01*
X31542067Y-75160500D01*
X31603284Y-75155427D01*
X31727813Y-75145109D01*
X31727816Y-75145108D01*
X31727821Y-75145108D01*
X31968881Y-75084063D01*
X32196607Y-74984173D01*
X32404785Y-74848164D01*
X32587738Y-74679744D01*
X32740474Y-74483509D01*
X32858828Y-74264810D01*
X32939571Y-74029614D01*
X32980500Y-73784335D01*
X32980500Y-73535665D01*
X32939571Y-73290386D01*
X32858828Y-73055190D01*
X32740474Y-72836491D01*
X32587738Y-72640256D01*
X32434128Y-72498848D01*
X32404782Y-72471833D01*
X32196606Y-72335826D01*
X31968881Y-72235936D01*
X31727824Y-72174892D01*
X31727813Y-72174890D01*
X31562548Y-72161197D01*
X31542067Y-72159500D01*
X29417933Y-72159500D01*
X29398521Y-72161108D01*
X29232186Y-72174890D01*
X29232175Y-72174892D01*
X28991118Y-72235936D01*
X28763393Y-72335826D01*
X28555217Y-72471833D01*
X28372261Y-72640257D01*
X28219524Y-72836493D01*
X28101172Y-73055188D01*
X28101169Y-73055197D01*
X28020429Y-73290383D01*
X27979500Y-73535665D01*
X27979500Y-73784334D01*
X23360500Y-73784334D01*
X23360500Y-71830001D01*
X90684532Y-71830001D01*
X90704364Y-72056686D01*
X90704366Y-72056697D01*
X90763258Y-72276488D01*
X90763261Y-72276497D01*
X90859431Y-72482732D01*
X90859432Y-72482734D01*
X90989954Y-72669141D01*
X91150858Y-72830045D01*
X91150861Y-72830047D01*
X91337266Y-72960568D01*
X91543504Y-73056739D01*
X91763308Y-73115635D01*
X91925230Y-73129801D01*
X91989998Y-73135468D01*
X91990000Y-73135468D01*
X91990002Y-73135468D01*
X92046672Y-73130509D01*
X92216692Y-73115635D01*
X92436496Y-73056739D01*
X92642734Y-72960568D01*
X92829139Y-72830047D01*
X92990047Y-72669139D01*
X93120568Y-72482734D01*
X93216739Y-72276496D01*
X93275635Y-72056692D01*
X93292634Y-71862384D01*
X93295468Y-71830001D01*
X98304532Y-71830001D01*
X98324364Y-72056686D01*
X98324366Y-72056697D01*
X98383258Y-72276488D01*
X98383261Y-72276497D01*
X98479431Y-72482732D01*
X98479432Y-72482734D01*
X98609954Y-72669141D01*
X98770858Y-72830045D01*
X98770861Y-72830047D01*
X98957266Y-72960568D01*
X99163504Y-73056739D01*
X99383308Y-73115635D01*
X99545230Y-73129801D01*
X99609998Y-73135468D01*
X99610000Y-73135468D01*
X99610002Y-73135468D01*
X99666673Y-73130509D01*
X99836692Y-73115635D01*
X100056496Y-73056739D01*
X100262734Y-72960568D01*
X100449139Y-72830047D01*
X100610047Y-72669139D01*
X100740568Y-72482734D01*
X100836739Y-72276496D01*
X100895635Y-72056692D01*
X100912634Y-71862384D01*
X100915468Y-71830006D01*
X104554700Y-71830006D01*
X104573864Y-72061297D01*
X104573866Y-72061308D01*
X104630842Y-72286300D01*
X104724075Y-72498848D01*
X104851016Y-72693147D01*
X104851019Y-72693151D01*
X104851021Y-72693153D01*
X105008216Y-72863913D01*
X105008219Y-72863915D01*
X105008222Y-72863918D01*
X105191365Y-73006464D01*
X105191371Y-73006468D01*
X105191374Y-73006470D01*
X105395497Y-73116936D01*
X105472179Y-73143261D01*
X105615015Y-73192297D01*
X105615017Y-73192297D01*
X105615019Y-73192298D01*
X105843951Y-73230500D01*
X105843952Y-73230500D01*
X106076048Y-73230500D01*
X106076049Y-73230500D01*
X106304981Y-73192298D01*
X106524503Y-73116936D01*
X106728626Y-73006470D01*
X106911784Y-72863913D01*
X106920511Y-72854432D01*
X106980394Y-72818441D01*
X107050232Y-72820538D01*
X107107850Y-72860060D01*
X107127924Y-72895080D01*
X107156645Y-72972086D01*
X107156649Y-72972093D01*
X107242809Y-73087187D01*
X107242812Y-73087190D01*
X107357906Y-73173350D01*
X107357913Y-73173354D01*
X107492620Y-73223596D01*
X107492627Y-73223598D01*
X107552155Y-73229999D01*
X107552172Y-73230000D01*
X108250000Y-73230000D01*
X108250000Y-72204189D01*
X108302547Y-72240016D01*
X108432173Y-72280000D01*
X108533724Y-72280000D01*
X108634138Y-72264865D01*
X108750000Y-72209068D01*
X108750000Y-73230000D01*
X109447828Y-73230000D01*
X109447844Y-73229999D01*
X109507372Y-73223598D01*
X109507379Y-73223596D01*
X109642086Y-73173354D01*
X109642093Y-73173350D01*
X109757187Y-73087190D01*
X109757190Y-73087187D01*
X109843350Y-72972093D01*
X109843354Y-72972086D01*
X109893596Y-72837379D01*
X109893598Y-72837372D01*
X109899999Y-72777844D01*
X109900000Y-72777827D01*
X109900000Y-72080000D01*
X108875278Y-72080000D01*
X108923625Y-71996260D01*
X108953810Y-71864008D01*
X108943673Y-71728735D01*
X108894113Y-71602459D01*
X108876203Y-71580000D01*
X109899999Y-71580000D01*
X109900000Y-70882172D01*
X109899999Y-70882155D01*
X109893598Y-70822627D01*
X109893596Y-70822620D01*
X109843354Y-70687913D01*
X109843350Y-70687906D01*
X109757190Y-70572812D01*
X109757187Y-70572809D01*
X109642093Y-70486649D01*
X109642086Y-70486645D01*
X109507379Y-70436403D01*
X109507372Y-70436401D01*
X109447844Y-70430000D01*
X108750000Y-70430000D01*
X108750000Y-71455810D01*
X108697453Y-71419984D01*
X108567827Y-71380000D01*
X108466276Y-71380000D01*
X108365862Y-71395135D01*
X108250000Y-71450931D01*
X108250000Y-70430000D01*
X107552155Y-70430000D01*
X107492627Y-70436401D01*
X107492620Y-70436403D01*
X107357913Y-70486645D01*
X107357906Y-70486649D01*
X107242812Y-70572809D01*
X107242809Y-70572812D01*
X107156649Y-70687906D01*
X107156646Y-70687911D01*
X107127924Y-70764920D01*
X107086052Y-70820853D01*
X107020588Y-70845270D01*
X106952315Y-70830418D01*
X106920514Y-70805571D01*
X106911784Y-70796087D01*
X106911779Y-70796083D01*
X106911777Y-70796081D01*
X106728634Y-70653535D01*
X106728628Y-70653531D01*
X106524504Y-70543064D01*
X106524495Y-70543061D01*
X106304984Y-70467702D01*
X106117404Y-70436401D01*
X106076049Y-70429500D01*
X105843951Y-70429500D01*
X105802596Y-70436401D01*
X105615015Y-70467702D01*
X105395504Y-70543061D01*
X105395495Y-70543064D01*
X105191371Y-70653531D01*
X105191365Y-70653535D01*
X105008222Y-70796081D01*
X105008219Y-70796084D01*
X105008216Y-70796086D01*
X105008216Y-70796087D01*
X104983791Y-70822620D01*
X104851016Y-70966852D01*
X104724075Y-71161151D01*
X104630842Y-71373699D01*
X104573866Y-71598691D01*
X104573864Y-71598702D01*
X104554700Y-71829993D01*
X104554700Y-71830006D01*
X100915468Y-71830006D01*
X100915468Y-71830001D01*
X100915468Y-71829998D01*
X100895635Y-71603313D01*
X100895635Y-71603308D01*
X100836739Y-71383504D01*
X100740568Y-71177266D01*
X100610047Y-70990861D01*
X100610045Y-70990858D01*
X100449141Y-70829954D01*
X100262734Y-70699432D01*
X100262732Y-70699431D01*
X100056497Y-70603261D01*
X100056488Y-70603258D01*
X99836697Y-70544366D01*
X99836693Y-70544365D01*
X99836692Y-70544365D01*
X99836691Y-70544364D01*
X99836686Y-70544364D01*
X99610002Y-70524532D01*
X99609998Y-70524532D01*
X99383313Y-70544364D01*
X99383302Y-70544366D01*
X99163511Y-70603258D01*
X99163502Y-70603261D01*
X98957267Y-70699431D01*
X98957265Y-70699432D01*
X98770858Y-70829954D01*
X98609954Y-70990858D01*
X98479432Y-71177265D01*
X98479431Y-71177267D01*
X98383261Y-71383502D01*
X98383258Y-71383511D01*
X98324366Y-71603302D01*
X98324364Y-71603313D01*
X98304532Y-71829998D01*
X98304532Y-71830001D01*
X93295468Y-71830001D01*
X93295468Y-71829998D01*
X93275635Y-71603313D01*
X93275635Y-71603308D01*
X93216739Y-71383504D01*
X93120568Y-71177266D01*
X92990047Y-70990861D01*
X92990045Y-70990858D01*
X92829141Y-70829954D01*
X92642734Y-70699432D01*
X92642732Y-70699431D01*
X92436497Y-70603261D01*
X92436488Y-70603258D01*
X92216697Y-70544366D01*
X92216693Y-70544365D01*
X92216692Y-70544365D01*
X92216691Y-70544364D01*
X92216686Y-70544364D01*
X91990002Y-70524532D01*
X91989998Y-70524532D01*
X91763313Y-70544364D01*
X91763302Y-70544366D01*
X91543511Y-70603258D01*
X91543502Y-70603261D01*
X91337267Y-70699431D01*
X91337265Y-70699432D01*
X91150858Y-70829954D01*
X90989954Y-70990858D01*
X90859432Y-71177265D01*
X90859431Y-71177267D01*
X90763261Y-71383502D01*
X90763258Y-71383511D01*
X90704366Y-71603302D01*
X90704364Y-71603313D01*
X90684532Y-71829998D01*
X90684532Y-71830001D01*
X23360500Y-71830001D01*
X23360500Y-70022041D01*
X25980000Y-70022041D01*
X25995385Y-70207730D01*
X25995387Y-70207738D01*
X26056412Y-70448717D01*
X26156267Y-70676367D01*
X26292232Y-70884478D01*
X26460592Y-71067364D01*
X26460602Y-71067373D01*
X26656762Y-71220051D01*
X26656771Y-71220057D01*
X26875385Y-71338364D01*
X26875396Y-71338369D01*
X27110507Y-71419083D01*
X27229999Y-71439023D01*
X27229999Y-71439022D01*
X27229999Y-70393686D01*
X27270156Y-70419493D01*
X27408111Y-70460000D01*
X27551889Y-70460000D01*
X27689844Y-70419493D01*
X27730000Y-70393686D01*
X27730000Y-71439023D01*
X27849492Y-71419083D01*
X28084603Y-71338369D01*
X28084614Y-71338364D01*
X28233355Y-71257870D01*
X32179500Y-71257870D01*
X32179501Y-71257876D01*
X32185908Y-71317483D01*
X32236202Y-71452328D01*
X32236206Y-71452335D01*
X32322452Y-71567544D01*
X32322455Y-71567547D01*
X32437664Y-71653793D01*
X32437671Y-71653797D01*
X32572517Y-71704091D01*
X32572516Y-71704091D01*
X32579444Y-71704835D01*
X32632127Y-71710500D01*
X34727872Y-71710499D01*
X34787483Y-71704091D01*
X34922331Y-71653796D01*
X35037546Y-71567546D01*
X35123796Y-71452331D01*
X35174091Y-71317483D01*
X35180500Y-71257873D01*
X35180499Y-67897870D01*
X38319500Y-67897870D01*
X38319501Y-67897876D01*
X38325908Y-67957483D01*
X38376202Y-68092328D01*
X38376206Y-68092335D01*
X38462452Y-68207544D01*
X38462455Y-68207547D01*
X38577664Y-68293793D01*
X38577671Y-68293797D01*
X38712517Y-68344091D01*
X38712516Y-68344091D01*
X38719444Y-68344835D01*
X38772127Y-68350500D01*
X41067872Y-68350499D01*
X41127483Y-68344091D01*
X41262331Y-68293796D01*
X41377546Y-68207546D01*
X41463796Y-68092331D01*
X41514091Y-67957483D01*
X41520500Y-67897873D01*
X41520499Y-65602128D01*
X41514666Y-65547865D01*
X41514091Y-65542516D01*
X41463797Y-65407671D01*
X41463793Y-65407664D01*
X41377547Y-65292455D01*
X41377544Y-65292452D01*
X41262335Y-65206206D01*
X41262328Y-65206202D01*
X41127482Y-65155908D01*
X41127483Y-65155908D01*
X41067883Y-65149501D01*
X41067881Y-65149500D01*
X41067873Y-65149500D01*
X41067864Y-65149500D01*
X38772129Y-65149500D01*
X38772123Y-65149501D01*
X38712516Y-65155908D01*
X38577671Y-65206202D01*
X38577664Y-65206206D01*
X38462455Y-65292452D01*
X38462452Y-65292455D01*
X38376206Y-65407664D01*
X38376202Y-65407671D01*
X38325908Y-65542517D01*
X38320518Y-65592657D01*
X38319501Y-65602123D01*
X38319500Y-65602135D01*
X38319500Y-67897870D01*
X35180499Y-67897870D01*
X35180499Y-66662128D01*
X35174091Y-66602517D01*
X35136196Y-66500916D01*
X35123797Y-66467671D01*
X35123793Y-66467664D01*
X35037547Y-66352455D01*
X35037544Y-66352452D01*
X34922335Y-66266206D01*
X34922328Y-66266202D01*
X34787482Y-66215908D01*
X34787483Y-66215908D01*
X34727883Y-66209501D01*
X34727881Y-66209500D01*
X34727873Y-66209500D01*
X34727864Y-66209500D01*
X32632129Y-66209500D01*
X32632123Y-66209501D01*
X32572516Y-66215908D01*
X32437671Y-66266202D01*
X32437664Y-66266206D01*
X32322455Y-66352452D01*
X32322452Y-66352455D01*
X32236206Y-66467664D01*
X32236202Y-66467671D01*
X32185908Y-66602517D01*
X32179501Y-66662116D01*
X32179501Y-66662123D01*
X32179500Y-66662135D01*
X32179500Y-71257870D01*
X28233355Y-71257870D01*
X28303228Y-71220057D01*
X28303237Y-71220051D01*
X28499397Y-71067373D01*
X28499407Y-71067364D01*
X28667767Y-70884478D01*
X28803732Y-70676367D01*
X28903587Y-70448717D01*
X28964612Y-70207738D01*
X28964614Y-70207730D01*
X28980000Y-70022041D01*
X28980000Y-69210000D01*
X27980000Y-69210000D01*
X27980000Y-68710000D01*
X28980000Y-68710000D01*
X28980000Y-67897959D01*
X28964614Y-67712269D01*
X28964612Y-67712261D01*
X28903587Y-67471282D01*
X28803732Y-67243632D01*
X28667767Y-67035521D01*
X28499407Y-66852635D01*
X28499397Y-66852626D01*
X28303237Y-66699948D01*
X28303228Y-66699942D01*
X28084614Y-66581635D01*
X28084603Y-66581630D01*
X27849492Y-66500916D01*
X27730000Y-66480976D01*
X27730000Y-67526313D01*
X27689844Y-67500507D01*
X27551889Y-67460000D01*
X27408111Y-67460000D01*
X27270156Y-67500507D01*
X27229999Y-67526313D01*
X27230000Y-66480976D01*
X27229999Y-66480976D01*
X27110507Y-66500916D01*
X26875396Y-66581630D01*
X26875385Y-66581635D01*
X26656771Y-66699942D01*
X26656762Y-66699948D01*
X26460602Y-66852626D01*
X26460592Y-66852635D01*
X26292232Y-67035521D01*
X26156267Y-67243632D01*
X26056412Y-67471282D01*
X25995387Y-67712261D01*
X25995385Y-67712269D01*
X25980000Y-67897959D01*
X25980000Y-68710000D01*
X26980000Y-68710000D01*
X26980000Y-69210000D01*
X25980000Y-69210000D01*
X25980000Y-70022041D01*
X23360500Y-70022041D01*
X23360500Y-64210001D01*
X48774532Y-64210001D01*
X48794364Y-64436686D01*
X48794366Y-64436697D01*
X48853258Y-64656488D01*
X48853261Y-64656497D01*
X48949431Y-64862732D01*
X48949432Y-64862734D01*
X49079954Y-65049141D01*
X49240858Y-65210045D01*
X49240861Y-65210047D01*
X49427266Y-65340568D01*
X49485865Y-65367893D01*
X49538305Y-65414065D01*
X49557457Y-65481258D01*
X49537242Y-65548139D01*
X49485867Y-65592657D01*
X49427515Y-65619867D01*
X49241179Y-65750342D01*
X49080342Y-65911179D01*
X48949865Y-66097517D01*
X48853734Y-66303673D01*
X48853730Y-66303682D01*
X48801127Y-66499999D01*
X48801128Y-66500000D01*
X49764314Y-66500000D01*
X49752359Y-66511955D01*
X49694835Y-66624852D01*
X49675014Y-66750000D01*
X49694835Y-66875148D01*
X49752359Y-66988045D01*
X49764314Y-67000000D01*
X48801128Y-67000000D01*
X48853730Y-67196317D01*
X48853734Y-67196326D01*
X48949865Y-67402482D01*
X49080342Y-67588820D01*
X49241179Y-67749657D01*
X49427517Y-67880134D01*
X49633673Y-67976265D01*
X49633682Y-67976269D01*
X49829999Y-68028872D01*
X49830000Y-68028871D01*
X49830000Y-67065686D01*
X49841955Y-67077641D01*
X49954852Y-67135165D01*
X50048519Y-67150000D01*
X50111481Y-67150000D01*
X50205148Y-67135165D01*
X50318045Y-67077641D01*
X50330000Y-67065685D01*
X50330000Y-68028872D01*
X50526317Y-67976269D01*
X50526326Y-67976265D01*
X50732482Y-67880134D01*
X50918820Y-67749657D01*
X51079657Y-67588820D01*
X51210134Y-67402482D01*
X51306265Y-67196326D01*
X51306269Y-67196317D01*
X51358872Y-67000000D01*
X50395686Y-67000000D01*
X50407641Y-66988045D01*
X50465165Y-66875148D01*
X50484986Y-66750000D01*
X50465165Y-66624852D01*
X50407641Y-66511955D01*
X50395686Y-66500000D01*
X51358872Y-66500000D01*
X51358872Y-66499999D01*
X51306269Y-66303682D01*
X51306265Y-66303673D01*
X51210134Y-66097517D01*
X51079657Y-65911179D01*
X50918820Y-65750342D01*
X50732482Y-65619865D01*
X50674133Y-65592657D01*
X50621694Y-65546484D01*
X50602542Y-65479291D01*
X50622758Y-65412410D01*
X50674129Y-65367895D01*
X50732734Y-65340568D01*
X50919139Y-65210047D01*
X51080047Y-65049139D01*
X51210568Y-64862734D01*
X51306739Y-64656496D01*
X51365635Y-64436692D01*
X51382634Y-64242384D01*
X51385468Y-64210001D01*
X51385468Y-64209998D01*
X51365635Y-63983313D01*
X51365635Y-63983308D01*
X51306739Y-63763504D01*
X51210568Y-63557266D01*
X51080047Y-63370861D01*
X51080045Y-63370858D01*
X50919141Y-63209954D01*
X50732734Y-63079432D01*
X50732728Y-63079429D01*
X50674725Y-63052382D01*
X50622285Y-63006210D01*
X50603133Y-62939017D01*
X50623348Y-62872135D01*
X50674725Y-62827618D01*
X50732734Y-62800568D01*
X50919139Y-62670047D01*
X51080047Y-62509139D01*
X51210568Y-62322734D01*
X51306739Y-62116496D01*
X51365635Y-61896692D01*
X51385468Y-61670000D01*
X51365635Y-61443308D01*
X51306739Y-61223504D01*
X51210568Y-61017266D01*
X51080047Y-60830861D01*
X51080045Y-60830858D01*
X50919141Y-60669954D01*
X50732734Y-60539432D01*
X50732728Y-60539429D01*
X50674725Y-60512382D01*
X50622285Y-60466210D01*
X50603133Y-60399017D01*
X50623348Y-60332135D01*
X50674725Y-60287618D01*
X50732734Y-60260568D01*
X50919139Y-60130047D01*
X51080047Y-59969139D01*
X51210568Y-59782734D01*
X51306739Y-59576496D01*
X51365635Y-59356692D01*
X51385468Y-59130000D01*
X51365635Y-58903308D01*
X51306739Y-58683504D01*
X51210568Y-58477266D01*
X51080047Y-58290861D01*
X51080045Y-58290858D01*
X50919141Y-58129954D01*
X50732734Y-57999432D01*
X50732728Y-57999429D01*
X50675015Y-57972517D01*
X50674724Y-57972381D01*
X50622285Y-57926210D01*
X50603133Y-57859017D01*
X50623348Y-57792135D01*
X50674725Y-57747618D01*
X50732734Y-57720568D01*
X50919139Y-57590047D01*
X51080047Y-57429139D01*
X51210568Y-57242734D01*
X51306739Y-57036496D01*
X51365635Y-56816692D01*
X51381911Y-56630649D01*
X51407363Y-56565582D01*
X51463954Y-56524603D01*
X51533716Y-56520725D01*
X51593120Y-56553777D01*
X51883181Y-56843837D01*
X51916666Y-56905160D01*
X51919500Y-56931518D01*
X51919500Y-66726951D01*
X51919387Y-66730696D01*
X51915642Y-66792603D01*
X51915642Y-66792605D01*
X51926821Y-66853612D01*
X51927384Y-66857313D01*
X51934859Y-66918870D01*
X51934860Y-66918874D01*
X51938451Y-66928343D01*
X51944474Y-66949946D01*
X51946304Y-66959930D01*
X51971759Y-67016490D01*
X51973189Y-67019941D01*
X51995182Y-67077930D01*
X51995183Y-67077931D01*
X52000936Y-67086266D01*
X52011961Y-67105813D01*
X52016120Y-67115055D01*
X52016124Y-67115060D01*
X52054371Y-67163878D01*
X52056591Y-67166896D01*
X52091812Y-67217924D01*
X52091816Y-67217928D01*
X52091817Y-67217929D01*
X52138250Y-67259064D01*
X52140941Y-67261598D01*
X54648399Y-69769056D01*
X54650935Y-69771750D01*
X54692071Y-69818183D01*
X54723431Y-69839829D01*
X54743110Y-69853413D01*
X54746127Y-69855633D01*
X54794938Y-69893874D01*
X54794943Y-69893877D01*
X54804174Y-69898031D01*
X54823727Y-69909059D01*
X54832070Y-69914818D01*
X54890044Y-69936804D01*
X54890057Y-69936809D01*
X54893508Y-69938238D01*
X54923093Y-69951553D01*
X54950063Y-69963692D01*
X54950064Y-69963692D01*
X54950068Y-69963694D01*
X54960030Y-69965519D01*
X54981651Y-69971546D01*
X54981667Y-69971552D01*
X54991128Y-69975140D01*
X55007871Y-69977173D01*
X55052689Y-69982615D01*
X55056386Y-69983177D01*
X55117394Y-69994357D01*
X55117395Y-69994356D01*
X55117396Y-69994357D01*
X55179292Y-69990613D01*
X55183036Y-69990500D01*
X80536952Y-69990500D01*
X80540697Y-69990613D01*
X80548042Y-69991057D01*
X80602606Y-69994358D01*
X80640314Y-69987447D01*
X80663621Y-69983177D01*
X80667325Y-69982613D01*
X80685170Y-69980446D01*
X80728872Y-69975140D01*
X80738335Y-69971550D01*
X80759961Y-69965522D01*
X80760893Y-69965351D01*
X80769932Y-69963695D01*
X80826512Y-69938229D01*
X80829942Y-69936809D01*
X80887930Y-69914818D01*
X80896266Y-69909062D01*
X80915821Y-69898034D01*
X80925057Y-69893878D01*
X80973896Y-69855613D01*
X80976876Y-69853421D01*
X81027929Y-69818183D01*
X81069065Y-69771748D01*
X81071599Y-69769056D01*
X86119056Y-64721599D01*
X86121748Y-64719065D01*
X86168183Y-64677929D01*
X86203421Y-64626876D01*
X86205613Y-64623896D01*
X86243878Y-64575057D01*
X86248034Y-64565821D01*
X86259062Y-64546266D01*
X86264818Y-64537930D01*
X86286812Y-64479931D01*
X86288227Y-64476515D01*
X86313695Y-64419931D01*
X86315522Y-64409959D01*
X86321546Y-64388347D01*
X86325140Y-64378872D01*
X86332615Y-64317309D01*
X86333177Y-64313619D01*
X86336535Y-64295289D01*
X86344358Y-64252606D01*
X86341781Y-64210001D01*
X90684532Y-64210001D01*
X90704364Y-64436686D01*
X90704366Y-64436697D01*
X90763258Y-64656488D01*
X90763261Y-64656497D01*
X90859431Y-64862732D01*
X90859432Y-64862734D01*
X90989954Y-65049141D01*
X91150858Y-65210045D01*
X91150861Y-65210047D01*
X91337266Y-65340568D01*
X91543504Y-65436739D01*
X91763308Y-65495635D01*
X91925230Y-65509801D01*
X91989998Y-65515468D01*
X91990000Y-65515468D01*
X91990002Y-65515468D01*
X92046672Y-65510509D01*
X92216692Y-65495635D01*
X92436496Y-65436739D01*
X92642734Y-65340568D01*
X92829139Y-65210047D01*
X92990047Y-65049139D01*
X93120568Y-64862734D01*
X93216739Y-64656496D01*
X93275635Y-64436692D01*
X93292634Y-64242384D01*
X93295468Y-64210001D01*
X98304532Y-64210001D01*
X98324364Y-64436686D01*
X98324366Y-64436697D01*
X98383258Y-64656488D01*
X98383261Y-64656497D01*
X98479431Y-64862732D01*
X98479432Y-64862734D01*
X98609954Y-65049141D01*
X98770858Y-65210045D01*
X98770861Y-65210047D01*
X98957266Y-65340568D01*
X99163504Y-65436739D01*
X99383308Y-65495635D01*
X99545230Y-65509801D01*
X99609998Y-65515468D01*
X99610000Y-65515468D01*
X99610002Y-65515468D01*
X99666672Y-65510509D01*
X99836692Y-65495635D01*
X100056496Y-65436739D01*
X100262734Y-65340568D01*
X100449139Y-65210047D01*
X100610047Y-65049139D01*
X100740568Y-64862734D01*
X100836739Y-64656496D01*
X100895635Y-64436692D01*
X100912634Y-64242384D01*
X100915468Y-64210006D01*
X104554700Y-64210006D01*
X104573864Y-64441297D01*
X104573866Y-64441308D01*
X104630842Y-64666300D01*
X104724075Y-64878848D01*
X104851016Y-65073147D01*
X104851019Y-65073151D01*
X104851021Y-65073153D01*
X105008216Y-65243913D01*
X105008219Y-65243915D01*
X105008222Y-65243918D01*
X105191365Y-65386464D01*
X105191371Y-65386468D01*
X105191374Y-65386470D01*
X105395497Y-65496936D01*
X105449479Y-65515468D01*
X105615015Y-65572297D01*
X105615017Y-65572297D01*
X105615019Y-65572298D01*
X105843951Y-65610500D01*
X105843952Y-65610500D01*
X106076048Y-65610500D01*
X106076049Y-65610500D01*
X106304981Y-65572298D01*
X106524503Y-65496936D01*
X106728626Y-65386470D01*
X106911784Y-65243913D01*
X106920511Y-65234432D01*
X106980394Y-65198441D01*
X107050232Y-65200538D01*
X107107850Y-65240060D01*
X107127924Y-65275080D01*
X107156645Y-65352086D01*
X107156649Y-65352093D01*
X107242809Y-65467187D01*
X107242812Y-65467190D01*
X107357906Y-65553350D01*
X107357913Y-65553354D01*
X107492620Y-65603596D01*
X107492627Y-65603598D01*
X107552155Y-65609999D01*
X107552172Y-65610000D01*
X108250000Y-65610000D01*
X108250000Y-64584189D01*
X108302547Y-64620016D01*
X108432173Y-64660000D01*
X108533724Y-64660000D01*
X108634138Y-64644865D01*
X108750000Y-64589068D01*
X108750000Y-65610000D01*
X109447828Y-65610000D01*
X109447844Y-65609999D01*
X109507372Y-65603598D01*
X109507379Y-65603596D01*
X109642086Y-65553354D01*
X109642093Y-65553350D01*
X109757187Y-65467190D01*
X109757190Y-65467187D01*
X109843350Y-65352093D01*
X109843354Y-65352086D01*
X109893596Y-65217379D01*
X109893598Y-65217372D01*
X109899999Y-65157844D01*
X109900000Y-65157827D01*
X109900000Y-64460000D01*
X108875278Y-64460000D01*
X108923625Y-64376260D01*
X108953810Y-64244008D01*
X108943673Y-64108735D01*
X108894113Y-63982459D01*
X108876203Y-63960000D01*
X109899999Y-63960000D01*
X109900000Y-63262172D01*
X109899999Y-63262155D01*
X109893598Y-63202627D01*
X109893596Y-63202620D01*
X109843354Y-63067913D01*
X109843350Y-63067906D01*
X109757190Y-62952812D01*
X109757187Y-62952809D01*
X109642093Y-62866649D01*
X109642086Y-62866645D01*
X109507379Y-62816403D01*
X109507372Y-62816401D01*
X109447844Y-62810000D01*
X108750000Y-62810000D01*
X108750000Y-63835810D01*
X108697453Y-63799984D01*
X108567827Y-63760000D01*
X108466276Y-63760000D01*
X108365862Y-63775135D01*
X108250000Y-63830931D01*
X108250000Y-62810000D01*
X107552155Y-62810000D01*
X107492627Y-62816401D01*
X107492620Y-62816403D01*
X107357913Y-62866645D01*
X107357906Y-62866649D01*
X107242812Y-62952809D01*
X107242809Y-62952812D01*
X107156649Y-63067906D01*
X107156646Y-63067911D01*
X107127924Y-63144920D01*
X107086052Y-63200853D01*
X107020588Y-63225270D01*
X106952315Y-63210418D01*
X106920514Y-63185571D01*
X106911784Y-63176087D01*
X106911779Y-63176083D01*
X106911777Y-63176081D01*
X106728634Y-63033535D01*
X106728628Y-63033531D01*
X106524504Y-62923064D01*
X106524495Y-62923061D01*
X106304984Y-62847702D01*
X106117404Y-62816401D01*
X106076049Y-62809500D01*
X105843951Y-62809500D01*
X105802596Y-62816401D01*
X105615015Y-62847702D01*
X105395504Y-62923061D01*
X105395495Y-62923064D01*
X105191371Y-63033531D01*
X105191365Y-63033535D01*
X105008222Y-63176081D01*
X105008219Y-63176084D01*
X105008216Y-63176086D01*
X105008216Y-63176087D01*
X104983791Y-63202620D01*
X104851016Y-63346852D01*
X104724075Y-63541151D01*
X104630842Y-63753699D01*
X104573866Y-63978691D01*
X104573864Y-63978702D01*
X104554700Y-64209993D01*
X104554700Y-64210006D01*
X100915468Y-64210006D01*
X100915468Y-64210001D01*
X100915468Y-64209998D01*
X100895635Y-63983313D01*
X100895635Y-63983308D01*
X100836739Y-63763504D01*
X100740568Y-63557266D01*
X100610047Y-63370861D01*
X100610045Y-63370858D01*
X100449141Y-63209954D01*
X100262734Y-63079432D01*
X100262732Y-63079431D01*
X100056497Y-62983261D01*
X100056488Y-62983258D01*
X99836697Y-62924366D01*
X99836693Y-62924365D01*
X99836692Y-62924365D01*
X99836691Y-62924364D01*
X99836686Y-62924364D01*
X99610002Y-62904532D01*
X99609998Y-62904532D01*
X99383313Y-62924364D01*
X99383302Y-62924366D01*
X99163511Y-62983258D01*
X99163502Y-62983261D01*
X98957267Y-63079431D01*
X98957265Y-63079432D01*
X98770858Y-63209954D01*
X98609954Y-63370858D01*
X98479432Y-63557265D01*
X98479431Y-63557267D01*
X98383261Y-63763502D01*
X98383258Y-63763511D01*
X98324366Y-63983302D01*
X98324364Y-63983313D01*
X98304532Y-64209998D01*
X98304532Y-64210001D01*
X93295468Y-64210001D01*
X93295468Y-64209998D01*
X93275635Y-63983313D01*
X93275635Y-63983308D01*
X93216739Y-63763504D01*
X93120568Y-63557266D01*
X92990047Y-63370861D01*
X92990045Y-63370858D01*
X92829141Y-63209954D01*
X92642734Y-63079432D01*
X92642732Y-63079431D01*
X92436497Y-62983261D01*
X92436488Y-62983258D01*
X92216697Y-62924366D01*
X92216693Y-62924365D01*
X92216692Y-62924365D01*
X92216691Y-62924364D01*
X92216686Y-62924364D01*
X91990002Y-62904532D01*
X91989998Y-62904532D01*
X91763313Y-62924364D01*
X91763302Y-62924366D01*
X91543511Y-62983258D01*
X91543502Y-62983261D01*
X91337267Y-63079431D01*
X91337265Y-63079432D01*
X91150858Y-63209954D01*
X90989954Y-63370858D01*
X90859432Y-63557265D01*
X90859431Y-63557267D01*
X90763261Y-63763502D01*
X90763258Y-63763511D01*
X90704366Y-63983302D01*
X90704364Y-63983313D01*
X90684532Y-64209998D01*
X90684532Y-64210001D01*
X86341781Y-64210001D01*
X86340611Y-64190667D01*
X86340500Y-64186985D01*
X86340500Y-58014498D01*
X86360185Y-57947460D01*
X86412989Y-57901705D01*
X86464500Y-57890499D01*
X86487871Y-57890499D01*
X86487872Y-57890499D01*
X86547483Y-57884091D01*
X86682331Y-57833796D01*
X86797546Y-57747546D01*
X86883796Y-57632331D01*
X86934091Y-57497483D01*
X86940500Y-57437873D01*
X86940499Y-55742128D01*
X86934091Y-55682517D01*
X86931595Y-55675826D01*
X86883797Y-55547671D01*
X86883793Y-55547664D01*
X86797547Y-55432455D01*
X86797544Y-55432452D01*
X86682335Y-55346206D01*
X86682328Y-55346202D01*
X86547482Y-55295908D01*
X86547483Y-55295908D01*
X86512404Y-55292137D01*
X86447853Y-55265399D01*
X86408005Y-55208006D01*
X86405512Y-55138181D01*
X86441165Y-55078092D01*
X86454539Y-55067272D01*
X86479140Y-55050046D01*
X86640045Y-54889141D01*
X86640044Y-54889141D01*
X86640047Y-54889139D01*
X86770568Y-54702734D01*
X86866739Y-54496496D01*
X86925635Y-54276692D01*
X86945468Y-54050000D01*
X86925635Y-53823308D01*
X86866739Y-53603504D01*
X86770568Y-53397266D01*
X86640047Y-53210861D01*
X86640045Y-53210858D01*
X86479141Y-53049954D01*
X86292735Y-52919433D01*
X86292736Y-52919433D01*
X86292734Y-52919432D01*
X86234722Y-52892380D01*
X86182284Y-52846208D01*
X86163133Y-52779014D01*
X86183349Y-52712133D01*
X86234721Y-52667619D01*
X86292734Y-52640568D01*
X86479139Y-52510047D01*
X86640047Y-52349139D01*
X86770568Y-52162734D01*
X86866739Y-51956496D01*
X86925635Y-51736692D01*
X86945468Y-51510000D01*
X86925635Y-51283308D01*
X86866739Y-51063504D01*
X86770568Y-50857266D01*
X86640047Y-50670861D01*
X86640045Y-50670858D01*
X86479141Y-50509954D01*
X86292734Y-50379432D01*
X86292728Y-50379429D01*
X86234882Y-50352455D01*
X86234724Y-50352381D01*
X86182285Y-50306210D01*
X86163133Y-50239017D01*
X86183348Y-50172135D01*
X86234725Y-50127618D01*
X86292734Y-50100568D01*
X86479139Y-49970047D01*
X86631316Y-49817870D01*
X98319500Y-49817870D01*
X98319501Y-49817876D01*
X98325908Y-49877483D01*
X98376202Y-50012328D01*
X98376206Y-50012335D01*
X98462452Y-50127544D01*
X98462455Y-50127547D01*
X98577664Y-50213793D01*
X98577671Y-50213797D01*
X98712517Y-50264091D01*
X98712516Y-50264091D01*
X98719444Y-50264835D01*
X98772127Y-50270500D01*
X100467872Y-50270499D01*
X100527483Y-50264091D01*
X100662331Y-50213796D01*
X100777546Y-50127546D01*
X100863796Y-50012331D01*
X100914091Y-49877483D01*
X100920500Y-49817873D01*
X100920500Y-48970002D01*
X102115034Y-48970002D01*
X102134858Y-49196599D01*
X102134860Y-49196610D01*
X102193730Y-49416317D01*
X102193734Y-49416326D01*
X102289865Y-49622481D01*
X102289866Y-49622483D01*
X102340973Y-49695471D01*
X102340974Y-49695472D01*
X103022046Y-49014399D01*
X103034835Y-49095148D01*
X103092359Y-49208045D01*
X103181955Y-49297641D01*
X103294852Y-49355165D01*
X103375599Y-49367953D01*
X102694526Y-50049025D01*
X102694526Y-50049026D01*
X102767512Y-50100131D01*
X102767516Y-50100133D01*
X102973673Y-50196265D01*
X102973682Y-50196269D01*
X103193389Y-50255139D01*
X103193400Y-50255141D01*
X103419998Y-50274966D01*
X103420002Y-50274966D01*
X103646599Y-50255141D01*
X103646610Y-50255139D01*
X103866317Y-50196269D01*
X103866331Y-50196264D01*
X104072478Y-50100136D01*
X104145472Y-50049025D01*
X103464401Y-49367953D01*
X103545148Y-49355165D01*
X103658045Y-49297641D01*
X103747641Y-49208045D01*
X103805165Y-49095148D01*
X103817953Y-49014400D01*
X104499025Y-49695472D01*
X104550136Y-49622478D01*
X104646264Y-49416331D01*
X104646269Y-49416317D01*
X104705139Y-49196610D01*
X104705141Y-49196599D01*
X104724966Y-48970002D01*
X104724966Y-48969997D01*
X104705141Y-48743400D01*
X104705139Y-48743389D01*
X104646269Y-48523682D01*
X104646265Y-48523673D01*
X104550133Y-48317516D01*
X104550131Y-48317512D01*
X104499026Y-48244526D01*
X104499025Y-48244526D01*
X103817953Y-48925598D01*
X103805165Y-48844852D01*
X103747641Y-48731955D01*
X103658045Y-48642359D01*
X103545148Y-48584835D01*
X103464400Y-48572046D01*
X104145472Y-47890974D01*
X104145471Y-47890973D01*
X104072483Y-47839866D01*
X104072481Y-47839865D01*
X103866326Y-47743734D01*
X103866317Y-47743730D01*
X103646610Y-47684860D01*
X103646599Y-47684858D01*
X103420002Y-47665034D01*
X103419998Y-47665034D01*
X103193400Y-47684858D01*
X103193389Y-47684860D01*
X102973682Y-47743730D01*
X102973673Y-47743734D01*
X102767513Y-47839868D01*
X102694527Y-47890972D01*
X102694526Y-47890973D01*
X103375600Y-48572046D01*
X103294852Y-48584835D01*
X103181955Y-48642359D01*
X103092359Y-48731955D01*
X103034835Y-48844852D01*
X103022046Y-48925599D01*
X102340973Y-48244526D01*
X102340972Y-48244527D01*
X102289868Y-48317513D01*
X102193734Y-48523673D01*
X102193730Y-48523682D01*
X102134860Y-48743389D01*
X102134858Y-48743400D01*
X102115034Y-48969997D01*
X102115034Y-48970002D01*
X100920500Y-48970002D01*
X100920499Y-48122128D01*
X100914091Y-48062517D01*
X100879567Y-47969954D01*
X100863797Y-47927671D01*
X100863793Y-47927664D01*
X100777547Y-47812455D01*
X100777544Y-47812452D01*
X100662335Y-47726206D01*
X100662328Y-47726202D01*
X100527482Y-47675908D01*
X100527483Y-47675908D01*
X100467883Y-47669501D01*
X100467881Y-47669500D01*
X100467873Y-47669500D01*
X100467864Y-47669500D01*
X98772129Y-47669500D01*
X98772123Y-47669501D01*
X98712516Y-47675908D01*
X98577671Y-47726202D01*
X98577664Y-47726206D01*
X98462455Y-47812452D01*
X98462452Y-47812455D01*
X98376206Y-47927664D01*
X98376202Y-47927671D01*
X98325908Y-48062517D01*
X98319501Y-48122116D01*
X98319501Y-48122123D01*
X98319500Y-48122135D01*
X98319500Y-49817870D01*
X86631316Y-49817870D01*
X86640047Y-49809139D01*
X86770568Y-49622734D01*
X86866739Y-49416496D01*
X86925635Y-49196692D01*
X86945468Y-48970000D01*
X86925635Y-48743308D01*
X86866739Y-48523504D01*
X86770568Y-48317266D01*
X86640047Y-48130861D01*
X86640045Y-48130858D01*
X86479141Y-47969954D01*
X86292734Y-47839432D01*
X86292728Y-47839429D01*
X86234882Y-47812455D01*
X86234724Y-47812381D01*
X86182285Y-47766210D01*
X86163133Y-47699017D01*
X86183348Y-47632135D01*
X86234725Y-47587618D01*
X86292734Y-47560568D01*
X86479139Y-47430047D01*
X86640047Y-47269139D01*
X86770568Y-47082734D01*
X86866739Y-46876496D01*
X86925635Y-46656692D01*
X86945468Y-46430000D01*
X86925635Y-46203308D01*
X86866739Y-45983504D01*
X86770568Y-45777266D01*
X86640047Y-45590861D01*
X86640045Y-45590858D01*
X86479141Y-45429954D01*
X86292734Y-45299432D01*
X86292728Y-45299429D01*
X86234725Y-45272382D01*
X86182285Y-45226210D01*
X86163133Y-45159017D01*
X86183348Y-45092135D01*
X86234725Y-45047618D01*
X86292734Y-45020568D01*
X86479139Y-44890047D01*
X86640047Y-44729139D01*
X86770568Y-44542734D01*
X86866739Y-44336496D01*
X86925635Y-44116692D01*
X86945468Y-43890000D01*
X86925635Y-43663308D01*
X86866739Y-43443504D01*
X86770568Y-43237266D01*
X86640047Y-43050861D01*
X86640045Y-43050858D01*
X86479141Y-42889954D01*
X86292734Y-42759432D01*
X86292728Y-42759429D01*
X86234725Y-42732382D01*
X86182285Y-42686210D01*
X86163133Y-42619017D01*
X86183348Y-42552135D01*
X86234725Y-42507618D01*
X86292734Y-42480568D01*
X86479139Y-42350047D01*
X86640047Y-42189139D01*
X86770568Y-42002734D01*
X86866739Y-41796496D01*
X86925635Y-41576692D01*
X86945468Y-41350000D01*
X86925635Y-41123308D01*
X86866739Y-40903504D01*
X86770568Y-40697266D01*
X86640047Y-40510861D01*
X86640045Y-40510858D01*
X86479141Y-40349954D01*
X86292734Y-40219432D01*
X86292728Y-40219429D01*
X86234725Y-40192382D01*
X86182285Y-40146210D01*
X86163133Y-40079017D01*
X86183348Y-40012135D01*
X86234725Y-39967618D01*
X86292734Y-39940568D01*
X86479139Y-39810047D01*
X86640047Y-39649139D01*
X86700096Y-39563377D01*
X86754675Y-39519752D01*
X86801673Y-39510500D01*
X89436952Y-39510500D01*
X89440697Y-39510613D01*
X89448042Y-39511057D01*
X89502606Y-39514358D01*
X89540314Y-39507447D01*
X89563621Y-39503177D01*
X89567325Y-39502613D01*
X89585170Y-39500446D01*
X89628872Y-39495140D01*
X89638335Y-39491550D01*
X89659961Y-39485522D01*
X89660893Y-39485351D01*
X89669932Y-39483695D01*
X89726512Y-39458229D01*
X89729942Y-39456809D01*
X89787930Y-39434818D01*
X89796266Y-39429062D01*
X89815821Y-39418034D01*
X89825057Y-39413878D01*
X89873896Y-39375613D01*
X89876876Y-39373421D01*
X89927929Y-39338183D01*
X89969065Y-39291748D01*
X89971599Y-39289056D01*
X90291970Y-38968685D01*
X105904547Y-38968685D01*
X105924299Y-39282653D01*
X105924300Y-39282660D01*
X105983253Y-39591700D01*
X106080470Y-39890904D01*
X106080472Y-39890909D01*
X106214420Y-40175562D01*
X106214424Y-40175568D01*
X106382994Y-40441193D01*
X106382996Y-40441196D01*
X106473848Y-40551017D01*
X107442418Y-39582447D01*
X107491663Y-39661980D01*
X107634688Y-39818871D01*
X107793312Y-39938659D01*
X106824533Y-40907438D01*
X106824534Y-40907440D01*
X107067378Y-41083876D01*
X107067396Y-41083887D01*
X107343081Y-41235446D01*
X107343089Y-41235450D01*
X107635589Y-41351259D01*
X107635592Y-41351260D01*
X107940317Y-41429499D01*
X108252428Y-41468929D01*
X108252440Y-41468930D01*
X108567040Y-41468930D01*
X108567051Y-41468929D01*
X108879162Y-41429499D01*
X109183887Y-41351260D01*
X109183890Y-41351259D01*
X109476390Y-41235450D01*
X109476398Y-41235446D01*
X109752083Y-41083887D01*
X109752093Y-41083881D01*
X109994944Y-40907438D01*
X109994945Y-40907438D01*
X109026167Y-39938659D01*
X109184792Y-39818871D01*
X109327817Y-39661980D01*
X109377060Y-39582448D01*
X110345630Y-40551017D01*
X110436482Y-40441197D01*
X110436485Y-40441193D01*
X110605055Y-40175568D01*
X110605059Y-40175562D01*
X110739007Y-39890909D01*
X110739009Y-39890904D01*
X110836226Y-39591700D01*
X110895179Y-39282660D01*
X110895180Y-39282653D01*
X110914933Y-38968685D01*
X110914933Y-38968674D01*
X110895180Y-38654706D01*
X110895179Y-38654699D01*
X110836226Y-38345659D01*
X110739009Y-38046455D01*
X110739007Y-38046450D01*
X110605059Y-37761797D01*
X110605055Y-37761791D01*
X110436487Y-37496169D01*
X110345629Y-37386341D01*
X109377060Y-38354910D01*
X109327817Y-38275380D01*
X109184792Y-38118489D01*
X109026166Y-37998699D01*
X109994945Y-37029920D01*
X109994944Y-37029918D01*
X109752101Y-36853483D01*
X109752083Y-36853472D01*
X109476398Y-36701913D01*
X109476390Y-36701909D01*
X109183890Y-36586100D01*
X109183887Y-36586099D01*
X108879162Y-36507860D01*
X108567051Y-36468430D01*
X108252428Y-36468430D01*
X107940317Y-36507860D01*
X107635592Y-36586099D01*
X107635589Y-36586100D01*
X107343089Y-36701909D01*
X107343081Y-36701913D01*
X107067393Y-36853473D01*
X107067388Y-36853476D01*
X106824534Y-37029919D01*
X106824533Y-37029920D01*
X107793313Y-37998699D01*
X107634688Y-38118489D01*
X107491663Y-38275380D01*
X107442418Y-38354911D01*
X106473848Y-37386341D01*
X106382996Y-37496164D01*
X106382994Y-37496167D01*
X106214424Y-37761791D01*
X106214420Y-37761797D01*
X106080472Y-38046450D01*
X106080470Y-38046455D01*
X105983253Y-38345659D01*
X105924300Y-38654699D01*
X105924299Y-38654706D01*
X105904547Y-38968674D01*
X105904547Y-38968685D01*
X90291970Y-38968685D01*
X96773837Y-32486819D01*
X96835161Y-32453334D01*
X96861519Y-32450500D01*
X104491493Y-32450500D01*
X104558532Y-32470185D01*
X104604287Y-32522989D01*
X104614231Y-32592147D01*
X104585206Y-32655703D01*
X104575039Y-32666129D01*
X104529558Y-32707591D01*
X104529557Y-32707592D01*
X104397068Y-32883035D01*
X104397063Y-32883043D01*
X104299069Y-33079840D01*
X104238903Y-33291306D01*
X104218618Y-33510219D01*
X104238903Y-33729133D01*
X104299069Y-33940599D01*
X104397063Y-34137396D01*
X104397068Y-34137404D01*
X104529559Y-34312851D01*
X104672845Y-34443473D01*
X104709127Y-34503184D01*
X104707366Y-34573032D01*
X104672845Y-34626747D01*
X104529559Y-34757368D01*
X104397068Y-34932815D01*
X104397063Y-34932823D01*
X104299069Y-35129621D01*
X104299067Y-35129625D01*
X104283395Y-35184707D01*
X104246115Y-35243800D01*
X104182805Y-35273357D01*
X104113566Y-35263995D01*
X104060380Y-35218684D01*
X104044863Y-35184707D01*
X104029191Y-35129623D01*
X103991167Y-35053261D01*
X103931196Y-34932823D01*
X103931191Y-34932815D01*
X103876634Y-34860570D01*
X103798702Y-34757371D01*
X103636228Y-34609257D01*
X103571439Y-34569141D01*
X103449306Y-34493519D01*
X103449304Y-34493518D01*
X103378542Y-34466105D01*
X103244297Y-34414098D01*
X103028187Y-34373700D01*
X102808333Y-34373700D01*
X102592223Y-34414098D01*
X102534979Y-34436274D01*
X102387215Y-34493518D01*
X102387213Y-34493519D01*
X102200296Y-34609254D01*
X102200294Y-34609255D01*
X102200292Y-34609257D01*
X102060448Y-34736741D01*
X102037817Y-34757372D01*
X101905328Y-34932815D01*
X101905323Y-34932823D01*
X101807329Y-35129620D01*
X101747163Y-35341086D01*
X101726878Y-35560000D01*
X101747163Y-35778913D01*
X101807329Y-35990379D01*
X101905323Y-36187176D01*
X101905328Y-36187184D01*
X101944160Y-36238605D01*
X102037818Y-36362629D01*
X102200292Y-36510743D01*
X102256228Y-36545377D01*
X102341523Y-36598190D01*
X102387215Y-36626481D01*
X102592223Y-36705902D01*
X102808333Y-36746300D01*
X102808335Y-36746300D01*
X103028185Y-36746300D01*
X103028187Y-36746300D01*
X103244297Y-36705902D01*
X103449305Y-36626481D01*
X103636228Y-36510743D01*
X103798702Y-36362629D01*
X103931193Y-36187182D01*
X104029191Y-35990377D01*
X104044863Y-35935294D01*
X104082140Y-35876201D01*
X104145449Y-35846642D01*
X104214688Y-35856003D01*
X104267876Y-35901311D01*
X104283395Y-35935292D01*
X104299067Y-35990374D01*
X104299069Y-35990378D01*
X104397063Y-36187176D01*
X104397068Y-36187184D01*
X104435900Y-36238605D01*
X104529558Y-36362629D01*
X104692032Y-36510743D01*
X104747968Y-36545377D01*
X104833263Y-36598190D01*
X104878955Y-36626481D01*
X105083963Y-36705902D01*
X105300073Y-36746300D01*
X105300075Y-36746300D01*
X105519925Y-36746300D01*
X105519927Y-36746300D01*
X105736037Y-36705902D01*
X105941045Y-36626481D01*
X106127968Y-36510743D01*
X106290442Y-36362629D01*
X106422933Y-36187182D01*
X106520931Y-35990377D01*
X106581096Y-35778916D01*
X106601382Y-35560000D01*
X106581096Y-35341084D01*
X106520931Y-35129623D01*
X106520930Y-35129620D01*
X106422936Y-34932823D01*
X106422931Y-34932815D01*
X106368374Y-34860570D01*
X106290442Y-34757371D01*
X106147150Y-34626744D01*
X106110872Y-34567037D01*
X106112632Y-34497189D01*
X106147150Y-34443475D01*
X106290442Y-34312849D01*
X106422933Y-34137402D01*
X106520931Y-33940597D01*
X106581096Y-33729136D01*
X106601382Y-33510220D01*
X106581096Y-33291304D01*
X106520931Y-33079843D01*
X106520930Y-33079840D01*
X106422936Y-32883043D01*
X106422931Y-32883035D01*
X106343410Y-32777732D01*
X106290442Y-32707591D01*
X106127968Y-32559477D01*
X106074237Y-32526208D01*
X105941046Y-32443739D01*
X105941044Y-32443738D01*
X105870282Y-32416325D01*
X105736037Y-32364318D01*
X105561162Y-32331628D01*
X105498883Y-32299961D01*
X105463610Y-32239648D01*
X105464867Y-32209745D01*
X106714807Y-32209745D01*
X106734559Y-32523713D01*
X106734560Y-32523720D01*
X106793513Y-32832760D01*
X106890730Y-33131964D01*
X106890732Y-33131969D01*
X107024680Y-33416622D01*
X107024684Y-33416628D01*
X107193254Y-33682253D01*
X107193256Y-33682256D01*
X107284108Y-33792077D01*
X108252678Y-32823507D01*
X108301923Y-32903040D01*
X108444948Y-33059931D01*
X108603572Y-33179719D01*
X107634793Y-34148498D01*
X107634794Y-34148500D01*
X107877638Y-34324936D01*
X107877656Y-34324947D01*
X108153341Y-34476506D01*
X108153349Y-34476510D01*
X108445849Y-34592319D01*
X108445852Y-34592320D01*
X108750577Y-34670559D01*
X109062688Y-34709989D01*
X109062700Y-34709990D01*
X109377300Y-34709990D01*
X109377311Y-34709989D01*
X109689422Y-34670559D01*
X109994147Y-34592320D01*
X109994150Y-34592319D01*
X110286650Y-34476510D01*
X110286658Y-34476506D01*
X110562343Y-34324947D01*
X110562353Y-34324941D01*
X110805204Y-34148498D01*
X110805205Y-34148498D01*
X109836427Y-33179719D01*
X109995052Y-33059931D01*
X110138077Y-32903040D01*
X110187321Y-32823508D01*
X111155890Y-33792077D01*
X111246742Y-33682257D01*
X111246745Y-33682253D01*
X111415315Y-33416628D01*
X111415319Y-33416622D01*
X111549267Y-33131969D01*
X111549269Y-33131964D01*
X111646486Y-32832760D01*
X111705439Y-32523720D01*
X111705440Y-32523713D01*
X111725193Y-32209745D01*
X111725193Y-32209734D01*
X111705440Y-31895766D01*
X111705439Y-31895759D01*
X111646486Y-31586719D01*
X111549269Y-31287515D01*
X111549267Y-31287510D01*
X111415319Y-31002857D01*
X111415315Y-31002851D01*
X111246747Y-30737229D01*
X111155889Y-30627401D01*
X110187320Y-31595970D01*
X110138077Y-31516440D01*
X109995052Y-31359549D01*
X109836426Y-31239759D01*
X110805205Y-30270980D01*
X110805204Y-30270978D01*
X110562361Y-30094543D01*
X110562343Y-30094532D01*
X110286658Y-29942973D01*
X110286650Y-29942969D01*
X109994150Y-29827160D01*
X109994147Y-29827159D01*
X109689422Y-29748920D01*
X109377311Y-29709490D01*
X109062688Y-29709490D01*
X108750577Y-29748920D01*
X108445852Y-29827159D01*
X108445849Y-29827160D01*
X108153349Y-29942969D01*
X108153341Y-29942973D01*
X107877653Y-30094533D01*
X107877648Y-30094536D01*
X107634794Y-30270979D01*
X107634793Y-30270980D01*
X108603573Y-31239759D01*
X108444948Y-31359549D01*
X108301923Y-31516440D01*
X108252678Y-31595971D01*
X107284108Y-30627401D01*
X107193256Y-30737224D01*
X107193254Y-30737227D01*
X107024684Y-31002851D01*
X107024680Y-31002857D01*
X106890732Y-31287510D01*
X106890730Y-31287515D01*
X106793513Y-31586719D01*
X106734560Y-31895759D01*
X106734559Y-31895766D01*
X106714807Y-32209734D01*
X106714807Y-32209745D01*
X105464867Y-32209745D01*
X105466544Y-32169840D01*
X105506753Y-32112700D01*
X105561162Y-32087851D01*
X105736037Y-32055162D01*
X105941045Y-31975741D01*
X106127968Y-31860003D01*
X106290442Y-31711889D01*
X106422933Y-31536442D01*
X106520931Y-31339637D01*
X106581096Y-31128176D01*
X106601382Y-30909260D01*
X106581096Y-30690344D01*
X106520931Y-30478883D01*
X106486234Y-30409202D01*
X106422936Y-30282083D01*
X106422931Y-30282075D01*
X106353364Y-30189954D01*
X106290442Y-30106631D01*
X106127968Y-29958517D01*
X106113916Y-29949816D01*
X106067282Y-29897788D01*
X106061799Y-29864832D01*
X105493398Y-29296430D01*
X105542499Y-29289030D01*
X105663224Y-29230892D01*
X105761450Y-29139752D01*
X105828447Y-29023708D01*
X105846906Y-28942833D01*
X106408723Y-29504650D01*
X106422506Y-29486398D01*
X106422511Y-29486391D01*
X106520460Y-29289681D01*
X106520461Y-29289680D01*
X106580603Y-29078299D01*
X106600880Y-28859480D01*
X106600880Y-28859479D01*
X106580603Y-28640660D01*
X106520461Y-28429281D01*
X106422506Y-28232561D01*
X106408722Y-28214308D01*
X105849319Y-28773712D01*
X105848251Y-28759452D01*
X105799297Y-28634720D01*
X105715752Y-28529958D01*
X105605040Y-28454476D01*
X105495301Y-28420625D01*
X106053012Y-27862914D01*
X105940821Y-27793448D01*
X105940820Y-27793447D01*
X105735898Y-27714061D01*
X105519879Y-27673680D01*
X105300121Y-27673680D01*
X105084102Y-27714061D01*
X105084101Y-27714061D01*
X104879181Y-27793447D01*
X104879175Y-27793449D01*
X104766987Y-27862913D01*
X104766986Y-27862914D01*
X105326602Y-28422529D01*
X105277501Y-28429930D01*
X105156776Y-28488068D01*
X105058550Y-28579208D01*
X104991553Y-28695252D01*
X104973093Y-28776125D01*
X104411276Y-28214308D01*
X104397494Y-28232559D01*
X104299537Y-28429283D01*
X104299535Y-28429287D01*
X104283655Y-28485100D01*
X104246375Y-28544193D01*
X104183065Y-28573750D01*
X104113826Y-28564388D01*
X104060640Y-28519077D01*
X104045122Y-28485097D01*
X104029191Y-28429102D01*
X104029190Y-28429101D01*
X103931196Y-28232303D01*
X103931191Y-28232295D01*
X103896728Y-28186659D01*
X103798702Y-28056851D01*
X103636228Y-27908737D01*
X103611161Y-27893216D01*
X103449306Y-27792999D01*
X103449304Y-27792998D01*
X103378542Y-27765585D01*
X103244297Y-27713578D01*
X103028187Y-27673180D01*
X102808333Y-27673180D01*
X102592223Y-27713578D01*
X102581919Y-27717570D01*
X102387215Y-27792998D01*
X102387213Y-27792999D01*
X102200296Y-27908734D01*
X102200294Y-27908735D01*
X102200292Y-27908737D01*
X102197131Y-27911619D01*
X102037817Y-28056852D01*
X101905328Y-28232295D01*
X101905323Y-28232303D01*
X101807329Y-28429100D01*
X101747163Y-28640566D01*
X101726878Y-28859479D01*
X101747163Y-29078393D01*
X101807329Y-29289859D01*
X101905323Y-29486656D01*
X101905328Y-29486664D01*
X101971572Y-29574385D01*
X102037818Y-29662109D01*
X102200292Y-29810223D01*
X102288855Y-29865059D01*
X102377587Y-29920000D01*
X102387215Y-29925961D01*
X102592223Y-30005382D01*
X102808333Y-30045780D01*
X102808335Y-30045780D01*
X103028185Y-30045780D01*
X103028187Y-30045780D01*
X103244297Y-30005382D01*
X103449305Y-29925961D01*
X103636228Y-29810223D01*
X103798702Y-29662109D01*
X103931193Y-29486662D01*
X104029191Y-29289857D01*
X104045123Y-29233859D01*
X104082400Y-29174768D01*
X104145709Y-29145209D01*
X104214949Y-29154570D01*
X104268136Y-29199879D01*
X104283655Y-29233859D01*
X104299535Y-29289672D01*
X104299537Y-29289676D01*
X104397489Y-29486391D01*
X104397497Y-29486404D01*
X104411275Y-29504649D01*
X104970680Y-28945246D01*
X104971749Y-28959508D01*
X105020703Y-29084240D01*
X105104248Y-29189002D01*
X105214960Y-29264484D01*
X105324698Y-29298334D01*
X104757972Y-29865059D01*
X104752148Y-29898964D01*
X104706086Y-29949813D01*
X104692038Y-29958511D01*
X104692031Y-29958517D01*
X104529559Y-30106628D01*
X104397068Y-30282075D01*
X104397063Y-30282083D01*
X104299069Y-30478880D01*
X104238903Y-30690346D01*
X104219637Y-30898261D01*
X104218618Y-30909260D01*
X104219062Y-30914056D01*
X104205650Y-30982624D01*
X104157295Y-31033058D01*
X104095592Y-31049500D01*
X96543048Y-31049500D01*
X96539303Y-31049387D01*
X96477396Y-31045642D01*
X96477389Y-31045642D01*
X96416386Y-31056821D01*
X96412685Y-31057384D01*
X96351128Y-31064859D01*
X96351121Y-31064861D01*
X96341647Y-31068454D01*
X96320049Y-31074475D01*
X96310069Y-31076304D01*
X96253519Y-31101755D01*
X96250060Y-31103188D01*
X96192071Y-31125181D01*
X96192066Y-31125184D01*
X96183722Y-31130943D01*
X96164187Y-31141961D01*
X96154947Y-31146120D01*
X96154945Y-31146121D01*
X96106136Y-31184359D01*
X96103122Y-31186576D01*
X96052070Y-31221817D01*
X96052068Y-31221818D01*
X96010942Y-31268240D01*
X96008375Y-31270966D01*
X89206162Y-38073181D01*
X89144839Y-38106666D01*
X89118481Y-38109500D01*
X86801673Y-38109500D01*
X86734634Y-38089815D01*
X86700098Y-38056623D01*
X86640045Y-37970858D01*
X86479141Y-37809954D01*
X86292734Y-37679432D01*
X86292728Y-37679429D01*
X86234725Y-37652382D01*
X86182285Y-37606210D01*
X86163133Y-37539017D01*
X86183348Y-37472135D01*
X86234725Y-37427618D01*
X86292734Y-37400568D01*
X86479139Y-37270047D01*
X86640047Y-37109139D01*
X86770568Y-36922734D01*
X86866739Y-36716496D01*
X86925635Y-36496692D01*
X86945468Y-36270000D01*
X86941740Y-36227394D01*
X86939045Y-36196590D01*
X86925635Y-36043308D01*
X86880859Y-35876201D01*
X86866741Y-35823511D01*
X86866738Y-35823502D01*
X86770568Y-35617266D01*
X86640047Y-35430861D01*
X86640045Y-35430858D01*
X86479141Y-35269954D01*
X86292734Y-35139432D01*
X86292728Y-35139429D01*
X86234725Y-35112382D01*
X86182285Y-35066210D01*
X86163133Y-34999017D01*
X86183348Y-34932135D01*
X86234725Y-34887618D01*
X86292734Y-34860568D01*
X86479139Y-34730047D01*
X86640047Y-34569139D01*
X86770568Y-34382734D01*
X86866739Y-34176496D01*
X86925635Y-33956692D01*
X86945468Y-33730000D01*
X86945392Y-33729136D01*
X86936699Y-33629774D01*
X86925635Y-33503308D01*
X86866739Y-33283504D01*
X86770568Y-33077266D01*
X86640047Y-32890861D01*
X86640045Y-32890858D01*
X86479141Y-32729954D01*
X86292735Y-32599433D01*
X86292736Y-32599433D01*
X86292734Y-32599432D01*
X86234722Y-32572380D01*
X86182284Y-32526208D01*
X86163133Y-32459014D01*
X86183349Y-32392133D01*
X86234721Y-32347619D01*
X86292734Y-32320568D01*
X86479139Y-32190047D01*
X86640047Y-32029139D01*
X86770568Y-31842734D01*
X86866739Y-31636496D01*
X86925635Y-31416692D01*
X86945468Y-31190000D01*
X86945168Y-31186576D01*
X86937815Y-31102527D01*
X86925635Y-30963308D01*
X86866739Y-30743504D01*
X86770568Y-30537266D01*
X86640047Y-30350861D01*
X86640045Y-30350858D01*
X86479141Y-30189954D01*
X86292734Y-30059432D01*
X86292728Y-30059429D01*
X86234725Y-30032382D01*
X86182285Y-29986210D01*
X86163133Y-29919017D01*
X86183348Y-29852135D01*
X86234725Y-29807618D01*
X86292734Y-29780568D01*
X86479139Y-29650047D01*
X86640047Y-29489139D01*
X86770568Y-29302734D01*
X86866739Y-29096496D01*
X86925635Y-28876692D01*
X86945468Y-28650000D01*
X86944642Y-28640564D01*
X86931041Y-28485097D01*
X86925635Y-28423308D01*
X86874454Y-28232298D01*
X86866741Y-28203511D01*
X86866738Y-28203502D01*
X86770568Y-27997266D01*
X86640047Y-27810861D01*
X86640045Y-27810858D01*
X86479141Y-27649954D01*
X86292734Y-27519432D01*
X86292728Y-27519429D01*
X86234725Y-27492382D01*
X86182285Y-27446210D01*
X86163133Y-27379017D01*
X86183348Y-27312135D01*
X86234725Y-27267618D01*
X86292734Y-27240568D01*
X86479139Y-27110047D01*
X86640047Y-26949139D01*
X86770568Y-26762734D01*
X86866739Y-26556496D01*
X86925635Y-26336692D01*
X86945468Y-26110000D01*
X86925635Y-25883308D01*
X86866739Y-25663504D01*
X86770568Y-25457266D01*
X86766044Y-25450805D01*
X105904547Y-25450805D01*
X105924299Y-25764773D01*
X105924300Y-25764780D01*
X105983253Y-26073820D01*
X106080470Y-26373024D01*
X106080472Y-26373029D01*
X106214420Y-26657682D01*
X106214424Y-26657688D01*
X106382994Y-26923313D01*
X106382996Y-26923316D01*
X106473848Y-27033137D01*
X107442418Y-26064567D01*
X107491663Y-26144100D01*
X107634688Y-26300991D01*
X107793312Y-26420779D01*
X106824533Y-27389558D01*
X106824534Y-27389560D01*
X107067378Y-27565996D01*
X107067396Y-27566007D01*
X107343081Y-27717566D01*
X107343089Y-27717570D01*
X107635589Y-27833379D01*
X107635592Y-27833380D01*
X107940317Y-27911619D01*
X108252428Y-27951049D01*
X108252440Y-27951050D01*
X108567040Y-27951050D01*
X108567051Y-27951049D01*
X108879162Y-27911619D01*
X109183887Y-27833380D01*
X109183890Y-27833379D01*
X109476390Y-27717570D01*
X109476398Y-27717566D01*
X109752083Y-27566007D01*
X109752093Y-27566001D01*
X109994944Y-27389558D01*
X109994945Y-27389558D01*
X109026167Y-26420779D01*
X109184792Y-26300991D01*
X109327817Y-26144100D01*
X109377060Y-26064568D01*
X110345630Y-27033137D01*
X110436482Y-26923317D01*
X110436485Y-26923313D01*
X110605055Y-26657688D01*
X110605059Y-26657682D01*
X110739007Y-26373029D01*
X110739009Y-26373024D01*
X110836226Y-26073820D01*
X110895179Y-25764780D01*
X110895180Y-25764773D01*
X110914933Y-25450805D01*
X110914933Y-25450794D01*
X110895180Y-25136826D01*
X110895179Y-25136819D01*
X110836226Y-24827779D01*
X110739009Y-24528575D01*
X110739007Y-24528570D01*
X110605059Y-24243917D01*
X110605055Y-24243911D01*
X110436487Y-23978289D01*
X110345629Y-23868461D01*
X109377060Y-24837030D01*
X109327817Y-24757500D01*
X109184792Y-24600609D01*
X109026166Y-24480819D01*
X109994945Y-23512040D01*
X109994944Y-23512038D01*
X109752101Y-23335603D01*
X109752083Y-23335592D01*
X109476398Y-23184033D01*
X109476390Y-23184029D01*
X109183890Y-23068220D01*
X109183887Y-23068219D01*
X108879162Y-22989980D01*
X108567051Y-22950550D01*
X108252428Y-22950550D01*
X107940317Y-22989980D01*
X107635592Y-23068219D01*
X107635589Y-23068220D01*
X107343089Y-23184029D01*
X107343081Y-23184033D01*
X107067393Y-23335593D01*
X107067388Y-23335596D01*
X106824534Y-23512039D01*
X106824533Y-23512040D01*
X107793313Y-24480819D01*
X107634688Y-24600609D01*
X107491663Y-24757500D01*
X107442418Y-24837031D01*
X106473848Y-23868461D01*
X106382996Y-23978284D01*
X106382994Y-23978287D01*
X106214424Y-24243911D01*
X106214420Y-24243917D01*
X106080472Y-24528570D01*
X106080470Y-24528575D01*
X105983253Y-24827779D01*
X105924300Y-25136819D01*
X105924299Y-25136826D01*
X105904547Y-25450794D01*
X105904547Y-25450805D01*
X86766044Y-25450805D01*
X86640047Y-25270861D01*
X86640045Y-25270858D01*
X86479141Y-25109954D01*
X86292734Y-24979432D01*
X86292728Y-24979429D01*
X86234725Y-24952382D01*
X86182285Y-24906210D01*
X86163133Y-24839017D01*
X86183348Y-24772135D01*
X86234725Y-24727618D01*
X86292734Y-24700568D01*
X86479139Y-24570047D01*
X86640047Y-24409139D01*
X86770568Y-24222734D01*
X86866739Y-24016496D01*
X86925635Y-23796692D01*
X86945468Y-23570000D01*
X86925635Y-23343308D01*
X86866739Y-23123504D01*
X86770568Y-22917266D01*
X86663808Y-22764795D01*
X86640045Y-22730858D01*
X86479141Y-22569954D01*
X86292734Y-22439432D01*
X86292728Y-22439429D01*
X86234725Y-22412382D01*
X86182285Y-22366210D01*
X86163133Y-22299017D01*
X86183348Y-22232135D01*
X86234725Y-22187618D01*
X86292734Y-22160568D01*
X86479139Y-22030047D01*
X86640047Y-21869139D01*
X86770568Y-21682734D01*
X86866739Y-21476496D01*
X86925635Y-21256692D01*
X86945468Y-21030000D01*
X86925635Y-20803308D01*
X86866739Y-20583504D01*
X86770568Y-20377266D01*
X86640047Y-20190861D01*
X86640045Y-20190858D01*
X86479141Y-20029954D01*
X86292734Y-19899432D01*
X86292732Y-19899431D01*
X86086497Y-19803261D01*
X86086488Y-19803258D01*
X85866697Y-19744366D01*
X85866693Y-19744365D01*
X85866692Y-19744365D01*
X85866691Y-19744364D01*
X85866686Y-19744364D01*
X85640002Y-19724532D01*
X85639998Y-19724532D01*
X85413313Y-19744364D01*
X85413302Y-19744366D01*
X85193511Y-19803258D01*
X85193502Y-19803261D01*
X84987267Y-19899431D01*
X84987265Y-19899432D01*
X84800858Y-20029954D01*
X84639954Y-20190858D01*
X84509432Y-20377265D01*
X84509431Y-20377267D01*
X84413261Y-20583502D01*
X84413258Y-20583511D01*
X84354366Y-20803302D01*
X84354364Y-20803313D01*
X84334532Y-21029998D01*
X84334532Y-21030001D01*
X84354364Y-21256686D01*
X84354366Y-21256697D01*
X84413258Y-21476488D01*
X84413261Y-21476497D01*
X84509431Y-21682732D01*
X84509432Y-21682734D01*
X84639954Y-21869141D01*
X84800858Y-22030045D01*
X84800861Y-22030047D01*
X84987266Y-22160568D01*
X85045278Y-22187619D01*
X85097713Y-22233788D01*
X85116866Y-22300982D01*
X85096651Y-22367863D01*
X85045277Y-22412380D01*
X84987268Y-22439430D01*
X84987265Y-22439432D01*
X84800858Y-22569954D01*
X84639954Y-22730858D01*
X84509432Y-22917265D01*
X84509431Y-22917267D01*
X84413261Y-23123502D01*
X84413258Y-23123511D01*
X84354366Y-23343302D01*
X84354364Y-23343313D01*
X84334532Y-23569998D01*
X84334532Y-23570001D01*
X84354364Y-23796686D01*
X84354366Y-23796697D01*
X84413258Y-24016488D01*
X84413261Y-24016497D01*
X84509431Y-24222732D01*
X84509432Y-24222734D01*
X84639954Y-24409141D01*
X84800858Y-24570045D01*
X84837211Y-24595499D01*
X84987266Y-24700568D01*
X85045278Y-24727619D01*
X85097713Y-24773788D01*
X85116866Y-24840982D01*
X85096651Y-24907863D01*
X85045277Y-24952380D01*
X84987268Y-24979430D01*
X84987265Y-24979432D01*
X84800858Y-25109954D01*
X84639954Y-25270858D01*
X84509432Y-25457265D01*
X84509431Y-25457267D01*
X84413261Y-25663502D01*
X84413258Y-25663511D01*
X84354366Y-25883302D01*
X84354364Y-25883313D01*
X84334532Y-26109998D01*
X84334532Y-26110001D01*
X84354364Y-26336686D01*
X84354366Y-26336697D01*
X84413258Y-26556488D01*
X84413261Y-26556497D01*
X84509431Y-26762732D01*
X84509432Y-26762734D01*
X84639954Y-26949141D01*
X84800858Y-27110045D01*
X84800861Y-27110047D01*
X84987266Y-27240568D01*
X85045275Y-27267618D01*
X85097714Y-27313791D01*
X85116866Y-27380984D01*
X85096650Y-27447865D01*
X85045275Y-27492382D01*
X84987267Y-27519431D01*
X84987265Y-27519432D01*
X84800858Y-27649954D01*
X84639954Y-27810858D01*
X84509432Y-27997265D01*
X84509431Y-27997267D01*
X84413261Y-28203502D01*
X84413258Y-28203511D01*
X84354366Y-28423302D01*
X84354364Y-28423313D01*
X84334532Y-28649998D01*
X84334532Y-28650001D01*
X84354364Y-28876686D01*
X84354366Y-28876697D01*
X84413258Y-29096488D01*
X84413261Y-29096497D01*
X84509431Y-29302732D01*
X84509432Y-29302734D01*
X84639954Y-29489141D01*
X84800858Y-29650045D01*
X84800861Y-29650047D01*
X84987266Y-29780568D01*
X85045275Y-29807618D01*
X85097714Y-29853791D01*
X85116866Y-29920984D01*
X85096650Y-29987865D01*
X85045275Y-30032382D01*
X84987267Y-30059431D01*
X84987265Y-30059432D01*
X84800858Y-30189954D01*
X84639954Y-30350858D01*
X84509432Y-30537265D01*
X84509431Y-30537267D01*
X84413261Y-30743502D01*
X84413258Y-30743511D01*
X84354366Y-30963302D01*
X84354364Y-30963313D01*
X84334532Y-31189998D01*
X84334532Y-31190001D01*
X84354364Y-31416686D01*
X84354366Y-31416697D01*
X84413258Y-31636488D01*
X84413261Y-31636497D01*
X84509431Y-31842732D01*
X84509432Y-31842734D01*
X84639954Y-32029141D01*
X84800858Y-32190045D01*
X84800861Y-32190047D01*
X84987266Y-32320568D01*
X85045275Y-32347618D01*
X85097714Y-32393791D01*
X85116866Y-32460984D01*
X85096650Y-32527865D01*
X85045275Y-32572382D01*
X84987267Y-32599431D01*
X84987265Y-32599432D01*
X84800858Y-32729954D01*
X84639954Y-32890858D01*
X84579902Y-32976623D01*
X84525325Y-33020248D01*
X84478327Y-33029500D01*
X83123036Y-33029500D01*
X83119292Y-33029387D01*
X83057397Y-33025643D01*
X83057390Y-33025643D01*
X82996402Y-33036819D01*
X82992701Y-33037382D01*
X82931125Y-33044860D01*
X82921642Y-33048456D01*
X82900038Y-33054478D01*
X82898535Y-33054754D01*
X82890065Y-33056306D01*
X82890063Y-33056307D01*
X82833527Y-33081752D01*
X82830069Y-33083184D01*
X82772069Y-33105182D01*
X82763724Y-33110942D01*
X82744183Y-33121964D01*
X82734944Y-33126122D01*
X82734939Y-33126125D01*
X82686121Y-33164370D01*
X82683106Y-33166589D01*
X82632072Y-33201816D01*
X82632065Y-33201822D01*
X82590942Y-33248240D01*
X82588375Y-33250966D01*
X80080966Y-35758375D01*
X80078240Y-35760942D01*
X80031818Y-35802068D01*
X79996586Y-35853109D01*
X79994368Y-35856124D01*
X79956124Y-35904939D01*
X79956119Y-35904948D01*
X79951960Y-35914188D01*
X79940942Y-35933723D01*
X79935187Y-35942061D01*
X79935183Y-35942067D01*
X79935182Y-35942070D01*
X79935180Y-35942074D01*
X79935179Y-35942077D01*
X79913189Y-36000055D01*
X79911757Y-36003513D01*
X79886305Y-36060068D01*
X79884477Y-36070042D01*
X79878453Y-36091653D01*
X79874860Y-36101127D01*
X79874859Y-36101128D01*
X79867384Y-36162685D01*
X79866821Y-36166386D01*
X79855642Y-36227390D01*
X79855642Y-36227395D01*
X79859387Y-36289302D01*
X79859500Y-36293047D01*
X79859500Y-63868481D01*
X79839815Y-63935520D01*
X79823181Y-63956162D01*
X77766162Y-66013181D01*
X77704839Y-66046666D01*
X77678481Y-66049500D01*
X58861673Y-66049500D01*
X58794634Y-66029815D01*
X58760098Y-65996623D01*
X58700045Y-65910858D01*
X58539141Y-65749954D01*
X58352734Y-65619432D01*
X58352728Y-65619429D01*
X58315626Y-65602128D01*
X58294724Y-65592381D01*
X58242285Y-65546210D01*
X58223133Y-65479017D01*
X58243348Y-65412135D01*
X58294725Y-65367618D01*
X58352734Y-65340568D01*
X58539139Y-65210047D01*
X58700047Y-65049139D01*
X58830568Y-64862734D01*
X58926739Y-64656496D01*
X58985635Y-64436692D01*
X59002634Y-64242384D01*
X59005468Y-64210001D01*
X59005468Y-64209998D01*
X58985635Y-63983313D01*
X58985635Y-63983308D01*
X58926739Y-63763504D01*
X58830568Y-63557266D01*
X58700047Y-63370861D01*
X58700045Y-63370858D01*
X58539141Y-63209954D01*
X58352735Y-63079433D01*
X58352736Y-63079433D01*
X58352734Y-63079432D01*
X58294722Y-63052380D01*
X58242284Y-63006208D01*
X58223133Y-62939014D01*
X58243349Y-62872133D01*
X58294721Y-62827619D01*
X58352734Y-62800568D01*
X58539139Y-62670047D01*
X58700047Y-62509139D01*
X58830568Y-62322734D01*
X58926739Y-62116496D01*
X58985635Y-61896692D01*
X59005468Y-61670000D01*
X58985635Y-61443308D01*
X58926739Y-61223504D01*
X58830568Y-61017266D01*
X58700047Y-60830861D01*
X58700045Y-60830858D01*
X58539141Y-60669954D01*
X58352735Y-60539433D01*
X58352736Y-60539433D01*
X58352734Y-60539432D01*
X58294722Y-60512380D01*
X58242284Y-60466208D01*
X58223133Y-60399014D01*
X58243349Y-60332133D01*
X58294721Y-60287619D01*
X58352734Y-60260568D01*
X58539139Y-60130047D01*
X58700047Y-59969139D01*
X58830568Y-59782734D01*
X58926739Y-59576496D01*
X58985635Y-59356692D01*
X59005468Y-59130000D01*
X58985635Y-58903308D01*
X58926739Y-58683504D01*
X58830568Y-58477266D01*
X58700047Y-58290861D01*
X58700045Y-58290858D01*
X58539141Y-58129954D01*
X58352734Y-57999432D01*
X58352728Y-57999429D01*
X58295015Y-57972517D01*
X58294724Y-57972381D01*
X58242285Y-57926210D01*
X58223133Y-57859017D01*
X58243348Y-57792135D01*
X58294725Y-57747618D01*
X58352734Y-57720568D01*
X58539139Y-57590047D01*
X58700047Y-57429139D01*
X58830568Y-57242734D01*
X58926739Y-57036496D01*
X58985635Y-56816692D01*
X59005468Y-56590001D01*
X69094532Y-56590001D01*
X69114364Y-56816686D01*
X69114366Y-56816697D01*
X69173258Y-57036488D01*
X69173261Y-57036497D01*
X69269431Y-57242732D01*
X69269432Y-57242734D01*
X69399954Y-57429141D01*
X69560858Y-57590045D01*
X69560861Y-57590047D01*
X69747266Y-57720568D01*
X69953504Y-57816739D01*
X70173308Y-57875635D01*
X70335230Y-57889801D01*
X70399998Y-57895468D01*
X70400000Y-57895468D01*
X70400002Y-57895468D01*
X70456807Y-57890498D01*
X70626692Y-57875635D01*
X70846496Y-57816739D01*
X71052734Y-57720568D01*
X71239139Y-57590047D01*
X71400047Y-57429139D01*
X71530568Y-57242734D01*
X71626739Y-57036496D01*
X71685635Y-56816692D01*
X71705468Y-56590000D01*
X71701740Y-56547394D01*
X71699407Y-56520725D01*
X71685635Y-56363308D01*
X71626739Y-56143504D01*
X71530568Y-55937266D01*
X71400047Y-55750861D01*
X71400045Y-55750858D01*
X71239141Y-55589954D01*
X71052734Y-55459432D01*
X71052732Y-55459431D01*
X71041275Y-55454088D01*
X70994132Y-55432105D01*
X70941694Y-55385934D01*
X70922542Y-55318740D01*
X70942758Y-55251859D01*
X70994134Y-55207341D01*
X71052484Y-55180132D01*
X71238820Y-55049657D01*
X71399657Y-54888820D01*
X71530134Y-54702482D01*
X71626265Y-54496326D01*
X71626269Y-54496317D01*
X71678872Y-54300000D01*
X70833686Y-54300000D01*
X70859493Y-54259844D01*
X70900000Y-54121889D01*
X70900000Y-53978111D01*
X70859493Y-53840156D01*
X70833686Y-53800000D01*
X71678872Y-53800000D01*
X71678872Y-53799999D01*
X71626269Y-53603682D01*
X71626265Y-53603673D01*
X71530134Y-53397517D01*
X71399657Y-53211179D01*
X71238820Y-53050342D01*
X71052482Y-52919865D01*
X70994133Y-52892657D01*
X70941694Y-52846484D01*
X70922542Y-52779291D01*
X70942758Y-52712410D01*
X70994129Y-52667895D01*
X71052734Y-52640568D01*
X71239139Y-52510047D01*
X71400047Y-52349139D01*
X71530568Y-52162734D01*
X71626739Y-51956496D01*
X71685635Y-51736692D01*
X71705468Y-51510000D01*
X71685635Y-51283308D01*
X71626739Y-51063504D01*
X71530568Y-50857266D01*
X71400047Y-50670861D01*
X71400045Y-50670858D01*
X71239141Y-50509954D01*
X71052734Y-50379432D01*
X71052728Y-50379429D01*
X70994882Y-50352455D01*
X70994724Y-50352381D01*
X70942285Y-50306210D01*
X70923133Y-50239017D01*
X70943348Y-50172135D01*
X70994725Y-50127618D01*
X71052734Y-50100568D01*
X71239139Y-49970047D01*
X71400047Y-49809139D01*
X71530568Y-49622734D01*
X71626739Y-49416496D01*
X71685635Y-49196692D01*
X71705468Y-48970000D01*
X71685635Y-48743308D01*
X71626739Y-48523504D01*
X71530568Y-48317266D01*
X71400047Y-48130861D01*
X71400045Y-48130858D01*
X71239141Y-47969954D01*
X71052734Y-47839432D01*
X71052728Y-47839429D01*
X70994882Y-47812455D01*
X70994724Y-47812381D01*
X70942285Y-47766210D01*
X70923133Y-47699017D01*
X70943348Y-47632135D01*
X70994725Y-47587618D01*
X71052734Y-47560568D01*
X71239139Y-47430047D01*
X71400047Y-47269139D01*
X71530568Y-47082734D01*
X71626739Y-46876496D01*
X71685635Y-46656692D01*
X71705468Y-46430000D01*
X71685635Y-46203308D01*
X71626739Y-45983504D01*
X71530568Y-45777266D01*
X71400047Y-45590861D01*
X71400045Y-45590858D01*
X71239141Y-45429954D01*
X71052734Y-45299432D01*
X71052728Y-45299429D01*
X70994725Y-45272382D01*
X70942285Y-45226210D01*
X70923133Y-45159017D01*
X70943348Y-45092135D01*
X70994725Y-45047618D01*
X71052734Y-45020568D01*
X71239139Y-44890047D01*
X71400047Y-44729139D01*
X71530568Y-44542734D01*
X71626739Y-44336496D01*
X71685635Y-44116692D01*
X71705468Y-43890000D01*
X71685635Y-43663308D01*
X71626739Y-43443504D01*
X71530568Y-43237266D01*
X71400047Y-43050861D01*
X71400045Y-43050858D01*
X71239141Y-42889954D01*
X71052734Y-42759432D01*
X71052728Y-42759429D01*
X70994725Y-42732382D01*
X70942285Y-42686210D01*
X70923133Y-42619017D01*
X70943348Y-42552135D01*
X70994725Y-42507618D01*
X71052734Y-42480568D01*
X71239139Y-42350047D01*
X71400047Y-42189139D01*
X71530568Y-42002734D01*
X71626739Y-41796496D01*
X71685635Y-41576692D01*
X71705468Y-41350000D01*
X71685635Y-41123308D01*
X71626739Y-40903504D01*
X71530568Y-40697266D01*
X71400047Y-40510861D01*
X71400045Y-40510858D01*
X71239141Y-40349954D01*
X71052734Y-40219432D01*
X71052728Y-40219429D01*
X70994725Y-40192382D01*
X70942285Y-40146210D01*
X70923133Y-40079017D01*
X70943348Y-40012135D01*
X70994725Y-39967618D01*
X71052734Y-39940568D01*
X71239139Y-39810047D01*
X71400047Y-39649139D01*
X71530568Y-39462734D01*
X71626739Y-39256496D01*
X71685635Y-39036692D01*
X71705468Y-38810000D01*
X71685635Y-38583308D01*
X71626739Y-38363504D01*
X71530568Y-38157266D01*
X71400047Y-37970861D01*
X71400045Y-37970858D01*
X71239141Y-37809954D01*
X71052734Y-37679432D01*
X71052728Y-37679429D01*
X70994725Y-37652382D01*
X70942285Y-37606210D01*
X70923133Y-37539017D01*
X70943348Y-37472135D01*
X70994725Y-37427618D01*
X71052734Y-37400568D01*
X71239139Y-37270047D01*
X71400047Y-37109139D01*
X71530568Y-36922734D01*
X71626739Y-36716496D01*
X71685635Y-36496692D01*
X71705468Y-36270000D01*
X71701740Y-36227394D01*
X71699045Y-36196590D01*
X71685635Y-36043308D01*
X71640859Y-35876201D01*
X71626741Y-35823511D01*
X71626738Y-35823502D01*
X71530568Y-35617266D01*
X71400047Y-35430861D01*
X71400045Y-35430858D01*
X71239141Y-35269954D01*
X71052734Y-35139432D01*
X71052728Y-35139429D01*
X70994725Y-35112382D01*
X70942285Y-35066210D01*
X70923133Y-34999017D01*
X70943348Y-34932135D01*
X70994725Y-34887618D01*
X71052734Y-34860568D01*
X71239139Y-34730047D01*
X71400047Y-34569139D01*
X71530568Y-34382734D01*
X71626739Y-34176496D01*
X71685635Y-33956692D01*
X71705468Y-33730000D01*
X71705392Y-33729136D01*
X71696699Y-33629774D01*
X71685635Y-33503308D01*
X71626739Y-33283504D01*
X71530568Y-33077266D01*
X71400047Y-32890861D01*
X71400045Y-32890858D01*
X71239141Y-32729954D01*
X71052734Y-32599432D01*
X71052728Y-32599429D01*
X70994725Y-32572382D01*
X70942285Y-32526210D01*
X70923133Y-32459017D01*
X70943348Y-32392135D01*
X70994725Y-32347618D01*
X71052734Y-32320568D01*
X71239139Y-32190047D01*
X71400047Y-32029139D01*
X71530568Y-31842734D01*
X71626739Y-31636496D01*
X71685635Y-31416692D01*
X71705468Y-31190000D01*
X71705168Y-31186576D01*
X71697815Y-31102527D01*
X71685635Y-30963308D01*
X71626739Y-30743504D01*
X71530568Y-30537266D01*
X71400047Y-30350861D01*
X71400045Y-30350858D01*
X71239141Y-30189954D01*
X71052734Y-30059432D01*
X71052728Y-30059429D01*
X70994725Y-30032382D01*
X70942285Y-29986210D01*
X70923133Y-29919017D01*
X70943348Y-29852135D01*
X70994725Y-29807618D01*
X71052734Y-29780568D01*
X71239139Y-29650047D01*
X71400047Y-29489139D01*
X71530568Y-29302734D01*
X71626739Y-29096496D01*
X71685635Y-28876692D01*
X71705468Y-28650000D01*
X71704642Y-28640564D01*
X71691041Y-28485097D01*
X71685635Y-28423308D01*
X71634454Y-28232298D01*
X71626741Y-28203511D01*
X71626738Y-28203502D01*
X71530568Y-27997266D01*
X71400047Y-27810861D01*
X71400045Y-27810858D01*
X71239141Y-27649954D01*
X71052734Y-27519432D01*
X71052728Y-27519429D01*
X70994725Y-27492382D01*
X70942285Y-27446210D01*
X70923133Y-27379017D01*
X70943348Y-27312135D01*
X70994725Y-27267618D01*
X71052734Y-27240568D01*
X71239139Y-27110047D01*
X71400047Y-26949139D01*
X71530568Y-26762734D01*
X71626739Y-26556496D01*
X71685635Y-26336692D01*
X71705468Y-26110000D01*
X71685635Y-25883308D01*
X71626739Y-25663504D01*
X71530568Y-25457266D01*
X71400047Y-25270861D01*
X71400045Y-25270858D01*
X71239141Y-25109954D01*
X71132546Y-25035317D01*
X71052734Y-24979432D01*
X70994722Y-24952380D01*
X70942284Y-24906208D01*
X70923133Y-24839014D01*
X70943349Y-24772133D01*
X70994721Y-24727619D01*
X71052734Y-24700568D01*
X71239139Y-24570047D01*
X71400047Y-24409139D01*
X71530568Y-24222734D01*
X71626739Y-24016496D01*
X71685635Y-23796692D01*
X71705468Y-23570000D01*
X71685635Y-23343308D01*
X71626739Y-23123504D01*
X71530568Y-22917266D01*
X71423808Y-22764795D01*
X71400045Y-22730858D01*
X71239141Y-22569954D01*
X71052734Y-22439432D01*
X71052728Y-22439429D01*
X70994725Y-22412382D01*
X70942285Y-22366210D01*
X70923133Y-22299017D01*
X70943348Y-22232135D01*
X70994725Y-22187618D01*
X71052734Y-22160568D01*
X71239139Y-22030047D01*
X71400047Y-21869139D01*
X71530568Y-21682734D01*
X71626739Y-21476496D01*
X71685635Y-21256692D01*
X71705468Y-21030000D01*
X71685635Y-20803308D01*
X71626739Y-20583504D01*
X71530568Y-20377266D01*
X71400047Y-20190861D01*
X71400045Y-20190858D01*
X71239141Y-20029954D01*
X71052734Y-19899432D01*
X71052732Y-19899431D01*
X70846497Y-19803261D01*
X70846488Y-19803258D01*
X70626697Y-19744366D01*
X70626693Y-19744365D01*
X70626692Y-19744365D01*
X70626691Y-19744364D01*
X70626686Y-19744364D01*
X70400002Y-19724532D01*
X70399998Y-19724532D01*
X70173313Y-19744364D01*
X70173302Y-19744366D01*
X69953511Y-19803258D01*
X69953502Y-19803261D01*
X69747267Y-19899431D01*
X69747265Y-19899432D01*
X69560858Y-20029954D01*
X69399954Y-20190858D01*
X69269432Y-20377265D01*
X69269431Y-20377267D01*
X69173261Y-20583502D01*
X69173258Y-20583511D01*
X69114366Y-20803302D01*
X69114364Y-20803313D01*
X69094532Y-21029998D01*
X69094532Y-21030001D01*
X69114364Y-21256686D01*
X69114366Y-21256697D01*
X69173258Y-21476488D01*
X69173261Y-21476497D01*
X69269431Y-21682732D01*
X69269432Y-21682734D01*
X69399954Y-21869141D01*
X69560858Y-22030045D01*
X69560861Y-22030047D01*
X69747266Y-22160568D01*
X69805275Y-22187618D01*
X69857714Y-22233791D01*
X69876866Y-22300984D01*
X69856650Y-22367865D01*
X69805275Y-22412382D01*
X69747267Y-22439431D01*
X69747265Y-22439432D01*
X69560858Y-22569954D01*
X69399954Y-22730858D01*
X69269432Y-22917265D01*
X69269431Y-22917267D01*
X69173261Y-23123502D01*
X69173258Y-23123511D01*
X69114366Y-23343302D01*
X69114364Y-23343313D01*
X69094532Y-23569998D01*
X69094532Y-23570001D01*
X69114364Y-23796686D01*
X69114366Y-23796697D01*
X69173258Y-24016488D01*
X69173261Y-24016497D01*
X69269431Y-24222732D01*
X69269432Y-24222734D01*
X69399954Y-24409141D01*
X69560858Y-24570045D01*
X69560861Y-24570047D01*
X69747266Y-24700568D01*
X69805275Y-24727618D01*
X69857714Y-24773791D01*
X69876866Y-24840984D01*
X69856650Y-24907865D01*
X69805275Y-24952382D01*
X69747267Y-24979431D01*
X69747265Y-24979432D01*
X69560858Y-25109954D01*
X69399954Y-25270858D01*
X69269432Y-25457265D01*
X69269431Y-25457267D01*
X69173261Y-25663502D01*
X69173258Y-25663511D01*
X69114366Y-25883302D01*
X69114364Y-25883313D01*
X69094532Y-26109998D01*
X69094532Y-26110001D01*
X69114364Y-26336686D01*
X69114366Y-26336697D01*
X69173258Y-26556488D01*
X69173261Y-26556497D01*
X69269431Y-26762732D01*
X69269432Y-26762734D01*
X69399954Y-26949141D01*
X69560858Y-27110045D01*
X69560861Y-27110047D01*
X69747266Y-27240568D01*
X69805275Y-27267618D01*
X69857714Y-27313791D01*
X69876866Y-27380984D01*
X69856650Y-27447865D01*
X69805275Y-27492382D01*
X69747267Y-27519431D01*
X69747265Y-27519432D01*
X69560858Y-27649954D01*
X69399954Y-27810858D01*
X69269432Y-27997265D01*
X69269431Y-27997267D01*
X69173261Y-28203502D01*
X69173258Y-28203511D01*
X69114366Y-28423302D01*
X69114364Y-28423313D01*
X69094532Y-28649998D01*
X69094532Y-28650001D01*
X69114364Y-28876686D01*
X69114366Y-28876697D01*
X69173258Y-29096488D01*
X69173261Y-29096497D01*
X69269431Y-29302732D01*
X69269432Y-29302734D01*
X69399954Y-29489141D01*
X69560858Y-29650045D01*
X69560861Y-29650047D01*
X69747266Y-29780568D01*
X69805275Y-29807618D01*
X69857714Y-29853791D01*
X69876866Y-29920984D01*
X69856650Y-29987865D01*
X69805275Y-30032382D01*
X69747267Y-30059431D01*
X69747265Y-30059432D01*
X69560858Y-30189954D01*
X69399954Y-30350858D01*
X69269432Y-30537265D01*
X69269431Y-30537267D01*
X69173261Y-30743502D01*
X69173258Y-30743511D01*
X69114366Y-30963302D01*
X69114364Y-30963313D01*
X69094532Y-31189998D01*
X69094532Y-31190001D01*
X69114364Y-31416686D01*
X69114366Y-31416697D01*
X69173258Y-31636488D01*
X69173261Y-31636497D01*
X69269431Y-31842732D01*
X69269432Y-31842734D01*
X69399954Y-32029141D01*
X69560858Y-32190045D01*
X69560861Y-32190047D01*
X69747266Y-32320568D01*
X69805275Y-32347618D01*
X69857714Y-32393791D01*
X69876866Y-32460984D01*
X69856650Y-32527865D01*
X69805275Y-32572382D01*
X69747267Y-32599431D01*
X69747265Y-32599432D01*
X69560858Y-32729954D01*
X69399954Y-32890858D01*
X69269432Y-33077265D01*
X69269431Y-33077267D01*
X69173261Y-33283502D01*
X69173258Y-33283511D01*
X69114366Y-33503302D01*
X69114364Y-33503313D01*
X69094532Y-33729998D01*
X69094532Y-33730001D01*
X69114364Y-33956686D01*
X69114366Y-33956697D01*
X69173258Y-34176488D01*
X69173261Y-34176497D01*
X69269431Y-34382732D01*
X69269432Y-34382734D01*
X69399954Y-34569141D01*
X69560858Y-34730045D01*
X69560861Y-34730047D01*
X69747266Y-34860568D01*
X69805275Y-34887618D01*
X69857714Y-34933791D01*
X69876866Y-35000984D01*
X69856650Y-35067865D01*
X69805275Y-35112382D01*
X69747267Y-35139431D01*
X69747265Y-35139432D01*
X69560858Y-35269954D01*
X69399954Y-35430858D01*
X69269432Y-35617265D01*
X69269431Y-35617267D01*
X69173261Y-35823502D01*
X69173258Y-35823511D01*
X69114366Y-36043302D01*
X69114364Y-36043313D01*
X69094532Y-36269998D01*
X69094532Y-36270001D01*
X69114364Y-36496686D01*
X69114366Y-36496697D01*
X69173258Y-36716488D01*
X69173261Y-36716497D01*
X69269431Y-36922732D01*
X69269432Y-36922734D01*
X69399954Y-37109141D01*
X69560858Y-37270045D01*
X69560861Y-37270047D01*
X69747266Y-37400568D01*
X69789427Y-37420228D01*
X69805275Y-37427618D01*
X69857714Y-37473791D01*
X69876866Y-37540984D01*
X69856650Y-37607865D01*
X69805275Y-37652382D01*
X69747267Y-37679431D01*
X69747265Y-37679432D01*
X69560858Y-37809954D01*
X69399954Y-37970858D01*
X69269432Y-38157265D01*
X69269431Y-38157267D01*
X69173261Y-38363502D01*
X69173258Y-38363511D01*
X69114366Y-38583302D01*
X69114364Y-38583313D01*
X69094532Y-38809998D01*
X69094532Y-38810001D01*
X69114364Y-39036686D01*
X69114366Y-39036697D01*
X69173258Y-39256488D01*
X69173261Y-39256497D01*
X69269431Y-39462732D01*
X69269432Y-39462734D01*
X69399954Y-39649141D01*
X69560858Y-39810045D01*
X69560861Y-39810047D01*
X69747266Y-39940568D01*
X69805275Y-39967618D01*
X69857714Y-40013791D01*
X69876866Y-40080984D01*
X69856650Y-40147865D01*
X69805275Y-40192382D01*
X69747267Y-40219431D01*
X69747265Y-40219432D01*
X69560858Y-40349954D01*
X69399954Y-40510858D01*
X69269432Y-40697265D01*
X69269431Y-40697267D01*
X69173261Y-40903502D01*
X69173258Y-40903511D01*
X69114366Y-41123302D01*
X69114364Y-41123313D01*
X69094532Y-41349998D01*
X69094532Y-41350001D01*
X69114364Y-41576686D01*
X69114366Y-41576697D01*
X69173258Y-41796488D01*
X69173261Y-41796497D01*
X69269431Y-42002732D01*
X69269432Y-42002734D01*
X69399954Y-42189141D01*
X69560858Y-42350045D01*
X69560861Y-42350047D01*
X69747266Y-42480568D01*
X69805275Y-42507618D01*
X69857714Y-42553791D01*
X69876866Y-42620984D01*
X69856650Y-42687865D01*
X69805275Y-42732382D01*
X69747267Y-42759431D01*
X69747265Y-42759432D01*
X69560858Y-42889954D01*
X69399954Y-43050858D01*
X69269432Y-43237265D01*
X69269431Y-43237267D01*
X69173261Y-43443502D01*
X69173258Y-43443511D01*
X69114366Y-43663302D01*
X69114364Y-43663313D01*
X69094532Y-43889998D01*
X69094532Y-43890001D01*
X69114364Y-44116686D01*
X69114366Y-44116697D01*
X69173258Y-44336488D01*
X69173261Y-44336497D01*
X69269431Y-44542732D01*
X69269432Y-44542734D01*
X69399954Y-44729141D01*
X69560858Y-44890045D01*
X69560861Y-44890047D01*
X69747266Y-45020568D01*
X69805275Y-45047618D01*
X69857714Y-45093791D01*
X69876866Y-45160984D01*
X69856650Y-45227865D01*
X69805275Y-45272382D01*
X69747267Y-45299431D01*
X69747265Y-45299432D01*
X69560858Y-45429954D01*
X69399954Y-45590858D01*
X69269432Y-45777265D01*
X69269431Y-45777267D01*
X69173261Y-45983502D01*
X69173258Y-45983511D01*
X69114366Y-46203302D01*
X69114364Y-46203313D01*
X69094532Y-46429998D01*
X69094532Y-46430001D01*
X69114364Y-46656686D01*
X69114366Y-46656697D01*
X69173258Y-46876488D01*
X69173261Y-46876497D01*
X69269431Y-47082732D01*
X69269432Y-47082734D01*
X69399954Y-47269141D01*
X69560858Y-47430045D01*
X69560861Y-47430047D01*
X69747266Y-47560568D01*
X69774437Y-47573238D01*
X69805275Y-47587618D01*
X69857714Y-47633791D01*
X69876866Y-47700984D01*
X69856650Y-47767865D01*
X69805275Y-47812381D01*
X69805118Y-47812455D01*
X69747267Y-47839431D01*
X69747265Y-47839432D01*
X69560858Y-47969954D01*
X69399954Y-48130858D01*
X69269432Y-48317265D01*
X69269431Y-48317267D01*
X69173261Y-48523502D01*
X69173258Y-48523511D01*
X69114366Y-48743302D01*
X69114364Y-48743313D01*
X69094532Y-48969998D01*
X69094532Y-48970001D01*
X69114364Y-49196686D01*
X69114366Y-49196697D01*
X69173258Y-49416488D01*
X69173261Y-49416497D01*
X69269431Y-49622732D01*
X69269432Y-49622734D01*
X69399954Y-49809141D01*
X69560858Y-49970045D01*
X69560861Y-49970047D01*
X69747266Y-50100568D01*
X69805275Y-50127618D01*
X69857714Y-50173791D01*
X69876866Y-50240984D01*
X69856650Y-50307865D01*
X69805275Y-50352381D01*
X69805118Y-50352455D01*
X69747267Y-50379431D01*
X69747265Y-50379432D01*
X69560858Y-50509954D01*
X69399954Y-50670858D01*
X69269432Y-50857265D01*
X69269431Y-50857267D01*
X69173261Y-51063502D01*
X69173258Y-51063511D01*
X69114366Y-51283302D01*
X69114364Y-51283313D01*
X69094532Y-51509998D01*
X69094532Y-51510001D01*
X69114364Y-51736686D01*
X69114366Y-51736697D01*
X69173258Y-51956488D01*
X69173261Y-51956497D01*
X69269431Y-52162732D01*
X69269432Y-52162734D01*
X69399954Y-52349141D01*
X69560858Y-52510045D01*
X69560861Y-52510047D01*
X69747266Y-52640568D01*
X69805865Y-52667893D01*
X69858305Y-52714065D01*
X69877457Y-52781258D01*
X69857242Y-52848139D01*
X69805867Y-52892657D01*
X69747515Y-52919867D01*
X69561179Y-53050342D01*
X69400342Y-53211179D01*
X69269865Y-53397517D01*
X69173734Y-53603673D01*
X69173730Y-53603682D01*
X69121127Y-53799999D01*
X69121128Y-53800000D01*
X69966314Y-53800000D01*
X69940507Y-53840156D01*
X69900000Y-53978111D01*
X69900000Y-54121889D01*
X69940507Y-54259844D01*
X69966314Y-54300000D01*
X69121128Y-54300000D01*
X69173730Y-54496317D01*
X69173734Y-54496326D01*
X69269865Y-54702482D01*
X69400342Y-54888820D01*
X69561179Y-55049657D01*
X69747518Y-55180134D01*
X69747520Y-55180135D01*
X69805865Y-55207342D01*
X69858305Y-55253514D01*
X69877457Y-55320707D01*
X69857242Y-55387589D01*
X69805867Y-55432105D01*
X69747268Y-55459431D01*
X69747264Y-55459433D01*
X69560858Y-55589954D01*
X69399954Y-55750858D01*
X69269432Y-55937265D01*
X69269431Y-55937267D01*
X69173261Y-56143502D01*
X69173258Y-56143511D01*
X69114366Y-56363302D01*
X69114364Y-56363313D01*
X69094532Y-56589998D01*
X69094532Y-56590001D01*
X59005468Y-56590001D01*
X59005468Y-56590000D01*
X59001740Y-56547394D01*
X58999407Y-56520725D01*
X58985635Y-56363308D01*
X58926739Y-56143504D01*
X58830568Y-55937266D01*
X58700047Y-55750861D01*
X58700045Y-55750858D01*
X58539141Y-55589954D01*
X58352734Y-55459432D01*
X58352728Y-55459429D01*
X58294882Y-55432455D01*
X58294724Y-55432381D01*
X58242285Y-55386210D01*
X58223133Y-55319017D01*
X58243348Y-55252135D01*
X58294725Y-55207618D01*
X58295319Y-55207341D01*
X58352734Y-55180568D01*
X58539139Y-55050047D01*
X58700047Y-54889139D01*
X58830568Y-54702734D01*
X58926739Y-54496496D01*
X58985635Y-54276692D01*
X59005468Y-54050000D01*
X58985635Y-53823308D01*
X58926739Y-53603504D01*
X58830568Y-53397266D01*
X58700047Y-53210861D01*
X58700045Y-53210858D01*
X58539141Y-53049954D01*
X58352734Y-52919432D01*
X58352728Y-52919429D01*
X58294725Y-52892382D01*
X58242285Y-52846210D01*
X58223133Y-52779017D01*
X58243348Y-52712135D01*
X58294725Y-52667618D01*
X58352734Y-52640568D01*
X58539139Y-52510047D01*
X58700047Y-52349139D01*
X58830568Y-52162734D01*
X58926739Y-51956496D01*
X58985635Y-51736692D01*
X59005468Y-51510000D01*
X58985635Y-51283308D01*
X58926739Y-51063504D01*
X58830568Y-50857266D01*
X58700047Y-50670861D01*
X58700045Y-50670858D01*
X58539141Y-50509954D01*
X58352734Y-50379432D01*
X58352732Y-50379431D01*
X58146497Y-50283261D01*
X58146488Y-50283258D01*
X57926697Y-50224366D01*
X57926693Y-50224365D01*
X57926692Y-50224365D01*
X57926691Y-50224364D01*
X57926686Y-50224364D01*
X57700002Y-50204532D01*
X57699998Y-50204532D01*
X57473313Y-50224364D01*
X57473302Y-50224366D01*
X57253511Y-50283258D01*
X57253502Y-50283261D01*
X57047267Y-50379431D01*
X57047265Y-50379432D01*
X56860858Y-50509954D01*
X56699954Y-50670858D01*
X56569432Y-50857265D01*
X56569431Y-50857267D01*
X56473261Y-51063502D01*
X56473258Y-51063511D01*
X56414366Y-51283302D01*
X56414364Y-51283313D01*
X56394532Y-51509998D01*
X56394532Y-51510001D01*
X56414364Y-51736686D01*
X56414366Y-51736697D01*
X56473258Y-51956488D01*
X56473261Y-51956497D01*
X56569431Y-52162732D01*
X56569432Y-52162734D01*
X56699954Y-52349141D01*
X56860858Y-52510045D01*
X56860861Y-52510047D01*
X57047266Y-52640568D01*
X57105275Y-52667618D01*
X57157714Y-52713791D01*
X57176866Y-52780984D01*
X57156650Y-52847865D01*
X57105275Y-52892382D01*
X57047267Y-52919431D01*
X57047265Y-52919432D01*
X56860858Y-53049954D01*
X56699954Y-53210858D01*
X56569432Y-53397265D01*
X56569431Y-53397267D01*
X56473261Y-53603502D01*
X56473258Y-53603511D01*
X56414366Y-53823302D01*
X56414364Y-53823313D01*
X56394532Y-54049998D01*
X56394532Y-54050001D01*
X56414364Y-54276686D01*
X56414366Y-54276697D01*
X56473258Y-54496488D01*
X56473261Y-54496497D01*
X56569431Y-54702732D01*
X56569432Y-54702734D01*
X56699954Y-54889141D01*
X56860858Y-55050045D01*
X56900914Y-55078092D01*
X57047266Y-55180568D01*
X57104681Y-55207341D01*
X57105275Y-55207618D01*
X57157714Y-55253791D01*
X57176866Y-55320984D01*
X57156650Y-55387865D01*
X57105275Y-55432381D01*
X57105118Y-55432455D01*
X57047267Y-55459431D01*
X57047265Y-55459432D01*
X56860858Y-55589954D01*
X56699954Y-55750858D01*
X56569432Y-55937265D01*
X56569431Y-55937267D01*
X56473261Y-56143502D01*
X56473258Y-56143511D01*
X56414366Y-56363302D01*
X56414364Y-56363313D01*
X56394532Y-56589998D01*
X56394532Y-56590001D01*
X56414364Y-56816686D01*
X56414366Y-56816697D01*
X56473258Y-57036488D01*
X56473261Y-57036497D01*
X56569431Y-57242732D01*
X56569432Y-57242734D01*
X56699954Y-57429141D01*
X56860858Y-57590045D01*
X56860861Y-57590047D01*
X57047266Y-57720568D01*
X57105275Y-57747618D01*
X57157714Y-57793791D01*
X57176866Y-57860984D01*
X57156650Y-57927865D01*
X57105275Y-57972381D01*
X57104985Y-57972517D01*
X57047267Y-57999431D01*
X57047265Y-57999432D01*
X56860858Y-58129954D01*
X56699954Y-58290858D01*
X56569432Y-58477265D01*
X56569431Y-58477267D01*
X56473261Y-58683502D01*
X56473258Y-58683511D01*
X56414366Y-58903302D01*
X56414364Y-58903313D01*
X56394532Y-59129998D01*
X56394532Y-59130001D01*
X56414364Y-59356686D01*
X56414366Y-59356697D01*
X56473258Y-59576488D01*
X56473261Y-59576497D01*
X56569431Y-59782732D01*
X56569432Y-59782734D01*
X56699954Y-59969141D01*
X56860858Y-60130045D01*
X56860861Y-60130047D01*
X57047266Y-60260568D01*
X57105275Y-60287618D01*
X57157714Y-60333791D01*
X57176866Y-60400984D01*
X57156650Y-60467865D01*
X57105275Y-60512382D01*
X57047267Y-60539431D01*
X57047265Y-60539432D01*
X56860858Y-60669954D01*
X56699954Y-60830858D01*
X56569432Y-61017265D01*
X56569431Y-61017267D01*
X56473261Y-61223502D01*
X56473258Y-61223511D01*
X56414366Y-61443302D01*
X56414364Y-61443313D01*
X56394532Y-61669998D01*
X56394532Y-61670001D01*
X56414364Y-61896686D01*
X56414366Y-61896697D01*
X56473258Y-62116488D01*
X56473261Y-62116497D01*
X56569431Y-62322732D01*
X56569432Y-62322734D01*
X56699954Y-62509141D01*
X56860858Y-62670045D01*
X56860861Y-62670047D01*
X57047266Y-62800568D01*
X57105275Y-62827618D01*
X57157714Y-62873791D01*
X57176866Y-62940984D01*
X57156650Y-63007865D01*
X57105275Y-63052382D01*
X57047267Y-63079431D01*
X57047265Y-63079432D01*
X56860858Y-63209954D01*
X56699954Y-63370858D01*
X56569432Y-63557265D01*
X56569431Y-63557267D01*
X56473261Y-63763502D01*
X56473258Y-63763511D01*
X56414366Y-63983302D01*
X56414364Y-63983313D01*
X56394532Y-64209998D01*
X56394532Y-64210001D01*
X56414364Y-64436686D01*
X56414366Y-64436697D01*
X56473258Y-64656488D01*
X56473261Y-64656497D01*
X56569431Y-64862732D01*
X56569432Y-64862734D01*
X56699954Y-65049141D01*
X56860858Y-65210045D01*
X56860861Y-65210047D01*
X57047266Y-65340568D01*
X57105275Y-65367618D01*
X57157714Y-65413791D01*
X57176866Y-65480984D01*
X57156650Y-65547865D01*
X57105275Y-65592382D01*
X57047267Y-65619431D01*
X57047265Y-65619432D01*
X56860858Y-65749954D01*
X56699954Y-65910858D01*
X56569432Y-66097265D01*
X56569431Y-66097267D01*
X56473261Y-66303502D01*
X56473258Y-66303511D01*
X56414366Y-66523302D01*
X56414364Y-66523313D01*
X56394532Y-66749998D01*
X56394532Y-66750001D01*
X56414364Y-66976686D01*
X56414366Y-66976697D01*
X56473258Y-67196488D01*
X56473261Y-67196497D01*
X56569431Y-67402732D01*
X56569432Y-67402734D01*
X56699954Y-67589141D01*
X56860858Y-67750045D01*
X56860861Y-67750047D01*
X57047266Y-67880568D01*
X57253504Y-67976739D01*
X57473308Y-68035635D01*
X57635230Y-68049801D01*
X57699998Y-68055468D01*
X57700000Y-68055468D01*
X57700002Y-68055468D01*
X57756673Y-68050509D01*
X57926692Y-68035635D01*
X58146496Y-67976739D01*
X58352734Y-67880568D01*
X58539139Y-67750047D01*
X58700047Y-67589139D01*
X58760096Y-67503377D01*
X58814675Y-67459752D01*
X58861673Y-67450500D01*
X77996952Y-67450500D01*
X78000697Y-67450613D01*
X78008042Y-67451057D01*
X78062606Y-67454358D01*
X78100314Y-67447447D01*
X78123621Y-67443177D01*
X78127325Y-67442613D01*
X78145170Y-67440446D01*
X78188872Y-67435140D01*
X78198335Y-67431550D01*
X78219961Y-67425522D01*
X78220893Y-67425351D01*
X78229932Y-67423695D01*
X78286512Y-67398229D01*
X78289942Y-67396809D01*
X78347930Y-67374818D01*
X78356266Y-67369062D01*
X78375821Y-67358034D01*
X78385057Y-67353878D01*
X78433896Y-67315613D01*
X78436876Y-67313421D01*
X78487929Y-67278183D01*
X78529065Y-67231748D01*
X78531599Y-67229056D01*
X81039056Y-64721599D01*
X81041748Y-64719065D01*
X81088183Y-64677929D01*
X81123427Y-64626866D01*
X81125617Y-64623890D01*
X81163877Y-64575057D01*
X81168031Y-64565827D01*
X81179062Y-64546268D01*
X81180904Y-64543599D01*
X81184818Y-64537930D01*
X81206812Y-64479933D01*
X81208231Y-64476505D01*
X81233694Y-64419932D01*
X81235520Y-64409965D01*
X81241548Y-64388340D01*
X81245140Y-64378872D01*
X81252615Y-64317309D01*
X81253179Y-64313605D01*
X81257456Y-64290258D01*
X81264357Y-64252606D01*
X81261779Y-64209993D01*
X81260613Y-64190707D01*
X81260500Y-64186963D01*
X81260500Y-36611518D01*
X81280185Y-36544479D01*
X81296819Y-36523837D01*
X83353838Y-34466819D01*
X83415161Y-34433334D01*
X83441519Y-34430500D01*
X84478327Y-34430500D01*
X84545366Y-34450185D01*
X84579902Y-34483377D01*
X84639954Y-34569141D01*
X84800858Y-34730045D01*
X84800861Y-34730047D01*
X84987266Y-34860568D01*
X85045275Y-34887618D01*
X85097714Y-34933791D01*
X85116866Y-35000984D01*
X85096650Y-35067865D01*
X85045275Y-35112382D01*
X84987267Y-35139431D01*
X84987265Y-35139432D01*
X84800858Y-35269954D01*
X84639954Y-35430858D01*
X84509432Y-35617265D01*
X84509431Y-35617267D01*
X84413261Y-35823502D01*
X84413258Y-35823511D01*
X84354366Y-36043302D01*
X84354364Y-36043313D01*
X84334532Y-36269998D01*
X84334532Y-36270001D01*
X84354364Y-36496686D01*
X84354366Y-36496697D01*
X84413258Y-36716488D01*
X84413261Y-36716497D01*
X84509431Y-36922732D01*
X84509432Y-36922734D01*
X84639954Y-37109141D01*
X84800858Y-37270045D01*
X84800861Y-37270047D01*
X84987266Y-37400568D01*
X85029427Y-37420228D01*
X85045275Y-37427618D01*
X85097714Y-37473791D01*
X85116866Y-37540984D01*
X85096650Y-37607865D01*
X85045275Y-37652382D01*
X84987267Y-37679431D01*
X84987265Y-37679432D01*
X84800858Y-37809954D01*
X84639954Y-37970858D01*
X84509432Y-38157265D01*
X84509431Y-38157267D01*
X84413261Y-38363502D01*
X84413258Y-38363511D01*
X84354366Y-38583302D01*
X84354364Y-38583313D01*
X84334532Y-38809998D01*
X84334532Y-38810001D01*
X84354364Y-39036686D01*
X84354366Y-39036697D01*
X84413258Y-39256488D01*
X84413261Y-39256497D01*
X84509431Y-39462732D01*
X84509432Y-39462734D01*
X84639954Y-39649141D01*
X84800858Y-39810045D01*
X84800861Y-39810047D01*
X84987266Y-39940568D01*
X85045275Y-39967618D01*
X85097714Y-40013791D01*
X85116866Y-40080984D01*
X85096650Y-40147865D01*
X85045275Y-40192382D01*
X84987267Y-40219431D01*
X84987265Y-40219432D01*
X84800858Y-40349954D01*
X84639954Y-40510858D01*
X84509432Y-40697265D01*
X84509431Y-40697267D01*
X84413261Y-40903502D01*
X84413258Y-40903511D01*
X84354366Y-41123302D01*
X84354364Y-41123313D01*
X84334532Y-41349998D01*
X84334532Y-41350001D01*
X84354364Y-41576686D01*
X84354366Y-41576697D01*
X84413258Y-41796488D01*
X84413261Y-41796497D01*
X84509431Y-42002732D01*
X84509432Y-42002734D01*
X84639954Y-42189141D01*
X84800858Y-42350045D01*
X84800861Y-42350047D01*
X84987266Y-42480568D01*
X85045278Y-42507619D01*
X85097713Y-42553788D01*
X85116866Y-42620982D01*
X85096651Y-42687863D01*
X85045277Y-42732380D01*
X84987268Y-42759430D01*
X84987265Y-42759432D01*
X84800858Y-42889954D01*
X84639954Y-43050858D01*
X84509432Y-43237265D01*
X84509431Y-43237267D01*
X84413261Y-43443502D01*
X84413258Y-43443511D01*
X84354366Y-43663302D01*
X84354364Y-43663313D01*
X84334532Y-43889998D01*
X84334532Y-43890001D01*
X84354364Y-44116686D01*
X84354366Y-44116697D01*
X84413258Y-44336488D01*
X84413261Y-44336497D01*
X84509431Y-44542732D01*
X84509432Y-44542734D01*
X84639954Y-44729141D01*
X84800858Y-44890045D01*
X84800861Y-44890047D01*
X84987266Y-45020568D01*
X85045275Y-45047618D01*
X85097714Y-45093791D01*
X85116866Y-45160984D01*
X85096650Y-45227865D01*
X85045275Y-45272382D01*
X84987267Y-45299431D01*
X84987265Y-45299432D01*
X84800858Y-45429954D01*
X84639954Y-45590858D01*
X84509432Y-45777265D01*
X84509431Y-45777267D01*
X84413261Y-45983502D01*
X84413258Y-45983511D01*
X84354366Y-46203302D01*
X84354364Y-46203313D01*
X84334532Y-46429998D01*
X84334532Y-46430001D01*
X84354364Y-46656686D01*
X84354366Y-46656697D01*
X84413258Y-46876488D01*
X84413261Y-46876497D01*
X84509431Y-47082732D01*
X84509432Y-47082734D01*
X84639954Y-47269141D01*
X84800858Y-47430045D01*
X84800861Y-47430047D01*
X84987266Y-47560568D01*
X85014437Y-47573238D01*
X85045275Y-47587618D01*
X85097714Y-47633791D01*
X85116866Y-47700984D01*
X85096650Y-47767865D01*
X85045275Y-47812381D01*
X85045118Y-47812455D01*
X84987267Y-47839431D01*
X84987265Y-47839432D01*
X84800858Y-47969954D01*
X84639954Y-48130858D01*
X84509432Y-48317265D01*
X84509431Y-48317267D01*
X84413261Y-48523502D01*
X84413258Y-48523511D01*
X84354366Y-48743302D01*
X84354364Y-48743313D01*
X84334532Y-48969998D01*
X84334532Y-48970001D01*
X84354364Y-49196686D01*
X84354366Y-49196697D01*
X84413258Y-49416488D01*
X84413261Y-49416497D01*
X84509431Y-49622732D01*
X84509432Y-49622734D01*
X84639954Y-49809141D01*
X84800858Y-49970045D01*
X84800861Y-49970047D01*
X84987266Y-50100568D01*
X85045275Y-50127618D01*
X85097714Y-50173791D01*
X85116866Y-50240984D01*
X85096650Y-50307865D01*
X85045275Y-50352381D01*
X85045118Y-50352455D01*
X84987267Y-50379431D01*
X84987265Y-50379432D01*
X84800858Y-50509954D01*
X84639954Y-50670858D01*
X84509432Y-50857265D01*
X84509431Y-50857267D01*
X84413261Y-51063502D01*
X84413258Y-51063511D01*
X84354366Y-51283302D01*
X84354364Y-51283313D01*
X84334532Y-51509998D01*
X84334532Y-51510001D01*
X84354364Y-51736686D01*
X84354366Y-51736697D01*
X84413258Y-51956488D01*
X84413261Y-51956497D01*
X84509431Y-52162732D01*
X84509432Y-52162734D01*
X84639954Y-52349141D01*
X84800858Y-52510045D01*
X84800861Y-52510047D01*
X84987266Y-52640568D01*
X85045275Y-52667618D01*
X85097714Y-52713791D01*
X85116866Y-52780984D01*
X85096650Y-52847865D01*
X85045275Y-52892382D01*
X84987267Y-52919431D01*
X84987265Y-52919432D01*
X84800858Y-53049954D01*
X84639954Y-53210858D01*
X84509432Y-53397265D01*
X84509431Y-53397267D01*
X84413261Y-53603502D01*
X84413258Y-53603511D01*
X84354366Y-53823302D01*
X84354364Y-53823313D01*
X84334532Y-54049998D01*
X84334532Y-54050001D01*
X84354364Y-54276686D01*
X84354366Y-54276697D01*
X84413258Y-54496488D01*
X84413261Y-54496497D01*
X84509431Y-54702732D01*
X84509432Y-54702734D01*
X84639954Y-54889141D01*
X84800858Y-55050045D01*
X84825462Y-55067273D01*
X84869087Y-55121849D01*
X84876281Y-55191348D01*
X84844758Y-55253703D01*
X84784529Y-55289117D01*
X84767593Y-55292138D01*
X84732516Y-55295908D01*
X84597671Y-55346202D01*
X84597664Y-55346206D01*
X84482455Y-55432452D01*
X84482452Y-55432455D01*
X84396206Y-55547664D01*
X84396202Y-55547671D01*
X84345908Y-55682517D01*
X84339501Y-55742116D01*
X84339501Y-55742123D01*
X84339500Y-55742135D01*
X84339500Y-57437870D01*
X84339501Y-57437876D01*
X84345908Y-57497483D01*
X84396202Y-57632328D01*
X84396206Y-57632335D01*
X84482452Y-57747544D01*
X84482455Y-57747547D01*
X84597664Y-57833793D01*
X84597671Y-57833797D01*
X84608053Y-57837669D01*
X84732517Y-57884091D01*
X84792127Y-57890500D01*
X84815497Y-57890499D01*
X84882536Y-57910181D01*
X84928292Y-57962983D01*
X84939500Y-58014499D01*
X84939500Y-63868481D01*
X84919815Y-63935520D01*
X84903181Y-63956162D01*
X80306162Y-68553181D01*
X80244839Y-68586666D01*
X80218481Y-68589500D01*
X55501519Y-68589500D01*
X55434480Y-68569815D01*
X55413838Y-68553181D01*
X53356819Y-66496161D01*
X53323334Y-66434838D01*
X53320500Y-66408480D01*
X53320500Y-56613035D01*
X53320613Y-56609290D01*
X53324357Y-56547394D01*
X53313177Y-56486386D01*
X53312615Y-56482689D01*
X53305140Y-56421129D01*
X53305139Y-56421125D01*
X53301546Y-56411651D01*
X53295519Y-56390029D01*
X53293694Y-56380070D01*
X53293694Y-56380068D01*
X53268239Y-56323512D01*
X53266809Y-56320057D01*
X53264035Y-56312743D01*
X53244818Y-56262070D01*
X53239059Y-56253727D01*
X53228030Y-56234172D01*
X53223877Y-56224943D01*
X53223874Y-56224938D01*
X53185633Y-56176127D01*
X53183413Y-56173110D01*
X53162977Y-56143504D01*
X53148183Y-56122071D01*
X53101750Y-56080935D01*
X53099056Y-56078399D01*
X51401027Y-54380370D01*
X51367542Y-54319047D01*
X51365180Y-54281881D01*
X51365633Y-54276697D01*
X51365635Y-54276692D01*
X51385468Y-54050000D01*
X51365635Y-53823308D01*
X51306739Y-53603504D01*
X51210568Y-53397266D01*
X51080047Y-53210861D01*
X50919139Y-53049953D01*
X50894535Y-53032725D01*
X50850912Y-52978149D01*
X50843719Y-52908650D01*
X50875241Y-52846296D01*
X50935471Y-52810882D01*
X50952404Y-52807861D01*
X50987483Y-52804091D01*
X51122331Y-52753796D01*
X51237546Y-52667546D01*
X51323796Y-52552331D01*
X51374091Y-52417483D01*
X51380500Y-52357873D01*
X51380499Y-50662128D01*
X51374091Y-50602517D01*
X51339567Y-50509954D01*
X51323797Y-50467671D01*
X51323793Y-50467664D01*
X51237547Y-50352455D01*
X51237544Y-50352452D01*
X51122335Y-50266206D01*
X51122328Y-50266202D01*
X50987482Y-50215908D01*
X50987483Y-50215908D01*
X50927883Y-50209501D01*
X50927881Y-50209500D01*
X50927873Y-50209500D01*
X50927864Y-50209500D01*
X49232129Y-50209500D01*
X49232123Y-50209501D01*
X49172516Y-50215908D01*
X49037671Y-50266202D01*
X49037664Y-50266206D01*
X48922455Y-50352452D01*
X48922452Y-50352455D01*
X48836206Y-50467664D01*
X48836202Y-50467671D01*
X48785908Y-50602517D01*
X48779501Y-50662116D01*
X48779501Y-50662123D01*
X48779500Y-50662135D01*
X48779500Y-52357870D01*
X48779501Y-52357876D01*
X48785908Y-52417483D01*
X48836202Y-52552328D01*
X48836206Y-52552335D01*
X48922452Y-52667544D01*
X48922455Y-52667547D01*
X49037664Y-52753793D01*
X49037671Y-52753797D01*
X49082618Y-52770561D01*
X49172517Y-52804091D01*
X49207596Y-52807862D01*
X49272144Y-52834599D01*
X49311993Y-52891991D01*
X49314488Y-52961816D01*
X49278836Y-53021905D01*
X49265465Y-53032724D01*
X49240866Y-53049949D01*
X49240863Y-53049951D01*
X49079951Y-53210862D01*
X48949432Y-53397265D01*
X48949431Y-53397267D01*
X48853261Y-53603502D01*
X48853258Y-53603511D01*
X48794366Y-53823302D01*
X48794364Y-53823313D01*
X48774532Y-54049998D01*
X48774532Y-54050001D01*
X48794364Y-54276686D01*
X48794366Y-54276697D01*
X48853258Y-54496488D01*
X48853261Y-54496497D01*
X48949431Y-54702732D01*
X48949432Y-54702734D01*
X49079954Y-54889141D01*
X49240858Y-55050045D01*
X49280914Y-55078092D01*
X49427266Y-55180568D01*
X49484681Y-55207341D01*
X49485275Y-55207618D01*
X49537714Y-55253791D01*
X49556866Y-55320984D01*
X49536650Y-55387865D01*
X49485275Y-55432381D01*
X49485118Y-55432455D01*
X49427267Y-55459431D01*
X49427265Y-55459432D01*
X49240858Y-55589954D01*
X49079954Y-55750858D01*
X48949432Y-55937265D01*
X48949431Y-55937267D01*
X48853261Y-56143502D01*
X48853258Y-56143511D01*
X48794366Y-56363302D01*
X48794364Y-56363313D01*
X48774532Y-56589998D01*
X48774532Y-56590001D01*
X48794364Y-56816686D01*
X48794366Y-56816697D01*
X48853258Y-57036488D01*
X48853261Y-57036497D01*
X48949431Y-57242732D01*
X48949432Y-57242734D01*
X49079954Y-57429141D01*
X49240858Y-57590045D01*
X49240861Y-57590047D01*
X49427266Y-57720568D01*
X49485275Y-57747618D01*
X49537714Y-57793791D01*
X49556866Y-57860984D01*
X49536650Y-57927865D01*
X49485275Y-57972381D01*
X49484985Y-57972517D01*
X49427267Y-57999431D01*
X49427265Y-57999432D01*
X49240858Y-58129954D01*
X49079954Y-58290858D01*
X48949432Y-58477265D01*
X48949431Y-58477267D01*
X48853261Y-58683502D01*
X48853258Y-58683511D01*
X48794366Y-58903302D01*
X48794364Y-58903313D01*
X48774532Y-59129998D01*
X48774532Y-59130001D01*
X48794364Y-59356686D01*
X48794366Y-59356697D01*
X48853258Y-59576488D01*
X48853261Y-59576497D01*
X48949431Y-59782732D01*
X48949432Y-59782734D01*
X49079954Y-59969141D01*
X49240858Y-60130045D01*
X49380587Y-60227883D01*
X49427266Y-60260568D01*
X49485278Y-60287619D01*
X49537713Y-60333788D01*
X49556866Y-60400982D01*
X49536651Y-60467863D01*
X49485277Y-60512380D01*
X49427268Y-60539430D01*
X49427265Y-60539432D01*
X49240858Y-60669954D01*
X49079954Y-60830858D01*
X48949432Y-61017265D01*
X48949431Y-61017267D01*
X48853261Y-61223502D01*
X48853258Y-61223511D01*
X48794366Y-61443302D01*
X48794364Y-61443313D01*
X48774532Y-61669998D01*
X48774532Y-61670001D01*
X48794364Y-61896686D01*
X48794366Y-61896697D01*
X48853258Y-62116488D01*
X48853261Y-62116497D01*
X48949431Y-62322732D01*
X48949432Y-62322734D01*
X49079954Y-62509141D01*
X49240858Y-62670045D01*
X49240861Y-62670047D01*
X49427266Y-62800568D01*
X49485278Y-62827619D01*
X49537713Y-62873788D01*
X49556866Y-62940982D01*
X49536651Y-63007863D01*
X49485277Y-63052380D01*
X49427268Y-63079430D01*
X49427265Y-63079432D01*
X49240858Y-63209954D01*
X49079954Y-63370858D01*
X48949432Y-63557265D01*
X48949431Y-63557267D01*
X48853261Y-63763502D01*
X48853258Y-63763511D01*
X48794366Y-63983302D01*
X48794364Y-63983313D01*
X48774532Y-64209998D01*
X48774532Y-64210001D01*
X23360500Y-64210001D01*
X23360500Y-56590000D01*
X26384706Y-56590000D01*
X26403853Y-56833297D01*
X26403853Y-56833300D01*
X26403854Y-56833302D01*
X26452637Y-57036496D01*
X26460830Y-57070619D01*
X26554222Y-57296089D01*
X26667449Y-57480857D01*
X26685694Y-57548303D01*
X26664578Y-57614905D01*
X26636034Y-57644913D01*
X26532452Y-57722455D01*
X26446206Y-57837664D01*
X26446202Y-57837671D01*
X26395908Y-57972517D01*
X26389501Y-58032116D01*
X26389501Y-58032123D01*
X26389500Y-58032135D01*
X26389500Y-60227870D01*
X26389501Y-60227876D01*
X26395908Y-60287483D01*
X26446202Y-60422328D01*
X26446206Y-60422335D01*
X26532452Y-60537544D01*
X26532455Y-60537547D01*
X26647664Y-60623793D01*
X26647671Y-60623797D01*
X26782517Y-60674091D01*
X26782516Y-60674091D01*
X26789444Y-60674835D01*
X26842127Y-60680500D01*
X29037872Y-60680499D01*
X29097483Y-60674091D01*
X29232331Y-60623796D01*
X29347546Y-60537546D01*
X29433796Y-60422331D01*
X29484091Y-60287483D01*
X29490500Y-60227873D01*
X29490499Y-58032128D01*
X29484091Y-57972517D01*
X29474745Y-57947460D01*
X29433797Y-57837671D01*
X29433793Y-57837664D01*
X29347547Y-57722455D01*
X29347544Y-57722452D01*
X29243966Y-57644913D01*
X29202095Y-57588979D01*
X29197111Y-57519288D01*
X29212548Y-57480860D01*
X29325777Y-57296089D01*
X29419172Y-57070612D01*
X29476146Y-56833302D01*
X29495294Y-56590000D01*
X29495294Y-56589999D01*
X38314551Y-56589999D01*
X38334317Y-56841151D01*
X38393126Y-57086110D01*
X38489533Y-57318859D01*
X38621160Y-57533653D01*
X38621161Y-57533656D01*
X38621164Y-57533659D01*
X38784776Y-57725224D01*
X38933066Y-57851875D01*
X38976343Y-57888838D01*
X38976346Y-57888839D01*
X39191140Y-58020466D01*
X39423888Y-58116873D01*
X39423889Y-58116873D01*
X39668852Y-58175683D01*
X39920000Y-58195449D01*
X40171148Y-58175683D01*
X40416111Y-58116873D01*
X40648859Y-58020466D01*
X40863659Y-57888836D01*
X41055224Y-57725224D01*
X41218836Y-57533659D01*
X41350466Y-57318859D01*
X41446873Y-57086111D01*
X41505683Y-56841148D01*
X41525449Y-56590000D01*
X41505683Y-56338852D01*
X41446873Y-56093889D01*
X41440450Y-56078383D01*
X41350466Y-55861140D01*
X41218839Y-55646346D01*
X41218838Y-55646343D01*
X41170676Y-55589953D01*
X41055224Y-55454776D01*
X40898574Y-55320984D01*
X40863656Y-55291161D01*
X40863653Y-55291160D01*
X40648859Y-55159533D01*
X40416110Y-55063126D01*
X40171151Y-55004317D01*
X39920000Y-54984551D01*
X39668848Y-55004317D01*
X39423889Y-55063126D01*
X39191140Y-55159533D01*
X38976346Y-55291160D01*
X38976343Y-55291161D01*
X38784776Y-55454776D01*
X38621161Y-55646343D01*
X38621160Y-55646346D01*
X38489533Y-55861140D01*
X38393126Y-56093889D01*
X38334317Y-56338848D01*
X38314551Y-56589999D01*
X29495294Y-56589999D01*
X29476146Y-56346698D01*
X29419172Y-56109388D01*
X29407393Y-56080951D01*
X29325777Y-55883910D01*
X29198262Y-55675826D01*
X29198261Y-55675823D01*
X29162453Y-55633897D01*
X29039759Y-55490241D01*
X28891084Y-55363261D01*
X28854176Y-55331738D01*
X28854173Y-55331737D01*
X28646089Y-55204222D01*
X28420618Y-55110830D01*
X28420621Y-55110830D01*
X28221926Y-55063127D01*
X28183302Y-55053854D01*
X28183300Y-55053853D01*
X28183297Y-55053853D01*
X27940000Y-55034706D01*
X27696702Y-55053853D01*
X27459380Y-55110830D01*
X27233910Y-55204222D01*
X27025826Y-55331737D01*
X27025823Y-55331738D01*
X26840241Y-55490241D01*
X26681738Y-55675823D01*
X26681737Y-55675826D01*
X26554222Y-55883910D01*
X26460830Y-56109380D01*
X26460828Y-56109387D01*
X26460828Y-56109388D01*
X26445159Y-56174655D01*
X26403853Y-56346702D01*
X26384706Y-56590000D01*
X23360500Y-56590000D01*
X23360500Y-48780005D01*
X28356057Y-48780005D01*
X28375807Y-49093942D01*
X28375808Y-49093949D01*
X28434755Y-49402958D01*
X28531963Y-49702132D01*
X28531965Y-49702137D01*
X28665900Y-49986761D01*
X28665903Y-49986767D01*
X28834457Y-50252367D01*
X28834460Y-50252371D01*
X28925286Y-50362160D01*
X29563266Y-49724180D01*
X29726130Y-49914870D01*
X29916818Y-50077732D01*
X29275971Y-50718579D01*
X29275972Y-50718581D01*
X29518772Y-50894985D01*
X29518790Y-50894996D01*
X29794447Y-51046540D01*
X29794455Y-51046544D01*
X30086926Y-51162340D01*
X30391620Y-51240573D01*
X30391629Y-51240575D01*
X30703701Y-51279999D01*
X30703715Y-51280000D01*
X31018285Y-51280000D01*
X31018298Y-51279999D01*
X31330370Y-51240575D01*
X31330379Y-51240573D01*
X31635073Y-51162340D01*
X31927544Y-51046544D01*
X31927552Y-51046540D01*
X32203209Y-50894996D01*
X32203219Y-50894990D01*
X32446026Y-50718579D01*
X32446027Y-50718579D01*
X31805180Y-50077733D01*
X31995870Y-49914870D01*
X32158733Y-49724181D01*
X32796712Y-50362160D01*
X32887544Y-50252364D01*
X33056096Y-49986767D01*
X33056099Y-49986761D01*
X33190034Y-49702137D01*
X33190036Y-49702132D01*
X33287244Y-49402958D01*
X33346191Y-49093949D01*
X33346192Y-49093942D01*
X33365943Y-48780005D01*
X33365943Y-48779994D01*
X33346192Y-48466057D01*
X33346191Y-48466050D01*
X33287244Y-48157041D01*
X33190036Y-47857867D01*
X33190034Y-47857862D01*
X33056099Y-47573238D01*
X33056096Y-47573232D01*
X32887542Y-47307632D01*
X32887539Y-47307628D01*
X32796712Y-47197838D01*
X32158732Y-47835818D01*
X31995870Y-47645130D01*
X31805180Y-47482266D01*
X32446027Y-46841419D01*
X32446026Y-46841417D01*
X32203227Y-46665014D01*
X32203209Y-46665003D01*
X31927552Y-46513459D01*
X31927544Y-46513455D01*
X31716763Y-46430002D01*
X48775034Y-46430002D01*
X48794858Y-46656599D01*
X48794860Y-46656610D01*
X48853730Y-46876317D01*
X48853734Y-46876326D01*
X48949865Y-47082481D01*
X48949866Y-47082483D01*
X49000973Y-47155471D01*
X49000974Y-47155472D01*
X49682046Y-46474399D01*
X49694835Y-46555148D01*
X49752359Y-46668045D01*
X49841955Y-46757641D01*
X49954852Y-46815165D01*
X50035599Y-46827953D01*
X49354526Y-47509025D01*
X49354526Y-47509026D01*
X49427512Y-47560131D01*
X49427516Y-47560133D01*
X49633673Y-47656265D01*
X49633682Y-47656269D01*
X49853389Y-47715139D01*
X49853400Y-47715141D01*
X50079998Y-47734966D01*
X50080002Y-47734966D01*
X50306599Y-47715141D01*
X50306610Y-47715139D01*
X50526317Y-47656269D01*
X50526331Y-47656264D01*
X50732478Y-47560136D01*
X50805472Y-47509025D01*
X50124401Y-46827953D01*
X50205148Y-46815165D01*
X50318045Y-46757641D01*
X50407641Y-46668045D01*
X50465165Y-46555148D01*
X50477953Y-46474400D01*
X51159025Y-47155472D01*
X51210136Y-47082478D01*
X51306264Y-46876331D01*
X51306269Y-46876317D01*
X51365139Y-46656610D01*
X51365141Y-46656599D01*
X51384966Y-46430002D01*
X51384966Y-46430001D01*
X53774532Y-46430001D01*
X53794364Y-46656686D01*
X53794366Y-46656697D01*
X53853258Y-46876488D01*
X53853261Y-46876497D01*
X53949431Y-47082732D01*
X53949432Y-47082734D01*
X54079954Y-47269141D01*
X54240858Y-47430045D01*
X54240861Y-47430047D01*
X54427266Y-47560568D01*
X54633504Y-47656739D01*
X54633509Y-47656740D01*
X54633511Y-47656741D01*
X54681129Y-47669500D01*
X54853308Y-47715635D01*
X55015230Y-47729801D01*
X55079998Y-47735468D01*
X55080000Y-47735468D01*
X55080002Y-47735468D01*
X55136673Y-47730509D01*
X55306692Y-47715635D01*
X55526496Y-47656739D01*
X55732734Y-47560568D01*
X55919139Y-47430047D01*
X56080047Y-47269139D01*
X56210568Y-47082734D01*
X56306739Y-46876496D01*
X56365635Y-46656692D01*
X56385468Y-46430000D01*
X56365635Y-46203308D01*
X56306739Y-45983504D01*
X56210568Y-45777266D01*
X56080047Y-45590861D01*
X56080045Y-45590858D01*
X55919141Y-45429954D01*
X55732734Y-45299432D01*
X55732732Y-45299431D01*
X55526497Y-45203261D01*
X55526488Y-45203258D01*
X55306697Y-45144366D01*
X55306693Y-45144365D01*
X55306692Y-45144365D01*
X55306691Y-45144364D01*
X55306686Y-45144364D01*
X55080002Y-45124532D01*
X55079998Y-45124532D01*
X54853313Y-45144364D01*
X54853302Y-45144366D01*
X54633511Y-45203258D01*
X54633502Y-45203261D01*
X54427267Y-45299431D01*
X54427265Y-45299432D01*
X54240858Y-45429954D01*
X54079954Y-45590858D01*
X53949432Y-45777265D01*
X53949431Y-45777267D01*
X53853261Y-45983502D01*
X53853258Y-45983511D01*
X53794366Y-46203302D01*
X53794364Y-46203313D01*
X53774532Y-46429998D01*
X53774532Y-46430001D01*
X51384966Y-46430001D01*
X51384966Y-46429997D01*
X51365141Y-46203400D01*
X51365139Y-46203389D01*
X51306269Y-45983682D01*
X51306265Y-45983673D01*
X51210133Y-45777516D01*
X51210131Y-45777512D01*
X51159026Y-45704526D01*
X51159025Y-45704526D01*
X50477953Y-46385598D01*
X50465165Y-46304852D01*
X50407641Y-46191955D01*
X50318045Y-46102359D01*
X50205148Y-46044835D01*
X50124400Y-46032046D01*
X50805472Y-45350974D01*
X50805471Y-45350973D01*
X50732483Y-45299866D01*
X50732481Y-45299865D01*
X50526326Y-45203734D01*
X50526317Y-45203730D01*
X50306610Y-45144860D01*
X50306599Y-45144858D01*
X50080002Y-45125034D01*
X50079998Y-45125034D01*
X49853400Y-45144858D01*
X49853389Y-45144860D01*
X49633682Y-45203730D01*
X49633673Y-45203734D01*
X49427513Y-45299868D01*
X49354527Y-45350972D01*
X49354526Y-45350973D01*
X50035600Y-46032046D01*
X49954852Y-46044835D01*
X49841955Y-46102359D01*
X49752359Y-46191955D01*
X49694835Y-46304852D01*
X49682046Y-46385599D01*
X49000973Y-45704526D01*
X49000972Y-45704527D01*
X48949868Y-45777513D01*
X48853734Y-45983673D01*
X48853730Y-45983682D01*
X48794860Y-46203389D01*
X48794858Y-46203400D01*
X48775034Y-46429997D01*
X48775034Y-46430002D01*
X31716763Y-46430002D01*
X31635073Y-46397659D01*
X31330379Y-46319426D01*
X31330370Y-46319424D01*
X31018298Y-46280000D01*
X30703701Y-46280000D01*
X30391629Y-46319424D01*
X30391620Y-46319426D01*
X30086926Y-46397659D01*
X29794455Y-46513455D01*
X29794447Y-46513459D01*
X29518787Y-46665004D01*
X29518782Y-46665007D01*
X29275972Y-46841418D01*
X29275971Y-46841419D01*
X29916819Y-47482266D01*
X29726130Y-47645130D01*
X29563266Y-47835818D01*
X28925286Y-47197838D01*
X28925285Y-47197838D01*
X28834459Y-47307629D01*
X28834457Y-47307632D01*
X28665903Y-47573232D01*
X28665900Y-47573238D01*
X28531965Y-47857862D01*
X28531963Y-47857867D01*
X28434755Y-48157041D01*
X28375808Y-48466050D01*
X28375807Y-48466057D01*
X28356057Y-48779994D01*
X28356057Y-48780005D01*
X23360500Y-48780005D01*
X23360500Y-40435001D01*
X27015532Y-40435001D01*
X27035364Y-40661686D01*
X27035366Y-40661697D01*
X27094258Y-40881488D01*
X27094261Y-40881497D01*
X27190431Y-41087732D01*
X27190432Y-41087734D01*
X27320954Y-41274141D01*
X27481858Y-41435045D01*
X27481861Y-41435047D01*
X27668266Y-41565568D01*
X27874504Y-41661739D01*
X28094308Y-41720635D01*
X28256230Y-41734801D01*
X28320998Y-41740468D01*
X28321000Y-41740468D01*
X28321002Y-41740468D01*
X28377672Y-41735509D01*
X28547692Y-41720635D01*
X28767496Y-41661739D01*
X28973734Y-41565568D01*
X29160139Y-41435047D01*
X29321047Y-41274139D01*
X29451568Y-41087734D01*
X29547739Y-40881496D01*
X29606635Y-40661692D01*
X29626468Y-40435000D01*
X29606635Y-40208308D01*
X29547739Y-39988504D01*
X29451568Y-39782266D01*
X29321047Y-39595861D01*
X29321045Y-39595858D01*
X29160141Y-39434954D01*
X28973734Y-39304432D01*
X28973732Y-39304431D01*
X28767497Y-39208261D01*
X28767488Y-39208258D01*
X28644966Y-39175429D01*
X28623862Y-39169774D01*
X28564202Y-39133410D01*
X28533673Y-39070563D01*
X28536132Y-39050001D01*
X29855532Y-39050001D01*
X29875364Y-39276686D01*
X29875366Y-39276697D01*
X29934258Y-39496488D01*
X29934261Y-39496497D01*
X30030431Y-39702732D01*
X30030432Y-39702734D01*
X30160954Y-39889141D01*
X30321858Y-40050045D01*
X30321861Y-40050047D01*
X30508266Y-40180568D01*
X30714504Y-40276739D01*
X30714506Y-40276739D01*
X30719598Y-40278593D01*
X30718836Y-40280684D01*
X30770343Y-40312047D01*
X30800902Y-40374880D01*
X30792639Y-40444260D01*
X30748179Y-40498158D01*
X30681637Y-40519463D01*
X30678628Y-40519500D01*
X30313130Y-40519500D01*
X30313123Y-40519501D01*
X30253516Y-40525908D01*
X30118671Y-40576202D01*
X30118664Y-40576206D01*
X30003455Y-40662452D01*
X30003452Y-40662455D01*
X29917206Y-40777664D01*
X29917202Y-40777671D01*
X29866908Y-40912517D01*
X29860501Y-40972116D01*
X29860501Y-40972123D01*
X29860500Y-40972135D01*
X29860500Y-42667870D01*
X29860501Y-42667876D01*
X29866908Y-42727483D01*
X29917202Y-42862328D01*
X29917206Y-42862335D01*
X30003452Y-42977544D01*
X30003455Y-42977547D01*
X30118664Y-43063793D01*
X30118671Y-43063797D01*
X30253517Y-43114091D01*
X30253516Y-43114091D01*
X30260444Y-43114835D01*
X30313127Y-43120500D01*
X32008872Y-43120499D01*
X32068483Y-43114091D01*
X32203331Y-43063796D01*
X32318546Y-42977546D01*
X32404796Y-42862331D01*
X32455091Y-42727483D01*
X32461500Y-42667873D01*
X32461499Y-40972128D01*
X32455091Y-40912517D01*
X32453197Y-40907440D01*
X32404797Y-40777671D01*
X32404793Y-40777664D01*
X32318547Y-40662455D01*
X32318544Y-40662452D01*
X32203335Y-40576206D01*
X32203328Y-40576202D01*
X32068482Y-40525908D01*
X32068483Y-40525908D01*
X32008883Y-40519501D01*
X32008881Y-40519500D01*
X32008873Y-40519500D01*
X32008865Y-40519500D01*
X31643373Y-40519500D01*
X31576334Y-40499815D01*
X31530579Y-40447011D01*
X31520635Y-40377853D01*
X31549660Y-40314297D01*
X31602935Y-40280059D01*
X31602402Y-40278593D01*
X31607489Y-40276740D01*
X31607496Y-40276739D01*
X31813734Y-40180568D01*
X32000139Y-40050047D01*
X32161047Y-39889139D01*
X32291568Y-39702734D01*
X32387739Y-39496496D01*
X32446635Y-39276692D01*
X32466468Y-39050000D01*
X32462197Y-39001188D01*
X32446635Y-38823313D01*
X32446635Y-38823308D01*
X32387739Y-38603504D01*
X32291568Y-38397266D01*
X32161047Y-38210861D01*
X32161045Y-38210858D01*
X32000141Y-38049954D01*
X31813734Y-37919432D01*
X31813732Y-37919431D01*
X31607497Y-37823261D01*
X31607488Y-37823258D01*
X31484966Y-37790429D01*
X31463862Y-37784774D01*
X31404202Y-37748410D01*
X31373673Y-37685563D01*
X31381968Y-37616188D01*
X31426453Y-37562310D01*
X31463862Y-37545225D01*
X31607496Y-37506739D01*
X31813734Y-37410568D01*
X32000139Y-37280047D01*
X32161047Y-37119139D01*
X32291568Y-36932734D01*
X32387739Y-36726496D01*
X32436275Y-36545357D01*
X42705000Y-36545357D01*
X42719829Y-36695932D01*
X42778443Y-36889154D01*
X42873615Y-37067209D01*
X42873620Y-37067215D01*
X43001707Y-37223292D01*
X43157784Y-37351379D01*
X43157790Y-37351384D01*
X43335846Y-37446557D01*
X43480000Y-37490285D01*
X43480000Y-36550617D01*
X43549052Y-36604363D01*
X43667424Y-36645000D01*
X43761073Y-36645000D01*
X43853446Y-36629586D01*
X43963514Y-36570019D01*
X43975630Y-36556856D01*
X43979701Y-36598190D01*
X43980000Y-36604270D01*
X43980000Y-37490285D01*
X44124151Y-37446557D01*
X44306014Y-37349348D01*
X44374416Y-37335106D01*
X44422921Y-37349348D01*
X44605654Y-37447021D01*
X44605656Y-37447021D01*
X44605659Y-37447023D01*
X44798967Y-37505662D01*
X45000000Y-37525462D01*
X45201033Y-37505662D01*
X45394341Y-37447023D01*
X45394344Y-37447021D01*
X45395423Y-37446694D01*
X45465290Y-37446070D01*
X45494380Y-37460470D01*
X45494886Y-37459546D01*
X45502671Y-37463797D01*
X45637517Y-37514091D01*
X45637516Y-37514091D01*
X45644444Y-37514835D01*
X45697127Y-37520500D01*
X46842872Y-37520499D01*
X46902483Y-37514091D01*
X47037331Y-37463796D01*
X47152546Y-37377546D01*
X47238796Y-37262331D01*
X47289091Y-37127483D01*
X47295500Y-37067873D01*
X47295500Y-36270001D01*
X48774532Y-36270001D01*
X48794364Y-36496686D01*
X48794366Y-36496697D01*
X48853258Y-36716488D01*
X48853261Y-36716497D01*
X48949431Y-36922732D01*
X48949432Y-36922734D01*
X49079954Y-37109141D01*
X49240858Y-37270045D01*
X49240861Y-37270047D01*
X49427266Y-37400568D01*
X49633504Y-37496739D01*
X49633509Y-37496740D01*
X49633511Y-37496741D01*
X49666805Y-37505662D01*
X49853308Y-37555635D01*
X50015230Y-37569801D01*
X50079998Y-37575468D01*
X50080000Y-37575468D01*
X50080002Y-37575468D01*
X50136673Y-37570509D01*
X50306692Y-37555635D01*
X50526496Y-37496739D01*
X50732734Y-37400568D01*
X50919139Y-37270047D01*
X51080047Y-37109139D01*
X51210568Y-36922734D01*
X51306739Y-36716496D01*
X51365635Y-36496692D01*
X51385468Y-36270001D01*
X56394532Y-36270001D01*
X56414364Y-36496686D01*
X56414366Y-36496697D01*
X56473258Y-36716488D01*
X56473261Y-36716497D01*
X56569431Y-36922732D01*
X56569432Y-36922734D01*
X56699954Y-37109141D01*
X56860858Y-37270045D01*
X56860861Y-37270047D01*
X57047266Y-37400568D01*
X57253504Y-37496739D01*
X57253509Y-37496740D01*
X57253511Y-37496741D01*
X57286805Y-37505662D01*
X57473308Y-37555635D01*
X57635230Y-37569801D01*
X57699998Y-37575468D01*
X57700000Y-37575468D01*
X57700002Y-37575468D01*
X57756673Y-37570509D01*
X57926692Y-37555635D01*
X58146496Y-37496739D01*
X58352734Y-37400568D01*
X58539139Y-37270047D01*
X58700047Y-37109139D01*
X58830568Y-36922734D01*
X58926739Y-36716496D01*
X58985635Y-36496692D01*
X59005468Y-36270000D01*
X59001740Y-36227394D01*
X58999045Y-36196590D01*
X58985635Y-36043308D01*
X58940859Y-35876201D01*
X58926741Y-35823511D01*
X58926738Y-35823502D01*
X58830568Y-35617266D01*
X58700047Y-35430861D01*
X58700045Y-35430858D01*
X58539141Y-35269954D01*
X58352734Y-35139432D01*
X58352732Y-35139431D01*
X58146497Y-35043261D01*
X58146488Y-35043258D01*
X57926697Y-34984366D01*
X57926693Y-34984365D01*
X57926692Y-34984365D01*
X57926691Y-34984364D01*
X57926686Y-34984364D01*
X57700002Y-34964532D01*
X57699998Y-34964532D01*
X57473313Y-34984364D01*
X57473302Y-34984366D01*
X57253511Y-35043258D01*
X57253502Y-35043261D01*
X57047267Y-35139431D01*
X57047265Y-35139432D01*
X56860858Y-35269954D01*
X56699954Y-35430858D01*
X56569432Y-35617265D01*
X56569431Y-35617267D01*
X56473261Y-35823502D01*
X56473258Y-35823511D01*
X56414366Y-36043302D01*
X56414364Y-36043313D01*
X56394532Y-36269998D01*
X56394532Y-36270001D01*
X51385468Y-36270001D01*
X51385468Y-36270000D01*
X51381740Y-36227394D01*
X51379045Y-36196590D01*
X51365635Y-36043308D01*
X51320859Y-35876201D01*
X51306741Y-35823511D01*
X51306738Y-35823502D01*
X51210568Y-35617266D01*
X51080047Y-35430861D01*
X51080045Y-35430858D01*
X50919141Y-35269954D01*
X50732734Y-35139432D01*
X50732732Y-35139431D01*
X50526497Y-35043261D01*
X50526488Y-35043258D01*
X50306697Y-34984366D01*
X50306693Y-34984365D01*
X50306692Y-34984365D01*
X50306691Y-34984364D01*
X50306686Y-34984364D01*
X50080002Y-34964532D01*
X50079998Y-34964532D01*
X49853313Y-34984364D01*
X49853302Y-34984366D01*
X49633511Y-35043258D01*
X49633502Y-35043261D01*
X49427267Y-35139431D01*
X49427265Y-35139432D01*
X49240858Y-35269954D01*
X49079954Y-35430858D01*
X48949432Y-35617265D01*
X48949431Y-35617267D01*
X48853261Y-35823502D01*
X48853258Y-35823511D01*
X48794366Y-36043302D01*
X48794364Y-36043313D01*
X48774532Y-36269998D01*
X48774532Y-36270001D01*
X47295500Y-36270001D01*
X47295499Y-35472128D01*
X47289091Y-35412517D01*
X47262602Y-35341497D01*
X47238797Y-35277671D01*
X47238793Y-35277664D01*
X47152547Y-35162455D01*
X47152544Y-35162452D01*
X47037335Y-35076206D01*
X47037328Y-35076202D01*
X46902482Y-35025908D01*
X46902483Y-35025908D01*
X46842883Y-35019501D01*
X46842881Y-35019500D01*
X46842873Y-35019500D01*
X46842864Y-35019500D01*
X45697129Y-35019500D01*
X45697123Y-35019501D01*
X45637516Y-35025908D01*
X45502671Y-35076202D01*
X45494890Y-35080452D01*
X45493759Y-35078381D01*
X45440239Y-35098331D01*
X45395424Y-35093306D01*
X45394343Y-35092978D01*
X45394341Y-35092977D01*
X45288835Y-35060972D01*
X45201031Y-35034337D01*
X45000000Y-35014538D01*
X44798968Y-35034337D01*
X44605654Y-35092978D01*
X44422922Y-35190651D01*
X44354519Y-35204893D01*
X44306016Y-35190651D01*
X44124150Y-35093441D01*
X43980000Y-35049712D01*
X43980000Y-35935728D01*
X43979701Y-35941808D01*
X43975370Y-35985779D01*
X43910948Y-35935637D01*
X43792576Y-35895000D01*
X43698927Y-35895000D01*
X43606554Y-35910414D01*
X43496486Y-35969981D01*
X43480000Y-35987889D01*
X43480000Y-35049712D01*
X43335849Y-35093441D01*
X43157790Y-35188615D01*
X43157784Y-35188620D01*
X43001707Y-35316707D01*
X42873620Y-35472784D01*
X42873615Y-35472790D01*
X42778443Y-35650845D01*
X42719829Y-35844067D01*
X42705000Y-35994642D01*
X42705000Y-36020000D01*
X43450440Y-36020000D01*
X43411722Y-36062059D01*
X43361449Y-36176670D01*
X43351114Y-36301395D01*
X43381837Y-36422719D01*
X43445394Y-36520000D01*
X42705000Y-36520000D01*
X42705000Y-36545357D01*
X32436275Y-36545357D01*
X32446635Y-36506692D01*
X32466468Y-36280000D01*
X32462197Y-36231188D01*
X32452232Y-36117281D01*
X32446635Y-36053308D01*
X32387739Y-35833504D01*
X32291568Y-35627266D01*
X32161047Y-35440861D01*
X32161045Y-35440858D01*
X32000141Y-35279954D01*
X31813734Y-35149432D01*
X31813732Y-35149431D01*
X31607497Y-35053261D01*
X31607488Y-35053258D01*
X31481501Y-35019501D01*
X31463862Y-35014774D01*
X31404202Y-34978410D01*
X31373673Y-34915563D01*
X31381968Y-34846188D01*
X31426453Y-34792310D01*
X31463862Y-34775225D01*
X31607496Y-34736739D01*
X31813734Y-34640568D01*
X32000139Y-34510047D01*
X32161047Y-34349139D01*
X32291568Y-34162734D01*
X32387739Y-33956496D01*
X32446635Y-33736692D01*
X32466468Y-33510000D01*
X32446635Y-33283308D01*
X32391427Y-33077267D01*
X32387741Y-33063511D01*
X32387738Y-33063502D01*
X32384382Y-33056306D01*
X32291568Y-32857266D01*
X32161047Y-32670861D01*
X32161045Y-32670858D01*
X32000141Y-32509954D01*
X31813734Y-32379432D01*
X31813732Y-32379431D01*
X31607497Y-32283261D01*
X31607488Y-32283258D01*
X31462898Y-32244516D01*
X31403237Y-32208151D01*
X31372708Y-32145304D01*
X31381003Y-32075929D01*
X31425488Y-32022051D01*
X31462898Y-32004966D01*
X31607317Y-31966269D01*
X31607331Y-31966264D01*
X31813478Y-31870136D01*
X31886472Y-31819025D01*
X31293534Y-31226086D01*
X31303315Y-31224680D01*
X31434100Y-31164952D01*
X31542761Y-31070798D01*
X31620493Y-30949844D01*
X31644076Y-30869523D01*
X32240025Y-31465472D01*
X32291136Y-31392478D01*
X32387264Y-31186331D01*
X32387269Y-31186317D01*
X32446139Y-30966610D01*
X32446141Y-30966599D01*
X32465966Y-30740002D01*
X32465966Y-30739997D01*
X32446141Y-30513400D01*
X32446139Y-30513389D01*
X32387269Y-30293682D01*
X32387265Y-30293673D01*
X32291133Y-30087516D01*
X32291131Y-30087512D01*
X32240026Y-30014526D01*
X32240025Y-30014526D01*
X31644076Y-30610473D01*
X31620493Y-30530156D01*
X31542761Y-30409202D01*
X31434100Y-30315048D01*
X31303315Y-30255320D01*
X31293531Y-30253913D01*
X31886472Y-29660973D01*
X31813483Y-29609866D01*
X31813481Y-29609865D01*
X31607326Y-29513734D01*
X31607317Y-29513730D01*
X31387610Y-29454860D01*
X31387599Y-29454858D01*
X31161002Y-29435034D01*
X31160998Y-29435034D01*
X30934400Y-29454858D01*
X30934389Y-29454860D01*
X30714682Y-29513730D01*
X30714673Y-29513734D01*
X30508513Y-29609868D01*
X30435526Y-29660973D01*
X31028465Y-30253913D01*
X31018685Y-30255320D01*
X30887900Y-30315048D01*
X30779239Y-30409202D01*
X30701507Y-30530156D01*
X30677923Y-30610475D01*
X30081973Y-30014526D01*
X30030868Y-30087513D01*
X29934734Y-30293673D01*
X29934730Y-30293682D01*
X29875860Y-30513389D01*
X29875858Y-30513400D01*
X29856034Y-30739997D01*
X29856034Y-30740002D01*
X29875858Y-30966599D01*
X29875860Y-30966610D01*
X29934730Y-31186317D01*
X29934734Y-31186326D01*
X30030865Y-31392481D01*
X30030866Y-31392483D01*
X30081973Y-31465471D01*
X30081973Y-31465472D01*
X30677922Y-30869521D01*
X30701507Y-30949844D01*
X30779239Y-31070798D01*
X30887900Y-31164952D01*
X31018685Y-31224680D01*
X31028466Y-31226086D01*
X30435526Y-31819025D01*
X30435526Y-31819026D01*
X30508512Y-31870131D01*
X30508516Y-31870133D01*
X30714673Y-31966265D01*
X30714682Y-31966269D01*
X30859101Y-32004966D01*
X30918762Y-32041331D01*
X30949291Y-32104178D01*
X30940996Y-32173553D01*
X30896511Y-32227431D01*
X30859102Y-32244516D01*
X30714508Y-32283259D01*
X30714502Y-32283261D01*
X30508267Y-32379431D01*
X30508265Y-32379432D01*
X30321858Y-32509954D01*
X30160954Y-32670858D01*
X30030432Y-32857265D01*
X30030431Y-32857267D01*
X29934261Y-33063502D01*
X29934258Y-33063511D01*
X29875366Y-33283302D01*
X29875364Y-33283313D01*
X29855532Y-33509998D01*
X29855532Y-33510001D01*
X29875364Y-33736686D01*
X29875366Y-33736697D01*
X29934258Y-33956488D01*
X29934261Y-33956497D01*
X30030431Y-34162732D01*
X30030432Y-34162734D01*
X30160954Y-34349141D01*
X30321858Y-34510045D01*
X30321861Y-34510047D01*
X30508266Y-34640568D01*
X30714504Y-34736739D01*
X30714509Y-34736740D01*
X30714511Y-34736741D01*
X30858136Y-34775225D01*
X30917797Y-34811590D01*
X30948326Y-34874437D01*
X30940031Y-34943812D01*
X30895546Y-34997690D01*
X30858136Y-35014775D01*
X30714511Y-35053258D01*
X30714502Y-35053261D01*
X30508267Y-35149431D01*
X30508265Y-35149432D01*
X30321858Y-35279954D01*
X30160954Y-35440858D01*
X30030432Y-35627265D01*
X30030431Y-35627267D01*
X29934261Y-35833502D01*
X29934258Y-35833511D01*
X29875366Y-36053302D01*
X29875364Y-36053313D01*
X29855532Y-36279998D01*
X29855532Y-36280001D01*
X29875364Y-36506686D01*
X29875366Y-36506697D01*
X29934258Y-36726488D01*
X29934261Y-36726497D01*
X30030431Y-36932732D01*
X30030432Y-36932734D01*
X30160954Y-37119141D01*
X30321858Y-37280045D01*
X30321861Y-37280047D01*
X30508266Y-37410568D01*
X30714504Y-37506739D01*
X30714509Y-37506740D01*
X30714511Y-37506741D01*
X30858136Y-37545225D01*
X30917797Y-37581590D01*
X30948326Y-37644437D01*
X30940031Y-37713812D01*
X30895546Y-37767690D01*
X30858136Y-37784775D01*
X30714511Y-37823258D01*
X30714502Y-37823261D01*
X30508267Y-37919431D01*
X30508265Y-37919432D01*
X30321858Y-38049954D01*
X30160954Y-38210858D01*
X30030432Y-38397265D01*
X30030431Y-38397267D01*
X29934261Y-38603502D01*
X29934258Y-38603511D01*
X29875366Y-38823302D01*
X29875364Y-38823313D01*
X29855532Y-39049998D01*
X29855532Y-39050001D01*
X28536132Y-39050001D01*
X28541968Y-39001188D01*
X28586453Y-38947310D01*
X28623862Y-38930225D01*
X28767496Y-38891739D01*
X28973734Y-38795568D01*
X29160139Y-38665047D01*
X29321047Y-38504139D01*
X29451568Y-38317734D01*
X29547739Y-38111496D01*
X29606635Y-37891692D01*
X29626468Y-37665000D01*
X29622197Y-37616188D01*
X29616900Y-37555635D01*
X29606635Y-37438308D01*
X29547739Y-37218504D01*
X29451568Y-37012266D01*
X29321047Y-36825861D01*
X29321045Y-36825858D01*
X29160141Y-36664954D01*
X28973734Y-36534432D01*
X28973732Y-36534431D01*
X28767497Y-36438261D01*
X28767488Y-36438258D01*
X28644966Y-36405429D01*
X28623862Y-36399774D01*
X28564202Y-36363410D01*
X28533673Y-36300563D01*
X28541968Y-36231188D01*
X28586453Y-36177310D01*
X28623862Y-36160225D01*
X28767496Y-36121739D01*
X28973734Y-36025568D01*
X29160139Y-35895047D01*
X29321047Y-35734139D01*
X29451568Y-35547734D01*
X29547739Y-35341496D01*
X29606635Y-35121692D01*
X29626468Y-34895000D01*
X29623455Y-34860567D01*
X29612036Y-34730045D01*
X29606635Y-34668308D01*
X29555242Y-34476506D01*
X29547741Y-34448511D01*
X29547738Y-34448502D01*
X29545393Y-34443473D01*
X29451568Y-34242266D01*
X29321047Y-34055861D01*
X29321045Y-34055858D01*
X29160141Y-33894954D01*
X28973734Y-33764432D01*
X28973732Y-33764431D01*
X28767497Y-33668261D01*
X28767490Y-33668259D01*
X28623862Y-33629774D01*
X28564202Y-33593409D01*
X28533673Y-33530562D01*
X28541968Y-33461186D01*
X28586453Y-33407308D01*
X28623859Y-33390226D01*
X28729127Y-33362019D01*
X28767486Y-33351742D01*
X28767489Y-33351740D01*
X28767496Y-33351739D01*
X28973734Y-33255568D01*
X29160139Y-33125047D01*
X29321047Y-32964139D01*
X29451568Y-32777734D01*
X29547739Y-32571496D01*
X29606635Y-32351692D01*
X29626468Y-32125000D01*
X29606635Y-31898308D01*
X29547739Y-31678504D01*
X29451568Y-31472266D01*
X29321047Y-31285861D01*
X29321045Y-31285858D01*
X29160141Y-31124954D01*
X28973734Y-30994432D01*
X28973732Y-30994431D01*
X28767497Y-30898261D01*
X28767488Y-30898258D01*
X28547697Y-30839366D01*
X28547693Y-30839365D01*
X28547692Y-30839365D01*
X28547691Y-30839364D01*
X28547686Y-30839364D01*
X28321002Y-30819532D01*
X28320998Y-30819532D01*
X28094313Y-30839364D01*
X28094302Y-30839366D01*
X27874511Y-30898258D01*
X27874502Y-30898261D01*
X27668267Y-30994431D01*
X27668265Y-30994432D01*
X27481858Y-31124954D01*
X27320954Y-31285858D01*
X27190432Y-31472265D01*
X27190431Y-31472267D01*
X27094261Y-31678502D01*
X27094258Y-31678511D01*
X27035366Y-31898302D01*
X27035364Y-31898313D01*
X27015532Y-32124998D01*
X27015532Y-32125001D01*
X27035364Y-32351686D01*
X27035366Y-32351697D01*
X27094258Y-32571488D01*
X27094261Y-32571497D01*
X27190431Y-32777732D01*
X27190432Y-32777734D01*
X27320954Y-32964141D01*
X27481858Y-33125045D01*
X27491747Y-33131969D01*
X27668266Y-33255568D01*
X27874504Y-33351739D01*
X27874506Y-33351739D01*
X27874513Y-33351742D01*
X27944938Y-33370611D01*
X28018136Y-33390225D01*
X28077796Y-33426588D01*
X28108326Y-33489435D01*
X28100032Y-33558811D01*
X28055547Y-33612689D01*
X28018137Y-33629774D01*
X27874509Y-33668259D01*
X27874502Y-33668261D01*
X27668267Y-33764431D01*
X27668265Y-33764432D01*
X27481858Y-33894954D01*
X27320954Y-34055858D01*
X27190432Y-34242265D01*
X27190431Y-34242267D01*
X27094261Y-34448502D01*
X27094258Y-34448511D01*
X27035366Y-34668302D01*
X27035364Y-34668313D01*
X27015532Y-34894998D01*
X27015532Y-34895001D01*
X27035364Y-35121686D01*
X27035366Y-35121697D01*
X27094258Y-35341488D01*
X27094261Y-35341497D01*
X27190431Y-35547732D01*
X27190432Y-35547734D01*
X27320954Y-35734141D01*
X27481858Y-35895045D01*
X27509197Y-35914188D01*
X27668266Y-36025568D01*
X27874504Y-36121739D01*
X27874509Y-36121740D01*
X27874511Y-36121741D01*
X28018136Y-36160225D01*
X28077797Y-36196590D01*
X28108326Y-36259437D01*
X28100031Y-36328812D01*
X28055546Y-36382690D01*
X28018136Y-36399775D01*
X27874511Y-36438258D01*
X27874502Y-36438261D01*
X27668267Y-36534431D01*
X27668265Y-36534432D01*
X27481858Y-36664954D01*
X27320954Y-36825858D01*
X27190432Y-37012265D01*
X27190431Y-37012267D01*
X27094261Y-37218502D01*
X27094258Y-37218511D01*
X27035366Y-37438302D01*
X27035364Y-37438313D01*
X27015532Y-37664998D01*
X27015532Y-37665001D01*
X27035364Y-37891686D01*
X27035366Y-37891697D01*
X27094258Y-38111488D01*
X27094261Y-38111497D01*
X27190431Y-38317732D01*
X27190432Y-38317734D01*
X27320954Y-38504141D01*
X27481858Y-38665045D01*
X27481861Y-38665047D01*
X27668266Y-38795568D01*
X27874504Y-38891739D01*
X27874509Y-38891740D01*
X27874511Y-38891741D01*
X28018136Y-38930225D01*
X28077797Y-38966590D01*
X28108326Y-39029437D01*
X28100031Y-39098812D01*
X28055546Y-39152690D01*
X28018136Y-39169775D01*
X27874511Y-39208258D01*
X27874502Y-39208261D01*
X27668267Y-39304431D01*
X27668265Y-39304432D01*
X27481858Y-39434954D01*
X27320954Y-39595858D01*
X27190432Y-39782265D01*
X27190431Y-39782267D01*
X27094261Y-39988502D01*
X27094258Y-39988511D01*
X27035366Y-40208302D01*
X27035364Y-40208313D01*
X27015532Y-40434998D01*
X27015532Y-40435001D01*
X23360500Y-40435001D01*
X23360500Y-28650001D01*
X38614532Y-28650001D01*
X38634364Y-28876686D01*
X38634366Y-28876697D01*
X38693258Y-29096488D01*
X38693261Y-29096497D01*
X38789431Y-29302732D01*
X38789432Y-29302734D01*
X38919954Y-29489141D01*
X39080858Y-29650045D01*
X39080861Y-29650047D01*
X39267266Y-29780568D01*
X39473504Y-29876739D01*
X39693308Y-29935635D01*
X39855230Y-29949801D01*
X39919998Y-29955468D01*
X39920000Y-29955468D01*
X39920002Y-29955468D01*
X39984637Y-29949813D01*
X40146692Y-29935635D01*
X40366496Y-29876739D01*
X40572734Y-29780568D01*
X40759139Y-29650047D01*
X40920047Y-29489139D01*
X41050568Y-29302734D01*
X41146739Y-29096496D01*
X41205635Y-28876692D01*
X41225468Y-28650001D01*
X48774532Y-28650001D01*
X48794364Y-28876686D01*
X48794366Y-28876697D01*
X48853258Y-29096488D01*
X48853261Y-29096497D01*
X48949431Y-29302732D01*
X48949432Y-29302734D01*
X49079954Y-29489141D01*
X49240858Y-29650045D01*
X49240861Y-29650047D01*
X49427266Y-29780568D01*
X49633504Y-29876739D01*
X49853308Y-29935635D01*
X50015230Y-29949801D01*
X50079998Y-29955468D01*
X50080000Y-29955468D01*
X50080002Y-29955468D01*
X50144637Y-29949813D01*
X50306692Y-29935635D01*
X50526496Y-29876739D01*
X50732734Y-29780568D01*
X50919139Y-29650047D01*
X51080047Y-29489139D01*
X51210568Y-29302734D01*
X51306739Y-29096496D01*
X51365635Y-28876692D01*
X51385468Y-28650001D01*
X56394532Y-28650001D01*
X56414364Y-28876686D01*
X56414366Y-28876697D01*
X56473258Y-29096488D01*
X56473261Y-29096497D01*
X56569431Y-29302732D01*
X56569432Y-29302734D01*
X56699954Y-29489141D01*
X56860858Y-29650045D01*
X56860861Y-29650047D01*
X57047266Y-29780568D01*
X57253504Y-29876739D01*
X57473308Y-29935635D01*
X57635230Y-29949801D01*
X57699998Y-29955468D01*
X57700000Y-29955468D01*
X57700002Y-29955468D01*
X57764637Y-29949813D01*
X57926692Y-29935635D01*
X58146496Y-29876739D01*
X58352734Y-29780568D01*
X58539139Y-29650047D01*
X58700047Y-29489139D01*
X58830568Y-29302734D01*
X58926739Y-29096496D01*
X58985635Y-28876692D01*
X59005468Y-28650000D01*
X59004642Y-28640564D01*
X58991041Y-28485097D01*
X58985635Y-28423308D01*
X58934454Y-28232298D01*
X58926741Y-28203511D01*
X58926738Y-28203502D01*
X58830568Y-27997266D01*
X58700047Y-27810861D01*
X58700045Y-27810858D01*
X58539141Y-27649954D01*
X58352734Y-27519432D01*
X58352732Y-27519431D01*
X58146497Y-27423261D01*
X58146488Y-27423258D01*
X57926697Y-27364366D01*
X57926693Y-27364365D01*
X57926692Y-27364365D01*
X57926691Y-27364364D01*
X57926686Y-27364364D01*
X57700002Y-27344532D01*
X57699998Y-27344532D01*
X57473313Y-27364364D01*
X57473302Y-27364366D01*
X57253511Y-27423258D01*
X57253502Y-27423261D01*
X57047267Y-27519431D01*
X57047265Y-27519432D01*
X56860858Y-27649954D01*
X56699954Y-27810858D01*
X56569432Y-27997265D01*
X56569431Y-27997267D01*
X56473261Y-28203502D01*
X56473258Y-28203511D01*
X56414366Y-28423302D01*
X56414364Y-28423313D01*
X56394532Y-28649998D01*
X56394532Y-28650001D01*
X51385468Y-28650001D01*
X51385468Y-28650000D01*
X51384642Y-28640564D01*
X51371041Y-28485097D01*
X51365635Y-28423308D01*
X51314454Y-28232298D01*
X51306741Y-28203511D01*
X51306738Y-28203502D01*
X51210568Y-27997266D01*
X51080047Y-27810861D01*
X51080045Y-27810858D01*
X50919141Y-27649954D01*
X50732734Y-27519432D01*
X50732732Y-27519431D01*
X50526497Y-27423261D01*
X50526488Y-27423258D01*
X50306697Y-27364366D01*
X50306693Y-27364365D01*
X50306692Y-27364365D01*
X50306691Y-27364364D01*
X50306686Y-27364364D01*
X50080002Y-27344532D01*
X50079998Y-27344532D01*
X49853313Y-27364364D01*
X49853302Y-27364366D01*
X49633511Y-27423258D01*
X49633502Y-27423261D01*
X49427267Y-27519431D01*
X49427265Y-27519432D01*
X49240858Y-27649954D01*
X49079954Y-27810858D01*
X48949432Y-27997265D01*
X48949431Y-27997267D01*
X48853261Y-28203502D01*
X48853258Y-28203511D01*
X48794366Y-28423302D01*
X48794364Y-28423313D01*
X48774532Y-28649998D01*
X48774532Y-28650001D01*
X41225468Y-28650001D01*
X41225468Y-28650000D01*
X41224642Y-28640564D01*
X41211041Y-28485097D01*
X41205635Y-28423308D01*
X41154454Y-28232298D01*
X41146741Y-28203511D01*
X41146738Y-28203502D01*
X41050568Y-27997266D01*
X40920047Y-27810861D01*
X40920045Y-27810858D01*
X40759141Y-27649954D01*
X40572734Y-27519432D01*
X40572732Y-27519431D01*
X40366497Y-27423261D01*
X40366488Y-27423258D01*
X40146697Y-27364366D01*
X40146693Y-27364365D01*
X40146692Y-27364365D01*
X40146691Y-27364364D01*
X40146686Y-27364364D01*
X39920002Y-27344532D01*
X39919998Y-27344532D01*
X39693313Y-27364364D01*
X39693302Y-27364366D01*
X39473511Y-27423258D01*
X39473502Y-27423261D01*
X39267267Y-27519431D01*
X39267265Y-27519432D01*
X39080858Y-27649954D01*
X38919954Y-27810858D01*
X38789432Y-27997265D01*
X38789431Y-27997267D01*
X38693261Y-28203502D01*
X38693258Y-28203511D01*
X38634366Y-28423302D01*
X38634364Y-28423313D01*
X38614532Y-28649998D01*
X38614532Y-28650001D01*
X23360500Y-28650001D01*
X23360500Y-23780005D01*
X28356057Y-23780005D01*
X28375807Y-24093942D01*
X28375808Y-24093949D01*
X28434755Y-24402958D01*
X28531963Y-24702132D01*
X28531965Y-24702137D01*
X28665900Y-24986761D01*
X28665903Y-24986767D01*
X28834457Y-25252367D01*
X28834460Y-25252371D01*
X28925286Y-25362160D01*
X29563266Y-24724180D01*
X29726130Y-24914870D01*
X29916818Y-25077732D01*
X29275971Y-25718579D01*
X29275972Y-25718581D01*
X29518772Y-25894985D01*
X29518790Y-25894996D01*
X29794447Y-26046540D01*
X29794455Y-26046544D01*
X30086926Y-26162340D01*
X30391620Y-26240573D01*
X30391629Y-26240575D01*
X30703701Y-26279999D01*
X30703715Y-26280000D01*
X31018285Y-26280000D01*
X31018298Y-26279999D01*
X31330370Y-26240575D01*
X31330379Y-26240573D01*
X31635073Y-26162340D01*
X31927544Y-26046544D01*
X31927552Y-26046540D01*
X32203209Y-25894996D01*
X32203219Y-25894990D01*
X32446026Y-25718579D01*
X32446027Y-25718579D01*
X31805180Y-25077733D01*
X31995870Y-24914870D01*
X32158733Y-24724180D01*
X32796712Y-25362160D01*
X32887544Y-25252364D01*
X33056096Y-24986767D01*
X33056099Y-24986761D01*
X33190034Y-24702137D01*
X33190036Y-24702132D01*
X33287244Y-24402958D01*
X33346191Y-24093949D01*
X33346192Y-24093942D01*
X33365943Y-23780005D01*
X33365943Y-23779994D01*
X33346192Y-23466057D01*
X33346191Y-23466050D01*
X33287244Y-23157041D01*
X33190036Y-22857867D01*
X33190034Y-22857862D01*
X33056099Y-22573238D01*
X33056096Y-22573232D01*
X32887542Y-22307632D01*
X32887539Y-22307628D01*
X32796712Y-22197838D01*
X32158732Y-22835818D01*
X31995870Y-22645130D01*
X31805180Y-22482266D01*
X32409576Y-21877870D01*
X38619500Y-21877870D01*
X38619501Y-21877876D01*
X38625908Y-21937483D01*
X38676202Y-22072328D01*
X38676206Y-22072335D01*
X38762452Y-22187544D01*
X38762455Y-22187547D01*
X38877664Y-22273793D01*
X38877671Y-22273797D01*
X39012517Y-22324091D01*
X39012516Y-22324091D01*
X39019444Y-22324835D01*
X39072127Y-22330500D01*
X40767872Y-22330499D01*
X40827483Y-22324091D01*
X40962331Y-22273796D01*
X41077546Y-22187546D01*
X41163796Y-22072331D01*
X41214091Y-21937483D01*
X41220500Y-21877873D01*
X41220499Y-21030000D01*
X43744538Y-21030000D01*
X43764337Y-21231031D01*
X43822978Y-21424345D01*
X43920651Y-21607077D01*
X43934893Y-21675479D01*
X43920651Y-21723983D01*
X43823442Y-21905846D01*
X43779715Y-22050000D01*
X44665729Y-22050000D01*
X44671809Y-22050299D01*
X44707776Y-22053841D01*
X44716145Y-22054665D01*
X44681722Y-22092059D01*
X44631449Y-22206670D01*
X44621114Y-22331395D01*
X44651837Y-22452719D01*
X44711801Y-22544500D01*
X44202129Y-22544500D01*
X44202125Y-22544501D01*
X44170406Y-22547910D01*
X44154273Y-22549645D01*
X44147646Y-22550000D01*
X43779714Y-22550000D01*
X43823677Y-22694928D01*
X43824300Y-22764795D01*
X43809629Y-22794435D01*
X43810454Y-22794886D01*
X43806202Y-22802671D01*
X43755908Y-22937517D01*
X43750268Y-22989980D01*
X43749501Y-22997123D01*
X43749500Y-22997135D01*
X43749500Y-24142870D01*
X43749501Y-24142876D01*
X43755908Y-24202483D01*
X43806202Y-24337328D01*
X43806206Y-24337335D01*
X43892452Y-24452544D01*
X43892455Y-24452547D01*
X44007664Y-24538793D01*
X44007671Y-24538797D01*
X44142517Y-24589091D01*
X44142516Y-24589091D01*
X44149444Y-24589835D01*
X44202127Y-24595500D01*
X45797872Y-24595499D01*
X45857483Y-24589091D01*
X45992331Y-24538796D01*
X46107546Y-24452546D01*
X46193796Y-24337331D01*
X46244091Y-24202483D01*
X46250500Y-24142873D01*
X46250499Y-22997128D01*
X46244091Y-22937517D01*
X46236538Y-22917267D01*
X46193797Y-22802671D01*
X46189546Y-22794886D01*
X46191465Y-22793837D01*
X46171299Y-22739772D01*
X46176322Y-22694928D01*
X46220285Y-22550000D01*
X45852350Y-22550000D01*
X45845717Y-22549644D01*
X45797873Y-22544500D01*
X45797872Y-22544500D01*
X45284623Y-22544500D01*
X45318278Y-22507941D01*
X45368551Y-22393330D01*
X45378886Y-22268605D01*
X45348163Y-22147281D01*
X45287424Y-22054313D01*
X45292223Y-22053841D01*
X45328191Y-22050299D01*
X45334271Y-22050000D01*
X46220285Y-22050000D01*
X46176557Y-21905848D01*
X46079348Y-21723985D01*
X46065106Y-21655582D01*
X46079348Y-21607078D01*
X46177021Y-21424345D01*
X46177021Y-21424344D01*
X46177023Y-21424341D01*
X46235662Y-21231033D01*
X46255462Y-21030000D01*
X46235662Y-20828967D01*
X46220808Y-20779999D01*
X48801127Y-20779999D01*
X48801128Y-20780000D01*
X49764314Y-20780000D01*
X49752359Y-20791955D01*
X49694835Y-20904852D01*
X49675014Y-21030000D01*
X49694835Y-21155148D01*
X49752359Y-21268045D01*
X49764314Y-21280000D01*
X48801128Y-21280000D01*
X48853730Y-21476317D01*
X48853734Y-21476326D01*
X48949865Y-21682482D01*
X49080342Y-21868820D01*
X49241179Y-22029657D01*
X49427517Y-22160134D01*
X49633673Y-22256265D01*
X49633682Y-22256269D01*
X49829999Y-22308872D01*
X49830000Y-22308871D01*
X49830000Y-21345686D01*
X49841955Y-21357641D01*
X49954852Y-21415165D01*
X50048519Y-21430000D01*
X50111481Y-21430000D01*
X50205148Y-21415165D01*
X50318045Y-21357641D01*
X50330000Y-21345685D01*
X50330000Y-22308872D01*
X50526317Y-22256269D01*
X50526326Y-22256265D01*
X50732482Y-22160134D01*
X50918820Y-22029657D01*
X51079657Y-21868820D01*
X51210134Y-21682482D01*
X51306265Y-21476326D01*
X51306269Y-21476317D01*
X51358872Y-21280000D01*
X50395686Y-21280000D01*
X50407641Y-21268045D01*
X50465165Y-21155148D01*
X50484986Y-21030001D01*
X56394532Y-21030001D01*
X56414364Y-21256686D01*
X56414366Y-21256697D01*
X56473258Y-21476488D01*
X56473261Y-21476497D01*
X56569431Y-21682732D01*
X56569432Y-21682734D01*
X56699954Y-21869141D01*
X56860858Y-22030045D01*
X56860861Y-22030047D01*
X57047266Y-22160568D01*
X57253504Y-22256739D01*
X57473308Y-22315635D01*
X57635230Y-22329801D01*
X57699998Y-22335468D01*
X57700000Y-22335468D01*
X57700002Y-22335468D01*
X57756807Y-22330498D01*
X57926692Y-22315635D01*
X58146496Y-22256739D01*
X58352734Y-22160568D01*
X58539139Y-22030047D01*
X58700047Y-21869139D01*
X58830568Y-21682734D01*
X58926739Y-21476496D01*
X58985635Y-21256692D01*
X59005468Y-21030000D01*
X58985635Y-20803308D01*
X58926739Y-20583504D01*
X58830568Y-20377266D01*
X58700047Y-20190861D01*
X58700045Y-20190858D01*
X58539141Y-20029954D01*
X58352734Y-19899432D01*
X58352732Y-19899431D01*
X58146497Y-19803261D01*
X58146488Y-19803258D01*
X57926697Y-19744366D01*
X57926693Y-19744365D01*
X57926692Y-19744365D01*
X57926691Y-19744364D01*
X57926686Y-19744364D01*
X57700002Y-19724532D01*
X57699998Y-19724532D01*
X57473313Y-19744364D01*
X57473302Y-19744366D01*
X57253511Y-19803258D01*
X57253502Y-19803261D01*
X57047267Y-19899431D01*
X57047265Y-19899432D01*
X56860858Y-20029954D01*
X56699954Y-20190858D01*
X56569432Y-20377265D01*
X56569431Y-20377267D01*
X56473261Y-20583502D01*
X56473258Y-20583511D01*
X56414366Y-20803302D01*
X56414364Y-20803313D01*
X56394532Y-21029998D01*
X56394532Y-21030001D01*
X50484986Y-21030001D01*
X50484986Y-21030000D01*
X50465165Y-20904852D01*
X50407641Y-20791955D01*
X50395686Y-20780000D01*
X51358872Y-20780000D01*
X51358872Y-20779999D01*
X51306269Y-20583682D01*
X51306265Y-20583673D01*
X51210134Y-20377517D01*
X51079657Y-20191179D01*
X50918820Y-20030342D01*
X50732482Y-19899865D01*
X50526328Y-19803734D01*
X50330000Y-19751127D01*
X50330000Y-20714314D01*
X50318045Y-20702359D01*
X50205148Y-20644835D01*
X50111481Y-20630000D01*
X50048519Y-20630000D01*
X49954852Y-20644835D01*
X49841955Y-20702359D01*
X49830000Y-20714313D01*
X49830000Y-19751127D01*
X49633671Y-19803734D01*
X49427517Y-19899865D01*
X49241179Y-20030342D01*
X49080342Y-20191179D01*
X48949865Y-20377517D01*
X48853734Y-20583673D01*
X48853730Y-20583682D01*
X48801127Y-20779999D01*
X46220808Y-20779999D01*
X46177023Y-20635659D01*
X46177021Y-20635656D01*
X46177021Y-20635654D01*
X46081801Y-20457511D01*
X46081799Y-20457509D01*
X46081798Y-20457506D01*
X46015946Y-20377265D01*
X45953647Y-20301352D01*
X45797495Y-20173203D01*
X45797488Y-20173198D01*
X45619345Y-20077978D01*
X45426031Y-20019337D01*
X45315900Y-20008490D01*
X45275380Y-20004500D01*
X44724620Y-20004500D01*
X44687433Y-20008162D01*
X44573968Y-20019337D01*
X44380654Y-20077978D01*
X44202511Y-20173198D01*
X44202504Y-20173203D01*
X44046352Y-20301352D01*
X43918203Y-20457504D01*
X43918198Y-20457511D01*
X43822978Y-20635654D01*
X43764337Y-20828968D01*
X43744538Y-21030000D01*
X41220499Y-21030000D01*
X41220499Y-20182128D01*
X41214091Y-20122517D01*
X41179567Y-20029954D01*
X41163797Y-19987671D01*
X41163793Y-19987664D01*
X41077547Y-19872455D01*
X41077544Y-19872452D01*
X40962335Y-19786206D01*
X40962328Y-19786202D01*
X40827482Y-19735908D01*
X40827483Y-19735908D01*
X40767883Y-19729501D01*
X40767881Y-19729500D01*
X40767873Y-19729500D01*
X40767864Y-19729500D01*
X39072129Y-19729500D01*
X39072123Y-19729501D01*
X39012516Y-19735908D01*
X38877671Y-19786202D01*
X38877664Y-19786206D01*
X38762455Y-19872452D01*
X38762452Y-19872455D01*
X38676206Y-19987664D01*
X38676202Y-19987671D01*
X38625908Y-20122517D01*
X38620459Y-20173203D01*
X38619501Y-20182123D01*
X38619500Y-20182135D01*
X38619500Y-21877870D01*
X32409576Y-21877870D01*
X32446027Y-21841419D01*
X32446026Y-21841417D01*
X32203227Y-21665014D01*
X32203209Y-21665003D01*
X31927552Y-21513459D01*
X31927544Y-21513455D01*
X31635073Y-21397659D01*
X31330379Y-21319426D01*
X31330370Y-21319424D01*
X31018298Y-21280000D01*
X30703701Y-21280000D01*
X30391629Y-21319424D01*
X30391620Y-21319426D01*
X30086926Y-21397659D01*
X29794455Y-21513455D01*
X29794447Y-21513459D01*
X29518787Y-21665004D01*
X29518782Y-21665007D01*
X29275972Y-21841418D01*
X29275971Y-21841419D01*
X29916819Y-22482266D01*
X29726130Y-22645130D01*
X29563266Y-22835818D01*
X28925286Y-22197838D01*
X28925285Y-22197838D01*
X28834459Y-22307629D01*
X28834457Y-22307632D01*
X28665903Y-22573232D01*
X28665900Y-22573238D01*
X28531965Y-22857862D01*
X28531963Y-22857867D01*
X28434755Y-23157041D01*
X28375808Y-23466050D01*
X28375807Y-23466057D01*
X28356057Y-23779994D01*
X28356057Y-23780005D01*
X23360500Y-23780005D01*
X23360500Y-17282597D01*
X23378109Y-17222629D01*
X23587389Y-17222629D01*
X23603477Y-17247662D01*
X23608255Y-17274811D01*
X23624559Y-17533973D01*
X23624560Y-17533980D01*
X23683513Y-17843020D01*
X23780730Y-18142224D01*
X23780732Y-18142229D01*
X23914680Y-18426882D01*
X23914684Y-18426888D01*
X24083254Y-18692513D01*
X24083256Y-18692516D01*
X24174108Y-18802337D01*
X25142678Y-17833767D01*
X25191923Y-17913300D01*
X25334948Y-18070191D01*
X25493572Y-18189979D01*
X24524793Y-19158758D01*
X24524794Y-19158760D01*
X24767638Y-19335196D01*
X24767656Y-19335207D01*
X25043341Y-19486766D01*
X25043349Y-19486770D01*
X25335849Y-19602579D01*
X25335852Y-19602580D01*
X25640577Y-19680819D01*
X25952688Y-19720249D01*
X25952700Y-19720250D01*
X26267300Y-19720250D01*
X26267311Y-19720249D01*
X26579422Y-19680819D01*
X26884147Y-19602580D01*
X26884150Y-19602579D01*
X27176650Y-19486770D01*
X27176658Y-19486766D01*
X27452343Y-19335207D01*
X27452353Y-19335201D01*
X27695204Y-19158758D01*
X27695205Y-19158758D01*
X26726427Y-18189979D01*
X26885052Y-18070191D01*
X27028077Y-17913300D01*
X27077321Y-17833768D01*
X28045890Y-18802337D01*
X28136742Y-18692517D01*
X28136745Y-18692513D01*
X28305315Y-18426888D01*
X28305319Y-18426882D01*
X28439267Y-18142229D01*
X28439269Y-18142224D01*
X28536486Y-17843020D01*
X28595439Y-17533980D01*
X28595440Y-17533973D01*
X28615193Y-17220005D01*
X107104807Y-17220005D01*
X107124559Y-17533973D01*
X107124560Y-17533980D01*
X107183513Y-17843020D01*
X107280730Y-18142224D01*
X107280732Y-18142229D01*
X107414680Y-18426882D01*
X107414684Y-18426888D01*
X107583254Y-18692513D01*
X107583256Y-18692516D01*
X107674108Y-18802337D01*
X108642678Y-17833766D01*
X108691923Y-17913300D01*
X108834948Y-18070191D01*
X108993572Y-18189979D01*
X108024793Y-19158758D01*
X108024794Y-19158760D01*
X108267638Y-19335196D01*
X108267656Y-19335207D01*
X108543341Y-19486766D01*
X108543349Y-19486770D01*
X108835849Y-19602579D01*
X108835852Y-19602580D01*
X109140577Y-19680819D01*
X109452688Y-19720249D01*
X109452700Y-19720250D01*
X109767300Y-19720250D01*
X109767311Y-19720249D01*
X110079422Y-19680819D01*
X110384147Y-19602580D01*
X110384150Y-19602579D01*
X110676650Y-19486770D01*
X110676658Y-19486766D01*
X110952343Y-19335207D01*
X110952353Y-19335201D01*
X111195204Y-19158758D01*
X111195205Y-19158758D01*
X110226427Y-18189979D01*
X110385052Y-18070191D01*
X110528077Y-17913300D01*
X110577321Y-17833768D01*
X111545890Y-18802337D01*
X111636742Y-18692517D01*
X111636745Y-18692513D01*
X111805315Y-18426888D01*
X111805319Y-18426882D01*
X111939267Y-18142229D01*
X111939269Y-18142224D01*
X112036486Y-17843020D01*
X112095439Y-17533980D01*
X112095440Y-17533973D01*
X112111745Y-17274811D01*
X112132610Y-17217369D01*
X112116523Y-17192337D01*
X112111745Y-17165188D01*
X112095440Y-16906026D01*
X112095439Y-16906019D01*
X112036486Y-16596979D01*
X111939269Y-16297775D01*
X111939267Y-16297770D01*
X111805319Y-16013117D01*
X111805315Y-16013111D01*
X111636747Y-15747489D01*
X111545889Y-15637661D01*
X110577320Y-16606230D01*
X110528077Y-16526700D01*
X110385052Y-16369809D01*
X110226425Y-16250019D01*
X111195205Y-15281240D01*
X111195204Y-15281238D01*
X110952361Y-15104803D01*
X110952343Y-15104792D01*
X110676658Y-14953233D01*
X110676650Y-14953229D01*
X110384150Y-14837420D01*
X110384147Y-14837419D01*
X110079422Y-14759180D01*
X109767311Y-14719750D01*
X109452688Y-14719750D01*
X109140577Y-14759180D01*
X108835852Y-14837419D01*
X108835849Y-14837420D01*
X108543349Y-14953229D01*
X108543341Y-14953233D01*
X108267653Y-15104793D01*
X108267648Y-15104796D01*
X108024794Y-15281239D01*
X108024793Y-15281240D01*
X108993572Y-16250020D01*
X108834948Y-16369809D01*
X108691923Y-16526700D01*
X108642679Y-16606231D01*
X107674108Y-15637661D01*
X107583256Y-15747484D01*
X107583254Y-15747487D01*
X107414684Y-16013111D01*
X107414680Y-16013117D01*
X107280732Y-16297770D01*
X107280730Y-16297775D01*
X107183513Y-16596979D01*
X107124560Y-16906019D01*
X107124559Y-16906026D01*
X107104807Y-17219994D01*
X107104807Y-17220005D01*
X28615193Y-17220005D01*
X28615193Y-17219994D01*
X28595440Y-16906026D01*
X28595439Y-16906019D01*
X28536486Y-16596979D01*
X28439269Y-16297775D01*
X28439267Y-16297770D01*
X28305319Y-16013117D01*
X28305315Y-16013111D01*
X28136747Y-15747489D01*
X28045889Y-15637661D01*
X27077320Y-16606230D01*
X27028077Y-16526700D01*
X26885052Y-16369809D01*
X26726426Y-16250019D01*
X27695205Y-15281240D01*
X27695204Y-15281238D01*
X27452361Y-15104803D01*
X27452343Y-15104792D01*
X27176658Y-14953233D01*
X27176650Y-14953229D01*
X26884150Y-14837420D01*
X26884147Y-14837419D01*
X26579422Y-14759180D01*
X26267311Y-14719750D01*
X25952688Y-14719750D01*
X25640577Y-14759180D01*
X25335852Y-14837419D01*
X25335849Y-14837420D01*
X25043349Y-14953229D01*
X25043341Y-14953233D01*
X24767653Y-15104793D01*
X24767648Y-15104796D01*
X24524794Y-15281239D01*
X24524793Y-15281240D01*
X25493573Y-16250019D01*
X25334948Y-16369809D01*
X25191923Y-16526700D01*
X25142678Y-16606231D01*
X24174108Y-15637661D01*
X24083256Y-15747484D01*
X24083254Y-15747487D01*
X23914684Y-16013111D01*
X23914680Y-16013117D01*
X23780732Y-16297770D01*
X23780730Y-16297775D01*
X23683513Y-16596979D01*
X23624560Y-16906019D01*
X23624559Y-16906026D01*
X23608255Y-17165188D01*
X23587389Y-17222629D01*
X23378109Y-17222629D01*
X23380185Y-17215558D01*
X23380535Y-17215254D01*
X23363564Y-17184797D01*
X23360500Y-17157402D01*
X23360500Y-14594500D01*
X23380185Y-14527461D01*
X23432989Y-14481706D01*
X23484500Y-14470500D01*
X112235500Y-14470500D01*
X112302539Y-14490185D01*
G37*
%TD.AperFunction*%
%TD*%
M02*
