%TF.GenerationSoftware,KiCad,Pcbnew,7.0.6*%
%TF.CreationDate,2023-08-12T10:13:39+02:00*%
%TF.ProjectId,ps2_mouse_to_serial_port_adapter_stand_alone,7073325f-6d6f-4757-9365-5f746f5f7365,rev?*%
%TF.SameCoordinates,Original*%
%TF.FileFunction,Drillmap*%
%TF.FilePolarity,Positive*%
%FSLAX45Y45*%
G04 Gerber Fmt 4.5, Leading zero omitted, Abs format (unit mm)*
G04 Created by KiCad (PCBNEW 7.0.6) date 2023-08-12 10:13:39*
%MOMM*%
%LPD*%
G01*
G04 APERTURE LIST*
%ADD10C,0.050000*%
%ADD11C,0.200000*%
%ADD12C,0.075000*%
%ADD13C,0.080000*%
%ADD14C,0.088900*%
%ADD15C,0.090000*%
%ADD16C,0.100000*%
%ADD17C,0.110000*%
%ADD18C,0.229108*%
%ADD19C,0.320000*%
G04 APERTURE END LIST*
D10*
X2540000Y-2540000D02*
X11684000Y-2540000D01*
X11684000Y-9652000D01*
X2540000Y-9652000D01*
X2540000Y-2540000D01*
D11*
D12*
X4661500Y-4788500D02*
X4736500Y-4863500D01*
X4736500Y-4788500D02*
X4661500Y-4863500D01*
X4788500Y-3264500D02*
X4863500Y-3339500D01*
X4863500Y-3264500D02*
X4788500Y-3339500D01*
X4788500Y-3391500D02*
X4863500Y-3466500D01*
X4863500Y-3391500D02*
X4788500Y-3466500D01*
X4788500Y-3518500D02*
X4863500Y-3593500D01*
X4863500Y-3518500D02*
X4788500Y-3593500D01*
X4788500Y-4788500D02*
X4863500Y-4863500D01*
X4863500Y-4788500D02*
X4788500Y-4863500D01*
X4915500Y-4788500D02*
X4990500Y-4863500D01*
X4990500Y-4788500D02*
X4915500Y-4863500D01*
D13*
X4358000Y-3302000D02*
G75*
G03*
X4358000Y-3302000I-40000J0D01*
G01*
X4358000Y-4064000D02*
G75*
G03*
X4358000Y-4064000I-40000J0D01*
G01*
X4358000Y-8764000D02*
G75*
G03*
X4358000Y-8764000I-40000J0D01*
G01*
X4358000Y-9144000D02*
G75*
G03*
X4358000Y-9144000I-40000J0D01*
G01*
X5374000Y-3302000D02*
G75*
G03*
X5374000Y-3302000I-40000J0D01*
G01*
X5374000Y-4064000D02*
G75*
G03*
X5374000Y-4064000I-40000J0D01*
G01*
X5374000Y-4826000D02*
G75*
G03*
X5374000Y-4826000I-40000J0D01*
G01*
X5374000Y-5842000D02*
G75*
G03*
X5374000Y-5842000I-40000J0D01*
G01*
X5374000Y-6350000D02*
G75*
G03*
X5374000Y-6350000I-40000J0D01*
G01*
X5374000Y-6604000D02*
G75*
G03*
X5374000Y-6604000I-40000J0D01*
G01*
X5374000Y-6858000D02*
G75*
G03*
X5374000Y-6858000I-40000J0D01*
G01*
X5374000Y-7112000D02*
G75*
G03*
X5374000Y-7112000I-40000J0D01*
G01*
X5374000Y-7366000D02*
G75*
G03*
X5374000Y-7366000I-40000J0D01*
G01*
X5374000Y-7620000D02*
G75*
G03*
X5374000Y-7620000I-40000J0D01*
G01*
X5374000Y-7874000D02*
G75*
G03*
X5374000Y-7874000I-40000J0D01*
G01*
X5374000Y-8636000D02*
G75*
G03*
X5374000Y-8636000I-40000J0D01*
G01*
X5374000Y-9136000D02*
G75*
G03*
X5374000Y-9136000I-40000J0D01*
G01*
X5874000Y-5842000D02*
G75*
G03*
X5874000Y-5842000I-40000J0D01*
G01*
X6136000Y-3302000D02*
G75*
G03*
X6136000Y-3302000I-40000J0D01*
G01*
X6136000Y-4064000D02*
G75*
G03*
X6136000Y-4064000I-40000J0D01*
G01*
X6136000Y-4826000D02*
G75*
G03*
X6136000Y-4826000I-40000J0D01*
G01*
X6136000Y-6350000D02*
G75*
G03*
X6136000Y-6350000I-40000J0D01*
G01*
X6136000Y-6604000D02*
G75*
G03*
X6136000Y-6604000I-40000J0D01*
G01*
X6136000Y-6858000D02*
G75*
G03*
X6136000Y-6858000I-40000J0D01*
G01*
X6136000Y-7112000D02*
G75*
G03*
X6136000Y-7112000I-40000J0D01*
G01*
X6136000Y-7366000D02*
G75*
G03*
X6136000Y-7366000I-40000J0D01*
G01*
X6136000Y-7620000D02*
G75*
G03*
X6136000Y-7620000I-40000J0D01*
G01*
X6136000Y-7874000D02*
G75*
G03*
X6136000Y-7874000I-40000J0D01*
G01*
X7914000Y-8636000D02*
G75*
G03*
X7914000Y-8636000I-40000J0D01*
G01*
X7914000Y-9136000D02*
G75*
G03*
X7914000Y-9136000I-40000J0D01*
G01*
X8930000Y-8764000D02*
G75*
G03*
X8930000Y-8764000I-40000J0D01*
G01*
X8930000Y-9144000D02*
G75*
G03*
X8930000Y-9144000I-40000J0D01*
G01*
X9565000Y-7620000D02*
G75*
G03*
X9565000Y-7620000I-40000J0D01*
G01*
X9565000Y-8382000D02*
G75*
G03*
X9565000Y-8382000I-40000J0D01*
G01*
X10327000Y-7620000D02*
G75*
G03*
X10327000Y-7620000I-40000J0D01*
G01*
X10327000Y-8382000D02*
G75*
G03*
X10327000Y-8382000I-40000J0D01*
G01*
X10328000Y-6096000D02*
G75*
G03*
X10328000Y-6096000I-40000J0D01*
G01*
X10708000Y-6096000D02*
G75*
G03*
X10708000Y-6096000I-40000J0D01*
G01*
D14*
X10583926Y-3857498D02*
X10583926Y-3946398D01*
X10539476Y-3901948D02*
X10628376Y-3901948D01*
X10583926Y-4527550D02*
X10583926Y-4616450D01*
X10539476Y-4572000D02*
X10628376Y-4572000D01*
X10833100Y-3857498D02*
X10833100Y-3946398D01*
X10788650Y-3901948D02*
X10877550Y-3901948D01*
X10833100Y-4062476D02*
X10833100Y-4151376D01*
X10788650Y-4106926D02*
X10877550Y-4106926D01*
X10833100Y-4322572D02*
X10833100Y-4411472D01*
X10788650Y-4367022D02*
X10877550Y-4367022D01*
X10833100Y-4527550D02*
X10833100Y-4616450D01*
X10788650Y-4572000D02*
X10877550Y-4572000D01*
D15*
X10953820Y-7651820D02*
X10953820Y-7588180D01*
X10890180Y-7588180D01*
X10890180Y-7651820D01*
X10953820Y-7651820D01*
X10953820Y-8413820D02*
X10953820Y-8350180D01*
X10890180Y-8350180D01*
X10890180Y-8413820D01*
X10953820Y-8413820D01*
X11207820Y-7651820D02*
X11207820Y-7588180D01*
X11144180Y-7588180D01*
X11144180Y-7651820D01*
X11207820Y-7651820D01*
X11207820Y-8413820D02*
X11207820Y-8350180D01*
X11144180Y-8350180D01*
X11144180Y-8413820D01*
X11207820Y-8413820D01*
D16*
X2794000Y-8178000D02*
X2844000Y-8128000D01*
X2794000Y-8078000D01*
X2744000Y-8128000D01*
X2794000Y-8178000D01*
D11*
X2744000Y-8028000D02*
X2744000Y-8228000D01*
X2744000Y-8228000D02*
G75*
G03*
X2844000Y-8228000I50000J0D01*
G01*
X2844000Y-8228000D02*
X2844000Y-8028000D01*
X2844000Y-8028000D02*
G75*
G03*
X2744000Y-8028000I-50000J0D01*
G01*
D16*
X3068033Y-4461500D02*
X3118033Y-4411500D01*
X3068033Y-4361500D01*
X3018033Y-4411500D01*
X3068033Y-4461500D01*
X3068033Y-4738500D02*
X3118033Y-4688500D01*
X3068033Y-4638500D01*
X3018033Y-4688500D01*
X3068033Y-4738500D01*
X3068033Y-5015500D02*
X3118033Y-4965500D01*
X3068033Y-4915500D01*
X3018033Y-4965500D01*
X3068033Y-5015500D01*
X3068033Y-5292500D02*
X3118033Y-5242500D01*
X3068033Y-5192500D01*
X3018033Y-5242500D01*
X3068033Y-5292500D01*
X3094000Y-8648000D02*
X3144000Y-8598000D01*
X3094000Y-8548000D01*
X3044000Y-8598000D01*
X3094000Y-8648000D01*
D11*
X2994000Y-8648000D02*
X3194000Y-8648000D01*
X3194000Y-8648000D02*
G75*
G03*
X3194000Y-8548000I0J50000D01*
G01*
X3194000Y-8548000D02*
X2994000Y-8548000D01*
X2994000Y-8548000D02*
G75*
G03*
X2994000Y-8648000I0J-50000D01*
G01*
D16*
X3352033Y-4323000D02*
X3402033Y-4273000D01*
X3352033Y-4223000D01*
X3302033Y-4273000D01*
X3352033Y-4323000D01*
X3352033Y-4600000D02*
X3402033Y-4550000D01*
X3352033Y-4500000D01*
X3302033Y-4550000D01*
X3352033Y-4600000D01*
X3352033Y-4877000D02*
X3402033Y-4827000D01*
X3352033Y-4777000D01*
X3302033Y-4827000D01*
X3352033Y-4877000D01*
X3352033Y-5154000D02*
X3402033Y-5104000D01*
X3352033Y-5054000D01*
X3302033Y-5104000D01*
X3352033Y-5154000D01*
X3352033Y-5431000D02*
X3402033Y-5381000D01*
X3352033Y-5331000D01*
X3302033Y-5381000D01*
X3352033Y-5431000D01*
X3394000Y-8178000D02*
X3444000Y-8128000D01*
X3394000Y-8078000D01*
X3344000Y-8128000D01*
X3394000Y-8178000D01*
D11*
X3344000Y-8028000D02*
X3344000Y-8228000D01*
X3344000Y-8228000D02*
G75*
G03*
X3444000Y-8228000I50000J0D01*
G01*
X3444000Y-8228000D02*
X3444000Y-8028000D01*
X3444000Y-8028000D02*
G75*
G03*
X3344000Y-8028000I-50000J0D01*
G01*
D16*
X7366000Y-3352000D02*
X7416000Y-3302000D01*
X7366000Y-3252000D01*
X7316000Y-3302000D01*
X7366000Y-3352000D01*
X7366000Y-3606000D02*
X7416000Y-3556000D01*
X7366000Y-3506000D01*
X7316000Y-3556000D01*
X7366000Y-3606000D01*
X7366000Y-3860000D02*
X7416000Y-3810000D01*
X7366000Y-3760000D01*
X7316000Y-3810000D01*
X7366000Y-3860000D01*
X7366000Y-4114000D02*
X7416000Y-4064000D01*
X7366000Y-4014000D01*
X7316000Y-4064000D01*
X7366000Y-4114000D01*
X7366000Y-4368000D02*
X7416000Y-4318000D01*
X7366000Y-4268000D01*
X7316000Y-4318000D01*
X7366000Y-4368000D01*
X7366000Y-4622000D02*
X7416000Y-4572000D01*
X7366000Y-4522000D01*
X7316000Y-4572000D01*
X7366000Y-4622000D01*
X7366000Y-4876000D02*
X7416000Y-4826000D01*
X7366000Y-4776000D01*
X7316000Y-4826000D01*
X7366000Y-4876000D01*
X7366000Y-5130000D02*
X7416000Y-5080000D01*
X7366000Y-5030000D01*
X7316000Y-5080000D01*
X7366000Y-5130000D01*
X7366000Y-5384000D02*
X7416000Y-5334000D01*
X7366000Y-5284000D01*
X7316000Y-5334000D01*
X7366000Y-5384000D01*
X7366000Y-5638000D02*
X7416000Y-5588000D01*
X7366000Y-5538000D01*
X7316000Y-5588000D01*
X7366000Y-5638000D01*
X7366000Y-5892000D02*
X7416000Y-5842000D01*
X7366000Y-5792000D01*
X7316000Y-5842000D01*
X7366000Y-5892000D01*
X7366000Y-6146000D02*
X7416000Y-6096000D01*
X7366000Y-6046000D01*
X7316000Y-6096000D01*
X7366000Y-6146000D01*
X7366000Y-6400000D02*
X7416000Y-6350000D01*
X7366000Y-6300000D01*
X7316000Y-6350000D01*
X7366000Y-6400000D01*
X7366000Y-6654000D02*
X7416000Y-6604000D01*
X7366000Y-6554000D01*
X7316000Y-6604000D01*
X7366000Y-6654000D01*
X7366000Y-6908000D02*
X7416000Y-6858000D01*
X7366000Y-6808000D01*
X7316000Y-6858000D01*
X7366000Y-6908000D01*
X8890000Y-3352000D02*
X8940000Y-3302000D01*
X8890000Y-3252000D01*
X8840000Y-3302000D01*
X8890000Y-3352000D01*
X8890000Y-3606000D02*
X8940000Y-3556000D01*
X8890000Y-3506000D01*
X8840000Y-3556000D01*
X8890000Y-3606000D01*
X8890000Y-3860000D02*
X8940000Y-3810000D01*
X8890000Y-3760000D01*
X8840000Y-3810000D01*
X8890000Y-3860000D01*
X8890000Y-4114000D02*
X8940000Y-4064000D01*
X8890000Y-4014000D01*
X8840000Y-4064000D01*
X8890000Y-4114000D01*
X8890000Y-4368000D02*
X8940000Y-4318000D01*
X8890000Y-4268000D01*
X8840000Y-4318000D01*
X8890000Y-4368000D01*
X8890000Y-4622000D02*
X8940000Y-4572000D01*
X8890000Y-4522000D01*
X8840000Y-4572000D01*
X8890000Y-4622000D01*
X8890000Y-4876000D02*
X8940000Y-4826000D01*
X8890000Y-4776000D01*
X8840000Y-4826000D01*
X8890000Y-4876000D01*
X8890000Y-5130000D02*
X8940000Y-5080000D01*
X8890000Y-5030000D01*
X8840000Y-5080000D01*
X8890000Y-5130000D01*
X8890000Y-5384000D02*
X8940000Y-5334000D01*
X8890000Y-5284000D01*
X8840000Y-5334000D01*
X8890000Y-5384000D01*
X8890000Y-5638000D02*
X8940000Y-5588000D01*
X8890000Y-5538000D01*
X8840000Y-5588000D01*
X8890000Y-5638000D01*
X8890000Y-5892000D02*
X8940000Y-5842000D01*
X8890000Y-5792000D01*
X8840000Y-5842000D01*
X8890000Y-5892000D01*
X8890000Y-6146000D02*
X8940000Y-6096000D01*
X8890000Y-6046000D01*
X8840000Y-6096000D01*
X8890000Y-6146000D01*
X8890000Y-6400000D02*
X8940000Y-6350000D01*
X8890000Y-6300000D01*
X8840000Y-6350000D01*
X8890000Y-6400000D01*
X8890000Y-6654000D02*
X8940000Y-6604000D01*
X8890000Y-6554000D01*
X8840000Y-6604000D01*
X8890000Y-6654000D01*
X8890000Y-6908000D02*
X8940000Y-6858000D01*
X8890000Y-6808000D01*
X8840000Y-6858000D01*
X8890000Y-6908000D01*
D17*
X2993000Y-6803000D02*
X3103000Y-6913000D01*
X3103000Y-6803000D02*
X2993000Y-6913000D01*
X3103000Y-6858000D02*
G75*
G03*
X3103000Y-6858000I-55000J0D01*
G01*
X2993000Y-7057000D02*
X3103000Y-7167000D01*
X3103000Y-7057000D02*
X2993000Y-7167000D01*
X3103000Y-7112000D02*
G75*
G03*
X3103000Y-7112000I-55000J0D01*
G01*
X4263000Y-6803000D02*
X4373000Y-6913000D01*
X4373000Y-6803000D02*
X4263000Y-6913000D01*
X4373000Y-6858000D02*
G75*
G03*
X4373000Y-6858000I-55000J0D01*
G01*
X4263000Y-7819000D02*
X4373000Y-7929000D01*
X4373000Y-7819000D02*
X4263000Y-7929000D01*
X4373000Y-7874000D02*
G75*
G03*
X4373000Y-7874000I-55000J0D01*
G01*
X6295000Y-9089000D02*
X6405000Y-9199000D01*
X6405000Y-9089000D02*
X6295000Y-9199000D01*
X6405000Y-9144000D02*
G75*
G03*
X6405000Y-9144000I-55000J0D01*
G01*
X6549000Y-9089000D02*
X6659000Y-9199000D01*
X6659000Y-9089000D02*
X6549000Y-9199000D01*
X6659000Y-9144000D02*
G75*
G03*
X6659000Y-9144000I-55000J0D01*
G01*
X6803000Y-9089000D02*
X6913000Y-9199000D01*
X6913000Y-9089000D02*
X6803000Y-9199000D01*
X6913000Y-9144000D02*
G75*
G03*
X6913000Y-9144000I-55000J0D01*
G01*
D18*
X2679446Y-2679446D02*
X2908554Y-2908554D01*
X2908554Y-2679446D02*
X2679446Y-2908554D01*
X2794000Y-2679446D02*
X2794000Y-2908554D01*
X2679446Y-2794000D02*
X2908554Y-2794000D01*
X2679446Y-9283446D02*
X2908554Y-9512554D01*
X2908554Y-9283446D02*
X2679446Y-9512554D01*
X2794000Y-9283446D02*
X2794000Y-9512554D01*
X2679446Y-9398000D02*
X2908554Y-9398000D01*
X11018520Y-3446526D02*
X11247628Y-3675634D01*
X11247628Y-3446526D02*
X11018520Y-3675634D01*
X11133074Y-3446526D02*
X11133074Y-3675634D01*
X11018520Y-3561080D02*
X11247628Y-3561080D01*
X11018520Y-4798314D02*
X11247628Y-5027422D01*
X11247628Y-4798314D02*
X11018520Y-5027422D01*
X11133074Y-4798314D02*
X11133074Y-5027422D01*
X11018520Y-4912868D02*
X11247628Y-4912868D01*
X11099546Y-4122420D02*
X11328654Y-4351528D01*
X11328654Y-4122420D02*
X11099546Y-4351528D01*
X11214100Y-4122420D02*
X11214100Y-4351528D01*
X11099546Y-4236974D02*
X11328654Y-4236974D01*
X11315446Y-2679446D02*
X11544554Y-2908554D01*
X11544554Y-2679446D02*
X11315446Y-2908554D01*
X11430000Y-2679446D02*
X11430000Y-2908554D01*
X11315446Y-2794000D02*
X11544554Y-2794000D01*
X11315446Y-9283446D02*
X11544554Y-9512554D01*
X11544554Y-9283446D02*
X11315446Y-9512554D01*
X11430000Y-9283446D02*
X11430000Y-9512554D01*
X11315446Y-9398000D02*
X11544554Y-9398000D01*
D19*
X3162033Y-3417000D02*
X3482033Y-3737000D01*
X3482033Y-3417000D02*
X3162033Y-3737000D01*
X3435171Y-3690138D02*
X3435171Y-3463862D01*
X3208895Y-3463862D01*
X3208895Y-3690138D01*
X3435171Y-3690138D01*
X3162033Y-5917000D02*
X3482033Y-6237000D01*
X3482033Y-5917000D02*
X3162033Y-6237000D01*
X3435171Y-6190138D02*
X3435171Y-5963862D01*
X3208895Y-5963862D01*
X3208895Y-6190138D01*
X3435171Y-6190138D01*
D11*
X2798277Y-9965984D02*
X2798277Y-9765984D01*
X2798277Y-9765984D02*
X2845896Y-9765984D01*
X2845896Y-9765984D02*
X2874467Y-9775508D01*
X2874467Y-9775508D02*
X2893515Y-9794555D01*
X2893515Y-9794555D02*
X2903039Y-9813603D01*
X2903039Y-9813603D02*
X2912562Y-9851698D01*
X2912562Y-9851698D02*
X2912562Y-9880270D01*
X2912562Y-9880270D02*
X2903039Y-9918365D01*
X2903039Y-9918365D02*
X2893515Y-9937412D01*
X2893515Y-9937412D02*
X2874467Y-9956460D01*
X2874467Y-9956460D02*
X2845896Y-9965984D01*
X2845896Y-9965984D02*
X2798277Y-9965984D01*
X2998277Y-9965984D02*
X2998277Y-9832650D01*
X2998277Y-9870746D02*
X3007801Y-9851698D01*
X3007801Y-9851698D02*
X3017324Y-9842174D01*
X3017324Y-9842174D02*
X3036372Y-9832650D01*
X3036372Y-9832650D02*
X3055420Y-9832650D01*
X3122086Y-9965984D02*
X3122086Y-9832650D01*
X3122086Y-9765984D02*
X3112562Y-9775508D01*
X3112562Y-9775508D02*
X3122086Y-9785031D01*
X3122086Y-9785031D02*
X3131610Y-9775508D01*
X3131610Y-9775508D02*
X3122086Y-9765984D01*
X3122086Y-9765984D02*
X3122086Y-9785031D01*
X3245896Y-9965984D02*
X3226848Y-9956460D01*
X3226848Y-9956460D02*
X3217324Y-9937412D01*
X3217324Y-9937412D02*
X3217324Y-9765984D01*
X3350658Y-9965984D02*
X3331610Y-9956460D01*
X3331610Y-9956460D02*
X3322086Y-9937412D01*
X3322086Y-9937412D02*
X3322086Y-9765984D01*
X3579229Y-9965984D02*
X3579229Y-9765984D01*
X3579229Y-9765984D02*
X3645896Y-9908841D01*
X3645896Y-9908841D02*
X3712562Y-9765984D01*
X3712562Y-9765984D02*
X3712562Y-9965984D01*
X3893515Y-9965984D02*
X3893515Y-9861222D01*
X3893515Y-9861222D02*
X3883991Y-9842174D01*
X3883991Y-9842174D02*
X3864943Y-9832650D01*
X3864943Y-9832650D02*
X3826848Y-9832650D01*
X3826848Y-9832650D02*
X3807801Y-9842174D01*
X3893515Y-9956460D02*
X3874467Y-9965984D01*
X3874467Y-9965984D02*
X3826848Y-9965984D01*
X3826848Y-9965984D02*
X3807801Y-9956460D01*
X3807801Y-9956460D02*
X3798277Y-9937412D01*
X3798277Y-9937412D02*
X3798277Y-9918365D01*
X3798277Y-9918365D02*
X3807801Y-9899317D01*
X3807801Y-9899317D02*
X3826848Y-9889793D01*
X3826848Y-9889793D02*
X3874467Y-9889793D01*
X3874467Y-9889793D02*
X3893515Y-9880270D01*
X3988753Y-9832650D02*
X3988753Y-10032650D01*
X3988753Y-9842174D02*
X4007801Y-9832650D01*
X4007801Y-9832650D02*
X4045896Y-9832650D01*
X4045896Y-9832650D02*
X4064943Y-9842174D01*
X4064943Y-9842174D02*
X4074467Y-9851698D01*
X4074467Y-9851698D02*
X4083991Y-9870746D01*
X4083991Y-9870746D02*
X4083991Y-9927889D01*
X4083991Y-9927889D02*
X4074467Y-9946936D01*
X4074467Y-9946936D02*
X4064943Y-9956460D01*
X4064943Y-9956460D02*
X4045896Y-9965984D01*
X4045896Y-9965984D02*
X4007801Y-9965984D01*
X4007801Y-9965984D02*
X3988753Y-9956460D01*
X4169705Y-9946936D02*
X4179229Y-9956460D01*
X4179229Y-9956460D02*
X4169705Y-9965984D01*
X4169705Y-9965984D02*
X4160182Y-9956460D01*
X4160182Y-9956460D02*
X4169705Y-9946936D01*
X4169705Y-9946936D02*
X4169705Y-9965984D01*
X4169705Y-9842174D02*
X4179229Y-9851698D01*
X4179229Y-9851698D02*
X4169705Y-9861222D01*
X4169705Y-9861222D02*
X4160182Y-9851698D01*
X4160182Y-9851698D02*
X4169705Y-9842174D01*
X4169705Y-9842174D02*
X4169705Y-9861222D01*
D12*
X2462500Y-10257000D02*
X2537500Y-10332000D01*
X2537500Y-10257000D02*
X2462500Y-10332000D01*
D11*
X2836372Y-10185984D02*
X2855420Y-10185984D01*
X2855420Y-10185984D02*
X2874467Y-10195508D01*
X2874467Y-10195508D02*
X2883991Y-10205031D01*
X2883991Y-10205031D02*
X2893515Y-10224079D01*
X2893515Y-10224079D02*
X2903039Y-10262174D01*
X2903039Y-10262174D02*
X2903039Y-10309793D01*
X2903039Y-10309793D02*
X2893515Y-10347889D01*
X2893515Y-10347889D02*
X2883991Y-10366936D01*
X2883991Y-10366936D02*
X2874467Y-10376460D01*
X2874467Y-10376460D02*
X2855420Y-10385984D01*
X2855420Y-10385984D02*
X2836372Y-10385984D01*
X2836372Y-10385984D02*
X2817324Y-10376460D01*
X2817324Y-10376460D02*
X2807801Y-10366936D01*
X2807801Y-10366936D02*
X2798277Y-10347889D01*
X2798277Y-10347889D02*
X2788753Y-10309793D01*
X2788753Y-10309793D02*
X2788753Y-10262174D01*
X2788753Y-10262174D02*
X2798277Y-10224079D01*
X2798277Y-10224079D02*
X2807801Y-10205031D01*
X2807801Y-10205031D02*
X2817324Y-10195508D01*
X2817324Y-10195508D02*
X2836372Y-10185984D01*
X2988753Y-10366936D02*
X2998277Y-10376460D01*
X2998277Y-10376460D02*
X2988753Y-10385984D01*
X2988753Y-10385984D02*
X2979229Y-10376460D01*
X2979229Y-10376460D02*
X2988753Y-10366936D01*
X2988753Y-10366936D02*
X2988753Y-10385984D01*
X3064943Y-10185984D02*
X3198277Y-10185984D01*
X3198277Y-10185984D02*
X3112562Y-10385984D01*
X3369705Y-10185984D02*
X3274467Y-10185984D01*
X3274467Y-10185984D02*
X3264943Y-10281222D01*
X3264943Y-10281222D02*
X3274467Y-10271698D01*
X3274467Y-10271698D02*
X3293515Y-10262174D01*
X3293515Y-10262174D02*
X3341134Y-10262174D01*
X3341134Y-10262174D02*
X3360182Y-10271698D01*
X3360182Y-10271698D02*
X3369705Y-10281222D01*
X3369705Y-10281222D02*
X3379229Y-10300270D01*
X3379229Y-10300270D02*
X3379229Y-10347889D01*
X3379229Y-10347889D02*
X3369705Y-10366936D01*
X3369705Y-10366936D02*
X3360182Y-10376460D01*
X3360182Y-10376460D02*
X3341134Y-10385984D01*
X3341134Y-10385984D02*
X3293515Y-10385984D01*
X3293515Y-10385984D02*
X3274467Y-10376460D01*
X3274467Y-10376460D02*
X3264943Y-10366936D01*
X3503039Y-10185984D02*
X3522086Y-10185984D01*
X3522086Y-10185984D02*
X3541134Y-10195508D01*
X3541134Y-10195508D02*
X3550658Y-10205031D01*
X3550658Y-10205031D02*
X3560182Y-10224079D01*
X3560182Y-10224079D02*
X3569705Y-10262174D01*
X3569705Y-10262174D02*
X3569705Y-10309793D01*
X3569705Y-10309793D02*
X3560182Y-10347889D01*
X3560182Y-10347889D02*
X3550658Y-10366936D01*
X3550658Y-10366936D02*
X3541134Y-10376460D01*
X3541134Y-10376460D02*
X3522086Y-10385984D01*
X3522086Y-10385984D02*
X3503039Y-10385984D01*
X3503039Y-10385984D02*
X3483991Y-10376460D01*
X3483991Y-10376460D02*
X3474467Y-10366936D01*
X3474467Y-10366936D02*
X3464943Y-10347889D01*
X3464943Y-10347889D02*
X3455420Y-10309793D01*
X3455420Y-10309793D02*
X3455420Y-10262174D01*
X3455420Y-10262174D02*
X3464943Y-10224079D01*
X3464943Y-10224079D02*
X3474467Y-10205031D01*
X3474467Y-10205031D02*
X3483991Y-10195508D01*
X3483991Y-10195508D02*
X3503039Y-10185984D01*
X3655420Y-10385984D02*
X3655420Y-10252650D01*
X3655420Y-10271698D02*
X3664943Y-10262174D01*
X3664943Y-10262174D02*
X3683991Y-10252650D01*
X3683991Y-10252650D02*
X3712563Y-10252650D01*
X3712563Y-10252650D02*
X3731610Y-10262174D01*
X3731610Y-10262174D02*
X3741134Y-10281222D01*
X3741134Y-10281222D02*
X3741134Y-10385984D01*
X3741134Y-10281222D02*
X3750658Y-10262174D01*
X3750658Y-10262174D02*
X3769705Y-10252650D01*
X3769705Y-10252650D02*
X3798277Y-10252650D01*
X3798277Y-10252650D02*
X3817324Y-10262174D01*
X3817324Y-10262174D02*
X3826848Y-10281222D01*
X3826848Y-10281222D02*
X3826848Y-10385984D01*
X3922086Y-10385984D02*
X3922086Y-10252650D01*
X3922086Y-10271698D02*
X3931610Y-10262174D01*
X3931610Y-10262174D02*
X3950658Y-10252650D01*
X3950658Y-10252650D02*
X3979229Y-10252650D01*
X3979229Y-10252650D02*
X3998277Y-10262174D01*
X3998277Y-10262174D02*
X4007801Y-10281222D01*
X4007801Y-10281222D02*
X4007801Y-10385984D01*
X4007801Y-10281222D02*
X4017324Y-10262174D01*
X4017324Y-10262174D02*
X4036372Y-10252650D01*
X4036372Y-10252650D02*
X4064943Y-10252650D01*
X4064943Y-10252650D02*
X4083991Y-10262174D01*
X4083991Y-10262174D02*
X4093515Y-10281222D01*
X4093515Y-10281222D02*
X4093515Y-10385984D01*
X4483991Y-10176460D02*
X4312563Y-10433603D01*
X4741134Y-10185984D02*
X4760182Y-10185984D01*
X4760182Y-10185984D02*
X4779229Y-10195508D01*
X4779229Y-10195508D02*
X4788753Y-10205031D01*
X4788753Y-10205031D02*
X4798277Y-10224079D01*
X4798277Y-10224079D02*
X4807801Y-10262174D01*
X4807801Y-10262174D02*
X4807801Y-10309793D01*
X4807801Y-10309793D02*
X4798277Y-10347889D01*
X4798277Y-10347889D02*
X4788753Y-10366936D01*
X4788753Y-10366936D02*
X4779229Y-10376460D01*
X4779229Y-10376460D02*
X4760182Y-10385984D01*
X4760182Y-10385984D02*
X4741134Y-10385984D01*
X4741134Y-10385984D02*
X4722087Y-10376460D01*
X4722087Y-10376460D02*
X4712563Y-10366936D01*
X4712563Y-10366936D02*
X4703039Y-10347889D01*
X4703039Y-10347889D02*
X4693515Y-10309793D01*
X4693515Y-10309793D02*
X4693515Y-10262174D01*
X4693515Y-10262174D02*
X4703039Y-10224079D01*
X4703039Y-10224079D02*
X4712563Y-10205031D01*
X4712563Y-10205031D02*
X4722087Y-10195508D01*
X4722087Y-10195508D02*
X4741134Y-10185984D01*
X4893515Y-10366936D02*
X4903039Y-10376460D01*
X4903039Y-10376460D02*
X4893515Y-10385984D01*
X4893515Y-10385984D02*
X4883991Y-10376460D01*
X4883991Y-10376460D02*
X4893515Y-10366936D01*
X4893515Y-10366936D02*
X4893515Y-10385984D01*
X5026848Y-10185984D02*
X5045896Y-10185984D01*
X5045896Y-10185984D02*
X5064944Y-10195508D01*
X5064944Y-10195508D02*
X5074468Y-10205031D01*
X5074468Y-10205031D02*
X5083991Y-10224079D01*
X5083991Y-10224079D02*
X5093515Y-10262174D01*
X5093515Y-10262174D02*
X5093515Y-10309793D01*
X5093515Y-10309793D02*
X5083991Y-10347889D01*
X5083991Y-10347889D02*
X5074468Y-10366936D01*
X5074468Y-10366936D02*
X5064944Y-10376460D01*
X5064944Y-10376460D02*
X5045896Y-10385984D01*
X5045896Y-10385984D02*
X5026848Y-10385984D01*
X5026848Y-10385984D02*
X5007801Y-10376460D01*
X5007801Y-10376460D02*
X4998277Y-10366936D01*
X4998277Y-10366936D02*
X4988753Y-10347889D01*
X4988753Y-10347889D02*
X4979229Y-10309793D01*
X4979229Y-10309793D02*
X4979229Y-10262174D01*
X4979229Y-10262174D02*
X4988753Y-10224079D01*
X4988753Y-10224079D02*
X4998277Y-10205031D01*
X4998277Y-10205031D02*
X5007801Y-10195508D01*
X5007801Y-10195508D02*
X5026848Y-10185984D01*
X5169706Y-10205031D02*
X5179229Y-10195508D01*
X5179229Y-10195508D02*
X5198277Y-10185984D01*
X5198277Y-10185984D02*
X5245896Y-10185984D01*
X5245896Y-10185984D02*
X5264944Y-10195508D01*
X5264944Y-10195508D02*
X5274468Y-10205031D01*
X5274468Y-10205031D02*
X5283991Y-10224079D01*
X5283991Y-10224079D02*
X5283991Y-10243127D01*
X5283991Y-10243127D02*
X5274468Y-10271698D01*
X5274468Y-10271698D02*
X5160182Y-10385984D01*
X5160182Y-10385984D02*
X5283991Y-10385984D01*
X5379229Y-10385984D02*
X5417325Y-10385984D01*
X5417325Y-10385984D02*
X5436372Y-10376460D01*
X5436372Y-10376460D02*
X5445896Y-10366936D01*
X5445896Y-10366936D02*
X5464944Y-10338365D01*
X5464944Y-10338365D02*
X5474468Y-10300270D01*
X5474468Y-10300270D02*
X5474468Y-10224079D01*
X5474468Y-10224079D02*
X5464944Y-10205031D01*
X5464944Y-10205031D02*
X5455420Y-10195508D01*
X5455420Y-10195508D02*
X5436372Y-10185984D01*
X5436372Y-10185984D02*
X5398277Y-10185984D01*
X5398277Y-10185984D02*
X5379229Y-10195508D01*
X5379229Y-10195508D02*
X5369706Y-10205031D01*
X5369706Y-10205031D02*
X5360182Y-10224079D01*
X5360182Y-10224079D02*
X5360182Y-10271698D01*
X5360182Y-10271698D02*
X5369706Y-10290746D01*
X5369706Y-10290746D02*
X5379229Y-10300270D01*
X5379229Y-10300270D02*
X5398277Y-10309793D01*
X5398277Y-10309793D02*
X5436372Y-10309793D01*
X5436372Y-10309793D02*
X5455420Y-10300270D01*
X5455420Y-10300270D02*
X5464944Y-10290746D01*
X5464944Y-10290746D02*
X5474468Y-10271698D01*
X5655420Y-10185984D02*
X5560182Y-10185984D01*
X5560182Y-10185984D02*
X5550658Y-10281222D01*
X5550658Y-10281222D02*
X5560182Y-10271698D01*
X5560182Y-10271698D02*
X5579229Y-10262174D01*
X5579229Y-10262174D02*
X5626848Y-10262174D01*
X5626848Y-10262174D02*
X5645896Y-10271698D01*
X5645896Y-10271698D02*
X5655420Y-10281222D01*
X5655420Y-10281222D02*
X5664944Y-10300270D01*
X5664944Y-10300270D02*
X5664944Y-10347889D01*
X5664944Y-10347889D02*
X5655420Y-10366936D01*
X5655420Y-10366936D02*
X5645896Y-10376460D01*
X5645896Y-10376460D02*
X5626848Y-10385984D01*
X5626848Y-10385984D02*
X5579229Y-10385984D01*
X5579229Y-10385984D02*
X5560182Y-10376460D01*
X5560182Y-10376460D02*
X5550658Y-10366936D01*
X5741134Y-10185984D02*
X5741134Y-10224079D01*
X5817325Y-10185984D02*
X5817325Y-10224079D01*
X6112563Y-10462174D02*
X6103039Y-10452650D01*
X6103039Y-10452650D02*
X6083991Y-10424079D01*
X6083991Y-10424079D02*
X6074468Y-10405031D01*
X6074468Y-10405031D02*
X6064944Y-10376460D01*
X6064944Y-10376460D02*
X6055420Y-10328841D01*
X6055420Y-10328841D02*
X6055420Y-10290746D01*
X6055420Y-10290746D02*
X6064944Y-10243127D01*
X6064944Y-10243127D02*
X6074468Y-10214555D01*
X6074468Y-10214555D02*
X6083991Y-10195508D01*
X6083991Y-10195508D02*
X6103039Y-10166936D01*
X6103039Y-10166936D02*
X6112563Y-10157412D01*
X6274468Y-10185984D02*
X6236372Y-10185984D01*
X6236372Y-10185984D02*
X6217325Y-10195508D01*
X6217325Y-10195508D02*
X6207801Y-10205031D01*
X6207801Y-10205031D02*
X6188753Y-10233603D01*
X6188753Y-10233603D02*
X6179229Y-10271698D01*
X6179229Y-10271698D02*
X6179229Y-10347889D01*
X6179229Y-10347889D02*
X6188753Y-10366936D01*
X6188753Y-10366936D02*
X6198277Y-10376460D01*
X6198277Y-10376460D02*
X6217325Y-10385984D01*
X6217325Y-10385984D02*
X6255420Y-10385984D01*
X6255420Y-10385984D02*
X6274468Y-10376460D01*
X6274468Y-10376460D02*
X6283991Y-10366936D01*
X6283991Y-10366936D02*
X6293515Y-10347889D01*
X6293515Y-10347889D02*
X6293515Y-10300270D01*
X6293515Y-10300270D02*
X6283991Y-10281222D01*
X6283991Y-10281222D02*
X6274468Y-10271698D01*
X6274468Y-10271698D02*
X6255420Y-10262174D01*
X6255420Y-10262174D02*
X6217325Y-10262174D01*
X6217325Y-10262174D02*
X6198277Y-10271698D01*
X6198277Y-10271698D02*
X6188753Y-10281222D01*
X6188753Y-10281222D02*
X6179229Y-10300270D01*
X6531610Y-10385984D02*
X6531610Y-10185984D01*
X6617325Y-10385984D02*
X6617325Y-10281222D01*
X6617325Y-10281222D02*
X6607801Y-10262174D01*
X6607801Y-10262174D02*
X6588753Y-10252650D01*
X6588753Y-10252650D02*
X6560182Y-10252650D01*
X6560182Y-10252650D02*
X6541134Y-10262174D01*
X6541134Y-10262174D02*
X6531610Y-10271698D01*
X6741134Y-10385984D02*
X6722087Y-10376460D01*
X6722087Y-10376460D02*
X6712563Y-10366936D01*
X6712563Y-10366936D02*
X6703039Y-10347889D01*
X6703039Y-10347889D02*
X6703039Y-10290746D01*
X6703039Y-10290746D02*
X6712563Y-10271698D01*
X6712563Y-10271698D02*
X6722087Y-10262174D01*
X6722087Y-10262174D02*
X6741134Y-10252650D01*
X6741134Y-10252650D02*
X6769706Y-10252650D01*
X6769706Y-10252650D02*
X6788753Y-10262174D01*
X6788753Y-10262174D02*
X6798277Y-10271698D01*
X6798277Y-10271698D02*
X6807801Y-10290746D01*
X6807801Y-10290746D02*
X6807801Y-10347889D01*
X6807801Y-10347889D02*
X6798277Y-10366936D01*
X6798277Y-10366936D02*
X6788753Y-10376460D01*
X6788753Y-10376460D02*
X6769706Y-10385984D01*
X6769706Y-10385984D02*
X6741134Y-10385984D01*
X6922087Y-10385984D02*
X6903039Y-10376460D01*
X6903039Y-10376460D02*
X6893515Y-10357412D01*
X6893515Y-10357412D02*
X6893515Y-10185984D01*
X7074468Y-10376460D02*
X7055420Y-10385984D01*
X7055420Y-10385984D02*
X7017325Y-10385984D01*
X7017325Y-10385984D02*
X6998277Y-10376460D01*
X6998277Y-10376460D02*
X6988753Y-10357412D01*
X6988753Y-10357412D02*
X6988753Y-10281222D01*
X6988753Y-10281222D02*
X6998277Y-10262174D01*
X6998277Y-10262174D02*
X7017325Y-10252650D01*
X7017325Y-10252650D02*
X7055420Y-10252650D01*
X7055420Y-10252650D02*
X7074468Y-10262174D01*
X7074468Y-10262174D02*
X7083991Y-10281222D01*
X7083991Y-10281222D02*
X7083991Y-10300270D01*
X7083991Y-10300270D02*
X6988753Y-10319317D01*
X7160182Y-10376460D02*
X7179230Y-10385984D01*
X7179230Y-10385984D02*
X7217325Y-10385984D01*
X7217325Y-10385984D02*
X7236372Y-10376460D01*
X7236372Y-10376460D02*
X7245896Y-10357412D01*
X7245896Y-10357412D02*
X7245896Y-10347889D01*
X7245896Y-10347889D02*
X7236372Y-10328841D01*
X7236372Y-10328841D02*
X7217325Y-10319317D01*
X7217325Y-10319317D02*
X7188753Y-10319317D01*
X7188753Y-10319317D02*
X7169706Y-10309793D01*
X7169706Y-10309793D02*
X7160182Y-10290746D01*
X7160182Y-10290746D02*
X7160182Y-10281222D01*
X7160182Y-10281222D02*
X7169706Y-10262174D01*
X7169706Y-10262174D02*
X7188753Y-10252650D01*
X7188753Y-10252650D02*
X7217325Y-10252650D01*
X7217325Y-10252650D02*
X7236372Y-10262174D01*
X7312563Y-10462174D02*
X7322087Y-10452650D01*
X7322087Y-10452650D02*
X7341134Y-10424079D01*
X7341134Y-10424079D02*
X7350658Y-10405031D01*
X7350658Y-10405031D02*
X7360182Y-10376460D01*
X7360182Y-10376460D02*
X7369706Y-10328841D01*
X7369706Y-10328841D02*
X7369706Y-10290746D01*
X7369706Y-10290746D02*
X7360182Y-10243127D01*
X7360182Y-10243127D02*
X7350658Y-10214555D01*
X7350658Y-10214555D02*
X7341134Y-10195508D01*
X7341134Y-10195508D02*
X7322087Y-10166936D01*
X7322087Y-10166936D02*
X7312563Y-10157412D01*
D13*
X2537500Y-10558500D02*
G75*
G03*
X2537500Y-10558500I-40000J0D01*
G01*
D11*
X2836372Y-10449984D02*
X2855420Y-10449984D01*
X2855420Y-10449984D02*
X2874467Y-10459508D01*
X2874467Y-10459508D02*
X2883991Y-10469031D01*
X2883991Y-10469031D02*
X2893515Y-10488079D01*
X2893515Y-10488079D02*
X2903039Y-10526174D01*
X2903039Y-10526174D02*
X2903039Y-10573793D01*
X2903039Y-10573793D02*
X2893515Y-10611889D01*
X2893515Y-10611889D02*
X2883991Y-10630936D01*
X2883991Y-10630936D02*
X2874467Y-10640460D01*
X2874467Y-10640460D02*
X2855420Y-10649984D01*
X2855420Y-10649984D02*
X2836372Y-10649984D01*
X2836372Y-10649984D02*
X2817324Y-10640460D01*
X2817324Y-10640460D02*
X2807801Y-10630936D01*
X2807801Y-10630936D02*
X2798277Y-10611889D01*
X2798277Y-10611889D02*
X2788753Y-10573793D01*
X2788753Y-10573793D02*
X2788753Y-10526174D01*
X2788753Y-10526174D02*
X2798277Y-10488079D01*
X2798277Y-10488079D02*
X2807801Y-10469031D01*
X2807801Y-10469031D02*
X2817324Y-10459508D01*
X2817324Y-10459508D02*
X2836372Y-10449984D01*
X2988753Y-10630936D02*
X2998277Y-10640460D01*
X2998277Y-10640460D02*
X2988753Y-10649984D01*
X2988753Y-10649984D02*
X2979229Y-10640460D01*
X2979229Y-10640460D02*
X2988753Y-10630936D01*
X2988753Y-10630936D02*
X2988753Y-10649984D01*
X3112562Y-10535698D02*
X3093515Y-10526174D01*
X3093515Y-10526174D02*
X3083991Y-10516650D01*
X3083991Y-10516650D02*
X3074467Y-10497603D01*
X3074467Y-10497603D02*
X3074467Y-10488079D01*
X3074467Y-10488079D02*
X3083991Y-10469031D01*
X3083991Y-10469031D02*
X3093515Y-10459508D01*
X3093515Y-10459508D02*
X3112562Y-10449984D01*
X3112562Y-10449984D02*
X3150658Y-10449984D01*
X3150658Y-10449984D02*
X3169705Y-10459508D01*
X3169705Y-10459508D02*
X3179229Y-10469031D01*
X3179229Y-10469031D02*
X3188753Y-10488079D01*
X3188753Y-10488079D02*
X3188753Y-10497603D01*
X3188753Y-10497603D02*
X3179229Y-10516650D01*
X3179229Y-10516650D02*
X3169705Y-10526174D01*
X3169705Y-10526174D02*
X3150658Y-10535698D01*
X3150658Y-10535698D02*
X3112562Y-10535698D01*
X3112562Y-10535698D02*
X3093515Y-10545222D01*
X3093515Y-10545222D02*
X3083991Y-10554746D01*
X3083991Y-10554746D02*
X3074467Y-10573793D01*
X3074467Y-10573793D02*
X3074467Y-10611889D01*
X3074467Y-10611889D02*
X3083991Y-10630936D01*
X3083991Y-10630936D02*
X3093515Y-10640460D01*
X3093515Y-10640460D02*
X3112562Y-10649984D01*
X3112562Y-10649984D02*
X3150658Y-10649984D01*
X3150658Y-10649984D02*
X3169705Y-10640460D01*
X3169705Y-10640460D02*
X3179229Y-10630936D01*
X3179229Y-10630936D02*
X3188753Y-10611889D01*
X3188753Y-10611889D02*
X3188753Y-10573793D01*
X3188753Y-10573793D02*
X3179229Y-10554746D01*
X3179229Y-10554746D02*
X3169705Y-10545222D01*
X3169705Y-10545222D02*
X3150658Y-10535698D01*
X3312562Y-10449984D02*
X3331610Y-10449984D01*
X3331610Y-10449984D02*
X3350658Y-10459508D01*
X3350658Y-10459508D02*
X3360182Y-10469031D01*
X3360182Y-10469031D02*
X3369705Y-10488079D01*
X3369705Y-10488079D02*
X3379229Y-10526174D01*
X3379229Y-10526174D02*
X3379229Y-10573793D01*
X3379229Y-10573793D02*
X3369705Y-10611889D01*
X3369705Y-10611889D02*
X3360182Y-10630936D01*
X3360182Y-10630936D02*
X3350658Y-10640460D01*
X3350658Y-10640460D02*
X3331610Y-10649984D01*
X3331610Y-10649984D02*
X3312562Y-10649984D01*
X3312562Y-10649984D02*
X3293515Y-10640460D01*
X3293515Y-10640460D02*
X3283991Y-10630936D01*
X3283991Y-10630936D02*
X3274467Y-10611889D01*
X3274467Y-10611889D02*
X3264943Y-10573793D01*
X3264943Y-10573793D02*
X3264943Y-10526174D01*
X3264943Y-10526174D02*
X3274467Y-10488079D01*
X3274467Y-10488079D02*
X3283991Y-10469031D01*
X3283991Y-10469031D02*
X3293515Y-10459508D01*
X3293515Y-10459508D02*
X3312562Y-10449984D01*
X3503039Y-10449984D02*
X3522086Y-10449984D01*
X3522086Y-10449984D02*
X3541134Y-10459508D01*
X3541134Y-10459508D02*
X3550658Y-10469031D01*
X3550658Y-10469031D02*
X3560182Y-10488079D01*
X3560182Y-10488079D02*
X3569705Y-10526174D01*
X3569705Y-10526174D02*
X3569705Y-10573793D01*
X3569705Y-10573793D02*
X3560182Y-10611889D01*
X3560182Y-10611889D02*
X3550658Y-10630936D01*
X3550658Y-10630936D02*
X3541134Y-10640460D01*
X3541134Y-10640460D02*
X3522086Y-10649984D01*
X3522086Y-10649984D02*
X3503039Y-10649984D01*
X3503039Y-10649984D02*
X3483991Y-10640460D01*
X3483991Y-10640460D02*
X3474467Y-10630936D01*
X3474467Y-10630936D02*
X3464943Y-10611889D01*
X3464943Y-10611889D02*
X3455420Y-10573793D01*
X3455420Y-10573793D02*
X3455420Y-10526174D01*
X3455420Y-10526174D02*
X3464943Y-10488079D01*
X3464943Y-10488079D02*
X3474467Y-10469031D01*
X3474467Y-10469031D02*
X3483991Y-10459508D01*
X3483991Y-10459508D02*
X3503039Y-10449984D01*
X3655420Y-10649984D02*
X3655420Y-10516650D01*
X3655420Y-10535698D02*
X3664943Y-10526174D01*
X3664943Y-10526174D02*
X3683991Y-10516650D01*
X3683991Y-10516650D02*
X3712563Y-10516650D01*
X3712563Y-10516650D02*
X3731610Y-10526174D01*
X3731610Y-10526174D02*
X3741134Y-10545222D01*
X3741134Y-10545222D02*
X3741134Y-10649984D01*
X3741134Y-10545222D02*
X3750658Y-10526174D01*
X3750658Y-10526174D02*
X3769705Y-10516650D01*
X3769705Y-10516650D02*
X3798277Y-10516650D01*
X3798277Y-10516650D02*
X3817324Y-10526174D01*
X3817324Y-10526174D02*
X3826848Y-10545222D01*
X3826848Y-10545222D02*
X3826848Y-10649984D01*
X3922086Y-10649984D02*
X3922086Y-10516650D01*
X3922086Y-10535698D02*
X3931610Y-10526174D01*
X3931610Y-10526174D02*
X3950658Y-10516650D01*
X3950658Y-10516650D02*
X3979229Y-10516650D01*
X3979229Y-10516650D02*
X3998277Y-10526174D01*
X3998277Y-10526174D02*
X4007801Y-10545222D01*
X4007801Y-10545222D02*
X4007801Y-10649984D01*
X4007801Y-10545222D02*
X4017324Y-10526174D01*
X4017324Y-10526174D02*
X4036372Y-10516650D01*
X4036372Y-10516650D02*
X4064943Y-10516650D01*
X4064943Y-10516650D02*
X4083991Y-10526174D01*
X4083991Y-10526174D02*
X4093515Y-10545222D01*
X4093515Y-10545222D02*
X4093515Y-10649984D01*
X4483991Y-10440460D02*
X4312563Y-10697603D01*
X4741134Y-10449984D02*
X4760182Y-10449984D01*
X4760182Y-10449984D02*
X4779229Y-10459508D01*
X4779229Y-10459508D02*
X4788753Y-10469031D01*
X4788753Y-10469031D02*
X4798277Y-10488079D01*
X4798277Y-10488079D02*
X4807801Y-10526174D01*
X4807801Y-10526174D02*
X4807801Y-10573793D01*
X4807801Y-10573793D02*
X4798277Y-10611889D01*
X4798277Y-10611889D02*
X4788753Y-10630936D01*
X4788753Y-10630936D02*
X4779229Y-10640460D01*
X4779229Y-10640460D02*
X4760182Y-10649984D01*
X4760182Y-10649984D02*
X4741134Y-10649984D01*
X4741134Y-10649984D02*
X4722087Y-10640460D01*
X4722087Y-10640460D02*
X4712563Y-10630936D01*
X4712563Y-10630936D02*
X4703039Y-10611889D01*
X4703039Y-10611889D02*
X4693515Y-10573793D01*
X4693515Y-10573793D02*
X4693515Y-10526174D01*
X4693515Y-10526174D02*
X4703039Y-10488079D01*
X4703039Y-10488079D02*
X4712563Y-10469031D01*
X4712563Y-10469031D02*
X4722087Y-10459508D01*
X4722087Y-10459508D02*
X4741134Y-10449984D01*
X4893515Y-10630936D02*
X4903039Y-10640460D01*
X4903039Y-10640460D02*
X4893515Y-10649984D01*
X4893515Y-10649984D02*
X4883991Y-10640460D01*
X4883991Y-10640460D02*
X4893515Y-10630936D01*
X4893515Y-10630936D02*
X4893515Y-10649984D01*
X5026848Y-10449984D02*
X5045896Y-10449984D01*
X5045896Y-10449984D02*
X5064944Y-10459508D01*
X5064944Y-10459508D02*
X5074468Y-10469031D01*
X5074468Y-10469031D02*
X5083991Y-10488079D01*
X5083991Y-10488079D02*
X5093515Y-10526174D01*
X5093515Y-10526174D02*
X5093515Y-10573793D01*
X5093515Y-10573793D02*
X5083991Y-10611889D01*
X5083991Y-10611889D02*
X5074468Y-10630936D01*
X5074468Y-10630936D02*
X5064944Y-10640460D01*
X5064944Y-10640460D02*
X5045896Y-10649984D01*
X5045896Y-10649984D02*
X5026848Y-10649984D01*
X5026848Y-10649984D02*
X5007801Y-10640460D01*
X5007801Y-10640460D02*
X4998277Y-10630936D01*
X4998277Y-10630936D02*
X4988753Y-10611889D01*
X4988753Y-10611889D02*
X4979229Y-10573793D01*
X4979229Y-10573793D02*
X4979229Y-10526174D01*
X4979229Y-10526174D02*
X4988753Y-10488079D01*
X4988753Y-10488079D02*
X4998277Y-10469031D01*
X4998277Y-10469031D02*
X5007801Y-10459508D01*
X5007801Y-10459508D02*
X5026848Y-10449984D01*
X5160182Y-10449984D02*
X5283991Y-10449984D01*
X5283991Y-10449984D02*
X5217325Y-10526174D01*
X5217325Y-10526174D02*
X5245896Y-10526174D01*
X5245896Y-10526174D02*
X5264944Y-10535698D01*
X5264944Y-10535698D02*
X5274468Y-10545222D01*
X5274468Y-10545222D02*
X5283991Y-10564270D01*
X5283991Y-10564270D02*
X5283991Y-10611889D01*
X5283991Y-10611889D02*
X5274468Y-10630936D01*
X5274468Y-10630936D02*
X5264944Y-10640460D01*
X5264944Y-10640460D02*
X5245896Y-10649984D01*
X5245896Y-10649984D02*
X5188753Y-10649984D01*
X5188753Y-10649984D02*
X5169706Y-10640460D01*
X5169706Y-10640460D02*
X5160182Y-10630936D01*
X5474468Y-10649984D02*
X5360182Y-10649984D01*
X5417325Y-10649984D02*
X5417325Y-10449984D01*
X5417325Y-10449984D02*
X5398277Y-10478555D01*
X5398277Y-10478555D02*
X5379229Y-10497603D01*
X5379229Y-10497603D02*
X5360182Y-10507127D01*
X5655420Y-10449984D02*
X5560182Y-10449984D01*
X5560182Y-10449984D02*
X5550658Y-10545222D01*
X5550658Y-10545222D02*
X5560182Y-10535698D01*
X5560182Y-10535698D02*
X5579229Y-10526174D01*
X5579229Y-10526174D02*
X5626848Y-10526174D01*
X5626848Y-10526174D02*
X5645896Y-10535698D01*
X5645896Y-10535698D02*
X5655420Y-10545222D01*
X5655420Y-10545222D02*
X5664944Y-10564270D01*
X5664944Y-10564270D02*
X5664944Y-10611889D01*
X5664944Y-10611889D02*
X5655420Y-10630936D01*
X5655420Y-10630936D02*
X5645896Y-10640460D01*
X5645896Y-10640460D02*
X5626848Y-10649984D01*
X5626848Y-10649984D02*
X5579229Y-10649984D01*
X5579229Y-10649984D02*
X5560182Y-10640460D01*
X5560182Y-10640460D02*
X5550658Y-10630936D01*
X5741134Y-10449984D02*
X5741134Y-10488079D01*
X5817325Y-10449984D02*
X5817325Y-10488079D01*
X6112563Y-10726174D02*
X6103039Y-10716650D01*
X6103039Y-10716650D02*
X6083991Y-10688079D01*
X6083991Y-10688079D02*
X6074468Y-10669031D01*
X6074468Y-10669031D02*
X6064944Y-10640460D01*
X6064944Y-10640460D02*
X6055420Y-10592841D01*
X6055420Y-10592841D02*
X6055420Y-10554746D01*
X6055420Y-10554746D02*
X6064944Y-10507127D01*
X6064944Y-10507127D02*
X6074468Y-10478555D01*
X6074468Y-10478555D02*
X6083991Y-10459508D01*
X6083991Y-10459508D02*
X6103039Y-10430936D01*
X6103039Y-10430936D02*
X6112563Y-10421412D01*
X6169706Y-10449984D02*
X6293515Y-10449984D01*
X6293515Y-10449984D02*
X6226848Y-10526174D01*
X6226848Y-10526174D02*
X6255420Y-10526174D01*
X6255420Y-10526174D02*
X6274468Y-10535698D01*
X6274468Y-10535698D02*
X6283991Y-10545222D01*
X6283991Y-10545222D02*
X6293515Y-10564270D01*
X6293515Y-10564270D02*
X6293515Y-10611889D01*
X6293515Y-10611889D02*
X6283991Y-10630936D01*
X6283991Y-10630936D02*
X6274468Y-10640460D01*
X6274468Y-10640460D02*
X6255420Y-10649984D01*
X6255420Y-10649984D02*
X6198277Y-10649984D01*
X6198277Y-10649984D02*
X6179229Y-10640460D01*
X6179229Y-10640460D02*
X6169706Y-10630936D01*
X6407801Y-10535698D02*
X6388753Y-10526174D01*
X6388753Y-10526174D02*
X6379229Y-10516650D01*
X6379229Y-10516650D02*
X6369706Y-10497603D01*
X6369706Y-10497603D02*
X6369706Y-10488079D01*
X6369706Y-10488079D02*
X6379229Y-10469031D01*
X6379229Y-10469031D02*
X6388753Y-10459508D01*
X6388753Y-10459508D02*
X6407801Y-10449984D01*
X6407801Y-10449984D02*
X6445896Y-10449984D01*
X6445896Y-10449984D02*
X6464944Y-10459508D01*
X6464944Y-10459508D02*
X6474468Y-10469031D01*
X6474468Y-10469031D02*
X6483991Y-10488079D01*
X6483991Y-10488079D02*
X6483991Y-10497603D01*
X6483991Y-10497603D02*
X6474468Y-10516650D01*
X6474468Y-10516650D02*
X6464944Y-10526174D01*
X6464944Y-10526174D02*
X6445896Y-10535698D01*
X6445896Y-10535698D02*
X6407801Y-10535698D01*
X6407801Y-10535698D02*
X6388753Y-10545222D01*
X6388753Y-10545222D02*
X6379229Y-10554746D01*
X6379229Y-10554746D02*
X6369706Y-10573793D01*
X6369706Y-10573793D02*
X6369706Y-10611889D01*
X6369706Y-10611889D02*
X6379229Y-10630936D01*
X6379229Y-10630936D02*
X6388753Y-10640460D01*
X6388753Y-10640460D02*
X6407801Y-10649984D01*
X6407801Y-10649984D02*
X6445896Y-10649984D01*
X6445896Y-10649984D02*
X6464944Y-10640460D01*
X6464944Y-10640460D02*
X6474468Y-10630936D01*
X6474468Y-10630936D02*
X6483991Y-10611889D01*
X6483991Y-10611889D02*
X6483991Y-10573793D01*
X6483991Y-10573793D02*
X6474468Y-10554746D01*
X6474468Y-10554746D02*
X6464944Y-10545222D01*
X6464944Y-10545222D02*
X6445896Y-10535698D01*
X6722087Y-10649984D02*
X6722087Y-10449984D01*
X6807801Y-10649984D02*
X6807801Y-10545222D01*
X6807801Y-10545222D02*
X6798277Y-10526174D01*
X6798277Y-10526174D02*
X6779230Y-10516650D01*
X6779230Y-10516650D02*
X6750658Y-10516650D01*
X6750658Y-10516650D02*
X6731610Y-10526174D01*
X6731610Y-10526174D02*
X6722087Y-10535698D01*
X6931610Y-10649984D02*
X6912563Y-10640460D01*
X6912563Y-10640460D02*
X6903039Y-10630936D01*
X6903039Y-10630936D02*
X6893515Y-10611889D01*
X6893515Y-10611889D02*
X6893515Y-10554746D01*
X6893515Y-10554746D02*
X6903039Y-10535698D01*
X6903039Y-10535698D02*
X6912563Y-10526174D01*
X6912563Y-10526174D02*
X6931610Y-10516650D01*
X6931610Y-10516650D02*
X6960182Y-10516650D01*
X6960182Y-10516650D02*
X6979230Y-10526174D01*
X6979230Y-10526174D02*
X6988753Y-10535698D01*
X6988753Y-10535698D02*
X6998277Y-10554746D01*
X6998277Y-10554746D02*
X6998277Y-10611889D01*
X6998277Y-10611889D02*
X6988753Y-10630936D01*
X6988753Y-10630936D02*
X6979230Y-10640460D01*
X6979230Y-10640460D02*
X6960182Y-10649984D01*
X6960182Y-10649984D02*
X6931610Y-10649984D01*
X7112563Y-10649984D02*
X7093515Y-10640460D01*
X7093515Y-10640460D02*
X7083991Y-10621412D01*
X7083991Y-10621412D02*
X7083991Y-10449984D01*
X7264944Y-10640460D02*
X7245896Y-10649984D01*
X7245896Y-10649984D02*
X7207801Y-10649984D01*
X7207801Y-10649984D02*
X7188753Y-10640460D01*
X7188753Y-10640460D02*
X7179230Y-10621412D01*
X7179230Y-10621412D02*
X7179230Y-10545222D01*
X7179230Y-10545222D02*
X7188753Y-10526174D01*
X7188753Y-10526174D02*
X7207801Y-10516650D01*
X7207801Y-10516650D02*
X7245896Y-10516650D01*
X7245896Y-10516650D02*
X7264944Y-10526174D01*
X7264944Y-10526174D02*
X7274468Y-10545222D01*
X7274468Y-10545222D02*
X7274468Y-10564270D01*
X7274468Y-10564270D02*
X7179230Y-10583317D01*
X7350658Y-10640460D02*
X7369706Y-10649984D01*
X7369706Y-10649984D02*
X7407801Y-10649984D01*
X7407801Y-10649984D02*
X7426849Y-10640460D01*
X7426849Y-10640460D02*
X7436372Y-10621412D01*
X7436372Y-10621412D02*
X7436372Y-10611889D01*
X7436372Y-10611889D02*
X7426849Y-10592841D01*
X7426849Y-10592841D02*
X7407801Y-10583317D01*
X7407801Y-10583317D02*
X7379230Y-10583317D01*
X7379230Y-10583317D02*
X7360182Y-10573793D01*
X7360182Y-10573793D02*
X7350658Y-10554746D01*
X7350658Y-10554746D02*
X7350658Y-10545222D01*
X7350658Y-10545222D02*
X7360182Y-10526174D01*
X7360182Y-10526174D02*
X7379230Y-10516650D01*
X7379230Y-10516650D02*
X7407801Y-10516650D01*
X7407801Y-10516650D02*
X7426849Y-10526174D01*
X7503039Y-10726174D02*
X7512563Y-10716650D01*
X7512563Y-10716650D02*
X7531611Y-10688079D01*
X7531611Y-10688079D02*
X7541134Y-10669031D01*
X7541134Y-10669031D02*
X7550658Y-10640460D01*
X7550658Y-10640460D02*
X7560182Y-10592841D01*
X7560182Y-10592841D02*
X7560182Y-10554746D01*
X7560182Y-10554746D02*
X7550658Y-10507127D01*
X7550658Y-10507127D02*
X7541134Y-10478555D01*
X7541134Y-10478555D02*
X7531611Y-10459508D01*
X7531611Y-10459508D02*
X7512563Y-10430936D01*
X7512563Y-10430936D02*
X7503039Y-10421412D01*
D14*
X2493050Y-10778050D02*
X2493050Y-10866950D01*
X2448600Y-10822500D02*
X2537500Y-10822500D01*
D11*
X2836372Y-10713984D02*
X2855420Y-10713984D01*
X2855420Y-10713984D02*
X2874467Y-10723508D01*
X2874467Y-10723508D02*
X2883991Y-10733031D01*
X2883991Y-10733031D02*
X2893515Y-10752079D01*
X2893515Y-10752079D02*
X2903039Y-10790174D01*
X2903039Y-10790174D02*
X2903039Y-10837793D01*
X2903039Y-10837793D02*
X2893515Y-10875889D01*
X2893515Y-10875889D02*
X2883991Y-10894936D01*
X2883991Y-10894936D02*
X2874467Y-10904460D01*
X2874467Y-10904460D02*
X2855420Y-10913984D01*
X2855420Y-10913984D02*
X2836372Y-10913984D01*
X2836372Y-10913984D02*
X2817324Y-10904460D01*
X2817324Y-10904460D02*
X2807801Y-10894936D01*
X2807801Y-10894936D02*
X2798277Y-10875889D01*
X2798277Y-10875889D02*
X2788753Y-10837793D01*
X2788753Y-10837793D02*
X2788753Y-10790174D01*
X2788753Y-10790174D02*
X2798277Y-10752079D01*
X2798277Y-10752079D02*
X2807801Y-10733031D01*
X2807801Y-10733031D02*
X2817324Y-10723508D01*
X2817324Y-10723508D02*
X2836372Y-10713984D01*
X2988753Y-10894936D02*
X2998277Y-10904460D01*
X2998277Y-10904460D02*
X2988753Y-10913984D01*
X2988753Y-10913984D02*
X2979229Y-10904460D01*
X2979229Y-10904460D02*
X2988753Y-10894936D01*
X2988753Y-10894936D02*
X2988753Y-10913984D01*
X3112562Y-10799698D02*
X3093515Y-10790174D01*
X3093515Y-10790174D02*
X3083991Y-10780650D01*
X3083991Y-10780650D02*
X3074467Y-10761603D01*
X3074467Y-10761603D02*
X3074467Y-10752079D01*
X3074467Y-10752079D02*
X3083991Y-10733031D01*
X3083991Y-10733031D02*
X3093515Y-10723508D01*
X3093515Y-10723508D02*
X3112562Y-10713984D01*
X3112562Y-10713984D02*
X3150658Y-10713984D01*
X3150658Y-10713984D02*
X3169705Y-10723508D01*
X3169705Y-10723508D02*
X3179229Y-10733031D01*
X3179229Y-10733031D02*
X3188753Y-10752079D01*
X3188753Y-10752079D02*
X3188753Y-10761603D01*
X3188753Y-10761603D02*
X3179229Y-10780650D01*
X3179229Y-10780650D02*
X3169705Y-10790174D01*
X3169705Y-10790174D02*
X3150658Y-10799698D01*
X3150658Y-10799698D02*
X3112562Y-10799698D01*
X3112562Y-10799698D02*
X3093515Y-10809222D01*
X3093515Y-10809222D02*
X3083991Y-10818746D01*
X3083991Y-10818746D02*
X3074467Y-10837793D01*
X3074467Y-10837793D02*
X3074467Y-10875889D01*
X3074467Y-10875889D02*
X3083991Y-10894936D01*
X3083991Y-10894936D02*
X3093515Y-10904460D01*
X3093515Y-10904460D02*
X3112562Y-10913984D01*
X3112562Y-10913984D02*
X3150658Y-10913984D01*
X3150658Y-10913984D02*
X3169705Y-10904460D01*
X3169705Y-10904460D02*
X3179229Y-10894936D01*
X3179229Y-10894936D02*
X3188753Y-10875889D01*
X3188753Y-10875889D02*
X3188753Y-10837793D01*
X3188753Y-10837793D02*
X3179229Y-10818746D01*
X3179229Y-10818746D02*
X3169705Y-10809222D01*
X3169705Y-10809222D02*
X3150658Y-10799698D01*
X3303039Y-10799698D02*
X3283991Y-10790174D01*
X3283991Y-10790174D02*
X3274467Y-10780650D01*
X3274467Y-10780650D02*
X3264943Y-10761603D01*
X3264943Y-10761603D02*
X3264943Y-10752079D01*
X3264943Y-10752079D02*
X3274467Y-10733031D01*
X3274467Y-10733031D02*
X3283991Y-10723508D01*
X3283991Y-10723508D02*
X3303039Y-10713984D01*
X3303039Y-10713984D02*
X3341134Y-10713984D01*
X3341134Y-10713984D02*
X3360182Y-10723508D01*
X3360182Y-10723508D02*
X3369705Y-10733031D01*
X3369705Y-10733031D02*
X3379229Y-10752079D01*
X3379229Y-10752079D02*
X3379229Y-10761603D01*
X3379229Y-10761603D02*
X3369705Y-10780650D01*
X3369705Y-10780650D02*
X3360182Y-10790174D01*
X3360182Y-10790174D02*
X3341134Y-10799698D01*
X3341134Y-10799698D02*
X3303039Y-10799698D01*
X3303039Y-10799698D02*
X3283991Y-10809222D01*
X3283991Y-10809222D02*
X3274467Y-10818746D01*
X3274467Y-10818746D02*
X3264943Y-10837793D01*
X3264943Y-10837793D02*
X3264943Y-10875889D01*
X3264943Y-10875889D02*
X3274467Y-10894936D01*
X3274467Y-10894936D02*
X3283991Y-10904460D01*
X3283991Y-10904460D02*
X3303039Y-10913984D01*
X3303039Y-10913984D02*
X3341134Y-10913984D01*
X3341134Y-10913984D02*
X3360182Y-10904460D01*
X3360182Y-10904460D02*
X3369705Y-10894936D01*
X3369705Y-10894936D02*
X3379229Y-10875889D01*
X3379229Y-10875889D02*
X3379229Y-10837793D01*
X3379229Y-10837793D02*
X3369705Y-10818746D01*
X3369705Y-10818746D02*
X3360182Y-10809222D01*
X3360182Y-10809222D02*
X3341134Y-10799698D01*
X3474467Y-10913984D02*
X3512562Y-10913984D01*
X3512562Y-10913984D02*
X3531610Y-10904460D01*
X3531610Y-10904460D02*
X3541134Y-10894936D01*
X3541134Y-10894936D02*
X3560182Y-10866365D01*
X3560182Y-10866365D02*
X3569705Y-10828270D01*
X3569705Y-10828270D02*
X3569705Y-10752079D01*
X3569705Y-10752079D02*
X3560182Y-10733031D01*
X3560182Y-10733031D02*
X3550658Y-10723508D01*
X3550658Y-10723508D02*
X3531610Y-10713984D01*
X3531610Y-10713984D02*
X3493515Y-10713984D01*
X3493515Y-10713984D02*
X3474467Y-10723508D01*
X3474467Y-10723508D02*
X3464943Y-10733031D01*
X3464943Y-10733031D02*
X3455420Y-10752079D01*
X3455420Y-10752079D02*
X3455420Y-10799698D01*
X3455420Y-10799698D02*
X3464943Y-10818746D01*
X3464943Y-10818746D02*
X3474467Y-10828270D01*
X3474467Y-10828270D02*
X3493515Y-10837793D01*
X3493515Y-10837793D02*
X3531610Y-10837793D01*
X3531610Y-10837793D02*
X3550658Y-10828270D01*
X3550658Y-10828270D02*
X3560182Y-10818746D01*
X3560182Y-10818746D02*
X3569705Y-10799698D01*
X3655420Y-10913984D02*
X3655420Y-10780650D01*
X3655420Y-10799698D02*
X3664943Y-10790174D01*
X3664943Y-10790174D02*
X3683991Y-10780650D01*
X3683991Y-10780650D02*
X3712563Y-10780650D01*
X3712563Y-10780650D02*
X3731610Y-10790174D01*
X3731610Y-10790174D02*
X3741134Y-10809222D01*
X3741134Y-10809222D02*
X3741134Y-10913984D01*
X3741134Y-10809222D02*
X3750658Y-10790174D01*
X3750658Y-10790174D02*
X3769705Y-10780650D01*
X3769705Y-10780650D02*
X3798277Y-10780650D01*
X3798277Y-10780650D02*
X3817324Y-10790174D01*
X3817324Y-10790174D02*
X3826848Y-10809222D01*
X3826848Y-10809222D02*
X3826848Y-10913984D01*
X3922086Y-10913984D02*
X3922086Y-10780650D01*
X3922086Y-10799698D02*
X3931610Y-10790174D01*
X3931610Y-10790174D02*
X3950658Y-10780650D01*
X3950658Y-10780650D02*
X3979229Y-10780650D01*
X3979229Y-10780650D02*
X3998277Y-10790174D01*
X3998277Y-10790174D02*
X4007801Y-10809222D01*
X4007801Y-10809222D02*
X4007801Y-10913984D01*
X4007801Y-10809222D02*
X4017324Y-10790174D01*
X4017324Y-10790174D02*
X4036372Y-10780650D01*
X4036372Y-10780650D02*
X4064943Y-10780650D01*
X4064943Y-10780650D02*
X4083991Y-10790174D01*
X4083991Y-10790174D02*
X4093515Y-10809222D01*
X4093515Y-10809222D02*
X4093515Y-10913984D01*
X4483991Y-10704460D02*
X4312563Y-10961603D01*
X4741134Y-10713984D02*
X4760182Y-10713984D01*
X4760182Y-10713984D02*
X4779229Y-10723508D01*
X4779229Y-10723508D02*
X4788753Y-10733031D01*
X4788753Y-10733031D02*
X4798277Y-10752079D01*
X4798277Y-10752079D02*
X4807801Y-10790174D01*
X4807801Y-10790174D02*
X4807801Y-10837793D01*
X4807801Y-10837793D02*
X4798277Y-10875889D01*
X4798277Y-10875889D02*
X4788753Y-10894936D01*
X4788753Y-10894936D02*
X4779229Y-10904460D01*
X4779229Y-10904460D02*
X4760182Y-10913984D01*
X4760182Y-10913984D02*
X4741134Y-10913984D01*
X4741134Y-10913984D02*
X4722087Y-10904460D01*
X4722087Y-10904460D02*
X4712563Y-10894936D01*
X4712563Y-10894936D02*
X4703039Y-10875889D01*
X4703039Y-10875889D02*
X4693515Y-10837793D01*
X4693515Y-10837793D02*
X4693515Y-10790174D01*
X4693515Y-10790174D02*
X4703039Y-10752079D01*
X4703039Y-10752079D02*
X4712563Y-10733031D01*
X4712563Y-10733031D02*
X4722087Y-10723508D01*
X4722087Y-10723508D02*
X4741134Y-10713984D01*
X4893515Y-10894936D02*
X4903039Y-10904460D01*
X4903039Y-10904460D02*
X4893515Y-10913984D01*
X4893515Y-10913984D02*
X4883991Y-10904460D01*
X4883991Y-10904460D02*
X4893515Y-10894936D01*
X4893515Y-10894936D02*
X4893515Y-10913984D01*
X5026848Y-10713984D02*
X5045896Y-10713984D01*
X5045896Y-10713984D02*
X5064944Y-10723508D01*
X5064944Y-10723508D02*
X5074468Y-10733031D01*
X5074468Y-10733031D02*
X5083991Y-10752079D01*
X5083991Y-10752079D02*
X5093515Y-10790174D01*
X5093515Y-10790174D02*
X5093515Y-10837793D01*
X5093515Y-10837793D02*
X5083991Y-10875889D01*
X5083991Y-10875889D02*
X5074468Y-10894936D01*
X5074468Y-10894936D02*
X5064944Y-10904460D01*
X5064944Y-10904460D02*
X5045896Y-10913984D01*
X5045896Y-10913984D02*
X5026848Y-10913984D01*
X5026848Y-10913984D02*
X5007801Y-10904460D01*
X5007801Y-10904460D02*
X4998277Y-10894936D01*
X4998277Y-10894936D02*
X4988753Y-10875889D01*
X4988753Y-10875889D02*
X4979229Y-10837793D01*
X4979229Y-10837793D02*
X4979229Y-10790174D01*
X4979229Y-10790174D02*
X4988753Y-10752079D01*
X4988753Y-10752079D02*
X4998277Y-10733031D01*
X4998277Y-10733031D02*
X5007801Y-10723508D01*
X5007801Y-10723508D02*
X5026848Y-10713984D01*
X5160182Y-10713984D02*
X5283991Y-10713984D01*
X5283991Y-10713984D02*
X5217325Y-10790174D01*
X5217325Y-10790174D02*
X5245896Y-10790174D01*
X5245896Y-10790174D02*
X5264944Y-10799698D01*
X5264944Y-10799698D02*
X5274468Y-10809222D01*
X5274468Y-10809222D02*
X5283991Y-10828270D01*
X5283991Y-10828270D02*
X5283991Y-10875889D01*
X5283991Y-10875889D02*
X5274468Y-10894936D01*
X5274468Y-10894936D02*
X5264944Y-10904460D01*
X5264944Y-10904460D02*
X5245896Y-10913984D01*
X5245896Y-10913984D02*
X5188753Y-10913984D01*
X5188753Y-10913984D02*
X5169706Y-10904460D01*
X5169706Y-10904460D02*
X5160182Y-10894936D01*
X5464944Y-10713984D02*
X5369706Y-10713984D01*
X5369706Y-10713984D02*
X5360182Y-10809222D01*
X5360182Y-10809222D02*
X5369706Y-10799698D01*
X5369706Y-10799698D02*
X5388753Y-10790174D01*
X5388753Y-10790174D02*
X5436372Y-10790174D01*
X5436372Y-10790174D02*
X5455420Y-10799698D01*
X5455420Y-10799698D02*
X5464944Y-10809222D01*
X5464944Y-10809222D02*
X5474468Y-10828270D01*
X5474468Y-10828270D02*
X5474468Y-10875889D01*
X5474468Y-10875889D02*
X5464944Y-10894936D01*
X5464944Y-10894936D02*
X5455420Y-10904460D01*
X5455420Y-10904460D02*
X5436372Y-10913984D01*
X5436372Y-10913984D02*
X5388753Y-10913984D01*
X5388753Y-10913984D02*
X5369706Y-10904460D01*
X5369706Y-10904460D02*
X5360182Y-10894936D01*
X5598277Y-10713984D02*
X5617325Y-10713984D01*
X5617325Y-10713984D02*
X5636372Y-10723508D01*
X5636372Y-10723508D02*
X5645896Y-10733031D01*
X5645896Y-10733031D02*
X5655420Y-10752079D01*
X5655420Y-10752079D02*
X5664944Y-10790174D01*
X5664944Y-10790174D02*
X5664944Y-10837793D01*
X5664944Y-10837793D02*
X5655420Y-10875889D01*
X5655420Y-10875889D02*
X5645896Y-10894936D01*
X5645896Y-10894936D02*
X5636372Y-10904460D01*
X5636372Y-10904460D02*
X5617325Y-10913984D01*
X5617325Y-10913984D02*
X5598277Y-10913984D01*
X5598277Y-10913984D02*
X5579229Y-10904460D01*
X5579229Y-10904460D02*
X5569706Y-10894936D01*
X5569706Y-10894936D02*
X5560182Y-10875889D01*
X5560182Y-10875889D02*
X5550658Y-10837793D01*
X5550658Y-10837793D02*
X5550658Y-10790174D01*
X5550658Y-10790174D02*
X5560182Y-10752079D01*
X5560182Y-10752079D02*
X5569706Y-10733031D01*
X5569706Y-10733031D02*
X5579229Y-10723508D01*
X5579229Y-10723508D02*
X5598277Y-10713984D01*
X5741134Y-10713984D02*
X5741134Y-10752079D01*
X5817325Y-10713984D02*
X5817325Y-10752079D01*
X6112563Y-10990174D02*
X6103039Y-10980650D01*
X6103039Y-10980650D02*
X6083991Y-10952079D01*
X6083991Y-10952079D02*
X6074468Y-10933031D01*
X6074468Y-10933031D02*
X6064944Y-10904460D01*
X6064944Y-10904460D02*
X6055420Y-10856841D01*
X6055420Y-10856841D02*
X6055420Y-10818746D01*
X6055420Y-10818746D02*
X6064944Y-10771127D01*
X6064944Y-10771127D02*
X6074468Y-10742555D01*
X6074468Y-10742555D02*
X6083991Y-10723508D01*
X6083991Y-10723508D02*
X6103039Y-10694936D01*
X6103039Y-10694936D02*
X6112563Y-10685412D01*
X6274468Y-10713984D02*
X6236372Y-10713984D01*
X6236372Y-10713984D02*
X6217325Y-10723508D01*
X6217325Y-10723508D02*
X6207801Y-10733031D01*
X6207801Y-10733031D02*
X6188753Y-10761603D01*
X6188753Y-10761603D02*
X6179229Y-10799698D01*
X6179229Y-10799698D02*
X6179229Y-10875889D01*
X6179229Y-10875889D02*
X6188753Y-10894936D01*
X6188753Y-10894936D02*
X6198277Y-10904460D01*
X6198277Y-10904460D02*
X6217325Y-10913984D01*
X6217325Y-10913984D02*
X6255420Y-10913984D01*
X6255420Y-10913984D02*
X6274468Y-10904460D01*
X6274468Y-10904460D02*
X6283991Y-10894936D01*
X6283991Y-10894936D02*
X6293515Y-10875889D01*
X6293515Y-10875889D02*
X6293515Y-10828270D01*
X6293515Y-10828270D02*
X6283991Y-10809222D01*
X6283991Y-10809222D02*
X6274468Y-10799698D01*
X6274468Y-10799698D02*
X6255420Y-10790174D01*
X6255420Y-10790174D02*
X6217325Y-10790174D01*
X6217325Y-10790174D02*
X6198277Y-10799698D01*
X6198277Y-10799698D02*
X6188753Y-10809222D01*
X6188753Y-10809222D02*
X6179229Y-10828270D01*
X6531610Y-10913984D02*
X6531610Y-10713984D01*
X6617325Y-10913984D02*
X6617325Y-10809222D01*
X6617325Y-10809222D02*
X6607801Y-10790174D01*
X6607801Y-10790174D02*
X6588753Y-10780650D01*
X6588753Y-10780650D02*
X6560182Y-10780650D01*
X6560182Y-10780650D02*
X6541134Y-10790174D01*
X6541134Y-10790174D02*
X6531610Y-10799698D01*
X6741134Y-10913984D02*
X6722087Y-10904460D01*
X6722087Y-10904460D02*
X6712563Y-10894936D01*
X6712563Y-10894936D02*
X6703039Y-10875889D01*
X6703039Y-10875889D02*
X6703039Y-10818746D01*
X6703039Y-10818746D02*
X6712563Y-10799698D01*
X6712563Y-10799698D02*
X6722087Y-10790174D01*
X6722087Y-10790174D02*
X6741134Y-10780650D01*
X6741134Y-10780650D02*
X6769706Y-10780650D01*
X6769706Y-10780650D02*
X6788753Y-10790174D01*
X6788753Y-10790174D02*
X6798277Y-10799698D01*
X6798277Y-10799698D02*
X6807801Y-10818746D01*
X6807801Y-10818746D02*
X6807801Y-10875889D01*
X6807801Y-10875889D02*
X6798277Y-10894936D01*
X6798277Y-10894936D02*
X6788753Y-10904460D01*
X6788753Y-10904460D02*
X6769706Y-10913984D01*
X6769706Y-10913984D02*
X6741134Y-10913984D01*
X6922087Y-10913984D02*
X6903039Y-10904460D01*
X6903039Y-10904460D02*
X6893515Y-10885412D01*
X6893515Y-10885412D02*
X6893515Y-10713984D01*
X7074468Y-10904460D02*
X7055420Y-10913984D01*
X7055420Y-10913984D02*
X7017325Y-10913984D01*
X7017325Y-10913984D02*
X6998277Y-10904460D01*
X6998277Y-10904460D02*
X6988753Y-10885412D01*
X6988753Y-10885412D02*
X6988753Y-10809222D01*
X6988753Y-10809222D02*
X6998277Y-10790174D01*
X6998277Y-10790174D02*
X7017325Y-10780650D01*
X7017325Y-10780650D02*
X7055420Y-10780650D01*
X7055420Y-10780650D02*
X7074468Y-10790174D01*
X7074468Y-10790174D02*
X7083991Y-10809222D01*
X7083991Y-10809222D02*
X7083991Y-10828270D01*
X7083991Y-10828270D02*
X6988753Y-10847317D01*
X7160182Y-10904460D02*
X7179230Y-10913984D01*
X7179230Y-10913984D02*
X7217325Y-10913984D01*
X7217325Y-10913984D02*
X7236372Y-10904460D01*
X7236372Y-10904460D02*
X7245896Y-10885412D01*
X7245896Y-10885412D02*
X7245896Y-10875889D01*
X7245896Y-10875889D02*
X7236372Y-10856841D01*
X7236372Y-10856841D02*
X7217325Y-10847317D01*
X7217325Y-10847317D02*
X7188753Y-10847317D01*
X7188753Y-10847317D02*
X7169706Y-10837793D01*
X7169706Y-10837793D02*
X7160182Y-10818746D01*
X7160182Y-10818746D02*
X7160182Y-10809222D01*
X7160182Y-10809222D02*
X7169706Y-10790174D01*
X7169706Y-10790174D02*
X7188753Y-10780650D01*
X7188753Y-10780650D02*
X7217325Y-10780650D01*
X7217325Y-10780650D02*
X7236372Y-10790174D01*
X7312563Y-10990174D02*
X7322087Y-10980650D01*
X7322087Y-10980650D02*
X7341134Y-10952079D01*
X7341134Y-10952079D02*
X7350658Y-10933031D01*
X7350658Y-10933031D02*
X7360182Y-10904460D01*
X7360182Y-10904460D02*
X7369706Y-10856841D01*
X7369706Y-10856841D02*
X7369706Y-10818746D01*
X7369706Y-10818746D02*
X7360182Y-10771127D01*
X7360182Y-10771127D02*
X7350658Y-10742555D01*
X7350658Y-10742555D02*
X7341134Y-10723508D01*
X7341134Y-10723508D02*
X7322087Y-10694936D01*
X7322087Y-10694936D02*
X7312563Y-10685412D01*
D15*
X2524320Y-11118320D02*
X2524320Y-11054680D01*
X2460680Y-11054680D01*
X2460680Y-11118320D01*
X2524320Y-11118320D01*
D11*
X2836372Y-10977984D02*
X2855420Y-10977984D01*
X2855420Y-10977984D02*
X2874467Y-10987508D01*
X2874467Y-10987508D02*
X2883991Y-10997031D01*
X2883991Y-10997031D02*
X2893515Y-11016079D01*
X2893515Y-11016079D02*
X2903039Y-11054174D01*
X2903039Y-11054174D02*
X2903039Y-11101793D01*
X2903039Y-11101793D02*
X2893515Y-11139889D01*
X2893515Y-11139889D02*
X2883991Y-11158936D01*
X2883991Y-11158936D02*
X2874467Y-11168460D01*
X2874467Y-11168460D02*
X2855420Y-11177984D01*
X2855420Y-11177984D02*
X2836372Y-11177984D01*
X2836372Y-11177984D02*
X2817324Y-11168460D01*
X2817324Y-11168460D02*
X2807801Y-11158936D01*
X2807801Y-11158936D02*
X2798277Y-11139889D01*
X2798277Y-11139889D02*
X2788753Y-11101793D01*
X2788753Y-11101793D02*
X2788753Y-11054174D01*
X2788753Y-11054174D02*
X2798277Y-11016079D01*
X2798277Y-11016079D02*
X2807801Y-10997031D01*
X2807801Y-10997031D02*
X2817324Y-10987508D01*
X2817324Y-10987508D02*
X2836372Y-10977984D01*
X2988753Y-11158936D02*
X2998277Y-11168460D01*
X2998277Y-11168460D02*
X2988753Y-11177984D01*
X2988753Y-11177984D02*
X2979229Y-11168460D01*
X2979229Y-11168460D02*
X2988753Y-11158936D01*
X2988753Y-11158936D02*
X2988753Y-11177984D01*
X3093515Y-11177984D02*
X3131610Y-11177984D01*
X3131610Y-11177984D02*
X3150658Y-11168460D01*
X3150658Y-11168460D02*
X3160182Y-11158936D01*
X3160182Y-11158936D02*
X3179229Y-11130365D01*
X3179229Y-11130365D02*
X3188753Y-11092270D01*
X3188753Y-11092270D02*
X3188753Y-11016079D01*
X3188753Y-11016079D02*
X3179229Y-10997031D01*
X3179229Y-10997031D02*
X3169705Y-10987508D01*
X3169705Y-10987508D02*
X3150658Y-10977984D01*
X3150658Y-10977984D02*
X3112562Y-10977984D01*
X3112562Y-10977984D02*
X3093515Y-10987508D01*
X3093515Y-10987508D02*
X3083991Y-10997031D01*
X3083991Y-10997031D02*
X3074467Y-11016079D01*
X3074467Y-11016079D02*
X3074467Y-11063698D01*
X3074467Y-11063698D02*
X3083991Y-11082746D01*
X3083991Y-11082746D02*
X3093515Y-11092270D01*
X3093515Y-11092270D02*
X3112562Y-11101793D01*
X3112562Y-11101793D02*
X3150658Y-11101793D01*
X3150658Y-11101793D02*
X3169705Y-11092270D01*
X3169705Y-11092270D02*
X3179229Y-11082746D01*
X3179229Y-11082746D02*
X3188753Y-11063698D01*
X3312562Y-10977984D02*
X3331610Y-10977984D01*
X3331610Y-10977984D02*
X3350658Y-10987508D01*
X3350658Y-10987508D02*
X3360182Y-10997031D01*
X3360182Y-10997031D02*
X3369705Y-11016079D01*
X3369705Y-11016079D02*
X3379229Y-11054174D01*
X3379229Y-11054174D02*
X3379229Y-11101793D01*
X3379229Y-11101793D02*
X3369705Y-11139889D01*
X3369705Y-11139889D02*
X3360182Y-11158936D01*
X3360182Y-11158936D02*
X3350658Y-11168460D01*
X3350658Y-11168460D02*
X3331610Y-11177984D01*
X3331610Y-11177984D02*
X3312562Y-11177984D01*
X3312562Y-11177984D02*
X3293515Y-11168460D01*
X3293515Y-11168460D02*
X3283991Y-11158936D01*
X3283991Y-11158936D02*
X3274467Y-11139889D01*
X3274467Y-11139889D02*
X3264943Y-11101793D01*
X3264943Y-11101793D02*
X3264943Y-11054174D01*
X3264943Y-11054174D02*
X3274467Y-11016079D01*
X3274467Y-11016079D02*
X3283991Y-10997031D01*
X3283991Y-10997031D02*
X3293515Y-10987508D01*
X3293515Y-10987508D02*
X3312562Y-10977984D01*
X3503039Y-10977984D02*
X3522086Y-10977984D01*
X3522086Y-10977984D02*
X3541134Y-10987508D01*
X3541134Y-10987508D02*
X3550658Y-10997031D01*
X3550658Y-10997031D02*
X3560182Y-11016079D01*
X3560182Y-11016079D02*
X3569705Y-11054174D01*
X3569705Y-11054174D02*
X3569705Y-11101793D01*
X3569705Y-11101793D02*
X3560182Y-11139889D01*
X3560182Y-11139889D02*
X3550658Y-11158936D01*
X3550658Y-11158936D02*
X3541134Y-11168460D01*
X3541134Y-11168460D02*
X3522086Y-11177984D01*
X3522086Y-11177984D02*
X3503039Y-11177984D01*
X3503039Y-11177984D02*
X3483991Y-11168460D01*
X3483991Y-11168460D02*
X3474467Y-11158936D01*
X3474467Y-11158936D02*
X3464943Y-11139889D01*
X3464943Y-11139889D02*
X3455420Y-11101793D01*
X3455420Y-11101793D02*
X3455420Y-11054174D01*
X3455420Y-11054174D02*
X3464943Y-11016079D01*
X3464943Y-11016079D02*
X3474467Y-10997031D01*
X3474467Y-10997031D02*
X3483991Y-10987508D01*
X3483991Y-10987508D02*
X3503039Y-10977984D01*
X3655420Y-11177984D02*
X3655420Y-11044650D01*
X3655420Y-11063698D02*
X3664943Y-11054174D01*
X3664943Y-11054174D02*
X3683991Y-11044650D01*
X3683991Y-11044650D02*
X3712563Y-11044650D01*
X3712563Y-11044650D02*
X3731610Y-11054174D01*
X3731610Y-11054174D02*
X3741134Y-11073222D01*
X3741134Y-11073222D02*
X3741134Y-11177984D01*
X3741134Y-11073222D02*
X3750658Y-11054174D01*
X3750658Y-11054174D02*
X3769705Y-11044650D01*
X3769705Y-11044650D02*
X3798277Y-11044650D01*
X3798277Y-11044650D02*
X3817324Y-11054174D01*
X3817324Y-11054174D02*
X3826848Y-11073222D01*
X3826848Y-11073222D02*
X3826848Y-11177984D01*
X3922086Y-11177984D02*
X3922086Y-11044650D01*
X3922086Y-11063698D02*
X3931610Y-11054174D01*
X3931610Y-11054174D02*
X3950658Y-11044650D01*
X3950658Y-11044650D02*
X3979229Y-11044650D01*
X3979229Y-11044650D02*
X3998277Y-11054174D01*
X3998277Y-11054174D02*
X4007801Y-11073222D01*
X4007801Y-11073222D02*
X4007801Y-11177984D01*
X4007801Y-11073222D02*
X4017324Y-11054174D01*
X4017324Y-11054174D02*
X4036372Y-11044650D01*
X4036372Y-11044650D02*
X4064943Y-11044650D01*
X4064943Y-11044650D02*
X4083991Y-11054174D01*
X4083991Y-11054174D02*
X4093515Y-11073222D01*
X4093515Y-11073222D02*
X4093515Y-11177984D01*
X4483991Y-10968460D02*
X4312563Y-11225603D01*
X4741134Y-10977984D02*
X4760182Y-10977984D01*
X4760182Y-10977984D02*
X4779229Y-10987508D01*
X4779229Y-10987508D02*
X4788753Y-10997031D01*
X4788753Y-10997031D02*
X4798277Y-11016079D01*
X4798277Y-11016079D02*
X4807801Y-11054174D01*
X4807801Y-11054174D02*
X4807801Y-11101793D01*
X4807801Y-11101793D02*
X4798277Y-11139889D01*
X4798277Y-11139889D02*
X4788753Y-11158936D01*
X4788753Y-11158936D02*
X4779229Y-11168460D01*
X4779229Y-11168460D02*
X4760182Y-11177984D01*
X4760182Y-11177984D02*
X4741134Y-11177984D01*
X4741134Y-11177984D02*
X4722087Y-11168460D01*
X4722087Y-11168460D02*
X4712563Y-11158936D01*
X4712563Y-11158936D02*
X4703039Y-11139889D01*
X4703039Y-11139889D02*
X4693515Y-11101793D01*
X4693515Y-11101793D02*
X4693515Y-11054174D01*
X4693515Y-11054174D02*
X4703039Y-11016079D01*
X4703039Y-11016079D02*
X4712563Y-10997031D01*
X4712563Y-10997031D02*
X4722087Y-10987508D01*
X4722087Y-10987508D02*
X4741134Y-10977984D01*
X4893515Y-11158936D02*
X4903039Y-11168460D01*
X4903039Y-11168460D02*
X4893515Y-11177984D01*
X4893515Y-11177984D02*
X4883991Y-11168460D01*
X4883991Y-11168460D02*
X4893515Y-11158936D01*
X4893515Y-11158936D02*
X4893515Y-11177984D01*
X5026848Y-10977984D02*
X5045896Y-10977984D01*
X5045896Y-10977984D02*
X5064944Y-10987508D01*
X5064944Y-10987508D02*
X5074468Y-10997031D01*
X5074468Y-10997031D02*
X5083991Y-11016079D01*
X5083991Y-11016079D02*
X5093515Y-11054174D01*
X5093515Y-11054174D02*
X5093515Y-11101793D01*
X5093515Y-11101793D02*
X5083991Y-11139889D01*
X5083991Y-11139889D02*
X5074468Y-11158936D01*
X5074468Y-11158936D02*
X5064944Y-11168460D01*
X5064944Y-11168460D02*
X5045896Y-11177984D01*
X5045896Y-11177984D02*
X5026848Y-11177984D01*
X5026848Y-11177984D02*
X5007801Y-11168460D01*
X5007801Y-11168460D02*
X4998277Y-11158936D01*
X4998277Y-11158936D02*
X4988753Y-11139889D01*
X4988753Y-11139889D02*
X4979229Y-11101793D01*
X4979229Y-11101793D02*
X4979229Y-11054174D01*
X4979229Y-11054174D02*
X4988753Y-11016079D01*
X4988753Y-11016079D02*
X4998277Y-10997031D01*
X4998277Y-10997031D02*
X5007801Y-10987508D01*
X5007801Y-10987508D02*
X5026848Y-10977984D01*
X5160182Y-10977984D02*
X5283991Y-10977984D01*
X5283991Y-10977984D02*
X5217325Y-11054174D01*
X5217325Y-11054174D02*
X5245896Y-11054174D01*
X5245896Y-11054174D02*
X5264944Y-11063698D01*
X5264944Y-11063698D02*
X5274468Y-11073222D01*
X5274468Y-11073222D02*
X5283991Y-11092270D01*
X5283991Y-11092270D02*
X5283991Y-11139889D01*
X5283991Y-11139889D02*
X5274468Y-11158936D01*
X5274468Y-11158936D02*
X5264944Y-11168460D01*
X5264944Y-11168460D02*
X5245896Y-11177984D01*
X5245896Y-11177984D02*
X5188753Y-11177984D01*
X5188753Y-11177984D02*
X5169706Y-11168460D01*
X5169706Y-11168460D02*
X5160182Y-11158936D01*
X5464944Y-10977984D02*
X5369706Y-10977984D01*
X5369706Y-10977984D02*
X5360182Y-11073222D01*
X5360182Y-11073222D02*
X5369706Y-11063698D01*
X5369706Y-11063698D02*
X5388753Y-11054174D01*
X5388753Y-11054174D02*
X5436372Y-11054174D01*
X5436372Y-11054174D02*
X5455420Y-11063698D01*
X5455420Y-11063698D02*
X5464944Y-11073222D01*
X5464944Y-11073222D02*
X5474468Y-11092270D01*
X5474468Y-11092270D02*
X5474468Y-11139889D01*
X5474468Y-11139889D02*
X5464944Y-11158936D01*
X5464944Y-11158936D02*
X5455420Y-11168460D01*
X5455420Y-11168460D02*
X5436372Y-11177984D01*
X5436372Y-11177984D02*
X5388753Y-11177984D01*
X5388753Y-11177984D02*
X5369706Y-11168460D01*
X5369706Y-11168460D02*
X5360182Y-11158936D01*
X5645896Y-11044650D02*
X5645896Y-11177984D01*
X5598277Y-10968460D02*
X5550658Y-11111317D01*
X5550658Y-11111317D02*
X5674467Y-11111317D01*
X5741134Y-10977984D02*
X5741134Y-11016079D01*
X5817325Y-10977984D02*
X5817325Y-11016079D01*
X6112563Y-11254174D02*
X6103039Y-11244650D01*
X6103039Y-11244650D02*
X6083991Y-11216079D01*
X6083991Y-11216079D02*
X6074468Y-11197031D01*
X6074468Y-11197031D02*
X6064944Y-11168460D01*
X6064944Y-11168460D02*
X6055420Y-11120841D01*
X6055420Y-11120841D02*
X6055420Y-11082746D01*
X6055420Y-11082746D02*
X6064944Y-11035127D01*
X6064944Y-11035127D02*
X6074468Y-11006555D01*
X6074468Y-11006555D02*
X6083991Y-10987508D01*
X6083991Y-10987508D02*
X6103039Y-10958936D01*
X6103039Y-10958936D02*
X6112563Y-10949412D01*
X6274468Y-11044650D02*
X6274468Y-11177984D01*
X6226848Y-10968460D02*
X6179229Y-11111317D01*
X6179229Y-11111317D02*
X6303039Y-11111317D01*
X6531610Y-11177984D02*
X6531610Y-10977984D01*
X6617325Y-11177984D02*
X6617325Y-11073222D01*
X6617325Y-11073222D02*
X6607801Y-11054174D01*
X6607801Y-11054174D02*
X6588753Y-11044650D01*
X6588753Y-11044650D02*
X6560182Y-11044650D01*
X6560182Y-11044650D02*
X6541134Y-11054174D01*
X6541134Y-11054174D02*
X6531610Y-11063698D01*
X6741134Y-11177984D02*
X6722087Y-11168460D01*
X6722087Y-11168460D02*
X6712563Y-11158936D01*
X6712563Y-11158936D02*
X6703039Y-11139889D01*
X6703039Y-11139889D02*
X6703039Y-11082746D01*
X6703039Y-11082746D02*
X6712563Y-11063698D01*
X6712563Y-11063698D02*
X6722087Y-11054174D01*
X6722087Y-11054174D02*
X6741134Y-11044650D01*
X6741134Y-11044650D02*
X6769706Y-11044650D01*
X6769706Y-11044650D02*
X6788753Y-11054174D01*
X6788753Y-11054174D02*
X6798277Y-11063698D01*
X6798277Y-11063698D02*
X6807801Y-11082746D01*
X6807801Y-11082746D02*
X6807801Y-11139889D01*
X6807801Y-11139889D02*
X6798277Y-11158936D01*
X6798277Y-11158936D02*
X6788753Y-11168460D01*
X6788753Y-11168460D02*
X6769706Y-11177984D01*
X6769706Y-11177984D02*
X6741134Y-11177984D01*
X6922087Y-11177984D02*
X6903039Y-11168460D01*
X6903039Y-11168460D02*
X6893515Y-11149412D01*
X6893515Y-11149412D02*
X6893515Y-10977984D01*
X7074468Y-11168460D02*
X7055420Y-11177984D01*
X7055420Y-11177984D02*
X7017325Y-11177984D01*
X7017325Y-11177984D02*
X6998277Y-11168460D01*
X6998277Y-11168460D02*
X6988753Y-11149412D01*
X6988753Y-11149412D02*
X6988753Y-11073222D01*
X6988753Y-11073222D02*
X6998277Y-11054174D01*
X6998277Y-11054174D02*
X7017325Y-11044650D01*
X7017325Y-11044650D02*
X7055420Y-11044650D01*
X7055420Y-11044650D02*
X7074468Y-11054174D01*
X7074468Y-11054174D02*
X7083991Y-11073222D01*
X7083991Y-11073222D02*
X7083991Y-11092270D01*
X7083991Y-11092270D02*
X6988753Y-11111317D01*
X7160182Y-11168460D02*
X7179230Y-11177984D01*
X7179230Y-11177984D02*
X7217325Y-11177984D01*
X7217325Y-11177984D02*
X7236372Y-11168460D01*
X7236372Y-11168460D02*
X7245896Y-11149412D01*
X7245896Y-11149412D02*
X7245896Y-11139889D01*
X7245896Y-11139889D02*
X7236372Y-11120841D01*
X7236372Y-11120841D02*
X7217325Y-11111317D01*
X7217325Y-11111317D02*
X7188753Y-11111317D01*
X7188753Y-11111317D02*
X7169706Y-11101793D01*
X7169706Y-11101793D02*
X7160182Y-11082746D01*
X7160182Y-11082746D02*
X7160182Y-11073222D01*
X7160182Y-11073222D02*
X7169706Y-11054174D01*
X7169706Y-11054174D02*
X7188753Y-11044650D01*
X7188753Y-11044650D02*
X7217325Y-11044650D01*
X7217325Y-11044650D02*
X7236372Y-11054174D01*
X7312563Y-11254174D02*
X7322087Y-11244650D01*
X7322087Y-11244650D02*
X7341134Y-11216079D01*
X7341134Y-11216079D02*
X7350658Y-11197031D01*
X7350658Y-11197031D02*
X7360182Y-11168460D01*
X7360182Y-11168460D02*
X7369706Y-11120841D01*
X7369706Y-11120841D02*
X7369706Y-11082746D01*
X7369706Y-11082746D02*
X7360182Y-11035127D01*
X7360182Y-11035127D02*
X7350658Y-11006555D01*
X7350658Y-11006555D02*
X7341134Y-10987508D01*
X7341134Y-10987508D02*
X7322087Y-10958936D01*
X7322087Y-10958936D02*
X7312563Y-10949412D01*
D16*
X2487500Y-11400500D02*
X2537500Y-11350500D01*
X2487500Y-11300500D01*
X2437500Y-11350500D01*
X2487500Y-11400500D01*
D11*
X2903039Y-11441984D02*
X2788753Y-11441984D01*
X2845896Y-11441984D02*
X2845896Y-11241984D01*
X2845896Y-11241984D02*
X2826848Y-11270555D01*
X2826848Y-11270555D02*
X2807801Y-11289603D01*
X2807801Y-11289603D02*
X2788753Y-11299127D01*
X2988753Y-11422936D02*
X2998277Y-11432460D01*
X2998277Y-11432460D02*
X2988753Y-11441984D01*
X2988753Y-11441984D02*
X2979229Y-11432460D01*
X2979229Y-11432460D02*
X2988753Y-11422936D01*
X2988753Y-11422936D02*
X2988753Y-11441984D01*
X3122086Y-11241984D02*
X3141134Y-11241984D01*
X3141134Y-11241984D02*
X3160182Y-11251508D01*
X3160182Y-11251508D02*
X3169705Y-11261031D01*
X3169705Y-11261031D02*
X3179229Y-11280079D01*
X3179229Y-11280079D02*
X3188753Y-11318174D01*
X3188753Y-11318174D02*
X3188753Y-11365793D01*
X3188753Y-11365793D02*
X3179229Y-11403888D01*
X3179229Y-11403888D02*
X3169705Y-11422936D01*
X3169705Y-11422936D02*
X3160182Y-11432460D01*
X3160182Y-11432460D02*
X3141134Y-11441984D01*
X3141134Y-11441984D02*
X3122086Y-11441984D01*
X3122086Y-11441984D02*
X3103039Y-11432460D01*
X3103039Y-11432460D02*
X3093515Y-11422936D01*
X3093515Y-11422936D02*
X3083991Y-11403888D01*
X3083991Y-11403888D02*
X3074467Y-11365793D01*
X3074467Y-11365793D02*
X3074467Y-11318174D01*
X3074467Y-11318174D02*
X3083991Y-11280079D01*
X3083991Y-11280079D02*
X3093515Y-11261031D01*
X3093515Y-11261031D02*
X3103039Y-11251508D01*
X3103039Y-11251508D02*
X3122086Y-11241984D01*
X3312562Y-11241984D02*
X3331610Y-11241984D01*
X3331610Y-11241984D02*
X3350658Y-11251508D01*
X3350658Y-11251508D02*
X3360182Y-11261031D01*
X3360182Y-11261031D02*
X3369705Y-11280079D01*
X3369705Y-11280079D02*
X3379229Y-11318174D01*
X3379229Y-11318174D02*
X3379229Y-11365793D01*
X3379229Y-11365793D02*
X3369705Y-11403888D01*
X3369705Y-11403888D02*
X3360182Y-11422936D01*
X3360182Y-11422936D02*
X3350658Y-11432460D01*
X3350658Y-11432460D02*
X3331610Y-11441984D01*
X3331610Y-11441984D02*
X3312562Y-11441984D01*
X3312562Y-11441984D02*
X3293515Y-11432460D01*
X3293515Y-11432460D02*
X3283991Y-11422936D01*
X3283991Y-11422936D02*
X3274467Y-11403888D01*
X3274467Y-11403888D02*
X3264943Y-11365793D01*
X3264943Y-11365793D02*
X3264943Y-11318174D01*
X3264943Y-11318174D02*
X3274467Y-11280079D01*
X3274467Y-11280079D02*
X3283991Y-11261031D01*
X3283991Y-11261031D02*
X3293515Y-11251508D01*
X3293515Y-11251508D02*
X3312562Y-11241984D01*
X3503039Y-11241984D02*
X3522086Y-11241984D01*
X3522086Y-11241984D02*
X3541134Y-11251508D01*
X3541134Y-11251508D02*
X3550658Y-11261031D01*
X3550658Y-11261031D02*
X3560182Y-11280079D01*
X3560182Y-11280079D02*
X3569705Y-11318174D01*
X3569705Y-11318174D02*
X3569705Y-11365793D01*
X3569705Y-11365793D02*
X3560182Y-11403888D01*
X3560182Y-11403888D02*
X3550658Y-11422936D01*
X3550658Y-11422936D02*
X3541134Y-11432460D01*
X3541134Y-11432460D02*
X3522086Y-11441984D01*
X3522086Y-11441984D02*
X3503039Y-11441984D01*
X3503039Y-11441984D02*
X3483991Y-11432460D01*
X3483991Y-11432460D02*
X3474467Y-11422936D01*
X3474467Y-11422936D02*
X3464943Y-11403888D01*
X3464943Y-11403888D02*
X3455420Y-11365793D01*
X3455420Y-11365793D02*
X3455420Y-11318174D01*
X3455420Y-11318174D02*
X3464943Y-11280079D01*
X3464943Y-11280079D02*
X3474467Y-11261031D01*
X3474467Y-11261031D02*
X3483991Y-11251508D01*
X3483991Y-11251508D02*
X3503039Y-11241984D01*
X3655420Y-11441984D02*
X3655420Y-11308650D01*
X3655420Y-11327698D02*
X3664943Y-11318174D01*
X3664943Y-11318174D02*
X3683991Y-11308650D01*
X3683991Y-11308650D02*
X3712563Y-11308650D01*
X3712563Y-11308650D02*
X3731610Y-11318174D01*
X3731610Y-11318174D02*
X3741134Y-11337222D01*
X3741134Y-11337222D02*
X3741134Y-11441984D01*
X3741134Y-11337222D02*
X3750658Y-11318174D01*
X3750658Y-11318174D02*
X3769705Y-11308650D01*
X3769705Y-11308650D02*
X3798277Y-11308650D01*
X3798277Y-11308650D02*
X3817324Y-11318174D01*
X3817324Y-11318174D02*
X3826848Y-11337222D01*
X3826848Y-11337222D02*
X3826848Y-11441984D01*
X3922086Y-11441984D02*
X3922086Y-11308650D01*
X3922086Y-11327698D02*
X3931610Y-11318174D01*
X3931610Y-11318174D02*
X3950658Y-11308650D01*
X3950658Y-11308650D02*
X3979229Y-11308650D01*
X3979229Y-11308650D02*
X3998277Y-11318174D01*
X3998277Y-11318174D02*
X4007801Y-11337222D01*
X4007801Y-11337222D02*
X4007801Y-11441984D01*
X4007801Y-11337222D02*
X4017324Y-11318174D01*
X4017324Y-11318174D02*
X4036372Y-11308650D01*
X4036372Y-11308650D02*
X4064943Y-11308650D01*
X4064943Y-11308650D02*
X4083991Y-11318174D01*
X4083991Y-11318174D02*
X4093515Y-11337222D01*
X4093515Y-11337222D02*
X4093515Y-11441984D01*
X4483991Y-11232460D02*
X4312563Y-11489603D01*
X4741134Y-11241984D02*
X4760182Y-11241984D01*
X4760182Y-11241984D02*
X4779229Y-11251508D01*
X4779229Y-11251508D02*
X4788753Y-11261031D01*
X4788753Y-11261031D02*
X4798277Y-11280079D01*
X4798277Y-11280079D02*
X4807801Y-11318174D01*
X4807801Y-11318174D02*
X4807801Y-11365793D01*
X4807801Y-11365793D02*
X4798277Y-11403888D01*
X4798277Y-11403888D02*
X4788753Y-11422936D01*
X4788753Y-11422936D02*
X4779229Y-11432460D01*
X4779229Y-11432460D02*
X4760182Y-11441984D01*
X4760182Y-11441984D02*
X4741134Y-11441984D01*
X4741134Y-11441984D02*
X4722087Y-11432460D01*
X4722087Y-11432460D02*
X4712563Y-11422936D01*
X4712563Y-11422936D02*
X4703039Y-11403888D01*
X4703039Y-11403888D02*
X4693515Y-11365793D01*
X4693515Y-11365793D02*
X4693515Y-11318174D01*
X4693515Y-11318174D02*
X4703039Y-11280079D01*
X4703039Y-11280079D02*
X4712563Y-11261031D01*
X4712563Y-11261031D02*
X4722087Y-11251508D01*
X4722087Y-11251508D02*
X4741134Y-11241984D01*
X4893515Y-11422936D02*
X4903039Y-11432460D01*
X4903039Y-11432460D02*
X4893515Y-11441984D01*
X4893515Y-11441984D02*
X4883991Y-11432460D01*
X4883991Y-11432460D02*
X4893515Y-11422936D01*
X4893515Y-11422936D02*
X4893515Y-11441984D01*
X5026848Y-11241984D02*
X5045896Y-11241984D01*
X5045896Y-11241984D02*
X5064944Y-11251508D01*
X5064944Y-11251508D02*
X5074468Y-11261031D01*
X5074468Y-11261031D02*
X5083991Y-11280079D01*
X5083991Y-11280079D02*
X5093515Y-11318174D01*
X5093515Y-11318174D02*
X5093515Y-11365793D01*
X5093515Y-11365793D02*
X5083991Y-11403888D01*
X5083991Y-11403888D02*
X5074468Y-11422936D01*
X5074468Y-11422936D02*
X5064944Y-11432460D01*
X5064944Y-11432460D02*
X5045896Y-11441984D01*
X5045896Y-11441984D02*
X5026848Y-11441984D01*
X5026848Y-11441984D02*
X5007801Y-11432460D01*
X5007801Y-11432460D02*
X4998277Y-11422936D01*
X4998277Y-11422936D02*
X4988753Y-11403888D01*
X4988753Y-11403888D02*
X4979229Y-11365793D01*
X4979229Y-11365793D02*
X4979229Y-11318174D01*
X4979229Y-11318174D02*
X4988753Y-11280079D01*
X4988753Y-11280079D02*
X4998277Y-11261031D01*
X4998277Y-11261031D02*
X5007801Y-11251508D01*
X5007801Y-11251508D02*
X5026848Y-11241984D01*
X5160182Y-11241984D02*
X5283991Y-11241984D01*
X5283991Y-11241984D02*
X5217325Y-11318174D01*
X5217325Y-11318174D02*
X5245896Y-11318174D01*
X5245896Y-11318174D02*
X5264944Y-11327698D01*
X5264944Y-11327698D02*
X5274468Y-11337222D01*
X5274468Y-11337222D02*
X5283991Y-11356269D01*
X5283991Y-11356269D02*
X5283991Y-11403888D01*
X5283991Y-11403888D02*
X5274468Y-11422936D01*
X5274468Y-11422936D02*
X5264944Y-11432460D01*
X5264944Y-11432460D02*
X5245896Y-11441984D01*
X5245896Y-11441984D02*
X5188753Y-11441984D01*
X5188753Y-11441984D02*
X5169706Y-11432460D01*
X5169706Y-11432460D02*
X5160182Y-11422936D01*
X5379229Y-11441984D02*
X5417325Y-11441984D01*
X5417325Y-11441984D02*
X5436372Y-11432460D01*
X5436372Y-11432460D02*
X5445896Y-11422936D01*
X5445896Y-11422936D02*
X5464944Y-11394365D01*
X5464944Y-11394365D02*
X5474468Y-11356269D01*
X5474468Y-11356269D02*
X5474468Y-11280079D01*
X5474468Y-11280079D02*
X5464944Y-11261031D01*
X5464944Y-11261031D02*
X5455420Y-11251508D01*
X5455420Y-11251508D02*
X5436372Y-11241984D01*
X5436372Y-11241984D02*
X5398277Y-11241984D01*
X5398277Y-11241984D02*
X5379229Y-11251508D01*
X5379229Y-11251508D02*
X5369706Y-11261031D01*
X5369706Y-11261031D02*
X5360182Y-11280079D01*
X5360182Y-11280079D02*
X5360182Y-11327698D01*
X5360182Y-11327698D02*
X5369706Y-11346746D01*
X5369706Y-11346746D02*
X5379229Y-11356269D01*
X5379229Y-11356269D02*
X5398277Y-11365793D01*
X5398277Y-11365793D02*
X5436372Y-11365793D01*
X5436372Y-11365793D02*
X5455420Y-11356269D01*
X5455420Y-11356269D02*
X5464944Y-11346746D01*
X5464944Y-11346746D02*
X5474468Y-11327698D01*
X5645896Y-11308650D02*
X5645896Y-11441984D01*
X5598277Y-11232460D02*
X5550658Y-11375317D01*
X5550658Y-11375317D02*
X5674467Y-11375317D01*
X5741134Y-11241984D02*
X5741134Y-11280079D01*
X5817325Y-11241984D02*
X5817325Y-11280079D01*
X6112563Y-11518174D02*
X6103039Y-11508650D01*
X6103039Y-11508650D02*
X6083991Y-11480079D01*
X6083991Y-11480079D02*
X6074468Y-11461031D01*
X6074468Y-11461031D02*
X6064944Y-11432460D01*
X6064944Y-11432460D02*
X6055420Y-11384841D01*
X6055420Y-11384841D02*
X6055420Y-11346746D01*
X6055420Y-11346746D02*
X6064944Y-11299127D01*
X6064944Y-11299127D02*
X6074468Y-11270555D01*
X6074468Y-11270555D02*
X6083991Y-11251508D01*
X6083991Y-11251508D02*
X6103039Y-11222936D01*
X6103039Y-11222936D02*
X6112563Y-11213412D01*
X6169706Y-11241984D02*
X6293515Y-11241984D01*
X6293515Y-11241984D02*
X6226848Y-11318174D01*
X6226848Y-11318174D02*
X6255420Y-11318174D01*
X6255420Y-11318174D02*
X6274468Y-11327698D01*
X6274468Y-11327698D02*
X6283991Y-11337222D01*
X6283991Y-11337222D02*
X6293515Y-11356269D01*
X6293515Y-11356269D02*
X6293515Y-11403888D01*
X6293515Y-11403888D02*
X6283991Y-11422936D01*
X6283991Y-11422936D02*
X6274468Y-11432460D01*
X6274468Y-11432460D02*
X6255420Y-11441984D01*
X6255420Y-11441984D02*
X6198277Y-11441984D01*
X6198277Y-11441984D02*
X6179229Y-11432460D01*
X6179229Y-11432460D02*
X6169706Y-11422936D01*
X6388753Y-11441984D02*
X6426848Y-11441984D01*
X6426848Y-11441984D02*
X6445896Y-11432460D01*
X6445896Y-11432460D02*
X6455420Y-11422936D01*
X6455420Y-11422936D02*
X6474468Y-11394365D01*
X6474468Y-11394365D02*
X6483991Y-11356269D01*
X6483991Y-11356269D02*
X6483991Y-11280079D01*
X6483991Y-11280079D02*
X6474468Y-11261031D01*
X6474468Y-11261031D02*
X6464944Y-11251508D01*
X6464944Y-11251508D02*
X6445896Y-11241984D01*
X6445896Y-11241984D02*
X6407801Y-11241984D01*
X6407801Y-11241984D02*
X6388753Y-11251508D01*
X6388753Y-11251508D02*
X6379229Y-11261031D01*
X6379229Y-11261031D02*
X6369706Y-11280079D01*
X6369706Y-11280079D02*
X6369706Y-11327698D01*
X6369706Y-11327698D02*
X6379229Y-11346746D01*
X6379229Y-11346746D02*
X6388753Y-11356269D01*
X6388753Y-11356269D02*
X6407801Y-11365793D01*
X6407801Y-11365793D02*
X6445896Y-11365793D01*
X6445896Y-11365793D02*
X6464944Y-11356269D01*
X6464944Y-11356269D02*
X6474468Y-11346746D01*
X6474468Y-11346746D02*
X6483991Y-11327698D01*
X6722087Y-11441984D02*
X6722087Y-11241984D01*
X6807801Y-11441984D02*
X6807801Y-11337222D01*
X6807801Y-11337222D02*
X6798277Y-11318174D01*
X6798277Y-11318174D02*
X6779230Y-11308650D01*
X6779230Y-11308650D02*
X6750658Y-11308650D01*
X6750658Y-11308650D02*
X6731610Y-11318174D01*
X6731610Y-11318174D02*
X6722087Y-11327698D01*
X6931610Y-11441984D02*
X6912563Y-11432460D01*
X6912563Y-11432460D02*
X6903039Y-11422936D01*
X6903039Y-11422936D02*
X6893515Y-11403888D01*
X6893515Y-11403888D02*
X6893515Y-11346746D01*
X6893515Y-11346746D02*
X6903039Y-11327698D01*
X6903039Y-11327698D02*
X6912563Y-11318174D01*
X6912563Y-11318174D02*
X6931610Y-11308650D01*
X6931610Y-11308650D02*
X6960182Y-11308650D01*
X6960182Y-11308650D02*
X6979230Y-11318174D01*
X6979230Y-11318174D02*
X6988753Y-11327698D01*
X6988753Y-11327698D02*
X6998277Y-11346746D01*
X6998277Y-11346746D02*
X6998277Y-11403888D01*
X6998277Y-11403888D02*
X6988753Y-11422936D01*
X6988753Y-11422936D02*
X6979230Y-11432460D01*
X6979230Y-11432460D02*
X6960182Y-11441984D01*
X6960182Y-11441984D02*
X6931610Y-11441984D01*
X7112563Y-11441984D02*
X7093515Y-11432460D01*
X7093515Y-11432460D02*
X7083991Y-11413412D01*
X7083991Y-11413412D02*
X7083991Y-11241984D01*
X7264944Y-11432460D02*
X7245896Y-11441984D01*
X7245896Y-11441984D02*
X7207801Y-11441984D01*
X7207801Y-11441984D02*
X7188753Y-11432460D01*
X7188753Y-11432460D02*
X7179230Y-11413412D01*
X7179230Y-11413412D02*
X7179230Y-11337222D01*
X7179230Y-11337222D02*
X7188753Y-11318174D01*
X7188753Y-11318174D02*
X7207801Y-11308650D01*
X7207801Y-11308650D02*
X7245896Y-11308650D01*
X7245896Y-11308650D02*
X7264944Y-11318174D01*
X7264944Y-11318174D02*
X7274468Y-11337222D01*
X7274468Y-11337222D02*
X7274468Y-11356269D01*
X7274468Y-11356269D02*
X7179230Y-11375317D01*
X7350658Y-11432460D02*
X7369706Y-11441984D01*
X7369706Y-11441984D02*
X7407801Y-11441984D01*
X7407801Y-11441984D02*
X7426849Y-11432460D01*
X7426849Y-11432460D02*
X7436372Y-11413412D01*
X7436372Y-11413412D02*
X7436372Y-11403888D01*
X7436372Y-11403888D02*
X7426849Y-11384841D01*
X7426849Y-11384841D02*
X7407801Y-11375317D01*
X7407801Y-11375317D02*
X7379230Y-11375317D01*
X7379230Y-11375317D02*
X7360182Y-11365793D01*
X7360182Y-11365793D02*
X7350658Y-11346746D01*
X7350658Y-11346746D02*
X7350658Y-11337222D01*
X7350658Y-11337222D02*
X7360182Y-11318174D01*
X7360182Y-11318174D02*
X7379230Y-11308650D01*
X7379230Y-11308650D02*
X7407801Y-11308650D01*
X7407801Y-11308650D02*
X7426849Y-11318174D01*
X7674468Y-11365793D02*
X7826849Y-11365793D01*
X7750658Y-11441984D02*
X7750658Y-11289603D01*
X8055420Y-11241984D02*
X8179230Y-11241984D01*
X8179230Y-11241984D02*
X8112563Y-11318174D01*
X8112563Y-11318174D02*
X8141134Y-11318174D01*
X8141134Y-11318174D02*
X8160182Y-11327698D01*
X8160182Y-11327698D02*
X8169706Y-11337222D01*
X8169706Y-11337222D02*
X8179230Y-11356269D01*
X8179230Y-11356269D02*
X8179230Y-11403888D01*
X8179230Y-11403888D02*
X8169706Y-11422936D01*
X8169706Y-11422936D02*
X8160182Y-11432460D01*
X8160182Y-11432460D02*
X8141134Y-11441984D01*
X8141134Y-11441984D02*
X8083992Y-11441984D01*
X8083992Y-11441984D02*
X8064944Y-11432460D01*
X8064944Y-11432460D02*
X8055420Y-11422936D01*
X8407801Y-11432460D02*
X8426849Y-11441984D01*
X8426849Y-11441984D02*
X8464944Y-11441984D01*
X8464944Y-11441984D02*
X8483992Y-11432460D01*
X8483992Y-11432460D02*
X8493516Y-11413412D01*
X8493516Y-11413412D02*
X8493516Y-11403888D01*
X8493516Y-11403888D02*
X8483992Y-11384841D01*
X8483992Y-11384841D02*
X8464944Y-11375317D01*
X8464944Y-11375317D02*
X8436373Y-11375317D01*
X8436373Y-11375317D02*
X8417325Y-11365793D01*
X8417325Y-11365793D02*
X8407801Y-11346746D01*
X8407801Y-11346746D02*
X8407801Y-11337222D01*
X8407801Y-11337222D02*
X8417325Y-11318174D01*
X8417325Y-11318174D02*
X8436373Y-11308650D01*
X8436373Y-11308650D02*
X8464944Y-11308650D01*
X8464944Y-11308650D02*
X8483992Y-11318174D01*
X8607801Y-11441984D02*
X8588754Y-11432460D01*
X8588754Y-11432460D02*
X8579230Y-11413412D01*
X8579230Y-11413412D02*
X8579230Y-11241984D01*
X8712563Y-11441984D02*
X8693516Y-11432460D01*
X8693516Y-11432460D02*
X8683992Y-11422936D01*
X8683992Y-11422936D02*
X8674468Y-11403888D01*
X8674468Y-11403888D02*
X8674468Y-11346746D01*
X8674468Y-11346746D02*
X8683992Y-11327698D01*
X8683992Y-11327698D02*
X8693516Y-11318174D01*
X8693516Y-11318174D02*
X8712563Y-11308650D01*
X8712563Y-11308650D02*
X8741135Y-11308650D01*
X8741135Y-11308650D02*
X8760182Y-11318174D01*
X8760182Y-11318174D02*
X8769706Y-11327698D01*
X8769706Y-11327698D02*
X8779230Y-11346746D01*
X8779230Y-11346746D02*
X8779230Y-11403888D01*
X8779230Y-11403888D02*
X8769706Y-11422936D01*
X8769706Y-11422936D02*
X8760182Y-11432460D01*
X8760182Y-11432460D02*
X8741135Y-11441984D01*
X8741135Y-11441984D02*
X8712563Y-11441984D01*
X8836373Y-11308650D02*
X8912563Y-11308650D01*
X8864944Y-11241984D02*
X8864944Y-11413412D01*
X8864944Y-11413412D02*
X8874468Y-11432460D01*
X8874468Y-11432460D02*
X8893516Y-11441984D01*
X8893516Y-11441984D02*
X8912563Y-11441984D01*
X8969706Y-11432460D02*
X8988754Y-11441984D01*
X8988754Y-11441984D02*
X9026849Y-11441984D01*
X9026849Y-11441984D02*
X9045897Y-11432460D01*
X9045897Y-11432460D02*
X9055420Y-11413412D01*
X9055420Y-11413412D02*
X9055420Y-11403888D01*
X9055420Y-11403888D02*
X9045897Y-11384841D01*
X9045897Y-11384841D02*
X9026849Y-11375317D01*
X9026849Y-11375317D02*
X8998277Y-11375317D01*
X8998277Y-11375317D02*
X8979230Y-11365793D01*
X8979230Y-11365793D02*
X8969706Y-11346746D01*
X8969706Y-11346746D02*
X8969706Y-11337222D01*
X8969706Y-11337222D02*
X8979230Y-11318174D01*
X8979230Y-11318174D02*
X8998277Y-11308650D01*
X8998277Y-11308650D02*
X9026849Y-11308650D01*
X9026849Y-11308650D02*
X9045897Y-11318174D01*
X9122087Y-11518174D02*
X9131611Y-11508650D01*
X9131611Y-11508650D02*
X9150658Y-11480079D01*
X9150658Y-11480079D02*
X9160182Y-11461031D01*
X9160182Y-11461031D02*
X9169706Y-11432460D01*
X9169706Y-11432460D02*
X9179230Y-11384841D01*
X9179230Y-11384841D02*
X9179230Y-11346746D01*
X9179230Y-11346746D02*
X9169706Y-11299127D01*
X9169706Y-11299127D02*
X9160182Y-11270555D01*
X9160182Y-11270555D02*
X9150658Y-11251508D01*
X9150658Y-11251508D02*
X9131611Y-11222936D01*
X9131611Y-11222936D02*
X9122087Y-11213412D01*
D17*
X2427500Y-11559500D02*
X2537500Y-11669500D01*
X2537500Y-11559500D02*
X2427500Y-11669500D01*
X2537500Y-11614500D02*
G75*
G03*
X2537500Y-11614500I-55000J0D01*
G01*
D11*
X2903039Y-11705984D02*
X2788753Y-11705984D01*
X2845896Y-11705984D02*
X2845896Y-11505984D01*
X2845896Y-11505984D02*
X2826848Y-11534555D01*
X2826848Y-11534555D02*
X2807801Y-11553603D01*
X2807801Y-11553603D02*
X2788753Y-11563127D01*
X2988753Y-11686936D02*
X2998277Y-11696460D01*
X2998277Y-11696460D02*
X2988753Y-11705984D01*
X2988753Y-11705984D02*
X2979229Y-11696460D01*
X2979229Y-11696460D02*
X2988753Y-11686936D01*
X2988753Y-11686936D02*
X2988753Y-11705984D01*
X3188753Y-11705984D02*
X3074467Y-11705984D01*
X3131610Y-11705984D02*
X3131610Y-11505984D01*
X3131610Y-11505984D02*
X3112562Y-11534555D01*
X3112562Y-11534555D02*
X3093515Y-11553603D01*
X3093515Y-11553603D02*
X3074467Y-11563127D01*
X3312562Y-11505984D02*
X3331610Y-11505984D01*
X3331610Y-11505984D02*
X3350658Y-11515508D01*
X3350658Y-11515508D02*
X3360182Y-11525031D01*
X3360182Y-11525031D02*
X3369705Y-11544079D01*
X3369705Y-11544079D02*
X3379229Y-11582174D01*
X3379229Y-11582174D02*
X3379229Y-11629793D01*
X3379229Y-11629793D02*
X3369705Y-11667888D01*
X3369705Y-11667888D02*
X3360182Y-11686936D01*
X3360182Y-11686936D02*
X3350658Y-11696460D01*
X3350658Y-11696460D02*
X3331610Y-11705984D01*
X3331610Y-11705984D02*
X3312562Y-11705984D01*
X3312562Y-11705984D02*
X3293515Y-11696460D01*
X3293515Y-11696460D02*
X3283991Y-11686936D01*
X3283991Y-11686936D02*
X3274467Y-11667888D01*
X3274467Y-11667888D02*
X3264943Y-11629793D01*
X3264943Y-11629793D02*
X3264943Y-11582174D01*
X3264943Y-11582174D02*
X3274467Y-11544079D01*
X3274467Y-11544079D02*
X3283991Y-11525031D01*
X3283991Y-11525031D02*
X3293515Y-11515508D01*
X3293515Y-11515508D02*
X3312562Y-11505984D01*
X3503039Y-11505984D02*
X3522086Y-11505984D01*
X3522086Y-11505984D02*
X3541134Y-11515508D01*
X3541134Y-11515508D02*
X3550658Y-11525031D01*
X3550658Y-11525031D02*
X3560182Y-11544079D01*
X3560182Y-11544079D02*
X3569705Y-11582174D01*
X3569705Y-11582174D02*
X3569705Y-11629793D01*
X3569705Y-11629793D02*
X3560182Y-11667888D01*
X3560182Y-11667888D02*
X3550658Y-11686936D01*
X3550658Y-11686936D02*
X3541134Y-11696460D01*
X3541134Y-11696460D02*
X3522086Y-11705984D01*
X3522086Y-11705984D02*
X3503039Y-11705984D01*
X3503039Y-11705984D02*
X3483991Y-11696460D01*
X3483991Y-11696460D02*
X3474467Y-11686936D01*
X3474467Y-11686936D02*
X3464943Y-11667888D01*
X3464943Y-11667888D02*
X3455420Y-11629793D01*
X3455420Y-11629793D02*
X3455420Y-11582174D01*
X3455420Y-11582174D02*
X3464943Y-11544079D01*
X3464943Y-11544079D02*
X3474467Y-11525031D01*
X3474467Y-11525031D02*
X3483991Y-11515508D01*
X3483991Y-11515508D02*
X3503039Y-11505984D01*
X3655420Y-11705984D02*
X3655420Y-11572650D01*
X3655420Y-11591698D02*
X3664943Y-11582174D01*
X3664943Y-11582174D02*
X3683991Y-11572650D01*
X3683991Y-11572650D02*
X3712563Y-11572650D01*
X3712563Y-11572650D02*
X3731610Y-11582174D01*
X3731610Y-11582174D02*
X3741134Y-11601222D01*
X3741134Y-11601222D02*
X3741134Y-11705984D01*
X3741134Y-11601222D02*
X3750658Y-11582174D01*
X3750658Y-11582174D02*
X3769705Y-11572650D01*
X3769705Y-11572650D02*
X3798277Y-11572650D01*
X3798277Y-11572650D02*
X3817324Y-11582174D01*
X3817324Y-11582174D02*
X3826848Y-11601222D01*
X3826848Y-11601222D02*
X3826848Y-11705984D01*
X3922086Y-11705984D02*
X3922086Y-11572650D01*
X3922086Y-11591698D02*
X3931610Y-11582174D01*
X3931610Y-11582174D02*
X3950658Y-11572650D01*
X3950658Y-11572650D02*
X3979229Y-11572650D01*
X3979229Y-11572650D02*
X3998277Y-11582174D01*
X3998277Y-11582174D02*
X4007801Y-11601222D01*
X4007801Y-11601222D02*
X4007801Y-11705984D01*
X4007801Y-11601222D02*
X4017324Y-11582174D01*
X4017324Y-11582174D02*
X4036372Y-11572650D01*
X4036372Y-11572650D02*
X4064943Y-11572650D01*
X4064943Y-11572650D02*
X4083991Y-11582174D01*
X4083991Y-11582174D02*
X4093515Y-11601222D01*
X4093515Y-11601222D02*
X4093515Y-11705984D01*
X4483991Y-11496460D02*
X4312563Y-11753603D01*
X4741134Y-11505984D02*
X4760182Y-11505984D01*
X4760182Y-11505984D02*
X4779229Y-11515508D01*
X4779229Y-11515508D02*
X4788753Y-11525031D01*
X4788753Y-11525031D02*
X4798277Y-11544079D01*
X4798277Y-11544079D02*
X4807801Y-11582174D01*
X4807801Y-11582174D02*
X4807801Y-11629793D01*
X4807801Y-11629793D02*
X4798277Y-11667888D01*
X4798277Y-11667888D02*
X4788753Y-11686936D01*
X4788753Y-11686936D02*
X4779229Y-11696460D01*
X4779229Y-11696460D02*
X4760182Y-11705984D01*
X4760182Y-11705984D02*
X4741134Y-11705984D01*
X4741134Y-11705984D02*
X4722087Y-11696460D01*
X4722087Y-11696460D02*
X4712563Y-11686936D01*
X4712563Y-11686936D02*
X4703039Y-11667888D01*
X4703039Y-11667888D02*
X4693515Y-11629793D01*
X4693515Y-11629793D02*
X4693515Y-11582174D01*
X4693515Y-11582174D02*
X4703039Y-11544079D01*
X4703039Y-11544079D02*
X4712563Y-11525031D01*
X4712563Y-11525031D02*
X4722087Y-11515508D01*
X4722087Y-11515508D02*
X4741134Y-11505984D01*
X4893515Y-11686936D02*
X4903039Y-11696460D01*
X4903039Y-11696460D02*
X4893515Y-11705984D01*
X4893515Y-11705984D02*
X4883991Y-11696460D01*
X4883991Y-11696460D02*
X4893515Y-11686936D01*
X4893515Y-11686936D02*
X4893515Y-11705984D01*
X5026848Y-11505984D02*
X5045896Y-11505984D01*
X5045896Y-11505984D02*
X5064944Y-11515508D01*
X5064944Y-11515508D02*
X5074468Y-11525031D01*
X5074468Y-11525031D02*
X5083991Y-11544079D01*
X5083991Y-11544079D02*
X5093515Y-11582174D01*
X5093515Y-11582174D02*
X5093515Y-11629793D01*
X5093515Y-11629793D02*
X5083991Y-11667888D01*
X5083991Y-11667888D02*
X5074468Y-11686936D01*
X5074468Y-11686936D02*
X5064944Y-11696460D01*
X5064944Y-11696460D02*
X5045896Y-11705984D01*
X5045896Y-11705984D02*
X5026848Y-11705984D01*
X5026848Y-11705984D02*
X5007801Y-11696460D01*
X5007801Y-11696460D02*
X4998277Y-11686936D01*
X4998277Y-11686936D02*
X4988753Y-11667888D01*
X4988753Y-11667888D02*
X4979229Y-11629793D01*
X4979229Y-11629793D02*
X4979229Y-11582174D01*
X4979229Y-11582174D02*
X4988753Y-11544079D01*
X4988753Y-11544079D02*
X4998277Y-11525031D01*
X4998277Y-11525031D02*
X5007801Y-11515508D01*
X5007801Y-11515508D02*
X5026848Y-11505984D01*
X5264944Y-11572650D02*
X5264944Y-11705984D01*
X5217325Y-11496460D02*
X5169706Y-11639317D01*
X5169706Y-11639317D02*
X5293515Y-11639317D01*
X5350658Y-11505984D02*
X5474468Y-11505984D01*
X5474468Y-11505984D02*
X5407801Y-11582174D01*
X5407801Y-11582174D02*
X5436372Y-11582174D01*
X5436372Y-11582174D02*
X5455420Y-11591698D01*
X5455420Y-11591698D02*
X5464944Y-11601222D01*
X5464944Y-11601222D02*
X5474468Y-11620269D01*
X5474468Y-11620269D02*
X5474468Y-11667888D01*
X5474468Y-11667888D02*
X5464944Y-11686936D01*
X5464944Y-11686936D02*
X5455420Y-11696460D01*
X5455420Y-11696460D02*
X5436372Y-11705984D01*
X5436372Y-11705984D02*
X5379229Y-11705984D01*
X5379229Y-11705984D02*
X5360182Y-11696460D01*
X5360182Y-11696460D02*
X5350658Y-11686936D01*
X5541134Y-11505984D02*
X5664944Y-11505984D01*
X5664944Y-11505984D02*
X5598277Y-11582174D01*
X5598277Y-11582174D02*
X5626848Y-11582174D01*
X5626848Y-11582174D02*
X5645896Y-11591698D01*
X5645896Y-11591698D02*
X5655420Y-11601222D01*
X5655420Y-11601222D02*
X5664944Y-11620269D01*
X5664944Y-11620269D02*
X5664944Y-11667888D01*
X5664944Y-11667888D02*
X5655420Y-11686936D01*
X5655420Y-11686936D02*
X5645896Y-11696460D01*
X5645896Y-11696460D02*
X5626848Y-11705984D01*
X5626848Y-11705984D02*
X5569706Y-11705984D01*
X5569706Y-11705984D02*
X5550658Y-11696460D01*
X5550658Y-11696460D02*
X5541134Y-11686936D01*
X5741134Y-11505984D02*
X5741134Y-11544079D01*
X5817325Y-11505984D02*
X5817325Y-11544079D01*
X6112563Y-11782174D02*
X6103039Y-11772650D01*
X6103039Y-11772650D02*
X6083991Y-11744079D01*
X6083991Y-11744079D02*
X6074468Y-11725031D01*
X6074468Y-11725031D02*
X6064944Y-11696460D01*
X6064944Y-11696460D02*
X6055420Y-11648841D01*
X6055420Y-11648841D02*
X6055420Y-11610746D01*
X6055420Y-11610746D02*
X6064944Y-11563127D01*
X6064944Y-11563127D02*
X6074468Y-11534555D01*
X6074468Y-11534555D02*
X6083991Y-11515508D01*
X6083991Y-11515508D02*
X6103039Y-11486936D01*
X6103039Y-11486936D02*
X6112563Y-11477412D01*
X6169706Y-11505984D02*
X6303039Y-11505984D01*
X6303039Y-11505984D02*
X6217325Y-11705984D01*
X6531610Y-11705984D02*
X6531610Y-11505984D01*
X6617325Y-11705984D02*
X6617325Y-11601222D01*
X6617325Y-11601222D02*
X6607801Y-11582174D01*
X6607801Y-11582174D02*
X6588753Y-11572650D01*
X6588753Y-11572650D02*
X6560182Y-11572650D01*
X6560182Y-11572650D02*
X6541134Y-11582174D01*
X6541134Y-11582174D02*
X6531610Y-11591698D01*
X6741134Y-11705984D02*
X6722087Y-11696460D01*
X6722087Y-11696460D02*
X6712563Y-11686936D01*
X6712563Y-11686936D02*
X6703039Y-11667888D01*
X6703039Y-11667888D02*
X6703039Y-11610746D01*
X6703039Y-11610746D02*
X6712563Y-11591698D01*
X6712563Y-11591698D02*
X6722087Y-11582174D01*
X6722087Y-11582174D02*
X6741134Y-11572650D01*
X6741134Y-11572650D02*
X6769706Y-11572650D01*
X6769706Y-11572650D02*
X6788753Y-11582174D01*
X6788753Y-11582174D02*
X6798277Y-11591698D01*
X6798277Y-11591698D02*
X6807801Y-11610746D01*
X6807801Y-11610746D02*
X6807801Y-11667888D01*
X6807801Y-11667888D02*
X6798277Y-11686936D01*
X6798277Y-11686936D02*
X6788753Y-11696460D01*
X6788753Y-11696460D02*
X6769706Y-11705984D01*
X6769706Y-11705984D02*
X6741134Y-11705984D01*
X6922087Y-11705984D02*
X6903039Y-11696460D01*
X6903039Y-11696460D02*
X6893515Y-11677412D01*
X6893515Y-11677412D02*
X6893515Y-11505984D01*
X7074468Y-11696460D02*
X7055420Y-11705984D01*
X7055420Y-11705984D02*
X7017325Y-11705984D01*
X7017325Y-11705984D02*
X6998277Y-11696460D01*
X6998277Y-11696460D02*
X6988753Y-11677412D01*
X6988753Y-11677412D02*
X6988753Y-11601222D01*
X6988753Y-11601222D02*
X6998277Y-11582174D01*
X6998277Y-11582174D02*
X7017325Y-11572650D01*
X7017325Y-11572650D02*
X7055420Y-11572650D01*
X7055420Y-11572650D02*
X7074468Y-11582174D01*
X7074468Y-11582174D02*
X7083991Y-11601222D01*
X7083991Y-11601222D02*
X7083991Y-11620269D01*
X7083991Y-11620269D02*
X6988753Y-11639317D01*
X7160182Y-11696460D02*
X7179230Y-11705984D01*
X7179230Y-11705984D02*
X7217325Y-11705984D01*
X7217325Y-11705984D02*
X7236372Y-11696460D01*
X7236372Y-11696460D02*
X7245896Y-11677412D01*
X7245896Y-11677412D02*
X7245896Y-11667888D01*
X7245896Y-11667888D02*
X7236372Y-11648841D01*
X7236372Y-11648841D02*
X7217325Y-11639317D01*
X7217325Y-11639317D02*
X7188753Y-11639317D01*
X7188753Y-11639317D02*
X7169706Y-11629793D01*
X7169706Y-11629793D02*
X7160182Y-11610746D01*
X7160182Y-11610746D02*
X7160182Y-11601222D01*
X7160182Y-11601222D02*
X7169706Y-11582174D01*
X7169706Y-11582174D02*
X7188753Y-11572650D01*
X7188753Y-11572650D02*
X7217325Y-11572650D01*
X7217325Y-11572650D02*
X7236372Y-11582174D01*
X7312563Y-11782174D02*
X7322087Y-11772650D01*
X7322087Y-11772650D02*
X7341134Y-11744079D01*
X7341134Y-11744079D02*
X7350658Y-11725031D01*
X7350658Y-11725031D02*
X7360182Y-11696460D01*
X7360182Y-11696460D02*
X7369706Y-11648841D01*
X7369706Y-11648841D02*
X7369706Y-11610746D01*
X7369706Y-11610746D02*
X7360182Y-11563127D01*
X7360182Y-11563127D02*
X7350658Y-11534555D01*
X7350658Y-11534555D02*
X7341134Y-11515508D01*
X7341134Y-11515508D02*
X7322087Y-11486936D01*
X7322087Y-11486936D02*
X7312563Y-11477412D01*
X2337500Y-11778500D02*
X2537500Y-11978500D01*
X2537500Y-11778500D02*
X2337500Y-11978500D01*
X2437500Y-11778500D02*
X2437500Y-11978500D01*
X2337500Y-11878500D02*
X2537500Y-11878500D01*
X2788753Y-11789031D02*
X2798277Y-11779508D01*
X2798277Y-11779508D02*
X2817324Y-11769984D01*
X2817324Y-11769984D02*
X2864943Y-11769984D01*
X2864943Y-11769984D02*
X2883991Y-11779508D01*
X2883991Y-11779508D02*
X2893515Y-11789031D01*
X2893515Y-11789031D02*
X2903039Y-11808079D01*
X2903039Y-11808079D02*
X2903039Y-11827127D01*
X2903039Y-11827127D02*
X2893515Y-11855698D01*
X2893515Y-11855698D02*
X2779229Y-11969984D01*
X2779229Y-11969984D02*
X2903039Y-11969984D01*
X2988753Y-11950936D02*
X2998277Y-11960460D01*
X2998277Y-11960460D02*
X2988753Y-11969984D01*
X2988753Y-11969984D02*
X2979229Y-11960460D01*
X2979229Y-11960460D02*
X2988753Y-11950936D01*
X2988753Y-11950936D02*
X2988753Y-11969984D01*
X3074467Y-11789031D02*
X3083991Y-11779508D01*
X3083991Y-11779508D02*
X3103039Y-11769984D01*
X3103039Y-11769984D02*
X3150658Y-11769984D01*
X3150658Y-11769984D02*
X3169705Y-11779508D01*
X3169705Y-11779508D02*
X3179229Y-11789031D01*
X3179229Y-11789031D02*
X3188753Y-11808079D01*
X3188753Y-11808079D02*
X3188753Y-11827127D01*
X3188753Y-11827127D02*
X3179229Y-11855698D01*
X3179229Y-11855698D02*
X3064943Y-11969984D01*
X3064943Y-11969984D02*
X3188753Y-11969984D01*
X3283991Y-11969984D02*
X3322086Y-11969984D01*
X3322086Y-11969984D02*
X3341134Y-11960460D01*
X3341134Y-11960460D02*
X3350658Y-11950936D01*
X3350658Y-11950936D02*
X3369705Y-11922365D01*
X3369705Y-11922365D02*
X3379229Y-11884269D01*
X3379229Y-11884269D02*
X3379229Y-11808079D01*
X3379229Y-11808079D02*
X3369705Y-11789031D01*
X3369705Y-11789031D02*
X3360182Y-11779508D01*
X3360182Y-11779508D02*
X3341134Y-11769984D01*
X3341134Y-11769984D02*
X3303039Y-11769984D01*
X3303039Y-11769984D02*
X3283991Y-11779508D01*
X3283991Y-11779508D02*
X3274467Y-11789031D01*
X3274467Y-11789031D02*
X3264943Y-11808079D01*
X3264943Y-11808079D02*
X3264943Y-11855698D01*
X3264943Y-11855698D02*
X3274467Y-11874746D01*
X3274467Y-11874746D02*
X3283991Y-11884269D01*
X3283991Y-11884269D02*
X3303039Y-11893793D01*
X3303039Y-11893793D02*
X3341134Y-11893793D01*
X3341134Y-11893793D02*
X3360182Y-11884269D01*
X3360182Y-11884269D02*
X3369705Y-11874746D01*
X3369705Y-11874746D02*
X3379229Y-11855698D01*
X3569705Y-11969984D02*
X3455420Y-11969984D01*
X3512562Y-11969984D02*
X3512562Y-11769984D01*
X3512562Y-11769984D02*
X3493515Y-11798555D01*
X3493515Y-11798555D02*
X3474467Y-11817603D01*
X3474467Y-11817603D02*
X3455420Y-11827127D01*
X3655420Y-11969984D02*
X3655420Y-11836650D01*
X3655420Y-11855698D02*
X3664943Y-11846174D01*
X3664943Y-11846174D02*
X3683991Y-11836650D01*
X3683991Y-11836650D02*
X3712563Y-11836650D01*
X3712563Y-11836650D02*
X3731610Y-11846174D01*
X3731610Y-11846174D02*
X3741134Y-11865222D01*
X3741134Y-11865222D02*
X3741134Y-11969984D01*
X3741134Y-11865222D02*
X3750658Y-11846174D01*
X3750658Y-11846174D02*
X3769705Y-11836650D01*
X3769705Y-11836650D02*
X3798277Y-11836650D01*
X3798277Y-11836650D02*
X3817324Y-11846174D01*
X3817324Y-11846174D02*
X3826848Y-11865222D01*
X3826848Y-11865222D02*
X3826848Y-11969984D01*
X3922086Y-11969984D02*
X3922086Y-11836650D01*
X3922086Y-11855698D02*
X3931610Y-11846174D01*
X3931610Y-11846174D02*
X3950658Y-11836650D01*
X3950658Y-11836650D02*
X3979229Y-11836650D01*
X3979229Y-11836650D02*
X3998277Y-11846174D01*
X3998277Y-11846174D02*
X4007801Y-11865222D01*
X4007801Y-11865222D02*
X4007801Y-11969984D01*
X4007801Y-11865222D02*
X4017324Y-11846174D01*
X4017324Y-11846174D02*
X4036372Y-11836650D01*
X4036372Y-11836650D02*
X4064943Y-11836650D01*
X4064943Y-11836650D02*
X4083991Y-11846174D01*
X4083991Y-11846174D02*
X4093515Y-11865222D01*
X4093515Y-11865222D02*
X4093515Y-11969984D01*
X4483991Y-11760460D02*
X4312563Y-12017603D01*
X4741134Y-11769984D02*
X4760182Y-11769984D01*
X4760182Y-11769984D02*
X4779229Y-11779508D01*
X4779229Y-11779508D02*
X4788753Y-11789031D01*
X4788753Y-11789031D02*
X4798277Y-11808079D01*
X4798277Y-11808079D02*
X4807801Y-11846174D01*
X4807801Y-11846174D02*
X4807801Y-11893793D01*
X4807801Y-11893793D02*
X4798277Y-11931888D01*
X4798277Y-11931888D02*
X4788753Y-11950936D01*
X4788753Y-11950936D02*
X4779229Y-11960460D01*
X4779229Y-11960460D02*
X4760182Y-11969984D01*
X4760182Y-11969984D02*
X4741134Y-11969984D01*
X4741134Y-11969984D02*
X4722087Y-11960460D01*
X4722087Y-11960460D02*
X4712563Y-11950936D01*
X4712563Y-11950936D02*
X4703039Y-11931888D01*
X4703039Y-11931888D02*
X4693515Y-11893793D01*
X4693515Y-11893793D02*
X4693515Y-11846174D01*
X4693515Y-11846174D02*
X4703039Y-11808079D01*
X4703039Y-11808079D02*
X4712563Y-11789031D01*
X4712563Y-11789031D02*
X4722087Y-11779508D01*
X4722087Y-11779508D02*
X4741134Y-11769984D01*
X4893515Y-11950936D02*
X4903039Y-11960460D01*
X4903039Y-11960460D02*
X4893515Y-11969984D01*
X4893515Y-11969984D02*
X4883991Y-11960460D01*
X4883991Y-11960460D02*
X4893515Y-11950936D01*
X4893515Y-11950936D02*
X4893515Y-11969984D01*
X5026848Y-11769984D02*
X5045896Y-11769984D01*
X5045896Y-11769984D02*
X5064944Y-11779508D01*
X5064944Y-11779508D02*
X5074468Y-11789031D01*
X5074468Y-11789031D02*
X5083991Y-11808079D01*
X5083991Y-11808079D02*
X5093515Y-11846174D01*
X5093515Y-11846174D02*
X5093515Y-11893793D01*
X5093515Y-11893793D02*
X5083991Y-11931888D01*
X5083991Y-11931888D02*
X5074468Y-11950936D01*
X5074468Y-11950936D02*
X5064944Y-11960460D01*
X5064944Y-11960460D02*
X5045896Y-11969984D01*
X5045896Y-11969984D02*
X5026848Y-11969984D01*
X5026848Y-11969984D02*
X5007801Y-11960460D01*
X5007801Y-11960460D02*
X4998277Y-11950936D01*
X4998277Y-11950936D02*
X4988753Y-11931888D01*
X4988753Y-11931888D02*
X4979229Y-11893793D01*
X4979229Y-11893793D02*
X4979229Y-11846174D01*
X4979229Y-11846174D02*
X4988753Y-11808079D01*
X4988753Y-11808079D02*
X4998277Y-11789031D01*
X4998277Y-11789031D02*
X5007801Y-11779508D01*
X5007801Y-11779508D02*
X5026848Y-11769984D01*
X5188753Y-11969984D02*
X5226848Y-11969984D01*
X5226848Y-11969984D02*
X5245896Y-11960460D01*
X5245896Y-11960460D02*
X5255420Y-11950936D01*
X5255420Y-11950936D02*
X5274468Y-11922365D01*
X5274468Y-11922365D02*
X5283991Y-11884269D01*
X5283991Y-11884269D02*
X5283991Y-11808079D01*
X5283991Y-11808079D02*
X5274468Y-11789031D01*
X5274468Y-11789031D02*
X5264944Y-11779508D01*
X5264944Y-11779508D02*
X5245896Y-11769984D01*
X5245896Y-11769984D02*
X5207801Y-11769984D01*
X5207801Y-11769984D02*
X5188753Y-11779508D01*
X5188753Y-11779508D02*
X5179229Y-11789031D01*
X5179229Y-11789031D02*
X5169706Y-11808079D01*
X5169706Y-11808079D02*
X5169706Y-11855698D01*
X5169706Y-11855698D02*
X5179229Y-11874746D01*
X5179229Y-11874746D02*
X5188753Y-11884269D01*
X5188753Y-11884269D02*
X5207801Y-11893793D01*
X5207801Y-11893793D02*
X5245896Y-11893793D01*
X5245896Y-11893793D02*
X5264944Y-11884269D01*
X5264944Y-11884269D02*
X5274468Y-11874746D01*
X5274468Y-11874746D02*
X5283991Y-11855698D01*
X5407801Y-11769984D02*
X5426849Y-11769984D01*
X5426849Y-11769984D02*
X5445896Y-11779508D01*
X5445896Y-11779508D02*
X5455420Y-11789031D01*
X5455420Y-11789031D02*
X5464944Y-11808079D01*
X5464944Y-11808079D02*
X5474468Y-11846174D01*
X5474468Y-11846174D02*
X5474468Y-11893793D01*
X5474468Y-11893793D02*
X5464944Y-11931888D01*
X5464944Y-11931888D02*
X5455420Y-11950936D01*
X5455420Y-11950936D02*
X5445896Y-11960460D01*
X5445896Y-11960460D02*
X5426849Y-11969984D01*
X5426849Y-11969984D02*
X5407801Y-11969984D01*
X5407801Y-11969984D02*
X5388753Y-11960460D01*
X5388753Y-11960460D02*
X5379229Y-11950936D01*
X5379229Y-11950936D02*
X5369706Y-11931888D01*
X5369706Y-11931888D02*
X5360182Y-11893793D01*
X5360182Y-11893793D02*
X5360182Y-11846174D01*
X5360182Y-11846174D02*
X5369706Y-11808079D01*
X5369706Y-11808079D02*
X5379229Y-11789031D01*
X5379229Y-11789031D02*
X5388753Y-11779508D01*
X5388753Y-11779508D02*
X5407801Y-11769984D01*
X5550658Y-11789031D02*
X5560182Y-11779508D01*
X5560182Y-11779508D02*
X5579229Y-11769984D01*
X5579229Y-11769984D02*
X5626848Y-11769984D01*
X5626848Y-11769984D02*
X5645896Y-11779508D01*
X5645896Y-11779508D02*
X5655420Y-11789031D01*
X5655420Y-11789031D02*
X5664944Y-11808079D01*
X5664944Y-11808079D02*
X5664944Y-11827127D01*
X5664944Y-11827127D02*
X5655420Y-11855698D01*
X5655420Y-11855698D02*
X5541134Y-11969984D01*
X5541134Y-11969984D02*
X5664944Y-11969984D01*
X5741134Y-11769984D02*
X5741134Y-11808079D01*
X5817325Y-11769984D02*
X5817325Y-11808079D01*
X6112563Y-12046174D02*
X6103039Y-12036650D01*
X6103039Y-12036650D02*
X6083991Y-12008079D01*
X6083991Y-12008079D02*
X6074468Y-11989031D01*
X6074468Y-11989031D02*
X6064944Y-11960460D01*
X6064944Y-11960460D02*
X6055420Y-11912841D01*
X6055420Y-11912841D02*
X6055420Y-11874746D01*
X6055420Y-11874746D02*
X6064944Y-11827127D01*
X6064944Y-11827127D02*
X6074468Y-11798555D01*
X6074468Y-11798555D02*
X6083991Y-11779508D01*
X6083991Y-11779508D02*
X6103039Y-11750936D01*
X6103039Y-11750936D02*
X6112563Y-11741412D01*
X6169706Y-11769984D02*
X6303039Y-11769984D01*
X6303039Y-11769984D02*
X6217325Y-11969984D01*
X6531610Y-11969984D02*
X6531610Y-11769984D01*
X6617325Y-11969984D02*
X6617325Y-11865222D01*
X6617325Y-11865222D02*
X6607801Y-11846174D01*
X6607801Y-11846174D02*
X6588753Y-11836650D01*
X6588753Y-11836650D02*
X6560182Y-11836650D01*
X6560182Y-11836650D02*
X6541134Y-11846174D01*
X6541134Y-11846174D02*
X6531610Y-11855698D01*
X6741134Y-11969984D02*
X6722087Y-11960460D01*
X6722087Y-11960460D02*
X6712563Y-11950936D01*
X6712563Y-11950936D02*
X6703039Y-11931888D01*
X6703039Y-11931888D02*
X6703039Y-11874746D01*
X6703039Y-11874746D02*
X6712563Y-11855698D01*
X6712563Y-11855698D02*
X6722087Y-11846174D01*
X6722087Y-11846174D02*
X6741134Y-11836650D01*
X6741134Y-11836650D02*
X6769706Y-11836650D01*
X6769706Y-11836650D02*
X6788753Y-11846174D01*
X6788753Y-11846174D02*
X6798277Y-11855698D01*
X6798277Y-11855698D02*
X6807801Y-11874746D01*
X6807801Y-11874746D02*
X6807801Y-11931888D01*
X6807801Y-11931888D02*
X6798277Y-11950936D01*
X6798277Y-11950936D02*
X6788753Y-11960460D01*
X6788753Y-11960460D02*
X6769706Y-11969984D01*
X6769706Y-11969984D02*
X6741134Y-11969984D01*
X6922087Y-11969984D02*
X6903039Y-11960460D01*
X6903039Y-11960460D02*
X6893515Y-11941412D01*
X6893515Y-11941412D02*
X6893515Y-11769984D01*
X7074468Y-11960460D02*
X7055420Y-11969984D01*
X7055420Y-11969984D02*
X7017325Y-11969984D01*
X7017325Y-11969984D02*
X6998277Y-11960460D01*
X6998277Y-11960460D02*
X6988753Y-11941412D01*
X6988753Y-11941412D02*
X6988753Y-11865222D01*
X6988753Y-11865222D02*
X6998277Y-11846174D01*
X6998277Y-11846174D02*
X7017325Y-11836650D01*
X7017325Y-11836650D02*
X7055420Y-11836650D01*
X7055420Y-11836650D02*
X7074468Y-11846174D01*
X7074468Y-11846174D02*
X7083991Y-11865222D01*
X7083991Y-11865222D02*
X7083991Y-11884269D01*
X7083991Y-11884269D02*
X6988753Y-11903317D01*
X7160182Y-11960460D02*
X7179230Y-11969984D01*
X7179230Y-11969984D02*
X7217325Y-11969984D01*
X7217325Y-11969984D02*
X7236372Y-11960460D01*
X7236372Y-11960460D02*
X7245896Y-11941412D01*
X7245896Y-11941412D02*
X7245896Y-11931888D01*
X7245896Y-11931888D02*
X7236372Y-11912841D01*
X7236372Y-11912841D02*
X7217325Y-11903317D01*
X7217325Y-11903317D02*
X7188753Y-11903317D01*
X7188753Y-11903317D02*
X7169706Y-11893793D01*
X7169706Y-11893793D02*
X7160182Y-11874746D01*
X7160182Y-11874746D02*
X7160182Y-11865222D01*
X7160182Y-11865222D02*
X7169706Y-11846174D01*
X7169706Y-11846174D02*
X7188753Y-11836650D01*
X7188753Y-11836650D02*
X7217325Y-11836650D01*
X7217325Y-11836650D02*
X7236372Y-11846174D01*
X7312563Y-12046174D02*
X7322087Y-12036650D01*
X7322087Y-12036650D02*
X7341134Y-12008079D01*
X7341134Y-12008079D02*
X7350658Y-11989031D01*
X7350658Y-11989031D02*
X7360182Y-11960460D01*
X7360182Y-11960460D02*
X7369706Y-11912841D01*
X7369706Y-11912841D02*
X7369706Y-11874746D01*
X7369706Y-11874746D02*
X7360182Y-11827127D01*
X7360182Y-11827127D02*
X7350658Y-11798555D01*
X7350658Y-11798555D02*
X7341134Y-11779508D01*
X7341134Y-11779508D02*
X7322087Y-11750936D01*
X7322087Y-11750936D02*
X7312563Y-11741412D01*
X2337500Y-12098500D02*
X2537500Y-12298500D01*
X2537500Y-12098500D02*
X2337500Y-12298500D01*
X2508211Y-12269211D02*
X2508211Y-12127789D01*
X2366789Y-12127789D01*
X2366789Y-12269211D01*
X2508211Y-12269211D01*
X2779229Y-12089984D02*
X2903039Y-12089984D01*
X2903039Y-12089984D02*
X2836372Y-12166174D01*
X2836372Y-12166174D02*
X2864943Y-12166174D01*
X2864943Y-12166174D02*
X2883991Y-12175698D01*
X2883991Y-12175698D02*
X2893515Y-12185222D01*
X2893515Y-12185222D02*
X2903039Y-12204269D01*
X2903039Y-12204269D02*
X2903039Y-12251888D01*
X2903039Y-12251888D02*
X2893515Y-12270936D01*
X2893515Y-12270936D02*
X2883991Y-12280460D01*
X2883991Y-12280460D02*
X2864943Y-12289984D01*
X2864943Y-12289984D02*
X2807801Y-12289984D01*
X2807801Y-12289984D02*
X2788753Y-12280460D01*
X2788753Y-12280460D02*
X2779229Y-12270936D01*
X2988753Y-12270936D02*
X2998277Y-12280460D01*
X2998277Y-12280460D02*
X2988753Y-12289984D01*
X2988753Y-12289984D02*
X2979229Y-12280460D01*
X2979229Y-12280460D02*
X2988753Y-12270936D01*
X2988753Y-12270936D02*
X2988753Y-12289984D01*
X3074467Y-12109031D02*
X3083991Y-12099508D01*
X3083991Y-12099508D02*
X3103039Y-12089984D01*
X3103039Y-12089984D02*
X3150658Y-12089984D01*
X3150658Y-12089984D02*
X3169705Y-12099508D01*
X3169705Y-12099508D02*
X3179229Y-12109031D01*
X3179229Y-12109031D02*
X3188753Y-12128079D01*
X3188753Y-12128079D02*
X3188753Y-12147127D01*
X3188753Y-12147127D02*
X3179229Y-12175698D01*
X3179229Y-12175698D02*
X3064943Y-12289984D01*
X3064943Y-12289984D02*
X3188753Y-12289984D01*
X3312562Y-12089984D02*
X3331610Y-12089984D01*
X3331610Y-12089984D02*
X3350658Y-12099508D01*
X3350658Y-12099508D02*
X3360182Y-12109031D01*
X3360182Y-12109031D02*
X3369705Y-12128079D01*
X3369705Y-12128079D02*
X3379229Y-12166174D01*
X3379229Y-12166174D02*
X3379229Y-12213793D01*
X3379229Y-12213793D02*
X3369705Y-12251888D01*
X3369705Y-12251888D02*
X3360182Y-12270936D01*
X3360182Y-12270936D02*
X3350658Y-12280460D01*
X3350658Y-12280460D02*
X3331610Y-12289984D01*
X3331610Y-12289984D02*
X3312562Y-12289984D01*
X3312562Y-12289984D02*
X3293515Y-12280460D01*
X3293515Y-12280460D02*
X3283991Y-12270936D01*
X3283991Y-12270936D02*
X3274467Y-12251888D01*
X3274467Y-12251888D02*
X3264943Y-12213793D01*
X3264943Y-12213793D02*
X3264943Y-12166174D01*
X3264943Y-12166174D02*
X3274467Y-12128079D01*
X3274467Y-12128079D02*
X3283991Y-12109031D01*
X3283991Y-12109031D02*
X3293515Y-12099508D01*
X3293515Y-12099508D02*
X3312562Y-12089984D01*
X3503039Y-12089984D02*
X3522086Y-12089984D01*
X3522086Y-12089984D02*
X3541134Y-12099508D01*
X3541134Y-12099508D02*
X3550658Y-12109031D01*
X3550658Y-12109031D02*
X3560182Y-12128079D01*
X3560182Y-12128079D02*
X3569705Y-12166174D01*
X3569705Y-12166174D02*
X3569705Y-12213793D01*
X3569705Y-12213793D02*
X3560182Y-12251888D01*
X3560182Y-12251888D02*
X3550658Y-12270936D01*
X3550658Y-12270936D02*
X3541134Y-12280460D01*
X3541134Y-12280460D02*
X3522086Y-12289984D01*
X3522086Y-12289984D02*
X3503039Y-12289984D01*
X3503039Y-12289984D02*
X3483991Y-12280460D01*
X3483991Y-12280460D02*
X3474467Y-12270936D01*
X3474467Y-12270936D02*
X3464943Y-12251888D01*
X3464943Y-12251888D02*
X3455420Y-12213793D01*
X3455420Y-12213793D02*
X3455420Y-12166174D01*
X3455420Y-12166174D02*
X3464943Y-12128079D01*
X3464943Y-12128079D02*
X3474467Y-12109031D01*
X3474467Y-12109031D02*
X3483991Y-12099508D01*
X3483991Y-12099508D02*
X3503039Y-12089984D01*
X3655420Y-12289984D02*
X3655420Y-12156650D01*
X3655420Y-12175698D02*
X3664943Y-12166174D01*
X3664943Y-12166174D02*
X3683991Y-12156650D01*
X3683991Y-12156650D02*
X3712563Y-12156650D01*
X3712563Y-12156650D02*
X3731610Y-12166174D01*
X3731610Y-12166174D02*
X3741134Y-12185222D01*
X3741134Y-12185222D02*
X3741134Y-12289984D01*
X3741134Y-12185222D02*
X3750658Y-12166174D01*
X3750658Y-12166174D02*
X3769705Y-12156650D01*
X3769705Y-12156650D02*
X3798277Y-12156650D01*
X3798277Y-12156650D02*
X3817324Y-12166174D01*
X3817324Y-12166174D02*
X3826848Y-12185222D01*
X3826848Y-12185222D02*
X3826848Y-12289984D01*
X3922086Y-12289984D02*
X3922086Y-12156650D01*
X3922086Y-12175698D02*
X3931610Y-12166174D01*
X3931610Y-12166174D02*
X3950658Y-12156650D01*
X3950658Y-12156650D02*
X3979229Y-12156650D01*
X3979229Y-12156650D02*
X3998277Y-12166174D01*
X3998277Y-12166174D02*
X4007801Y-12185222D01*
X4007801Y-12185222D02*
X4007801Y-12289984D01*
X4007801Y-12185222D02*
X4017324Y-12166174D01*
X4017324Y-12166174D02*
X4036372Y-12156650D01*
X4036372Y-12156650D02*
X4064943Y-12156650D01*
X4064943Y-12156650D02*
X4083991Y-12166174D01*
X4083991Y-12166174D02*
X4093515Y-12185222D01*
X4093515Y-12185222D02*
X4093515Y-12289984D01*
X4483991Y-12080460D02*
X4312563Y-12337603D01*
X4741134Y-12089984D02*
X4760182Y-12089984D01*
X4760182Y-12089984D02*
X4779229Y-12099508D01*
X4779229Y-12099508D02*
X4788753Y-12109031D01*
X4788753Y-12109031D02*
X4798277Y-12128079D01*
X4798277Y-12128079D02*
X4807801Y-12166174D01*
X4807801Y-12166174D02*
X4807801Y-12213793D01*
X4807801Y-12213793D02*
X4798277Y-12251888D01*
X4798277Y-12251888D02*
X4788753Y-12270936D01*
X4788753Y-12270936D02*
X4779229Y-12280460D01*
X4779229Y-12280460D02*
X4760182Y-12289984D01*
X4760182Y-12289984D02*
X4741134Y-12289984D01*
X4741134Y-12289984D02*
X4722087Y-12280460D01*
X4722087Y-12280460D02*
X4712563Y-12270936D01*
X4712563Y-12270936D02*
X4703039Y-12251888D01*
X4703039Y-12251888D02*
X4693515Y-12213793D01*
X4693515Y-12213793D02*
X4693515Y-12166174D01*
X4693515Y-12166174D02*
X4703039Y-12128079D01*
X4703039Y-12128079D02*
X4712563Y-12109031D01*
X4712563Y-12109031D02*
X4722087Y-12099508D01*
X4722087Y-12099508D02*
X4741134Y-12089984D01*
X4893515Y-12270936D02*
X4903039Y-12280460D01*
X4903039Y-12280460D02*
X4893515Y-12289984D01*
X4893515Y-12289984D02*
X4883991Y-12280460D01*
X4883991Y-12280460D02*
X4893515Y-12270936D01*
X4893515Y-12270936D02*
X4893515Y-12289984D01*
X5093515Y-12289984D02*
X4979229Y-12289984D01*
X5036372Y-12289984D02*
X5036372Y-12089984D01*
X5036372Y-12089984D02*
X5017325Y-12118555D01*
X5017325Y-12118555D02*
X4998277Y-12137603D01*
X4998277Y-12137603D02*
X4979229Y-12147127D01*
X5169706Y-12109031D02*
X5179229Y-12099508D01*
X5179229Y-12099508D02*
X5198277Y-12089984D01*
X5198277Y-12089984D02*
X5245896Y-12089984D01*
X5245896Y-12089984D02*
X5264944Y-12099508D01*
X5264944Y-12099508D02*
X5274468Y-12109031D01*
X5274468Y-12109031D02*
X5283991Y-12128079D01*
X5283991Y-12128079D02*
X5283991Y-12147127D01*
X5283991Y-12147127D02*
X5274468Y-12175698D01*
X5274468Y-12175698D02*
X5160182Y-12289984D01*
X5160182Y-12289984D02*
X5283991Y-12289984D01*
X5455420Y-12089984D02*
X5417325Y-12089984D01*
X5417325Y-12089984D02*
X5398277Y-12099508D01*
X5398277Y-12099508D02*
X5388753Y-12109031D01*
X5388753Y-12109031D02*
X5369706Y-12137603D01*
X5369706Y-12137603D02*
X5360182Y-12175698D01*
X5360182Y-12175698D02*
X5360182Y-12251888D01*
X5360182Y-12251888D02*
X5369706Y-12270936D01*
X5369706Y-12270936D02*
X5379229Y-12280460D01*
X5379229Y-12280460D02*
X5398277Y-12289984D01*
X5398277Y-12289984D02*
X5436372Y-12289984D01*
X5436372Y-12289984D02*
X5455420Y-12280460D01*
X5455420Y-12280460D02*
X5464944Y-12270936D01*
X5464944Y-12270936D02*
X5474468Y-12251888D01*
X5474468Y-12251888D02*
X5474468Y-12204269D01*
X5474468Y-12204269D02*
X5464944Y-12185222D01*
X5464944Y-12185222D02*
X5455420Y-12175698D01*
X5455420Y-12175698D02*
X5436372Y-12166174D01*
X5436372Y-12166174D02*
X5398277Y-12166174D01*
X5398277Y-12166174D02*
X5379229Y-12175698D01*
X5379229Y-12175698D02*
X5369706Y-12185222D01*
X5369706Y-12185222D02*
X5360182Y-12204269D01*
X5598277Y-12089984D02*
X5617325Y-12089984D01*
X5617325Y-12089984D02*
X5636372Y-12099508D01*
X5636372Y-12099508D02*
X5645896Y-12109031D01*
X5645896Y-12109031D02*
X5655420Y-12128079D01*
X5655420Y-12128079D02*
X5664944Y-12166174D01*
X5664944Y-12166174D02*
X5664944Y-12213793D01*
X5664944Y-12213793D02*
X5655420Y-12251888D01*
X5655420Y-12251888D02*
X5645896Y-12270936D01*
X5645896Y-12270936D02*
X5636372Y-12280460D01*
X5636372Y-12280460D02*
X5617325Y-12289984D01*
X5617325Y-12289984D02*
X5598277Y-12289984D01*
X5598277Y-12289984D02*
X5579229Y-12280460D01*
X5579229Y-12280460D02*
X5569706Y-12270936D01*
X5569706Y-12270936D02*
X5560182Y-12251888D01*
X5560182Y-12251888D02*
X5550658Y-12213793D01*
X5550658Y-12213793D02*
X5550658Y-12166174D01*
X5550658Y-12166174D02*
X5560182Y-12128079D01*
X5560182Y-12128079D02*
X5569706Y-12109031D01*
X5569706Y-12109031D02*
X5579229Y-12099508D01*
X5579229Y-12099508D02*
X5598277Y-12089984D01*
X5741134Y-12089984D02*
X5741134Y-12128079D01*
X5817325Y-12089984D02*
X5817325Y-12128079D01*
X6112563Y-12366174D02*
X6103039Y-12356650D01*
X6103039Y-12356650D02*
X6083991Y-12328079D01*
X6083991Y-12328079D02*
X6074468Y-12309031D01*
X6074468Y-12309031D02*
X6064944Y-12280460D01*
X6064944Y-12280460D02*
X6055420Y-12232841D01*
X6055420Y-12232841D02*
X6055420Y-12194746D01*
X6055420Y-12194746D02*
X6064944Y-12147127D01*
X6064944Y-12147127D02*
X6074468Y-12118555D01*
X6074468Y-12118555D02*
X6083991Y-12099508D01*
X6083991Y-12099508D02*
X6103039Y-12070936D01*
X6103039Y-12070936D02*
X6112563Y-12061412D01*
X6179229Y-12109031D02*
X6188753Y-12099508D01*
X6188753Y-12099508D02*
X6207801Y-12089984D01*
X6207801Y-12089984D02*
X6255420Y-12089984D01*
X6255420Y-12089984D02*
X6274468Y-12099508D01*
X6274468Y-12099508D02*
X6283991Y-12109031D01*
X6283991Y-12109031D02*
X6293515Y-12128079D01*
X6293515Y-12128079D02*
X6293515Y-12147127D01*
X6293515Y-12147127D02*
X6283991Y-12175698D01*
X6283991Y-12175698D02*
X6169706Y-12289984D01*
X6169706Y-12289984D02*
X6293515Y-12289984D01*
X6531610Y-12289984D02*
X6531610Y-12089984D01*
X6617325Y-12289984D02*
X6617325Y-12185222D01*
X6617325Y-12185222D02*
X6607801Y-12166174D01*
X6607801Y-12166174D02*
X6588753Y-12156650D01*
X6588753Y-12156650D02*
X6560182Y-12156650D01*
X6560182Y-12156650D02*
X6541134Y-12166174D01*
X6541134Y-12166174D02*
X6531610Y-12175698D01*
X6741134Y-12289984D02*
X6722087Y-12280460D01*
X6722087Y-12280460D02*
X6712563Y-12270936D01*
X6712563Y-12270936D02*
X6703039Y-12251888D01*
X6703039Y-12251888D02*
X6703039Y-12194746D01*
X6703039Y-12194746D02*
X6712563Y-12175698D01*
X6712563Y-12175698D02*
X6722087Y-12166174D01*
X6722087Y-12166174D02*
X6741134Y-12156650D01*
X6741134Y-12156650D02*
X6769706Y-12156650D01*
X6769706Y-12156650D02*
X6788753Y-12166174D01*
X6788753Y-12166174D02*
X6798277Y-12175698D01*
X6798277Y-12175698D02*
X6807801Y-12194746D01*
X6807801Y-12194746D02*
X6807801Y-12251888D01*
X6807801Y-12251888D02*
X6798277Y-12270936D01*
X6798277Y-12270936D02*
X6788753Y-12280460D01*
X6788753Y-12280460D02*
X6769706Y-12289984D01*
X6769706Y-12289984D02*
X6741134Y-12289984D01*
X6922087Y-12289984D02*
X6903039Y-12280460D01*
X6903039Y-12280460D02*
X6893515Y-12261412D01*
X6893515Y-12261412D02*
X6893515Y-12089984D01*
X7074468Y-12280460D02*
X7055420Y-12289984D01*
X7055420Y-12289984D02*
X7017325Y-12289984D01*
X7017325Y-12289984D02*
X6998277Y-12280460D01*
X6998277Y-12280460D02*
X6988753Y-12261412D01*
X6988753Y-12261412D02*
X6988753Y-12185222D01*
X6988753Y-12185222D02*
X6998277Y-12166174D01*
X6998277Y-12166174D02*
X7017325Y-12156650D01*
X7017325Y-12156650D02*
X7055420Y-12156650D01*
X7055420Y-12156650D02*
X7074468Y-12166174D01*
X7074468Y-12166174D02*
X7083991Y-12185222D01*
X7083991Y-12185222D02*
X7083991Y-12204269D01*
X7083991Y-12204269D02*
X6988753Y-12223317D01*
X7160182Y-12280460D02*
X7179230Y-12289984D01*
X7179230Y-12289984D02*
X7217325Y-12289984D01*
X7217325Y-12289984D02*
X7236372Y-12280460D01*
X7236372Y-12280460D02*
X7245896Y-12261412D01*
X7245896Y-12261412D02*
X7245896Y-12251888D01*
X7245896Y-12251888D02*
X7236372Y-12232841D01*
X7236372Y-12232841D02*
X7217325Y-12223317D01*
X7217325Y-12223317D02*
X7188753Y-12223317D01*
X7188753Y-12223317D02*
X7169706Y-12213793D01*
X7169706Y-12213793D02*
X7160182Y-12194746D01*
X7160182Y-12194746D02*
X7160182Y-12185222D01*
X7160182Y-12185222D02*
X7169706Y-12166174D01*
X7169706Y-12166174D02*
X7188753Y-12156650D01*
X7188753Y-12156650D02*
X7217325Y-12156650D01*
X7217325Y-12156650D02*
X7236372Y-12166174D01*
X7312563Y-12366174D02*
X7322087Y-12356650D01*
X7322087Y-12356650D02*
X7341134Y-12328079D01*
X7341134Y-12328079D02*
X7350658Y-12309031D01*
X7350658Y-12309031D02*
X7360182Y-12280460D01*
X7360182Y-12280460D02*
X7369706Y-12232841D01*
X7369706Y-12232841D02*
X7369706Y-12194746D01*
X7369706Y-12194746D02*
X7360182Y-12147127D01*
X7360182Y-12147127D02*
X7350658Y-12118555D01*
X7350658Y-12118555D02*
X7341134Y-12099508D01*
X7341134Y-12099508D02*
X7322087Y-12070936D01*
X7322087Y-12070936D02*
X7312563Y-12061412D01*
M02*
