%TF.GenerationSoftware,KiCad,Pcbnew,7.0.6*%
%TF.CreationDate,2023-08-12T10:13:32+02:00*%
%TF.ProjectId,ps2_mouse_to_serial_port_adapter_stand_alone,7073325f-6d6f-4757-9365-5f746f5f7365,rev?*%
%TF.SameCoordinates,Original*%
%TF.FileFunction,Legend,Top*%
%TF.FilePolarity,Positive*%
%FSLAX46Y46*%
G04 Gerber Fmt 4.6, Leading zero omitted, Abs format (unit mm)*
G04 Created by KiCad (PCBNEW 7.0.6) date 2023-08-12 10:13:32*
%MOMM*%
%LPD*%
G01*
G04 APERTURE LIST*
%ADD10C,0.100000*%
%ADD11C,0.150000*%
%ADD12C,0.203200*%
%ADD13C,0.152400*%
%ADD14C,0.120000*%
%ADD15C,0.381000*%
%ADD16C,4.000500*%
%ADD17C,1.371600*%
G04 APERTURE END LIST*
D10*
X31871650Y-27725405D02*
X31871650Y-26725405D01*
X31871650Y-26725405D02*
X32252602Y-26725405D01*
X32252602Y-26725405D02*
X32347840Y-26773024D01*
X32347840Y-26773024D02*
X32395459Y-26820643D01*
X32395459Y-26820643D02*
X32443078Y-26915881D01*
X32443078Y-26915881D02*
X32443078Y-27058738D01*
X32443078Y-27058738D02*
X32395459Y-27153976D01*
X32395459Y-27153976D02*
X32347840Y-27201595D01*
X32347840Y-27201595D02*
X32252602Y-27249214D01*
X32252602Y-27249214D02*
X31871650Y-27249214D01*
X32824031Y-27677786D02*
X32966888Y-27725405D01*
X32966888Y-27725405D02*
X33204983Y-27725405D01*
X33204983Y-27725405D02*
X33300221Y-27677786D01*
X33300221Y-27677786D02*
X33347840Y-27630166D01*
X33347840Y-27630166D02*
X33395459Y-27534928D01*
X33395459Y-27534928D02*
X33395459Y-27439690D01*
X33395459Y-27439690D02*
X33347840Y-27344452D01*
X33347840Y-27344452D02*
X33300221Y-27296833D01*
X33300221Y-27296833D02*
X33204983Y-27249214D01*
X33204983Y-27249214D02*
X33014507Y-27201595D01*
X33014507Y-27201595D02*
X32919269Y-27153976D01*
X32919269Y-27153976D02*
X32871650Y-27106357D01*
X32871650Y-27106357D02*
X32824031Y-27011119D01*
X32824031Y-27011119D02*
X32824031Y-26915881D01*
X32824031Y-26915881D02*
X32871650Y-26820643D01*
X32871650Y-26820643D02*
X32919269Y-26773024D01*
X32919269Y-26773024D02*
X33014507Y-26725405D01*
X33014507Y-26725405D02*
X33252602Y-26725405D01*
X33252602Y-26725405D02*
X33395459Y-26773024D01*
X34538316Y-26677786D02*
X33681174Y-27963500D01*
X34824031Y-26820643D02*
X34871650Y-26773024D01*
X34871650Y-26773024D02*
X34966888Y-26725405D01*
X34966888Y-26725405D02*
X35204983Y-26725405D01*
X35204983Y-26725405D02*
X35300221Y-26773024D01*
X35300221Y-26773024D02*
X35347840Y-26820643D01*
X35347840Y-26820643D02*
X35395459Y-26915881D01*
X35395459Y-26915881D02*
X35395459Y-27011119D01*
X35395459Y-27011119D02*
X35347840Y-27153976D01*
X35347840Y-27153976D02*
X34776412Y-27725405D01*
X34776412Y-27725405D02*
X35395459Y-27725405D01*
X36585936Y-27725405D02*
X36585936Y-27058738D01*
X36585936Y-27153976D02*
X36633555Y-27106357D01*
X36633555Y-27106357D02*
X36728793Y-27058738D01*
X36728793Y-27058738D02*
X36871650Y-27058738D01*
X36871650Y-27058738D02*
X36966888Y-27106357D01*
X36966888Y-27106357D02*
X37014507Y-27201595D01*
X37014507Y-27201595D02*
X37014507Y-27725405D01*
X37014507Y-27201595D02*
X37062126Y-27106357D01*
X37062126Y-27106357D02*
X37157364Y-27058738D01*
X37157364Y-27058738D02*
X37300221Y-27058738D01*
X37300221Y-27058738D02*
X37395460Y-27106357D01*
X37395460Y-27106357D02*
X37443079Y-27201595D01*
X37443079Y-27201595D02*
X37443079Y-27725405D01*
X38062126Y-27725405D02*
X37966888Y-27677786D01*
X37966888Y-27677786D02*
X37919269Y-27630166D01*
X37919269Y-27630166D02*
X37871650Y-27534928D01*
X37871650Y-27534928D02*
X37871650Y-27249214D01*
X37871650Y-27249214D02*
X37919269Y-27153976D01*
X37919269Y-27153976D02*
X37966888Y-27106357D01*
X37966888Y-27106357D02*
X38062126Y-27058738D01*
X38062126Y-27058738D02*
X38204983Y-27058738D01*
X38204983Y-27058738D02*
X38300221Y-27106357D01*
X38300221Y-27106357D02*
X38347840Y-27153976D01*
X38347840Y-27153976D02*
X38395459Y-27249214D01*
X38395459Y-27249214D02*
X38395459Y-27534928D01*
X38395459Y-27534928D02*
X38347840Y-27630166D01*
X38347840Y-27630166D02*
X38300221Y-27677786D01*
X38300221Y-27677786D02*
X38204983Y-27725405D01*
X38204983Y-27725405D02*
X38062126Y-27725405D01*
X39252602Y-27058738D02*
X39252602Y-27725405D01*
X38824031Y-27058738D02*
X38824031Y-27582547D01*
X38824031Y-27582547D02*
X38871650Y-27677786D01*
X38871650Y-27677786D02*
X38966888Y-27725405D01*
X38966888Y-27725405D02*
X39109745Y-27725405D01*
X39109745Y-27725405D02*
X39204983Y-27677786D01*
X39204983Y-27677786D02*
X39252602Y-27630166D01*
X39681174Y-27677786D02*
X39776412Y-27725405D01*
X39776412Y-27725405D02*
X39966888Y-27725405D01*
X39966888Y-27725405D02*
X40062126Y-27677786D01*
X40062126Y-27677786D02*
X40109745Y-27582547D01*
X40109745Y-27582547D02*
X40109745Y-27534928D01*
X40109745Y-27534928D02*
X40062126Y-27439690D01*
X40062126Y-27439690D02*
X39966888Y-27392071D01*
X39966888Y-27392071D02*
X39824031Y-27392071D01*
X39824031Y-27392071D02*
X39728793Y-27344452D01*
X39728793Y-27344452D02*
X39681174Y-27249214D01*
X39681174Y-27249214D02*
X39681174Y-27201595D01*
X39681174Y-27201595D02*
X39728793Y-27106357D01*
X39728793Y-27106357D02*
X39824031Y-27058738D01*
X39824031Y-27058738D02*
X39966888Y-27058738D01*
X39966888Y-27058738D02*
X40062126Y-27106357D01*
X40919269Y-27677786D02*
X40824031Y-27725405D01*
X40824031Y-27725405D02*
X40633555Y-27725405D01*
X40633555Y-27725405D02*
X40538317Y-27677786D01*
X40538317Y-27677786D02*
X40490698Y-27582547D01*
X40490698Y-27582547D02*
X40490698Y-27201595D01*
X40490698Y-27201595D02*
X40538317Y-27106357D01*
X40538317Y-27106357D02*
X40633555Y-27058738D01*
X40633555Y-27058738D02*
X40824031Y-27058738D01*
X40824031Y-27058738D02*
X40919269Y-27106357D01*
X40919269Y-27106357D02*
X40966888Y-27201595D01*
X40966888Y-27201595D02*
X40966888Y-27296833D01*
X40966888Y-27296833D02*
X40490698Y-27392071D01*
X42014508Y-27058738D02*
X42395460Y-27058738D01*
X42157365Y-26725405D02*
X42157365Y-27582547D01*
X42157365Y-27582547D02*
X42204984Y-27677786D01*
X42204984Y-27677786D02*
X42300222Y-27725405D01*
X42300222Y-27725405D02*
X42395460Y-27725405D01*
X42871651Y-27725405D02*
X42776413Y-27677786D01*
X42776413Y-27677786D02*
X42728794Y-27630166D01*
X42728794Y-27630166D02*
X42681175Y-27534928D01*
X42681175Y-27534928D02*
X42681175Y-27249214D01*
X42681175Y-27249214D02*
X42728794Y-27153976D01*
X42728794Y-27153976D02*
X42776413Y-27106357D01*
X42776413Y-27106357D02*
X42871651Y-27058738D01*
X42871651Y-27058738D02*
X43014508Y-27058738D01*
X43014508Y-27058738D02*
X43109746Y-27106357D01*
X43109746Y-27106357D02*
X43157365Y-27153976D01*
X43157365Y-27153976D02*
X43204984Y-27249214D01*
X43204984Y-27249214D02*
X43204984Y-27534928D01*
X43204984Y-27534928D02*
X43157365Y-27630166D01*
X43157365Y-27630166D02*
X43109746Y-27677786D01*
X43109746Y-27677786D02*
X43014508Y-27725405D01*
X43014508Y-27725405D02*
X42871651Y-27725405D01*
X44347842Y-27677786D02*
X44443080Y-27725405D01*
X44443080Y-27725405D02*
X44633556Y-27725405D01*
X44633556Y-27725405D02*
X44728794Y-27677786D01*
X44728794Y-27677786D02*
X44776413Y-27582547D01*
X44776413Y-27582547D02*
X44776413Y-27534928D01*
X44776413Y-27534928D02*
X44728794Y-27439690D01*
X44728794Y-27439690D02*
X44633556Y-27392071D01*
X44633556Y-27392071D02*
X44490699Y-27392071D01*
X44490699Y-27392071D02*
X44395461Y-27344452D01*
X44395461Y-27344452D02*
X44347842Y-27249214D01*
X44347842Y-27249214D02*
X44347842Y-27201595D01*
X44347842Y-27201595D02*
X44395461Y-27106357D01*
X44395461Y-27106357D02*
X44490699Y-27058738D01*
X44490699Y-27058738D02*
X44633556Y-27058738D01*
X44633556Y-27058738D02*
X44728794Y-27106357D01*
X45585937Y-27677786D02*
X45490699Y-27725405D01*
X45490699Y-27725405D02*
X45300223Y-27725405D01*
X45300223Y-27725405D02*
X45204985Y-27677786D01*
X45204985Y-27677786D02*
X45157366Y-27582547D01*
X45157366Y-27582547D02*
X45157366Y-27201595D01*
X45157366Y-27201595D02*
X45204985Y-27106357D01*
X45204985Y-27106357D02*
X45300223Y-27058738D01*
X45300223Y-27058738D02*
X45490699Y-27058738D01*
X45490699Y-27058738D02*
X45585937Y-27106357D01*
X45585937Y-27106357D02*
X45633556Y-27201595D01*
X45633556Y-27201595D02*
X45633556Y-27296833D01*
X45633556Y-27296833D02*
X45157366Y-27392071D01*
X46062128Y-27725405D02*
X46062128Y-27058738D01*
X46062128Y-27249214D02*
X46109747Y-27153976D01*
X46109747Y-27153976D02*
X46157366Y-27106357D01*
X46157366Y-27106357D02*
X46252604Y-27058738D01*
X46252604Y-27058738D02*
X46347842Y-27058738D01*
X46681176Y-27725405D02*
X46681176Y-27058738D01*
X46681176Y-26725405D02*
X46633557Y-26773024D01*
X46633557Y-26773024D02*
X46681176Y-26820643D01*
X46681176Y-26820643D02*
X46728795Y-26773024D01*
X46728795Y-26773024D02*
X46681176Y-26725405D01*
X46681176Y-26725405D02*
X46681176Y-26820643D01*
X47585937Y-27725405D02*
X47585937Y-27201595D01*
X47585937Y-27201595D02*
X47538318Y-27106357D01*
X47538318Y-27106357D02*
X47443080Y-27058738D01*
X47443080Y-27058738D02*
X47252604Y-27058738D01*
X47252604Y-27058738D02*
X47157366Y-27106357D01*
X47585937Y-27677786D02*
X47490699Y-27725405D01*
X47490699Y-27725405D02*
X47252604Y-27725405D01*
X47252604Y-27725405D02*
X47157366Y-27677786D01*
X47157366Y-27677786D02*
X47109747Y-27582547D01*
X47109747Y-27582547D02*
X47109747Y-27487309D01*
X47109747Y-27487309D02*
X47157366Y-27392071D01*
X47157366Y-27392071D02*
X47252604Y-27344452D01*
X47252604Y-27344452D02*
X47490699Y-27344452D01*
X47490699Y-27344452D02*
X47585937Y-27296833D01*
X48204985Y-27725405D02*
X48109747Y-27677786D01*
X48109747Y-27677786D02*
X48062128Y-27582547D01*
X48062128Y-27582547D02*
X48062128Y-26725405D01*
X49347843Y-27058738D02*
X49347843Y-28058738D01*
X49347843Y-27106357D02*
X49443081Y-27058738D01*
X49443081Y-27058738D02*
X49633557Y-27058738D01*
X49633557Y-27058738D02*
X49728795Y-27106357D01*
X49728795Y-27106357D02*
X49776414Y-27153976D01*
X49776414Y-27153976D02*
X49824033Y-27249214D01*
X49824033Y-27249214D02*
X49824033Y-27534928D01*
X49824033Y-27534928D02*
X49776414Y-27630166D01*
X49776414Y-27630166D02*
X49728795Y-27677786D01*
X49728795Y-27677786D02*
X49633557Y-27725405D01*
X49633557Y-27725405D02*
X49443081Y-27725405D01*
X49443081Y-27725405D02*
X49347843Y-27677786D01*
X50395462Y-27725405D02*
X50300224Y-27677786D01*
X50300224Y-27677786D02*
X50252605Y-27630166D01*
X50252605Y-27630166D02*
X50204986Y-27534928D01*
X50204986Y-27534928D02*
X50204986Y-27249214D01*
X50204986Y-27249214D02*
X50252605Y-27153976D01*
X50252605Y-27153976D02*
X50300224Y-27106357D01*
X50300224Y-27106357D02*
X50395462Y-27058738D01*
X50395462Y-27058738D02*
X50538319Y-27058738D01*
X50538319Y-27058738D02*
X50633557Y-27106357D01*
X50633557Y-27106357D02*
X50681176Y-27153976D01*
X50681176Y-27153976D02*
X50728795Y-27249214D01*
X50728795Y-27249214D02*
X50728795Y-27534928D01*
X50728795Y-27534928D02*
X50681176Y-27630166D01*
X50681176Y-27630166D02*
X50633557Y-27677786D01*
X50633557Y-27677786D02*
X50538319Y-27725405D01*
X50538319Y-27725405D02*
X50395462Y-27725405D01*
X51157367Y-27725405D02*
X51157367Y-27058738D01*
X51157367Y-27249214D02*
X51204986Y-27153976D01*
X51204986Y-27153976D02*
X51252605Y-27106357D01*
X51252605Y-27106357D02*
X51347843Y-27058738D01*
X51347843Y-27058738D02*
X51443081Y-27058738D01*
X51633558Y-27058738D02*
X52014510Y-27058738D01*
X51776415Y-26725405D02*
X51776415Y-27582547D01*
X51776415Y-27582547D02*
X51824034Y-27677786D01*
X51824034Y-27677786D02*
X51919272Y-27725405D01*
X51919272Y-27725405D02*
X52014510Y-27725405D01*
X53538320Y-27725405D02*
X53538320Y-27201595D01*
X53538320Y-27201595D02*
X53490701Y-27106357D01*
X53490701Y-27106357D02*
X53395463Y-27058738D01*
X53395463Y-27058738D02*
X53204987Y-27058738D01*
X53204987Y-27058738D02*
X53109749Y-27106357D01*
X53538320Y-27677786D02*
X53443082Y-27725405D01*
X53443082Y-27725405D02*
X53204987Y-27725405D01*
X53204987Y-27725405D02*
X53109749Y-27677786D01*
X53109749Y-27677786D02*
X53062130Y-27582547D01*
X53062130Y-27582547D02*
X53062130Y-27487309D01*
X53062130Y-27487309D02*
X53109749Y-27392071D01*
X53109749Y-27392071D02*
X53204987Y-27344452D01*
X53204987Y-27344452D02*
X53443082Y-27344452D01*
X53443082Y-27344452D02*
X53538320Y-27296833D01*
X54443082Y-27725405D02*
X54443082Y-26725405D01*
X54443082Y-27677786D02*
X54347844Y-27725405D01*
X54347844Y-27725405D02*
X54157368Y-27725405D01*
X54157368Y-27725405D02*
X54062130Y-27677786D01*
X54062130Y-27677786D02*
X54014511Y-27630166D01*
X54014511Y-27630166D02*
X53966892Y-27534928D01*
X53966892Y-27534928D02*
X53966892Y-27249214D01*
X53966892Y-27249214D02*
X54014511Y-27153976D01*
X54014511Y-27153976D02*
X54062130Y-27106357D01*
X54062130Y-27106357D02*
X54157368Y-27058738D01*
X54157368Y-27058738D02*
X54347844Y-27058738D01*
X54347844Y-27058738D02*
X54443082Y-27106357D01*
X55347844Y-27725405D02*
X55347844Y-27201595D01*
X55347844Y-27201595D02*
X55300225Y-27106357D01*
X55300225Y-27106357D02*
X55204987Y-27058738D01*
X55204987Y-27058738D02*
X55014511Y-27058738D01*
X55014511Y-27058738D02*
X54919273Y-27106357D01*
X55347844Y-27677786D02*
X55252606Y-27725405D01*
X55252606Y-27725405D02*
X55014511Y-27725405D01*
X55014511Y-27725405D02*
X54919273Y-27677786D01*
X54919273Y-27677786D02*
X54871654Y-27582547D01*
X54871654Y-27582547D02*
X54871654Y-27487309D01*
X54871654Y-27487309D02*
X54919273Y-27392071D01*
X54919273Y-27392071D02*
X55014511Y-27344452D01*
X55014511Y-27344452D02*
X55252606Y-27344452D01*
X55252606Y-27344452D02*
X55347844Y-27296833D01*
X55824035Y-27058738D02*
X55824035Y-28058738D01*
X55824035Y-27106357D02*
X55919273Y-27058738D01*
X55919273Y-27058738D02*
X56109749Y-27058738D01*
X56109749Y-27058738D02*
X56204987Y-27106357D01*
X56204987Y-27106357D02*
X56252606Y-27153976D01*
X56252606Y-27153976D02*
X56300225Y-27249214D01*
X56300225Y-27249214D02*
X56300225Y-27534928D01*
X56300225Y-27534928D02*
X56252606Y-27630166D01*
X56252606Y-27630166D02*
X56204987Y-27677786D01*
X56204987Y-27677786D02*
X56109749Y-27725405D01*
X56109749Y-27725405D02*
X55919273Y-27725405D01*
X55919273Y-27725405D02*
X55824035Y-27677786D01*
X56585940Y-27058738D02*
X56966892Y-27058738D01*
X56728797Y-26725405D02*
X56728797Y-27582547D01*
X56728797Y-27582547D02*
X56776416Y-27677786D01*
X56776416Y-27677786D02*
X56871654Y-27725405D01*
X56871654Y-27725405D02*
X56966892Y-27725405D01*
X57681178Y-27677786D02*
X57585940Y-27725405D01*
X57585940Y-27725405D02*
X57395464Y-27725405D01*
X57395464Y-27725405D02*
X57300226Y-27677786D01*
X57300226Y-27677786D02*
X57252607Y-27582547D01*
X57252607Y-27582547D02*
X57252607Y-27201595D01*
X57252607Y-27201595D02*
X57300226Y-27106357D01*
X57300226Y-27106357D02*
X57395464Y-27058738D01*
X57395464Y-27058738D02*
X57585940Y-27058738D01*
X57585940Y-27058738D02*
X57681178Y-27106357D01*
X57681178Y-27106357D02*
X57728797Y-27201595D01*
X57728797Y-27201595D02*
X57728797Y-27296833D01*
X57728797Y-27296833D02*
X57252607Y-27392071D01*
X58157369Y-27725405D02*
X58157369Y-27058738D01*
X58157369Y-27249214D02*
X58204988Y-27153976D01*
X58204988Y-27153976D02*
X58252607Y-27106357D01*
X58252607Y-27106357D02*
X58347845Y-27058738D01*
X58347845Y-27058738D02*
X58443083Y-27058738D01*
X59824036Y-28058738D02*
X59585941Y-28058738D01*
X59585941Y-28058738D02*
X59585941Y-26630166D01*
X59585941Y-26630166D02*
X59824036Y-26630166D01*
X60204989Y-27725405D02*
X60204989Y-26725405D01*
X60204989Y-26725405D02*
X60585941Y-26725405D01*
X60585941Y-26725405D02*
X60681179Y-26773024D01*
X60681179Y-26773024D02*
X60728798Y-26820643D01*
X60728798Y-26820643D02*
X60776417Y-26915881D01*
X60776417Y-26915881D02*
X60776417Y-27058738D01*
X60776417Y-27058738D02*
X60728798Y-27153976D01*
X60728798Y-27153976D02*
X60681179Y-27201595D01*
X60681179Y-27201595D02*
X60585941Y-27249214D01*
X60585941Y-27249214D02*
X60204989Y-27249214D01*
X61776417Y-27630166D02*
X61728798Y-27677786D01*
X61728798Y-27677786D02*
X61585941Y-27725405D01*
X61585941Y-27725405D02*
X61490703Y-27725405D01*
X61490703Y-27725405D02*
X61347846Y-27677786D01*
X61347846Y-27677786D02*
X61252608Y-27582547D01*
X61252608Y-27582547D02*
X61204989Y-27487309D01*
X61204989Y-27487309D02*
X61157370Y-27296833D01*
X61157370Y-27296833D02*
X61157370Y-27153976D01*
X61157370Y-27153976D02*
X61204989Y-26963500D01*
X61204989Y-26963500D02*
X61252608Y-26868262D01*
X61252608Y-26868262D02*
X61347846Y-26773024D01*
X61347846Y-26773024D02*
X61490703Y-26725405D01*
X61490703Y-26725405D02*
X61585941Y-26725405D01*
X61585941Y-26725405D02*
X61728798Y-26773024D01*
X61728798Y-26773024D02*
X61776417Y-26820643D01*
X62538322Y-27201595D02*
X62681179Y-27249214D01*
X62681179Y-27249214D02*
X62728798Y-27296833D01*
X62728798Y-27296833D02*
X62776417Y-27392071D01*
X62776417Y-27392071D02*
X62776417Y-27534928D01*
X62776417Y-27534928D02*
X62728798Y-27630166D01*
X62728798Y-27630166D02*
X62681179Y-27677786D01*
X62681179Y-27677786D02*
X62585941Y-27725405D01*
X62585941Y-27725405D02*
X62204989Y-27725405D01*
X62204989Y-27725405D02*
X62204989Y-26725405D01*
X62204989Y-26725405D02*
X62538322Y-26725405D01*
X62538322Y-26725405D02*
X62633560Y-26773024D01*
X62633560Y-26773024D02*
X62681179Y-26820643D01*
X62681179Y-26820643D02*
X62728798Y-26915881D01*
X62728798Y-26915881D02*
X62728798Y-27011119D01*
X62728798Y-27011119D02*
X62681179Y-27106357D01*
X62681179Y-27106357D02*
X62633560Y-27153976D01*
X62633560Y-27153976D02*
X62538322Y-27201595D01*
X62538322Y-27201595D02*
X62204989Y-27201595D01*
X63871656Y-27058738D02*
X64109751Y-27725405D01*
X64109751Y-27725405D02*
X64347846Y-27058738D01*
X65252608Y-27725405D02*
X64681180Y-27725405D01*
X64966894Y-27725405D02*
X64966894Y-26725405D01*
X64966894Y-26725405D02*
X64871656Y-26868262D01*
X64871656Y-26868262D02*
X64776418Y-26963500D01*
X64776418Y-26963500D02*
X64681180Y-27011119D01*
X65681180Y-27630166D02*
X65728799Y-27677786D01*
X65728799Y-27677786D02*
X65681180Y-27725405D01*
X65681180Y-27725405D02*
X65633561Y-27677786D01*
X65633561Y-27677786D02*
X65681180Y-27630166D01*
X65681180Y-27630166D02*
X65681180Y-27725405D01*
X66681179Y-27725405D02*
X66109751Y-27725405D01*
X66395465Y-27725405D02*
X66395465Y-26725405D01*
X66395465Y-26725405D02*
X66300227Y-26868262D01*
X66300227Y-26868262D02*
X66204989Y-26963500D01*
X66204989Y-26963500D02*
X66109751Y-27011119D01*
X67109751Y-27630166D02*
X67157370Y-27677786D01*
X67157370Y-27677786D02*
X67109751Y-27725405D01*
X67109751Y-27725405D02*
X67062132Y-27677786D01*
X67062132Y-27677786D02*
X67109751Y-27630166D01*
X67109751Y-27630166D02*
X67109751Y-27725405D01*
X67776417Y-26725405D02*
X67871655Y-26725405D01*
X67871655Y-26725405D02*
X67966893Y-26773024D01*
X67966893Y-26773024D02*
X68014512Y-26820643D01*
X68014512Y-26820643D02*
X68062131Y-26915881D01*
X68062131Y-26915881D02*
X68109750Y-27106357D01*
X68109750Y-27106357D02*
X68109750Y-27344452D01*
X68109750Y-27344452D02*
X68062131Y-27534928D01*
X68062131Y-27534928D02*
X68014512Y-27630166D01*
X68014512Y-27630166D02*
X67966893Y-27677786D01*
X67966893Y-27677786D02*
X67871655Y-27725405D01*
X67871655Y-27725405D02*
X67776417Y-27725405D01*
X67776417Y-27725405D02*
X67681179Y-27677786D01*
X67681179Y-27677786D02*
X67633560Y-27630166D01*
X67633560Y-27630166D02*
X67585941Y-27534928D01*
X67585941Y-27534928D02*
X67538322Y-27344452D01*
X67538322Y-27344452D02*
X67538322Y-27106357D01*
X67538322Y-27106357D02*
X67585941Y-26915881D01*
X67585941Y-26915881D02*
X67633560Y-26820643D01*
X67633560Y-26820643D02*
X67681179Y-26773024D01*
X67681179Y-26773024D02*
X67776417Y-26725405D01*
X68443084Y-28058738D02*
X68681179Y-28058738D01*
X68681179Y-28058738D02*
X68681179Y-26630166D01*
X68681179Y-26630166D02*
X68443084Y-26630166D01*
X32157364Y-29716357D02*
X32109745Y-29668738D01*
X32109745Y-29668738D02*
X32014507Y-29525881D01*
X32014507Y-29525881D02*
X31966888Y-29430643D01*
X31966888Y-29430643D02*
X31919269Y-29287786D01*
X31919269Y-29287786D02*
X31871650Y-29049690D01*
X31871650Y-29049690D02*
X31871650Y-28859214D01*
X31871650Y-28859214D02*
X31919269Y-28621119D01*
X31919269Y-28621119D02*
X31966888Y-28478262D01*
X31966888Y-28478262D02*
X32014507Y-28383024D01*
X32014507Y-28383024D02*
X32109745Y-28240166D01*
X32109745Y-28240166D02*
X32157364Y-28192547D01*
X32966888Y-29287786D02*
X32871650Y-29335405D01*
X32871650Y-29335405D02*
X32681174Y-29335405D01*
X32681174Y-29335405D02*
X32585936Y-29287786D01*
X32585936Y-29287786D02*
X32538317Y-29240166D01*
X32538317Y-29240166D02*
X32490698Y-29144928D01*
X32490698Y-29144928D02*
X32490698Y-28859214D01*
X32490698Y-28859214D02*
X32538317Y-28763976D01*
X32538317Y-28763976D02*
X32585936Y-28716357D01*
X32585936Y-28716357D02*
X32681174Y-28668738D01*
X32681174Y-28668738D02*
X32871650Y-28668738D01*
X32871650Y-28668738D02*
X32966888Y-28716357D01*
X33300222Y-29716357D02*
X33347841Y-29668738D01*
X33347841Y-29668738D02*
X33443079Y-29525881D01*
X33443079Y-29525881D02*
X33490698Y-29430643D01*
X33490698Y-29430643D02*
X33538317Y-29287786D01*
X33538317Y-29287786D02*
X33585936Y-29049690D01*
X33585936Y-29049690D02*
X33585936Y-28859214D01*
X33585936Y-28859214D02*
X33538317Y-28621119D01*
X33538317Y-28621119D02*
X33490698Y-28478262D01*
X33490698Y-28478262D02*
X33443079Y-28383024D01*
X33443079Y-28383024D02*
X33347841Y-28240166D01*
X33347841Y-28240166D02*
X33300222Y-28192547D01*
X34014508Y-28430643D02*
X34062127Y-28383024D01*
X34062127Y-28383024D02*
X34157365Y-28335405D01*
X34157365Y-28335405D02*
X34395460Y-28335405D01*
X34395460Y-28335405D02*
X34490698Y-28383024D01*
X34490698Y-28383024D02*
X34538317Y-28430643D01*
X34538317Y-28430643D02*
X34585936Y-28525881D01*
X34585936Y-28525881D02*
X34585936Y-28621119D01*
X34585936Y-28621119D02*
X34538317Y-28763976D01*
X34538317Y-28763976D02*
X33966889Y-29335405D01*
X33966889Y-29335405D02*
X34585936Y-29335405D01*
X35204984Y-28335405D02*
X35300222Y-28335405D01*
X35300222Y-28335405D02*
X35395460Y-28383024D01*
X35395460Y-28383024D02*
X35443079Y-28430643D01*
X35443079Y-28430643D02*
X35490698Y-28525881D01*
X35490698Y-28525881D02*
X35538317Y-28716357D01*
X35538317Y-28716357D02*
X35538317Y-28954452D01*
X35538317Y-28954452D02*
X35490698Y-29144928D01*
X35490698Y-29144928D02*
X35443079Y-29240166D01*
X35443079Y-29240166D02*
X35395460Y-29287786D01*
X35395460Y-29287786D02*
X35300222Y-29335405D01*
X35300222Y-29335405D02*
X35204984Y-29335405D01*
X35204984Y-29335405D02*
X35109746Y-29287786D01*
X35109746Y-29287786D02*
X35062127Y-29240166D01*
X35062127Y-29240166D02*
X35014508Y-29144928D01*
X35014508Y-29144928D02*
X34966889Y-28954452D01*
X34966889Y-28954452D02*
X34966889Y-28716357D01*
X34966889Y-28716357D02*
X35014508Y-28525881D01*
X35014508Y-28525881D02*
X35062127Y-28430643D01*
X35062127Y-28430643D02*
X35109746Y-28383024D01*
X35109746Y-28383024D02*
X35204984Y-28335405D01*
X35919270Y-28430643D02*
X35966889Y-28383024D01*
X35966889Y-28383024D02*
X36062127Y-28335405D01*
X36062127Y-28335405D02*
X36300222Y-28335405D01*
X36300222Y-28335405D02*
X36395460Y-28383024D01*
X36395460Y-28383024D02*
X36443079Y-28430643D01*
X36443079Y-28430643D02*
X36490698Y-28525881D01*
X36490698Y-28525881D02*
X36490698Y-28621119D01*
X36490698Y-28621119D02*
X36443079Y-28763976D01*
X36443079Y-28763976D02*
X35871651Y-29335405D01*
X35871651Y-29335405D02*
X36490698Y-29335405D01*
X36824032Y-28335405D02*
X37443079Y-28335405D01*
X37443079Y-28335405D02*
X37109746Y-28716357D01*
X37109746Y-28716357D02*
X37252603Y-28716357D01*
X37252603Y-28716357D02*
X37347841Y-28763976D01*
X37347841Y-28763976D02*
X37395460Y-28811595D01*
X37395460Y-28811595D02*
X37443079Y-28906833D01*
X37443079Y-28906833D02*
X37443079Y-29144928D01*
X37443079Y-29144928D02*
X37395460Y-29240166D01*
X37395460Y-29240166D02*
X37347841Y-29287786D01*
X37347841Y-29287786D02*
X37252603Y-29335405D01*
X37252603Y-29335405D02*
X36966889Y-29335405D01*
X36966889Y-29335405D02*
X36871651Y-29287786D01*
X36871651Y-29287786D02*
X36824032Y-29240166D01*
X38633556Y-29335405D02*
X38633556Y-28335405D01*
X38633556Y-28716357D02*
X38728794Y-28668738D01*
X38728794Y-28668738D02*
X38919270Y-28668738D01*
X38919270Y-28668738D02*
X39014508Y-28716357D01*
X39014508Y-28716357D02*
X39062127Y-28763976D01*
X39062127Y-28763976D02*
X39109746Y-28859214D01*
X39109746Y-28859214D02*
X39109746Y-29144928D01*
X39109746Y-29144928D02*
X39062127Y-29240166D01*
X39062127Y-29240166D02*
X39014508Y-29287786D01*
X39014508Y-29287786D02*
X38919270Y-29335405D01*
X38919270Y-29335405D02*
X38728794Y-29335405D01*
X38728794Y-29335405D02*
X38633556Y-29287786D01*
X39443080Y-28668738D02*
X39681175Y-29335405D01*
X39919270Y-28668738D02*
X39681175Y-29335405D01*
X39681175Y-29335405D02*
X39585937Y-29573500D01*
X39585937Y-29573500D02*
X39538318Y-29621119D01*
X39538318Y-29621119D02*
X39443080Y-29668738D01*
X41633556Y-29240166D02*
X41585937Y-29287786D01*
X41585937Y-29287786D02*
X41443080Y-29335405D01*
X41443080Y-29335405D02*
X41347842Y-29335405D01*
X41347842Y-29335405D02*
X41204985Y-29287786D01*
X41204985Y-29287786D02*
X41109747Y-29192547D01*
X41109747Y-29192547D02*
X41062128Y-29097309D01*
X41062128Y-29097309D02*
X41014509Y-28906833D01*
X41014509Y-28906833D02*
X41014509Y-28763976D01*
X41014509Y-28763976D02*
X41062128Y-28573500D01*
X41062128Y-28573500D02*
X41109747Y-28478262D01*
X41109747Y-28478262D02*
X41204985Y-28383024D01*
X41204985Y-28383024D02*
X41347842Y-28335405D01*
X41347842Y-28335405D02*
X41443080Y-28335405D01*
X41443080Y-28335405D02*
X41585937Y-28383024D01*
X41585937Y-28383024D02*
X41633556Y-28430643D01*
X42443080Y-29287786D02*
X42347842Y-29335405D01*
X42347842Y-29335405D02*
X42157366Y-29335405D01*
X42157366Y-29335405D02*
X42062128Y-29287786D01*
X42062128Y-29287786D02*
X42014509Y-29192547D01*
X42014509Y-29192547D02*
X42014509Y-28811595D01*
X42014509Y-28811595D02*
X42062128Y-28716357D01*
X42062128Y-28716357D02*
X42157366Y-28668738D01*
X42157366Y-28668738D02*
X42347842Y-28668738D01*
X42347842Y-28668738D02*
X42443080Y-28716357D01*
X42443080Y-28716357D02*
X42490699Y-28811595D01*
X42490699Y-28811595D02*
X42490699Y-28906833D01*
X42490699Y-28906833D02*
X42014509Y-29002071D01*
X42871652Y-29287786D02*
X42966890Y-29335405D01*
X42966890Y-29335405D02*
X43157366Y-29335405D01*
X43157366Y-29335405D02*
X43252604Y-29287786D01*
X43252604Y-29287786D02*
X43300223Y-29192547D01*
X43300223Y-29192547D02*
X43300223Y-29144928D01*
X43300223Y-29144928D02*
X43252604Y-29049690D01*
X43252604Y-29049690D02*
X43157366Y-29002071D01*
X43157366Y-29002071D02*
X43014509Y-29002071D01*
X43014509Y-29002071D02*
X42919271Y-28954452D01*
X42919271Y-28954452D02*
X42871652Y-28859214D01*
X42871652Y-28859214D02*
X42871652Y-28811595D01*
X42871652Y-28811595D02*
X42919271Y-28716357D01*
X42919271Y-28716357D02*
X43014509Y-28668738D01*
X43014509Y-28668738D02*
X43157366Y-28668738D01*
X43157366Y-28668738D02*
X43252604Y-28716357D01*
X44157366Y-29335405D02*
X44157366Y-28811595D01*
X44157366Y-28811595D02*
X44109747Y-28716357D01*
X44109747Y-28716357D02*
X44014509Y-28668738D01*
X44014509Y-28668738D02*
X43824033Y-28668738D01*
X43824033Y-28668738D02*
X43728795Y-28716357D01*
X44157366Y-29287786D02*
X44062128Y-29335405D01*
X44062128Y-29335405D02*
X43824033Y-29335405D01*
X43824033Y-29335405D02*
X43728795Y-29287786D01*
X43728795Y-29287786D02*
X43681176Y-29192547D01*
X43681176Y-29192547D02*
X43681176Y-29097309D01*
X43681176Y-29097309D02*
X43728795Y-29002071D01*
X43728795Y-29002071D02*
X43824033Y-28954452D01*
X43824033Y-28954452D02*
X44062128Y-28954452D01*
X44062128Y-28954452D02*
X44157366Y-28906833D01*
X44633557Y-29335405D02*
X44633557Y-28668738D01*
X44633557Y-28859214D02*
X44681176Y-28763976D01*
X44681176Y-28763976D02*
X44728795Y-28716357D01*
X44728795Y-28716357D02*
X44824033Y-28668738D01*
X44824033Y-28668738D02*
X44919271Y-28668738D01*
X46585938Y-29335405D02*
X46252605Y-28859214D01*
X46014510Y-29335405D02*
X46014510Y-28335405D01*
X46014510Y-28335405D02*
X46395462Y-28335405D01*
X46395462Y-28335405D02*
X46490700Y-28383024D01*
X46490700Y-28383024D02*
X46538319Y-28430643D01*
X46538319Y-28430643D02*
X46585938Y-28525881D01*
X46585938Y-28525881D02*
X46585938Y-28668738D01*
X46585938Y-28668738D02*
X46538319Y-28763976D01*
X46538319Y-28763976D02*
X46490700Y-28811595D01*
X46490700Y-28811595D02*
X46395462Y-28859214D01*
X46395462Y-28859214D02*
X46014510Y-28859214D01*
X47014510Y-29335405D02*
X47014510Y-28668738D01*
X47014510Y-28335405D02*
X46966891Y-28383024D01*
X46966891Y-28383024D02*
X47014510Y-28430643D01*
X47014510Y-28430643D02*
X47062129Y-28383024D01*
X47062129Y-28383024D02*
X47014510Y-28335405D01*
X47014510Y-28335405D02*
X47014510Y-28430643D01*
X47490700Y-28668738D02*
X47490700Y-29335405D01*
X47490700Y-28763976D02*
X47538319Y-28716357D01*
X47538319Y-28716357D02*
X47633557Y-28668738D01*
X47633557Y-28668738D02*
X47776414Y-28668738D01*
X47776414Y-28668738D02*
X47871652Y-28716357D01*
X47871652Y-28716357D02*
X47919271Y-28811595D01*
X47919271Y-28811595D02*
X47919271Y-29335405D01*
X48824033Y-29287786D02*
X48728795Y-29335405D01*
X48728795Y-29335405D02*
X48538319Y-29335405D01*
X48538319Y-29335405D02*
X48443081Y-29287786D01*
X48443081Y-29287786D02*
X48395462Y-29240166D01*
X48395462Y-29240166D02*
X48347843Y-29144928D01*
X48347843Y-29144928D02*
X48347843Y-28859214D01*
X48347843Y-28859214D02*
X48395462Y-28763976D01*
X48395462Y-28763976D02*
X48443081Y-28716357D01*
X48443081Y-28716357D02*
X48538319Y-28668738D01*
X48538319Y-28668738D02*
X48728795Y-28668738D01*
X48728795Y-28668738D02*
X48824033Y-28716357D01*
X49395462Y-29335405D02*
X49300224Y-29287786D01*
X49300224Y-29287786D02*
X49252605Y-29240166D01*
X49252605Y-29240166D02*
X49204986Y-29144928D01*
X49204986Y-29144928D02*
X49204986Y-28859214D01*
X49204986Y-28859214D02*
X49252605Y-28763976D01*
X49252605Y-28763976D02*
X49300224Y-28716357D01*
X49300224Y-28716357D02*
X49395462Y-28668738D01*
X49395462Y-28668738D02*
X49538319Y-28668738D01*
X49538319Y-28668738D02*
X49633557Y-28716357D01*
X49633557Y-28716357D02*
X49681176Y-28763976D01*
X49681176Y-28763976D02*
X49728795Y-28859214D01*
X49728795Y-28859214D02*
X49728795Y-29144928D01*
X49728795Y-29144928D02*
X49681176Y-29240166D01*
X49681176Y-29240166D02*
X49633557Y-29287786D01*
X49633557Y-29287786D02*
X49538319Y-29335405D01*
X49538319Y-29335405D02*
X49395462Y-29335405D01*
X50157367Y-28668738D02*
X50157367Y-29335405D01*
X50157367Y-28763976D02*
X50204986Y-28716357D01*
X50204986Y-28716357D02*
X50300224Y-28668738D01*
X50300224Y-28668738D02*
X50443081Y-28668738D01*
X50443081Y-28668738D02*
X50538319Y-28716357D01*
X50538319Y-28716357D02*
X50585938Y-28811595D01*
X50585938Y-28811595D02*
X50585938Y-29335405D01*
X31871650Y-30278738D02*
X31871650Y-30945405D01*
X31871650Y-30373976D02*
X31919269Y-30326357D01*
X31919269Y-30326357D02*
X32014507Y-30278738D01*
X32014507Y-30278738D02*
X32157364Y-30278738D01*
X32157364Y-30278738D02*
X32252602Y-30326357D01*
X32252602Y-30326357D02*
X32300221Y-30421595D01*
X32300221Y-30421595D02*
X32300221Y-30945405D01*
X32776412Y-30945405D02*
X32776412Y-30278738D01*
X32776412Y-29945405D02*
X32728793Y-29993024D01*
X32728793Y-29993024D02*
X32776412Y-30040643D01*
X32776412Y-30040643D02*
X32824031Y-29993024D01*
X32824031Y-29993024D02*
X32776412Y-29945405D01*
X32776412Y-29945405D02*
X32776412Y-30040643D01*
X33681173Y-30278738D02*
X33681173Y-31088262D01*
X33681173Y-31088262D02*
X33633554Y-31183500D01*
X33633554Y-31183500D02*
X33585935Y-31231119D01*
X33585935Y-31231119D02*
X33490697Y-31278738D01*
X33490697Y-31278738D02*
X33347840Y-31278738D01*
X33347840Y-31278738D02*
X33252602Y-31231119D01*
X33681173Y-30897786D02*
X33585935Y-30945405D01*
X33585935Y-30945405D02*
X33395459Y-30945405D01*
X33395459Y-30945405D02*
X33300221Y-30897786D01*
X33300221Y-30897786D02*
X33252602Y-30850166D01*
X33252602Y-30850166D02*
X33204983Y-30754928D01*
X33204983Y-30754928D02*
X33204983Y-30469214D01*
X33204983Y-30469214D02*
X33252602Y-30373976D01*
X33252602Y-30373976D02*
X33300221Y-30326357D01*
X33300221Y-30326357D02*
X33395459Y-30278738D01*
X33395459Y-30278738D02*
X33585935Y-30278738D01*
X33585935Y-30278738D02*
X33681173Y-30326357D01*
X34157364Y-30945405D02*
X34157364Y-29945405D01*
X34585935Y-30945405D02*
X34585935Y-30421595D01*
X34585935Y-30421595D02*
X34538316Y-30326357D01*
X34538316Y-30326357D02*
X34443078Y-30278738D01*
X34443078Y-30278738D02*
X34300221Y-30278738D01*
X34300221Y-30278738D02*
X34204983Y-30326357D01*
X34204983Y-30326357D02*
X34157364Y-30373976D01*
X34919269Y-30278738D02*
X35300221Y-30278738D01*
X35062126Y-29945405D02*
X35062126Y-30802547D01*
X35062126Y-30802547D02*
X35109745Y-30897786D01*
X35109745Y-30897786D02*
X35204983Y-30945405D01*
X35204983Y-30945405D02*
X35300221Y-30945405D01*
X35490698Y-30278738D02*
X35871650Y-30278738D01*
X35633555Y-30945405D02*
X35633555Y-30088262D01*
X35633555Y-30088262D02*
X35681174Y-29993024D01*
X35681174Y-29993024D02*
X35776412Y-29945405D01*
X35776412Y-29945405D02*
X35871650Y-29945405D01*
X36347841Y-30945405D02*
X36252603Y-30897786D01*
X36252603Y-30897786D02*
X36204984Y-30850166D01*
X36204984Y-30850166D02*
X36157365Y-30754928D01*
X36157365Y-30754928D02*
X36157365Y-30469214D01*
X36157365Y-30469214D02*
X36204984Y-30373976D01*
X36204984Y-30373976D02*
X36252603Y-30326357D01*
X36252603Y-30326357D02*
X36347841Y-30278738D01*
X36347841Y-30278738D02*
X36490698Y-30278738D01*
X36490698Y-30278738D02*
X36585936Y-30326357D01*
X36585936Y-30326357D02*
X36633555Y-30373976D01*
X36633555Y-30373976D02*
X36681174Y-30469214D01*
X36681174Y-30469214D02*
X36681174Y-30754928D01*
X36681174Y-30754928D02*
X36633555Y-30850166D01*
X36633555Y-30850166D02*
X36585936Y-30897786D01*
X36585936Y-30897786D02*
X36490698Y-30945405D01*
X36490698Y-30945405D02*
X36347841Y-30945405D01*
X37014508Y-30945405D02*
X37538317Y-30278738D01*
X37014508Y-30278738D02*
X37538317Y-30945405D01*
X38347841Y-30945405D02*
X38347841Y-30421595D01*
X38347841Y-30421595D02*
X38300222Y-30326357D01*
X38300222Y-30326357D02*
X38204984Y-30278738D01*
X38204984Y-30278738D02*
X38014508Y-30278738D01*
X38014508Y-30278738D02*
X37919270Y-30326357D01*
X38347841Y-30897786D02*
X38252603Y-30945405D01*
X38252603Y-30945405D02*
X38014508Y-30945405D01*
X38014508Y-30945405D02*
X37919270Y-30897786D01*
X37919270Y-30897786D02*
X37871651Y-30802547D01*
X37871651Y-30802547D02*
X37871651Y-30707309D01*
X37871651Y-30707309D02*
X37919270Y-30612071D01*
X37919270Y-30612071D02*
X38014508Y-30564452D01*
X38014508Y-30564452D02*
X38252603Y-30564452D01*
X38252603Y-30564452D02*
X38347841Y-30516833D01*
X38824032Y-30278738D02*
X38824032Y-30945405D01*
X38824032Y-30373976D02*
X38871651Y-30326357D01*
X38871651Y-30326357D02*
X38966889Y-30278738D01*
X38966889Y-30278738D02*
X39109746Y-30278738D01*
X39109746Y-30278738D02*
X39204984Y-30326357D01*
X39204984Y-30326357D02*
X39252603Y-30421595D01*
X39252603Y-30421595D02*
X39252603Y-30945405D01*
X40157365Y-30945405D02*
X40157365Y-29945405D01*
X40157365Y-30897786D02*
X40062127Y-30945405D01*
X40062127Y-30945405D02*
X39871651Y-30945405D01*
X39871651Y-30945405D02*
X39776413Y-30897786D01*
X39776413Y-30897786D02*
X39728794Y-30850166D01*
X39728794Y-30850166D02*
X39681175Y-30754928D01*
X39681175Y-30754928D02*
X39681175Y-30469214D01*
X39681175Y-30469214D02*
X39728794Y-30373976D01*
X39728794Y-30373976D02*
X39776413Y-30326357D01*
X39776413Y-30326357D02*
X39871651Y-30278738D01*
X39871651Y-30278738D02*
X40062127Y-30278738D01*
X40062127Y-30278738D02*
X40157365Y-30326357D01*
X41062127Y-30897786D02*
X40966889Y-30945405D01*
X40966889Y-30945405D02*
X40776413Y-30945405D01*
X40776413Y-30945405D02*
X40681175Y-30897786D01*
X40681175Y-30897786D02*
X40633556Y-30850166D01*
X40633556Y-30850166D02*
X40585937Y-30754928D01*
X40585937Y-30754928D02*
X40585937Y-30469214D01*
X40585937Y-30469214D02*
X40633556Y-30373976D01*
X40633556Y-30373976D02*
X40681175Y-30326357D01*
X40681175Y-30326357D02*
X40776413Y-30278738D01*
X40776413Y-30278738D02*
X40966889Y-30278738D01*
X40966889Y-30278738D02*
X41062127Y-30326357D01*
X41633556Y-30945405D02*
X41538318Y-30897786D01*
X41538318Y-30897786D02*
X41490699Y-30850166D01*
X41490699Y-30850166D02*
X41443080Y-30754928D01*
X41443080Y-30754928D02*
X41443080Y-30469214D01*
X41443080Y-30469214D02*
X41490699Y-30373976D01*
X41490699Y-30373976D02*
X41538318Y-30326357D01*
X41538318Y-30326357D02*
X41633556Y-30278738D01*
X41633556Y-30278738D02*
X41776413Y-30278738D01*
X41776413Y-30278738D02*
X41871651Y-30326357D01*
X41871651Y-30326357D02*
X41919270Y-30373976D01*
X41919270Y-30373976D02*
X41966889Y-30469214D01*
X41966889Y-30469214D02*
X41966889Y-30754928D01*
X41966889Y-30754928D02*
X41919270Y-30850166D01*
X41919270Y-30850166D02*
X41871651Y-30897786D01*
X41871651Y-30897786D02*
X41776413Y-30945405D01*
X41776413Y-30945405D02*
X41633556Y-30945405D01*
X42395461Y-30850166D02*
X42443080Y-30897786D01*
X42443080Y-30897786D02*
X42395461Y-30945405D01*
X42395461Y-30945405D02*
X42347842Y-30897786D01*
X42347842Y-30897786D02*
X42395461Y-30850166D01*
X42395461Y-30850166D02*
X42395461Y-30945405D01*
X43300222Y-30897786D02*
X43204984Y-30945405D01*
X43204984Y-30945405D02*
X43014508Y-30945405D01*
X43014508Y-30945405D02*
X42919270Y-30897786D01*
X42919270Y-30897786D02*
X42871651Y-30850166D01*
X42871651Y-30850166D02*
X42824032Y-30754928D01*
X42824032Y-30754928D02*
X42824032Y-30469214D01*
X42824032Y-30469214D02*
X42871651Y-30373976D01*
X42871651Y-30373976D02*
X42919270Y-30326357D01*
X42919270Y-30326357D02*
X43014508Y-30278738D01*
X43014508Y-30278738D02*
X43204984Y-30278738D01*
X43204984Y-30278738D02*
X43300222Y-30326357D01*
X43871651Y-30945405D02*
X43776413Y-30897786D01*
X43776413Y-30897786D02*
X43728794Y-30850166D01*
X43728794Y-30850166D02*
X43681175Y-30754928D01*
X43681175Y-30754928D02*
X43681175Y-30469214D01*
X43681175Y-30469214D02*
X43728794Y-30373976D01*
X43728794Y-30373976D02*
X43776413Y-30326357D01*
X43776413Y-30326357D02*
X43871651Y-30278738D01*
X43871651Y-30278738D02*
X44014508Y-30278738D01*
X44014508Y-30278738D02*
X44109746Y-30326357D01*
X44109746Y-30326357D02*
X44157365Y-30373976D01*
X44157365Y-30373976D02*
X44204984Y-30469214D01*
X44204984Y-30469214D02*
X44204984Y-30754928D01*
X44204984Y-30754928D02*
X44157365Y-30850166D01*
X44157365Y-30850166D02*
X44109746Y-30897786D01*
X44109746Y-30897786D02*
X44014508Y-30945405D01*
X44014508Y-30945405D02*
X43871651Y-30945405D01*
X44633556Y-30945405D02*
X44633556Y-30278738D01*
X44633556Y-30373976D02*
X44681175Y-30326357D01*
X44681175Y-30326357D02*
X44776413Y-30278738D01*
X44776413Y-30278738D02*
X44919270Y-30278738D01*
X44919270Y-30278738D02*
X45014508Y-30326357D01*
X45014508Y-30326357D02*
X45062127Y-30421595D01*
X45062127Y-30421595D02*
X45062127Y-30945405D01*
X45062127Y-30421595D02*
X45109746Y-30326357D01*
X45109746Y-30326357D02*
X45204984Y-30278738D01*
X45204984Y-30278738D02*
X45347841Y-30278738D01*
X45347841Y-30278738D02*
X45443080Y-30326357D01*
X45443080Y-30326357D02*
X45490699Y-30421595D01*
X45490699Y-30421595D02*
X45490699Y-30945405D01*
X92715135Y-26711354D02*
X92715135Y-26901830D01*
X93096087Y-26711354D02*
X93096087Y-26901830D01*
X93477040Y-27663735D02*
X93619897Y-27711354D01*
X93619897Y-27711354D02*
X93857992Y-27711354D01*
X93857992Y-27711354D02*
X93953230Y-27663735D01*
X93953230Y-27663735D02*
X94000849Y-27616115D01*
X94000849Y-27616115D02*
X94048468Y-27520877D01*
X94048468Y-27520877D02*
X94048468Y-27425639D01*
X94048468Y-27425639D02*
X94000849Y-27330401D01*
X94000849Y-27330401D02*
X93953230Y-27282782D01*
X93953230Y-27282782D02*
X93857992Y-27235163D01*
X93857992Y-27235163D02*
X93667516Y-27187544D01*
X93667516Y-27187544D02*
X93572278Y-27139925D01*
X93572278Y-27139925D02*
X93524659Y-27092306D01*
X93524659Y-27092306D02*
X93477040Y-26997068D01*
X93477040Y-26997068D02*
X93477040Y-26901830D01*
X93477040Y-26901830D02*
X93524659Y-26806592D01*
X93524659Y-26806592D02*
X93572278Y-26758973D01*
X93572278Y-26758973D02*
X93667516Y-26711354D01*
X93667516Y-26711354D02*
X93905611Y-26711354D01*
X93905611Y-26711354D02*
X94048468Y-26758973D01*
X94334183Y-27044687D02*
X94715135Y-27044687D01*
X94477040Y-26711354D02*
X94477040Y-27568496D01*
X94477040Y-27568496D02*
X94524659Y-27663735D01*
X94524659Y-27663735D02*
X94619897Y-27711354D01*
X94619897Y-27711354D02*
X94715135Y-27711354D01*
X95477040Y-27711354D02*
X95477040Y-27187544D01*
X95477040Y-27187544D02*
X95429421Y-27092306D01*
X95429421Y-27092306D02*
X95334183Y-27044687D01*
X95334183Y-27044687D02*
X95143707Y-27044687D01*
X95143707Y-27044687D02*
X95048469Y-27092306D01*
X95477040Y-27663735D02*
X95381802Y-27711354D01*
X95381802Y-27711354D02*
X95143707Y-27711354D01*
X95143707Y-27711354D02*
X95048469Y-27663735D01*
X95048469Y-27663735D02*
X95000850Y-27568496D01*
X95000850Y-27568496D02*
X95000850Y-27473258D01*
X95000850Y-27473258D02*
X95048469Y-27378020D01*
X95048469Y-27378020D02*
X95143707Y-27330401D01*
X95143707Y-27330401D02*
X95381802Y-27330401D01*
X95381802Y-27330401D02*
X95477040Y-27282782D01*
X95953231Y-27044687D02*
X95953231Y-27711354D01*
X95953231Y-27139925D02*
X96000850Y-27092306D01*
X96000850Y-27092306D02*
X96096088Y-27044687D01*
X96096088Y-27044687D02*
X96238945Y-27044687D01*
X96238945Y-27044687D02*
X96334183Y-27092306D01*
X96334183Y-27092306D02*
X96381802Y-27187544D01*
X96381802Y-27187544D02*
X96381802Y-27711354D01*
X97286564Y-27711354D02*
X97286564Y-26711354D01*
X97286564Y-27663735D02*
X97191326Y-27711354D01*
X97191326Y-27711354D02*
X97000850Y-27711354D01*
X97000850Y-27711354D02*
X96905612Y-27663735D01*
X96905612Y-27663735D02*
X96857993Y-27616115D01*
X96857993Y-27616115D02*
X96810374Y-27520877D01*
X96810374Y-27520877D02*
X96810374Y-27235163D01*
X96810374Y-27235163D02*
X96857993Y-27139925D01*
X96857993Y-27139925D02*
X96905612Y-27092306D01*
X96905612Y-27092306D02*
X97000850Y-27044687D01*
X97000850Y-27044687D02*
X97191326Y-27044687D01*
X97191326Y-27044687D02*
X97286564Y-27092306D01*
X98477041Y-27425639D02*
X98953231Y-27425639D01*
X98381803Y-27711354D02*
X98715136Y-26711354D01*
X98715136Y-26711354D02*
X99048469Y-27711354D01*
X99524660Y-27711354D02*
X99429422Y-27663735D01*
X99429422Y-27663735D02*
X99381803Y-27568496D01*
X99381803Y-27568496D02*
X99381803Y-26711354D01*
X100048470Y-27711354D02*
X99953232Y-27663735D01*
X99953232Y-27663735D02*
X99905613Y-27616115D01*
X99905613Y-27616115D02*
X99857994Y-27520877D01*
X99857994Y-27520877D02*
X99857994Y-27235163D01*
X99857994Y-27235163D02*
X99905613Y-27139925D01*
X99905613Y-27139925D02*
X99953232Y-27092306D01*
X99953232Y-27092306D02*
X100048470Y-27044687D01*
X100048470Y-27044687D02*
X100191327Y-27044687D01*
X100191327Y-27044687D02*
X100286565Y-27092306D01*
X100286565Y-27092306D02*
X100334184Y-27139925D01*
X100334184Y-27139925D02*
X100381803Y-27235163D01*
X100381803Y-27235163D02*
X100381803Y-27520877D01*
X100381803Y-27520877D02*
X100334184Y-27616115D01*
X100334184Y-27616115D02*
X100286565Y-27663735D01*
X100286565Y-27663735D02*
X100191327Y-27711354D01*
X100191327Y-27711354D02*
X100048470Y-27711354D01*
X100810375Y-27044687D02*
X100810375Y-27711354D01*
X100810375Y-27139925D02*
X100857994Y-27092306D01*
X100857994Y-27092306D02*
X100953232Y-27044687D01*
X100953232Y-27044687D02*
X101096089Y-27044687D01*
X101096089Y-27044687D02*
X101191327Y-27092306D01*
X101191327Y-27092306D02*
X101238946Y-27187544D01*
X101238946Y-27187544D02*
X101238946Y-27711354D01*
X102096089Y-27663735D02*
X102000851Y-27711354D01*
X102000851Y-27711354D02*
X101810375Y-27711354D01*
X101810375Y-27711354D02*
X101715137Y-27663735D01*
X101715137Y-27663735D02*
X101667518Y-27568496D01*
X101667518Y-27568496D02*
X101667518Y-27187544D01*
X101667518Y-27187544D02*
X101715137Y-27092306D01*
X101715137Y-27092306D02*
X101810375Y-27044687D01*
X101810375Y-27044687D02*
X102000851Y-27044687D01*
X102000851Y-27044687D02*
X102096089Y-27092306D01*
X102096089Y-27092306D02*
X102143708Y-27187544D01*
X102143708Y-27187544D02*
X102143708Y-27282782D01*
X102143708Y-27282782D02*
X101667518Y-27378020D01*
X102524661Y-26711354D02*
X102524661Y-26901830D01*
X102905613Y-26711354D02*
X102905613Y-26901830D01*
X103953233Y-26711354D02*
X104286566Y-27711354D01*
X104286566Y-27711354D02*
X104619899Y-26711354D01*
X105334185Y-27663735D02*
X105238947Y-27711354D01*
X105238947Y-27711354D02*
X105048471Y-27711354D01*
X105048471Y-27711354D02*
X104953233Y-27663735D01*
X104953233Y-27663735D02*
X104905614Y-27568496D01*
X104905614Y-27568496D02*
X104905614Y-27187544D01*
X104905614Y-27187544D02*
X104953233Y-27092306D01*
X104953233Y-27092306D02*
X105048471Y-27044687D01*
X105048471Y-27044687D02*
X105238947Y-27044687D01*
X105238947Y-27044687D02*
X105334185Y-27092306D01*
X105334185Y-27092306D02*
X105381804Y-27187544D01*
X105381804Y-27187544D02*
X105381804Y-27282782D01*
X105381804Y-27282782D02*
X104905614Y-27378020D01*
X105810376Y-27711354D02*
X105810376Y-27044687D01*
X105810376Y-27235163D02*
X105857995Y-27139925D01*
X105857995Y-27139925D02*
X105905614Y-27092306D01*
X105905614Y-27092306D02*
X106000852Y-27044687D01*
X106000852Y-27044687D02*
X106096090Y-27044687D01*
X106381805Y-27663735D02*
X106477043Y-27711354D01*
X106477043Y-27711354D02*
X106667519Y-27711354D01*
X106667519Y-27711354D02*
X106762757Y-27663735D01*
X106762757Y-27663735D02*
X106810376Y-27568496D01*
X106810376Y-27568496D02*
X106810376Y-27520877D01*
X106810376Y-27520877D02*
X106762757Y-27425639D01*
X106762757Y-27425639D02*
X106667519Y-27378020D01*
X106667519Y-27378020D02*
X106524662Y-27378020D01*
X106524662Y-27378020D02*
X106429424Y-27330401D01*
X106429424Y-27330401D02*
X106381805Y-27235163D01*
X106381805Y-27235163D02*
X106381805Y-27187544D01*
X106381805Y-27187544D02*
X106429424Y-27092306D01*
X106429424Y-27092306D02*
X106524662Y-27044687D01*
X106524662Y-27044687D02*
X106667519Y-27044687D01*
X106667519Y-27044687D02*
X106762757Y-27092306D01*
X107238948Y-27711354D02*
X107238948Y-27044687D01*
X107238948Y-26711354D02*
X107191329Y-26758973D01*
X107191329Y-26758973D02*
X107238948Y-26806592D01*
X107238948Y-26806592D02*
X107286567Y-26758973D01*
X107286567Y-26758973D02*
X107238948Y-26711354D01*
X107238948Y-26711354D02*
X107238948Y-26806592D01*
X107857995Y-27711354D02*
X107762757Y-27663735D01*
X107762757Y-27663735D02*
X107715138Y-27616115D01*
X107715138Y-27616115D02*
X107667519Y-27520877D01*
X107667519Y-27520877D02*
X107667519Y-27235163D01*
X107667519Y-27235163D02*
X107715138Y-27139925D01*
X107715138Y-27139925D02*
X107762757Y-27092306D01*
X107762757Y-27092306D02*
X107857995Y-27044687D01*
X107857995Y-27044687D02*
X108000852Y-27044687D01*
X108000852Y-27044687D02*
X108096090Y-27092306D01*
X108096090Y-27092306D02*
X108143709Y-27139925D01*
X108143709Y-27139925D02*
X108191328Y-27235163D01*
X108191328Y-27235163D02*
X108191328Y-27520877D01*
X108191328Y-27520877D02*
X108143709Y-27616115D01*
X108143709Y-27616115D02*
X108096090Y-27663735D01*
X108096090Y-27663735D02*
X108000852Y-27711354D01*
X108000852Y-27711354D02*
X107857995Y-27711354D01*
X108619900Y-27044687D02*
X108619900Y-27711354D01*
X108619900Y-27139925D02*
X108667519Y-27092306D01*
X108667519Y-27092306D02*
X108762757Y-27044687D01*
X108762757Y-27044687D02*
X108905614Y-27044687D01*
X108905614Y-27044687D02*
X109000852Y-27092306D01*
X109000852Y-27092306D02*
X109048471Y-27187544D01*
X109048471Y-27187544D02*
X109048471Y-27711354D01*
D11*
X37766666Y-80734819D02*
X37766666Y-81449104D01*
X37766666Y-81449104D02*
X37719047Y-81591961D01*
X37719047Y-81591961D02*
X37623809Y-81687200D01*
X37623809Y-81687200D02*
X37480952Y-81734819D01*
X37480952Y-81734819D02*
X37385714Y-81734819D01*
X38766666Y-81734819D02*
X38195238Y-81734819D01*
X38480952Y-81734819D02*
X38480952Y-80734819D01*
X38480952Y-80734819D02*
X38385714Y-80877676D01*
X38385714Y-80877676D02*
X38290476Y-80972914D01*
X38290476Y-80972914D02*
X38195238Y-81020533D01*
X94509580Y-89706666D02*
X94557200Y-89754285D01*
X94557200Y-89754285D02*
X94604819Y-89897142D01*
X94604819Y-89897142D02*
X94604819Y-89992380D01*
X94604819Y-89992380D02*
X94557200Y-90135237D01*
X94557200Y-90135237D02*
X94461961Y-90230475D01*
X94461961Y-90230475D02*
X94366723Y-90278094D01*
X94366723Y-90278094D02*
X94176247Y-90325713D01*
X94176247Y-90325713D02*
X94033390Y-90325713D01*
X94033390Y-90325713D02*
X93842914Y-90278094D01*
X93842914Y-90278094D02*
X93747676Y-90230475D01*
X93747676Y-90230475D02*
X93652438Y-90135237D01*
X93652438Y-90135237D02*
X93604819Y-89992380D01*
X93604819Y-89992380D02*
X93604819Y-89897142D01*
X93604819Y-89897142D02*
X93652438Y-89754285D01*
X93652438Y-89754285D02*
X93700057Y-89706666D01*
X93604819Y-88801904D02*
X93604819Y-89278094D01*
X93604819Y-89278094D02*
X94081009Y-89325713D01*
X94081009Y-89325713D02*
X94033390Y-89278094D01*
X94033390Y-89278094D02*
X93985771Y-89182856D01*
X93985771Y-89182856D02*
X93985771Y-88944761D01*
X93985771Y-88944761D02*
X94033390Y-88849523D01*
X94033390Y-88849523D02*
X94081009Y-88801904D01*
X94081009Y-88801904D02*
X94176247Y-88754285D01*
X94176247Y-88754285D02*
X94414342Y-88754285D01*
X94414342Y-88754285D02*
X94509580Y-88801904D01*
X94509580Y-88801904D02*
X94557200Y-88849523D01*
X94557200Y-88849523D02*
X94604819Y-88944761D01*
X94604819Y-88944761D02*
X94604819Y-89182856D01*
X94604819Y-89182856D02*
X94557200Y-89278094D01*
X94557200Y-89278094D02*
X94509580Y-89325713D01*
X41164819Y-74398094D02*
X40164819Y-74398094D01*
X40164819Y-74398094D02*
X40164819Y-74159999D01*
X40164819Y-74159999D02*
X40212438Y-74017142D01*
X40212438Y-74017142D02*
X40307676Y-73921904D01*
X40307676Y-73921904D02*
X40402914Y-73874285D01*
X40402914Y-73874285D02*
X40593390Y-73826666D01*
X40593390Y-73826666D02*
X40736247Y-73826666D01*
X40736247Y-73826666D02*
X40926723Y-73874285D01*
X40926723Y-73874285D02*
X41021961Y-73921904D01*
X41021961Y-73921904D02*
X41117200Y-74017142D01*
X41117200Y-74017142D02*
X41164819Y-74159999D01*
X41164819Y-74159999D02*
X41164819Y-74398094D01*
X40260057Y-73445713D02*
X40212438Y-73398094D01*
X40212438Y-73398094D02*
X40164819Y-73302856D01*
X40164819Y-73302856D02*
X40164819Y-73064761D01*
X40164819Y-73064761D02*
X40212438Y-72969523D01*
X40212438Y-72969523D02*
X40260057Y-72921904D01*
X40260057Y-72921904D02*
X40355295Y-72874285D01*
X40355295Y-72874285D02*
X40450533Y-72874285D01*
X40450533Y-72874285D02*
X40593390Y-72921904D01*
X40593390Y-72921904D02*
X41164819Y-73493332D01*
X41164819Y-73493332D02*
X41164819Y-72874285D01*
X41534819Y-79001904D02*
X40534819Y-79001904D01*
X41534819Y-78430476D02*
X40963390Y-78859047D01*
X40534819Y-78430476D02*
X41106247Y-79001904D01*
X109751905Y-87234819D02*
X109751905Y-86234819D01*
X109751905Y-86234819D02*
X109990000Y-86234819D01*
X109990000Y-86234819D02*
X110132857Y-86282438D01*
X110132857Y-86282438D02*
X110228095Y-86377676D01*
X110228095Y-86377676D02*
X110275714Y-86472914D01*
X110275714Y-86472914D02*
X110323333Y-86663390D01*
X110323333Y-86663390D02*
X110323333Y-86806247D01*
X110323333Y-86806247D02*
X110275714Y-86996723D01*
X110275714Y-86996723D02*
X110228095Y-87091961D01*
X110228095Y-87091961D02*
X110132857Y-87187200D01*
X110132857Y-87187200D02*
X109990000Y-87234819D01*
X109990000Y-87234819D02*
X109751905Y-87234819D01*
X111180476Y-86568152D02*
X111180476Y-87234819D01*
X110942381Y-86187200D02*
X110704286Y-86901485D01*
X110704286Y-86901485D02*
X111323333Y-86901485D01*
X56388095Y-60624819D02*
X56388095Y-61434342D01*
X56388095Y-61434342D02*
X56435714Y-61529580D01*
X56435714Y-61529580D02*
X56483333Y-61577200D01*
X56483333Y-61577200D02*
X56578571Y-61624819D01*
X56578571Y-61624819D02*
X56769047Y-61624819D01*
X56769047Y-61624819D02*
X56864285Y-61577200D01*
X56864285Y-61577200D02*
X56911904Y-61529580D01*
X56911904Y-61529580D02*
X56959523Y-61434342D01*
X56959523Y-61434342D02*
X56959523Y-60624819D01*
X57959523Y-61624819D02*
X57388095Y-61624819D01*
X57673809Y-61624819D02*
X57673809Y-60624819D01*
X57673809Y-60624819D02*
X57578571Y-60767676D01*
X57578571Y-60767676D02*
X57483333Y-60862914D01*
X57483333Y-60862914D02*
X57388095Y-60910533D01*
X46174819Y-41378094D02*
X45174819Y-41378094D01*
X45174819Y-41378094D02*
X45174819Y-41139999D01*
X45174819Y-41139999D02*
X45222438Y-40997142D01*
X45222438Y-40997142D02*
X45317676Y-40901904D01*
X45317676Y-40901904D02*
X45412914Y-40854285D01*
X45412914Y-40854285D02*
X45603390Y-40806666D01*
X45603390Y-40806666D02*
X45746247Y-40806666D01*
X45746247Y-40806666D02*
X45936723Y-40854285D01*
X45936723Y-40854285D02*
X46031961Y-40901904D01*
X46031961Y-40901904D02*
X46127200Y-40997142D01*
X46127200Y-40997142D02*
X46174819Y-41139999D01*
X46174819Y-41139999D02*
X46174819Y-41378094D01*
X46174819Y-39854285D02*
X46174819Y-40425713D01*
X46174819Y-40139999D02*
X45174819Y-40139999D01*
X45174819Y-40139999D02*
X45317676Y-40235237D01*
X45317676Y-40235237D02*
X45412914Y-40330475D01*
X45412914Y-40330475D02*
X45460533Y-40425713D01*
X41094819Y-33281904D02*
X40094819Y-33281904D01*
X41094819Y-32710476D02*
X40523390Y-33139047D01*
X40094819Y-32710476D02*
X40666247Y-33281904D01*
X63954819Y-40806666D02*
X63478628Y-41139999D01*
X63954819Y-41378094D02*
X62954819Y-41378094D01*
X62954819Y-41378094D02*
X62954819Y-40997142D01*
X62954819Y-40997142D02*
X63002438Y-40901904D01*
X63002438Y-40901904D02*
X63050057Y-40854285D01*
X63050057Y-40854285D02*
X63145295Y-40806666D01*
X63145295Y-40806666D02*
X63288152Y-40806666D01*
X63288152Y-40806666D02*
X63383390Y-40854285D01*
X63383390Y-40854285D02*
X63431009Y-40901904D01*
X63431009Y-40901904D02*
X63478628Y-40997142D01*
X63478628Y-40997142D02*
X63478628Y-41378094D01*
X63954819Y-39854285D02*
X63954819Y-40425713D01*
X63954819Y-40139999D02*
X62954819Y-40139999D01*
X62954819Y-40139999D02*
X63097676Y-40235237D01*
X63097676Y-40235237D02*
X63192914Y-40330475D01*
X63192914Y-40330475D02*
X63240533Y-40425713D01*
X56199580Y-89026666D02*
X56247200Y-89074285D01*
X56247200Y-89074285D02*
X56294819Y-89217142D01*
X56294819Y-89217142D02*
X56294819Y-89312380D01*
X56294819Y-89312380D02*
X56247200Y-89455237D01*
X56247200Y-89455237D02*
X56151961Y-89550475D01*
X56151961Y-89550475D02*
X56056723Y-89598094D01*
X56056723Y-89598094D02*
X55866247Y-89645713D01*
X55866247Y-89645713D02*
X55723390Y-89645713D01*
X55723390Y-89645713D02*
X55532914Y-89598094D01*
X55532914Y-89598094D02*
X55437676Y-89550475D01*
X55437676Y-89550475D02*
X55342438Y-89455237D01*
X55342438Y-89455237D02*
X55294819Y-89312380D01*
X55294819Y-89312380D02*
X55294819Y-89217142D01*
X55294819Y-89217142D02*
X55342438Y-89074285D01*
X55342438Y-89074285D02*
X55390057Y-89026666D01*
X55294819Y-88693332D02*
X55294819Y-88074285D01*
X55294819Y-88074285D02*
X55675771Y-88407618D01*
X55675771Y-88407618D02*
X55675771Y-88264761D01*
X55675771Y-88264761D02*
X55723390Y-88169523D01*
X55723390Y-88169523D02*
X55771009Y-88121904D01*
X55771009Y-88121904D02*
X55866247Y-88074285D01*
X55866247Y-88074285D02*
X56104342Y-88074285D01*
X56104342Y-88074285D02*
X56199580Y-88121904D01*
X56199580Y-88121904D02*
X56247200Y-88169523D01*
X56247200Y-88169523D02*
X56294819Y-88264761D01*
X56294819Y-88264761D02*
X56294819Y-88550475D01*
X56294819Y-88550475D02*
X56247200Y-88645713D01*
X56247200Y-88645713D02*
X56199580Y-88693332D01*
X56334819Y-40806666D02*
X55858628Y-41139999D01*
X56334819Y-41378094D02*
X55334819Y-41378094D01*
X55334819Y-41378094D02*
X55334819Y-40997142D01*
X55334819Y-40997142D02*
X55382438Y-40901904D01*
X55382438Y-40901904D02*
X55430057Y-40854285D01*
X55430057Y-40854285D02*
X55525295Y-40806666D01*
X55525295Y-40806666D02*
X55668152Y-40806666D01*
X55668152Y-40806666D02*
X55763390Y-40854285D01*
X55763390Y-40854285D02*
X55811009Y-40901904D01*
X55811009Y-40901904D02*
X55858628Y-40997142D01*
X55858628Y-40997142D02*
X55858628Y-41378094D01*
X55430057Y-40425713D02*
X55382438Y-40378094D01*
X55382438Y-40378094D02*
X55334819Y-40282856D01*
X55334819Y-40282856D02*
X55334819Y-40044761D01*
X55334819Y-40044761D02*
X55382438Y-39949523D01*
X55382438Y-39949523D02*
X55430057Y-39901904D01*
X55430057Y-39901904D02*
X55525295Y-39854285D01*
X55525295Y-39854285D02*
X55620533Y-39854285D01*
X55620533Y-39854285D02*
X55763390Y-39901904D01*
X55763390Y-39901904D02*
X56334819Y-40473332D01*
X56334819Y-40473332D02*
X56334819Y-39854285D01*
X109751905Y-79614819D02*
X109751905Y-78614819D01*
X109751905Y-78614819D02*
X109990000Y-78614819D01*
X109990000Y-78614819D02*
X110132857Y-78662438D01*
X110132857Y-78662438D02*
X110228095Y-78757676D01*
X110228095Y-78757676D02*
X110275714Y-78852914D01*
X110275714Y-78852914D02*
X110323333Y-79043390D01*
X110323333Y-79043390D02*
X110323333Y-79186247D01*
X110323333Y-79186247D02*
X110275714Y-79376723D01*
X110275714Y-79376723D02*
X110228095Y-79471961D01*
X110228095Y-79471961D02*
X110132857Y-79567200D01*
X110132857Y-79567200D02*
X109990000Y-79614819D01*
X109990000Y-79614819D02*
X109751905Y-79614819D01*
X110656667Y-78614819D02*
X111275714Y-78614819D01*
X111275714Y-78614819D02*
X110942381Y-78995771D01*
X110942381Y-78995771D02*
X111085238Y-78995771D01*
X111085238Y-78995771D02*
X111180476Y-79043390D01*
X111180476Y-79043390D02*
X111228095Y-79091009D01*
X111228095Y-79091009D02*
X111275714Y-79186247D01*
X111275714Y-79186247D02*
X111275714Y-79424342D01*
X111275714Y-79424342D02*
X111228095Y-79519580D01*
X111228095Y-79519580D02*
X111180476Y-79567200D01*
X111180476Y-79567200D02*
X111085238Y-79614819D01*
X111085238Y-79614819D02*
X110799524Y-79614819D01*
X110799524Y-79614819D02*
X110704286Y-79567200D01*
X110704286Y-79567200D02*
X110656667Y-79519580D01*
X47498095Y-37554819D02*
X47498095Y-38364342D01*
X47498095Y-38364342D02*
X47545714Y-38459580D01*
X47545714Y-38459580D02*
X47593333Y-38507200D01*
X47593333Y-38507200D02*
X47688571Y-38554819D01*
X47688571Y-38554819D02*
X47879047Y-38554819D01*
X47879047Y-38554819D02*
X47974285Y-38507200D01*
X47974285Y-38507200D02*
X48021904Y-38459580D01*
X48021904Y-38459580D02*
X48069523Y-38364342D01*
X48069523Y-38364342D02*
X48069523Y-37554819D01*
X48498095Y-37650057D02*
X48545714Y-37602438D01*
X48545714Y-37602438D02*
X48640952Y-37554819D01*
X48640952Y-37554819D02*
X48879047Y-37554819D01*
X48879047Y-37554819D02*
X48974285Y-37602438D01*
X48974285Y-37602438D02*
X49021904Y-37650057D01*
X49021904Y-37650057D02*
X49069523Y-37745295D01*
X49069523Y-37745295D02*
X49069523Y-37840533D01*
X49069523Y-37840533D02*
X49021904Y-37983390D01*
X49021904Y-37983390D02*
X48450476Y-38554819D01*
X48450476Y-38554819D02*
X49069523Y-38554819D01*
X56983333Y-51084819D02*
X56650000Y-50608628D01*
X56411905Y-51084819D02*
X56411905Y-50084819D01*
X56411905Y-50084819D02*
X56792857Y-50084819D01*
X56792857Y-50084819D02*
X56888095Y-50132438D01*
X56888095Y-50132438D02*
X56935714Y-50180057D01*
X56935714Y-50180057D02*
X56983333Y-50275295D01*
X56983333Y-50275295D02*
X56983333Y-50418152D01*
X56983333Y-50418152D02*
X56935714Y-50513390D01*
X56935714Y-50513390D02*
X56888095Y-50561009D01*
X56888095Y-50561009D02*
X56792857Y-50608628D01*
X56792857Y-50608628D02*
X56411905Y-50608628D01*
X57316667Y-50084819D02*
X57935714Y-50084819D01*
X57935714Y-50084819D02*
X57602381Y-50465771D01*
X57602381Y-50465771D02*
X57745238Y-50465771D01*
X57745238Y-50465771D02*
X57840476Y-50513390D01*
X57840476Y-50513390D02*
X57888095Y-50561009D01*
X57888095Y-50561009D02*
X57935714Y-50656247D01*
X57935714Y-50656247D02*
X57935714Y-50894342D01*
X57935714Y-50894342D02*
X57888095Y-50989580D01*
X57888095Y-50989580D02*
X57840476Y-51037200D01*
X57840476Y-51037200D02*
X57745238Y-51084819D01*
X57745238Y-51084819D02*
X57459524Y-51084819D01*
X57459524Y-51084819D02*
X57364286Y-51037200D01*
X57364286Y-51037200D02*
X57316667Y-50989580D01*
X98893333Y-74284819D02*
X98560000Y-73808628D01*
X98321905Y-74284819D02*
X98321905Y-73284819D01*
X98321905Y-73284819D02*
X98702857Y-73284819D01*
X98702857Y-73284819D02*
X98798095Y-73332438D01*
X98798095Y-73332438D02*
X98845714Y-73380057D01*
X98845714Y-73380057D02*
X98893333Y-73475295D01*
X98893333Y-73475295D02*
X98893333Y-73618152D01*
X98893333Y-73618152D02*
X98845714Y-73713390D01*
X98845714Y-73713390D02*
X98798095Y-73761009D01*
X98798095Y-73761009D02*
X98702857Y-73808628D01*
X98702857Y-73808628D02*
X98321905Y-73808628D01*
X99750476Y-73618152D02*
X99750476Y-74284819D01*
X99512381Y-73237200D02*
X99274286Y-73951485D01*
X99274286Y-73951485D02*
X99893333Y-73951485D01*
X81599580Y-89026666D02*
X81647200Y-89074285D01*
X81647200Y-89074285D02*
X81694819Y-89217142D01*
X81694819Y-89217142D02*
X81694819Y-89312380D01*
X81694819Y-89312380D02*
X81647200Y-89455237D01*
X81647200Y-89455237D02*
X81551961Y-89550475D01*
X81551961Y-89550475D02*
X81456723Y-89598094D01*
X81456723Y-89598094D02*
X81266247Y-89645713D01*
X81266247Y-89645713D02*
X81123390Y-89645713D01*
X81123390Y-89645713D02*
X80932914Y-89598094D01*
X80932914Y-89598094D02*
X80837676Y-89550475D01*
X80837676Y-89550475D02*
X80742438Y-89455237D01*
X80742438Y-89455237D02*
X80694819Y-89312380D01*
X80694819Y-89312380D02*
X80694819Y-89217142D01*
X80694819Y-89217142D02*
X80742438Y-89074285D01*
X80742438Y-89074285D02*
X80790057Y-89026666D01*
X81028152Y-88169523D02*
X81694819Y-88169523D01*
X80647200Y-88407618D02*
X81361485Y-88645713D01*
X81361485Y-88645713D02*
X81361485Y-88026666D01*
X36675150Y-48603333D02*
X37389435Y-48603333D01*
X37389435Y-48603333D02*
X37532292Y-48650952D01*
X37532292Y-48650952D02*
X37627531Y-48746190D01*
X37627531Y-48746190D02*
X37675150Y-48889047D01*
X37675150Y-48889047D02*
X37675150Y-48984285D01*
X36770388Y-48174761D02*
X36722769Y-48127142D01*
X36722769Y-48127142D02*
X36675150Y-48031904D01*
X36675150Y-48031904D02*
X36675150Y-47793809D01*
X36675150Y-47793809D02*
X36722769Y-47698571D01*
X36722769Y-47698571D02*
X36770388Y-47650952D01*
X36770388Y-47650952D02*
X36865626Y-47603333D01*
X36865626Y-47603333D02*
X36960864Y-47603333D01*
X36960864Y-47603333D02*
X37103721Y-47650952D01*
X37103721Y-47650952D02*
X37675150Y-48222380D01*
X37675150Y-48222380D02*
X37675150Y-47603333D01*
X48164761Y-52370057D02*
X48069523Y-52322438D01*
X48069523Y-52322438D02*
X47974285Y-52227200D01*
X47974285Y-52227200D02*
X47831428Y-52084342D01*
X47831428Y-52084342D02*
X47736190Y-52036723D01*
X47736190Y-52036723D02*
X47640952Y-52036723D01*
X47688571Y-52274819D02*
X47593333Y-52227200D01*
X47593333Y-52227200D02*
X47498095Y-52131961D01*
X47498095Y-52131961D02*
X47450476Y-51941485D01*
X47450476Y-51941485D02*
X47450476Y-51608152D01*
X47450476Y-51608152D02*
X47498095Y-51417676D01*
X47498095Y-51417676D02*
X47593333Y-51322438D01*
X47593333Y-51322438D02*
X47688571Y-51274819D01*
X47688571Y-51274819D02*
X47879047Y-51274819D01*
X47879047Y-51274819D02*
X47974285Y-51322438D01*
X47974285Y-51322438D02*
X48069523Y-51417676D01*
X48069523Y-51417676D02*
X48117142Y-51608152D01*
X48117142Y-51608152D02*
X48117142Y-51941485D01*
X48117142Y-51941485D02*
X48069523Y-52131961D01*
X48069523Y-52131961D02*
X47974285Y-52227200D01*
X47974285Y-52227200D02*
X47879047Y-52274819D01*
X47879047Y-52274819D02*
X47688571Y-52274819D01*
X49069523Y-52274819D02*
X48498095Y-52274819D01*
X48783809Y-52274819D02*
X48783809Y-51274819D01*
X48783809Y-51274819D02*
X48688571Y-51417676D01*
X48688571Y-51417676D02*
X48593333Y-51512914D01*
X48593333Y-51512914D02*
X48498095Y-51560533D01*
X80565714Y-73829104D02*
X81041904Y-73829104D01*
X80470476Y-74114819D02*
X80803809Y-73114819D01*
X80803809Y-73114819D02*
X81137142Y-74114819D01*
X81994285Y-74114819D02*
X81422857Y-74114819D01*
X81708571Y-74114819D02*
X81708571Y-73114819D01*
X81708571Y-73114819D02*
X81613333Y-73257676D01*
X81613333Y-73257676D02*
X81518095Y-73352914D01*
X81518095Y-73352914D02*
X81422857Y-73400533D01*
X82541904Y-33565180D02*
X82541904Y-32755657D01*
X82541904Y-32755657D02*
X82494285Y-32660419D01*
X82494285Y-32660419D02*
X82446666Y-32612800D01*
X82446666Y-32612800D02*
X82351428Y-32565180D01*
X82351428Y-32565180D02*
X82160952Y-32565180D01*
X82160952Y-32565180D02*
X82065714Y-32612800D01*
X82065714Y-32612800D02*
X82018095Y-32660419D01*
X82018095Y-32660419D02*
X81970476Y-32755657D01*
X81970476Y-32755657D02*
X81970476Y-33565180D01*
X81541904Y-32612800D02*
X81399047Y-32565180D01*
X81399047Y-32565180D02*
X81160952Y-32565180D01*
X81160952Y-32565180D02*
X81065714Y-32612800D01*
X81065714Y-32612800D02*
X81018095Y-32660419D01*
X81018095Y-32660419D02*
X80970476Y-32755657D01*
X80970476Y-32755657D02*
X80970476Y-32850895D01*
X80970476Y-32850895D02*
X81018095Y-32946133D01*
X81018095Y-32946133D02*
X81065714Y-32993752D01*
X81065714Y-32993752D02*
X81160952Y-33041371D01*
X81160952Y-33041371D02*
X81351428Y-33088990D01*
X81351428Y-33088990D02*
X81446666Y-33136609D01*
X81446666Y-33136609D02*
X81494285Y-33184228D01*
X81494285Y-33184228D02*
X81541904Y-33279466D01*
X81541904Y-33279466D02*
X81541904Y-33374704D01*
X81541904Y-33374704D02*
X81494285Y-33469942D01*
X81494285Y-33469942D02*
X81446666Y-33517561D01*
X81446666Y-33517561D02*
X81351428Y-33565180D01*
X81351428Y-33565180D02*
X81113333Y-33565180D01*
X81113333Y-33565180D02*
X80970476Y-33517561D01*
X80208571Y-33088990D02*
X80065714Y-33041371D01*
X80065714Y-33041371D02*
X80018095Y-32993752D01*
X80018095Y-32993752D02*
X79970476Y-32898514D01*
X79970476Y-32898514D02*
X79970476Y-32755657D01*
X79970476Y-32755657D02*
X80018095Y-32660419D01*
X80018095Y-32660419D02*
X80065714Y-32612800D01*
X80065714Y-32612800D02*
X80160952Y-32565180D01*
X80160952Y-32565180D02*
X80541904Y-32565180D01*
X80541904Y-32565180D02*
X80541904Y-33565180D01*
X80541904Y-33565180D02*
X80208571Y-33565180D01*
X80208571Y-33565180D02*
X80113333Y-33517561D01*
X80113333Y-33517561D02*
X80065714Y-33469942D01*
X80065714Y-33469942D02*
X80018095Y-33374704D01*
X80018095Y-33374704D02*
X80018095Y-33279466D01*
X80018095Y-33279466D02*
X80065714Y-33184228D01*
X80065714Y-33184228D02*
X80113333Y-33136609D01*
X80113333Y-33136609D02*
X80208571Y-33088990D01*
X80208571Y-33088990D02*
X80541904Y-33088990D01*
X98893333Y-81904819D02*
X98560000Y-81428628D01*
X98321905Y-81904819D02*
X98321905Y-80904819D01*
X98321905Y-80904819D02*
X98702857Y-80904819D01*
X98702857Y-80904819D02*
X98798095Y-80952438D01*
X98798095Y-80952438D02*
X98845714Y-81000057D01*
X98845714Y-81000057D02*
X98893333Y-81095295D01*
X98893333Y-81095295D02*
X98893333Y-81238152D01*
X98893333Y-81238152D02*
X98845714Y-81333390D01*
X98845714Y-81333390D02*
X98798095Y-81381009D01*
X98798095Y-81381009D02*
X98702857Y-81428628D01*
X98702857Y-81428628D02*
X98321905Y-81428628D01*
X99798095Y-80904819D02*
X99321905Y-80904819D01*
X99321905Y-80904819D02*
X99274286Y-81381009D01*
X99274286Y-81381009D02*
X99321905Y-81333390D01*
X99321905Y-81333390D02*
X99417143Y-81285771D01*
X99417143Y-81285771D02*
X99655238Y-81285771D01*
X99655238Y-81285771D02*
X99750476Y-81333390D01*
X99750476Y-81333390D02*
X99798095Y-81381009D01*
X99798095Y-81381009D02*
X99845714Y-81476247D01*
X99845714Y-81476247D02*
X99845714Y-81714342D01*
X99845714Y-81714342D02*
X99798095Y-81809580D01*
X99798095Y-81809580D02*
X99750476Y-81857200D01*
X99750476Y-81857200D02*
X99655238Y-81904819D01*
X99655238Y-81904819D02*
X99417143Y-81904819D01*
X99417143Y-81904819D02*
X99321905Y-81857200D01*
X99321905Y-81857200D02*
X99274286Y-81809580D01*
X65278095Y-86624819D02*
X65278095Y-87434342D01*
X65278095Y-87434342D02*
X65325714Y-87529580D01*
X65325714Y-87529580D02*
X65373333Y-87577200D01*
X65373333Y-87577200D02*
X65468571Y-87624819D01*
X65468571Y-87624819D02*
X65659047Y-87624819D01*
X65659047Y-87624819D02*
X65754285Y-87577200D01*
X65754285Y-87577200D02*
X65801904Y-87529580D01*
X65801904Y-87529580D02*
X65849523Y-87434342D01*
X65849523Y-87434342D02*
X65849523Y-86624819D01*
X66230476Y-86624819D02*
X66849523Y-86624819D01*
X66849523Y-86624819D02*
X66516190Y-87005771D01*
X66516190Y-87005771D02*
X66659047Y-87005771D01*
X66659047Y-87005771D02*
X66754285Y-87053390D01*
X66754285Y-87053390D02*
X66801904Y-87101009D01*
X66801904Y-87101009D02*
X66849523Y-87196247D01*
X66849523Y-87196247D02*
X66849523Y-87434342D01*
X66849523Y-87434342D02*
X66801904Y-87529580D01*
X66801904Y-87529580D02*
X66754285Y-87577200D01*
X66754285Y-87577200D02*
X66659047Y-87624819D01*
X66659047Y-87624819D02*
X66373333Y-87624819D01*
X66373333Y-87624819D02*
X66278095Y-87577200D01*
X66278095Y-87577200D02*
X66230476Y-87529580D01*
D12*
X101043453Y-42248666D02*
X101769168Y-42248666D01*
X101769168Y-42248666D02*
X101914311Y-42297047D01*
X101914311Y-42297047D02*
X102011073Y-42393809D01*
X102011073Y-42393809D02*
X102059453Y-42538952D01*
X102059453Y-42538952D02*
X102059453Y-42635714D01*
X101043453Y-41861619D02*
X101043453Y-41232666D01*
X101043453Y-41232666D02*
X101430501Y-41571333D01*
X101430501Y-41571333D02*
X101430501Y-41426190D01*
X101430501Y-41426190D02*
X101478882Y-41329428D01*
X101478882Y-41329428D02*
X101527263Y-41281047D01*
X101527263Y-41281047D02*
X101624025Y-41232666D01*
X101624025Y-41232666D02*
X101865930Y-41232666D01*
X101865930Y-41232666D02*
X101962692Y-41281047D01*
X101962692Y-41281047D02*
X102011073Y-41329428D01*
X102011073Y-41329428D02*
X102059453Y-41426190D01*
X102059453Y-41426190D02*
X102059453Y-41716476D01*
X102059453Y-41716476D02*
X102011073Y-41813238D01*
X102011073Y-41813238D02*
X101962692Y-41861619D01*
D13*
X99522095Y-45145476D02*
X98506095Y-45018476D01*
X98506095Y-45018476D02*
X99231810Y-44855190D01*
X99231810Y-44855190D02*
X98506095Y-44510476D01*
X98506095Y-44510476D02*
X99522095Y-44637476D01*
X99522095Y-44274619D02*
X98844762Y-44189952D01*
X98506095Y-44147619D02*
X98554476Y-44189952D01*
X98554476Y-44189952D02*
X98602857Y-44159714D01*
X98602857Y-44159714D02*
X98554476Y-44117380D01*
X98554476Y-44117380D02*
X98506095Y-44147619D01*
X98506095Y-44147619D02*
X98602857Y-44159714D01*
X98844762Y-43827095D02*
X99522095Y-43911762D01*
X98941524Y-43839190D02*
X98893143Y-43796857D01*
X98893143Y-43796857D02*
X98844762Y-43718238D01*
X98844762Y-43718238D02*
X98844762Y-43609381D01*
X98844762Y-43609381D02*
X98893143Y-43542857D01*
X98893143Y-43542857D02*
X98989905Y-43518666D01*
X98989905Y-43518666D02*
X99522095Y-43585190D01*
X99522095Y-43222333D02*
X98844762Y-43137666D01*
X98506095Y-43095333D02*
X98554476Y-43137666D01*
X98554476Y-43137666D02*
X98602857Y-43107428D01*
X98602857Y-43107428D02*
X98554476Y-43065094D01*
X98554476Y-43065094D02*
X98506095Y-43095333D01*
X98506095Y-43095333D02*
X98602857Y-43107428D01*
X99135048Y-42811095D02*
X99135048Y-42230523D01*
X99522095Y-41916047D02*
X98506095Y-41789047D01*
X98506095Y-41789047D02*
X98506095Y-41607618D01*
X98506095Y-41607618D02*
X98554476Y-41504808D01*
X98554476Y-41504808D02*
X98651238Y-41444332D01*
X98651238Y-41444332D02*
X98748000Y-41420142D01*
X98748000Y-41420142D02*
X98941524Y-41408047D01*
X98941524Y-41408047D02*
X99086667Y-41426189D01*
X99086667Y-41426189D02*
X99280191Y-41486666D01*
X99280191Y-41486666D02*
X99376953Y-41535047D01*
X99376953Y-41535047D02*
X99473715Y-41619713D01*
X99473715Y-41619713D02*
X99522095Y-41734618D01*
X99522095Y-41734618D02*
X99522095Y-41916047D01*
X99522095Y-41154047D02*
X98506095Y-41027047D01*
X99522095Y-40791190D02*
X98506095Y-40664190D01*
X98506095Y-40664190D02*
X99522095Y-40355761D01*
X99522095Y-40355761D02*
X98506095Y-40228761D01*
X99135048Y-39944523D02*
X99135048Y-39363951D01*
X98506095Y-38595903D02*
X98506095Y-38741046D01*
X98506095Y-38741046D02*
X98554476Y-38819665D01*
X98554476Y-38819665D02*
X98602857Y-38861998D01*
X98602857Y-38861998D02*
X98748000Y-38952713D01*
X98748000Y-38952713D02*
X98941524Y-39013189D01*
X98941524Y-39013189D02*
X99328572Y-39061570D01*
X99328572Y-39061570D02*
X99425334Y-39037379D01*
X99425334Y-39037379D02*
X99473715Y-39007141D01*
X99473715Y-39007141D02*
X99522095Y-38940617D01*
X99522095Y-38940617D02*
X99522095Y-38795475D01*
X99522095Y-38795475D02*
X99473715Y-38716856D01*
X99473715Y-38716856D02*
X99425334Y-38674522D01*
X99425334Y-38674522D02*
X99328572Y-38626141D01*
X99328572Y-38626141D02*
X99086667Y-38595903D01*
X99086667Y-38595903D02*
X98989905Y-38620094D01*
X98989905Y-38620094D02*
X98941524Y-38650332D01*
X98941524Y-38650332D02*
X98893143Y-38716856D01*
X98893143Y-38716856D02*
X98893143Y-38861998D01*
X98893143Y-38861998D02*
X98941524Y-38940617D01*
X98941524Y-38940617D02*
X98989905Y-38982951D01*
X98989905Y-38982951D02*
X99086667Y-39031332D01*
D11*
X48789580Y-89706666D02*
X48837200Y-89754285D01*
X48837200Y-89754285D02*
X48884819Y-89897142D01*
X48884819Y-89897142D02*
X48884819Y-89992380D01*
X48884819Y-89992380D02*
X48837200Y-90135237D01*
X48837200Y-90135237D02*
X48741961Y-90230475D01*
X48741961Y-90230475D02*
X48646723Y-90278094D01*
X48646723Y-90278094D02*
X48456247Y-90325713D01*
X48456247Y-90325713D02*
X48313390Y-90325713D01*
X48313390Y-90325713D02*
X48122914Y-90278094D01*
X48122914Y-90278094D02*
X48027676Y-90230475D01*
X48027676Y-90230475D02*
X47932438Y-90135237D01*
X47932438Y-90135237D02*
X47884819Y-89992380D01*
X47884819Y-89992380D02*
X47884819Y-89897142D01*
X47884819Y-89897142D02*
X47932438Y-89754285D01*
X47932438Y-89754285D02*
X47980057Y-89706666D01*
X47980057Y-89325713D02*
X47932438Y-89278094D01*
X47932438Y-89278094D02*
X47884819Y-89182856D01*
X47884819Y-89182856D02*
X47884819Y-88944761D01*
X47884819Y-88944761D02*
X47932438Y-88849523D01*
X47932438Y-88849523D02*
X47980057Y-88801904D01*
X47980057Y-88801904D02*
X48075295Y-88754285D01*
X48075295Y-88754285D02*
X48170533Y-88754285D01*
X48170533Y-88754285D02*
X48313390Y-88801904D01*
X48313390Y-88801904D02*
X48884819Y-89373332D01*
X48884819Y-89373332D02*
X48884819Y-88754285D01*
X104613333Y-56069580D02*
X104565714Y-56117200D01*
X104565714Y-56117200D02*
X104422857Y-56164819D01*
X104422857Y-56164819D02*
X104327619Y-56164819D01*
X104327619Y-56164819D02*
X104184762Y-56117200D01*
X104184762Y-56117200D02*
X104089524Y-56021961D01*
X104089524Y-56021961D02*
X104041905Y-55926723D01*
X104041905Y-55926723D02*
X103994286Y-55736247D01*
X103994286Y-55736247D02*
X103994286Y-55593390D01*
X103994286Y-55593390D02*
X104041905Y-55402914D01*
X104041905Y-55402914D02*
X104089524Y-55307676D01*
X104089524Y-55307676D02*
X104184762Y-55212438D01*
X104184762Y-55212438D02*
X104327619Y-55164819D01*
X104327619Y-55164819D02*
X104422857Y-55164819D01*
X104422857Y-55164819D02*
X104565714Y-55212438D01*
X104565714Y-55212438D02*
X104613333Y-55260057D01*
X105565714Y-56164819D02*
X104994286Y-56164819D01*
X105280000Y-56164819D02*
X105280000Y-55164819D01*
X105280000Y-55164819D02*
X105184762Y-55307676D01*
X105184762Y-55307676D02*
X105089524Y-55402914D01*
X105089524Y-55402914D02*
X104994286Y-55450533D01*
X26517200Y-71183332D02*
X26564819Y-71040475D01*
X26564819Y-71040475D02*
X26564819Y-70802380D01*
X26564819Y-70802380D02*
X26517200Y-70707142D01*
X26517200Y-70707142D02*
X26469580Y-70659523D01*
X26469580Y-70659523D02*
X26374342Y-70611904D01*
X26374342Y-70611904D02*
X26279104Y-70611904D01*
X26279104Y-70611904D02*
X26183866Y-70659523D01*
X26183866Y-70659523D02*
X26136247Y-70707142D01*
X26136247Y-70707142D02*
X26088628Y-70802380D01*
X26088628Y-70802380D02*
X26041009Y-70992856D01*
X26041009Y-70992856D02*
X25993390Y-71088094D01*
X25993390Y-71088094D02*
X25945771Y-71135713D01*
X25945771Y-71135713D02*
X25850533Y-71183332D01*
X25850533Y-71183332D02*
X25755295Y-71183332D01*
X25755295Y-71183332D02*
X25660057Y-71135713D01*
X25660057Y-71135713D02*
X25612438Y-71088094D01*
X25612438Y-71088094D02*
X25564819Y-70992856D01*
X25564819Y-70992856D02*
X25564819Y-70754761D01*
X25564819Y-70754761D02*
X25612438Y-70611904D01*
X25564819Y-70278570D02*
X26564819Y-70040475D01*
X26564819Y-70040475D02*
X25850533Y-69849999D01*
X25850533Y-69849999D02*
X26564819Y-69659523D01*
X26564819Y-69659523D02*
X25564819Y-69421428D01*
X26564819Y-68516666D02*
X26564819Y-69088094D01*
X26564819Y-68802380D02*
X25564819Y-68802380D01*
X25564819Y-68802380D02*
X25707676Y-68897618D01*
X25707676Y-68897618D02*
X25802914Y-68992856D01*
X25802914Y-68992856D02*
X25850533Y-69088094D01*
X51159580Y-58586666D02*
X51207200Y-58634285D01*
X51207200Y-58634285D02*
X51254819Y-58777142D01*
X51254819Y-58777142D02*
X51254819Y-58872380D01*
X51254819Y-58872380D02*
X51207200Y-59015237D01*
X51207200Y-59015237D02*
X51111961Y-59110475D01*
X51111961Y-59110475D02*
X51016723Y-59158094D01*
X51016723Y-59158094D02*
X50826247Y-59205713D01*
X50826247Y-59205713D02*
X50683390Y-59205713D01*
X50683390Y-59205713D02*
X50492914Y-59158094D01*
X50492914Y-59158094D02*
X50397676Y-59110475D01*
X50397676Y-59110475D02*
X50302438Y-59015237D01*
X50302438Y-59015237D02*
X50254819Y-58872380D01*
X50254819Y-58872380D02*
X50254819Y-58777142D01*
X50254819Y-58777142D02*
X50302438Y-58634285D01*
X50302438Y-58634285D02*
X50350057Y-58586666D01*
X50254819Y-57729523D02*
X50254819Y-57919999D01*
X50254819Y-57919999D02*
X50302438Y-58015237D01*
X50302438Y-58015237D02*
X50350057Y-58062856D01*
X50350057Y-58062856D02*
X50492914Y-58158094D01*
X50492914Y-58158094D02*
X50683390Y-58205713D01*
X50683390Y-58205713D02*
X51064342Y-58205713D01*
X51064342Y-58205713D02*
X51159580Y-58158094D01*
X51159580Y-58158094D02*
X51207200Y-58110475D01*
X51207200Y-58110475D02*
X51254819Y-58015237D01*
X51254819Y-58015237D02*
X51254819Y-57824761D01*
X51254819Y-57824761D02*
X51207200Y-57729523D01*
X51207200Y-57729523D02*
X51159580Y-57681904D01*
X51159580Y-57681904D02*
X51064342Y-57634285D01*
X51064342Y-57634285D02*
X50826247Y-57634285D01*
X50826247Y-57634285D02*
X50731009Y-57681904D01*
X50731009Y-57681904D02*
X50683390Y-57729523D01*
X50683390Y-57729523D02*
X50635771Y-57824761D01*
X50635771Y-57824761D02*
X50635771Y-58015237D01*
X50635771Y-58015237D02*
X50683390Y-58110475D01*
X50683390Y-58110475D02*
X50731009Y-58158094D01*
X50731009Y-58158094D02*
X50826247Y-58205713D01*
D14*
%TO.C,J1*%
X20140000Y-76680000D02*
X34840000Y-76680000D01*
X20140000Y-85880000D02*
X20140000Y-76680000D01*
X28940000Y-85880000D02*
X20140000Y-85880000D01*
X33990000Y-76480000D02*
X35040000Y-76480000D01*
X34840000Y-76680000D02*
X34840000Y-79280000D01*
X34840000Y-83180000D02*
X34840000Y-85880000D01*
X34840000Y-85880000D02*
X32940000Y-85880000D01*
X35040000Y-77530000D02*
X35040000Y-76480000D01*
%TO.C,C5*%
X91215000Y-85130302D02*
X91215000Y-85930302D01*
X91615000Y-85530302D02*
X90815000Y-85530302D01*
X92980000Y-89540000D02*
X84820000Y-89540000D01*
X92980000Y-89580000D02*
X84820000Y-89580000D01*
X92980000Y-89620000D02*
X84820000Y-89620000D01*
X92979000Y-89660000D02*
X84821000Y-89660000D01*
X92977000Y-89700000D02*
X84823000Y-89700000D01*
X92976000Y-89740000D02*
X84824000Y-89740000D01*
X92974000Y-89780000D02*
X84826000Y-89780000D01*
X92971000Y-89820000D02*
X84829000Y-89820000D01*
X92968000Y-89860000D02*
X84832000Y-89860000D01*
X92965000Y-89900000D02*
X84835000Y-89900000D01*
X92961000Y-89940000D02*
X84839000Y-89940000D01*
X92957000Y-89980000D02*
X84843000Y-89980000D01*
X92952000Y-90020000D02*
X84848000Y-90020000D01*
X92948000Y-90060000D02*
X84852000Y-90060000D01*
X92942000Y-90100000D02*
X84858000Y-90100000D01*
X92937000Y-90140000D02*
X84863000Y-90140000D01*
X92930000Y-90180000D02*
X84870000Y-90180000D01*
X92924000Y-90220000D02*
X84876000Y-90220000D01*
X92917000Y-90261000D02*
X84883000Y-90261000D01*
X92910000Y-90301000D02*
X84890000Y-90301000D01*
X92902000Y-90341000D02*
X84898000Y-90341000D01*
X92894000Y-90381000D02*
X84906000Y-90381000D01*
X92885000Y-90421000D02*
X89940000Y-90421000D01*
X87860000Y-90421000D02*
X84915000Y-90421000D01*
X92876000Y-90461000D02*
X89940000Y-90461000D01*
X87860000Y-90461000D02*
X84924000Y-90461000D01*
X92867000Y-90501000D02*
X89940000Y-90501000D01*
X87860000Y-90501000D02*
X84933000Y-90501000D01*
X92857000Y-90541000D02*
X89940000Y-90541000D01*
X87860000Y-90541000D02*
X84943000Y-90541000D01*
X92847000Y-90581000D02*
X89940000Y-90581000D01*
X87860000Y-90581000D02*
X84953000Y-90581000D01*
X92836000Y-90621000D02*
X89940000Y-90621000D01*
X87860000Y-90621000D02*
X84964000Y-90621000D01*
X92825000Y-90661000D02*
X89940000Y-90661000D01*
X87860000Y-90661000D02*
X84975000Y-90661000D01*
X92814000Y-90701000D02*
X89940000Y-90701000D01*
X87860000Y-90701000D02*
X84986000Y-90701000D01*
X92802000Y-90741000D02*
X89940000Y-90741000D01*
X87860000Y-90741000D02*
X84998000Y-90741000D01*
X92789000Y-90781000D02*
X89940000Y-90781000D01*
X87860000Y-90781000D02*
X85011000Y-90781000D01*
X92777000Y-90821000D02*
X89940000Y-90821000D01*
X87860000Y-90821000D02*
X85023000Y-90821000D01*
X92763000Y-90861000D02*
X89940000Y-90861000D01*
X87860000Y-90861000D02*
X85037000Y-90861000D01*
X92750000Y-90901000D02*
X89940000Y-90901000D01*
X87860000Y-90901000D02*
X85050000Y-90901000D01*
X92735000Y-90941000D02*
X89940000Y-90941000D01*
X87860000Y-90941000D02*
X85065000Y-90941000D01*
X92721000Y-90981000D02*
X89940000Y-90981000D01*
X87860000Y-90981000D02*
X85079000Y-90981000D01*
X92705000Y-91021000D02*
X89940000Y-91021000D01*
X87860000Y-91021000D02*
X85095000Y-91021000D01*
X92690000Y-91061000D02*
X89940000Y-91061000D01*
X87860000Y-91061000D02*
X85110000Y-91061000D01*
X92674000Y-91101000D02*
X89940000Y-91101000D01*
X87860000Y-91101000D02*
X85126000Y-91101000D01*
X92657000Y-91141000D02*
X89940000Y-91141000D01*
X87860000Y-91141000D02*
X85143000Y-91141000D01*
X92640000Y-91181000D02*
X89940000Y-91181000D01*
X87860000Y-91181000D02*
X85160000Y-91181000D01*
X92622000Y-91221000D02*
X89940000Y-91221000D01*
X87860000Y-91221000D02*
X85178000Y-91221000D01*
X92604000Y-91261000D02*
X89940000Y-91261000D01*
X87860000Y-91261000D02*
X85196000Y-91261000D01*
X92586000Y-91301000D02*
X89940000Y-91301000D01*
X87860000Y-91301000D02*
X85214000Y-91301000D01*
X92566000Y-91341000D02*
X89940000Y-91341000D01*
X87860000Y-91341000D02*
X85234000Y-91341000D01*
X92547000Y-91381000D02*
X89940000Y-91381000D01*
X87860000Y-91381000D02*
X85253000Y-91381000D01*
X92527000Y-91421000D02*
X89940000Y-91421000D01*
X87860000Y-91421000D02*
X85273000Y-91421000D01*
X92506000Y-91461000D02*
X89940000Y-91461000D01*
X87860000Y-91461000D02*
X85294000Y-91461000D01*
X92484000Y-91501000D02*
X89940000Y-91501000D01*
X87860000Y-91501000D02*
X85316000Y-91501000D01*
X92462000Y-91541000D02*
X89940000Y-91541000D01*
X87860000Y-91541000D02*
X85338000Y-91541000D01*
X92440000Y-91581000D02*
X89940000Y-91581000D01*
X87860000Y-91581000D02*
X85360000Y-91581000D01*
X92417000Y-91621000D02*
X89940000Y-91621000D01*
X87860000Y-91621000D02*
X85383000Y-91621000D01*
X92393000Y-91661000D02*
X89940000Y-91661000D01*
X87860000Y-91661000D02*
X85407000Y-91661000D01*
X92369000Y-91701000D02*
X89940000Y-91701000D01*
X87860000Y-91701000D02*
X85431000Y-91701000D01*
X92344000Y-91741000D02*
X89940000Y-91741000D01*
X87860000Y-91741000D02*
X85456000Y-91741000D01*
X92318000Y-91781000D02*
X89940000Y-91781000D01*
X87860000Y-91781000D02*
X85482000Y-91781000D01*
X92292000Y-91821000D02*
X89940000Y-91821000D01*
X87860000Y-91821000D02*
X85508000Y-91821000D01*
X92265000Y-91861000D02*
X89940000Y-91861000D01*
X87860000Y-91861000D02*
X85535000Y-91861000D01*
X92238000Y-91901000D02*
X89940000Y-91901000D01*
X87860000Y-91901000D02*
X85562000Y-91901000D01*
X92209000Y-91941000D02*
X89940000Y-91941000D01*
X87860000Y-91941000D02*
X85591000Y-91941000D01*
X92180000Y-91981000D02*
X89940000Y-91981000D01*
X87860000Y-91981000D02*
X85620000Y-91981000D01*
X92150000Y-92021000D02*
X89940000Y-92021000D01*
X87860000Y-92021000D02*
X85650000Y-92021000D01*
X92120000Y-92061000D02*
X89940000Y-92061000D01*
X87860000Y-92061000D02*
X85680000Y-92061000D01*
X92089000Y-92101000D02*
X89940000Y-92101000D01*
X87860000Y-92101000D02*
X85711000Y-92101000D01*
X92056000Y-92141000D02*
X89940000Y-92141000D01*
X87860000Y-92141000D02*
X85744000Y-92141000D01*
X92024000Y-92181000D02*
X89940000Y-92181000D01*
X87860000Y-92181000D02*
X85776000Y-92181000D01*
X91990000Y-92221000D02*
X89940000Y-92221000D01*
X87860000Y-92221000D02*
X85810000Y-92221000D01*
X91955000Y-92261000D02*
X89940000Y-92261000D01*
X87860000Y-92261000D02*
X85845000Y-92261000D01*
X91919000Y-92301000D02*
X89940000Y-92301000D01*
X87860000Y-92301000D02*
X85881000Y-92301000D01*
X91883000Y-92341000D02*
X89940000Y-92341000D01*
X87860000Y-92341000D02*
X85917000Y-92341000D01*
X91845000Y-92381000D02*
X89940000Y-92381000D01*
X87860000Y-92381000D02*
X85955000Y-92381000D01*
X91807000Y-92421000D02*
X89940000Y-92421000D01*
X87860000Y-92421000D02*
X85993000Y-92421000D01*
X91767000Y-92461000D02*
X89940000Y-92461000D01*
X87860000Y-92461000D02*
X86033000Y-92461000D01*
X91726000Y-92501000D02*
X86074000Y-92501000D01*
X91684000Y-92541000D02*
X86116000Y-92541000D01*
X91641000Y-92581000D02*
X86159000Y-92581000D01*
X91597000Y-92621000D02*
X86203000Y-92621000D01*
X91551000Y-92661000D02*
X86249000Y-92661000D01*
X91504000Y-92701000D02*
X86296000Y-92701000D01*
X91456000Y-92741000D02*
X86344000Y-92741000D01*
X91405000Y-92781000D02*
X86395000Y-92781000D01*
X91354000Y-92821000D02*
X86446000Y-92821000D01*
X91300000Y-92861000D02*
X86500000Y-92861000D01*
X91245000Y-92901000D02*
X86555000Y-92901000D01*
X91187000Y-92941000D02*
X86613000Y-92941000D01*
X91128000Y-92981000D02*
X86672000Y-92981000D01*
X91066000Y-93021000D02*
X86734000Y-93021000D01*
X91002000Y-93061000D02*
X86798000Y-93061000D01*
X90934000Y-93101000D02*
X86866000Y-93101000D01*
X90864000Y-93141000D02*
X86936000Y-93141000D01*
X90790000Y-93181000D02*
X87010000Y-93181000D01*
X90713000Y-93221000D02*
X87087000Y-93221000D01*
X90631000Y-93261000D02*
X87169000Y-93261000D01*
X90545000Y-93301000D02*
X87255000Y-93301000D01*
X90452000Y-93341000D02*
X87348000Y-93341000D01*
X90353000Y-93381000D02*
X87447000Y-93381000D01*
X90246000Y-93421000D02*
X87554000Y-93421000D01*
X90129000Y-93461000D02*
X87671000Y-93461000D01*
X89998000Y-93501000D02*
X87802000Y-93501000D01*
X89848000Y-93541000D02*
X87952000Y-93541000D01*
X89668000Y-93581000D02*
X88132000Y-93581000D01*
X89433000Y-93621000D02*
X88367000Y-93621000D01*
X93020000Y-89540000D02*
G75*
G03*
X93020000Y-89540000I-4120000J0D01*
G01*
%TO.C,D2*%
X43180000Y-77400000D02*
X43180000Y-76380000D01*
X41710000Y-76380000D02*
X44650000Y-76380000D01*
X44650000Y-76380000D02*
X44650000Y-70940000D01*
X41710000Y-75600000D02*
X44650000Y-75600000D01*
X41710000Y-75480000D02*
X44650000Y-75480000D01*
X41710000Y-75360000D02*
X44650000Y-75360000D01*
X41710000Y-70940000D02*
X41710000Y-76380000D01*
X44650000Y-70940000D02*
X41710000Y-70940000D01*
X43180000Y-69920000D02*
X43180000Y-70940000D01*
%TO.C,D4*%
X112050000Y-85056000D02*
X112050000Y-84900000D01*
X112050000Y-82740000D02*
X112050000Y-82584000D01*
X108817666Y-84898608D02*
G75*
G03*
X112049999Y-85055515I1672334J1078608D01*
G01*
X109448871Y-84899836D02*
G75*
G03*
X111530960Y-84899999I1041129J1079836D01*
G01*
X111530960Y-82740001D02*
G75*
G03*
X109448871Y-82740164I-1040960J-1079999D01*
G01*
X112049999Y-82584485D02*
G75*
G03*
X108817666Y-82741392I-1559999J-1235515D01*
G01*
%TO.C,U1*%
X52010000Y-62110000D02*
X52010000Y-80130000D01*
X52010000Y-80130000D02*
X62290000Y-80130000D01*
X54500000Y-62170000D02*
X54500000Y-80070000D01*
X54500000Y-80070000D02*
X59800000Y-80070000D01*
X56150000Y-62170000D02*
X54500000Y-62170000D01*
X59800000Y-62170000D02*
X58150000Y-62170000D01*
X59800000Y-80070000D02*
X59800000Y-62170000D01*
X62290000Y-62110000D02*
X52010000Y-62110000D01*
X62290000Y-80130000D02*
X62290000Y-62110000D01*
X56150000Y-62170000D02*
G75*
G03*
X58150000Y-62170000I1000000J0D01*
G01*
%TO.C,D1*%
X43180000Y-34060000D02*
X43180000Y-34710000D01*
X44300000Y-34710000D02*
X42060000Y-34710000D01*
X42060000Y-34710000D02*
X42060000Y-38950000D01*
X44300000Y-35310000D02*
X42060000Y-35310000D01*
X44300000Y-35430000D02*
X42060000Y-35430000D01*
X44300000Y-35550000D02*
X42060000Y-35550000D01*
X44300000Y-38950000D02*
X44300000Y-34710000D01*
X42060000Y-38950000D02*
X44300000Y-38950000D01*
X43180000Y-39600000D02*
X43180000Y-38950000D01*
%TO.C,R1*%
X59590000Y-40100000D02*
X59590000Y-33560000D01*
X59920000Y-40100000D02*
X59590000Y-40100000D01*
X62000000Y-40100000D02*
X62330000Y-40100000D01*
X62330000Y-40100000D02*
X62330000Y-33560000D01*
X59590000Y-33560000D02*
X59920000Y-33560000D01*
X62330000Y-33560000D02*
X62000000Y-33560000D01*
%TO.C,C3*%
X54710000Y-85740000D02*
X54265000Y-85740000D01*
X54710000Y-85740000D02*
X54710000Y-91980000D01*
X52415000Y-85740000D02*
X51970000Y-85740000D01*
X51970000Y-85740000D02*
X51970000Y-91980000D01*
X54710000Y-91980000D02*
X54265000Y-91980000D01*
X52415000Y-91980000D02*
X51970000Y-91980000D01*
%TO.C,R2*%
X51970000Y-40100000D02*
X51970000Y-33560000D01*
X52300000Y-40100000D02*
X51970000Y-40100000D01*
X54380000Y-40100000D02*
X54710000Y-40100000D01*
X54710000Y-40100000D02*
X54710000Y-33560000D01*
X51970000Y-33560000D02*
X52300000Y-33560000D01*
X54710000Y-33560000D02*
X54380000Y-33560000D01*
%TO.C,D3*%
X112050000Y-77436000D02*
X112050000Y-77280000D01*
X112050000Y-75120000D02*
X112050000Y-74964000D01*
X108817666Y-77278608D02*
G75*
G03*
X112049999Y-77435515I1672334J1078608D01*
G01*
X109448871Y-77279836D02*
G75*
G03*
X111530960Y-77279999I1041129J1079836D01*
G01*
X111530960Y-75120001D02*
G75*
G03*
X109448871Y-75120164I-1040960J-1079999D01*
G01*
X112049999Y-74964485D02*
G75*
G03*
X108817666Y-75121392I-1559999J-1235515D01*
G01*
%TO.C,U2*%
X50110000Y-36090000D02*
X50110000Y-32490000D01*
X45660000Y-34290000D02*
G75*
G03*
X50098478Y-36128478I2600000J0D01*
G01*
X50098478Y-32451522D02*
G75*
G03*
X45660000Y-34290000I-1838478J-1838478D01*
G01*
%TO.C,R3*%
X60420000Y-49630000D02*
X53880000Y-49630000D01*
X60420000Y-49300000D02*
X60420000Y-49630000D01*
X60420000Y-47220000D02*
X60420000Y-46890000D01*
X60420000Y-46890000D02*
X53880000Y-46890000D01*
X53880000Y-49630000D02*
X53880000Y-49300000D01*
X53880000Y-46890000D02*
X53880000Y-47220000D01*
%TO.C,R4*%
X95790000Y-74830000D02*
X102330000Y-74830000D01*
X95790000Y-75160000D02*
X95790000Y-74830000D01*
X95790000Y-77240000D02*
X95790000Y-77570000D01*
X95790000Y-77570000D02*
X102330000Y-77570000D01*
X102330000Y-74830000D02*
X102330000Y-75160000D01*
X102330000Y-77570000D02*
X102330000Y-77240000D01*
%TO.C,C4*%
X80110000Y-85740000D02*
X79665000Y-85740000D01*
X80110000Y-85740000D02*
X80110000Y-91980000D01*
X77815000Y-85740000D02*
X77370000Y-85740000D01*
X77370000Y-85740000D02*
X77370000Y-91980000D01*
X80110000Y-91980000D02*
X79665000Y-91980000D01*
X77815000Y-91980000D02*
X77370000Y-91980000D01*
%TO.C,J2*%
X36280331Y-32785000D02*
X36280331Y-63755000D01*
X25800331Y-32785000D02*
X36280331Y-32785000D01*
X37174669Y-53560000D02*
X37174669Y-54060000D01*
X36741656Y-53810000D02*
X37174669Y-53560000D01*
X37174669Y-54060000D02*
X36741656Y-53810000D01*
X36280331Y-63755000D02*
X25800331Y-63755000D01*
%TO.C,Q1*%
X50060000Y-46410000D02*
X46460000Y-46410000D01*
X48260000Y-50860000D02*
G75*
G03*
X50098478Y-46421522I0J2600000D01*
G01*
X46421522Y-46421522D02*
G75*
G03*
X48260000Y-50860000I1838478J-1838478D01*
G01*
%TO.C,A1*%
X90300000Y-72520000D02*
X90300000Y-69850000D01*
X90300000Y-67310000D02*
X90300000Y-29080000D01*
X90300000Y-29080000D02*
X85220000Y-29080000D01*
X87630000Y-69850000D02*
X90300000Y-69850000D01*
X87630000Y-67310000D02*
X90300000Y-67310000D01*
X87630000Y-67310000D02*
X87630000Y-69850000D01*
X87630000Y-67310000D02*
X87630000Y-31750000D01*
X87630000Y-31750000D02*
X90300000Y-31750000D01*
X85220000Y-36960000D02*
X77340000Y-36960000D01*
X85220000Y-26540000D02*
X85220000Y-36960000D01*
X77340000Y-36960000D02*
X77340000Y-26540000D01*
X77340000Y-26540000D02*
X85220000Y-26540000D01*
X74930000Y-69850000D02*
X74930000Y-31750000D01*
X74930000Y-69850000D02*
X72260000Y-69850000D01*
X74930000Y-31750000D02*
X72260000Y-31750000D01*
X72260000Y-72520000D02*
X90300000Y-72520000D01*
X72260000Y-29080000D02*
X77340000Y-29080000D01*
X72260000Y-29080000D02*
X72260000Y-72520000D01*
%TO.C,R5*%
X95790000Y-82450000D02*
X102330000Y-82450000D01*
X95790000Y-82780000D02*
X95790000Y-82450000D01*
X95790000Y-84860000D02*
X95790000Y-85190000D01*
X95790000Y-85190000D02*
X102330000Y-85190000D01*
X102330000Y-82450000D02*
X102330000Y-82780000D01*
X102330000Y-85190000D02*
X102330000Y-84860000D01*
%TO.C,U3*%
X60920000Y-88170000D02*
X60920000Y-92811000D01*
X60920000Y-88170000D02*
X71160000Y-88170000D01*
X60920000Y-89680000D02*
X71160000Y-89680000D01*
X60920000Y-92811000D02*
X71160000Y-92811000D01*
X64190000Y-88170000D02*
X64190000Y-89680000D01*
X67891000Y-88170000D02*
X67891000Y-89680000D01*
X71160000Y-88170000D02*
X71160000Y-92811000D01*
D15*
%TO.C,J3*%
X116840000Y-35369500D02*
X116840000Y-49369980D01*
X103840280Y-35369500D02*
X116840000Y-35369500D01*
X116840000Y-49369980D02*
X103840280Y-49369980D01*
X103840280Y-49369980D02*
X103840280Y-35369500D01*
D14*
%TO.C,C2*%
X45495000Y-85130302D02*
X45495000Y-85930302D01*
X45895000Y-85530302D02*
X45095000Y-85530302D01*
X47260000Y-89540000D02*
X39100000Y-89540000D01*
X47260000Y-89580000D02*
X39100000Y-89580000D01*
X47260000Y-89620000D02*
X39100000Y-89620000D01*
X47259000Y-89660000D02*
X39101000Y-89660000D01*
X47257000Y-89700000D02*
X39103000Y-89700000D01*
X47256000Y-89740000D02*
X39104000Y-89740000D01*
X47254000Y-89780000D02*
X39106000Y-89780000D01*
X47251000Y-89820000D02*
X39109000Y-89820000D01*
X47248000Y-89860000D02*
X39112000Y-89860000D01*
X47245000Y-89900000D02*
X39115000Y-89900000D01*
X47241000Y-89940000D02*
X39119000Y-89940000D01*
X47237000Y-89980000D02*
X39123000Y-89980000D01*
X47232000Y-90020000D02*
X39128000Y-90020000D01*
X47228000Y-90060000D02*
X39132000Y-90060000D01*
X47222000Y-90100000D02*
X39138000Y-90100000D01*
X47217000Y-90140000D02*
X39143000Y-90140000D01*
X47210000Y-90180000D02*
X39150000Y-90180000D01*
X47204000Y-90220000D02*
X39156000Y-90220000D01*
X47197000Y-90261000D02*
X39163000Y-90261000D01*
X47190000Y-90301000D02*
X39170000Y-90301000D01*
X47182000Y-90341000D02*
X39178000Y-90341000D01*
X47174000Y-90381000D02*
X39186000Y-90381000D01*
X47165000Y-90421000D02*
X44220000Y-90421000D01*
X42140000Y-90421000D02*
X39195000Y-90421000D01*
X47156000Y-90461000D02*
X44220000Y-90461000D01*
X42140000Y-90461000D02*
X39204000Y-90461000D01*
X47147000Y-90501000D02*
X44220000Y-90501000D01*
X42140000Y-90501000D02*
X39213000Y-90501000D01*
X47137000Y-90541000D02*
X44220000Y-90541000D01*
X42140000Y-90541000D02*
X39223000Y-90541000D01*
X47127000Y-90581000D02*
X44220000Y-90581000D01*
X42140000Y-90581000D02*
X39233000Y-90581000D01*
X47116000Y-90621000D02*
X44220000Y-90621000D01*
X42140000Y-90621000D02*
X39244000Y-90621000D01*
X47105000Y-90661000D02*
X44220000Y-90661000D01*
X42140000Y-90661000D02*
X39255000Y-90661000D01*
X47094000Y-90701000D02*
X44220000Y-90701000D01*
X42140000Y-90701000D02*
X39266000Y-90701000D01*
X47082000Y-90741000D02*
X44220000Y-90741000D01*
X42140000Y-90741000D02*
X39278000Y-90741000D01*
X47069000Y-90781000D02*
X44220000Y-90781000D01*
X42140000Y-90781000D02*
X39291000Y-90781000D01*
X47057000Y-90821000D02*
X44220000Y-90821000D01*
X42140000Y-90821000D02*
X39303000Y-90821000D01*
X47043000Y-90861000D02*
X44220000Y-90861000D01*
X42140000Y-90861000D02*
X39317000Y-90861000D01*
X47030000Y-90901000D02*
X44220000Y-90901000D01*
X42140000Y-90901000D02*
X39330000Y-90901000D01*
X47015000Y-90941000D02*
X44220000Y-90941000D01*
X42140000Y-90941000D02*
X39345000Y-90941000D01*
X47001000Y-90981000D02*
X44220000Y-90981000D01*
X42140000Y-90981000D02*
X39359000Y-90981000D01*
X46985000Y-91021000D02*
X44220000Y-91021000D01*
X42140000Y-91021000D02*
X39375000Y-91021000D01*
X46970000Y-91061000D02*
X44220000Y-91061000D01*
X42140000Y-91061000D02*
X39390000Y-91061000D01*
X46954000Y-91101000D02*
X44220000Y-91101000D01*
X42140000Y-91101000D02*
X39406000Y-91101000D01*
X46937000Y-91141000D02*
X44220000Y-91141000D01*
X42140000Y-91141000D02*
X39423000Y-91141000D01*
X46920000Y-91181000D02*
X44220000Y-91181000D01*
X42140000Y-91181000D02*
X39440000Y-91181000D01*
X46902000Y-91221000D02*
X44220000Y-91221000D01*
X42140000Y-91221000D02*
X39458000Y-91221000D01*
X46884000Y-91261000D02*
X44220000Y-91261000D01*
X42140000Y-91261000D02*
X39476000Y-91261000D01*
X46866000Y-91301000D02*
X44220000Y-91301000D01*
X42140000Y-91301000D02*
X39494000Y-91301000D01*
X46846000Y-91341000D02*
X44220000Y-91341000D01*
X42140000Y-91341000D02*
X39514000Y-91341000D01*
X46827000Y-91381000D02*
X44220000Y-91381000D01*
X42140000Y-91381000D02*
X39533000Y-91381000D01*
X46807000Y-91421000D02*
X44220000Y-91421000D01*
X42140000Y-91421000D02*
X39553000Y-91421000D01*
X46786000Y-91461000D02*
X44220000Y-91461000D01*
X42140000Y-91461000D02*
X39574000Y-91461000D01*
X46764000Y-91501000D02*
X44220000Y-91501000D01*
X42140000Y-91501000D02*
X39596000Y-91501000D01*
X46742000Y-91541000D02*
X44220000Y-91541000D01*
X42140000Y-91541000D02*
X39618000Y-91541000D01*
X46720000Y-91581000D02*
X44220000Y-91581000D01*
X42140000Y-91581000D02*
X39640000Y-91581000D01*
X46697000Y-91621000D02*
X44220000Y-91621000D01*
X42140000Y-91621000D02*
X39663000Y-91621000D01*
X46673000Y-91661000D02*
X44220000Y-91661000D01*
X42140000Y-91661000D02*
X39687000Y-91661000D01*
X46649000Y-91701000D02*
X44220000Y-91701000D01*
X42140000Y-91701000D02*
X39711000Y-91701000D01*
X46624000Y-91741000D02*
X44220000Y-91741000D01*
X42140000Y-91741000D02*
X39736000Y-91741000D01*
X46598000Y-91781000D02*
X44220000Y-91781000D01*
X42140000Y-91781000D02*
X39762000Y-91781000D01*
X46572000Y-91821000D02*
X44220000Y-91821000D01*
X42140000Y-91821000D02*
X39788000Y-91821000D01*
X46545000Y-91861000D02*
X44220000Y-91861000D01*
X42140000Y-91861000D02*
X39815000Y-91861000D01*
X46518000Y-91901000D02*
X44220000Y-91901000D01*
X42140000Y-91901000D02*
X39842000Y-91901000D01*
X46489000Y-91941000D02*
X44220000Y-91941000D01*
X42140000Y-91941000D02*
X39871000Y-91941000D01*
X46460000Y-91981000D02*
X44220000Y-91981000D01*
X42140000Y-91981000D02*
X39900000Y-91981000D01*
X46430000Y-92021000D02*
X44220000Y-92021000D01*
X42140000Y-92021000D02*
X39930000Y-92021000D01*
X46400000Y-92061000D02*
X44220000Y-92061000D01*
X42140000Y-92061000D02*
X39960000Y-92061000D01*
X46369000Y-92101000D02*
X44220000Y-92101000D01*
X42140000Y-92101000D02*
X39991000Y-92101000D01*
X46336000Y-92141000D02*
X44220000Y-92141000D01*
X42140000Y-92141000D02*
X40024000Y-92141000D01*
X46304000Y-92181000D02*
X44220000Y-92181000D01*
X42140000Y-92181000D02*
X40056000Y-92181000D01*
X46270000Y-92221000D02*
X44220000Y-92221000D01*
X42140000Y-92221000D02*
X40090000Y-92221000D01*
X46235000Y-92261000D02*
X44220000Y-92261000D01*
X42140000Y-92261000D02*
X40125000Y-92261000D01*
X46199000Y-92301000D02*
X44220000Y-92301000D01*
X42140000Y-92301000D02*
X40161000Y-92301000D01*
X46163000Y-92341000D02*
X44220000Y-92341000D01*
X42140000Y-92341000D02*
X40197000Y-92341000D01*
X46125000Y-92381000D02*
X44220000Y-92381000D01*
X42140000Y-92381000D02*
X40235000Y-92381000D01*
X46087000Y-92421000D02*
X44220000Y-92421000D01*
X42140000Y-92421000D02*
X40273000Y-92421000D01*
X46047000Y-92461000D02*
X44220000Y-92461000D01*
X42140000Y-92461000D02*
X40313000Y-92461000D01*
X46006000Y-92501000D02*
X40354000Y-92501000D01*
X45964000Y-92541000D02*
X40396000Y-92541000D01*
X45921000Y-92581000D02*
X40439000Y-92581000D01*
X45877000Y-92621000D02*
X40483000Y-92621000D01*
X45831000Y-92661000D02*
X40529000Y-92661000D01*
X45784000Y-92701000D02*
X40576000Y-92701000D01*
X45736000Y-92741000D02*
X40624000Y-92741000D01*
X45685000Y-92781000D02*
X40675000Y-92781000D01*
X45634000Y-92821000D02*
X40726000Y-92821000D01*
X45580000Y-92861000D02*
X40780000Y-92861000D01*
X45525000Y-92901000D02*
X40835000Y-92901000D01*
X45467000Y-92941000D02*
X40893000Y-92941000D01*
X45408000Y-92981000D02*
X40952000Y-92981000D01*
X45346000Y-93021000D02*
X41014000Y-93021000D01*
X45282000Y-93061000D02*
X41078000Y-93061000D01*
X45214000Y-93101000D02*
X41146000Y-93101000D01*
X45144000Y-93141000D02*
X41216000Y-93141000D01*
X45070000Y-93181000D02*
X41290000Y-93181000D01*
X44993000Y-93221000D02*
X41367000Y-93221000D01*
X44911000Y-93261000D02*
X41449000Y-93261000D01*
X44825000Y-93301000D02*
X41535000Y-93301000D01*
X44732000Y-93341000D02*
X41628000Y-93341000D01*
X44633000Y-93381000D02*
X41727000Y-93381000D01*
X44526000Y-93421000D02*
X41834000Y-93421000D01*
X44409000Y-93461000D02*
X41951000Y-93461000D01*
X44278000Y-93501000D02*
X42082000Y-93501000D01*
X44128000Y-93541000D02*
X42232000Y-93541000D01*
X43948000Y-93581000D02*
X42412000Y-93581000D01*
X43713000Y-93621000D02*
X42647000Y-93621000D01*
X47300000Y-89540000D02*
G75*
G03*
X47300000Y-89540000I-4120000J0D01*
G01*
%TO.C,C1*%
X100370302Y-58645000D02*
X101170302Y-58645000D01*
X100770302Y-58245000D02*
X100770302Y-59045000D01*
X104780000Y-56880000D02*
X104780000Y-65040000D01*
X104820000Y-56880000D02*
X104820000Y-65040000D01*
X104860000Y-56880000D02*
X104860000Y-65040000D01*
X104900000Y-56881000D02*
X104900000Y-65039000D01*
X104940000Y-56883000D02*
X104940000Y-65037000D01*
X104980000Y-56884000D02*
X104980000Y-65036000D01*
X105020000Y-56886000D02*
X105020000Y-65034000D01*
X105060000Y-56889000D02*
X105060000Y-65031000D01*
X105100000Y-56892000D02*
X105100000Y-65028000D01*
X105140000Y-56895000D02*
X105140000Y-65025000D01*
X105180000Y-56899000D02*
X105180000Y-65021000D01*
X105220000Y-56903000D02*
X105220000Y-65017000D01*
X105260000Y-56908000D02*
X105260000Y-65012000D01*
X105300000Y-56912000D02*
X105300000Y-65008000D01*
X105340000Y-56918000D02*
X105340000Y-65002000D01*
X105380000Y-56923000D02*
X105380000Y-64997000D01*
X105420000Y-56930000D02*
X105420000Y-64990000D01*
X105460000Y-56936000D02*
X105460000Y-64984000D01*
X105501000Y-56943000D02*
X105501000Y-64977000D01*
X105541000Y-56950000D02*
X105541000Y-64970000D01*
X105581000Y-56958000D02*
X105581000Y-64962000D01*
X105621000Y-56966000D02*
X105621000Y-64954000D01*
X105661000Y-56975000D02*
X105661000Y-59920000D01*
X105661000Y-62000000D02*
X105661000Y-64945000D01*
X105701000Y-56984000D02*
X105701000Y-59920000D01*
X105701000Y-62000000D02*
X105701000Y-64936000D01*
X105741000Y-56993000D02*
X105741000Y-59920000D01*
X105741000Y-62000000D02*
X105741000Y-64927000D01*
X105781000Y-57003000D02*
X105781000Y-59920000D01*
X105781000Y-62000000D02*
X105781000Y-64917000D01*
X105821000Y-57013000D02*
X105821000Y-59920000D01*
X105821000Y-62000000D02*
X105821000Y-64907000D01*
X105861000Y-57024000D02*
X105861000Y-59920000D01*
X105861000Y-62000000D02*
X105861000Y-64896000D01*
X105901000Y-57035000D02*
X105901000Y-59920000D01*
X105901000Y-62000000D02*
X105901000Y-64885000D01*
X105941000Y-57046000D02*
X105941000Y-59920000D01*
X105941000Y-62000000D02*
X105941000Y-64874000D01*
X105981000Y-57058000D02*
X105981000Y-59920000D01*
X105981000Y-62000000D02*
X105981000Y-64862000D01*
X106021000Y-57071000D02*
X106021000Y-59920000D01*
X106021000Y-62000000D02*
X106021000Y-64849000D01*
X106061000Y-57083000D02*
X106061000Y-59920000D01*
X106061000Y-62000000D02*
X106061000Y-64837000D01*
X106101000Y-57097000D02*
X106101000Y-59920000D01*
X106101000Y-62000000D02*
X106101000Y-64823000D01*
X106141000Y-57110000D02*
X106141000Y-59920000D01*
X106141000Y-62000000D02*
X106141000Y-64810000D01*
X106181000Y-57125000D02*
X106181000Y-59920000D01*
X106181000Y-62000000D02*
X106181000Y-64795000D01*
X106221000Y-57139000D02*
X106221000Y-59920000D01*
X106221000Y-62000000D02*
X106221000Y-64781000D01*
X106261000Y-57155000D02*
X106261000Y-59920000D01*
X106261000Y-62000000D02*
X106261000Y-64765000D01*
X106301000Y-57170000D02*
X106301000Y-59920000D01*
X106301000Y-62000000D02*
X106301000Y-64750000D01*
X106341000Y-57186000D02*
X106341000Y-59920000D01*
X106341000Y-62000000D02*
X106341000Y-64734000D01*
X106381000Y-57203000D02*
X106381000Y-59920000D01*
X106381000Y-62000000D02*
X106381000Y-64717000D01*
X106421000Y-57220000D02*
X106421000Y-59920000D01*
X106421000Y-62000000D02*
X106421000Y-64700000D01*
X106461000Y-57238000D02*
X106461000Y-59920000D01*
X106461000Y-62000000D02*
X106461000Y-64682000D01*
X106501000Y-57256000D02*
X106501000Y-59920000D01*
X106501000Y-62000000D02*
X106501000Y-64664000D01*
X106541000Y-57274000D02*
X106541000Y-59920000D01*
X106541000Y-62000000D02*
X106541000Y-64646000D01*
X106581000Y-57294000D02*
X106581000Y-59920000D01*
X106581000Y-62000000D02*
X106581000Y-64626000D01*
X106621000Y-57313000D02*
X106621000Y-59920000D01*
X106621000Y-62000000D02*
X106621000Y-64607000D01*
X106661000Y-57333000D02*
X106661000Y-59920000D01*
X106661000Y-62000000D02*
X106661000Y-64587000D01*
X106701000Y-57354000D02*
X106701000Y-59920000D01*
X106701000Y-62000000D02*
X106701000Y-64566000D01*
X106741000Y-57376000D02*
X106741000Y-59920000D01*
X106741000Y-62000000D02*
X106741000Y-64544000D01*
X106781000Y-57398000D02*
X106781000Y-59920000D01*
X106781000Y-62000000D02*
X106781000Y-64522000D01*
X106821000Y-57420000D02*
X106821000Y-59920000D01*
X106821000Y-62000000D02*
X106821000Y-64500000D01*
X106861000Y-57443000D02*
X106861000Y-59920000D01*
X106861000Y-62000000D02*
X106861000Y-64477000D01*
X106901000Y-57467000D02*
X106901000Y-59920000D01*
X106901000Y-62000000D02*
X106901000Y-64453000D01*
X106941000Y-57491000D02*
X106941000Y-59920000D01*
X106941000Y-62000000D02*
X106941000Y-64429000D01*
X106981000Y-57516000D02*
X106981000Y-59920000D01*
X106981000Y-62000000D02*
X106981000Y-64404000D01*
X107021000Y-57542000D02*
X107021000Y-59920000D01*
X107021000Y-62000000D02*
X107021000Y-64378000D01*
X107061000Y-57568000D02*
X107061000Y-59920000D01*
X107061000Y-62000000D02*
X107061000Y-64352000D01*
X107101000Y-57595000D02*
X107101000Y-59920000D01*
X107101000Y-62000000D02*
X107101000Y-64325000D01*
X107141000Y-57622000D02*
X107141000Y-59920000D01*
X107141000Y-62000000D02*
X107141000Y-64298000D01*
X107181000Y-57651000D02*
X107181000Y-59920000D01*
X107181000Y-62000000D02*
X107181000Y-64269000D01*
X107221000Y-57680000D02*
X107221000Y-59920000D01*
X107221000Y-62000000D02*
X107221000Y-64240000D01*
X107261000Y-57710000D02*
X107261000Y-59920000D01*
X107261000Y-62000000D02*
X107261000Y-64210000D01*
X107301000Y-57740000D02*
X107301000Y-59920000D01*
X107301000Y-62000000D02*
X107301000Y-64180000D01*
X107341000Y-57771000D02*
X107341000Y-59920000D01*
X107341000Y-62000000D02*
X107341000Y-64149000D01*
X107381000Y-57804000D02*
X107381000Y-59920000D01*
X107381000Y-62000000D02*
X107381000Y-64116000D01*
X107421000Y-57836000D02*
X107421000Y-59920000D01*
X107421000Y-62000000D02*
X107421000Y-64084000D01*
X107461000Y-57870000D02*
X107461000Y-59920000D01*
X107461000Y-62000000D02*
X107461000Y-64050000D01*
X107501000Y-57905000D02*
X107501000Y-59920000D01*
X107501000Y-62000000D02*
X107501000Y-64015000D01*
X107541000Y-57941000D02*
X107541000Y-59920000D01*
X107541000Y-62000000D02*
X107541000Y-63979000D01*
X107581000Y-57977000D02*
X107581000Y-59920000D01*
X107581000Y-62000000D02*
X107581000Y-63943000D01*
X107621000Y-58015000D02*
X107621000Y-59920000D01*
X107621000Y-62000000D02*
X107621000Y-63905000D01*
X107661000Y-58053000D02*
X107661000Y-59920000D01*
X107661000Y-62000000D02*
X107661000Y-63867000D01*
X107701000Y-58093000D02*
X107701000Y-59920000D01*
X107701000Y-62000000D02*
X107701000Y-63827000D01*
X107741000Y-58134000D02*
X107741000Y-63786000D01*
X107781000Y-58176000D02*
X107781000Y-63744000D01*
X107821000Y-58219000D02*
X107821000Y-63701000D01*
X107861000Y-58263000D02*
X107861000Y-63657000D01*
X107901000Y-58309000D02*
X107901000Y-63611000D01*
X107941000Y-58356000D02*
X107941000Y-63564000D01*
X107981000Y-58404000D02*
X107981000Y-63516000D01*
X108021000Y-58455000D02*
X108021000Y-63465000D01*
X108061000Y-58506000D02*
X108061000Y-63414000D01*
X108101000Y-58560000D02*
X108101000Y-63360000D01*
X108141000Y-58615000D02*
X108141000Y-63305000D01*
X108181000Y-58673000D02*
X108181000Y-63247000D01*
X108221000Y-58732000D02*
X108221000Y-63188000D01*
X108261000Y-58794000D02*
X108261000Y-63126000D01*
X108301000Y-58858000D02*
X108301000Y-63062000D01*
X108341000Y-58926000D02*
X108341000Y-62994000D01*
X108381000Y-58996000D02*
X108381000Y-62924000D01*
X108421000Y-59070000D02*
X108421000Y-62850000D01*
X108461000Y-59147000D02*
X108461000Y-62773000D01*
X108501000Y-59229000D02*
X108501000Y-62691000D01*
X108541000Y-59315000D02*
X108541000Y-62605000D01*
X108581000Y-59408000D02*
X108581000Y-62512000D01*
X108621000Y-59507000D02*
X108621000Y-62413000D01*
X108661000Y-59614000D02*
X108661000Y-62306000D01*
X108701000Y-59731000D02*
X108701000Y-62189000D01*
X108741000Y-59862000D02*
X108741000Y-62058000D01*
X108781000Y-60012000D02*
X108781000Y-61908000D01*
X108821000Y-60192000D02*
X108821000Y-61728000D01*
X108861000Y-60427000D02*
X108861000Y-61493000D01*
X108900000Y-60960000D02*
G75*
G03*
X108900000Y-60960000I-4120000J0D01*
G01*
%TO.C,SW1*%
X33450000Y-72980000D02*
X34090000Y-72980000D01*
X34090000Y-72980000D02*
X34090000Y-72580000D01*
X27110000Y-72740000D02*
X33850000Y-72740000D01*
X27110000Y-72740000D02*
X27110000Y-66960000D01*
X28230000Y-72740000D02*
X28230000Y-66960000D01*
X33330000Y-72740000D02*
X33330000Y-66960000D01*
X33850000Y-72740000D02*
X33850000Y-66960000D01*
X27110000Y-66960000D02*
X33850000Y-66960000D01*
%TO.C,C6*%
X58960000Y-59790000D02*
X58960000Y-59345000D01*
X58960000Y-59790000D02*
X52720000Y-59790000D01*
X58960000Y-57495000D02*
X58960000Y-57050000D01*
X58960000Y-57050000D02*
X52720000Y-57050000D01*
X52720000Y-59790000D02*
X52720000Y-59345000D01*
X52720000Y-57495000D02*
X52720000Y-57050000D01*
%TD*%
D16*
%TO.C,*%
X27940000Y-27940000D03*
%TD*%
%TO.C,*%
X114300000Y-93980000D03*
%TD*%
%TO.C,*%
X27940000Y-93980000D03*
%TD*%
%TO.C,*%
X114300000Y-27940000D03*
%TD*%
D17*
%TO.C,J3*%
X108331000Y-41069260D03*
X108331000Y-43670220D03*
X108331000Y-39019480D03*
X108331000Y-45720000D03*
X105839260Y-39019480D03*
X105839260Y-45720000D03*
D16*
X111330740Y-35610800D03*
X112141000Y-42369740D03*
X111330740Y-49128680D03*
%TD*%
M02*
