M48
; DRILL file {KiCad 7.0.6} date Sun Aug 13 20:35:58 2023
; FORMAT={-:-/ absolute / inch / decimal}
; #@! TF.CreationDate,2023-08-13T20:35:58+02:00
; #@! TF.GenerationSoftware,Kicad,Pcbnew,7.0.6
; #@! TF.FileFunction,Plated,1,2,PTH
FMAT,2
INCH
; #@! TA.AperFunction,Plated,PTH,ComponentDrill
T1C0.0295
; #@! TA.AperFunction,Plated,PTH,ComponentDrill
T2C0.0315
; #@! TA.AperFunction,Plated,PTH,ComponentDrill
T3C0.0350
; #@! TA.AperFunction,Plated,PTH,ComponentDrill
T4C0.0354
; #@! TA.AperFunction,Plated,PTH,ComponentDrill
T5C0.0394
; #@! TA.AperFunction,Plated,PTH,ComponentDrill
T6C0.0433
; #@! TA.AperFunction,Plated,PTH,ComponentDrill
T7C0.0902
; #@! TA.AperFunction,Plated,PTH,ComponentDrill
T8C0.1260
%
G90
G05
T1
X1.7217Y-1.428
X1.7717Y-0.828
X1.7717Y-0.878
X1.7717Y-0.928
X1.7717Y-1.428
X1.8217Y-1.428
T2
X1.5717Y-0.828
X1.5717Y-1.128
X1.5717Y-2.9783
X1.5717Y-3.128
X1.9717Y-0.828
X1.9717Y-1.128
X1.9717Y-1.428
X1.9717Y-1.828
X1.9717Y-2.028
X1.9717Y-2.128
X1.9717Y-2.228
X1.9717Y-2.328
X1.9717Y-2.428
X1.9717Y-2.528
X1.9717Y-2.628
X1.9717Y-2.928
X1.9717Y-3.1248
X2.1685Y-1.828
X2.2717Y-0.828
X2.2717Y-1.128
X2.2717Y-1.428
X2.2717Y-2.028
X2.2717Y-2.128
X2.2717Y-2.228
X2.2717Y-2.328
X2.2717Y-2.428
X2.2717Y-2.528
X2.2717Y-2.628
X2.9717Y-2.928
X2.9717Y-3.1248
X3.3717Y-2.9783
X3.3717Y-3.128
X3.6217Y-2.528
X3.6217Y-2.828
X3.9217Y-2.528
X3.9217Y-2.828
X3.922Y-1.928
X4.0717Y-1.928
T3
X4.0519Y-1.1362
X4.0519Y-1.4
X4.15Y-1.1362
X4.15Y-1.2169
X4.15Y-1.3193
X4.15Y-1.4
T4
X4.1717Y-2.528
X4.1717Y-2.828
X4.2717Y-2.528
X4.2717Y-2.828
T5
X1.115Y-1.2648
X1.115Y-1.3738
X1.115Y-1.4829
X1.115Y-1.5919
X1.2268Y-1.2102
X1.2268Y-1.3193
X1.2268Y-1.4283
X1.2268Y-1.5374
X1.2268Y-1.6465
X2.7717Y-0.828
X2.7717Y-0.928
X2.7717Y-1.028
X2.7717Y-1.128
X2.7717Y-1.228
X2.7717Y-1.328
X2.7717Y-1.428
X2.7717Y-1.528
X2.7717Y-1.628
X2.7717Y-1.728
X2.7717Y-1.828
X2.7717Y-1.928
X2.7717Y-2.028
X2.7717Y-2.128
X2.7717Y-2.228
X3.3717Y-0.828
X3.3717Y-0.928
X3.3717Y-1.028
X3.3717Y-1.128
X3.3717Y-1.228
X3.3717Y-1.328
X3.3717Y-1.428
X3.3717Y-1.528
X3.3717Y-1.628
X3.3717Y-1.728
X3.3717Y-1.828
X3.3717Y-1.928
X3.3717Y-2.028
X3.3717Y-2.128
X3.3717Y-2.228
T6
X1.1Y-2.228
X1.1Y-2.328
X1.5717Y-2.228
X1.5717Y-2.628
X2.3717Y-3.128
X2.4717Y-3.128
X2.5717Y-3.128
T7
X1.028Y-0.678
X1.028Y-3.178
X4.2681Y-1.002
X4.2681Y-1.5342
X4.3Y-1.2681
X4.3154Y-0.678
X4.3154Y-3.178
T8
X1.215Y-0.9362
X1.215Y-1.9205
T5
G00X1.0819Y-2.6756
M15
G01X1.0819Y-2.7543
M16
G05
G00X1.1606Y-2.9
M15
G01X1.2394Y-2.9
M16
G05
G00X1.326Y-2.6657
M15
G01X1.326Y-2.7642
M16
G05
T0
M30
