%TF.GenerationSoftware,KiCad,Pcbnew,7.0.6*%
%TF.CreationDate,2023-08-13T20:35:59+02:00*%
%TF.ProjectId,ps2_mouse_to_serial_port_adapter_stand_alone,7073325f-6d6f-4757-9365-5f746f5f7365,rev?*%
%TF.SameCoordinates,Original*%
%TF.FileFunction,Drillmap*%
%TF.FilePolarity,Positive*%
%FSLAX45Y45*%
G04 Gerber Fmt 4.5, Leading zero omitted, Abs format (unit mm)*
G04 Created by KiCad (PCBNEW 7.0.6) date 2023-08-13 20:35:59*
%MOMM*%
%LPD*%
G01*
G04 APERTURE LIST*
%ADD10C,0.050000*%
%ADD11C,0.200000*%
G04 APERTURE END LIST*
D10*
X2286000Y-1397000D02*
X11286000Y-1397000D01*
X11286000Y-8397000D01*
X2286000Y-8397000D01*
X2286000Y-1397000D01*
D11*
X2544277Y-8710984D02*
X2544277Y-8510984D01*
X2544277Y-8510984D02*
X2591896Y-8510984D01*
X2591896Y-8510984D02*
X2620467Y-8520508D01*
X2620467Y-8520508D02*
X2639515Y-8539555D01*
X2639515Y-8539555D02*
X2649039Y-8558603D01*
X2649039Y-8558603D02*
X2658563Y-8596698D01*
X2658563Y-8596698D02*
X2658563Y-8625270D01*
X2658563Y-8625270D02*
X2649039Y-8663365D01*
X2649039Y-8663365D02*
X2639515Y-8682412D01*
X2639515Y-8682412D02*
X2620467Y-8701460D01*
X2620467Y-8701460D02*
X2591896Y-8710984D01*
X2591896Y-8710984D02*
X2544277Y-8710984D01*
X2744277Y-8710984D02*
X2744277Y-8577650D01*
X2744277Y-8615746D02*
X2753801Y-8596698D01*
X2753801Y-8596698D02*
X2763324Y-8587174D01*
X2763324Y-8587174D02*
X2782372Y-8577650D01*
X2782372Y-8577650D02*
X2801420Y-8577650D01*
X2868086Y-8710984D02*
X2868086Y-8577650D01*
X2868086Y-8510984D02*
X2858562Y-8520508D01*
X2858562Y-8520508D02*
X2868086Y-8530031D01*
X2868086Y-8530031D02*
X2877610Y-8520508D01*
X2877610Y-8520508D02*
X2868086Y-8510984D01*
X2868086Y-8510984D02*
X2868086Y-8530031D01*
X2991896Y-8710984D02*
X2972848Y-8701460D01*
X2972848Y-8701460D02*
X2963324Y-8682412D01*
X2963324Y-8682412D02*
X2963324Y-8510984D01*
X3096658Y-8710984D02*
X3077610Y-8701460D01*
X3077610Y-8701460D02*
X3068086Y-8682412D01*
X3068086Y-8682412D02*
X3068086Y-8510984D01*
X3325229Y-8710984D02*
X3325229Y-8510984D01*
X3325229Y-8510984D02*
X3391896Y-8653841D01*
X3391896Y-8653841D02*
X3458562Y-8510984D01*
X3458562Y-8510984D02*
X3458562Y-8710984D01*
X3639515Y-8710984D02*
X3639515Y-8606222D01*
X3639515Y-8606222D02*
X3629991Y-8587174D01*
X3629991Y-8587174D02*
X3610943Y-8577650D01*
X3610943Y-8577650D02*
X3572848Y-8577650D01*
X3572848Y-8577650D02*
X3553801Y-8587174D01*
X3639515Y-8701460D02*
X3620467Y-8710984D01*
X3620467Y-8710984D02*
X3572848Y-8710984D01*
X3572848Y-8710984D02*
X3553801Y-8701460D01*
X3553801Y-8701460D02*
X3544277Y-8682412D01*
X3544277Y-8682412D02*
X3544277Y-8663365D01*
X3544277Y-8663365D02*
X3553801Y-8644317D01*
X3553801Y-8644317D02*
X3572848Y-8634793D01*
X3572848Y-8634793D02*
X3620467Y-8634793D01*
X3620467Y-8634793D02*
X3639515Y-8625270D01*
X3734753Y-8577650D02*
X3734753Y-8777650D01*
X3734753Y-8587174D02*
X3753801Y-8577650D01*
X3753801Y-8577650D02*
X3791896Y-8577650D01*
X3791896Y-8577650D02*
X3810943Y-8587174D01*
X3810943Y-8587174D02*
X3820467Y-8596698D01*
X3820467Y-8596698D02*
X3829991Y-8615746D01*
X3829991Y-8615746D02*
X3829991Y-8672889D01*
X3829991Y-8672889D02*
X3820467Y-8691936D01*
X3820467Y-8691936D02*
X3810943Y-8701460D01*
X3810943Y-8701460D02*
X3791896Y-8710984D01*
X3791896Y-8710984D02*
X3753801Y-8710984D01*
X3753801Y-8710984D02*
X3734753Y-8701460D01*
X3915705Y-8691936D02*
X3925229Y-8701460D01*
X3925229Y-8701460D02*
X3915705Y-8710984D01*
X3915705Y-8710984D02*
X3906182Y-8701460D01*
X3906182Y-8701460D02*
X3915705Y-8691936D01*
X3915705Y-8691936D02*
X3915705Y-8710984D01*
X3915705Y-8587174D02*
X3925229Y-8596698D01*
X3925229Y-8596698D02*
X3915705Y-8606222D01*
X3915705Y-8606222D02*
X3906182Y-8596698D01*
X3906182Y-8596698D02*
X3915705Y-8587174D01*
X3915705Y-8587174D02*
X3915705Y-8606222D01*
M02*
