%TF.GenerationSoftware,KiCad,Pcbnew,7.0.6*%
%TF.CreationDate,2023-08-28T20:04:36+02:00*%
%TF.ProjectId,ps2_mouse_to_serial_port_adapter_stand_alone,7073325f-6d6f-4757-9365-5f746f5f7365,rev?*%
%TF.SameCoordinates,Original*%
%TF.FileFunction,Legend,Top*%
%TF.FilePolarity,Positive*%
%FSLAX46Y46*%
G04 Gerber Fmt 4.6, Leading zero omitted, Abs format (unit mm)*
G04 Created by KiCad (PCBNEW 7.0.6) date 2023-08-28 20:04:36*
%MOMM*%
%LPD*%
G01*
G04 APERTURE LIST*
%ADD10C,0.100000*%
%ADD11C,0.150000*%
%ADD12C,0.203200*%
%ADD13C,0.152400*%
%ADD14C,0.120000*%
%ADD15C,0.381000*%
G04 APERTURE END LIST*
D10*
X78453704Y-43685734D02*
X78453704Y-43209544D01*
X78739419Y-43780972D02*
X77739419Y-43447639D01*
X77739419Y-43447639D02*
X78739419Y-43114306D01*
X78739419Y-42780972D02*
X78072752Y-42780972D01*
X78263228Y-42780972D02*
X78167990Y-42733353D01*
X78167990Y-42733353D02*
X78120371Y-42685734D01*
X78120371Y-42685734D02*
X78072752Y-42590496D01*
X78072752Y-42590496D02*
X78072752Y-42495258D01*
X78739419Y-41733353D02*
X77739419Y-41733353D01*
X78691800Y-41733353D02*
X78739419Y-41828591D01*
X78739419Y-41828591D02*
X78739419Y-42019067D01*
X78739419Y-42019067D02*
X78691800Y-42114305D01*
X78691800Y-42114305D02*
X78644180Y-42161924D01*
X78644180Y-42161924D02*
X78548942Y-42209543D01*
X78548942Y-42209543D02*
X78263228Y-42209543D01*
X78263228Y-42209543D02*
X78167990Y-42161924D01*
X78167990Y-42161924D02*
X78120371Y-42114305D01*
X78120371Y-42114305D02*
X78072752Y-42019067D01*
X78072752Y-42019067D02*
X78072752Y-41828591D01*
X78072752Y-41828591D02*
X78120371Y-41733353D01*
X78072752Y-40828591D02*
X78739419Y-40828591D01*
X78072752Y-41257162D02*
X78596561Y-41257162D01*
X78596561Y-41257162D02*
X78691800Y-41209543D01*
X78691800Y-41209543D02*
X78739419Y-41114305D01*
X78739419Y-41114305D02*
X78739419Y-40971448D01*
X78739419Y-40971448D02*
X78691800Y-40876210D01*
X78691800Y-40876210D02*
X78644180Y-40828591D01*
X78739419Y-40352400D02*
X78072752Y-40352400D01*
X77739419Y-40352400D02*
X77787038Y-40400019D01*
X77787038Y-40400019D02*
X77834657Y-40352400D01*
X77834657Y-40352400D02*
X77787038Y-40304781D01*
X77787038Y-40304781D02*
X77739419Y-40352400D01*
X77739419Y-40352400D02*
X77834657Y-40352400D01*
X78072752Y-39876210D02*
X78739419Y-39876210D01*
X78167990Y-39876210D02*
X78120371Y-39828591D01*
X78120371Y-39828591D02*
X78072752Y-39733353D01*
X78072752Y-39733353D02*
X78072752Y-39590496D01*
X78072752Y-39590496D02*
X78120371Y-39495258D01*
X78120371Y-39495258D02*
X78215609Y-39447639D01*
X78215609Y-39447639D02*
X78739419Y-39447639D01*
X78739419Y-38828591D02*
X78691800Y-38923829D01*
X78691800Y-38923829D02*
X78644180Y-38971448D01*
X78644180Y-38971448D02*
X78548942Y-39019067D01*
X78548942Y-39019067D02*
X78263228Y-39019067D01*
X78263228Y-39019067D02*
X78167990Y-38971448D01*
X78167990Y-38971448D02*
X78120371Y-38923829D01*
X78120371Y-38923829D02*
X78072752Y-38828591D01*
X78072752Y-38828591D02*
X78072752Y-38685734D01*
X78072752Y-38685734D02*
X78120371Y-38590496D01*
X78120371Y-38590496D02*
X78167990Y-38542877D01*
X78167990Y-38542877D02*
X78263228Y-38495258D01*
X78263228Y-38495258D02*
X78548942Y-38495258D01*
X78548942Y-38495258D02*
X78644180Y-38542877D01*
X78644180Y-38542877D02*
X78691800Y-38590496D01*
X78691800Y-38590496D02*
X78739419Y-38685734D01*
X78739419Y-38685734D02*
X78739419Y-38828591D01*
X78739419Y-37304781D02*
X77739419Y-37304781D01*
X77739419Y-37304781D02*
X78739419Y-36733353D01*
X78739419Y-36733353D02*
X77739419Y-36733353D01*
X78453704Y-36304781D02*
X78453704Y-35828591D01*
X78739419Y-36400019D02*
X77739419Y-36066686D01*
X77739419Y-36066686D02*
X78739419Y-35733353D01*
X78739419Y-35400019D02*
X77739419Y-35400019D01*
X77739419Y-35400019D02*
X78739419Y-34828591D01*
X78739419Y-34828591D02*
X77739419Y-34828591D01*
X77739419Y-34161924D02*
X77739419Y-33971448D01*
X77739419Y-33971448D02*
X77787038Y-33876210D01*
X77787038Y-33876210D02*
X77882276Y-33780972D01*
X77882276Y-33780972D02*
X78072752Y-33733353D01*
X78072752Y-33733353D02*
X78406085Y-33733353D01*
X78406085Y-33733353D02*
X78596561Y-33780972D01*
X78596561Y-33780972D02*
X78691800Y-33876210D01*
X78691800Y-33876210D02*
X78739419Y-33971448D01*
X78739419Y-33971448D02*
X78739419Y-34161924D01*
X78739419Y-34161924D02*
X78691800Y-34257162D01*
X78691800Y-34257162D02*
X78596561Y-34352400D01*
X78596561Y-34352400D02*
X78406085Y-34400019D01*
X78406085Y-34400019D02*
X78072752Y-34400019D01*
X78072752Y-34400019D02*
X77882276Y-34352400D01*
X77882276Y-34352400D02*
X77787038Y-34257162D01*
X77787038Y-34257162D02*
X77739419Y-34161924D01*
X78072752Y-32638114D02*
X78739419Y-32400019D01*
X78739419Y-32400019D02*
X78072752Y-32161924D01*
X77739419Y-31876209D02*
X77739419Y-31257162D01*
X77739419Y-31257162D02*
X78120371Y-31590495D01*
X78120371Y-31590495D02*
X78120371Y-31447638D01*
X78120371Y-31447638D02*
X78167990Y-31352400D01*
X78167990Y-31352400D02*
X78215609Y-31304781D01*
X78215609Y-31304781D02*
X78310847Y-31257162D01*
X78310847Y-31257162D02*
X78548942Y-31257162D01*
X78548942Y-31257162D02*
X78644180Y-31304781D01*
X78644180Y-31304781D02*
X78691800Y-31352400D01*
X78691800Y-31352400D02*
X78739419Y-31447638D01*
X78739419Y-31447638D02*
X78739419Y-31733352D01*
X78739419Y-31733352D02*
X78691800Y-31828590D01*
X78691800Y-31828590D02*
X78644180Y-31876209D01*
X38235142Y-70239752D02*
X38235142Y-70906419D01*
X37997047Y-69858800D02*
X37758952Y-70573085D01*
X37758952Y-70573085D02*
X38377999Y-70573085D01*
X38663714Y-69906419D02*
X39330380Y-69906419D01*
X39330380Y-69906419D02*
X38901809Y-70906419D01*
X39901809Y-69906419D02*
X39997047Y-69906419D01*
X39997047Y-69906419D02*
X40092285Y-69954038D01*
X40092285Y-69954038D02*
X40139904Y-70001657D01*
X40139904Y-70001657D02*
X40187523Y-70096895D01*
X40187523Y-70096895D02*
X40235142Y-70287371D01*
X40235142Y-70287371D02*
X40235142Y-70525466D01*
X40235142Y-70525466D02*
X40187523Y-70715942D01*
X40187523Y-70715942D02*
X40139904Y-70811180D01*
X40139904Y-70811180D02*
X40092285Y-70858800D01*
X40092285Y-70858800D02*
X39997047Y-70906419D01*
X39997047Y-70906419D02*
X39901809Y-70906419D01*
X39901809Y-70906419D02*
X39806571Y-70858800D01*
X39806571Y-70858800D02*
X39758952Y-70811180D01*
X39758952Y-70811180D02*
X39711333Y-70715942D01*
X39711333Y-70715942D02*
X39663714Y-70525466D01*
X39663714Y-70525466D02*
X39663714Y-70287371D01*
X39663714Y-70287371D02*
X39711333Y-70096895D01*
X39711333Y-70096895D02*
X39758952Y-70001657D01*
X39758952Y-70001657D02*
X39806571Y-69954038D01*
X39806571Y-69954038D02*
X39901809Y-69906419D01*
X41092285Y-70239752D02*
X41092285Y-70906419D01*
X40663714Y-70239752D02*
X40663714Y-70763561D01*
X40663714Y-70763561D02*
X40711333Y-70858800D01*
X40711333Y-70858800D02*
X40806571Y-70906419D01*
X40806571Y-70906419D02*
X40949428Y-70906419D01*
X40949428Y-70906419D02*
X41044666Y-70858800D01*
X41044666Y-70858800D02*
X41092285Y-70811180D01*
X41901809Y-70382609D02*
X41568476Y-70382609D01*
X41568476Y-70906419D02*
X41568476Y-69906419D01*
X41568476Y-69906419D02*
X42044666Y-69906419D01*
X39258952Y-72516419D02*
X38687524Y-72516419D01*
X38973238Y-72516419D02*
X38973238Y-71516419D01*
X38973238Y-71516419D02*
X38878000Y-71659276D01*
X38878000Y-71659276D02*
X38782762Y-71754514D01*
X38782762Y-71754514D02*
X38687524Y-71802133D01*
X40116095Y-71516419D02*
X39925619Y-71516419D01*
X39925619Y-71516419D02*
X39830381Y-71564038D01*
X39830381Y-71564038D02*
X39782762Y-71611657D01*
X39782762Y-71611657D02*
X39687524Y-71754514D01*
X39687524Y-71754514D02*
X39639905Y-71944990D01*
X39639905Y-71944990D02*
X39639905Y-72325942D01*
X39639905Y-72325942D02*
X39687524Y-72421180D01*
X39687524Y-72421180D02*
X39735143Y-72468800D01*
X39735143Y-72468800D02*
X39830381Y-72516419D01*
X39830381Y-72516419D02*
X40020857Y-72516419D01*
X40020857Y-72516419D02*
X40116095Y-72468800D01*
X40116095Y-72468800D02*
X40163714Y-72421180D01*
X40163714Y-72421180D02*
X40211333Y-72325942D01*
X40211333Y-72325942D02*
X40211333Y-72087847D01*
X40211333Y-72087847D02*
X40163714Y-71992609D01*
X40163714Y-71992609D02*
X40116095Y-71944990D01*
X40116095Y-71944990D02*
X40020857Y-71897371D01*
X40020857Y-71897371D02*
X39830381Y-71897371D01*
X39830381Y-71897371D02*
X39735143Y-71944990D01*
X39735143Y-71944990D02*
X39687524Y-71992609D01*
X39687524Y-71992609D02*
X39639905Y-72087847D01*
X40497048Y-71516419D02*
X40830381Y-72516419D01*
X40830381Y-72516419D02*
X41163714Y-71516419D01*
X48706693Y-72643419D02*
X48135265Y-72643419D01*
X48420979Y-72643419D02*
X48420979Y-71643419D01*
X48420979Y-71643419D02*
X48325741Y-71786276D01*
X48325741Y-71786276D02*
X48230503Y-71881514D01*
X48230503Y-71881514D02*
X48135265Y-71929133D01*
X49325741Y-71643419D02*
X49420979Y-71643419D01*
X49420979Y-71643419D02*
X49516217Y-71691038D01*
X49516217Y-71691038D02*
X49563836Y-71738657D01*
X49563836Y-71738657D02*
X49611455Y-71833895D01*
X49611455Y-71833895D02*
X49659074Y-72024371D01*
X49659074Y-72024371D02*
X49659074Y-72262466D01*
X49659074Y-72262466D02*
X49611455Y-72452942D01*
X49611455Y-72452942D02*
X49563836Y-72548180D01*
X49563836Y-72548180D02*
X49516217Y-72595800D01*
X49516217Y-72595800D02*
X49420979Y-72643419D01*
X49420979Y-72643419D02*
X49325741Y-72643419D01*
X49325741Y-72643419D02*
X49230503Y-72595800D01*
X49230503Y-72595800D02*
X49182884Y-72548180D01*
X49182884Y-72548180D02*
X49135265Y-72452942D01*
X49135265Y-72452942D02*
X49087646Y-72262466D01*
X49087646Y-72262466D02*
X49087646Y-72024371D01*
X49087646Y-72024371D02*
X49135265Y-71833895D01*
X49135265Y-71833895D02*
X49182884Y-71738657D01*
X49182884Y-71738657D02*
X49230503Y-71691038D01*
X49230503Y-71691038D02*
X49325741Y-71643419D01*
X50278122Y-71643419D02*
X50373360Y-71643419D01*
X50373360Y-71643419D02*
X50468598Y-71691038D01*
X50468598Y-71691038D02*
X50516217Y-71738657D01*
X50516217Y-71738657D02*
X50563836Y-71833895D01*
X50563836Y-71833895D02*
X50611455Y-72024371D01*
X50611455Y-72024371D02*
X50611455Y-72262466D01*
X50611455Y-72262466D02*
X50563836Y-72452942D01*
X50563836Y-72452942D02*
X50516217Y-72548180D01*
X50516217Y-72548180D02*
X50468598Y-72595800D01*
X50468598Y-72595800D02*
X50373360Y-72643419D01*
X50373360Y-72643419D02*
X50278122Y-72643419D01*
X50278122Y-72643419D02*
X50182884Y-72595800D01*
X50182884Y-72595800D02*
X50135265Y-72548180D01*
X50135265Y-72548180D02*
X50087646Y-72452942D01*
X50087646Y-72452942D02*
X50040027Y-72262466D01*
X50040027Y-72262466D02*
X50040027Y-72024371D01*
X50040027Y-72024371D02*
X50087646Y-71833895D01*
X50087646Y-71833895D02*
X50135265Y-71738657D01*
X50135265Y-71738657D02*
X50182884Y-71691038D01*
X50182884Y-71691038D02*
X50278122Y-71643419D01*
X51040027Y-71976752D02*
X51040027Y-72643419D01*
X51040027Y-72071990D02*
X51087646Y-72024371D01*
X51087646Y-72024371D02*
X51182884Y-71976752D01*
X51182884Y-71976752D02*
X51325741Y-71976752D01*
X51325741Y-71976752D02*
X51420979Y-72024371D01*
X51420979Y-72024371D02*
X51468598Y-72119609D01*
X51468598Y-72119609D02*
X51468598Y-72643419D01*
X52278122Y-72119609D02*
X51944789Y-72119609D01*
X51944789Y-72643419D02*
X51944789Y-71643419D01*
X51944789Y-71643419D02*
X52420979Y-71643419D01*
X50992693Y-44322419D02*
X50421265Y-44322419D01*
X50706979Y-44322419D02*
X50706979Y-43322419D01*
X50706979Y-43322419D02*
X50611741Y-43465276D01*
X50611741Y-43465276D02*
X50516503Y-43560514D01*
X50516503Y-43560514D02*
X50421265Y-43608133D01*
X51611741Y-43322419D02*
X51706979Y-43322419D01*
X51706979Y-43322419D02*
X51802217Y-43370038D01*
X51802217Y-43370038D02*
X51849836Y-43417657D01*
X51849836Y-43417657D02*
X51897455Y-43512895D01*
X51897455Y-43512895D02*
X51945074Y-43703371D01*
X51945074Y-43703371D02*
X51945074Y-43941466D01*
X51945074Y-43941466D02*
X51897455Y-44131942D01*
X51897455Y-44131942D02*
X51849836Y-44227180D01*
X51849836Y-44227180D02*
X51802217Y-44274800D01*
X51802217Y-44274800D02*
X51706979Y-44322419D01*
X51706979Y-44322419D02*
X51611741Y-44322419D01*
X51611741Y-44322419D02*
X51516503Y-44274800D01*
X51516503Y-44274800D02*
X51468884Y-44227180D01*
X51468884Y-44227180D02*
X51421265Y-44131942D01*
X51421265Y-44131942D02*
X51373646Y-43941466D01*
X51373646Y-43941466D02*
X51373646Y-43703371D01*
X51373646Y-43703371D02*
X51421265Y-43512895D01*
X51421265Y-43512895D02*
X51468884Y-43417657D01*
X51468884Y-43417657D02*
X51516503Y-43370038D01*
X51516503Y-43370038D02*
X51611741Y-43322419D01*
X52564122Y-43322419D02*
X52659360Y-43322419D01*
X52659360Y-43322419D02*
X52754598Y-43370038D01*
X52754598Y-43370038D02*
X52802217Y-43417657D01*
X52802217Y-43417657D02*
X52849836Y-43512895D01*
X52849836Y-43512895D02*
X52897455Y-43703371D01*
X52897455Y-43703371D02*
X52897455Y-43941466D01*
X52897455Y-43941466D02*
X52849836Y-44131942D01*
X52849836Y-44131942D02*
X52802217Y-44227180D01*
X52802217Y-44227180D02*
X52754598Y-44274800D01*
X52754598Y-44274800D02*
X52659360Y-44322419D01*
X52659360Y-44322419D02*
X52564122Y-44322419D01*
X52564122Y-44322419D02*
X52468884Y-44274800D01*
X52468884Y-44274800D02*
X52421265Y-44227180D01*
X52421265Y-44227180D02*
X52373646Y-44131942D01*
X52373646Y-44131942D02*
X52326027Y-43941466D01*
X52326027Y-43941466D02*
X52326027Y-43703371D01*
X52326027Y-43703371D02*
X52373646Y-43512895D01*
X52373646Y-43512895D02*
X52421265Y-43417657D01*
X52421265Y-43417657D02*
X52468884Y-43370038D01*
X52468884Y-43370038D02*
X52564122Y-43322419D01*
X53326027Y-43655752D02*
X53326027Y-44322419D01*
X53326027Y-43750990D02*
X53373646Y-43703371D01*
X53373646Y-43703371D02*
X53468884Y-43655752D01*
X53468884Y-43655752D02*
X53611741Y-43655752D01*
X53611741Y-43655752D02*
X53706979Y-43703371D01*
X53706979Y-43703371D02*
X53754598Y-43798609D01*
X53754598Y-43798609D02*
X53754598Y-44322419D01*
X54564122Y-43798609D02*
X54230789Y-43798609D01*
X54230789Y-44322419D02*
X54230789Y-43322419D01*
X54230789Y-43322419D02*
X54706979Y-43322419D01*
X61232074Y-82422419D02*
X60755884Y-82422419D01*
X60755884Y-82422419D02*
X60755884Y-81422419D01*
X61470170Y-81422419D02*
X62136836Y-81422419D01*
X62136836Y-81422419D02*
X61708265Y-82422419D01*
X62660646Y-81850990D02*
X62565408Y-81803371D01*
X62565408Y-81803371D02*
X62517789Y-81755752D01*
X62517789Y-81755752D02*
X62470170Y-81660514D01*
X62470170Y-81660514D02*
X62470170Y-81612895D01*
X62470170Y-81612895D02*
X62517789Y-81517657D01*
X62517789Y-81517657D02*
X62565408Y-81470038D01*
X62565408Y-81470038D02*
X62660646Y-81422419D01*
X62660646Y-81422419D02*
X62851122Y-81422419D01*
X62851122Y-81422419D02*
X62946360Y-81470038D01*
X62946360Y-81470038D02*
X62993979Y-81517657D01*
X62993979Y-81517657D02*
X63041598Y-81612895D01*
X63041598Y-81612895D02*
X63041598Y-81660514D01*
X63041598Y-81660514D02*
X62993979Y-81755752D01*
X62993979Y-81755752D02*
X62946360Y-81803371D01*
X62946360Y-81803371D02*
X62851122Y-81850990D01*
X62851122Y-81850990D02*
X62660646Y-81850990D01*
X62660646Y-81850990D02*
X62565408Y-81898609D01*
X62565408Y-81898609D02*
X62517789Y-81946228D01*
X62517789Y-81946228D02*
X62470170Y-82041466D01*
X62470170Y-82041466D02*
X62470170Y-82231942D01*
X62470170Y-82231942D02*
X62517789Y-82327180D01*
X62517789Y-82327180D02*
X62565408Y-82374800D01*
X62565408Y-82374800D02*
X62660646Y-82422419D01*
X62660646Y-82422419D02*
X62851122Y-82422419D01*
X62851122Y-82422419D02*
X62946360Y-82374800D01*
X62946360Y-82374800D02*
X62993979Y-82327180D01*
X62993979Y-82327180D02*
X63041598Y-82231942D01*
X63041598Y-82231942D02*
X63041598Y-82041466D01*
X63041598Y-82041466D02*
X62993979Y-81946228D01*
X62993979Y-81946228D02*
X62946360Y-81898609D01*
X62946360Y-81898609D02*
X62851122Y-81850990D01*
X63660646Y-81422419D02*
X63755884Y-81422419D01*
X63755884Y-81422419D02*
X63851122Y-81470038D01*
X63851122Y-81470038D02*
X63898741Y-81517657D01*
X63898741Y-81517657D02*
X63946360Y-81612895D01*
X63946360Y-81612895D02*
X63993979Y-81803371D01*
X63993979Y-81803371D02*
X63993979Y-82041466D01*
X63993979Y-82041466D02*
X63946360Y-82231942D01*
X63946360Y-82231942D02*
X63898741Y-82327180D01*
X63898741Y-82327180D02*
X63851122Y-82374800D01*
X63851122Y-82374800D02*
X63755884Y-82422419D01*
X63755884Y-82422419D02*
X63660646Y-82422419D01*
X63660646Y-82422419D02*
X63565408Y-82374800D01*
X63565408Y-82374800D02*
X63517789Y-82327180D01*
X63517789Y-82327180D02*
X63470170Y-82231942D01*
X63470170Y-82231942D02*
X63422551Y-82041466D01*
X63422551Y-82041466D02*
X63422551Y-81803371D01*
X63422551Y-81803371D02*
X63470170Y-81612895D01*
X63470170Y-81612895D02*
X63517789Y-81517657D01*
X63517789Y-81517657D02*
X63565408Y-81470038D01*
X63565408Y-81470038D02*
X63660646Y-81422419D01*
X64898741Y-81422419D02*
X64422551Y-81422419D01*
X64422551Y-81422419D02*
X64374932Y-81898609D01*
X64374932Y-81898609D02*
X64422551Y-81850990D01*
X64422551Y-81850990D02*
X64517789Y-81803371D01*
X64517789Y-81803371D02*
X64755884Y-81803371D01*
X64755884Y-81803371D02*
X64851122Y-81850990D01*
X64851122Y-81850990D02*
X64898741Y-81898609D01*
X64898741Y-81898609D02*
X64946360Y-81993847D01*
X64946360Y-81993847D02*
X64946360Y-82231942D01*
X64946360Y-82231942D02*
X64898741Y-82327180D01*
X64898741Y-82327180D02*
X64851122Y-82374800D01*
X64851122Y-82374800D02*
X64755884Y-82422419D01*
X64755884Y-82422419D02*
X64517789Y-82422419D01*
X64517789Y-82422419D02*
X64422551Y-82374800D01*
X64422551Y-82374800D02*
X64374932Y-82327180D01*
X60213419Y-61513353D02*
X60213419Y-60846687D01*
X60213419Y-60846687D02*
X61213419Y-61275258D01*
X60546752Y-60037163D02*
X61213419Y-60037163D01*
X60165800Y-60275258D02*
X60880085Y-60513353D01*
X60880085Y-60513353D02*
X60880085Y-59894306D01*
X61213419Y-59037163D02*
X61213419Y-59513353D01*
X61213419Y-59513353D02*
X60213419Y-59513353D01*
X61165800Y-58751448D02*
X61213419Y-58608591D01*
X61213419Y-58608591D02*
X61213419Y-58370496D01*
X61213419Y-58370496D02*
X61165800Y-58275258D01*
X61165800Y-58275258D02*
X61118180Y-58227639D01*
X61118180Y-58227639D02*
X61022942Y-58180020D01*
X61022942Y-58180020D02*
X60927704Y-58180020D01*
X60927704Y-58180020D02*
X60832466Y-58227639D01*
X60832466Y-58227639D02*
X60784847Y-58275258D01*
X60784847Y-58275258D02*
X60737228Y-58370496D01*
X60737228Y-58370496D02*
X60689609Y-58560972D01*
X60689609Y-58560972D02*
X60641990Y-58656210D01*
X60641990Y-58656210D02*
X60594371Y-58703829D01*
X60594371Y-58703829D02*
X60499133Y-58751448D01*
X60499133Y-58751448D02*
X60403895Y-58751448D01*
X60403895Y-58751448D02*
X60308657Y-58703829D01*
X60308657Y-58703829D02*
X60261038Y-58656210D01*
X60261038Y-58656210D02*
X60213419Y-58560972D01*
X60213419Y-58560972D02*
X60213419Y-58322877D01*
X60213419Y-58322877D02*
X60261038Y-58180020D01*
X60213419Y-57560972D02*
X60213419Y-57465734D01*
X60213419Y-57465734D02*
X60261038Y-57370496D01*
X60261038Y-57370496D02*
X60308657Y-57322877D01*
X60308657Y-57322877D02*
X60403895Y-57275258D01*
X60403895Y-57275258D02*
X60594371Y-57227639D01*
X60594371Y-57227639D02*
X60832466Y-57227639D01*
X60832466Y-57227639D02*
X61022942Y-57275258D01*
X61022942Y-57275258D02*
X61118180Y-57322877D01*
X61118180Y-57322877D02*
X61165800Y-57370496D01*
X61165800Y-57370496D02*
X61213419Y-57465734D01*
X61213419Y-57465734D02*
X61213419Y-57560972D01*
X61213419Y-57560972D02*
X61165800Y-57656210D01*
X61165800Y-57656210D02*
X61118180Y-57703829D01*
X61118180Y-57703829D02*
X61022942Y-57751448D01*
X61022942Y-57751448D02*
X60832466Y-57799067D01*
X60832466Y-57799067D02*
X60594371Y-57799067D01*
X60594371Y-57799067D02*
X60403895Y-57751448D01*
X60403895Y-57751448D02*
X60308657Y-57703829D01*
X60308657Y-57703829D02*
X60261038Y-57656210D01*
X60261038Y-57656210D02*
X60213419Y-57560972D01*
X60213419Y-56608591D02*
X60213419Y-56513353D01*
X60213419Y-56513353D02*
X60261038Y-56418115D01*
X60261038Y-56418115D02*
X60308657Y-56370496D01*
X60308657Y-56370496D02*
X60403895Y-56322877D01*
X60403895Y-56322877D02*
X60594371Y-56275258D01*
X60594371Y-56275258D02*
X60832466Y-56275258D01*
X60832466Y-56275258D02*
X61022942Y-56322877D01*
X61022942Y-56322877D02*
X61118180Y-56370496D01*
X61118180Y-56370496D02*
X61165800Y-56418115D01*
X61165800Y-56418115D02*
X61213419Y-56513353D01*
X61213419Y-56513353D02*
X61213419Y-56608591D01*
X61213419Y-56608591D02*
X61165800Y-56703829D01*
X61165800Y-56703829D02*
X61118180Y-56751448D01*
X61118180Y-56751448D02*
X61022942Y-56799067D01*
X61022942Y-56799067D02*
X60832466Y-56846686D01*
X60832466Y-56846686D02*
X60594371Y-56846686D01*
X60594371Y-56846686D02*
X60403895Y-56799067D01*
X60403895Y-56799067D02*
X60308657Y-56751448D01*
X60308657Y-56751448D02*
X60261038Y-56703829D01*
X60261038Y-56703829D02*
X60213419Y-56608591D01*
X103173884Y-69341419D02*
X103173884Y-68341419D01*
X103173884Y-68341419D02*
X103554836Y-68341419D01*
X103554836Y-68341419D02*
X103650074Y-68389038D01*
X103650074Y-68389038D02*
X103697693Y-68436657D01*
X103697693Y-68436657D02*
X103745312Y-68531895D01*
X103745312Y-68531895D02*
X103745312Y-68674752D01*
X103745312Y-68674752D02*
X103697693Y-68769990D01*
X103697693Y-68769990D02*
X103650074Y-68817609D01*
X103650074Y-68817609D02*
X103554836Y-68865228D01*
X103554836Y-68865228D02*
X103173884Y-68865228D01*
X104364360Y-68341419D02*
X104554836Y-68341419D01*
X104554836Y-68341419D02*
X104650074Y-68389038D01*
X104650074Y-68389038D02*
X104745312Y-68484276D01*
X104745312Y-68484276D02*
X104792931Y-68674752D01*
X104792931Y-68674752D02*
X104792931Y-69008085D01*
X104792931Y-69008085D02*
X104745312Y-69198561D01*
X104745312Y-69198561D02*
X104650074Y-69293800D01*
X104650074Y-69293800D02*
X104554836Y-69341419D01*
X104554836Y-69341419D02*
X104364360Y-69341419D01*
X104364360Y-69341419D02*
X104269122Y-69293800D01*
X104269122Y-69293800D02*
X104173884Y-69198561D01*
X104173884Y-69198561D02*
X104126265Y-69008085D01*
X104126265Y-69008085D02*
X104126265Y-68674752D01*
X104126265Y-68674752D02*
X104173884Y-68484276D01*
X104173884Y-68484276D02*
X104269122Y-68389038D01*
X104269122Y-68389038D02*
X104364360Y-68341419D01*
X105126265Y-68341419D02*
X105364360Y-69341419D01*
X105364360Y-69341419D02*
X105554836Y-68627133D01*
X105554836Y-68627133D02*
X105745312Y-69341419D01*
X105745312Y-69341419D02*
X105983408Y-68341419D01*
X106364360Y-68817609D02*
X106697693Y-68817609D01*
X106840550Y-69341419D02*
X106364360Y-69341419D01*
X106364360Y-69341419D02*
X106364360Y-68341419D01*
X106364360Y-68341419D02*
X106840550Y-68341419D01*
X107840550Y-69341419D02*
X107507217Y-68865228D01*
X107269122Y-69341419D02*
X107269122Y-68341419D01*
X107269122Y-68341419D02*
X107650074Y-68341419D01*
X107650074Y-68341419D02*
X107745312Y-68389038D01*
X107745312Y-68389038D02*
X107792931Y-68436657D01*
X107792931Y-68436657D02*
X107840550Y-68531895D01*
X107840550Y-68531895D02*
X107840550Y-68674752D01*
X107840550Y-68674752D02*
X107792931Y-68769990D01*
X107792931Y-68769990D02*
X107745312Y-68817609D01*
X107745312Y-68817609D02*
X107650074Y-68865228D01*
X107650074Y-68865228D02*
X107269122Y-68865228D01*
X109507217Y-69341419D02*
X109031027Y-69341419D01*
X109031027Y-69341419D02*
X109031027Y-68341419D01*
X109840551Y-68817609D02*
X110173884Y-68817609D01*
X110316741Y-69341419D02*
X109840551Y-69341419D01*
X109840551Y-69341419D02*
X109840551Y-68341419D01*
X109840551Y-68341419D02*
X110316741Y-68341419D01*
X110745313Y-69341419D02*
X110745313Y-68341419D01*
X110745313Y-68341419D02*
X110983408Y-68341419D01*
X110983408Y-68341419D02*
X111126265Y-68389038D01*
X111126265Y-68389038D02*
X111221503Y-68484276D01*
X111221503Y-68484276D02*
X111269122Y-68579514D01*
X111269122Y-68579514D02*
X111316741Y-68769990D01*
X111316741Y-68769990D02*
X111316741Y-68912847D01*
X111316741Y-68912847D02*
X111269122Y-69103323D01*
X111269122Y-69103323D02*
X111221503Y-69198561D01*
X111221503Y-69198561D02*
X111126265Y-69293800D01*
X111126265Y-69293800D02*
X110983408Y-69341419D01*
X110983408Y-69341419D02*
X110745313Y-69341419D01*
X104062884Y-61721419D02*
X104062884Y-60721419D01*
X104062884Y-60721419D02*
X104396217Y-61435704D01*
X104396217Y-61435704D02*
X104729550Y-60721419D01*
X104729550Y-60721419D02*
X104729550Y-61721419D01*
X105158122Y-61673800D02*
X105300979Y-61721419D01*
X105300979Y-61721419D02*
X105539074Y-61721419D01*
X105539074Y-61721419D02*
X105634312Y-61673800D01*
X105634312Y-61673800D02*
X105681931Y-61626180D01*
X105681931Y-61626180D02*
X105729550Y-61530942D01*
X105729550Y-61530942D02*
X105729550Y-61435704D01*
X105729550Y-61435704D02*
X105681931Y-61340466D01*
X105681931Y-61340466D02*
X105634312Y-61292847D01*
X105634312Y-61292847D02*
X105539074Y-61245228D01*
X105539074Y-61245228D02*
X105348598Y-61197609D01*
X105348598Y-61197609D02*
X105253360Y-61149990D01*
X105253360Y-61149990D02*
X105205741Y-61102371D01*
X105205741Y-61102371D02*
X105158122Y-61007133D01*
X105158122Y-61007133D02*
X105158122Y-60911895D01*
X105158122Y-60911895D02*
X105205741Y-60816657D01*
X105205741Y-60816657D02*
X105253360Y-60769038D01*
X105253360Y-60769038D02*
X105348598Y-60721419D01*
X105348598Y-60721419D02*
X105586693Y-60721419D01*
X105586693Y-60721419D02*
X105729550Y-60769038D01*
X106681931Y-60769038D02*
X106586693Y-60721419D01*
X106586693Y-60721419D02*
X106443836Y-60721419D01*
X106443836Y-60721419D02*
X106300979Y-60769038D01*
X106300979Y-60769038D02*
X106205741Y-60864276D01*
X106205741Y-60864276D02*
X106158122Y-60959514D01*
X106158122Y-60959514D02*
X106110503Y-61149990D01*
X106110503Y-61149990D02*
X106110503Y-61292847D01*
X106110503Y-61292847D02*
X106158122Y-61483323D01*
X106158122Y-61483323D02*
X106205741Y-61578561D01*
X106205741Y-61578561D02*
X106300979Y-61673800D01*
X106300979Y-61673800D02*
X106443836Y-61721419D01*
X106443836Y-61721419D02*
X106539074Y-61721419D01*
X106539074Y-61721419D02*
X106681931Y-61673800D01*
X106681931Y-61673800D02*
X106729550Y-61626180D01*
X106729550Y-61626180D02*
X106729550Y-61292847D01*
X106729550Y-61292847D02*
X106539074Y-61292847D01*
X108396217Y-61721419D02*
X107920027Y-61721419D01*
X107920027Y-61721419D02*
X107920027Y-60721419D01*
X108729551Y-61197609D02*
X109062884Y-61197609D01*
X109205741Y-61721419D02*
X108729551Y-61721419D01*
X108729551Y-61721419D02*
X108729551Y-60721419D01*
X108729551Y-60721419D02*
X109205741Y-60721419D01*
X109634313Y-61721419D02*
X109634313Y-60721419D01*
X109634313Y-60721419D02*
X109872408Y-60721419D01*
X109872408Y-60721419D02*
X110015265Y-60769038D01*
X110015265Y-60769038D02*
X110110503Y-60864276D01*
X110110503Y-60864276D02*
X110158122Y-60959514D01*
X110158122Y-60959514D02*
X110205741Y-61149990D01*
X110205741Y-61149990D02*
X110205741Y-61292847D01*
X110205741Y-61292847D02*
X110158122Y-61483323D01*
X110158122Y-61483323D02*
X110110503Y-61578561D01*
X110110503Y-61578561D02*
X110015265Y-61673800D01*
X110015265Y-61673800D02*
X109872408Y-61721419D01*
X109872408Y-61721419D02*
X109634313Y-61721419D01*
X48132419Y-24238925D02*
X48132419Y-24715115D01*
X48132419Y-24715115D02*
X47132419Y-24715115D01*
X47132419Y-24000829D02*
X47132419Y-23334163D01*
X47132419Y-23334163D02*
X48132419Y-23762734D01*
X47560990Y-22810353D02*
X47513371Y-22905591D01*
X47513371Y-22905591D02*
X47465752Y-22953210D01*
X47465752Y-22953210D02*
X47370514Y-23000829D01*
X47370514Y-23000829D02*
X47322895Y-23000829D01*
X47322895Y-23000829D02*
X47227657Y-22953210D01*
X47227657Y-22953210D02*
X47180038Y-22905591D01*
X47180038Y-22905591D02*
X47132419Y-22810353D01*
X47132419Y-22810353D02*
X47132419Y-22619877D01*
X47132419Y-22619877D02*
X47180038Y-22524639D01*
X47180038Y-22524639D02*
X47227657Y-22477020D01*
X47227657Y-22477020D02*
X47322895Y-22429401D01*
X47322895Y-22429401D02*
X47370514Y-22429401D01*
X47370514Y-22429401D02*
X47465752Y-22477020D01*
X47465752Y-22477020D02*
X47513371Y-22524639D01*
X47513371Y-22524639D02*
X47560990Y-22619877D01*
X47560990Y-22619877D02*
X47560990Y-22810353D01*
X47560990Y-22810353D02*
X47608609Y-22905591D01*
X47608609Y-22905591D02*
X47656228Y-22953210D01*
X47656228Y-22953210D02*
X47751466Y-23000829D01*
X47751466Y-23000829D02*
X47941942Y-23000829D01*
X47941942Y-23000829D02*
X48037180Y-22953210D01*
X48037180Y-22953210D02*
X48084800Y-22905591D01*
X48084800Y-22905591D02*
X48132419Y-22810353D01*
X48132419Y-22810353D02*
X48132419Y-22619877D01*
X48132419Y-22619877D02*
X48084800Y-22524639D01*
X48084800Y-22524639D02*
X48037180Y-22477020D01*
X48037180Y-22477020D02*
X47941942Y-22429401D01*
X47941942Y-22429401D02*
X47751466Y-22429401D01*
X47751466Y-22429401D02*
X47656228Y-22477020D01*
X47656228Y-22477020D02*
X47608609Y-22524639D01*
X47608609Y-22524639D02*
X47560990Y-22619877D01*
X48132419Y-21524639D02*
X48132419Y-22000829D01*
X48132419Y-22000829D02*
X47132419Y-22000829D01*
X47132419Y-21000829D02*
X47132419Y-20905591D01*
X47132419Y-20905591D02*
X47180038Y-20810353D01*
X47180038Y-20810353D02*
X47227657Y-20762734D01*
X47227657Y-20762734D02*
X47322895Y-20715115D01*
X47322895Y-20715115D02*
X47513371Y-20667496D01*
X47513371Y-20667496D02*
X47751466Y-20667496D01*
X47751466Y-20667496D02*
X47941942Y-20715115D01*
X47941942Y-20715115D02*
X48037180Y-20762734D01*
X48037180Y-20762734D02*
X48084800Y-20810353D01*
X48084800Y-20810353D02*
X48132419Y-20905591D01*
X48132419Y-20905591D02*
X48132419Y-21000829D01*
X48132419Y-21000829D02*
X48084800Y-21096067D01*
X48084800Y-21096067D02*
X48037180Y-21143686D01*
X48037180Y-21143686D02*
X47941942Y-21191305D01*
X47941942Y-21191305D02*
X47751466Y-21238924D01*
X47751466Y-21238924D02*
X47513371Y-21238924D01*
X47513371Y-21238924D02*
X47322895Y-21191305D01*
X47322895Y-21191305D02*
X47227657Y-21143686D01*
X47227657Y-21143686D02*
X47180038Y-21096067D01*
X47180038Y-21096067D02*
X47132419Y-21000829D01*
X47132419Y-19762734D02*
X47132419Y-20238924D01*
X47132419Y-20238924D02*
X47608609Y-20286543D01*
X47608609Y-20286543D02*
X47560990Y-20238924D01*
X47560990Y-20238924D02*
X47513371Y-20143686D01*
X47513371Y-20143686D02*
X47513371Y-19905591D01*
X47513371Y-19905591D02*
X47560990Y-19810353D01*
X47560990Y-19810353D02*
X47608609Y-19762734D01*
X47608609Y-19762734D02*
X47703847Y-19715115D01*
X47703847Y-19715115D02*
X47941942Y-19715115D01*
X47941942Y-19715115D02*
X48037180Y-19762734D01*
X48037180Y-19762734D02*
X48084800Y-19810353D01*
X48084800Y-19810353D02*
X48132419Y-19905591D01*
X48132419Y-19905591D02*
X48132419Y-20143686D01*
X48132419Y-20143686D02*
X48084800Y-20238924D01*
X48084800Y-20238924D02*
X48037180Y-20286543D01*
X42925419Y-63815306D02*
X42925419Y-64386734D01*
X42925419Y-64101020D02*
X41925419Y-64101020D01*
X41925419Y-64101020D02*
X42068276Y-64196258D01*
X42068276Y-64196258D02*
X42163514Y-64291496D01*
X42163514Y-64291496D02*
X42211133Y-64386734D01*
X42925419Y-63386734D02*
X41925419Y-63386734D01*
X41925419Y-63386734D02*
X42925419Y-62815306D01*
X42925419Y-62815306D02*
X41925419Y-62815306D01*
X41925419Y-61862925D02*
X41925419Y-62339115D01*
X41925419Y-62339115D02*
X42401609Y-62386734D01*
X42401609Y-62386734D02*
X42353990Y-62339115D01*
X42353990Y-62339115D02*
X42306371Y-62243877D01*
X42306371Y-62243877D02*
X42306371Y-62005782D01*
X42306371Y-62005782D02*
X42353990Y-61910544D01*
X42353990Y-61910544D02*
X42401609Y-61862925D01*
X42401609Y-61862925D02*
X42496847Y-61815306D01*
X42496847Y-61815306D02*
X42734942Y-61815306D01*
X42734942Y-61815306D02*
X42830180Y-61862925D01*
X42830180Y-61862925D02*
X42877800Y-61910544D01*
X42877800Y-61910544D02*
X42925419Y-62005782D01*
X42925419Y-62005782D02*
X42925419Y-62243877D01*
X42925419Y-62243877D02*
X42877800Y-62339115D01*
X42877800Y-62339115D02*
X42830180Y-62386734D01*
X42353990Y-61243877D02*
X42306371Y-61339115D01*
X42306371Y-61339115D02*
X42258752Y-61386734D01*
X42258752Y-61386734D02*
X42163514Y-61434353D01*
X42163514Y-61434353D02*
X42115895Y-61434353D01*
X42115895Y-61434353D02*
X42020657Y-61386734D01*
X42020657Y-61386734D02*
X41973038Y-61339115D01*
X41973038Y-61339115D02*
X41925419Y-61243877D01*
X41925419Y-61243877D02*
X41925419Y-61053401D01*
X41925419Y-61053401D02*
X41973038Y-60958163D01*
X41973038Y-60958163D02*
X42020657Y-60910544D01*
X42020657Y-60910544D02*
X42115895Y-60862925D01*
X42115895Y-60862925D02*
X42163514Y-60862925D01*
X42163514Y-60862925D02*
X42258752Y-60910544D01*
X42258752Y-60910544D02*
X42306371Y-60958163D01*
X42306371Y-60958163D02*
X42353990Y-61053401D01*
X42353990Y-61053401D02*
X42353990Y-61243877D01*
X42353990Y-61243877D02*
X42401609Y-61339115D01*
X42401609Y-61339115D02*
X42449228Y-61386734D01*
X42449228Y-61386734D02*
X42544466Y-61434353D01*
X42544466Y-61434353D02*
X42734942Y-61434353D01*
X42734942Y-61434353D02*
X42830180Y-61386734D01*
X42830180Y-61386734D02*
X42877800Y-61339115D01*
X42877800Y-61339115D02*
X42925419Y-61243877D01*
X42925419Y-61243877D02*
X42925419Y-61053401D01*
X42925419Y-61053401D02*
X42877800Y-60958163D01*
X42877800Y-60958163D02*
X42830180Y-60910544D01*
X42830180Y-60910544D02*
X42734942Y-60862925D01*
X42734942Y-60862925D02*
X42544466Y-60862925D01*
X42544466Y-60862925D02*
X42449228Y-60910544D01*
X42449228Y-60910544D02*
X42401609Y-60958163D01*
X42401609Y-60958163D02*
X42353990Y-61053401D01*
X42925419Y-59910544D02*
X42925419Y-60481972D01*
X42925419Y-60196258D02*
X41925419Y-60196258D01*
X41925419Y-60196258D02*
X42068276Y-60291496D01*
X42068276Y-60291496D02*
X42163514Y-60386734D01*
X42163514Y-60386734D02*
X42211133Y-60481972D01*
X41925419Y-59577210D02*
X41925419Y-58910544D01*
X41925419Y-58910544D02*
X42925419Y-59339115D01*
X24814884Y-76580419D02*
X24814884Y-75580419D01*
X24814884Y-75580419D02*
X25052979Y-75580419D01*
X25052979Y-75580419D02*
X25195836Y-75628038D01*
X25195836Y-75628038D02*
X25291074Y-75723276D01*
X25291074Y-75723276D02*
X25338693Y-75818514D01*
X25338693Y-75818514D02*
X25386312Y-76008990D01*
X25386312Y-76008990D02*
X25386312Y-76151847D01*
X25386312Y-76151847D02*
X25338693Y-76342323D01*
X25338693Y-76342323D02*
X25291074Y-76437561D01*
X25291074Y-76437561D02*
X25195836Y-76532800D01*
X25195836Y-76532800D02*
X25052979Y-76580419D01*
X25052979Y-76580419D02*
X24814884Y-76580419D01*
X26386312Y-76485180D02*
X26338693Y-76532800D01*
X26338693Y-76532800D02*
X26195836Y-76580419D01*
X26195836Y-76580419D02*
X26100598Y-76580419D01*
X26100598Y-76580419D02*
X25957741Y-76532800D01*
X25957741Y-76532800D02*
X25862503Y-76437561D01*
X25862503Y-76437561D02*
X25814884Y-76342323D01*
X25814884Y-76342323D02*
X25767265Y-76151847D01*
X25767265Y-76151847D02*
X25767265Y-76008990D01*
X25767265Y-76008990D02*
X25814884Y-75818514D01*
X25814884Y-75818514D02*
X25862503Y-75723276D01*
X25862503Y-75723276D02*
X25957741Y-75628038D01*
X25957741Y-75628038D02*
X26100598Y-75580419D01*
X26100598Y-75580419D02*
X26195836Y-75580419D01*
X26195836Y-75580419D02*
X26338693Y-75628038D01*
X26338693Y-75628038D02*
X26386312Y-75675657D01*
X26814884Y-76199466D02*
X27576789Y-76199466D01*
X28052979Y-76580419D02*
X28052979Y-75580419D01*
X28529169Y-76580419D02*
X28529169Y-75580419D01*
X28529169Y-75580419D02*
X29100597Y-76580419D01*
X29100597Y-76580419D02*
X29100597Y-75580419D01*
X30386312Y-76580419D02*
X30576788Y-76580419D01*
X30576788Y-76580419D02*
X30672026Y-76532800D01*
X30672026Y-76532800D02*
X30719645Y-76485180D01*
X30719645Y-76485180D02*
X30814883Y-76342323D01*
X30814883Y-76342323D02*
X30862502Y-76151847D01*
X30862502Y-76151847D02*
X30862502Y-75770895D01*
X30862502Y-75770895D02*
X30814883Y-75675657D01*
X30814883Y-75675657D02*
X30767264Y-75628038D01*
X30767264Y-75628038D02*
X30672026Y-75580419D01*
X30672026Y-75580419D02*
X30481550Y-75580419D01*
X30481550Y-75580419D02*
X30386312Y-75628038D01*
X30386312Y-75628038D02*
X30338693Y-75675657D01*
X30338693Y-75675657D02*
X30291074Y-75770895D01*
X30291074Y-75770895D02*
X30291074Y-76008990D01*
X30291074Y-76008990D02*
X30338693Y-76104228D01*
X30338693Y-76104228D02*
X30386312Y-76151847D01*
X30386312Y-76151847D02*
X30481550Y-76199466D01*
X30481550Y-76199466D02*
X30672026Y-76199466D01*
X30672026Y-76199466D02*
X30767264Y-76151847D01*
X30767264Y-76151847D02*
X30814883Y-76104228D01*
X30814883Y-76104228D02*
X30862502Y-76008990D01*
X31148217Y-75580419D02*
X31481550Y-76580419D01*
X31481550Y-76580419D02*
X31814883Y-75580419D01*
X99925380Y-54904419D02*
X99353952Y-54904419D01*
X99639666Y-54904419D02*
X99639666Y-53904419D01*
X99639666Y-53904419D02*
X99544428Y-54047276D01*
X99544428Y-54047276D02*
X99449190Y-54142514D01*
X99449190Y-54142514D02*
X99353952Y-54190133D01*
X100544428Y-53904419D02*
X100639666Y-53904419D01*
X100639666Y-53904419D02*
X100734904Y-53952038D01*
X100734904Y-53952038D02*
X100782523Y-53999657D01*
X100782523Y-53999657D02*
X100830142Y-54094895D01*
X100830142Y-54094895D02*
X100877761Y-54285371D01*
X100877761Y-54285371D02*
X100877761Y-54523466D01*
X100877761Y-54523466D02*
X100830142Y-54713942D01*
X100830142Y-54713942D02*
X100782523Y-54809180D01*
X100782523Y-54809180D02*
X100734904Y-54856800D01*
X100734904Y-54856800D02*
X100639666Y-54904419D01*
X100639666Y-54904419D02*
X100544428Y-54904419D01*
X100544428Y-54904419D02*
X100449190Y-54856800D01*
X100449190Y-54856800D02*
X100401571Y-54809180D01*
X100401571Y-54809180D02*
X100353952Y-54713942D01*
X100353952Y-54713942D02*
X100306333Y-54523466D01*
X100306333Y-54523466D02*
X100306333Y-54285371D01*
X100306333Y-54285371D02*
X100353952Y-54094895D01*
X100353952Y-54094895D02*
X100401571Y-53999657D01*
X100401571Y-53999657D02*
X100449190Y-53952038D01*
X100449190Y-53952038D02*
X100544428Y-53904419D01*
X101496809Y-53904419D02*
X101592047Y-53904419D01*
X101592047Y-53904419D02*
X101687285Y-53952038D01*
X101687285Y-53952038D02*
X101734904Y-53999657D01*
X101734904Y-53999657D02*
X101782523Y-54094895D01*
X101782523Y-54094895D02*
X101830142Y-54285371D01*
X101830142Y-54285371D02*
X101830142Y-54523466D01*
X101830142Y-54523466D02*
X101782523Y-54713942D01*
X101782523Y-54713942D02*
X101734904Y-54809180D01*
X101734904Y-54809180D02*
X101687285Y-54856800D01*
X101687285Y-54856800D02*
X101592047Y-54904419D01*
X101592047Y-54904419D02*
X101496809Y-54904419D01*
X101496809Y-54904419D02*
X101401571Y-54856800D01*
X101401571Y-54856800D02*
X101353952Y-54809180D01*
X101353952Y-54809180D02*
X101306333Y-54713942D01*
X101306333Y-54713942D02*
X101258714Y-54523466D01*
X101258714Y-54523466D02*
X101258714Y-54285371D01*
X101258714Y-54285371D02*
X101306333Y-54094895D01*
X101306333Y-54094895D02*
X101353952Y-53999657D01*
X101353952Y-53999657D02*
X101401571Y-53952038D01*
X101401571Y-53952038D02*
X101496809Y-53904419D01*
X102687285Y-54237752D02*
X102687285Y-54904419D01*
X102258714Y-54237752D02*
X102258714Y-54761561D01*
X102258714Y-54761561D02*
X102306333Y-54856800D01*
X102306333Y-54856800D02*
X102401571Y-54904419D01*
X102401571Y-54904419D02*
X102544428Y-54904419D01*
X102544428Y-54904419D02*
X102639666Y-54856800D01*
X102639666Y-54856800D02*
X102687285Y-54809180D01*
X103496809Y-54380609D02*
X103163476Y-54380609D01*
X103163476Y-54904419D02*
X103163476Y-53904419D01*
X103163476Y-53904419D02*
X103639666Y-53904419D01*
X100853952Y-56514419D02*
X100282524Y-56514419D01*
X100568238Y-56514419D02*
X100568238Y-55514419D01*
X100568238Y-55514419D02*
X100473000Y-55657276D01*
X100473000Y-55657276D02*
X100377762Y-55752514D01*
X100377762Y-55752514D02*
X100282524Y-55800133D01*
X101711095Y-55514419D02*
X101520619Y-55514419D01*
X101520619Y-55514419D02*
X101425381Y-55562038D01*
X101425381Y-55562038D02*
X101377762Y-55609657D01*
X101377762Y-55609657D02*
X101282524Y-55752514D01*
X101282524Y-55752514D02*
X101234905Y-55942990D01*
X101234905Y-55942990D02*
X101234905Y-56323942D01*
X101234905Y-56323942D02*
X101282524Y-56419180D01*
X101282524Y-56419180D02*
X101330143Y-56466800D01*
X101330143Y-56466800D02*
X101425381Y-56514419D01*
X101425381Y-56514419D02*
X101615857Y-56514419D01*
X101615857Y-56514419D02*
X101711095Y-56466800D01*
X101711095Y-56466800D02*
X101758714Y-56419180D01*
X101758714Y-56419180D02*
X101806333Y-56323942D01*
X101806333Y-56323942D02*
X101806333Y-56085847D01*
X101806333Y-56085847D02*
X101758714Y-55990609D01*
X101758714Y-55990609D02*
X101711095Y-55942990D01*
X101711095Y-55942990D02*
X101615857Y-55895371D01*
X101615857Y-55895371D02*
X101425381Y-55895371D01*
X101425381Y-55895371D02*
X101330143Y-55942990D01*
X101330143Y-55942990D02*
X101282524Y-55990609D01*
X101282524Y-55990609D02*
X101234905Y-56085847D01*
X102092048Y-55514419D02*
X102425381Y-56514419D01*
X102425381Y-56514419D02*
X102758714Y-55514419D01*
X100232925Y-22011419D02*
X100232925Y-21011419D01*
X100232925Y-21011419D02*
X100613877Y-21011419D01*
X100613877Y-21011419D02*
X100709115Y-21059038D01*
X100709115Y-21059038D02*
X100756734Y-21106657D01*
X100756734Y-21106657D02*
X100804353Y-21201895D01*
X100804353Y-21201895D02*
X100804353Y-21344752D01*
X100804353Y-21344752D02*
X100756734Y-21439990D01*
X100756734Y-21439990D02*
X100709115Y-21487609D01*
X100709115Y-21487609D02*
X100613877Y-21535228D01*
X100613877Y-21535228D02*
X100232925Y-21535228D01*
X101185306Y-21963800D02*
X101328163Y-22011419D01*
X101328163Y-22011419D02*
X101566258Y-22011419D01*
X101566258Y-22011419D02*
X101661496Y-21963800D01*
X101661496Y-21963800D02*
X101709115Y-21916180D01*
X101709115Y-21916180D02*
X101756734Y-21820942D01*
X101756734Y-21820942D02*
X101756734Y-21725704D01*
X101756734Y-21725704D02*
X101709115Y-21630466D01*
X101709115Y-21630466D02*
X101661496Y-21582847D01*
X101661496Y-21582847D02*
X101566258Y-21535228D01*
X101566258Y-21535228D02*
X101375782Y-21487609D01*
X101375782Y-21487609D02*
X101280544Y-21439990D01*
X101280544Y-21439990D02*
X101232925Y-21392371D01*
X101232925Y-21392371D02*
X101185306Y-21297133D01*
X101185306Y-21297133D02*
X101185306Y-21201895D01*
X101185306Y-21201895D02*
X101232925Y-21106657D01*
X101232925Y-21106657D02*
X101280544Y-21059038D01*
X101280544Y-21059038D02*
X101375782Y-21011419D01*
X101375782Y-21011419D02*
X101613877Y-21011419D01*
X101613877Y-21011419D02*
X101756734Y-21059038D01*
X102899591Y-20963800D02*
X102042449Y-22249514D01*
X103185306Y-21106657D02*
X103232925Y-21059038D01*
X103232925Y-21059038D02*
X103328163Y-21011419D01*
X103328163Y-21011419D02*
X103566258Y-21011419D01*
X103566258Y-21011419D02*
X103661496Y-21059038D01*
X103661496Y-21059038D02*
X103709115Y-21106657D01*
X103709115Y-21106657D02*
X103756734Y-21201895D01*
X103756734Y-21201895D02*
X103756734Y-21297133D01*
X103756734Y-21297133D02*
X103709115Y-21439990D01*
X103709115Y-21439990D02*
X103137687Y-22011419D01*
X103137687Y-22011419D02*
X103756734Y-22011419D01*
X99566258Y-23621419D02*
X99566258Y-22621419D01*
X99566258Y-22621419D02*
X99899591Y-23335704D01*
X99899591Y-23335704D02*
X100232924Y-22621419D01*
X100232924Y-22621419D02*
X100232924Y-23621419D01*
X100851972Y-23621419D02*
X100756734Y-23573800D01*
X100756734Y-23573800D02*
X100709115Y-23526180D01*
X100709115Y-23526180D02*
X100661496Y-23430942D01*
X100661496Y-23430942D02*
X100661496Y-23145228D01*
X100661496Y-23145228D02*
X100709115Y-23049990D01*
X100709115Y-23049990D02*
X100756734Y-23002371D01*
X100756734Y-23002371D02*
X100851972Y-22954752D01*
X100851972Y-22954752D02*
X100994829Y-22954752D01*
X100994829Y-22954752D02*
X101090067Y-23002371D01*
X101090067Y-23002371D02*
X101137686Y-23049990D01*
X101137686Y-23049990D02*
X101185305Y-23145228D01*
X101185305Y-23145228D02*
X101185305Y-23430942D01*
X101185305Y-23430942D02*
X101137686Y-23526180D01*
X101137686Y-23526180D02*
X101090067Y-23573800D01*
X101090067Y-23573800D02*
X100994829Y-23621419D01*
X100994829Y-23621419D02*
X100851972Y-23621419D01*
X102042448Y-22954752D02*
X102042448Y-23621419D01*
X101613877Y-22954752D02*
X101613877Y-23478561D01*
X101613877Y-23478561D02*
X101661496Y-23573800D01*
X101661496Y-23573800D02*
X101756734Y-23621419D01*
X101756734Y-23621419D02*
X101899591Y-23621419D01*
X101899591Y-23621419D02*
X101994829Y-23573800D01*
X101994829Y-23573800D02*
X102042448Y-23526180D01*
X102471020Y-23573800D02*
X102566258Y-23621419D01*
X102566258Y-23621419D02*
X102756734Y-23621419D01*
X102756734Y-23621419D02*
X102851972Y-23573800D01*
X102851972Y-23573800D02*
X102899591Y-23478561D01*
X102899591Y-23478561D02*
X102899591Y-23430942D01*
X102899591Y-23430942D02*
X102851972Y-23335704D01*
X102851972Y-23335704D02*
X102756734Y-23288085D01*
X102756734Y-23288085D02*
X102613877Y-23288085D01*
X102613877Y-23288085D02*
X102518639Y-23240466D01*
X102518639Y-23240466D02*
X102471020Y-23145228D01*
X102471020Y-23145228D02*
X102471020Y-23097609D01*
X102471020Y-23097609D02*
X102518639Y-23002371D01*
X102518639Y-23002371D02*
X102613877Y-22954752D01*
X102613877Y-22954752D02*
X102756734Y-22954752D01*
X102756734Y-22954752D02*
X102851972Y-23002371D01*
X103709115Y-23573800D02*
X103613877Y-23621419D01*
X103613877Y-23621419D02*
X103423401Y-23621419D01*
X103423401Y-23621419D02*
X103328163Y-23573800D01*
X103328163Y-23573800D02*
X103280544Y-23478561D01*
X103280544Y-23478561D02*
X103280544Y-23097609D01*
X103280544Y-23097609D02*
X103328163Y-23002371D01*
X103328163Y-23002371D02*
X103423401Y-22954752D01*
X103423401Y-22954752D02*
X103613877Y-22954752D01*
X103613877Y-22954752D02*
X103709115Y-23002371D01*
X103709115Y-23002371D02*
X103756734Y-23097609D01*
X103756734Y-23097609D02*
X103756734Y-23192847D01*
X103756734Y-23192847D02*
X103280544Y-23288085D01*
X94061646Y-66055419D02*
X94680693Y-66055419D01*
X94680693Y-66055419D02*
X94347360Y-66436371D01*
X94347360Y-66436371D02*
X94490217Y-66436371D01*
X94490217Y-66436371D02*
X94585455Y-66483990D01*
X94585455Y-66483990D02*
X94633074Y-66531609D01*
X94633074Y-66531609D02*
X94680693Y-66626847D01*
X94680693Y-66626847D02*
X94680693Y-66864942D01*
X94680693Y-66864942D02*
X94633074Y-66960180D01*
X94633074Y-66960180D02*
X94585455Y-67007800D01*
X94585455Y-67007800D02*
X94490217Y-67055419D01*
X94490217Y-67055419D02*
X94204503Y-67055419D01*
X94204503Y-67055419D02*
X94109265Y-67007800D01*
X94109265Y-67007800D02*
X94061646Y-66960180D01*
X95014027Y-66055419D02*
X95633074Y-66055419D01*
X95633074Y-66055419D02*
X95299741Y-66436371D01*
X95299741Y-66436371D02*
X95442598Y-66436371D01*
X95442598Y-66436371D02*
X95537836Y-66483990D01*
X95537836Y-66483990D02*
X95585455Y-66531609D01*
X95585455Y-66531609D02*
X95633074Y-66626847D01*
X95633074Y-66626847D02*
X95633074Y-66864942D01*
X95633074Y-66864942D02*
X95585455Y-66960180D01*
X95585455Y-66960180D02*
X95537836Y-67007800D01*
X95537836Y-67007800D02*
X95442598Y-67055419D01*
X95442598Y-67055419D02*
X95156884Y-67055419D01*
X95156884Y-67055419D02*
X95061646Y-67007800D01*
X95061646Y-67007800D02*
X95014027Y-66960180D01*
X96252122Y-66055419D02*
X96347360Y-66055419D01*
X96347360Y-66055419D02*
X96442598Y-66103038D01*
X96442598Y-66103038D02*
X96490217Y-66150657D01*
X96490217Y-66150657D02*
X96537836Y-66245895D01*
X96537836Y-66245895D02*
X96585455Y-66436371D01*
X96585455Y-66436371D02*
X96585455Y-66674466D01*
X96585455Y-66674466D02*
X96537836Y-66864942D01*
X96537836Y-66864942D02*
X96490217Y-66960180D01*
X96490217Y-66960180D02*
X96442598Y-67007800D01*
X96442598Y-67007800D02*
X96347360Y-67055419D01*
X96347360Y-67055419D02*
X96252122Y-67055419D01*
X96252122Y-67055419D02*
X96156884Y-67007800D01*
X96156884Y-67007800D02*
X96109265Y-66960180D01*
X96109265Y-66960180D02*
X96061646Y-66864942D01*
X96061646Y-66864942D02*
X96014027Y-66674466D01*
X96014027Y-66674466D02*
X96014027Y-66436371D01*
X96014027Y-66436371D02*
X96061646Y-66245895D01*
X96061646Y-66245895D02*
X96109265Y-66150657D01*
X96109265Y-66150657D02*
X96156884Y-66103038D01*
X96156884Y-66103038D02*
X96252122Y-66055419D01*
X97585455Y-67055419D02*
X97252122Y-66579228D01*
X97014027Y-67055419D02*
X97014027Y-66055419D01*
X97014027Y-66055419D02*
X97394979Y-66055419D01*
X97394979Y-66055419D02*
X97490217Y-66103038D01*
X97490217Y-66103038D02*
X97537836Y-66150657D01*
X97537836Y-66150657D02*
X97585455Y-66245895D01*
X97585455Y-66245895D02*
X97585455Y-66388752D01*
X97585455Y-66388752D02*
X97537836Y-66483990D01*
X97537836Y-66483990D02*
X97490217Y-66531609D01*
X97490217Y-66531609D02*
X97394979Y-66579228D01*
X97394979Y-66579228D02*
X97014027Y-66579228D01*
X30529884Y-16296419D02*
X30529884Y-15296419D01*
X30529884Y-15296419D02*
X30910836Y-15296419D01*
X30910836Y-15296419D02*
X31006074Y-15344038D01*
X31006074Y-15344038D02*
X31053693Y-15391657D01*
X31053693Y-15391657D02*
X31101312Y-15486895D01*
X31101312Y-15486895D02*
X31101312Y-15629752D01*
X31101312Y-15629752D02*
X31053693Y-15724990D01*
X31053693Y-15724990D02*
X31006074Y-15772609D01*
X31006074Y-15772609D02*
X30910836Y-15820228D01*
X30910836Y-15820228D02*
X30529884Y-15820228D01*
X31482265Y-16248800D02*
X31625122Y-16296419D01*
X31625122Y-16296419D02*
X31863217Y-16296419D01*
X31863217Y-16296419D02*
X31958455Y-16248800D01*
X31958455Y-16248800D02*
X32006074Y-16201180D01*
X32006074Y-16201180D02*
X32053693Y-16105942D01*
X32053693Y-16105942D02*
X32053693Y-16010704D01*
X32053693Y-16010704D02*
X32006074Y-15915466D01*
X32006074Y-15915466D02*
X31958455Y-15867847D01*
X31958455Y-15867847D02*
X31863217Y-15820228D01*
X31863217Y-15820228D02*
X31672741Y-15772609D01*
X31672741Y-15772609D02*
X31577503Y-15724990D01*
X31577503Y-15724990D02*
X31529884Y-15677371D01*
X31529884Y-15677371D02*
X31482265Y-15582133D01*
X31482265Y-15582133D02*
X31482265Y-15486895D01*
X31482265Y-15486895D02*
X31529884Y-15391657D01*
X31529884Y-15391657D02*
X31577503Y-15344038D01*
X31577503Y-15344038D02*
X31672741Y-15296419D01*
X31672741Y-15296419D02*
X31910836Y-15296419D01*
X31910836Y-15296419D02*
X32053693Y-15344038D01*
X33196550Y-15248800D02*
X32339408Y-16534514D01*
X33482265Y-15391657D02*
X33529884Y-15344038D01*
X33529884Y-15344038D02*
X33625122Y-15296419D01*
X33625122Y-15296419D02*
X33863217Y-15296419D01*
X33863217Y-15296419D02*
X33958455Y-15344038D01*
X33958455Y-15344038D02*
X34006074Y-15391657D01*
X34006074Y-15391657D02*
X34053693Y-15486895D01*
X34053693Y-15486895D02*
X34053693Y-15582133D01*
X34053693Y-15582133D02*
X34006074Y-15724990D01*
X34006074Y-15724990D02*
X33434646Y-16296419D01*
X33434646Y-16296419D02*
X34053693Y-16296419D01*
X35244170Y-16296419D02*
X35244170Y-15629752D01*
X35244170Y-15724990D02*
X35291789Y-15677371D01*
X35291789Y-15677371D02*
X35387027Y-15629752D01*
X35387027Y-15629752D02*
X35529884Y-15629752D01*
X35529884Y-15629752D02*
X35625122Y-15677371D01*
X35625122Y-15677371D02*
X35672741Y-15772609D01*
X35672741Y-15772609D02*
X35672741Y-16296419D01*
X35672741Y-15772609D02*
X35720360Y-15677371D01*
X35720360Y-15677371D02*
X35815598Y-15629752D01*
X35815598Y-15629752D02*
X35958455Y-15629752D01*
X35958455Y-15629752D02*
X36053694Y-15677371D01*
X36053694Y-15677371D02*
X36101313Y-15772609D01*
X36101313Y-15772609D02*
X36101313Y-16296419D01*
X36720360Y-16296419D02*
X36625122Y-16248800D01*
X36625122Y-16248800D02*
X36577503Y-16201180D01*
X36577503Y-16201180D02*
X36529884Y-16105942D01*
X36529884Y-16105942D02*
X36529884Y-15820228D01*
X36529884Y-15820228D02*
X36577503Y-15724990D01*
X36577503Y-15724990D02*
X36625122Y-15677371D01*
X36625122Y-15677371D02*
X36720360Y-15629752D01*
X36720360Y-15629752D02*
X36863217Y-15629752D01*
X36863217Y-15629752D02*
X36958455Y-15677371D01*
X36958455Y-15677371D02*
X37006074Y-15724990D01*
X37006074Y-15724990D02*
X37053693Y-15820228D01*
X37053693Y-15820228D02*
X37053693Y-16105942D01*
X37053693Y-16105942D02*
X37006074Y-16201180D01*
X37006074Y-16201180D02*
X36958455Y-16248800D01*
X36958455Y-16248800D02*
X36863217Y-16296419D01*
X36863217Y-16296419D02*
X36720360Y-16296419D01*
X37910836Y-15629752D02*
X37910836Y-16296419D01*
X37482265Y-15629752D02*
X37482265Y-16153561D01*
X37482265Y-16153561D02*
X37529884Y-16248800D01*
X37529884Y-16248800D02*
X37625122Y-16296419D01*
X37625122Y-16296419D02*
X37767979Y-16296419D01*
X37767979Y-16296419D02*
X37863217Y-16248800D01*
X37863217Y-16248800D02*
X37910836Y-16201180D01*
X38339408Y-16248800D02*
X38434646Y-16296419D01*
X38434646Y-16296419D02*
X38625122Y-16296419D01*
X38625122Y-16296419D02*
X38720360Y-16248800D01*
X38720360Y-16248800D02*
X38767979Y-16153561D01*
X38767979Y-16153561D02*
X38767979Y-16105942D01*
X38767979Y-16105942D02*
X38720360Y-16010704D01*
X38720360Y-16010704D02*
X38625122Y-15963085D01*
X38625122Y-15963085D02*
X38482265Y-15963085D01*
X38482265Y-15963085D02*
X38387027Y-15915466D01*
X38387027Y-15915466D02*
X38339408Y-15820228D01*
X38339408Y-15820228D02*
X38339408Y-15772609D01*
X38339408Y-15772609D02*
X38387027Y-15677371D01*
X38387027Y-15677371D02*
X38482265Y-15629752D01*
X38482265Y-15629752D02*
X38625122Y-15629752D01*
X38625122Y-15629752D02*
X38720360Y-15677371D01*
X39577503Y-16248800D02*
X39482265Y-16296419D01*
X39482265Y-16296419D02*
X39291789Y-16296419D01*
X39291789Y-16296419D02*
X39196551Y-16248800D01*
X39196551Y-16248800D02*
X39148932Y-16153561D01*
X39148932Y-16153561D02*
X39148932Y-15772609D01*
X39148932Y-15772609D02*
X39196551Y-15677371D01*
X39196551Y-15677371D02*
X39291789Y-15629752D01*
X39291789Y-15629752D02*
X39482265Y-15629752D01*
X39482265Y-15629752D02*
X39577503Y-15677371D01*
X39577503Y-15677371D02*
X39625122Y-15772609D01*
X39625122Y-15772609D02*
X39625122Y-15867847D01*
X39625122Y-15867847D02*
X39148932Y-15963085D01*
X40672742Y-15629752D02*
X41053694Y-15629752D01*
X40815599Y-15296419D02*
X40815599Y-16153561D01*
X40815599Y-16153561D02*
X40863218Y-16248800D01*
X40863218Y-16248800D02*
X40958456Y-16296419D01*
X40958456Y-16296419D02*
X41053694Y-16296419D01*
X41529885Y-16296419D02*
X41434647Y-16248800D01*
X41434647Y-16248800D02*
X41387028Y-16201180D01*
X41387028Y-16201180D02*
X41339409Y-16105942D01*
X41339409Y-16105942D02*
X41339409Y-15820228D01*
X41339409Y-15820228D02*
X41387028Y-15724990D01*
X41387028Y-15724990D02*
X41434647Y-15677371D01*
X41434647Y-15677371D02*
X41529885Y-15629752D01*
X41529885Y-15629752D02*
X41672742Y-15629752D01*
X41672742Y-15629752D02*
X41767980Y-15677371D01*
X41767980Y-15677371D02*
X41815599Y-15724990D01*
X41815599Y-15724990D02*
X41863218Y-15820228D01*
X41863218Y-15820228D02*
X41863218Y-16105942D01*
X41863218Y-16105942D02*
X41815599Y-16201180D01*
X41815599Y-16201180D02*
X41767980Y-16248800D01*
X41767980Y-16248800D02*
X41672742Y-16296419D01*
X41672742Y-16296419D02*
X41529885Y-16296419D01*
X43006076Y-16248800D02*
X43101314Y-16296419D01*
X43101314Y-16296419D02*
X43291790Y-16296419D01*
X43291790Y-16296419D02*
X43387028Y-16248800D01*
X43387028Y-16248800D02*
X43434647Y-16153561D01*
X43434647Y-16153561D02*
X43434647Y-16105942D01*
X43434647Y-16105942D02*
X43387028Y-16010704D01*
X43387028Y-16010704D02*
X43291790Y-15963085D01*
X43291790Y-15963085D02*
X43148933Y-15963085D01*
X43148933Y-15963085D02*
X43053695Y-15915466D01*
X43053695Y-15915466D02*
X43006076Y-15820228D01*
X43006076Y-15820228D02*
X43006076Y-15772609D01*
X43006076Y-15772609D02*
X43053695Y-15677371D01*
X43053695Y-15677371D02*
X43148933Y-15629752D01*
X43148933Y-15629752D02*
X43291790Y-15629752D01*
X43291790Y-15629752D02*
X43387028Y-15677371D01*
X44244171Y-16248800D02*
X44148933Y-16296419D01*
X44148933Y-16296419D02*
X43958457Y-16296419D01*
X43958457Y-16296419D02*
X43863219Y-16248800D01*
X43863219Y-16248800D02*
X43815600Y-16153561D01*
X43815600Y-16153561D02*
X43815600Y-15772609D01*
X43815600Y-15772609D02*
X43863219Y-15677371D01*
X43863219Y-15677371D02*
X43958457Y-15629752D01*
X43958457Y-15629752D02*
X44148933Y-15629752D01*
X44148933Y-15629752D02*
X44244171Y-15677371D01*
X44244171Y-15677371D02*
X44291790Y-15772609D01*
X44291790Y-15772609D02*
X44291790Y-15867847D01*
X44291790Y-15867847D02*
X43815600Y-15963085D01*
X44720362Y-16296419D02*
X44720362Y-15629752D01*
X44720362Y-15820228D02*
X44767981Y-15724990D01*
X44767981Y-15724990D02*
X44815600Y-15677371D01*
X44815600Y-15677371D02*
X44910838Y-15629752D01*
X44910838Y-15629752D02*
X45006076Y-15629752D01*
X45339410Y-16296419D02*
X45339410Y-15629752D01*
X45339410Y-15296419D02*
X45291791Y-15344038D01*
X45291791Y-15344038D02*
X45339410Y-15391657D01*
X45339410Y-15391657D02*
X45387029Y-15344038D01*
X45387029Y-15344038D02*
X45339410Y-15296419D01*
X45339410Y-15296419D02*
X45339410Y-15391657D01*
X46244171Y-16296419D02*
X46244171Y-15772609D01*
X46244171Y-15772609D02*
X46196552Y-15677371D01*
X46196552Y-15677371D02*
X46101314Y-15629752D01*
X46101314Y-15629752D02*
X45910838Y-15629752D01*
X45910838Y-15629752D02*
X45815600Y-15677371D01*
X46244171Y-16248800D02*
X46148933Y-16296419D01*
X46148933Y-16296419D02*
X45910838Y-16296419D01*
X45910838Y-16296419D02*
X45815600Y-16248800D01*
X45815600Y-16248800D02*
X45767981Y-16153561D01*
X45767981Y-16153561D02*
X45767981Y-16058323D01*
X45767981Y-16058323D02*
X45815600Y-15963085D01*
X45815600Y-15963085D02*
X45910838Y-15915466D01*
X45910838Y-15915466D02*
X46148933Y-15915466D01*
X46148933Y-15915466D02*
X46244171Y-15867847D01*
X46863219Y-16296419D02*
X46767981Y-16248800D01*
X46767981Y-16248800D02*
X46720362Y-16153561D01*
X46720362Y-16153561D02*
X46720362Y-15296419D01*
X48006077Y-15629752D02*
X48006077Y-16629752D01*
X48006077Y-15677371D02*
X48101315Y-15629752D01*
X48101315Y-15629752D02*
X48291791Y-15629752D01*
X48291791Y-15629752D02*
X48387029Y-15677371D01*
X48387029Y-15677371D02*
X48434648Y-15724990D01*
X48434648Y-15724990D02*
X48482267Y-15820228D01*
X48482267Y-15820228D02*
X48482267Y-16105942D01*
X48482267Y-16105942D02*
X48434648Y-16201180D01*
X48434648Y-16201180D02*
X48387029Y-16248800D01*
X48387029Y-16248800D02*
X48291791Y-16296419D01*
X48291791Y-16296419D02*
X48101315Y-16296419D01*
X48101315Y-16296419D02*
X48006077Y-16248800D01*
X49053696Y-16296419D02*
X48958458Y-16248800D01*
X48958458Y-16248800D02*
X48910839Y-16201180D01*
X48910839Y-16201180D02*
X48863220Y-16105942D01*
X48863220Y-16105942D02*
X48863220Y-15820228D01*
X48863220Y-15820228D02*
X48910839Y-15724990D01*
X48910839Y-15724990D02*
X48958458Y-15677371D01*
X48958458Y-15677371D02*
X49053696Y-15629752D01*
X49053696Y-15629752D02*
X49196553Y-15629752D01*
X49196553Y-15629752D02*
X49291791Y-15677371D01*
X49291791Y-15677371D02*
X49339410Y-15724990D01*
X49339410Y-15724990D02*
X49387029Y-15820228D01*
X49387029Y-15820228D02*
X49387029Y-16105942D01*
X49387029Y-16105942D02*
X49339410Y-16201180D01*
X49339410Y-16201180D02*
X49291791Y-16248800D01*
X49291791Y-16248800D02*
X49196553Y-16296419D01*
X49196553Y-16296419D02*
X49053696Y-16296419D01*
X49815601Y-16296419D02*
X49815601Y-15629752D01*
X49815601Y-15820228D02*
X49863220Y-15724990D01*
X49863220Y-15724990D02*
X49910839Y-15677371D01*
X49910839Y-15677371D02*
X50006077Y-15629752D01*
X50006077Y-15629752D02*
X50101315Y-15629752D01*
X50291792Y-15629752D02*
X50672744Y-15629752D01*
X50434649Y-15296419D02*
X50434649Y-16153561D01*
X50434649Y-16153561D02*
X50482268Y-16248800D01*
X50482268Y-16248800D02*
X50577506Y-16296419D01*
X50577506Y-16296419D02*
X50672744Y-16296419D01*
X52196554Y-16296419D02*
X52196554Y-15772609D01*
X52196554Y-15772609D02*
X52148935Y-15677371D01*
X52148935Y-15677371D02*
X52053697Y-15629752D01*
X52053697Y-15629752D02*
X51863221Y-15629752D01*
X51863221Y-15629752D02*
X51767983Y-15677371D01*
X52196554Y-16248800D02*
X52101316Y-16296419D01*
X52101316Y-16296419D02*
X51863221Y-16296419D01*
X51863221Y-16296419D02*
X51767983Y-16248800D01*
X51767983Y-16248800D02*
X51720364Y-16153561D01*
X51720364Y-16153561D02*
X51720364Y-16058323D01*
X51720364Y-16058323D02*
X51767983Y-15963085D01*
X51767983Y-15963085D02*
X51863221Y-15915466D01*
X51863221Y-15915466D02*
X52101316Y-15915466D01*
X52101316Y-15915466D02*
X52196554Y-15867847D01*
X53101316Y-16296419D02*
X53101316Y-15296419D01*
X53101316Y-16248800D02*
X53006078Y-16296419D01*
X53006078Y-16296419D02*
X52815602Y-16296419D01*
X52815602Y-16296419D02*
X52720364Y-16248800D01*
X52720364Y-16248800D02*
X52672745Y-16201180D01*
X52672745Y-16201180D02*
X52625126Y-16105942D01*
X52625126Y-16105942D02*
X52625126Y-15820228D01*
X52625126Y-15820228D02*
X52672745Y-15724990D01*
X52672745Y-15724990D02*
X52720364Y-15677371D01*
X52720364Y-15677371D02*
X52815602Y-15629752D01*
X52815602Y-15629752D02*
X53006078Y-15629752D01*
X53006078Y-15629752D02*
X53101316Y-15677371D01*
X54006078Y-16296419D02*
X54006078Y-15772609D01*
X54006078Y-15772609D02*
X53958459Y-15677371D01*
X53958459Y-15677371D02*
X53863221Y-15629752D01*
X53863221Y-15629752D02*
X53672745Y-15629752D01*
X53672745Y-15629752D02*
X53577507Y-15677371D01*
X54006078Y-16248800D02*
X53910840Y-16296419D01*
X53910840Y-16296419D02*
X53672745Y-16296419D01*
X53672745Y-16296419D02*
X53577507Y-16248800D01*
X53577507Y-16248800D02*
X53529888Y-16153561D01*
X53529888Y-16153561D02*
X53529888Y-16058323D01*
X53529888Y-16058323D02*
X53577507Y-15963085D01*
X53577507Y-15963085D02*
X53672745Y-15915466D01*
X53672745Y-15915466D02*
X53910840Y-15915466D01*
X53910840Y-15915466D02*
X54006078Y-15867847D01*
X54482269Y-15629752D02*
X54482269Y-16629752D01*
X54482269Y-15677371D02*
X54577507Y-15629752D01*
X54577507Y-15629752D02*
X54767983Y-15629752D01*
X54767983Y-15629752D02*
X54863221Y-15677371D01*
X54863221Y-15677371D02*
X54910840Y-15724990D01*
X54910840Y-15724990D02*
X54958459Y-15820228D01*
X54958459Y-15820228D02*
X54958459Y-16105942D01*
X54958459Y-16105942D02*
X54910840Y-16201180D01*
X54910840Y-16201180D02*
X54863221Y-16248800D01*
X54863221Y-16248800D02*
X54767983Y-16296419D01*
X54767983Y-16296419D02*
X54577507Y-16296419D01*
X54577507Y-16296419D02*
X54482269Y-16248800D01*
X55244174Y-15629752D02*
X55625126Y-15629752D01*
X55387031Y-15296419D02*
X55387031Y-16153561D01*
X55387031Y-16153561D02*
X55434650Y-16248800D01*
X55434650Y-16248800D02*
X55529888Y-16296419D01*
X55529888Y-16296419D02*
X55625126Y-16296419D01*
X56339412Y-16248800D02*
X56244174Y-16296419D01*
X56244174Y-16296419D02*
X56053698Y-16296419D01*
X56053698Y-16296419D02*
X55958460Y-16248800D01*
X55958460Y-16248800D02*
X55910841Y-16153561D01*
X55910841Y-16153561D02*
X55910841Y-15772609D01*
X55910841Y-15772609D02*
X55958460Y-15677371D01*
X55958460Y-15677371D02*
X56053698Y-15629752D01*
X56053698Y-15629752D02*
X56244174Y-15629752D01*
X56244174Y-15629752D02*
X56339412Y-15677371D01*
X56339412Y-15677371D02*
X56387031Y-15772609D01*
X56387031Y-15772609D02*
X56387031Y-15867847D01*
X56387031Y-15867847D02*
X55910841Y-15963085D01*
X56815603Y-16296419D02*
X56815603Y-15629752D01*
X56815603Y-15820228D02*
X56863222Y-15724990D01*
X56863222Y-15724990D02*
X56910841Y-15677371D01*
X56910841Y-15677371D02*
X57006079Y-15629752D01*
X57006079Y-15629752D02*
X57101317Y-15629752D01*
X58482270Y-16629752D02*
X58244175Y-16629752D01*
X58244175Y-16629752D02*
X58244175Y-15201180D01*
X58244175Y-15201180D02*
X58482270Y-15201180D01*
X58863223Y-16296419D02*
X58863223Y-15296419D01*
X58863223Y-15296419D02*
X59244175Y-15296419D01*
X59244175Y-15296419D02*
X59339413Y-15344038D01*
X59339413Y-15344038D02*
X59387032Y-15391657D01*
X59387032Y-15391657D02*
X59434651Y-15486895D01*
X59434651Y-15486895D02*
X59434651Y-15629752D01*
X59434651Y-15629752D02*
X59387032Y-15724990D01*
X59387032Y-15724990D02*
X59339413Y-15772609D01*
X59339413Y-15772609D02*
X59244175Y-15820228D01*
X59244175Y-15820228D02*
X58863223Y-15820228D01*
X60434651Y-16201180D02*
X60387032Y-16248800D01*
X60387032Y-16248800D02*
X60244175Y-16296419D01*
X60244175Y-16296419D02*
X60148937Y-16296419D01*
X60148937Y-16296419D02*
X60006080Y-16248800D01*
X60006080Y-16248800D02*
X59910842Y-16153561D01*
X59910842Y-16153561D02*
X59863223Y-16058323D01*
X59863223Y-16058323D02*
X59815604Y-15867847D01*
X59815604Y-15867847D02*
X59815604Y-15724990D01*
X59815604Y-15724990D02*
X59863223Y-15534514D01*
X59863223Y-15534514D02*
X59910842Y-15439276D01*
X59910842Y-15439276D02*
X60006080Y-15344038D01*
X60006080Y-15344038D02*
X60148937Y-15296419D01*
X60148937Y-15296419D02*
X60244175Y-15296419D01*
X60244175Y-15296419D02*
X60387032Y-15344038D01*
X60387032Y-15344038D02*
X60434651Y-15391657D01*
X61196556Y-15772609D02*
X61339413Y-15820228D01*
X61339413Y-15820228D02*
X61387032Y-15867847D01*
X61387032Y-15867847D02*
X61434651Y-15963085D01*
X61434651Y-15963085D02*
X61434651Y-16105942D01*
X61434651Y-16105942D02*
X61387032Y-16201180D01*
X61387032Y-16201180D02*
X61339413Y-16248800D01*
X61339413Y-16248800D02*
X61244175Y-16296419D01*
X61244175Y-16296419D02*
X60863223Y-16296419D01*
X60863223Y-16296419D02*
X60863223Y-15296419D01*
X60863223Y-15296419D02*
X61196556Y-15296419D01*
X61196556Y-15296419D02*
X61291794Y-15344038D01*
X61291794Y-15344038D02*
X61339413Y-15391657D01*
X61339413Y-15391657D02*
X61387032Y-15486895D01*
X61387032Y-15486895D02*
X61387032Y-15582133D01*
X61387032Y-15582133D02*
X61339413Y-15677371D01*
X61339413Y-15677371D02*
X61291794Y-15724990D01*
X61291794Y-15724990D02*
X61196556Y-15772609D01*
X61196556Y-15772609D02*
X60863223Y-15772609D01*
X62529890Y-15629752D02*
X62767985Y-16296419D01*
X62767985Y-16296419D02*
X63006080Y-15629752D01*
X63910842Y-16296419D02*
X63339414Y-16296419D01*
X63625128Y-16296419D02*
X63625128Y-15296419D01*
X63625128Y-15296419D02*
X63529890Y-15439276D01*
X63529890Y-15439276D02*
X63434652Y-15534514D01*
X63434652Y-15534514D02*
X63339414Y-15582133D01*
X64339414Y-16201180D02*
X64387033Y-16248800D01*
X64387033Y-16248800D02*
X64339414Y-16296419D01*
X64339414Y-16296419D02*
X64291795Y-16248800D01*
X64291795Y-16248800D02*
X64339414Y-16201180D01*
X64339414Y-16201180D02*
X64339414Y-16296419D01*
X64720366Y-15296419D02*
X65339413Y-15296419D01*
X65339413Y-15296419D02*
X65006080Y-15677371D01*
X65006080Y-15677371D02*
X65148937Y-15677371D01*
X65148937Y-15677371D02*
X65244175Y-15724990D01*
X65244175Y-15724990D02*
X65291794Y-15772609D01*
X65291794Y-15772609D02*
X65339413Y-15867847D01*
X65339413Y-15867847D02*
X65339413Y-16105942D01*
X65339413Y-16105942D02*
X65291794Y-16201180D01*
X65291794Y-16201180D02*
X65244175Y-16248800D01*
X65244175Y-16248800D02*
X65148937Y-16296419D01*
X65148937Y-16296419D02*
X64863223Y-16296419D01*
X64863223Y-16296419D02*
X64767985Y-16248800D01*
X64767985Y-16248800D02*
X64720366Y-16201180D01*
X65767985Y-16201180D02*
X65815604Y-16248800D01*
X65815604Y-16248800D02*
X65767985Y-16296419D01*
X65767985Y-16296419D02*
X65720366Y-16248800D01*
X65720366Y-16248800D02*
X65767985Y-16201180D01*
X65767985Y-16201180D02*
X65767985Y-16296419D01*
X66434651Y-15296419D02*
X66529889Y-15296419D01*
X66529889Y-15296419D02*
X66625127Y-15344038D01*
X66625127Y-15344038D02*
X66672746Y-15391657D01*
X66672746Y-15391657D02*
X66720365Y-15486895D01*
X66720365Y-15486895D02*
X66767984Y-15677371D01*
X66767984Y-15677371D02*
X66767984Y-15915466D01*
X66767984Y-15915466D02*
X66720365Y-16105942D01*
X66720365Y-16105942D02*
X66672746Y-16201180D01*
X66672746Y-16201180D02*
X66625127Y-16248800D01*
X66625127Y-16248800D02*
X66529889Y-16296419D01*
X66529889Y-16296419D02*
X66434651Y-16296419D01*
X66434651Y-16296419D02*
X66339413Y-16248800D01*
X66339413Y-16248800D02*
X66291794Y-16201180D01*
X66291794Y-16201180D02*
X66244175Y-16105942D01*
X66244175Y-16105942D02*
X66196556Y-15915466D01*
X66196556Y-15915466D02*
X66196556Y-15677371D01*
X66196556Y-15677371D02*
X66244175Y-15486895D01*
X66244175Y-15486895D02*
X66291794Y-15391657D01*
X66291794Y-15391657D02*
X66339413Y-15344038D01*
X66339413Y-15344038D02*
X66434651Y-15296419D01*
X67101318Y-16629752D02*
X67339413Y-16629752D01*
X67339413Y-16629752D02*
X67339413Y-15201180D01*
X67339413Y-15201180D02*
X67101318Y-15201180D01*
X30815598Y-18287371D02*
X30767979Y-18239752D01*
X30767979Y-18239752D02*
X30672741Y-18096895D01*
X30672741Y-18096895D02*
X30625122Y-18001657D01*
X30625122Y-18001657D02*
X30577503Y-17858800D01*
X30577503Y-17858800D02*
X30529884Y-17620704D01*
X30529884Y-17620704D02*
X30529884Y-17430228D01*
X30529884Y-17430228D02*
X30577503Y-17192133D01*
X30577503Y-17192133D02*
X30625122Y-17049276D01*
X30625122Y-17049276D02*
X30672741Y-16954038D01*
X30672741Y-16954038D02*
X30767979Y-16811180D01*
X30767979Y-16811180D02*
X30815598Y-16763561D01*
X31625122Y-17858800D02*
X31529884Y-17906419D01*
X31529884Y-17906419D02*
X31339408Y-17906419D01*
X31339408Y-17906419D02*
X31244170Y-17858800D01*
X31244170Y-17858800D02*
X31196551Y-17811180D01*
X31196551Y-17811180D02*
X31148932Y-17715942D01*
X31148932Y-17715942D02*
X31148932Y-17430228D01*
X31148932Y-17430228D02*
X31196551Y-17334990D01*
X31196551Y-17334990D02*
X31244170Y-17287371D01*
X31244170Y-17287371D02*
X31339408Y-17239752D01*
X31339408Y-17239752D02*
X31529884Y-17239752D01*
X31529884Y-17239752D02*
X31625122Y-17287371D01*
X31958456Y-18287371D02*
X32006075Y-18239752D01*
X32006075Y-18239752D02*
X32101313Y-18096895D01*
X32101313Y-18096895D02*
X32148932Y-18001657D01*
X32148932Y-18001657D02*
X32196551Y-17858800D01*
X32196551Y-17858800D02*
X32244170Y-17620704D01*
X32244170Y-17620704D02*
X32244170Y-17430228D01*
X32244170Y-17430228D02*
X32196551Y-17192133D01*
X32196551Y-17192133D02*
X32148932Y-17049276D01*
X32148932Y-17049276D02*
X32101313Y-16954038D01*
X32101313Y-16954038D02*
X32006075Y-16811180D01*
X32006075Y-16811180D02*
X31958456Y-16763561D01*
X32672742Y-17001657D02*
X32720361Y-16954038D01*
X32720361Y-16954038D02*
X32815599Y-16906419D01*
X32815599Y-16906419D02*
X33053694Y-16906419D01*
X33053694Y-16906419D02*
X33148932Y-16954038D01*
X33148932Y-16954038D02*
X33196551Y-17001657D01*
X33196551Y-17001657D02*
X33244170Y-17096895D01*
X33244170Y-17096895D02*
X33244170Y-17192133D01*
X33244170Y-17192133D02*
X33196551Y-17334990D01*
X33196551Y-17334990D02*
X32625123Y-17906419D01*
X32625123Y-17906419D02*
X33244170Y-17906419D01*
X33863218Y-16906419D02*
X33958456Y-16906419D01*
X33958456Y-16906419D02*
X34053694Y-16954038D01*
X34053694Y-16954038D02*
X34101313Y-17001657D01*
X34101313Y-17001657D02*
X34148932Y-17096895D01*
X34148932Y-17096895D02*
X34196551Y-17287371D01*
X34196551Y-17287371D02*
X34196551Y-17525466D01*
X34196551Y-17525466D02*
X34148932Y-17715942D01*
X34148932Y-17715942D02*
X34101313Y-17811180D01*
X34101313Y-17811180D02*
X34053694Y-17858800D01*
X34053694Y-17858800D02*
X33958456Y-17906419D01*
X33958456Y-17906419D02*
X33863218Y-17906419D01*
X33863218Y-17906419D02*
X33767980Y-17858800D01*
X33767980Y-17858800D02*
X33720361Y-17811180D01*
X33720361Y-17811180D02*
X33672742Y-17715942D01*
X33672742Y-17715942D02*
X33625123Y-17525466D01*
X33625123Y-17525466D02*
X33625123Y-17287371D01*
X33625123Y-17287371D02*
X33672742Y-17096895D01*
X33672742Y-17096895D02*
X33720361Y-17001657D01*
X33720361Y-17001657D02*
X33767980Y-16954038D01*
X33767980Y-16954038D02*
X33863218Y-16906419D01*
X34577504Y-17001657D02*
X34625123Y-16954038D01*
X34625123Y-16954038D02*
X34720361Y-16906419D01*
X34720361Y-16906419D02*
X34958456Y-16906419D01*
X34958456Y-16906419D02*
X35053694Y-16954038D01*
X35053694Y-16954038D02*
X35101313Y-17001657D01*
X35101313Y-17001657D02*
X35148932Y-17096895D01*
X35148932Y-17096895D02*
X35148932Y-17192133D01*
X35148932Y-17192133D02*
X35101313Y-17334990D01*
X35101313Y-17334990D02*
X34529885Y-17906419D01*
X34529885Y-17906419D02*
X35148932Y-17906419D01*
X35482266Y-16906419D02*
X36101313Y-16906419D01*
X36101313Y-16906419D02*
X35767980Y-17287371D01*
X35767980Y-17287371D02*
X35910837Y-17287371D01*
X35910837Y-17287371D02*
X36006075Y-17334990D01*
X36006075Y-17334990D02*
X36053694Y-17382609D01*
X36053694Y-17382609D02*
X36101313Y-17477847D01*
X36101313Y-17477847D02*
X36101313Y-17715942D01*
X36101313Y-17715942D02*
X36053694Y-17811180D01*
X36053694Y-17811180D02*
X36006075Y-17858800D01*
X36006075Y-17858800D02*
X35910837Y-17906419D01*
X35910837Y-17906419D02*
X35625123Y-17906419D01*
X35625123Y-17906419D02*
X35529885Y-17858800D01*
X35529885Y-17858800D02*
X35482266Y-17811180D01*
X37291790Y-17906419D02*
X37291790Y-16906419D01*
X37291790Y-17287371D02*
X37387028Y-17239752D01*
X37387028Y-17239752D02*
X37577504Y-17239752D01*
X37577504Y-17239752D02*
X37672742Y-17287371D01*
X37672742Y-17287371D02*
X37720361Y-17334990D01*
X37720361Y-17334990D02*
X37767980Y-17430228D01*
X37767980Y-17430228D02*
X37767980Y-17715942D01*
X37767980Y-17715942D02*
X37720361Y-17811180D01*
X37720361Y-17811180D02*
X37672742Y-17858800D01*
X37672742Y-17858800D02*
X37577504Y-17906419D01*
X37577504Y-17906419D02*
X37387028Y-17906419D01*
X37387028Y-17906419D02*
X37291790Y-17858800D01*
X38101314Y-17239752D02*
X38339409Y-17906419D01*
X38577504Y-17239752D02*
X38339409Y-17906419D01*
X38339409Y-17906419D02*
X38244171Y-18144514D01*
X38244171Y-18144514D02*
X38196552Y-18192133D01*
X38196552Y-18192133D02*
X38101314Y-18239752D01*
X40291790Y-17811180D02*
X40244171Y-17858800D01*
X40244171Y-17858800D02*
X40101314Y-17906419D01*
X40101314Y-17906419D02*
X40006076Y-17906419D01*
X40006076Y-17906419D02*
X39863219Y-17858800D01*
X39863219Y-17858800D02*
X39767981Y-17763561D01*
X39767981Y-17763561D02*
X39720362Y-17668323D01*
X39720362Y-17668323D02*
X39672743Y-17477847D01*
X39672743Y-17477847D02*
X39672743Y-17334990D01*
X39672743Y-17334990D02*
X39720362Y-17144514D01*
X39720362Y-17144514D02*
X39767981Y-17049276D01*
X39767981Y-17049276D02*
X39863219Y-16954038D01*
X39863219Y-16954038D02*
X40006076Y-16906419D01*
X40006076Y-16906419D02*
X40101314Y-16906419D01*
X40101314Y-16906419D02*
X40244171Y-16954038D01*
X40244171Y-16954038D02*
X40291790Y-17001657D01*
X41101314Y-17858800D02*
X41006076Y-17906419D01*
X41006076Y-17906419D02*
X40815600Y-17906419D01*
X40815600Y-17906419D02*
X40720362Y-17858800D01*
X40720362Y-17858800D02*
X40672743Y-17763561D01*
X40672743Y-17763561D02*
X40672743Y-17382609D01*
X40672743Y-17382609D02*
X40720362Y-17287371D01*
X40720362Y-17287371D02*
X40815600Y-17239752D01*
X40815600Y-17239752D02*
X41006076Y-17239752D01*
X41006076Y-17239752D02*
X41101314Y-17287371D01*
X41101314Y-17287371D02*
X41148933Y-17382609D01*
X41148933Y-17382609D02*
X41148933Y-17477847D01*
X41148933Y-17477847D02*
X40672743Y-17573085D01*
X41529886Y-17858800D02*
X41625124Y-17906419D01*
X41625124Y-17906419D02*
X41815600Y-17906419D01*
X41815600Y-17906419D02*
X41910838Y-17858800D01*
X41910838Y-17858800D02*
X41958457Y-17763561D01*
X41958457Y-17763561D02*
X41958457Y-17715942D01*
X41958457Y-17715942D02*
X41910838Y-17620704D01*
X41910838Y-17620704D02*
X41815600Y-17573085D01*
X41815600Y-17573085D02*
X41672743Y-17573085D01*
X41672743Y-17573085D02*
X41577505Y-17525466D01*
X41577505Y-17525466D02*
X41529886Y-17430228D01*
X41529886Y-17430228D02*
X41529886Y-17382609D01*
X41529886Y-17382609D02*
X41577505Y-17287371D01*
X41577505Y-17287371D02*
X41672743Y-17239752D01*
X41672743Y-17239752D02*
X41815600Y-17239752D01*
X41815600Y-17239752D02*
X41910838Y-17287371D01*
X42815600Y-17906419D02*
X42815600Y-17382609D01*
X42815600Y-17382609D02*
X42767981Y-17287371D01*
X42767981Y-17287371D02*
X42672743Y-17239752D01*
X42672743Y-17239752D02*
X42482267Y-17239752D01*
X42482267Y-17239752D02*
X42387029Y-17287371D01*
X42815600Y-17858800D02*
X42720362Y-17906419D01*
X42720362Y-17906419D02*
X42482267Y-17906419D01*
X42482267Y-17906419D02*
X42387029Y-17858800D01*
X42387029Y-17858800D02*
X42339410Y-17763561D01*
X42339410Y-17763561D02*
X42339410Y-17668323D01*
X42339410Y-17668323D02*
X42387029Y-17573085D01*
X42387029Y-17573085D02*
X42482267Y-17525466D01*
X42482267Y-17525466D02*
X42720362Y-17525466D01*
X42720362Y-17525466D02*
X42815600Y-17477847D01*
X43291791Y-17906419D02*
X43291791Y-17239752D01*
X43291791Y-17430228D02*
X43339410Y-17334990D01*
X43339410Y-17334990D02*
X43387029Y-17287371D01*
X43387029Y-17287371D02*
X43482267Y-17239752D01*
X43482267Y-17239752D02*
X43577505Y-17239752D01*
X45244172Y-17906419D02*
X44910839Y-17430228D01*
X44672744Y-17906419D02*
X44672744Y-16906419D01*
X44672744Y-16906419D02*
X45053696Y-16906419D01*
X45053696Y-16906419D02*
X45148934Y-16954038D01*
X45148934Y-16954038D02*
X45196553Y-17001657D01*
X45196553Y-17001657D02*
X45244172Y-17096895D01*
X45244172Y-17096895D02*
X45244172Y-17239752D01*
X45244172Y-17239752D02*
X45196553Y-17334990D01*
X45196553Y-17334990D02*
X45148934Y-17382609D01*
X45148934Y-17382609D02*
X45053696Y-17430228D01*
X45053696Y-17430228D02*
X44672744Y-17430228D01*
X45672744Y-17906419D02*
X45672744Y-17239752D01*
X45672744Y-16906419D02*
X45625125Y-16954038D01*
X45625125Y-16954038D02*
X45672744Y-17001657D01*
X45672744Y-17001657D02*
X45720363Y-16954038D01*
X45720363Y-16954038D02*
X45672744Y-16906419D01*
X45672744Y-16906419D02*
X45672744Y-17001657D01*
X46148934Y-17239752D02*
X46148934Y-17906419D01*
X46148934Y-17334990D02*
X46196553Y-17287371D01*
X46196553Y-17287371D02*
X46291791Y-17239752D01*
X46291791Y-17239752D02*
X46434648Y-17239752D01*
X46434648Y-17239752D02*
X46529886Y-17287371D01*
X46529886Y-17287371D02*
X46577505Y-17382609D01*
X46577505Y-17382609D02*
X46577505Y-17906419D01*
X47482267Y-17858800D02*
X47387029Y-17906419D01*
X47387029Y-17906419D02*
X47196553Y-17906419D01*
X47196553Y-17906419D02*
X47101315Y-17858800D01*
X47101315Y-17858800D02*
X47053696Y-17811180D01*
X47053696Y-17811180D02*
X47006077Y-17715942D01*
X47006077Y-17715942D02*
X47006077Y-17430228D01*
X47006077Y-17430228D02*
X47053696Y-17334990D01*
X47053696Y-17334990D02*
X47101315Y-17287371D01*
X47101315Y-17287371D02*
X47196553Y-17239752D01*
X47196553Y-17239752D02*
X47387029Y-17239752D01*
X47387029Y-17239752D02*
X47482267Y-17287371D01*
X48053696Y-17906419D02*
X47958458Y-17858800D01*
X47958458Y-17858800D02*
X47910839Y-17811180D01*
X47910839Y-17811180D02*
X47863220Y-17715942D01*
X47863220Y-17715942D02*
X47863220Y-17430228D01*
X47863220Y-17430228D02*
X47910839Y-17334990D01*
X47910839Y-17334990D02*
X47958458Y-17287371D01*
X47958458Y-17287371D02*
X48053696Y-17239752D01*
X48053696Y-17239752D02*
X48196553Y-17239752D01*
X48196553Y-17239752D02*
X48291791Y-17287371D01*
X48291791Y-17287371D02*
X48339410Y-17334990D01*
X48339410Y-17334990D02*
X48387029Y-17430228D01*
X48387029Y-17430228D02*
X48387029Y-17715942D01*
X48387029Y-17715942D02*
X48339410Y-17811180D01*
X48339410Y-17811180D02*
X48291791Y-17858800D01*
X48291791Y-17858800D02*
X48196553Y-17906419D01*
X48196553Y-17906419D02*
X48053696Y-17906419D01*
X48815601Y-17239752D02*
X48815601Y-17906419D01*
X48815601Y-17334990D02*
X48863220Y-17287371D01*
X48863220Y-17287371D02*
X48958458Y-17239752D01*
X48958458Y-17239752D02*
X49101315Y-17239752D01*
X49101315Y-17239752D02*
X49196553Y-17287371D01*
X49196553Y-17287371D02*
X49244172Y-17382609D01*
X49244172Y-17382609D02*
X49244172Y-17906419D01*
X53529888Y-17239752D02*
X53529888Y-17906419D01*
X53529888Y-17334990D02*
X53577507Y-17287371D01*
X53577507Y-17287371D02*
X53672745Y-17239752D01*
X53672745Y-17239752D02*
X53815602Y-17239752D01*
X53815602Y-17239752D02*
X53910840Y-17287371D01*
X53910840Y-17287371D02*
X53958459Y-17382609D01*
X53958459Y-17382609D02*
X53958459Y-17906419D01*
X54434650Y-17906419D02*
X54434650Y-17239752D01*
X54434650Y-16906419D02*
X54387031Y-16954038D01*
X54387031Y-16954038D02*
X54434650Y-17001657D01*
X54434650Y-17001657D02*
X54482269Y-16954038D01*
X54482269Y-16954038D02*
X54434650Y-16906419D01*
X54434650Y-16906419D02*
X54434650Y-17001657D01*
X55339411Y-17239752D02*
X55339411Y-18049276D01*
X55339411Y-18049276D02*
X55291792Y-18144514D01*
X55291792Y-18144514D02*
X55244173Y-18192133D01*
X55244173Y-18192133D02*
X55148935Y-18239752D01*
X55148935Y-18239752D02*
X55006078Y-18239752D01*
X55006078Y-18239752D02*
X54910840Y-18192133D01*
X55339411Y-17858800D02*
X55244173Y-17906419D01*
X55244173Y-17906419D02*
X55053697Y-17906419D01*
X55053697Y-17906419D02*
X54958459Y-17858800D01*
X54958459Y-17858800D02*
X54910840Y-17811180D01*
X54910840Y-17811180D02*
X54863221Y-17715942D01*
X54863221Y-17715942D02*
X54863221Y-17430228D01*
X54863221Y-17430228D02*
X54910840Y-17334990D01*
X54910840Y-17334990D02*
X54958459Y-17287371D01*
X54958459Y-17287371D02*
X55053697Y-17239752D01*
X55053697Y-17239752D02*
X55244173Y-17239752D01*
X55244173Y-17239752D02*
X55339411Y-17287371D01*
X55815602Y-17906419D02*
X55815602Y-16906419D01*
X56244173Y-17906419D02*
X56244173Y-17382609D01*
X56244173Y-17382609D02*
X56196554Y-17287371D01*
X56196554Y-17287371D02*
X56101316Y-17239752D01*
X56101316Y-17239752D02*
X55958459Y-17239752D01*
X55958459Y-17239752D02*
X55863221Y-17287371D01*
X55863221Y-17287371D02*
X55815602Y-17334990D01*
X56577507Y-17239752D02*
X56958459Y-17239752D01*
X56720364Y-16906419D02*
X56720364Y-17763561D01*
X56720364Y-17763561D02*
X56767983Y-17858800D01*
X56767983Y-17858800D02*
X56863221Y-17906419D01*
X56863221Y-17906419D02*
X56958459Y-17906419D01*
X57148936Y-17239752D02*
X57529888Y-17239752D01*
X57291793Y-17906419D02*
X57291793Y-17049276D01*
X57291793Y-17049276D02*
X57339412Y-16954038D01*
X57339412Y-16954038D02*
X57434650Y-16906419D01*
X57434650Y-16906419D02*
X57529888Y-16906419D01*
X58006079Y-17906419D02*
X57910841Y-17858800D01*
X57910841Y-17858800D02*
X57863222Y-17811180D01*
X57863222Y-17811180D02*
X57815603Y-17715942D01*
X57815603Y-17715942D02*
X57815603Y-17430228D01*
X57815603Y-17430228D02*
X57863222Y-17334990D01*
X57863222Y-17334990D02*
X57910841Y-17287371D01*
X57910841Y-17287371D02*
X58006079Y-17239752D01*
X58006079Y-17239752D02*
X58148936Y-17239752D01*
X58148936Y-17239752D02*
X58244174Y-17287371D01*
X58244174Y-17287371D02*
X58291793Y-17334990D01*
X58291793Y-17334990D02*
X58339412Y-17430228D01*
X58339412Y-17430228D02*
X58339412Y-17715942D01*
X58339412Y-17715942D02*
X58291793Y-17811180D01*
X58291793Y-17811180D02*
X58244174Y-17858800D01*
X58244174Y-17858800D02*
X58148936Y-17906419D01*
X58148936Y-17906419D02*
X58006079Y-17906419D01*
X58672746Y-17906419D02*
X59196555Y-17239752D01*
X58672746Y-17239752D02*
X59196555Y-17906419D01*
X60006079Y-17906419D02*
X60006079Y-17382609D01*
X60006079Y-17382609D02*
X59958460Y-17287371D01*
X59958460Y-17287371D02*
X59863222Y-17239752D01*
X59863222Y-17239752D02*
X59672746Y-17239752D01*
X59672746Y-17239752D02*
X59577508Y-17287371D01*
X60006079Y-17858800D02*
X59910841Y-17906419D01*
X59910841Y-17906419D02*
X59672746Y-17906419D01*
X59672746Y-17906419D02*
X59577508Y-17858800D01*
X59577508Y-17858800D02*
X59529889Y-17763561D01*
X59529889Y-17763561D02*
X59529889Y-17668323D01*
X59529889Y-17668323D02*
X59577508Y-17573085D01*
X59577508Y-17573085D02*
X59672746Y-17525466D01*
X59672746Y-17525466D02*
X59910841Y-17525466D01*
X59910841Y-17525466D02*
X60006079Y-17477847D01*
X60482270Y-17239752D02*
X60482270Y-17906419D01*
X60482270Y-17334990D02*
X60529889Y-17287371D01*
X60529889Y-17287371D02*
X60625127Y-17239752D01*
X60625127Y-17239752D02*
X60767984Y-17239752D01*
X60767984Y-17239752D02*
X60863222Y-17287371D01*
X60863222Y-17287371D02*
X60910841Y-17382609D01*
X60910841Y-17382609D02*
X60910841Y-17906419D01*
X61815603Y-17906419D02*
X61815603Y-16906419D01*
X61815603Y-17858800D02*
X61720365Y-17906419D01*
X61720365Y-17906419D02*
X61529889Y-17906419D01*
X61529889Y-17906419D02*
X61434651Y-17858800D01*
X61434651Y-17858800D02*
X61387032Y-17811180D01*
X61387032Y-17811180D02*
X61339413Y-17715942D01*
X61339413Y-17715942D02*
X61339413Y-17430228D01*
X61339413Y-17430228D02*
X61387032Y-17334990D01*
X61387032Y-17334990D02*
X61434651Y-17287371D01*
X61434651Y-17287371D02*
X61529889Y-17239752D01*
X61529889Y-17239752D02*
X61720365Y-17239752D01*
X61720365Y-17239752D02*
X61815603Y-17287371D01*
X62720365Y-17858800D02*
X62625127Y-17906419D01*
X62625127Y-17906419D02*
X62434651Y-17906419D01*
X62434651Y-17906419D02*
X62339413Y-17858800D01*
X62339413Y-17858800D02*
X62291794Y-17811180D01*
X62291794Y-17811180D02*
X62244175Y-17715942D01*
X62244175Y-17715942D02*
X62244175Y-17430228D01*
X62244175Y-17430228D02*
X62291794Y-17334990D01*
X62291794Y-17334990D02*
X62339413Y-17287371D01*
X62339413Y-17287371D02*
X62434651Y-17239752D01*
X62434651Y-17239752D02*
X62625127Y-17239752D01*
X62625127Y-17239752D02*
X62720365Y-17287371D01*
X63291794Y-17906419D02*
X63196556Y-17858800D01*
X63196556Y-17858800D02*
X63148937Y-17811180D01*
X63148937Y-17811180D02*
X63101318Y-17715942D01*
X63101318Y-17715942D02*
X63101318Y-17430228D01*
X63101318Y-17430228D02*
X63148937Y-17334990D01*
X63148937Y-17334990D02*
X63196556Y-17287371D01*
X63196556Y-17287371D02*
X63291794Y-17239752D01*
X63291794Y-17239752D02*
X63434651Y-17239752D01*
X63434651Y-17239752D02*
X63529889Y-17287371D01*
X63529889Y-17287371D02*
X63577508Y-17334990D01*
X63577508Y-17334990D02*
X63625127Y-17430228D01*
X63625127Y-17430228D02*
X63625127Y-17715942D01*
X63625127Y-17715942D02*
X63577508Y-17811180D01*
X63577508Y-17811180D02*
X63529889Y-17858800D01*
X63529889Y-17858800D02*
X63434651Y-17906419D01*
X63434651Y-17906419D02*
X63291794Y-17906419D01*
X64053699Y-17811180D02*
X64101318Y-17858800D01*
X64101318Y-17858800D02*
X64053699Y-17906419D01*
X64053699Y-17906419D02*
X64006080Y-17858800D01*
X64006080Y-17858800D02*
X64053699Y-17811180D01*
X64053699Y-17811180D02*
X64053699Y-17906419D01*
X64958460Y-17858800D02*
X64863222Y-17906419D01*
X64863222Y-17906419D02*
X64672746Y-17906419D01*
X64672746Y-17906419D02*
X64577508Y-17858800D01*
X64577508Y-17858800D02*
X64529889Y-17811180D01*
X64529889Y-17811180D02*
X64482270Y-17715942D01*
X64482270Y-17715942D02*
X64482270Y-17430228D01*
X64482270Y-17430228D02*
X64529889Y-17334990D01*
X64529889Y-17334990D02*
X64577508Y-17287371D01*
X64577508Y-17287371D02*
X64672746Y-17239752D01*
X64672746Y-17239752D02*
X64863222Y-17239752D01*
X64863222Y-17239752D02*
X64958460Y-17287371D01*
X65529889Y-17906419D02*
X65434651Y-17858800D01*
X65434651Y-17858800D02*
X65387032Y-17811180D01*
X65387032Y-17811180D02*
X65339413Y-17715942D01*
X65339413Y-17715942D02*
X65339413Y-17430228D01*
X65339413Y-17430228D02*
X65387032Y-17334990D01*
X65387032Y-17334990D02*
X65434651Y-17287371D01*
X65434651Y-17287371D02*
X65529889Y-17239752D01*
X65529889Y-17239752D02*
X65672746Y-17239752D01*
X65672746Y-17239752D02*
X65767984Y-17287371D01*
X65767984Y-17287371D02*
X65815603Y-17334990D01*
X65815603Y-17334990D02*
X65863222Y-17430228D01*
X65863222Y-17430228D02*
X65863222Y-17715942D01*
X65863222Y-17715942D02*
X65815603Y-17811180D01*
X65815603Y-17811180D02*
X65767984Y-17858800D01*
X65767984Y-17858800D02*
X65672746Y-17906419D01*
X65672746Y-17906419D02*
X65529889Y-17906419D01*
X66291794Y-17906419D02*
X66291794Y-17239752D01*
X66291794Y-17334990D02*
X66339413Y-17287371D01*
X66339413Y-17287371D02*
X66434651Y-17239752D01*
X66434651Y-17239752D02*
X66577508Y-17239752D01*
X66577508Y-17239752D02*
X66672746Y-17287371D01*
X66672746Y-17287371D02*
X66720365Y-17382609D01*
X66720365Y-17382609D02*
X66720365Y-17906419D01*
X66720365Y-17382609D02*
X66767984Y-17287371D01*
X66767984Y-17287371D02*
X66863222Y-17239752D01*
X66863222Y-17239752D02*
X67006079Y-17239752D01*
X67006079Y-17239752D02*
X67101318Y-17287371D01*
X67101318Y-17287371D02*
X67148937Y-17382609D01*
X67148937Y-17382609D02*
X67148937Y-17906419D01*
X60451419Y-24953306D02*
X60451419Y-25524734D01*
X60451419Y-25239020D02*
X59451419Y-25239020D01*
X59451419Y-25239020D02*
X59594276Y-25334258D01*
X59594276Y-25334258D02*
X59689514Y-25429496D01*
X59689514Y-25429496D02*
X59737133Y-25524734D01*
X60451419Y-24524734D02*
X59451419Y-24524734D01*
X60451419Y-23953306D02*
X59879990Y-24381877D01*
X59451419Y-23953306D02*
X60022847Y-24524734D01*
X83224952Y-69874657D02*
X83272571Y-69827038D01*
X83272571Y-69827038D02*
X83367809Y-69779419D01*
X83367809Y-69779419D02*
X83605904Y-69779419D01*
X83605904Y-69779419D02*
X83701142Y-69827038D01*
X83701142Y-69827038D02*
X83748761Y-69874657D01*
X83748761Y-69874657D02*
X83796380Y-69969895D01*
X83796380Y-69969895D02*
X83796380Y-70065133D01*
X83796380Y-70065133D02*
X83748761Y-70207990D01*
X83748761Y-70207990D02*
X83177333Y-70779419D01*
X83177333Y-70779419D02*
X83796380Y-70779419D01*
X84177333Y-69874657D02*
X84224952Y-69827038D01*
X84224952Y-69827038D02*
X84320190Y-69779419D01*
X84320190Y-69779419D02*
X84558285Y-69779419D01*
X84558285Y-69779419D02*
X84653523Y-69827038D01*
X84653523Y-69827038D02*
X84701142Y-69874657D01*
X84701142Y-69874657D02*
X84748761Y-69969895D01*
X84748761Y-69969895D02*
X84748761Y-70065133D01*
X84748761Y-70065133D02*
X84701142Y-70207990D01*
X84701142Y-70207990D02*
X84129714Y-70779419D01*
X84129714Y-70779419D02*
X84748761Y-70779419D01*
X85367809Y-69779419D02*
X85463047Y-69779419D01*
X85463047Y-69779419D02*
X85558285Y-69827038D01*
X85558285Y-69827038D02*
X85605904Y-69874657D01*
X85605904Y-69874657D02*
X85653523Y-69969895D01*
X85653523Y-69969895D02*
X85701142Y-70160371D01*
X85701142Y-70160371D02*
X85701142Y-70398466D01*
X85701142Y-70398466D02*
X85653523Y-70588942D01*
X85653523Y-70588942D02*
X85605904Y-70684180D01*
X85605904Y-70684180D02*
X85558285Y-70731800D01*
X85558285Y-70731800D02*
X85463047Y-70779419D01*
X85463047Y-70779419D02*
X85367809Y-70779419D01*
X85367809Y-70779419D02*
X85272571Y-70731800D01*
X85272571Y-70731800D02*
X85224952Y-70684180D01*
X85224952Y-70684180D02*
X85177333Y-70588942D01*
X85177333Y-70588942D02*
X85129714Y-70398466D01*
X85129714Y-70398466D02*
X85129714Y-70160371D01*
X85129714Y-70160371D02*
X85177333Y-69969895D01*
X85177333Y-69969895D02*
X85224952Y-69874657D01*
X85224952Y-69874657D02*
X85272571Y-69827038D01*
X85272571Y-69827038D02*
X85367809Y-69779419D01*
X86558285Y-70112752D02*
X86558285Y-70779419D01*
X86129714Y-70112752D02*
X86129714Y-70636561D01*
X86129714Y-70636561D02*
X86177333Y-70731800D01*
X86177333Y-70731800D02*
X86272571Y-70779419D01*
X86272571Y-70779419D02*
X86415428Y-70779419D01*
X86415428Y-70779419D02*
X86510666Y-70731800D01*
X86510666Y-70731800D02*
X86558285Y-70684180D01*
X87367809Y-70255609D02*
X87034476Y-70255609D01*
X87034476Y-70779419D02*
X87034476Y-69779419D01*
X87034476Y-69779419D02*
X87510666Y-69779419D01*
X84724952Y-72389419D02*
X84153524Y-72389419D01*
X84439238Y-72389419D02*
X84439238Y-71389419D01*
X84439238Y-71389419D02*
X84344000Y-71532276D01*
X84344000Y-71532276D02*
X84248762Y-71627514D01*
X84248762Y-71627514D02*
X84153524Y-71675133D01*
X85582095Y-71389419D02*
X85391619Y-71389419D01*
X85391619Y-71389419D02*
X85296381Y-71437038D01*
X85296381Y-71437038D02*
X85248762Y-71484657D01*
X85248762Y-71484657D02*
X85153524Y-71627514D01*
X85153524Y-71627514D02*
X85105905Y-71817990D01*
X85105905Y-71817990D02*
X85105905Y-72198942D01*
X85105905Y-72198942D02*
X85153524Y-72294180D01*
X85153524Y-72294180D02*
X85201143Y-72341800D01*
X85201143Y-72341800D02*
X85296381Y-72389419D01*
X85296381Y-72389419D02*
X85486857Y-72389419D01*
X85486857Y-72389419D02*
X85582095Y-72341800D01*
X85582095Y-72341800D02*
X85629714Y-72294180D01*
X85629714Y-72294180D02*
X85677333Y-72198942D01*
X85677333Y-72198942D02*
X85677333Y-71960847D01*
X85677333Y-71960847D02*
X85629714Y-71865609D01*
X85629714Y-71865609D02*
X85582095Y-71817990D01*
X85582095Y-71817990D02*
X85486857Y-71770371D01*
X85486857Y-71770371D02*
X85296381Y-71770371D01*
X85296381Y-71770371D02*
X85201143Y-71817990D01*
X85201143Y-71817990D02*
X85153524Y-71865609D01*
X85153524Y-71865609D02*
X85105905Y-71960847D01*
X85963048Y-71389419D02*
X86296381Y-72389419D01*
X86296381Y-72389419D02*
X86629714Y-71389419D01*
X37845419Y-28128306D02*
X37845419Y-28699734D01*
X37845419Y-28414020D02*
X36845419Y-28414020D01*
X36845419Y-28414020D02*
X36988276Y-28509258D01*
X36988276Y-28509258D02*
X37083514Y-28604496D01*
X37083514Y-28604496D02*
X37131133Y-28699734D01*
X37845419Y-27699734D02*
X36845419Y-27699734D01*
X36845419Y-27699734D02*
X37845419Y-27128306D01*
X37845419Y-27128306D02*
X36845419Y-27128306D01*
X37178752Y-26223544D02*
X37845419Y-26223544D01*
X36797800Y-26461639D02*
X37512085Y-26699734D01*
X37512085Y-26699734D02*
X37512085Y-26080687D01*
X37845419Y-25175925D02*
X37845419Y-25747353D01*
X37845419Y-25461639D02*
X36845419Y-25461639D01*
X36845419Y-25461639D02*
X36988276Y-25556877D01*
X36988276Y-25556877D02*
X37083514Y-25652115D01*
X37083514Y-25652115D02*
X37131133Y-25747353D01*
X37178752Y-24318782D02*
X37845419Y-24318782D01*
X36797800Y-24556877D02*
X37512085Y-24794972D01*
X37512085Y-24794972D02*
X37512085Y-24175925D01*
X37273990Y-23652115D02*
X37226371Y-23747353D01*
X37226371Y-23747353D02*
X37178752Y-23794972D01*
X37178752Y-23794972D02*
X37083514Y-23842591D01*
X37083514Y-23842591D02*
X37035895Y-23842591D01*
X37035895Y-23842591D02*
X36940657Y-23794972D01*
X36940657Y-23794972D02*
X36893038Y-23747353D01*
X36893038Y-23747353D02*
X36845419Y-23652115D01*
X36845419Y-23652115D02*
X36845419Y-23461639D01*
X36845419Y-23461639D02*
X36893038Y-23366401D01*
X36893038Y-23366401D02*
X36940657Y-23318782D01*
X36940657Y-23318782D02*
X37035895Y-23271163D01*
X37035895Y-23271163D02*
X37083514Y-23271163D01*
X37083514Y-23271163D02*
X37178752Y-23318782D01*
X37178752Y-23318782D02*
X37226371Y-23366401D01*
X37226371Y-23366401D02*
X37273990Y-23461639D01*
X37273990Y-23461639D02*
X37273990Y-23652115D01*
X37273990Y-23652115D02*
X37321609Y-23747353D01*
X37321609Y-23747353D02*
X37369228Y-23794972D01*
X37369228Y-23794972D02*
X37464466Y-23842591D01*
X37464466Y-23842591D02*
X37654942Y-23842591D01*
X37654942Y-23842591D02*
X37750180Y-23794972D01*
X37750180Y-23794972D02*
X37797800Y-23747353D01*
X37797800Y-23747353D02*
X37845419Y-23652115D01*
X37845419Y-23652115D02*
X37845419Y-23461639D01*
X37845419Y-23461639D02*
X37797800Y-23366401D01*
X37797800Y-23366401D02*
X37750180Y-23318782D01*
X37750180Y-23318782D02*
X37654942Y-23271163D01*
X37654942Y-23271163D02*
X37464466Y-23271163D01*
X37464466Y-23271163D02*
X37369228Y-23318782D01*
X37369228Y-23318782D02*
X37321609Y-23366401D01*
X37321609Y-23366401D02*
X37273990Y-23461639D01*
X53278693Y-34289419D02*
X52707265Y-34289419D01*
X52992979Y-34289419D02*
X52992979Y-33289419D01*
X52992979Y-33289419D02*
X52897741Y-33432276D01*
X52897741Y-33432276D02*
X52802503Y-33527514D01*
X52802503Y-33527514D02*
X52707265Y-33575133D01*
X53897741Y-33289419D02*
X53992979Y-33289419D01*
X53992979Y-33289419D02*
X54088217Y-33337038D01*
X54088217Y-33337038D02*
X54135836Y-33384657D01*
X54135836Y-33384657D02*
X54183455Y-33479895D01*
X54183455Y-33479895D02*
X54231074Y-33670371D01*
X54231074Y-33670371D02*
X54231074Y-33908466D01*
X54231074Y-33908466D02*
X54183455Y-34098942D01*
X54183455Y-34098942D02*
X54135836Y-34194180D01*
X54135836Y-34194180D02*
X54088217Y-34241800D01*
X54088217Y-34241800D02*
X53992979Y-34289419D01*
X53992979Y-34289419D02*
X53897741Y-34289419D01*
X53897741Y-34289419D02*
X53802503Y-34241800D01*
X53802503Y-34241800D02*
X53754884Y-34194180D01*
X53754884Y-34194180D02*
X53707265Y-34098942D01*
X53707265Y-34098942D02*
X53659646Y-33908466D01*
X53659646Y-33908466D02*
X53659646Y-33670371D01*
X53659646Y-33670371D02*
X53707265Y-33479895D01*
X53707265Y-33479895D02*
X53754884Y-33384657D01*
X53754884Y-33384657D02*
X53802503Y-33337038D01*
X53802503Y-33337038D02*
X53897741Y-33289419D01*
X54659646Y-34289419D02*
X54659646Y-33289419D01*
X55231074Y-34289419D02*
X54802503Y-33717990D01*
X55231074Y-33289419D02*
X54659646Y-33860847D01*
X37924800Y-42034734D02*
X37972419Y-41891877D01*
X37972419Y-41891877D02*
X37972419Y-41653782D01*
X37972419Y-41653782D02*
X37924800Y-41558544D01*
X37924800Y-41558544D02*
X37877180Y-41510925D01*
X37877180Y-41510925D02*
X37781942Y-41463306D01*
X37781942Y-41463306D02*
X37686704Y-41463306D01*
X37686704Y-41463306D02*
X37591466Y-41510925D01*
X37591466Y-41510925D02*
X37543847Y-41558544D01*
X37543847Y-41558544D02*
X37496228Y-41653782D01*
X37496228Y-41653782D02*
X37448609Y-41844258D01*
X37448609Y-41844258D02*
X37400990Y-41939496D01*
X37400990Y-41939496D02*
X37353371Y-41987115D01*
X37353371Y-41987115D02*
X37258133Y-42034734D01*
X37258133Y-42034734D02*
X37162895Y-42034734D01*
X37162895Y-42034734D02*
X37067657Y-41987115D01*
X37067657Y-41987115D02*
X37020038Y-41939496D01*
X37020038Y-41939496D02*
X36972419Y-41844258D01*
X36972419Y-41844258D02*
X36972419Y-41606163D01*
X36972419Y-41606163D02*
X37020038Y-41463306D01*
X37924800Y-40653782D02*
X37972419Y-40749020D01*
X37972419Y-40749020D02*
X37972419Y-40939496D01*
X37972419Y-40939496D02*
X37924800Y-41034734D01*
X37924800Y-41034734D02*
X37829561Y-41082353D01*
X37829561Y-41082353D02*
X37448609Y-41082353D01*
X37448609Y-41082353D02*
X37353371Y-41034734D01*
X37353371Y-41034734D02*
X37305752Y-40939496D01*
X37305752Y-40939496D02*
X37305752Y-40749020D01*
X37305752Y-40749020D02*
X37353371Y-40653782D01*
X37353371Y-40653782D02*
X37448609Y-40606163D01*
X37448609Y-40606163D02*
X37543847Y-40606163D01*
X37543847Y-40606163D02*
X37639085Y-41082353D01*
X37972419Y-40177591D02*
X37305752Y-40177591D01*
X37496228Y-40177591D02*
X37400990Y-40129972D01*
X37400990Y-40129972D02*
X37353371Y-40082353D01*
X37353371Y-40082353D02*
X37305752Y-39987115D01*
X37305752Y-39987115D02*
X37305752Y-39891877D01*
X37972419Y-39558543D02*
X37305752Y-39558543D01*
X36972419Y-39558543D02*
X37020038Y-39606162D01*
X37020038Y-39606162D02*
X37067657Y-39558543D01*
X37067657Y-39558543D02*
X37020038Y-39510924D01*
X37020038Y-39510924D02*
X36972419Y-39558543D01*
X36972419Y-39558543D02*
X37067657Y-39558543D01*
X37972419Y-38653782D02*
X37448609Y-38653782D01*
X37448609Y-38653782D02*
X37353371Y-38701401D01*
X37353371Y-38701401D02*
X37305752Y-38796639D01*
X37305752Y-38796639D02*
X37305752Y-38987115D01*
X37305752Y-38987115D02*
X37353371Y-39082353D01*
X37924800Y-38653782D02*
X37972419Y-38749020D01*
X37972419Y-38749020D02*
X37972419Y-38987115D01*
X37972419Y-38987115D02*
X37924800Y-39082353D01*
X37924800Y-39082353D02*
X37829561Y-39129972D01*
X37829561Y-39129972D02*
X37734323Y-39129972D01*
X37734323Y-39129972D02*
X37639085Y-39082353D01*
X37639085Y-39082353D02*
X37591466Y-38987115D01*
X37591466Y-38987115D02*
X37591466Y-38749020D01*
X37591466Y-38749020D02*
X37543847Y-38653782D01*
X37972419Y-38034734D02*
X37924800Y-38129972D01*
X37924800Y-38129972D02*
X37829561Y-38177591D01*
X37829561Y-38177591D02*
X36972419Y-38177591D01*
X37972419Y-36891876D02*
X36972419Y-36891876D01*
X36972419Y-36891876D02*
X36972419Y-36510924D01*
X36972419Y-36510924D02*
X37020038Y-36415686D01*
X37020038Y-36415686D02*
X37067657Y-36368067D01*
X37067657Y-36368067D02*
X37162895Y-36320448D01*
X37162895Y-36320448D02*
X37305752Y-36320448D01*
X37305752Y-36320448D02*
X37400990Y-36368067D01*
X37400990Y-36368067D02*
X37448609Y-36415686D01*
X37448609Y-36415686D02*
X37496228Y-36510924D01*
X37496228Y-36510924D02*
X37496228Y-36891876D01*
X37972419Y-35749019D02*
X37924800Y-35844257D01*
X37924800Y-35844257D02*
X37877180Y-35891876D01*
X37877180Y-35891876D02*
X37781942Y-35939495D01*
X37781942Y-35939495D02*
X37496228Y-35939495D01*
X37496228Y-35939495D02*
X37400990Y-35891876D01*
X37400990Y-35891876D02*
X37353371Y-35844257D01*
X37353371Y-35844257D02*
X37305752Y-35749019D01*
X37305752Y-35749019D02*
X37305752Y-35606162D01*
X37305752Y-35606162D02*
X37353371Y-35510924D01*
X37353371Y-35510924D02*
X37400990Y-35463305D01*
X37400990Y-35463305D02*
X37496228Y-35415686D01*
X37496228Y-35415686D02*
X37781942Y-35415686D01*
X37781942Y-35415686D02*
X37877180Y-35463305D01*
X37877180Y-35463305D02*
X37924800Y-35510924D01*
X37924800Y-35510924D02*
X37972419Y-35606162D01*
X37972419Y-35606162D02*
X37972419Y-35749019D01*
X37972419Y-34987114D02*
X37305752Y-34987114D01*
X37496228Y-34987114D02*
X37400990Y-34939495D01*
X37400990Y-34939495D02*
X37353371Y-34891876D01*
X37353371Y-34891876D02*
X37305752Y-34796638D01*
X37305752Y-34796638D02*
X37305752Y-34701400D01*
X37305752Y-34510923D02*
X37305752Y-34129971D01*
X36972419Y-34368066D02*
X37829561Y-34368066D01*
X37829561Y-34368066D02*
X37924800Y-34320447D01*
X37924800Y-34320447D02*
X37972419Y-34225209D01*
X37972419Y-34225209D02*
X37972419Y-34129971D01*
X94061646Y-73675419D02*
X94680693Y-73675419D01*
X94680693Y-73675419D02*
X94347360Y-74056371D01*
X94347360Y-74056371D02*
X94490217Y-74056371D01*
X94490217Y-74056371D02*
X94585455Y-74103990D01*
X94585455Y-74103990D02*
X94633074Y-74151609D01*
X94633074Y-74151609D02*
X94680693Y-74246847D01*
X94680693Y-74246847D02*
X94680693Y-74484942D01*
X94680693Y-74484942D02*
X94633074Y-74580180D01*
X94633074Y-74580180D02*
X94585455Y-74627800D01*
X94585455Y-74627800D02*
X94490217Y-74675419D01*
X94490217Y-74675419D02*
X94204503Y-74675419D01*
X94204503Y-74675419D02*
X94109265Y-74627800D01*
X94109265Y-74627800D02*
X94061646Y-74580180D01*
X95014027Y-73675419D02*
X95633074Y-73675419D01*
X95633074Y-73675419D02*
X95299741Y-74056371D01*
X95299741Y-74056371D02*
X95442598Y-74056371D01*
X95442598Y-74056371D02*
X95537836Y-74103990D01*
X95537836Y-74103990D02*
X95585455Y-74151609D01*
X95585455Y-74151609D02*
X95633074Y-74246847D01*
X95633074Y-74246847D02*
X95633074Y-74484942D01*
X95633074Y-74484942D02*
X95585455Y-74580180D01*
X95585455Y-74580180D02*
X95537836Y-74627800D01*
X95537836Y-74627800D02*
X95442598Y-74675419D01*
X95442598Y-74675419D02*
X95156884Y-74675419D01*
X95156884Y-74675419D02*
X95061646Y-74627800D01*
X95061646Y-74627800D02*
X95014027Y-74580180D01*
X96252122Y-73675419D02*
X96347360Y-73675419D01*
X96347360Y-73675419D02*
X96442598Y-73723038D01*
X96442598Y-73723038D02*
X96490217Y-73770657D01*
X96490217Y-73770657D02*
X96537836Y-73865895D01*
X96537836Y-73865895D02*
X96585455Y-74056371D01*
X96585455Y-74056371D02*
X96585455Y-74294466D01*
X96585455Y-74294466D02*
X96537836Y-74484942D01*
X96537836Y-74484942D02*
X96490217Y-74580180D01*
X96490217Y-74580180D02*
X96442598Y-74627800D01*
X96442598Y-74627800D02*
X96347360Y-74675419D01*
X96347360Y-74675419D02*
X96252122Y-74675419D01*
X96252122Y-74675419D02*
X96156884Y-74627800D01*
X96156884Y-74627800D02*
X96109265Y-74580180D01*
X96109265Y-74580180D02*
X96061646Y-74484942D01*
X96061646Y-74484942D02*
X96014027Y-74294466D01*
X96014027Y-74294466D02*
X96014027Y-74056371D01*
X96014027Y-74056371D02*
X96061646Y-73865895D01*
X96061646Y-73865895D02*
X96109265Y-73770657D01*
X96109265Y-73770657D02*
X96156884Y-73723038D01*
X96156884Y-73723038D02*
X96252122Y-73675419D01*
X97585455Y-74675419D02*
X97252122Y-74199228D01*
X97014027Y-74675419D02*
X97014027Y-73675419D01*
X97014027Y-73675419D02*
X97394979Y-73675419D01*
X97394979Y-73675419D02*
X97490217Y-73723038D01*
X97490217Y-73723038D02*
X97537836Y-73770657D01*
X97537836Y-73770657D02*
X97585455Y-73865895D01*
X97585455Y-73865895D02*
X97585455Y-74008752D01*
X97585455Y-74008752D02*
X97537836Y-74103990D01*
X97537836Y-74103990D02*
X97490217Y-74151609D01*
X97490217Y-74151609D02*
X97394979Y-74199228D01*
X97394979Y-74199228D02*
X97014027Y-74199228D01*
X73979693Y-72516419D02*
X73408265Y-72516419D01*
X73693979Y-72516419D02*
X73693979Y-71516419D01*
X73693979Y-71516419D02*
X73598741Y-71659276D01*
X73598741Y-71659276D02*
X73503503Y-71754514D01*
X73503503Y-71754514D02*
X73408265Y-71802133D01*
X74598741Y-71516419D02*
X74693979Y-71516419D01*
X74693979Y-71516419D02*
X74789217Y-71564038D01*
X74789217Y-71564038D02*
X74836836Y-71611657D01*
X74836836Y-71611657D02*
X74884455Y-71706895D01*
X74884455Y-71706895D02*
X74932074Y-71897371D01*
X74932074Y-71897371D02*
X74932074Y-72135466D01*
X74932074Y-72135466D02*
X74884455Y-72325942D01*
X74884455Y-72325942D02*
X74836836Y-72421180D01*
X74836836Y-72421180D02*
X74789217Y-72468800D01*
X74789217Y-72468800D02*
X74693979Y-72516419D01*
X74693979Y-72516419D02*
X74598741Y-72516419D01*
X74598741Y-72516419D02*
X74503503Y-72468800D01*
X74503503Y-72468800D02*
X74455884Y-72421180D01*
X74455884Y-72421180D02*
X74408265Y-72325942D01*
X74408265Y-72325942D02*
X74360646Y-72135466D01*
X74360646Y-72135466D02*
X74360646Y-71897371D01*
X74360646Y-71897371D02*
X74408265Y-71706895D01*
X74408265Y-71706895D02*
X74455884Y-71611657D01*
X74455884Y-71611657D02*
X74503503Y-71564038D01*
X74503503Y-71564038D02*
X74598741Y-71516419D01*
X75551122Y-71516419D02*
X75646360Y-71516419D01*
X75646360Y-71516419D02*
X75741598Y-71564038D01*
X75741598Y-71564038D02*
X75789217Y-71611657D01*
X75789217Y-71611657D02*
X75836836Y-71706895D01*
X75836836Y-71706895D02*
X75884455Y-71897371D01*
X75884455Y-71897371D02*
X75884455Y-72135466D01*
X75884455Y-72135466D02*
X75836836Y-72325942D01*
X75836836Y-72325942D02*
X75789217Y-72421180D01*
X75789217Y-72421180D02*
X75741598Y-72468800D01*
X75741598Y-72468800D02*
X75646360Y-72516419D01*
X75646360Y-72516419D02*
X75551122Y-72516419D01*
X75551122Y-72516419D02*
X75455884Y-72468800D01*
X75455884Y-72468800D02*
X75408265Y-72421180D01*
X75408265Y-72421180D02*
X75360646Y-72325942D01*
X75360646Y-72325942D02*
X75313027Y-72135466D01*
X75313027Y-72135466D02*
X75313027Y-71897371D01*
X75313027Y-71897371D02*
X75360646Y-71706895D01*
X75360646Y-71706895D02*
X75408265Y-71611657D01*
X75408265Y-71611657D02*
X75455884Y-71564038D01*
X75455884Y-71564038D02*
X75551122Y-71516419D01*
X76313027Y-71849752D02*
X76313027Y-72516419D01*
X76313027Y-71944990D02*
X76360646Y-71897371D01*
X76360646Y-71897371D02*
X76455884Y-71849752D01*
X76455884Y-71849752D02*
X76598741Y-71849752D01*
X76598741Y-71849752D02*
X76693979Y-71897371D01*
X76693979Y-71897371D02*
X76741598Y-71992609D01*
X76741598Y-71992609D02*
X76741598Y-72516419D01*
X77551122Y-71992609D02*
X77217789Y-71992609D01*
X77217789Y-72516419D02*
X77217789Y-71516419D01*
X77217789Y-71516419D02*
X77693979Y-71516419D01*
X43182217Y-33384609D02*
X43325074Y-33432228D01*
X43325074Y-33432228D02*
X43372693Y-33479847D01*
X43372693Y-33479847D02*
X43420312Y-33575085D01*
X43420312Y-33575085D02*
X43420312Y-33717942D01*
X43420312Y-33717942D02*
X43372693Y-33813180D01*
X43372693Y-33813180D02*
X43325074Y-33860800D01*
X43325074Y-33860800D02*
X43229836Y-33908419D01*
X43229836Y-33908419D02*
X42848884Y-33908419D01*
X42848884Y-33908419D02*
X42848884Y-32908419D01*
X42848884Y-32908419D02*
X43182217Y-32908419D01*
X43182217Y-32908419D02*
X43277455Y-32956038D01*
X43277455Y-32956038D02*
X43325074Y-33003657D01*
X43325074Y-33003657D02*
X43372693Y-33098895D01*
X43372693Y-33098895D02*
X43372693Y-33194133D01*
X43372693Y-33194133D02*
X43325074Y-33289371D01*
X43325074Y-33289371D02*
X43277455Y-33336990D01*
X43277455Y-33336990D02*
X43182217Y-33384609D01*
X43182217Y-33384609D02*
X42848884Y-33384609D01*
X44420312Y-33813180D02*
X44372693Y-33860800D01*
X44372693Y-33860800D02*
X44229836Y-33908419D01*
X44229836Y-33908419D02*
X44134598Y-33908419D01*
X44134598Y-33908419D02*
X43991741Y-33860800D01*
X43991741Y-33860800D02*
X43896503Y-33765561D01*
X43896503Y-33765561D02*
X43848884Y-33670323D01*
X43848884Y-33670323D02*
X43801265Y-33479847D01*
X43801265Y-33479847D02*
X43801265Y-33336990D01*
X43801265Y-33336990D02*
X43848884Y-33146514D01*
X43848884Y-33146514D02*
X43896503Y-33051276D01*
X43896503Y-33051276D02*
X43991741Y-32956038D01*
X43991741Y-32956038D02*
X44134598Y-32908419D01*
X44134598Y-32908419D02*
X44229836Y-32908419D01*
X44229836Y-32908419D02*
X44372693Y-32956038D01*
X44372693Y-32956038D02*
X44420312Y-33003657D01*
X45325074Y-32908419D02*
X44848884Y-32908419D01*
X44848884Y-32908419D02*
X44801265Y-33384609D01*
X44801265Y-33384609D02*
X44848884Y-33336990D01*
X44848884Y-33336990D02*
X44944122Y-33289371D01*
X44944122Y-33289371D02*
X45182217Y-33289371D01*
X45182217Y-33289371D02*
X45277455Y-33336990D01*
X45277455Y-33336990D02*
X45325074Y-33384609D01*
X45325074Y-33384609D02*
X45372693Y-33479847D01*
X45372693Y-33479847D02*
X45372693Y-33717942D01*
X45372693Y-33717942D02*
X45325074Y-33813180D01*
X45325074Y-33813180D02*
X45277455Y-33860800D01*
X45277455Y-33860800D02*
X45182217Y-33908419D01*
X45182217Y-33908419D02*
X44944122Y-33908419D01*
X44944122Y-33908419D02*
X44848884Y-33860800D01*
X44848884Y-33860800D02*
X44801265Y-33813180D01*
X46229836Y-33241752D02*
X46229836Y-33908419D01*
X45991741Y-32860800D02*
X45753646Y-33575085D01*
X45753646Y-33575085D02*
X46372693Y-33575085D01*
X46658408Y-32908419D02*
X47325074Y-32908419D01*
X47325074Y-32908419D02*
X46896503Y-33908419D01*
X52831419Y-25461306D02*
X52831419Y-26032734D01*
X52831419Y-25747020D02*
X51831419Y-25747020D01*
X51831419Y-25747020D02*
X51974276Y-25842258D01*
X51974276Y-25842258D02*
X52069514Y-25937496D01*
X52069514Y-25937496D02*
X52117133Y-26032734D01*
X51831419Y-24842258D02*
X51831419Y-24747020D01*
X51831419Y-24747020D02*
X51879038Y-24651782D01*
X51879038Y-24651782D02*
X51926657Y-24604163D01*
X51926657Y-24604163D02*
X52021895Y-24556544D01*
X52021895Y-24556544D02*
X52212371Y-24508925D01*
X52212371Y-24508925D02*
X52450466Y-24508925D01*
X52450466Y-24508925D02*
X52640942Y-24556544D01*
X52640942Y-24556544D02*
X52736180Y-24604163D01*
X52736180Y-24604163D02*
X52783800Y-24651782D01*
X52783800Y-24651782D02*
X52831419Y-24747020D01*
X52831419Y-24747020D02*
X52831419Y-24842258D01*
X52831419Y-24842258D02*
X52783800Y-24937496D01*
X52783800Y-24937496D02*
X52736180Y-24985115D01*
X52736180Y-24985115D02*
X52640942Y-25032734D01*
X52640942Y-25032734D02*
X52450466Y-25080353D01*
X52450466Y-25080353D02*
X52212371Y-25080353D01*
X52212371Y-25080353D02*
X52021895Y-25032734D01*
X52021895Y-25032734D02*
X51926657Y-24985115D01*
X51926657Y-24985115D02*
X51879038Y-24937496D01*
X51879038Y-24937496D02*
X51831419Y-24842258D01*
X52831419Y-24080353D02*
X51831419Y-24080353D01*
X52831419Y-23508925D02*
X52259990Y-23937496D01*
X51831419Y-23508925D02*
X52402847Y-24080353D01*
X88902265Y-15382419D02*
X88902265Y-15572895D01*
X89283217Y-15382419D02*
X89283217Y-15572895D01*
X89664170Y-16334800D02*
X89807027Y-16382419D01*
X89807027Y-16382419D02*
X90045122Y-16382419D01*
X90045122Y-16382419D02*
X90140360Y-16334800D01*
X90140360Y-16334800D02*
X90187979Y-16287180D01*
X90187979Y-16287180D02*
X90235598Y-16191942D01*
X90235598Y-16191942D02*
X90235598Y-16096704D01*
X90235598Y-16096704D02*
X90187979Y-16001466D01*
X90187979Y-16001466D02*
X90140360Y-15953847D01*
X90140360Y-15953847D02*
X90045122Y-15906228D01*
X90045122Y-15906228D02*
X89854646Y-15858609D01*
X89854646Y-15858609D02*
X89759408Y-15810990D01*
X89759408Y-15810990D02*
X89711789Y-15763371D01*
X89711789Y-15763371D02*
X89664170Y-15668133D01*
X89664170Y-15668133D02*
X89664170Y-15572895D01*
X89664170Y-15572895D02*
X89711789Y-15477657D01*
X89711789Y-15477657D02*
X89759408Y-15430038D01*
X89759408Y-15430038D02*
X89854646Y-15382419D01*
X89854646Y-15382419D02*
X90092741Y-15382419D01*
X90092741Y-15382419D02*
X90235598Y-15430038D01*
X90521313Y-15715752D02*
X90902265Y-15715752D01*
X90664170Y-15382419D02*
X90664170Y-16239561D01*
X90664170Y-16239561D02*
X90711789Y-16334800D01*
X90711789Y-16334800D02*
X90807027Y-16382419D01*
X90807027Y-16382419D02*
X90902265Y-16382419D01*
X91664170Y-16382419D02*
X91664170Y-15858609D01*
X91664170Y-15858609D02*
X91616551Y-15763371D01*
X91616551Y-15763371D02*
X91521313Y-15715752D01*
X91521313Y-15715752D02*
X91330837Y-15715752D01*
X91330837Y-15715752D02*
X91235599Y-15763371D01*
X91664170Y-16334800D02*
X91568932Y-16382419D01*
X91568932Y-16382419D02*
X91330837Y-16382419D01*
X91330837Y-16382419D02*
X91235599Y-16334800D01*
X91235599Y-16334800D02*
X91187980Y-16239561D01*
X91187980Y-16239561D02*
X91187980Y-16144323D01*
X91187980Y-16144323D02*
X91235599Y-16049085D01*
X91235599Y-16049085D02*
X91330837Y-16001466D01*
X91330837Y-16001466D02*
X91568932Y-16001466D01*
X91568932Y-16001466D02*
X91664170Y-15953847D01*
X92140361Y-15715752D02*
X92140361Y-16382419D01*
X92140361Y-15810990D02*
X92187980Y-15763371D01*
X92187980Y-15763371D02*
X92283218Y-15715752D01*
X92283218Y-15715752D02*
X92426075Y-15715752D01*
X92426075Y-15715752D02*
X92521313Y-15763371D01*
X92521313Y-15763371D02*
X92568932Y-15858609D01*
X92568932Y-15858609D02*
X92568932Y-16382419D01*
X93473694Y-16382419D02*
X93473694Y-15382419D01*
X93473694Y-16334800D02*
X93378456Y-16382419D01*
X93378456Y-16382419D02*
X93187980Y-16382419D01*
X93187980Y-16382419D02*
X93092742Y-16334800D01*
X93092742Y-16334800D02*
X93045123Y-16287180D01*
X93045123Y-16287180D02*
X92997504Y-16191942D01*
X92997504Y-16191942D02*
X92997504Y-15906228D01*
X92997504Y-15906228D02*
X93045123Y-15810990D01*
X93045123Y-15810990D02*
X93092742Y-15763371D01*
X93092742Y-15763371D02*
X93187980Y-15715752D01*
X93187980Y-15715752D02*
X93378456Y-15715752D01*
X93378456Y-15715752D02*
X93473694Y-15763371D01*
X94664171Y-16096704D02*
X95140361Y-16096704D01*
X94568933Y-16382419D02*
X94902266Y-15382419D01*
X94902266Y-15382419D02*
X95235599Y-16382419D01*
X95711790Y-16382419D02*
X95616552Y-16334800D01*
X95616552Y-16334800D02*
X95568933Y-16239561D01*
X95568933Y-16239561D02*
X95568933Y-15382419D01*
X96235600Y-16382419D02*
X96140362Y-16334800D01*
X96140362Y-16334800D02*
X96092743Y-16287180D01*
X96092743Y-16287180D02*
X96045124Y-16191942D01*
X96045124Y-16191942D02*
X96045124Y-15906228D01*
X96045124Y-15906228D02*
X96092743Y-15810990D01*
X96092743Y-15810990D02*
X96140362Y-15763371D01*
X96140362Y-15763371D02*
X96235600Y-15715752D01*
X96235600Y-15715752D02*
X96378457Y-15715752D01*
X96378457Y-15715752D02*
X96473695Y-15763371D01*
X96473695Y-15763371D02*
X96521314Y-15810990D01*
X96521314Y-15810990D02*
X96568933Y-15906228D01*
X96568933Y-15906228D02*
X96568933Y-16191942D01*
X96568933Y-16191942D02*
X96521314Y-16287180D01*
X96521314Y-16287180D02*
X96473695Y-16334800D01*
X96473695Y-16334800D02*
X96378457Y-16382419D01*
X96378457Y-16382419D02*
X96235600Y-16382419D01*
X96997505Y-15715752D02*
X96997505Y-16382419D01*
X96997505Y-15810990D02*
X97045124Y-15763371D01*
X97045124Y-15763371D02*
X97140362Y-15715752D01*
X97140362Y-15715752D02*
X97283219Y-15715752D01*
X97283219Y-15715752D02*
X97378457Y-15763371D01*
X97378457Y-15763371D02*
X97426076Y-15858609D01*
X97426076Y-15858609D02*
X97426076Y-16382419D01*
X98283219Y-16334800D02*
X98187981Y-16382419D01*
X98187981Y-16382419D02*
X97997505Y-16382419D01*
X97997505Y-16382419D02*
X97902267Y-16334800D01*
X97902267Y-16334800D02*
X97854648Y-16239561D01*
X97854648Y-16239561D02*
X97854648Y-15858609D01*
X97854648Y-15858609D02*
X97902267Y-15763371D01*
X97902267Y-15763371D02*
X97997505Y-15715752D01*
X97997505Y-15715752D02*
X98187981Y-15715752D01*
X98187981Y-15715752D02*
X98283219Y-15763371D01*
X98283219Y-15763371D02*
X98330838Y-15858609D01*
X98330838Y-15858609D02*
X98330838Y-15953847D01*
X98330838Y-15953847D02*
X97854648Y-16049085D01*
X98711791Y-15382419D02*
X98711791Y-15572895D01*
X99092743Y-15382419D02*
X99092743Y-15572895D01*
X100140363Y-15382419D02*
X100473696Y-16382419D01*
X100473696Y-16382419D02*
X100807029Y-15382419D01*
X101521315Y-16334800D02*
X101426077Y-16382419D01*
X101426077Y-16382419D02*
X101235601Y-16382419D01*
X101235601Y-16382419D02*
X101140363Y-16334800D01*
X101140363Y-16334800D02*
X101092744Y-16239561D01*
X101092744Y-16239561D02*
X101092744Y-15858609D01*
X101092744Y-15858609D02*
X101140363Y-15763371D01*
X101140363Y-15763371D02*
X101235601Y-15715752D01*
X101235601Y-15715752D02*
X101426077Y-15715752D01*
X101426077Y-15715752D02*
X101521315Y-15763371D01*
X101521315Y-15763371D02*
X101568934Y-15858609D01*
X101568934Y-15858609D02*
X101568934Y-15953847D01*
X101568934Y-15953847D02*
X101092744Y-16049085D01*
X101997506Y-16382419D02*
X101997506Y-15715752D01*
X101997506Y-15906228D02*
X102045125Y-15810990D01*
X102045125Y-15810990D02*
X102092744Y-15763371D01*
X102092744Y-15763371D02*
X102187982Y-15715752D01*
X102187982Y-15715752D02*
X102283220Y-15715752D01*
X102568935Y-16334800D02*
X102664173Y-16382419D01*
X102664173Y-16382419D02*
X102854649Y-16382419D01*
X102854649Y-16382419D02*
X102949887Y-16334800D01*
X102949887Y-16334800D02*
X102997506Y-16239561D01*
X102997506Y-16239561D02*
X102997506Y-16191942D01*
X102997506Y-16191942D02*
X102949887Y-16096704D01*
X102949887Y-16096704D02*
X102854649Y-16049085D01*
X102854649Y-16049085D02*
X102711792Y-16049085D01*
X102711792Y-16049085D02*
X102616554Y-16001466D01*
X102616554Y-16001466D02*
X102568935Y-15906228D01*
X102568935Y-15906228D02*
X102568935Y-15858609D01*
X102568935Y-15858609D02*
X102616554Y-15763371D01*
X102616554Y-15763371D02*
X102711792Y-15715752D01*
X102711792Y-15715752D02*
X102854649Y-15715752D01*
X102854649Y-15715752D02*
X102949887Y-15763371D01*
X103426078Y-16382419D02*
X103426078Y-15715752D01*
X103426078Y-15382419D02*
X103378459Y-15430038D01*
X103378459Y-15430038D02*
X103426078Y-15477657D01*
X103426078Y-15477657D02*
X103473697Y-15430038D01*
X103473697Y-15430038D02*
X103426078Y-15382419D01*
X103426078Y-15382419D02*
X103426078Y-15477657D01*
X104045125Y-16382419D02*
X103949887Y-16334800D01*
X103949887Y-16334800D02*
X103902268Y-16287180D01*
X103902268Y-16287180D02*
X103854649Y-16191942D01*
X103854649Y-16191942D02*
X103854649Y-15906228D01*
X103854649Y-15906228D02*
X103902268Y-15810990D01*
X103902268Y-15810990D02*
X103949887Y-15763371D01*
X103949887Y-15763371D02*
X104045125Y-15715752D01*
X104045125Y-15715752D02*
X104187982Y-15715752D01*
X104187982Y-15715752D02*
X104283220Y-15763371D01*
X104283220Y-15763371D02*
X104330839Y-15810990D01*
X104330839Y-15810990D02*
X104378458Y-15906228D01*
X104378458Y-15906228D02*
X104378458Y-16191942D01*
X104378458Y-16191942D02*
X104330839Y-16287180D01*
X104330839Y-16287180D02*
X104283220Y-16334800D01*
X104283220Y-16334800D02*
X104187982Y-16382419D01*
X104187982Y-16382419D02*
X104045125Y-16382419D01*
X104807030Y-15715752D02*
X104807030Y-16382419D01*
X104807030Y-15810990D02*
X104854649Y-15763371D01*
X104854649Y-15763371D02*
X104949887Y-15715752D01*
X104949887Y-15715752D02*
X105092744Y-15715752D01*
X105092744Y-15715752D02*
X105187982Y-15763371D01*
X105187982Y-15763371D02*
X105235601Y-15858609D01*
X105235601Y-15858609D02*
X105235601Y-16382419D01*
D11*
X44412819Y-27050904D02*
X45222342Y-27050904D01*
X45222342Y-27050904D02*
X45317580Y-27003285D01*
X45317580Y-27003285D02*
X45365200Y-26955666D01*
X45365200Y-26955666D02*
X45412819Y-26860428D01*
X45412819Y-26860428D02*
X45412819Y-26669952D01*
X45412819Y-26669952D02*
X45365200Y-26574714D01*
X45365200Y-26574714D02*
X45317580Y-26527095D01*
X45317580Y-26527095D02*
X45222342Y-26479476D01*
X45222342Y-26479476D02*
X44412819Y-26479476D01*
X44508057Y-26050904D02*
X44460438Y-26003285D01*
X44460438Y-26003285D02*
X44412819Y-25908047D01*
X44412819Y-25908047D02*
X44412819Y-25669952D01*
X44412819Y-25669952D02*
X44460438Y-25574714D01*
X44460438Y-25574714D02*
X44508057Y-25527095D01*
X44508057Y-25527095D02*
X44603295Y-25479476D01*
X44603295Y-25479476D02*
X44698533Y-25479476D01*
X44698533Y-25479476D02*
X44841390Y-25527095D01*
X44841390Y-25527095D02*
X45412819Y-26098523D01*
X45412819Y-26098523D02*
X45412819Y-25479476D01*
X44904761Y-41220057D02*
X44809523Y-41172438D01*
X44809523Y-41172438D02*
X44714285Y-41077200D01*
X44714285Y-41077200D02*
X44571428Y-40934342D01*
X44571428Y-40934342D02*
X44476190Y-40886723D01*
X44476190Y-40886723D02*
X44380952Y-40886723D01*
X44428571Y-41124819D02*
X44333333Y-41077200D01*
X44333333Y-41077200D02*
X44238095Y-40981961D01*
X44238095Y-40981961D02*
X44190476Y-40791485D01*
X44190476Y-40791485D02*
X44190476Y-40458152D01*
X44190476Y-40458152D02*
X44238095Y-40267676D01*
X44238095Y-40267676D02*
X44333333Y-40172438D01*
X44333333Y-40172438D02*
X44428571Y-40124819D01*
X44428571Y-40124819D02*
X44619047Y-40124819D01*
X44619047Y-40124819D02*
X44714285Y-40172438D01*
X44714285Y-40172438D02*
X44809523Y-40267676D01*
X44809523Y-40267676D02*
X44857142Y-40458152D01*
X44857142Y-40458152D02*
X44857142Y-40791485D01*
X44857142Y-40791485D02*
X44809523Y-40981961D01*
X44809523Y-40981961D02*
X44714285Y-41077200D01*
X44714285Y-41077200D02*
X44619047Y-41124819D01*
X44619047Y-41124819D02*
X44428571Y-41124819D01*
X45809523Y-41124819D02*
X45238095Y-41124819D01*
X45523809Y-41124819D02*
X45523809Y-40124819D01*
X45523809Y-40124819D02*
X45428571Y-40267676D01*
X45428571Y-40267676D02*
X45333333Y-40362914D01*
X45333333Y-40362914D02*
X45238095Y-40410533D01*
X91249580Y-77716666D02*
X91297200Y-77764285D01*
X91297200Y-77764285D02*
X91344819Y-77907142D01*
X91344819Y-77907142D02*
X91344819Y-78002380D01*
X91344819Y-78002380D02*
X91297200Y-78145237D01*
X91297200Y-78145237D02*
X91201961Y-78240475D01*
X91201961Y-78240475D02*
X91106723Y-78288094D01*
X91106723Y-78288094D02*
X90916247Y-78335713D01*
X90916247Y-78335713D02*
X90773390Y-78335713D01*
X90773390Y-78335713D02*
X90582914Y-78288094D01*
X90582914Y-78288094D02*
X90487676Y-78240475D01*
X90487676Y-78240475D02*
X90392438Y-78145237D01*
X90392438Y-78145237D02*
X90344819Y-78002380D01*
X90344819Y-78002380D02*
X90344819Y-77907142D01*
X90344819Y-77907142D02*
X90392438Y-77764285D01*
X90392438Y-77764285D02*
X90440057Y-77716666D01*
X90344819Y-76811904D02*
X90344819Y-77288094D01*
X90344819Y-77288094D02*
X90821009Y-77335713D01*
X90821009Y-77335713D02*
X90773390Y-77288094D01*
X90773390Y-77288094D02*
X90725771Y-77192856D01*
X90725771Y-77192856D02*
X90725771Y-76954761D01*
X90725771Y-76954761D02*
X90773390Y-76859523D01*
X90773390Y-76859523D02*
X90821009Y-76811904D01*
X90821009Y-76811904D02*
X90916247Y-76764285D01*
X90916247Y-76764285D02*
X91154342Y-76764285D01*
X91154342Y-76764285D02*
X91249580Y-76811904D01*
X91249580Y-76811904D02*
X91297200Y-76859523D01*
X91297200Y-76859523D02*
X91344819Y-76954761D01*
X91344819Y-76954761D02*
X91344819Y-77192856D01*
X91344819Y-77192856D02*
X91297200Y-77288094D01*
X91297200Y-77288094D02*
X91249580Y-77335713D01*
X37904819Y-62408094D02*
X36904819Y-62408094D01*
X36904819Y-62408094D02*
X36904819Y-62169999D01*
X36904819Y-62169999D02*
X36952438Y-62027142D01*
X36952438Y-62027142D02*
X37047676Y-61931904D01*
X37047676Y-61931904D02*
X37142914Y-61884285D01*
X37142914Y-61884285D02*
X37333390Y-61836666D01*
X37333390Y-61836666D02*
X37476247Y-61836666D01*
X37476247Y-61836666D02*
X37666723Y-61884285D01*
X37666723Y-61884285D02*
X37761961Y-61931904D01*
X37761961Y-61931904D02*
X37857200Y-62027142D01*
X37857200Y-62027142D02*
X37904819Y-62169999D01*
X37904819Y-62169999D02*
X37904819Y-62408094D01*
X37000057Y-61455713D02*
X36952438Y-61408094D01*
X36952438Y-61408094D02*
X36904819Y-61312856D01*
X36904819Y-61312856D02*
X36904819Y-61074761D01*
X36904819Y-61074761D02*
X36952438Y-60979523D01*
X36952438Y-60979523D02*
X37000057Y-60931904D01*
X37000057Y-60931904D02*
X37095295Y-60884285D01*
X37095295Y-60884285D02*
X37190533Y-60884285D01*
X37190533Y-60884285D02*
X37333390Y-60931904D01*
X37333390Y-60931904D02*
X37904819Y-61503332D01*
X37904819Y-61503332D02*
X37904819Y-60884285D01*
X38274819Y-67011904D02*
X37274819Y-67011904D01*
X38274819Y-66440476D02*
X37703390Y-66869047D01*
X37274819Y-66440476D02*
X37846247Y-67011904D01*
X106491905Y-75244819D02*
X106491905Y-74244819D01*
X106491905Y-74244819D02*
X106730000Y-74244819D01*
X106730000Y-74244819D02*
X106872857Y-74292438D01*
X106872857Y-74292438D02*
X106968095Y-74387676D01*
X106968095Y-74387676D02*
X107015714Y-74482914D01*
X107015714Y-74482914D02*
X107063333Y-74673390D01*
X107063333Y-74673390D02*
X107063333Y-74816247D01*
X107063333Y-74816247D02*
X107015714Y-75006723D01*
X107015714Y-75006723D02*
X106968095Y-75101961D01*
X106968095Y-75101961D02*
X106872857Y-75197200D01*
X106872857Y-75197200D02*
X106730000Y-75244819D01*
X106730000Y-75244819D02*
X106491905Y-75244819D01*
X107920476Y-74578152D02*
X107920476Y-75244819D01*
X107682381Y-74197200D02*
X107444286Y-74911485D01*
X107444286Y-74911485D02*
X108063333Y-74911485D01*
X53213095Y-68796819D02*
X53213095Y-69606342D01*
X53213095Y-69606342D02*
X53260714Y-69701580D01*
X53260714Y-69701580D02*
X53308333Y-69749200D01*
X53308333Y-69749200D02*
X53403571Y-69796819D01*
X53403571Y-69796819D02*
X53594047Y-69796819D01*
X53594047Y-69796819D02*
X53689285Y-69749200D01*
X53689285Y-69749200D02*
X53736904Y-69701580D01*
X53736904Y-69701580D02*
X53784523Y-69606342D01*
X53784523Y-69606342D02*
X53784523Y-68796819D01*
X54784523Y-69796819D02*
X54213095Y-69796819D01*
X54498809Y-69796819D02*
X54498809Y-68796819D01*
X54498809Y-68796819D02*
X54403571Y-68939676D01*
X54403571Y-68939676D02*
X54308333Y-69034914D01*
X54308333Y-69034914D02*
X54213095Y-69082533D01*
X42914819Y-29388094D02*
X41914819Y-29388094D01*
X41914819Y-29388094D02*
X41914819Y-29149999D01*
X41914819Y-29149999D02*
X41962438Y-29007142D01*
X41962438Y-29007142D02*
X42057676Y-28911904D01*
X42057676Y-28911904D02*
X42152914Y-28864285D01*
X42152914Y-28864285D02*
X42343390Y-28816666D01*
X42343390Y-28816666D02*
X42486247Y-28816666D01*
X42486247Y-28816666D02*
X42676723Y-28864285D01*
X42676723Y-28864285D02*
X42771961Y-28911904D01*
X42771961Y-28911904D02*
X42867200Y-29007142D01*
X42867200Y-29007142D02*
X42914819Y-29149999D01*
X42914819Y-29149999D02*
X42914819Y-29388094D01*
X42914819Y-27864285D02*
X42914819Y-28435713D01*
X42914819Y-28149999D02*
X41914819Y-28149999D01*
X41914819Y-28149999D02*
X42057676Y-28245237D01*
X42057676Y-28245237D02*
X42152914Y-28340475D01*
X42152914Y-28340475D02*
X42200533Y-28435713D01*
X37834819Y-21291904D02*
X36834819Y-21291904D01*
X37834819Y-20720476D02*
X37263390Y-21149047D01*
X36834819Y-20720476D02*
X37406247Y-21291904D01*
X60694819Y-28816666D02*
X60218628Y-29149999D01*
X60694819Y-29388094D02*
X59694819Y-29388094D01*
X59694819Y-29388094D02*
X59694819Y-29007142D01*
X59694819Y-29007142D02*
X59742438Y-28911904D01*
X59742438Y-28911904D02*
X59790057Y-28864285D01*
X59790057Y-28864285D02*
X59885295Y-28816666D01*
X59885295Y-28816666D02*
X60028152Y-28816666D01*
X60028152Y-28816666D02*
X60123390Y-28864285D01*
X60123390Y-28864285D02*
X60171009Y-28911904D01*
X60171009Y-28911904D02*
X60218628Y-29007142D01*
X60218628Y-29007142D02*
X60218628Y-29388094D01*
X60694819Y-27864285D02*
X60694819Y-28435713D01*
X60694819Y-28149999D02*
X59694819Y-28149999D01*
X59694819Y-28149999D02*
X59837676Y-28245237D01*
X59837676Y-28245237D02*
X59932914Y-28340475D01*
X59932914Y-28340475D02*
X59980533Y-28435713D01*
X52939580Y-77036666D02*
X52987200Y-77084285D01*
X52987200Y-77084285D02*
X53034819Y-77227142D01*
X53034819Y-77227142D02*
X53034819Y-77322380D01*
X53034819Y-77322380D02*
X52987200Y-77465237D01*
X52987200Y-77465237D02*
X52891961Y-77560475D01*
X52891961Y-77560475D02*
X52796723Y-77608094D01*
X52796723Y-77608094D02*
X52606247Y-77655713D01*
X52606247Y-77655713D02*
X52463390Y-77655713D01*
X52463390Y-77655713D02*
X52272914Y-77608094D01*
X52272914Y-77608094D02*
X52177676Y-77560475D01*
X52177676Y-77560475D02*
X52082438Y-77465237D01*
X52082438Y-77465237D02*
X52034819Y-77322380D01*
X52034819Y-77322380D02*
X52034819Y-77227142D01*
X52034819Y-77227142D02*
X52082438Y-77084285D01*
X52082438Y-77084285D02*
X52130057Y-77036666D01*
X52034819Y-76703332D02*
X52034819Y-76084285D01*
X52034819Y-76084285D02*
X52415771Y-76417618D01*
X52415771Y-76417618D02*
X52415771Y-76274761D01*
X52415771Y-76274761D02*
X52463390Y-76179523D01*
X52463390Y-76179523D02*
X52511009Y-76131904D01*
X52511009Y-76131904D02*
X52606247Y-76084285D01*
X52606247Y-76084285D02*
X52844342Y-76084285D01*
X52844342Y-76084285D02*
X52939580Y-76131904D01*
X52939580Y-76131904D02*
X52987200Y-76179523D01*
X52987200Y-76179523D02*
X53034819Y-76274761D01*
X53034819Y-76274761D02*
X53034819Y-76560475D01*
X53034819Y-76560475D02*
X52987200Y-76655713D01*
X52987200Y-76655713D02*
X52939580Y-76703332D01*
X53074819Y-28816666D02*
X52598628Y-29149999D01*
X53074819Y-29388094D02*
X52074819Y-29388094D01*
X52074819Y-29388094D02*
X52074819Y-29007142D01*
X52074819Y-29007142D02*
X52122438Y-28911904D01*
X52122438Y-28911904D02*
X52170057Y-28864285D01*
X52170057Y-28864285D02*
X52265295Y-28816666D01*
X52265295Y-28816666D02*
X52408152Y-28816666D01*
X52408152Y-28816666D02*
X52503390Y-28864285D01*
X52503390Y-28864285D02*
X52551009Y-28911904D01*
X52551009Y-28911904D02*
X52598628Y-29007142D01*
X52598628Y-29007142D02*
X52598628Y-29388094D01*
X52170057Y-28435713D02*
X52122438Y-28388094D01*
X52122438Y-28388094D02*
X52074819Y-28292856D01*
X52074819Y-28292856D02*
X52074819Y-28054761D01*
X52074819Y-28054761D02*
X52122438Y-27959523D01*
X52122438Y-27959523D02*
X52170057Y-27911904D01*
X52170057Y-27911904D02*
X52265295Y-27864285D01*
X52265295Y-27864285D02*
X52360533Y-27864285D01*
X52360533Y-27864285D02*
X52503390Y-27911904D01*
X52503390Y-27911904D02*
X53074819Y-28483332D01*
X53074819Y-28483332D02*
X53074819Y-27864285D01*
X106491905Y-67624819D02*
X106491905Y-66624819D01*
X106491905Y-66624819D02*
X106730000Y-66624819D01*
X106730000Y-66624819D02*
X106872857Y-66672438D01*
X106872857Y-66672438D02*
X106968095Y-66767676D01*
X106968095Y-66767676D02*
X107015714Y-66862914D01*
X107015714Y-66862914D02*
X107063333Y-67053390D01*
X107063333Y-67053390D02*
X107063333Y-67196247D01*
X107063333Y-67196247D02*
X107015714Y-67386723D01*
X107015714Y-67386723D02*
X106968095Y-67481961D01*
X106968095Y-67481961D02*
X106872857Y-67577200D01*
X106872857Y-67577200D02*
X106730000Y-67624819D01*
X106730000Y-67624819D02*
X106491905Y-67624819D01*
X107396667Y-66624819D02*
X108015714Y-66624819D01*
X108015714Y-66624819D02*
X107682381Y-67005771D01*
X107682381Y-67005771D02*
X107825238Y-67005771D01*
X107825238Y-67005771D02*
X107920476Y-67053390D01*
X107920476Y-67053390D02*
X107968095Y-67101009D01*
X107968095Y-67101009D02*
X108015714Y-67196247D01*
X108015714Y-67196247D02*
X108015714Y-67434342D01*
X108015714Y-67434342D02*
X107968095Y-67529580D01*
X107968095Y-67529580D02*
X107920476Y-67577200D01*
X107920476Y-67577200D02*
X107825238Y-67624819D01*
X107825238Y-67624819D02*
X107539524Y-67624819D01*
X107539524Y-67624819D02*
X107444286Y-67577200D01*
X107444286Y-67577200D02*
X107396667Y-67529580D01*
X53723333Y-39094819D02*
X53390000Y-38618628D01*
X53151905Y-39094819D02*
X53151905Y-38094819D01*
X53151905Y-38094819D02*
X53532857Y-38094819D01*
X53532857Y-38094819D02*
X53628095Y-38142438D01*
X53628095Y-38142438D02*
X53675714Y-38190057D01*
X53675714Y-38190057D02*
X53723333Y-38285295D01*
X53723333Y-38285295D02*
X53723333Y-38428152D01*
X53723333Y-38428152D02*
X53675714Y-38523390D01*
X53675714Y-38523390D02*
X53628095Y-38571009D01*
X53628095Y-38571009D02*
X53532857Y-38618628D01*
X53532857Y-38618628D02*
X53151905Y-38618628D01*
X54056667Y-38094819D02*
X54675714Y-38094819D01*
X54675714Y-38094819D02*
X54342381Y-38475771D01*
X54342381Y-38475771D02*
X54485238Y-38475771D01*
X54485238Y-38475771D02*
X54580476Y-38523390D01*
X54580476Y-38523390D02*
X54628095Y-38571009D01*
X54628095Y-38571009D02*
X54675714Y-38666247D01*
X54675714Y-38666247D02*
X54675714Y-38904342D01*
X54675714Y-38904342D02*
X54628095Y-38999580D01*
X54628095Y-38999580D02*
X54580476Y-39047200D01*
X54580476Y-39047200D02*
X54485238Y-39094819D01*
X54485238Y-39094819D02*
X54199524Y-39094819D01*
X54199524Y-39094819D02*
X54104286Y-39047200D01*
X54104286Y-39047200D02*
X54056667Y-38999580D01*
X95633333Y-62294819D02*
X95300000Y-61818628D01*
X95061905Y-62294819D02*
X95061905Y-61294819D01*
X95061905Y-61294819D02*
X95442857Y-61294819D01*
X95442857Y-61294819D02*
X95538095Y-61342438D01*
X95538095Y-61342438D02*
X95585714Y-61390057D01*
X95585714Y-61390057D02*
X95633333Y-61485295D01*
X95633333Y-61485295D02*
X95633333Y-61628152D01*
X95633333Y-61628152D02*
X95585714Y-61723390D01*
X95585714Y-61723390D02*
X95538095Y-61771009D01*
X95538095Y-61771009D02*
X95442857Y-61818628D01*
X95442857Y-61818628D02*
X95061905Y-61818628D01*
X96490476Y-61628152D02*
X96490476Y-62294819D01*
X96252381Y-61247200D02*
X96014286Y-61961485D01*
X96014286Y-61961485D02*
X96633333Y-61961485D01*
X78339580Y-77036666D02*
X78387200Y-77084285D01*
X78387200Y-77084285D02*
X78434819Y-77227142D01*
X78434819Y-77227142D02*
X78434819Y-77322380D01*
X78434819Y-77322380D02*
X78387200Y-77465237D01*
X78387200Y-77465237D02*
X78291961Y-77560475D01*
X78291961Y-77560475D02*
X78196723Y-77608094D01*
X78196723Y-77608094D02*
X78006247Y-77655713D01*
X78006247Y-77655713D02*
X77863390Y-77655713D01*
X77863390Y-77655713D02*
X77672914Y-77608094D01*
X77672914Y-77608094D02*
X77577676Y-77560475D01*
X77577676Y-77560475D02*
X77482438Y-77465237D01*
X77482438Y-77465237D02*
X77434819Y-77322380D01*
X77434819Y-77322380D02*
X77434819Y-77227142D01*
X77434819Y-77227142D02*
X77482438Y-77084285D01*
X77482438Y-77084285D02*
X77530057Y-77036666D01*
X77768152Y-76179523D02*
X78434819Y-76179523D01*
X77387200Y-76417618D02*
X78101485Y-76655713D01*
X78101485Y-76655713D02*
X78101485Y-76036666D01*
X34887819Y-38252333D02*
X35602104Y-38252333D01*
X35602104Y-38252333D02*
X35744961Y-38299952D01*
X35744961Y-38299952D02*
X35840200Y-38395190D01*
X35840200Y-38395190D02*
X35887819Y-38538047D01*
X35887819Y-38538047D02*
X35887819Y-38633285D01*
X34983057Y-37823761D02*
X34935438Y-37776142D01*
X34935438Y-37776142D02*
X34887819Y-37680904D01*
X34887819Y-37680904D02*
X34887819Y-37442809D01*
X34887819Y-37442809D02*
X34935438Y-37347571D01*
X34935438Y-37347571D02*
X34983057Y-37299952D01*
X34983057Y-37299952D02*
X35078295Y-37252333D01*
X35078295Y-37252333D02*
X35173533Y-37252333D01*
X35173533Y-37252333D02*
X35316390Y-37299952D01*
X35316390Y-37299952D02*
X35887819Y-37871380D01*
X35887819Y-37871380D02*
X35887819Y-37252333D01*
X108848095Y-13474819D02*
X108848095Y-12474819D01*
X108848095Y-12951009D02*
X109419523Y-12951009D01*
X109419523Y-13474819D02*
X109419523Y-12474819D01*
X109848095Y-12570057D02*
X109895714Y-12522438D01*
X109895714Y-12522438D02*
X109990952Y-12474819D01*
X109990952Y-12474819D02*
X110229047Y-12474819D01*
X110229047Y-12474819D02*
X110324285Y-12522438D01*
X110324285Y-12522438D02*
X110371904Y-12570057D01*
X110371904Y-12570057D02*
X110419523Y-12665295D01*
X110419523Y-12665295D02*
X110419523Y-12760533D01*
X110419523Y-12760533D02*
X110371904Y-12903390D01*
X110371904Y-12903390D02*
X109800476Y-13474819D01*
X109800476Y-13474819D02*
X110419523Y-13474819D01*
X77305714Y-61839104D02*
X77781904Y-61839104D01*
X77210476Y-62124819D02*
X77543809Y-61124819D01*
X77543809Y-61124819D02*
X77877142Y-62124819D01*
X78734285Y-62124819D02*
X78162857Y-62124819D01*
X78448571Y-62124819D02*
X78448571Y-61124819D01*
X78448571Y-61124819D02*
X78353333Y-61267676D01*
X78353333Y-61267676D02*
X78258095Y-61362914D01*
X78258095Y-61362914D02*
X78162857Y-61410533D01*
X79281904Y-21575180D02*
X79281904Y-20765657D01*
X79281904Y-20765657D02*
X79234285Y-20670419D01*
X79234285Y-20670419D02*
X79186666Y-20622800D01*
X79186666Y-20622800D02*
X79091428Y-20575180D01*
X79091428Y-20575180D02*
X78900952Y-20575180D01*
X78900952Y-20575180D02*
X78805714Y-20622800D01*
X78805714Y-20622800D02*
X78758095Y-20670419D01*
X78758095Y-20670419D02*
X78710476Y-20765657D01*
X78710476Y-20765657D02*
X78710476Y-21575180D01*
X78281904Y-20622800D02*
X78139047Y-20575180D01*
X78139047Y-20575180D02*
X77900952Y-20575180D01*
X77900952Y-20575180D02*
X77805714Y-20622800D01*
X77805714Y-20622800D02*
X77758095Y-20670419D01*
X77758095Y-20670419D02*
X77710476Y-20765657D01*
X77710476Y-20765657D02*
X77710476Y-20860895D01*
X77710476Y-20860895D02*
X77758095Y-20956133D01*
X77758095Y-20956133D02*
X77805714Y-21003752D01*
X77805714Y-21003752D02*
X77900952Y-21051371D01*
X77900952Y-21051371D02*
X78091428Y-21098990D01*
X78091428Y-21098990D02*
X78186666Y-21146609D01*
X78186666Y-21146609D02*
X78234285Y-21194228D01*
X78234285Y-21194228D02*
X78281904Y-21289466D01*
X78281904Y-21289466D02*
X78281904Y-21384704D01*
X78281904Y-21384704D02*
X78234285Y-21479942D01*
X78234285Y-21479942D02*
X78186666Y-21527561D01*
X78186666Y-21527561D02*
X78091428Y-21575180D01*
X78091428Y-21575180D02*
X77853333Y-21575180D01*
X77853333Y-21575180D02*
X77710476Y-21527561D01*
X76948571Y-21098990D02*
X76805714Y-21051371D01*
X76805714Y-21051371D02*
X76758095Y-21003752D01*
X76758095Y-21003752D02*
X76710476Y-20908514D01*
X76710476Y-20908514D02*
X76710476Y-20765657D01*
X76710476Y-20765657D02*
X76758095Y-20670419D01*
X76758095Y-20670419D02*
X76805714Y-20622800D01*
X76805714Y-20622800D02*
X76900952Y-20575180D01*
X76900952Y-20575180D02*
X77281904Y-20575180D01*
X77281904Y-20575180D02*
X77281904Y-21575180D01*
X77281904Y-21575180D02*
X76948571Y-21575180D01*
X76948571Y-21575180D02*
X76853333Y-21527561D01*
X76853333Y-21527561D02*
X76805714Y-21479942D01*
X76805714Y-21479942D02*
X76758095Y-21384704D01*
X76758095Y-21384704D02*
X76758095Y-21289466D01*
X76758095Y-21289466D02*
X76805714Y-21194228D01*
X76805714Y-21194228D02*
X76853333Y-21146609D01*
X76853333Y-21146609D02*
X76948571Y-21098990D01*
X76948571Y-21098990D02*
X77281904Y-21098990D01*
X95633333Y-69914819D02*
X95300000Y-69438628D01*
X95061905Y-69914819D02*
X95061905Y-68914819D01*
X95061905Y-68914819D02*
X95442857Y-68914819D01*
X95442857Y-68914819D02*
X95538095Y-68962438D01*
X95538095Y-68962438D02*
X95585714Y-69010057D01*
X95585714Y-69010057D02*
X95633333Y-69105295D01*
X95633333Y-69105295D02*
X95633333Y-69248152D01*
X95633333Y-69248152D02*
X95585714Y-69343390D01*
X95585714Y-69343390D02*
X95538095Y-69391009D01*
X95538095Y-69391009D02*
X95442857Y-69438628D01*
X95442857Y-69438628D02*
X95061905Y-69438628D01*
X96538095Y-68914819D02*
X96061905Y-68914819D01*
X96061905Y-68914819D02*
X96014286Y-69391009D01*
X96014286Y-69391009D02*
X96061905Y-69343390D01*
X96061905Y-69343390D02*
X96157143Y-69295771D01*
X96157143Y-69295771D02*
X96395238Y-69295771D01*
X96395238Y-69295771D02*
X96490476Y-69343390D01*
X96490476Y-69343390D02*
X96538095Y-69391009D01*
X96538095Y-69391009D02*
X96585714Y-69486247D01*
X96585714Y-69486247D02*
X96585714Y-69724342D01*
X96585714Y-69724342D02*
X96538095Y-69819580D01*
X96538095Y-69819580D02*
X96490476Y-69867200D01*
X96490476Y-69867200D02*
X96395238Y-69914819D01*
X96395238Y-69914819D02*
X96157143Y-69914819D01*
X96157143Y-69914819D02*
X96061905Y-69867200D01*
X96061905Y-69867200D02*
X96014286Y-69819580D01*
X62018095Y-74634819D02*
X62018095Y-75444342D01*
X62018095Y-75444342D02*
X62065714Y-75539580D01*
X62065714Y-75539580D02*
X62113333Y-75587200D01*
X62113333Y-75587200D02*
X62208571Y-75634819D01*
X62208571Y-75634819D02*
X62399047Y-75634819D01*
X62399047Y-75634819D02*
X62494285Y-75587200D01*
X62494285Y-75587200D02*
X62541904Y-75539580D01*
X62541904Y-75539580D02*
X62589523Y-75444342D01*
X62589523Y-75444342D02*
X62589523Y-74634819D01*
X62970476Y-74634819D02*
X63589523Y-74634819D01*
X63589523Y-74634819D02*
X63256190Y-75015771D01*
X63256190Y-75015771D02*
X63399047Y-75015771D01*
X63399047Y-75015771D02*
X63494285Y-75063390D01*
X63494285Y-75063390D02*
X63541904Y-75111009D01*
X63541904Y-75111009D02*
X63589523Y-75206247D01*
X63589523Y-75206247D02*
X63589523Y-75444342D01*
X63589523Y-75444342D02*
X63541904Y-75539580D01*
X63541904Y-75539580D02*
X63494285Y-75587200D01*
X63494285Y-75587200D02*
X63399047Y-75634819D01*
X63399047Y-75634819D02*
X63113333Y-75634819D01*
X63113333Y-75634819D02*
X63018095Y-75587200D01*
X63018095Y-75587200D02*
X62970476Y-75539580D01*
D12*
X97868453Y-27770666D02*
X98594168Y-27770666D01*
X98594168Y-27770666D02*
X98739311Y-27819047D01*
X98739311Y-27819047D02*
X98836073Y-27915809D01*
X98836073Y-27915809D02*
X98884453Y-28060952D01*
X98884453Y-28060952D02*
X98884453Y-28157714D01*
X97868453Y-27383619D02*
X97868453Y-26754666D01*
X97868453Y-26754666D02*
X98255501Y-27093333D01*
X98255501Y-27093333D02*
X98255501Y-26948190D01*
X98255501Y-26948190D02*
X98303882Y-26851428D01*
X98303882Y-26851428D02*
X98352263Y-26803047D01*
X98352263Y-26803047D02*
X98449025Y-26754666D01*
X98449025Y-26754666D02*
X98690930Y-26754666D01*
X98690930Y-26754666D02*
X98787692Y-26803047D01*
X98787692Y-26803047D02*
X98836073Y-26851428D01*
X98836073Y-26851428D02*
X98884453Y-26948190D01*
X98884453Y-26948190D02*
X98884453Y-27238476D01*
X98884453Y-27238476D02*
X98836073Y-27335238D01*
X98836073Y-27335238D02*
X98787692Y-27383619D01*
D13*
X99014095Y-38033476D02*
X97998095Y-37906476D01*
X97998095Y-37906476D02*
X98723810Y-37743190D01*
X98723810Y-37743190D02*
X97998095Y-37398476D01*
X97998095Y-37398476D02*
X99014095Y-37525476D01*
X99014095Y-37162619D02*
X98336762Y-37077952D01*
X97998095Y-37035619D02*
X98046476Y-37077952D01*
X98046476Y-37077952D02*
X98094857Y-37047714D01*
X98094857Y-37047714D02*
X98046476Y-37005380D01*
X98046476Y-37005380D02*
X97998095Y-37035619D01*
X97998095Y-37035619D02*
X98094857Y-37047714D01*
X98336762Y-36715095D02*
X99014095Y-36799762D01*
X98433524Y-36727190D02*
X98385143Y-36684857D01*
X98385143Y-36684857D02*
X98336762Y-36606238D01*
X98336762Y-36606238D02*
X98336762Y-36497381D01*
X98336762Y-36497381D02*
X98385143Y-36430857D01*
X98385143Y-36430857D02*
X98481905Y-36406666D01*
X98481905Y-36406666D02*
X99014095Y-36473190D01*
X99014095Y-36110333D02*
X98336762Y-36025666D01*
X97998095Y-35983333D02*
X98046476Y-36025666D01*
X98046476Y-36025666D02*
X98094857Y-35995428D01*
X98094857Y-35995428D02*
X98046476Y-35953094D01*
X98046476Y-35953094D02*
X97998095Y-35983333D01*
X97998095Y-35983333D02*
X98094857Y-35995428D01*
X98627048Y-35699095D02*
X98627048Y-35118523D01*
X99014095Y-34804047D02*
X97998095Y-34677047D01*
X97998095Y-34677047D02*
X97998095Y-34495618D01*
X97998095Y-34495618D02*
X98046476Y-34392808D01*
X98046476Y-34392808D02*
X98143238Y-34332332D01*
X98143238Y-34332332D02*
X98240000Y-34308142D01*
X98240000Y-34308142D02*
X98433524Y-34296047D01*
X98433524Y-34296047D02*
X98578667Y-34314189D01*
X98578667Y-34314189D02*
X98772191Y-34374666D01*
X98772191Y-34374666D02*
X98868953Y-34423047D01*
X98868953Y-34423047D02*
X98965715Y-34507713D01*
X98965715Y-34507713D02*
X99014095Y-34622618D01*
X99014095Y-34622618D02*
X99014095Y-34804047D01*
X99014095Y-34042047D02*
X97998095Y-33915047D01*
X99014095Y-33679190D02*
X97998095Y-33552190D01*
X97998095Y-33552190D02*
X99014095Y-33243761D01*
X99014095Y-33243761D02*
X97998095Y-33116761D01*
X98627048Y-32832523D02*
X98627048Y-32251951D01*
X97998095Y-31483903D02*
X97998095Y-31629046D01*
X97998095Y-31629046D02*
X98046476Y-31707665D01*
X98046476Y-31707665D02*
X98094857Y-31749998D01*
X98094857Y-31749998D02*
X98240000Y-31840713D01*
X98240000Y-31840713D02*
X98433524Y-31901189D01*
X98433524Y-31901189D02*
X98820572Y-31949570D01*
X98820572Y-31949570D02*
X98917334Y-31925379D01*
X98917334Y-31925379D02*
X98965715Y-31895141D01*
X98965715Y-31895141D02*
X99014095Y-31828617D01*
X99014095Y-31828617D02*
X99014095Y-31683475D01*
X99014095Y-31683475D02*
X98965715Y-31604856D01*
X98965715Y-31604856D02*
X98917334Y-31562522D01*
X98917334Y-31562522D02*
X98820572Y-31514141D01*
X98820572Y-31514141D02*
X98578667Y-31483903D01*
X98578667Y-31483903D02*
X98481905Y-31508094D01*
X98481905Y-31508094D02*
X98433524Y-31538332D01*
X98433524Y-31538332D02*
X98385143Y-31604856D01*
X98385143Y-31604856D02*
X98385143Y-31749998D01*
X98385143Y-31749998D02*
X98433524Y-31828617D01*
X98433524Y-31828617D02*
X98481905Y-31870951D01*
X98481905Y-31870951D02*
X98578667Y-31919332D01*
D11*
X25348095Y-13474819D02*
X25348095Y-12474819D01*
X25348095Y-12951009D02*
X25919523Y-12951009D01*
X25919523Y-13474819D02*
X25919523Y-12474819D01*
X26919523Y-13474819D02*
X26348095Y-13474819D01*
X26633809Y-13474819D02*
X26633809Y-12474819D01*
X26633809Y-12474819D02*
X26538571Y-12617676D01*
X26538571Y-12617676D02*
X26443333Y-12712914D01*
X26443333Y-12712914D02*
X26348095Y-12760533D01*
X33346666Y-62414819D02*
X33346666Y-63129104D01*
X33346666Y-63129104D02*
X33299047Y-63271961D01*
X33299047Y-63271961D02*
X33203809Y-63367200D01*
X33203809Y-63367200D02*
X33060952Y-63414819D01*
X33060952Y-63414819D02*
X32965714Y-63414819D01*
X34346666Y-63414819D02*
X33775238Y-63414819D01*
X34060952Y-63414819D02*
X34060952Y-62414819D01*
X34060952Y-62414819D02*
X33965714Y-62557676D01*
X33965714Y-62557676D02*
X33870476Y-62652914D01*
X33870476Y-62652914D02*
X33775238Y-62700533D01*
X45529580Y-77716666D02*
X45577200Y-77764285D01*
X45577200Y-77764285D02*
X45624819Y-77907142D01*
X45624819Y-77907142D02*
X45624819Y-78002380D01*
X45624819Y-78002380D02*
X45577200Y-78145237D01*
X45577200Y-78145237D02*
X45481961Y-78240475D01*
X45481961Y-78240475D02*
X45386723Y-78288094D01*
X45386723Y-78288094D02*
X45196247Y-78335713D01*
X45196247Y-78335713D02*
X45053390Y-78335713D01*
X45053390Y-78335713D02*
X44862914Y-78288094D01*
X44862914Y-78288094D02*
X44767676Y-78240475D01*
X44767676Y-78240475D02*
X44672438Y-78145237D01*
X44672438Y-78145237D02*
X44624819Y-78002380D01*
X44624819Y-78002380D02*
X44624819Y-77907142D01*
X44624819Y-77907142D02*
X44672438Y-77764285D01*
X44672438Y-77764285D02*
X44720057Y-77716666D01*
X44720057Y-77335713D02*
X44672438Y-77288094D01*
X44672438Y-77288094D02*
X44624819Y-77192856D01*
X44624819Y-77192856D02*
X44624819Y-76954761D01*
X44624819Y-76954761D02*
X44672438Y-76859523D01*
X44672438Y-76859523D02*
X44720057Y-76811904D01*
X44720057Y-76811904D02*
X44815295Y-76764285D01*
X44815295Y-76764285D02*
X44910533Y-76764285D01*
X44910533Y-76764285D02*
X45053390Y-76811904D01*
X45053390Y-76811904D02*
X45624819Y-77383332D01*
X45624819Y-77383332D02*
X45624819Y-76764285D01*
X101353333Y-44079580D02*
X101305714Y-44127200D01*
X101305714Y-44127200D02*
X101162857Y-44174819D01*
X101162857Y-44174819D02*
X101067619Y-44174819D01*
X101067619Y-44174819D02*
X100924762Y-44127200D01*
X100924762Y-44127200D02*
X100829524Y-44031961D01*
X100829524Y-44031961D02*
X100781905Y-43936723D01*
X100781905Y-43936723D02*
X100734286Y-43746247D01*
X100734286Y-43746247D02*
X100734286Y-43603390D01*
X100734286Y-43603390D02*
X100781905Y-43412914D01*
X100781905Y-43412914D02*
X100829524Y-43317676D01*
X100829524Y-43317676D02*
X100924762Y-43222438D01*
X100924762Y-43222438D02*
X101067619Y-43174819D01*
X101067619Y-43174819D02*
X101162857Y-43174819D01*
X101162857Y-43174819D02*
X101305714Y-43222438D01*
X101305714Y-43222438D02*
X101353333Y-43270057D01*
X102305714Y-44174819D02*
X101734286Y-44174819D01*
X102020000Y-44174819D02*
X102020000Y-43174819D01*
X102020000Y-43174819D02*
X101924762Y-43317676D01*
X101924762Y-43317676D02*
X101829524Y-43412914D01*
X101829524Y-43412914D02*
X101734286Y-43460533D01*
X32919200Y-60059332D02*
X32966819Y-59916475D01*
X32966819Y-59916475D02*
X32966819Y-59678380D01*
X32966819Y-59678380D02*
X32919200Y-59583142D01*
X32919200Y-59583142D02*
X32871580Y-59535523D01*
X32871580Y-59535523D02*
X32776342Y-59487904D01*
X32776342Y-59487904D02*
X32681104Y-59487904D01*
X32681104Y-59487904D02*
X32585866Y-59535523D01*
X32585866Y-59535523D02*
X32538247Y-59583142D01*
X32538247Y-59583142D02*
X32490628Y-59678380D01*
X32490628Y-59678380D02*
X32443009Y-59868856D01*
X32443009Y-59868856D02*
X32395390Y-59964094D01*
X32395390Y-59964094D02*
X32347771Y-60011713D01*
X32347771Y-60011713D02*
X32252533Y-60059332D01*
X32252533Y-60059332D02*
X32157295Y-60059332D01*
X32157295Y-60059332D02*
X32062057Y-60011713D01*
X32062057Y-60011713D02*
X32014438Y-59964094D01*
X32014438Y-59964094D02*
X31966819Y-59868856D01*
X31966819Y-59868856D02*
X31966819Y-59630761D01*
X31966819Y-59630761D02*
X32014438Y-59487904D01*
X31966819Y-59154570D02*
X32966819Y-58916475D01*
X32966819Y-58916475D02*
X32252533Y-58725999D01*
X32252533Y-58725999D02*
X32966819Y-58535523D01*
X32966819Y-58535523D02*
X31966819Y-58297428D01*
X32966819Y-57392666D02*
X32966819Y-57964094D01*
X32966819Y-57678380D02*
X31966819Y-57678380D01*
X31966819Y-57678380D02*
X32109676Y-57773618D01*
X32109676Y-57773618D02*
X32204914Y-57868856D01*
X32204914Y-57868856D02*
X32252533Y-57964094D01*
X47899580Y-46596666D02*
X47947200Y-46644285D01*
X47947200Y-46644285D02*
X47994819Y-46787142D01*
X47994819Y-46787142D02*
X47994819Y-46882380D01*
X47994819Y-46882380D02*
X47947200Y-47025237D01*
X47947200Y-47025237D02*
X47851961Y-47120475D01*
X47851961Y-47120475D02*
X47756723Y-47168094D01*
X47756723Y-47168094D02*
X47566247Y-47215713D01*
X47566247Y-47215713D02*
X47423390Y-47215713D01*
X47423390Y-47215713D02*
X47232914Y-47168094D01*
X47232914Y-47168094D02*
X47137676Y-47120475D01*
X47137676Y-47120475D02*
X47042438Y-47025237D01*
X47042438Y-47025237D02*
X46994819Y-46882380D01*
X46994819Y-46882380D02*
X46994819Y-46787142D01*
X46994819Y-46787142D02*
X47042438Y-46644285D01*
X47042438Y-46644285D02*
X47090057Y-46596666D01*
X46994819Y-45739523D02*
X46994819Y-45929999D01*
X46994819Y-45929999D02*
X47042438Y-46025237D01*
X47042438Y-46025237D02*
X47090057Y-46072856D01*
X47090057Y-46072856D02*
X47232914Y-46168094D01*
X47232914Y-46168094D02*
X47423390Y-46215713D01*
X47423390Y-46215713D02*
X47804342Y-46215713D01*
X47804342Y-46215713D02*
X47899580Y-46168094D01*
X47899580Y-46168094D02*
X47947200Y-46120475D01*
X47947200Y-46120475D02*
X47994819Y-46025237D01*
X47994819Y-46025237D02*
X47994819Y-45834761D01*
X47994819Y-45834761D02*
X47947200Y-45739523D01*
X47947200Y-45739523D02*
X47899580Y-45691904D01*
X47899580Y-45691904D02*
X47804342Y-45644285D01*
X47804342Y-45644285D02*
X47566247Y-45644285D01*
X47566247Y-45644285D02*
X47471009Y-45691904D01*
X47471009Y-45691904D02*
X47423390Y-45739523D01*
X47423390Y-45739523D02*
X47375771Y-45834761D01*
X47375771Y-45834761D02*
X47375771Y-46025237D01*
X47375771Y-46025237D02*
X47423390Y-46120475D01*
X47423390Y-46120475D02*
X47471009Y-46168094D01*
X47471009Y-46168094D02*
X47566247Y-46215713D01*
X108848095Y-76974819D02*
X108848095Y-75974819D01*
X108848095Y-76451009D02*
X109419523Y-76451009D01*
X109419523Y-76974819D02*
X109419523Y-75974819D01*
X110324285Y-76308152D02*
X110324285Y-76974819D01*
X110086190Y-75927200D02*
X109848095Y-76641485D01*
X109848095Y-76641485D02*
X110467142Y-76641485D01*
X25348095Y-76974819D02*
X25348095Y-75974819D01*
X25348095Y-76451009D02*
X25919523Y-76451009D01*
X25919523Y-76974819D02*
X25919523Y-75974819D01*
X26300476Y-75974819D02*
X26919523Y-75974819D01*
X26919523Y-75974819D02*
X26586190Y-76355771D01*
X26586190Y-76355771D02*
X26729047Y-76355771D01*
X26729047Y-76355771D02*
X26824285Y-76403390D01*
X26824285Y-76403390D02*
X26871904Y-76451009D01*
X26871904Y-76451009D02*
X26919523Y-76546247D01*
X26919523Y-76546247D02*
X26919523Y-76784342D01*
X26919523Y-76784342D02*
X26871904Y-76879580D01*
X26871904Y-76879580D02*
X26824285Y-76927200D01*
X26824285Y-76927200D02*
X26729047Y-76974819D01*
X26729047Y-76974819D02*
X26443333Y-76974819D01*
X26443333Y-76974819D02*
X26348095Y-76927200D01*
X26348095Y-76927200D02*
X26300476Y-76879580D01*
D14*
%TO.C,U2*%
X46850000Y-24100000D02*
X46850000Y-20500000D01*
X46827684Y-20491555D02*
G75*
G03*
X42550000Y-21520000I-1827684J-1808445D01*
G01*
X42550001Y-23120000D02*
G75*
G03*
X46841740Y-24111874I2449999J820000D01*
G01*
%TO.C,Q1*%
X46800000Y-34420000D02*
X43200000Y-34420000D01*
X43191555Y-34442316D02*
G75*
G03*
X44220000Y-38720000I1808445J-1827684D01*
G01*
X45820000Y-38719999D02*
G75*
G03*
X46811874Y-34428260I-820000J2449999D01*
G01*
%TO.C,C5*%
X87955000Y-73140302D02*
X87955000Y-73940302D01*
X88355000Y-73540302D02*
X87555000Y-73540302D01*
X89720000Y-77550000D02*
X81560000Y-77550000D01*
X89720000Y-77590000D02*
X81560000Y-77590000D01*
X89720000Y-77630000D02*
X81560000Y-77630000D01*
X89719000Y-77670000D02*
X81561000Y-77670000D01*
X89717000Y-77710000D02*
X81563000Y-77710000D01*
X89716000Y-77750000D02*
X81564000Y-77750000D01*
X89714000Y-77790000D02*
X81566000Y-77790000D01*
X89711000Y-77830000D02*
X81569000Y-77830000D01*
X89708000Y-77870000D02*
X81572000Y-77870000D01*
X89705000Y-77910000D02*
X81575000Y-77910000D01*
X89701000Y-77950000D02*
X81579000Y-77950000D01*
X89697000Y-77990000D02*
X81583000Y-77990000D01*
X89692000Y-78030000D02*
X81588000Y-78030000D01*
X89688000Y-78070000D02*
X81592000Y-78070000D01*
X89682000Y-78110000D02*
X81598000Y-78110000D01*
X89677000Y-78150000D02*
X81603000Y-78150000D01*
X89670000Y-78190000D02*
X81610000Y-78190000D01*
X89664000Y-78230000D02*
X81616000Y-78230000D01*
X89657000Y-78271000D02*
X81623000Y-78271000D01*
X89650000Y-78311000D02*
X81630000Y-78311000D01*
X89642000Y-78351000D02*
X81638000Y-78351000D01*
X89634000Y-78391000D02*
X81646000Y-78391000D01*
X89625000Y-78431000D02*
X86680000Y-78431000D01*
X84600000Y-78431000D02*
X81655000Y-78431000D01*
X89616000Y-78471000D02*
X86680000Y-78471000D01*
X84600000Y-78471000D02*
X81664000Y-78471000D01*
X89607000Y-78511000D02*
X86680000Y-78511000D01*
X84600000Y-78511000D02*
X81673000Y-78511000D01*
X89597000Y-78551000D02*
X86680000Y-78551000D01*
X84600000Y-78551000D02*
X81683000Y-78551000D01*
X89587000Y-78591000D02*
X86680000Y-78591000D01*
X84600000Y-78591000D02*
X81693000Y-78591000D01*
X89576000Y-78631000D02*
X86680000Y-78631000D01*
X84600000Y-78631000D02*
X81704000Y-78631000D01*
X89565000Y-78671000D02*
X86680000Y-78671000D01*
X84600000Y-78671000D02*
X81715000Y-78671000D01*
X89554000Y-78711000D02*
X86680000Y-78711000D01*
X84600000Y-78711000D02*
X81726000Y-78711000D01*
X89542000Y-78751000D02*
X86680000Y-78751000D01*
X84600000Y-78751000D02*
X81738000Y-78751000D01*
X89529000Y-78791000D02*
X86680000Y-78791000D01*
X84600000Y-78791000D02*
X81751000Y-78791000D01*
X89517000Y-78831000D02*
X86680000Y-78831000D01*
X84600000Y-78831000D02*
X81763000Y-78831000D01*
X89503000Y-78871000D02*
X86680000Y-78871000D01*
X84600000Y-78871000D02*
X81777000Y-78871000D01*
X89490000Y-78911000D02*
X86680000Y-78911000D01*
X84600000Y-78911000D02*
X81790000Y-78911000D01*
X89475000Y-78951000D02*
X86680000Y-78951000D01*
X84600000Y-78951000D02*
X81805000Y-78951000D01*
X89461000Y-78991000D02*
X86680000Y-78991000D01*
X84600000Y-78991000D02*
X81819000Y-78991000D01*
X89445000Y-79031000D02*
X86680000Y-79031000D01*
X84600000Y-79031000D02*
X81835000Y-79031000D01*
X89430000Y-79071000D02*
X86680000Y-79071000D01*
X84600000Y-79071000D02*
X81850000Y-79071000D01*
X89414000Y-79111000D02*
X86680000Y-79111000D01*
X84600000Y-79111000D02*
X81866000Y-79111000D01*
X89397000Y-79151000D02*
X86680000Y-79151000D01*
X84600000Y-79151000D02*
X81883000Y-79151000D01*
X89380000Y-79191000D02*
X86680000Y-79191000D01*
X84600000Y-79191000D02*
X81900000Y-79191000D01*
X89362000Y-79231000D02*
X86680000Y-79231000D01*
X84600000Y-79231000D02*
X81918000Y-79231000D01*
X89344000Y-79271000D02*
X86680000Y-79271000D01*
X84600000Y-79271000D02*
X81936000Y-79271000D01*
X89326000Y-79311000D02*
X86680000Y-79311000D01*
X84600000Y-79311000D02*
X81954000Y-79311000D01*
X89306000Y-79351000D02*
X86680000Y-79351000D01*
X84600000Y-79351000D02*
X81974000Y-79351000D01*
X89287000Y-79391000D02*
X86680000Y-79391000D01*
X84600000Y-79391000D02*
X81993000Y-79391000D01*
X89267000Y-79431000D02*
X86680000Y-79431000D01*
X84600000Y-79431000D02*
X82013000Y-79431000D01*
X89246000Y-79471000D02*
X86680000Y-79471000D01*
X84600000Y-79471000D02*
X82034000Y-79471000D01*
X89224000Y-79511000D02*
X86680000Y-79511000D01*
X84600000Y-79511000D02*
X82056000Y-79511000D01*
X89202000Y-79551000D02*
X86680000Y-79551000D01*
X84600000Y-79551000D02*
X82078000Y-79551000D01*
X89180000Y-79591000D02*
X86680000Y-79591000D01*
X84600000Y-79591000D02*
X82100000Y-79591000D01*
X89157000Y-79631000D02*
X86680000Y-79631000D01*
X84600000Y-79631000D02*
X82123000Y-79631000D01*
X89133000Y-79671000D02*
X86680000Y-79671000D01*
X84600000Y-79671000D02*
X82147000Y-79671000D01*
X89109000Y-79711000D02*
X86680000Y-79711000D01*
X84600000Y-79711000D02*
X82171000Y-79711000D01*
X89084000Y-79751000D02*
X86680000Y-79751000D01*
X84600000Y-79751000D02*
X82196000Y-79751000D01*
X89058000Y-79791000D02*
X86680000Y-79791000D01*
X84600000Y-79791000D02*
X82222000Y-79791000D01*
X89032000Y-79831000D02*
X86680000Y-79831000D01*
X84600000Y-79831000D02*
X82248000Y-79831000D01*
X89005000Y-79871000D02*
X86680000Y-79871000D01*
X84600000Y-79871000D02*
X82275000Y-79871000D01*
X88978000Y-79911000D02*
X86680000Y-79911000D01*
X84600000Y-79911000D02*
X82302000Y-79911000D01*
X88949000Y-79951000D02*
X86680000Y-79951000D01*
X84600000Y-79951000D02*
X82331000Y-79951000D01*
X88920000Y-79991000D02*
X86680000Y-79991000D01*
X84600000Y-79991000D02*
X82360000Y-79991000D01*
X88890000Y-80031000D02*
X86680000Y-80031000D01*
X84600000Y-80031000D02*
X82390000Y-80031000D01*
X88860000Y-80071000D02*
X86680000Y-80071000D01*
X84600000Y-80071000D02*
X82420000Y-80071000D01*
X88829000Y-80111000D02*
X86680000Y-80111000D01*
X84600000Y-80111000D02*
X82451000Y-80111000D01*
X88796000Y-80151000D02*
X86680000Y-80151000D01*
X84600000Y-80151000D02*
X82484000Y-80151000D01*
X88764000Y-80191000D02*
X86680000Y-80191000D01*
X84600000Y-80191000D02*
X82516000Y-80191000D01*
X88730000Y-80231000D02*
X86680000Y-80231000D01*
X84600000Y-80231000D02*
X82550000Y-80231000D01*
X88695000Y-80271000D02*
X86680000Y-80271000D01*
X84600000Y-80271000D02*
X82585000Y-80271000D01*
X88659000Y-80311000D02*
X86680000Y-80311000D01*
X84600000Y-80311000D02*
X82621000Y-80311000D01*
X88623000Y-80351000D02*
X86680000Y-80351000D01*
X84600000Y-80351000D02*
X82657000Y-80351000D01*
X88585000Y-80391000D02*
X86680000Y-80391000D01*
X84600000Y-80391000D02*
X82695000Y-80391000D01*
X88547000Y-80431000D02*
X86680000Y-80431000D01*
X84600000Y-80431000D02*
X82733000Y-80431000D01*
X88507000Y-80471000D02*
X86680000Y-80471000D01*
X84600000Y-80471000D02*
X82773000Y-80471000D01*
X88466000Y-80511000D02*
X82814000Y-80511000D01*
X88424000Y-80551000D02*
X82856000Y-80551000D01*
X88381000Y-80591000D02*
X82899000Y-80591000D01*
X88337000Y-80631000D02*
X82943000Y-80631000D01*
X88291000Y-80671000D02*
X82989000Y-80671000D01*
X88244000Y-80711000D02*
X83036000Y-80711000D01*
X88196000Y-80751000D02*
X83084000Y-80751000D01*
X88145000Y-80791000D02*
X83135000Y-80791000D01*
X88094000Y-80831000D02*
X83186000Y-80831000D01*
X88040000Y-80871000D02*
X83240000Y-80871000D01*
X87985000Y-80911000D02*
X83295000Y-80911000D01*
X87927000Y-80951000D02*
X83353000Y-80951000D01*
X87868000Y-80991000D02*
X83412000Y-80991000D01*
X87806000Y-81031000D02*
X83474000Y-81031000D01*
X87742000Y-81071000D02*
X83538000Y-81071000D01*
X87674000Y-81111000D02*
X83606000Y-81111000D01*
X87604000Y-81151000D02*
X83676000Y-81151000D01*
X87530000Y-81191000D02*
X83750000Y-81191000D01*
X87453000Y-81231000D02*
X83827000Y-81231000D01*
X87371000Y-81271000D02*
X83909000Y-81271000D01*
X87285000Y-81311000D02*
X83995000Y-81311000D01*
X87192000Y-81351000D02*
X84088000Y-81351000D01*
X87093000Y-81391000D02*
X84187000Y-81391000D01*
X86986000Y-81431000D02*
X84294000Y-81431000D01*
X86869000Y-81471000D02*
X84411000Y-81471000D01*
X86738000Y-81511000D02*
X84542000Y-81511000D01*
X86588000Y-81551000D02*
X84692000Y-81551000D01*
X86408000Y-81591000D02*
X84872000Y-81591000D01*
X86173000Y-81631000D02*
X85107000Y-81631000D01*
X89760000Y-77550000D02*
G75*
G03*
X89760000Y-77550000I-4120000J0D01*
G01*
%TO.C,D2*%
X39920000Y-65410000D02*
X39920000Y-64390000D01*
X38450000Y-64390000D02*
X41390000Y-64390000D01*
X41390000Y-64390000D02*
X41390000Y-58950000D01*
X38450000Y-63610000D02*
X41390000Y-63610000D01*
X38450000Y-63490000D02*
X41390000Y-63490000D01*
X38450000Y-63370000D02*
X41390000Y-63370000D01*
X38450000Y-58950000D02*
X38450000Y-64390000D01*
X41390000Y-58950000D02*
X38450000Y-58950000D01*
X39920000Y-57930000D02*
X39920000Y-58950000D01*
%TO.C,D4*%
X108790000Y-73066000D02*
X108790000Y-72910000D01*
X108790000Y-70750000D02*
X108790000Y-70594000D01*
X105557666Y-72908608D02*
G75*
G03*
X108789999Y-73065515I1672334J1078608D01*
G01*
X106188871Y-72909836D02*
G75*
G03*
X108270960Y-72909999I1041129J1079836D01*
G01*
X108270960Y-70750001D02*
G75*
G03*
X106188871Y-70750164I-1040960J-1079999D01*
G01*
X108789999Y-70594485D02*
G75*
G03*
X105557666Y-70751392I-1559999J-1235515D01*
G01*
%TO.C,U1*%
X48750000Y-50120000D02*
X48750000Y-68140000D01*
X48750000Y-68140000D02*
X59030000Y-68140000D01*
X51240000Y-50180000D02*
X51240000Y-68080000D01*
X51240000Y-68080000D02*
X56540000Y-68080000D01*
X52890000Y-50180000D02*
X51240000Y-50180000D01*
X56540000Y-50180000D02*
X54890000Y-50180000D01*
X56540000Y-68080000D02*
X56540000Y-50180000D01*
X59030000Y-50120000D02*
X48750000Y-50120000D01*
X59030000Y-68140000D02*
X59030000Y-50120000D01*
X52890000Y-50180000D02*
G75*
G03*
X54890000Y-50180000I1000000J0D01*
G01*
%TO.C,D1*%
X39920000Y-22070000D02*
X39920000Y-22720000D01*
X41040000Y-22720000D02*
X38800000Y-22720000D01*
X38800000Y-22720000D02*
X38800000Y-26960000D01*
X41040000Y-23320000D02*
X38800000Y-23320000D01*
X41040000Y-23440000D02*
X38800000Y-23440000D01*
X41040000Y-23560000D02*
X38800000Y-23560000D01*
X41040000Y-26960000D02*
X41040000Y-22720000D01*
X38800000Y-26960000D02*
X41040000Y-26960000D01*
X39920000Y-27610000D02*
X39920000Y-26960000D01*
%TO.C,R1*%
X56330000Y-28110000D02*
X56330000Y-21570000D01*
X56660000Y-28110000D02*
X56330000Y-28110000D01*
X58740000Y-28110000D02*
X59070000Y-28110000D01*
X59070000Y-28110000D02*
X59070000Y-21570000D01*
X56330000Y-21570000D02*
X56660000Y-21570000D01*
X59070000Y-21570000D02*
X58740000Y-21570000D01*
%TO.C,C3*%
X51450000Y-73750000D02*
X51005000Y-73750000D01*
X51450000Y-73750000D02*
X51450000Y-79990000D01*
X49155000Y-73750000D02*
X48710000Y-73750000D01*
X48710000Y-73750000D02*
X48710000Y-79990000D01*
X51450000Y-79990000D02*
X51005000Y-79990000D01*
X49155000Y-79990000D02*
X48710000Y-79990000D01*
%TO.C,R2*%
X48710000Y-28110000D02*
X48710000Y-21570000D01*
X49040000Y-28110000D02*
X48710000Y-28110000D01*
X51120000Y-28110000D02*
X51450000Y-28110000D01*
X51450000Y-28110000D02*
X51450000Y-21570000D01*
X48710000Y-21570000D02*
X49040000Y-21570000D01*
X51450000Y-21570000D02*
X51120000Y-21570000D01*
%TO.C,D3*%
X108790000Y-65446000D02*
X108790000Y-65290000D01*
X108790000Y-63130000D02*
X108790000Y-62974000D01*
X105557666Y-65288608D02*
G75*
G03*
X108789999Y-65445515I1672334J1078608D01*
G01*
X106188871Y-65289836D02*
G75*
G03*
X108270960Y-65289999I1041129J1079836D01*
G01*
X108270960Y-63130001D02*
G75*
G03*
X106188871Y-63130164I-1040960J-1079999D01*
G01*
X108789999Y-62974485D02*
G75*
G03*
X105557666Y-63131392I-1559999J-1235515D01*
G01*
%TO.C,R3*%
X57160000Y-37640000D02*
X50620000Y-37640000D01*
X57160000Y-37310000D02*
X57160000Y-37640000D01*
X57160000Y-35230000D02*
X57160000Y-34900000D01*
X57160000Y-34900000D02*
X50620000Y-34900000D01*
X50620000Y-37640000D02*
X50620000Y-37310000D01*
X50620000Y-34900000D02*
X50620000Y-35230000D01*
%TO.C,R4*%
X92530000Y-62840000D02*
X99070000Y-62840000D01*
X92530000Y-63170000D02*
X92530000Y-62840000D01*
X92530000Y-65250000D02*
X92530000Y-65580000D01*
X92530000Y-65580000D02*
X99070000Y-65580000D01*
X99070000Y-62840000D02*
X99070000Y-63170000D01*
X99070000Y-65580000D02*
X99070000Y-65250000D01*
%TO.C,C4*%
X76850000Y-73750000D02*
X76405000Y-73750000D01*
X76850000Y-73750000D02*
X76850000Y-79990000D01*
X74555000Y-73750000D02*
X74110000Y-73750000D01*
X74110000Y-73750000D02*
X74110000Y-79990000D01*
X76850000Y-79990000D02*
X76405000Y-79990000D01*
X74555000Y-79990000D02*
X74110000Y-79990000D01*
%TO.C,J2*%
X33794000Y-22434000D02*
X33794000Y-53404000D01*
X23314000Y-22434000D02*
X33794000Y-22434000D01*
X34688338Y-43209000D02*
X34688338Y-43709000D01*
X34255325Y-43459000D02*
X34688338Y-43209000D01*
X34688338Y-43709000D02*
X34255325Y-43459000D01*
X33794000Y-53404000D02*
X23314000Y-53404000D01*
%TO.C,A1*%
X87040000Y-60530000D02*
X87040000Y-57860000D01*
X87040000Y-55320000D02*
X87040000Y-17090000D01*
X87040000Y-17090000D02*
X81960000Y-17090000D01*
X84370000Y-57860000D02*
X87040000Y-57860000D01*
X84370000Y-55320000D02*
X87040000Y-55320000D01*
X84370000Y-55320000D02*
X84370000Y-57860000D01*
X84370000Y-55320000D02*
X84370000Y-19760000D01*
X84370000Y-19760000D02*
X87040000Y-19760000D01*
X81960000Y-24970000D02*
X74080000Y-24970000D01*
X81960000Y-14550000D02*
X81960000Y-24970000D01*
X74080000Y-24970000D02*
X74080000Y-14550000D01*
X74080000Y-14550000D02*
X81960000Y-14550000D01*
X71670000Y-57860000D02*
X71670000Y-19760000D01*
X71670000Y-57860000D02*
X69000000Y-57860000D01*
X71670000Y-19760000D02*
X69000000Y-19760000D01*
X69000000Y-60530000D02*
X87040000Y-60530000D01*
X69000000Y-17090000D02*
X74080000Y-17090000D01*
X69000000Y-17090000D02*
X69000000Y-60530000D01*
%TO.C,R5*%
X92530000Y-70460000D02*
X99070000Y-70460000D01*
X92530000Y-70790000D02*
X92530000Y-70460000D01*
X92530000Y-72870000D02*
X92530000Y-73200000D01*
X92530000Y-73200000D02*
X99070000Y-73200000D01*
X99070000Y-70460000D02*
X99070000Y-70790000D01*
X99070000Y-73200000D02*
X99070000Y-72870000D01*
%TO.C,U3*%
X57660000Y-76180000D02*
X57660000Y-80821000D01*
X57660000Y-76180000D02*
X67900000Y-76180000D01*
X57660000Y-77690000D02*
X67900000Y-77690000D01*
X57660000Y-80821000D02*
X67900000Y-80821000D01*
X60930000Y-76180000D02*
X60930000Y-77690000D01*
X64631000Y-76180000D02*
X64631000Y-77690000D01*
X67900000Y-76180000D02*
X67900000Y-80821000D01*
D15*
%TO.C,J3*%
X113919000Y-25209500D02*
X113919000Y-39209980D01*
X110744000Y-25209500D02*
X113919000Y-25209500D01*
X100919280Y-25209500D02*
X106045000Y-25209500D01*
X110744000Y-39209980D02*
X113919000Y-39209980D01*
X100919280Y-39209980D02*
X100919280Y-25209500D01*
X100919280Y-39209980D02*
X106045000Y-39209980D01*
D14*
%TO.C,J1*%
X19660000Y-64340000D02*
X19660000Y-73580000D01*
X19660000Y-73580000D02*
X27780000Y-73580000D01*
X33180000Y-73580000D02*
X34400000Y-73580000D01*
X34400000Y-64340000D02*
X19660000Y-64340000D01*
X34400000Y-66010000D02*
X34400000Y-64340000D01*
X34400000Y-73580000D02*
X34400000Y-71910000D01*
%TO.C,C2*%
X42235000Y-73140302D02*
X42235000Y-73940302D01*
X42635000Y-73540302D02*
X41835000Y-73540302D01*
X44000000Y-77550000D02*
X35840000Y-77550000D01*
X44000000Y-77590000D02*
X35840000Y-77590000D01*
X44000000Y-77630000D02*
X35840000Y-77630000D01*
X43999000Y-77670000D02*
X35841000Y-77670000D01*
X43997000Y-77710000D02*
X35843000Y-77710000D01*
X43996000Y-77750000D02*
X35844000Y-77750000D01*
X43994000Y-77790000D02*
X35846000Y-77790000D01*
X43991000Y-77830000D02*
X35849000Y-77830000D01*
X43988000Y-77870000D02*
X35852000Y-77870000D01*
X43985000Y-77910000D02*
X35855000Y-77910000D01*
X43981000Y-77950000D02*
X35859000Y-77950000D01*
X43977000Y-77990000D02*
X35863000Y-77990000D01*
X43972000Y-78030000D02*
X35868000Y-78030000D01*
X43968000Y-78070000D02*
X35872000Y-78070000D01*
X43962000Y-78110000D02*
X35878000Y-78110000D01*
X43957000Y-78150000D02*
X35883000Y-78150000D01*
X43950000Y-78190000D02*
X35890000Y-78190000D01*
X43944000Y-78230000D02*
X35896000Y-78230000D01*
X43937000Y-78271000D02*
X35903000Y-78271000D01*
X43930000Y-78311000D02*
X35910000Y-78311000D01*
X43922000Y-78351000D02*
X35918000Y-78351000D01*
X43914000Y-78391000D02*
X35926000Y-78391000D01*
X43905000Y-78431000D02*
X40960000Y-78431000D01*
X38880000Y-78431000D02*
X35935000Y-78431000D01*
X43896000Y-78471000D02*
X40960000Y-78471000D01*
X38880000Y-78471000D02*
X35944000Y-78471000D01*
X43887000Y-78511000D02*
X40960000Y-78511000D01*
X38880000Y-78511000D02*
X35953000Y-78511000D01*
X43877000Y-78551000D02*
X40960000Y-78551000D01*
X38880000Y-78551000D02*
X35963000Y-78551000D01*
X43867000Y-78591000D02*
X40960000Y-78591000D01*
X38880000Y-78591000D02*
X35973000Y-78591000D01*
X43856000Y-78631000D02*
X40960000Y-78631000D01*
X38880000Y-78631000D02*
X35984000Y-78631000D01*
X43845000Y-78671000D02*
X40960000Y-78671000D01*
X38880000Y-78671000D02*
X35995000Y-78671000D01*
X43834000Y-78711000D02*
X40960000Y-78711000D01*
X38880000Y-78711000D02*
X36006000Y-78711000D01*
X43822000Y-78751000D02*
X40960000Y-78751000D01*
X38880000Y-78751000D02*
X36018000Y-78751000D01*
X43809000Y-78791000D02*
X40960000Y-78791000D01*
X38880000Y-78791000D02*
X36031000Y-78791000D01*
X43797000Y-78831000D02*
X40960000Y-78831000D01*
X38880000Y-78831000D02*
X36043000Y-78831000D01*
X43783000Y-78871000D02*
X40960000Y-78871000D01*
X38880000Y-78871000D02*
X36057000Y-78871000D01*
X43770000Y-78911000D02*
X40960000Y-78911000D01*
X38880000Y-78911000D02*
X36070000Y-78911000D01*
X43755000Y-78951000D02*
X40960000Y-78951000D01*
X38880000Y-78951000D02*
X36085000Y-78951000D01*
X43741000Y-78991000D02*
X40960000Y-78991000D01*
X38880000Y-78991000D02*
X36099000Y-78991000D01*
X43725000Y-79031000D02*
X40960000Y-79031000D01*
X38880000Y-79031000D02*
X36115000Y-79031000D01*
X43710000Y-79071000D02*
X40960000Y-79071000D01*
X38880000Y-79071000D02*
X36130000Y-79071000D01*
X43694000Y-79111000D02*
X40960000Y-79111000D01*
X38880000Y-79111000D02*
X36146000Y-79111000D01*
X43677000Y-79151000D02*
X40960000Y-79151000D01*
X38880000Y-79151000D02*
X36163000Y-79151000D01*
X43660000Y-79191000D02*
X40960000Y-79191000D01*
X38880000Y-79191000D02*
X36180000Y-79191000D01*
X43642000Y-79231000D02*
X40960000Y-79231000D01*
X38880000Y-79231000D02*
X36198000Y-79231000D01*
X43624000Y-79271000D02*
X40960000Y-79271000D01*
X38880000Y-79271000D02*
X36216000Y-79271000D01*
X43606000Y-79311000D02*
X40960000Y-79311000D01*
X38880000Y-79311000D02*
X36234000Y-79311000D01*
X43586000Y-79351000D02*
X40960000Y-79351000D01*
X38880000Y-79351000D02*
X36254000Y-79351000D01*
X43567000Y-79391000D02*
X40960000Y-79391000D01*
X38880000Y-79391000D02*
X36273000Y-79391000D01*
X43547000Y-79431000D02*
X40960000Y-79431000D01*
X38880000Y-79431000D02*
X36293000Y-79431000D01*
X43526000Y-79471000D02*
X40960000Y-79471000D01*
X38880000Y-79471000D02*
X36314000Y-79471000D01*
X43504000Y-79511000D02*
X40960000Y-79511000D01*
X38880000Y-79511000D02*
X36336000Y-79511000D01*
X43482000Y-79551000D02*
X40960000Y-79551000D01*
X38880000Y-79551000D02*
X36358000Y-79551000D01*
X43460000Y-79591000D02*
X40960000Y-79591000D01*
X38880000Y-79591000D02*
X36380000Y-79591000D01*
X43437000Y-79631000D02*
X40960000Y-79631000D01*
X38880000Y-79631000D02*
X36403000Y-79631000D01*
X43413000Y-79671000D02*
X40960000Y-79671000D01*
X38880000Y-79671000D02*
X36427000Y-79671000D01*
X43389000Y-79711000D02*
X40960000Y-79711000D01*
X38880000Y-79711000D02*
X36451000Y-79711000D01*
X43364000Y-79751000D02*
X40960000Y-79751000D01*
X38880000Y-79751000D02*
X36476000Y-79751000D01*
X43338000Y-79791000D02*
X40960000Y-79791000D01*
X38880000Y-79791000D02*
X36502000Y-79791000D01*
X43312000Y-79831000D02*
X40960000Y-79831000D01*
X38880000Y-79831000D02*
X36528000Y-79831000D01*
X43285000Y-79871000D02*
X40960000Y-79871000D01*
X38880000Y-79871000D02*
X36555000Y-79871000D01*
X43258000Y-79911000D02*
X40960000Y-79911000D01*
X38880000Y-79911000D02*
X36582000Y-79911000D01*
X43229000Y-79951000D02*
X40960000Y-79951000D01*
X38880000Y-79951000D02*
X36611000Y-79951000D01*
X43200000Y-79991000D02*
X40960000Y-79991000D01*
X38880000Y-79991000D02*
X36640000Y-79991000D01*
X43170000Y-80031000D02*
X40960000Y-80031000D01*
X38880000Y-80031000D02*
X36670000Y-80031000D01*
X43140000Y-80071000D02*
X40960000Y-80071000D01*
X38880000Y-80071000D02*
X36700000Y-80071000D01*
X43109000Y-80111000D02*
X40960000Y-80111000D01*
X38880000Y-80111000D02*
X36731000Y-80111000D01*
X43076000Y-80151000D02*
X40960000Y-80151000D01*
X38880000Y-80151000D02*
X36764000Y-80151000D01*
X43044000Y-80191000D02*
X40960000Y-80191000D01*
X38880000Y-80191000D02*
X36796000Y-80191000D01*
X43010000Y-80231000D02*
X40960000Y-80231000D01*
X38880000Y-80231000D02*
X36830000Y-80231000D01*
X42975000Y-80271000D02*
X40960000Y-80271000D01*
X38880000Y-80271000D02*
X36865000Y-80271000D01*
X42939000Y-80311000D02*
X40960000Y-80311000D01*
X38880000Y-80311000D02*
X36901000Y-80311000D01*
X42903000Y-80351000D02*
X40960000Y-80351000D01*
X38880000Y-80351000D02*
X36937000Y-80351000D01*
X42865000Y-80391000D02*
X40960000Y-80391000D01*
X38880000Y-80391000D02*
X36975000Y-80391000D01*
X42827000Y-80431000D02*
X40960000Y-80431000D01*
X38880000Y-80431000D02*
X37013000Y-80431000D01*
X42787000Y-80471000D02*
X40960000Y-80471000D01*
X38880000Y-80471000D02*
X37053000Y-80471000D01*
X42746000Y-80511000D02*
X37094000Y-80511000D01*
X42704000Y-80551000D02*
X37136000Y-80551000D01*
X42661000Y-80591000D02*
X37179000Y-80591000D01*
X42617000Y-80631000D02*
X37223000Y-80631000D01*
X42571000Y-80671000D02*
X37269000Y-80671000D01*
X42524000Y-80711000D02*
X37316000Y-80711000D01*
X42476000Y-80751000D02*
X37364000Y-80751000D01*
X42425000Y-80791000D02*
X37415000Y-80791000D01*
X42374000Y-80831000D02*
X37466000Y-80831000D01*
X42320000Y-80871000D02*
X37520000Y-80871000D01*
X42265000Y-80911000D02*
X37575000Y-80911000D01*
X42207000Y-80951000D02*
X37633000Y-80951000D01*
X42148000Y-80991000D02*
X37692000Y-80991000D01*
X42086000Y-81031000D02*
X37754000Y-81031000D01*
X42022000Y-81071000D02*
X37818000Y-81071000D01*
X41954000Y-81111000D02*
X37886000Y-81111000D01*
X41884000Y-81151000D02*
X37956000Y-81151000D01*
X41810000Y-81191000D02*
X38030000Y-81191000D01*
X41733000Y-81231000D02*
X38107000Y-81231000D01*
X41651000Y-81271000D02*
X38189000Y-81271000D01*
X41565000Y-81311000D02*
X38275000Y-81311000D01*
X41472000Y-81351000D02*
X38368000Y-81351000D01*
X41373000Y-81391000D02*
X38467000Y-81391000D01*
X41266000Y-81431000D02*
X38574000Y-81431000D01*
X41149000Y-81471000D02*
X38691000Y-81471000D01*
X41018000Y-81511000D02*
X38822000Y-81511000D01*
X40868000Y-81551000D02*
X38972000Y-81551000D01*
X40688000Y-81591000D02*
X39152000Y-81591000D01*
X40453000Y-81631000D02*
X39387000Y-81631000D01*
X44040000Y-77550000D02*
G75*
G03*
X44040000Y-77550000I-4120000J0D01*
G01*
%TO.C,C1*%
X97110302Y-46655000D02*
X97910302Y-46655000D01*
X97510302Y-46255000D02*
X97510302Y-47055000D01*
X101520000Y-44890000D02*
X101520000Y-53050000D01*
X101560000Y-44890000D02*
X101560000Y-53050000D01*
X101600000Y-44890000D02*
X101600000Y-53050000D01*
X101640000Y-44891000D02*
X101640000Y-53049000D01*
X101680000Y-44893000D02*
X101680000Y-53047000D01*
X101720000Y-44894000D02*
X101720000Y-53046000D01*
X101760000Y-44896000D02*
X101760000Y-53044000D01*
X101800000Y-44899000D02*
X101800000Y-53041000D01*
X101840000Y-44902000D02*
X101840000Y-53038000D01*
X101880000Y-44905000D02*
X101880000Y-53035000D01*
X101920000Y-44909000D02*
X101920000Y-53031000D01*
X101960000Y-44913000D02*
X101960000Y-53027000D01*
X102000000Y-44918000D02*
X102000000Y-53022000D01*
X102040000Y-44922000D02*
X102040000Y-53018000D01*
X102080000Y-44928000D02*
X102080000Y-53012000D01*
X102120000Y-44933000D02*
X102120000Y-53007000D01*
X102160000Y-44940000D02*
X102160000Y-53000000D01*
X102200000Y-44946000D02*
X102200000Y-52994000D01*
X102241000Y-44953000D02*
X102241000Y-52987000D01*
X102281000Y-44960000D02*
X102281000Y-52980000D01*
X102321000Y-44968000D02*
X102321000Y-52972000D01*
X102361000Y-44976000D02*
X102361000Y-52964000D01*
X102401000Y-44985000D02*
X102401000Y-47930000D01*
X102401000Y-50010000D02*
X102401000Y-52955000D01*
X102441000Y-44994000D02*
X102441000Y-47930000D01*
X102441000Y-50010000D02*
X102441000Y-52946000D01*
X102481000Y-45003000D02*
X102481000Y-47930000D01*
X102481000Y-50010000D02*
X102481000Y-52937000D01*
X102521000Y-45013000D02*
X102521000Y-47930000D01*
X102521000Y-50010000D02*
X102521000Y-52927000D01*
X102561000Y-45023000D02*
X102561000Y-47930000D01*
X102561000Y-50010000D02*
X102561000Y-52917000D01*
X102601000Y-45034000D02*
X102601000Y-47930000D01*
X102601000Y-50010000D02*
X102601000Y-52906000D01*
X102641000Y-45045000D02*
X102641000Y-47930000D01*
X102641000Y-50010000D02*
X102641000Y-52895000D01*
X102681000Y-45056000D02*
X102681000Y-47930000D01*
X102681000Y-50010000D02*
X102681000Y-52884000D01*
X102721000Y-45068000D02*
X102721000Y-47930000D01*
X102721000Y-50010000D02*
X102721000Y-52872000D01*
X102761000Y-45081000D02*
X102761000Y-47930000D01*
X102761000Y-50010000D02*
X102761000Y-52859000D01*
X102801000Y-45093000D02*
X102801000Y-47930000D01*
X102801000Y-50010000D02*
X102801000Y-52847000D01*
X102841000Y-45107000D02*
X102841000Y-47930000D01*
X102841000Y-50010000D02*
X102841000Y-52833000D01*
X102881000Y-45120000D02*
X102881000Y-47930000D01*
X102881000Y-50010000D02*
X102881000Y-52820000D01*
X102921000Y-45135000D02*
X102921000Y-47930000D01*
X102921000Y-50010000D02*
X102921000Y-52805000D01*
X102961000Y-45149000D02*
X102961000Y-47930000D01*
X102961000Y-50010000D02*
X102961000Y-52791000D01*
X103001000Y-45165000D02*
X103001000Y-47930000D01*
X103001000Y-50010000D02*
X103001000Y-52775000D01*
X103041000Y-45180000D02*
X103041000Y-47930000D01*
X103041000Y-50010000D02*
X103041000Y-52760000D01*
X103081000Y-45196000D02*
X103081000Y-47930000D01*
X103081000Y-50010000D02*
X103081000Y-52744000D01*
X103121000Y-45213000D02*
X103121000Y-47930000D01*
X103121000Y-50010000D02*
X103121000Y-52727000D01*
X103161000Y-45230000D02*
X103161000Y-47930000D01*
X103161000Y-50010000D02*
X103161000Y-52710000D01*
X103201000Y-45248000D02*
X103201000Y-47930000D01*
X103201000Y-50010000D02*
X103201000Y-52692000D01*
X103241000Y-45266000D02*
X103241000Y-47930000D01*
X103241000Y-50010000D02*
X103241000Y-52674000D01*
X103281000Y-45284000D02*
X103281000Y-47930000D01*
X103281000Y-50010000D02*
X103281000Y-52656000D01*
X103321000Y-45304000D02*
X103321000Y-47930000D01*
X103321000Y-50010000D02*
X103321000Y-52636000D01*
X103361000Y-45323000D02*
X103361000Y-47930000D01*
X103361000Y-50010000D02*
X103361000Y-52617000D01*
X103401000Y-45343000D02*
X103401000Y-47930000D01*
X103401000Y-50010000D02*
X103401000Y-52597000D01*
X103441000Y-45364000D02*
X103441000Y-47930000D01*
X103441000Y-50010000D02*
X103441000Y-52576000D01*
X103481000Y-45386000D02*
X103481000Y-47930000D01*
X103481000Y-50010000D02*
X103481000Y-52554000D01*
X103521000Y-45408000D02*
X103521000Y-47930000D01*
X103521000Y-50010000D02*
X103521000Y-52532000D01*
X103561000Y-45430000D02*
X103561000Y-47930000D01*
X103561000Y-50010000D02*
X103561000Y-52510000D01*
X103601000Y-45453000D02*
X103601000Y-47930000D01*
X103601000Y-50010000D02*
X103601000Y-52487000D01*
X103641000Y-45477000D02*
X103641000Y-47930000D01*
X103641000Y-50010000D02*
X103641000Y-52463000D01*
X103681000Y-45501000D02*
X103681000Y-47930000D01*
X103681000Y-50010000D02*
X103681000Y-52439000D01*
X103721000Y-45526000D02*
X103721000Y-47930000D01*
X103721000Y-50010000D02*
X103721000Y-52414000D01*
X103761000Y-45552000D02*
X103761000Y-47930000D01*
X103761000Y-50010000D02*
X103761000Y-52388000D01*
X103801000Y-45578000D02*
X103801000Y-47930000D01*
X103801000Y-50010000D02*
X103801000Y-52362000D01*
X103841000Y-45605000D02*
X103841000Y-47930000D01*
X103841000Y-50010000D02*
X103841000Y-52335000D01*
X103881000Y-45632000D02*
X103881000Y-47930000D01*
X103881000Y-50010000D02*
X103881000Y-52308000D01*
X103921000Y-45661000D02*
X103921000Y-47930000D01*
X103921000Y-50010000D02*
X103921000Y-52279000D01*
X103961000Y-45690000D02*
X103961000Y-47930000D01*
X103961000Y-50010000D02*
X103961000Y-52250000D01*
X104001000Y-45720000D02*
X104001000Y-47930000D01*
X104001000Y-50010000D02*
X104001000Y-52220000D01*
X104041000Y-45750000D02*
X104041000Y-47930000D01*
X104041000Y-50010000D02*
X104041000Y-52190000D01*
X104081000Y-45781000D02*
X104081000Y-47930000D01*
X104081000Y-50010000D02*
X104081000Y-52159000D01*
X104121000Y-45814000D02*
X104121000Y-47930000D01*
X104121000Y-50010000D02*
X104121000Y-52126000D01*
X104161000Y-45846000D02*
X104161000Y-47930000D01*
X104161000Y-50010000D02*
X104161000Y-52094000D01*
X104201000Y-45880000D02*
X104201000Y-47930000D01*
X104201000Y-50010000D02*
X104201000Y-52060000D01*
X104241000Y-45915000D02*
X104241000Y-47930000D01*
X104241000Y-50010000D02*
X104241000Y-52025000D01*
X104281000Y-45951000D02*
X104281000Y-47930000D01*
X104281000Y-50010000D02*
X104281000Y-51989000D01*
X104321000Y-45987000D02*
X104321000Y-47930000D01*
X104321000Y-50010000D02*
X104321000Y-51953000D01*
X104361000Y-46025000D02*
X104361000Y-47930000D01*
X104361000Y-50010000D02*
X104361000Y-51915000D01*
X104401000Y-46063000D02*
X104401000Y-47930000D01*
X104401000Y-50010000D02*
X104401000Y-51877000D01*
X104441000Y-46103000D02*
X104441000Y-47930000D01*
X104441000Y-50010000D02*
X104441000Y-51837000D01*
X104481000Y-46144000D02*
X104481000Y-51796000D01*
X104521000Y-46186000D02*
X104521000Y-51754000D01*
X104561000Y-46229000D02*
X104561000Y-51711000D01*
X104601000Y-46273000D02*
X104601000Y-51667000D01*
X104641000Y-46319000D02*
X104641000Y-51621000D01*
X104681000Y-46366000D02*
X104681000Y-51574000D01*
X104721000Y-46414000D02*
X104721000Y-51526000D01*
X104761000Y-46465000D02*
X104761000Y-51475000D01*
X104801000Y-46516000D02*
X104801000Y-51424000D01*
X104841000Y-46570000D02*
X104841000Y-51370000D01*
X104881000Y-46625000D02*
X104881000Y-51315000D01*
X104921000Y-46683000D02*
X104921000Y-51257000D01*
X104961000Y-46742000D02*
X104961000Y-51198000D01*
X105001000Y-46804000D02*
X105001000Y-51136000D01*
X105041000Y-46868000D02*
X105041000Y-51072000D01*
X105081000Y-46936000D02*
X105081000Y-51004000D01*
X105121000Y-47006000D02*
X105121000Y-50934000D01*
X105161000Y-47080000D02*
X105161000Y-50860000D01*
X105201000Y-47157000D02*
X105201000Y-50783000D01*
X105241000Y-47239000D02*
X105241000Y-50701000D01*
X105281000Y-47325000D02*
X105281000Y-50615000D01*
X105321000Y-47418000D02*
X105321000Y-50522000D01*
X105361000Y-47517000D02*
X105361000Y-50423000D01*
X105401000Y-47624000D02*
X105401000Y-50316000D01*
X105441000Y-47741000D02*
X105441000Y-50199000D01*
X105481000Y-47872000D02*
X105481000Y-50068000D01*
X105521000Y-48022000D02*
X105521000Y-49918000D01*
X105561000Y-48202000D02*
X105561000Y-49738000D01*
X105601000Y-48437000D02*
X105601000Y-49503000D01*
X105640000Y-48970000D02*
G75*
G03*
X105640000Y-48970000I-4120000J0D01*
G01*
%TO.C,SW1*%
X30783000Y-61804000D02*
X31423000Y-61804000D01*
X31423000Y-61804000D02*
X31423000Y-61404000D01*
X24443000Y-61564000D02*
X31183000Y-61564000D01*
X24443000Y-61564000D02*
X24443000Y-55784000D01*
X25563000Y-61564000D02*
X25563000Y-55784000D01*
X30663000Y-61564000D02*
X30663000Y-55784000D01*
X31183000Y-61564000D02*
X31183000Y-55784000D01*
X24443000Y-55784000D02*
X31183000Y-55784000D01*
%TO.C,C6*%
X55700000Y-47800000D02*
X55700000Y-47355000D01*
X55700000Y-47800000D02*
X49460000Y-47800000D01*
X55700000Y-45505000D02*
X55700000Y-45060000D01*
X55700000Y-45060000D02*
X49460000Y-45060000D01*
X49460000Y-47800000D02*
X49460000Y-47355000D01*
X49460000Y-45505000D02*
X49460000Y-45060000D01*
%TD*%
M02*
