%TF.GenerationSoftware,KiCad,Pcbnew,7.0.6*%
%TF.CreationDate,2023-08-14T14:42:54+02:00*%
%TF.ProjectId,ps2_mouse_to_serial_port_adapter_stand_alone,7073325f-6d6f-4757-9365-5f746f5f7365,rev?*%
%TF.SameCoordinates,Original*%
%TF.FileFunction,Copper,L2,Bot*%
%TF.FilePolarity,Positive*%
%FSLAX46Y46*%
G04 Gerber Fmt 4.6, Leading zero omitted, Abs format (unit mm)*
G04 Created by KiCad (PCBNEW 7.0.6) date 2023-08-14 14:42:54*
%MOMM*%
%LPD*%
G01*
G04 APERTURE LIST*
%TA.AperFunction,ComponentPad*%
%ADD10R,1.600000X1.600000*%
%TD*%
%TA.AperFunction,ComponentPad*%
%ADD11C,1.600000*%
%TD*%
%TA.AperFunction,ComponentPad*%
%ADD12R,2.200000X2.200000*%
%TD*%
%TA.AperFunction,ComponentPad*%
%ADD13O,2.200000X2.200000*%
%TD*%
%TA.AperFunction,ComponentPad*%
%ADD14R,1.800000X1.800000*%
%TD*%
%TA.AperFunction,ComponentPad*%
%ADD15C,1.800000*%
%TD*%
%TA.AperFunction,ComponentPad*%
%ADD16O,1.600000X1.600000*%
%TD*%
%TA.AperFunction,ComponentPad*%
%ADD17R,1.500000X1.050000*%
%TD*%
%TA.AperFunction,ComponentPad*%
%ADD18O,1.500000X1.050000*%
%TD*%
%TA.AperFunction,ComponentPad*%
%ADD19C,4.000000*%
%TD*%
%TA.AperFunction,ComponentPad*%
%ADD20R,1.050000X1.500000*%
%TD*%
%TA.AperFunction,ComponentPad*%
%ADD21O,1.050000X1.500000*%
%TD*%
%TA.AperFunction,ComponentPad*%
%ADD22R,1.905000X2.000000*%
%TD*%
%TA.AperFunction,ComponentPad*%
%ADD23O,1.905000X2.000000*%
%TD*%
%TA.AperFunction,ComponentPad*%
%ADD24C,1.371600*%
%TD*%
%TA.AperFunction,ComponentPad*%
%ADD25C,4.000500*%
%TD*%
%TA.AperFunction,ComponentPad*%
%ADD26R,2.000000X4.500000*%
%TD*%
%TA.AperFunction,ComponentPad*%
%ADD27O,2.000000X4.000000*%
%TD*%
%TA.AperFunction,ComponentPad*%
%ADD28O,4.000000X2.000000*%
%TD*%
%TA.AperFunction,ComponentPad*%
%ADD29R,2.100000X2.100000*%
%TD*%
%TA.AperFunction,ComponentPad*%
%ADD30C,2.100000*%
%TD*%
%TA.AperFunction,Conductor*%
%ADD31C,0.800000*%
%TD*%
%TA.AperFunction,Conductor*%
%ADD32C,0.400000*%
%TD*%
%TA.AperFunction,Conductor*%
%ADD33C,0.200000*%
%TD*%
G04 APERTURE END LIST*
D10*
%TO.P,C5,1*%
%TO.N,/+5V*%
X85640000Y-75650000D03*
D11*
%TO.P,C5,2*%
%TO.N,/GND*%
X85640000Y-79450000D03*
%TD*%
D12*
%TO.P,D2,1,K*%
%TO.N,Net-(D2-K)*%
X39920000Y-66750000D03*
D13*
%TO.P,D2,2,A*%
%TO.N,Net-(D2-A)*%
X39920000Y-56590000D03*
%TD*%
D14*
%TO.P,D4,1,K*%
%TO.N,/GND*%
X108500000Y-71830000D03*
D15*
%TO.P,D4,2,A*%
%TO.N,Net-(D4-A)*%
X105960000Y-71830000D03*
%TD*%
D10*
%TO.P,U1,1*%
%TO.N,Net-(A1-D1{slash}TX)*%
X50080000Y-51510000D03*
D16*
%TO.P,U1,2*%
X50080000Y-54050000D03*
%TO.P,U1,3*%
%TO.N,Net-(J2-Pad2)*%
X50080000Y-56590000D03*
%TO.P,U1,4*%
%TO.N,unconnected-(U1-Pad4)*%
X50080000Y-59130000D03*
%TO.P,U1,5*%
%TO.N,unconnected-(U1-Pad5)*%
X50080000Y-61670000D03*
%TO.P,U1,6*%
%TO.N,unconnected-(U1-Pad6)*%
X50080000Y-64210000D03*
%TO.P,U1,7,GND*%
%TO.N,/GND*%
X50080000Y-66750000D03*
%TO.P,U1,8*%
%TO.N,Net-(A1-D7)*%
X57700000Y-66750000D03*
%TO.P,U1,9*%
%TO.N,Net-(Q1-C)*%
X57700000Y-64210000D03*
%TO.P,U1,10*%
X57700000Y-61670000D03*
%TO.P,U1,11*%
%TO.N,unconnected-(U1-Pad11)*%
X57700000Y-59130000D03*
%TO.P,U1,12*%
%TO.N,unconnected-(U1-Pad12)*%
X57700000Y-56590000D03*
%TO.P,U1,13*%
%TO.N,unconnected-(U1-Pad13)*%
X57700000Y-54050000D03*
%TO.P,U1,14,VCC*%
%TO.N,/+5V*%
X57700000Y-51510000D03*
%TD*%
D10*
%TO.P,D1,1,K*%
%TO.N,Net-(D1-K)*%
X39920000Y-21030000D03*
D16*
%TO.P,D1,2,A*%
%TO.N,Net-(D1-A)*%
X39920000Y-28650000D03*
%TD*%
D11*
%TO.P,R1,1*%
%TO.N,Net-(Q1-B)*%
X57700000Y-28650000D03*
D16*
%TO.P,R1,2*%
%TO.N,Net-(U2-VO)*%
X57700000Y-21030000D03*
%TD*%
D11*
%TO.P,C3,1*%
%TO.N,Net-(D2-K)*%
X50080000Y-74370000D03*
%TO.P,C3,2*%
%TO.N,/GND*%
X50080000Y-79370000D03*
%TD*%
%TO.P,R2,1*%
%TO.N,Net-(Q1-B)*%
X50080000Y-28650000D03*
D16*
%TO.P,R2,2*%
%TO.N,/GND*%
X50080000Y-21030000D03*
%TD*%
D14*
%TO.P,D3,1,K*%
%TO.N,/GND*%
X108500000Y-64210000D03*
D15*
%TO.P,D3,2,A*%
%TO.N,Net-(D3-A)*%
X105960000Y-64210000D03*
%TD*%
D17*
%TO.P,U2,1,VO*%
%TO.N,Net-(U2-VO)*%
X45000000Y-23570000D03*
D18*
%TO.P,U2,2,GND*%
%TO.N,/GND*%
X45000000Y-22300000D03*
%TO.P,U2,3,VI*%
%TO.N,Net-(D1-K)*%
X45000000Y-21030000D03*
%TD*%
D11*
%TO.P,R3,1*%
%TO.N,/+5V*%
X57700000Y-36270000D03*
D16*
%TO.P,R3,2*%
%TO.N,Net-(Q1-C)*%
X50080000Y-36270000D03*
%TD*%
D11*
%TO.P,R4,1*%
%TO.N,Net-(A1-D8)*%
X91990000Y-64210000D03*
D16*
%TO.P,R4,2*%
%TO.N,Net-(D3-A)*%
X99610000Y-64210000D03*
%TD*%
D11*
%TO.P,C4,1*%
%TO.N,/+5V*%
X75480000Y-74370000D03*
%TO.P,C4,2*%
%TO.N,/GND*%
X75480000Y-79370000D03*
%TD*%
D19*
%TO.P,J2,0,PAD*%
%TO.N,/GND*%
X30734000Y-50419000D03*
X30734000Y-25419000D03*
D10*
%TO.P,J2,1,1*%
%TO.N,unconnected-(J2-Pad1)*%
X31034000Y-43459000D03*
D11*
%TO.P,J2,2,2*%
%TO.N,Net-(J2-Pad2)*%
X31034000Y-40689000D03*
%TO.P,J2,3,3*%
%TO.N,unconnected-(J2-Pad3)*%
X31034000Y-37919000D03*
%TO.P,J2,4,4*%
%TO.N,unconnected-(J2-Pad4)*%
X31034000Y-35149000D03*
%TO.P,J2,5,5*%
%TO.N,/GND*%
X31034000Y-32379000D03*
%TO.P,J2,6,6*%
%TO.N,unconnected-(J2-Pad6)*%
X28194000Y-42074000D03*
%TO.P,J2,7,7*%
%TO.N,Net-(D1-A)*%
X28194000Y-39304000D03*
%TO.P,J2,8,8*%
%TO.N,unconnected-(J2-Pad8)*%
X28194000Y-36534000D03*
%TO.P,J2,9,9*%
%TO.N,unconnected-(J2-Pad9)*%
X28194000Y-33764000D03*
%TD*%
D20*
%TO.P,Q1,1,C*%
%TO.N,Net-(Q1-C)*%
X46270000Y-36270000D03*
D21*
%TO.P,Q1,2,B*%
%TO.N,Net-(Q1-B)*%
X45000000Y-36270000D03*
%TO.P,Q1,3,E*%
%TO.N,/GND*%
X43730000Y-36270000D03*
%TD*%
D10*
%TO.P,A1,1,D1/TX*%
%TO.N,Net-(A1-D1{slash}TX)*%
X85640000Y-56590000D03*
D16*
%TO.P,A1,2,D0/RX*%
%TO.N,unconnected-(A1-D0{slash}RX-Pad2)*%
X85640000Y-54050000D03*
%TO.P,A1,3,~{RESET}*%
%TO.N,unconnected-(A1-~{RESET}-Pad3)*%
X85640000Y-51510000D03*
%TO.P,A1,4,GND*%
%TO.N,unconnected-(A1-GND-Pad4)*%
X85640000Y-48970000D03*
%TO.P,A1,5,D2*%
%TO.N,Net-(A1-D2)*%
X85640000Y-46430000D03*
%TO.P,A1,6,D3*%
%TO.N,unconnected-(A1-D3-Pad6)*%
X85640000Y-43890000D03*
%TO.P,A1,7,D4*%
%TO.N,unconnected-(A1-D4-Pad7)*%
X85640000Y-41350000D03*
%TO.P,A1,8,D5*%
%TO.N,Net-(A1-D5)*%
X85640000Y-38810000D03*
%TO.P,A1,9,D6*%
%TO.N,unconnected-(A1-D6-Pad9)*%
X85640000Y-36270000D03*
%TO.P,A1,10,D7*%
%TO.N,Net-(A1-D7)*%
X85640000Y-33730000D03*
%TO.P,A1,11,D8*%
%TO.N,Net-(A1-D8)*%
X85640000Y-31190000D03*
%TO.P,A1,12,D9*%
%TO.N,unconnected-(A1-D9-Pad12)*%
X85640000Y-28650000D03*
%TO.P,A1,13,D10*%
%TO.N,unconnected-(A1-D10-Pad13)*%
X85640000Y-26110000D03*
%TO.P,A1,14,D11*%
%TO.N,unconnected-(A1-D11-Pad14)*%
X85640000Y-23570000D03*
%TO.P,A1,15,D12*%
%TO.N,unconnected-(A1-D12-Pad15)*%
X85640000Y-21030000D03*
%TO.P,A1,16,D13*%
%TO.N,unconnected-(A1-D13-Pad16)*%
X70400000Y-21030000D03*
%TO.P,A1,17,3V3*%
%TO.N,unconnected-(A1-3V3-Pad17)*%
X70400000Y-23570000D03*
%TO.P,A1,18,AREF*%
%TO.N,unconnected-(A1-AREF-Pad18)*%
X70400000Y-26110000D03*
%TO.P,A1,19,A0*%
%TO.N,unconnected-(A1-A0-Pad19)*%
X70400000Y-28650000D03*
%TO.P,A1,20,A1*%
%TO.N,unconnected-(A1-A1-Pad20)*%
X70400000Y-31190000D03*
%TO.P,A1,21,A2*%
%TO.N,unconnected-(A1-A2-Pad21)*%
X70400000Y-33730000D03*
%TO.P,A1,22,A3*%
%TO.N,unconnected-(A1-A3-Pad22)*%
X70400000Y-36270000D03*
%TO.P,A1,23,A4*%
%TO.N,unconnected-(A1-A4-Pad23)*%
X70400000Y-38810000D03*
%TO.P,A1,24,A5*%
%TO.N,unconnected-(A1-A5-Pad24)*%
X70400000Y-41350000D03*
%TO.P,A1,25,A6*%
%TO.N,unconnected-(A1-A6-Pad25)*%
X70400000Y-43890000D03*
%TO.P,A1,26,A7*%
%TO.N,unconnected-(A1-A7-Pad26)*%
X70400000Y-46430000D03*
%TO.P,A1,27,+5V*%
%TO.N,unconnected-(A1-+5V-Pad27)*%
X70400000Y-48970000D03*
%TO.P,A1,28,~{RESET}*%
%TO.N,unconnected-(A1-~{RESET}-Pad28)*%
X70400000Y-51510000D03*
%TO.P,A1,29,GND*%
%TO.N,/GND*%
X70400000Y-54050000D03*
%TO.P,A1,30,VIN*%
%TO.N,/+5V*%
X70400000Y-56590000D03*
%TD*%
D11*
%TO.P,R5,1*%
%TO.N,/+5V*%
X91990000Y-71830000D03*
D16*
%TO.P,R5,2*%
%TO.N,Net-(D4-A)*%
X99610000Y-71830000D03*
%TD*%
D22*
%TO.P,U3,1,IN*%
%TO.N,Net-(D2-K)*%
X60240000Y-79450000D03*
D23*
%TO.P,U3,2,GND*%
%TO.N,/GND*%
X62780000Y-79450000D03*
%TO.P,U3,3,OUT*%
%TO.N,/+5V*%
X65320000Y-79450000D03*
%TD*%
D24*
%TO.P,J3,1*%
%TO.N,Net-(A1-D5)*%
X105410000Y-30909260D03*
%TO.P,J3,2*%
%TO.N,unconnected-(J3-Pad2)*%
X105410000Y-33510220D03*
%TO.P,J3,3*%
%TO.N,/GND*%
X105410000Y-28859480D03*
%TO.P,J3,4*%
%TO.N,/+5V*%
X105410000Y-35560000D03*
%TO.P,J3,5*%
%TO.N,Net-(A1-D2)*%
X102918260Y-28859480D03*
%TO.P,J3,6*%
%TO.N,unconnected-(J3-Pad6)*%
X102918260Y-35560000D03*
D25*
%TO.P,J3,GND*%
%TO.N,/GND*%
X108409740Y-25450800D03*
X109220000Y-32209740D03*
X108409740Y-38968680D03*
%TD*%
D26*
%TO.P,J1,1*%
%TO.N,Net-(SW1-A)*%
X33680000Y-68960000D03*
D27*
%TO.P,J1,2*%
%TO.N,/GND*%
X27480000Y-68960000D03*
D28*
%TO.P,J1,3,MountPin*%
%TO.N,unconnected-(J1-MountPin-Pad3)*%
X30480000Y-73660000D03*
%TD*%
D10*
%TO.P,C2,1*%
%TO.N,Net-(D2-K)*%
X39920000Y-75650000D03*
D11*
%TO.P,C2,2*%
%TO.N,/GND*%
X39920000Y-79450000D03*
%TD*%
D10*
%TO.P,C1,1*%
%TO.N,/+5V*%
X99620000Y-48970000D03*
D11*
%TO.P,C1,2*%
%TO.N,/GND*%
X103420000Y-48970000D03*
%TD*%
D29*
%TO.P,SW1,1,A*%
%TO.N,Net-(SW1-A)*%
X27813000Y-59944000D03*
D30*
%TO.P,SW1,2,B*%
%TO.N,Net-(D2-A)*%
X27813000Y-57404000D03*
%TD*%
D11*
%TO.P,C6,1*%
%TO.N,/+5V*%
X55080000Y-46430000D03*
%TO.P,C6,2*%
%TO.N,/GND*%
X50080000Y-46430000D03*
%TD*%
D31*
%TO.N,/GND*%
X108409740Y-25859740D02*
X105410000Y-28859480D01*
X109220000Y-32209740D02*
X109220000Y-26261060D01*
X108409740Y-38968680D02*
X108409740Y-33020000D01*
X103420000Y-43958420D02*
X108409740Y-38968680D01*
%TO.N,Net-(SW1-A)*%
X33680000Y-65811000D02*
X27813000Y-59944000D01*
X33680000Y-68960000D02*
X33680000Y-65811000D01*
D32*
%TO.N,Net-(D1-A)*%
X24680000Y-31190000D02*
X24680000Y-35790000D01*
X27220000Y-28650000D02*
X24680000Y-31190000D01*
X39920000Y-28650000D02*
X27220000Y-28650000D01*
X24680000Y-35790000D02*
X28194000Y-39304000D01*
D31*
%TO.N,/GND*%
X67860000Y-81990000D02*
X70480000Y-79370000D01*
X62780000Y-81990000D02*
X62780000Y-79450000D01*
X39920000Y-79450000D02*
X31444000Y-79450000D01*
X39839000Y-32379000D02*
X31034000Y-32379000D01*
X50080000Y-46430000D02*
X52620000Y-48970000D01*
X85640000Y-79450000D02*
X75560000Y-79450000D01*
X57700000Y-81990000D02*
X62780000Y-81990000D01*
X43730000Y-36270000D02*
X43730000Y-40080000D01*
D33*
X107246500Y-78356500D02*
X107246500Y-78163500D01*
D31*
X108500000Y-54050000D02*
X103420000Y-48970000D01*
X43730000Y-36270000D02*
X39839000Y-32379000D01*
X41910000Y-23840000D02*
X43450000Y-22300000D01*
X85640000Y-79450000D02*
X105960000Y-79450000D01*
X107246500Y-78163500D02*
X108500000Y-76910000D01*
X103420000Y-48970000D02*
X103420000Y-43958420D01*
X55080000Y-79370000D02*
X57700000Y-81990000D01*
X108500000Y-64210000D02*
X108500000Y-71830000D01*
X39839000Y-32379000D02*
X41910000Y-30308000D01*
X48810000Y-22300000D02*
X45000000Y-22300000D01*
X50080000Y-79370000D02*
X55080000Y-79370000D01*
X52620000Y-64210000D02*
X50080000Y-66750000D01*
X50080000Y-21030000D02*
X48810000Y-22300000D01*
X39920000Y-79450000D02*
X50000000Y-79450000D01*
X52620000Y-48970000D02*
X52620000Y-64210000D01*
X27480000Y-75390000D02*
X27480000Y-68960000D01*
X108500000Y-64210000D02*
X108500000Y-54050000D01*
X43450000Y-22300000D02*
X45000000Y-22300000D01*
X31444000Y-79450000D02*
X27432000Y-75438000D01*
X41910000Y-30308000D02*
X41910000Y-23840000D01*
X70480000Y-79370000D02*
X75480000Y-79370000D01*
X105960000Y-79450000D02*
X107246500Y-78163500D01*
X27432000Y-75438000D02*
X27480000Y-75390000D01*
X62780000Y-81990000D02*
X67860000Y-81990000D01*
X108500000Y-76910000D02*
X108500000Y-71830000D01*
X43730000Y-40080000D02*
X50080000Y-46430000D01*
%TO.N,Net-(D2-A)*%
X39920000Y-56590000D02*
X28627000Y-56590000D01*
D33*
X28627000Y-56590000D02*
X27813000Y-57404000D01*
D32*
%TO.N,Net-(Q1-C)*%
X55160000Y-48970000D02*
X55160000Y-59130000D01*
X53020000Y-46830000D02*
X55160000Y-48970000D01*
X57700000Y-61670000D02*
X57700000Y-64210000D01*
X55160000Y-59130000D02*
X57700000Y-61670000D01*
X50080000Y-36270000D02*
X53020000Y-39210000D01*
X50080000Y-36270000D02*
X46270000Y-36270000D01*
X53020000Y-39210000D02*
X53020000Y-46830000D01*
%TO.N,Net-(Q1-B)*%
X57700000Y-28650000D02*
X50080000Y-28650000D01*
X50080000Y-28650000D02*
X45000000Y-33730000D01*
X45000000Y-33730000D02*
X45000000Y-36270000D01*
D31*
%TO.N,Net-(D2-K)*%
X50080000Y-74370000D02*
X55160000Y-74370000D01*
X39920000Y-66750000D02*
X39920000Y-75650000D01*
X55160000Y-74370000D02*
X60240000Y-79450000D01*
X41200000Y-74370000D02*
X39920000Y-75650000D01*
X50080000Y-74370000D02*
X41200000Y-74370000D01*
D32*
%TO.N,Net-(U2-VO)*%
X55160000Y-23570000D02*
X45000000Y-23570000D01*
X57700000Y-21030000D02*
X55160000Y-23570000D01*
%TO.N,Net-(A1-D8)*%
X83100000Y-33730000D02*
X85640000Y-31190000D01*
X91990000Y-64210000D02*
X88180000Y-64210000D01*
X83100000Y-59130000D02*
X83100000Y-33730000D01*
X88180000Y-64210000D02*
X83100000Y-59130000D01*
%TO.N,Net-(D4-A)*%
X99610000Y-71830000D02*
X105960000Y-71830000D01*
D31*
%TO.N,/+5V*%
X75480000Y-74370000D02*
X70400000Y-74370000D01*
X84360000Y-74370000D02*
X85640000Y-75650000D01*
X75480000Y-74370000D02*
X84360000Y-74370000D01*
X75480000Y-61670000D02*
X70400000Y-56590000D01*
X57700000Y-49050000D02*
X55080000Y-46430000D01*
X105410000Y-38100000D02*
X105410000Y-35560000D01*
X57700000Y-51510000D02*
X60240000Y-51510000D01*
X65320000Y-56590000D02*
X70400000Y-56590000D01*
X98340000Y-48970000D02*
X95800000Y-51510000D01*
X99620000Y-43890000D02*
X105410000Y-38100000D01*
X70400000Y-74370000D02*
X65320000Y-79450000D01*
X95800000Y-68020000D02*
X91990000Y-71830000D01*
X57700000Y-43810000D02*
X55080000Y-46430000D01*
X75480000Y-74370000D02*
X75480000Y-61670000D01*
X88170000Y-75650000D02*
X91990000Y-71830000D01*
X99620000Y-48970000D02*
X99620000Y-43890000D01*
X57700000Y-51510000D02*
X57700000Y-49050000D01*
X95800000Y-51510000D02*
X95800000Y-68020000D01*
X60240000Y-51510000D02*
X65320000Y-56590000D01*
X85640000Y-75650000D02*
X88170000Y-75650000D01*
X99620000Y-48970000D02*
X98340000Y-48970000D01*
X57700000Y-36270000D02*
X57700000Y-43810000D01*
D32*
%TO.N,Net-(D1-K)*%
X39920000Y-21030000D02*
X45000000Y-21030000D01*
%TO.N,Net-(J2-Pad2)*%
X31034000Y-40689000D02*
X36371000Y-40689000D01*
X43434000Y-47752000D02*
X43434000Y-52070000D01*
X43434000Y-52070000D02*
X47954000Y-56590000D01*
X47954000Y-56590000D02*
X50080000Y-56590000D01*
X36371000Y-40689000D02*
X43434000Y-47752000D01*
%TO.N,Net-(A1-D2)*%
X91567000Y-33147000D02*
X95854520Y-28859480D01*
X91567000Y-44831000D02*
X91567000Y-33147000D01*
X95854520Y-28859480D02*
X102918260Y-28859480D01*
X89968000Y-46430000D02*
X91567000Y-44831000D01*
X85640000Y-46430000D02*
X89968000Y-46430000D01*
%TO.N,Net-(D3-A)*%
X99610000Y-64210000D02*
X105960000Y-64210000D01*
%TD*%
%TA.AperFunction,Conductor*%
%TO.N,/GND*%
G36*
X112302539Y-14490185D02*
G01*
X112348294Y-14542989D01*
X112359500Y-14594500D01*
X112359500Y-83345500D01*
X112339815Y-83412539D01*
X112287011Y-83458294D01*
X112235500Y-83469500D01*
X23484500Y-83469500D01*
X23417461Y-83449815D01*
X23371706Y-83397011D01*
X23360500Y-83345500D01*
X23360500Y-80787763D01*
X24255787Y-80787763D01*
X24285413Y-81057013D01*
X24285415Y-81057024D01*
X24353926Y-81319082D01*
X24353928Y-81319088D01*
X24459870Y-81568390D01*
X24531998Y-81686575D01*
X24600979Y-81799605D01*
X24600986Y-81799615D01*
X24774253Y-82007819D01*
X24774259Y-82007824D01*
X24975998Y-82188582D01*
X25201910Y-82338044D01*
X25447176Y-82453020D01*
X25447183Y-82453022D01*
X25447185Y-82453023D01*
X25706557Y-82531057D01*
X25706564Y-82531058D01*
X25706569Y-82531060D01*
X25974561Y-82570500D01*
X25974566Y-82570500D01*
X26177636Y-82570500D01*
X26229133Y-82566730D01*
X26380156Y-82555677D01*
X26492758Y-82530593D01*
X26644546Y-82496782D01*
X26644548Y-82496781D01*
X26644553Y-82496780D01*
X26897558Y-82400014D01*
X27133777Y-82267441D01*
X27348177Y-82101888D01*
X27536186Y-81906881D01*
X27693799Y-81686579D01*
X27767787Y-81542669D01*
X27817649Y-81445690D01*
X27817651Y-81445684D01*
X27817656Y-81445675D01*
X27905118Y-81189305D01*
X27954319Y-80922933D01*
X27964212Y-80652235D01*
X27934586Y-80382982D01*
X27866072Y-80120912D01*
X27760130Y-79871610D01*
X27619018Y-79640390D01*
X27615294Y-79635915D01*
X27460577Y-79450002D01*
X38615034Y-79450002D01*
X38634858Y-79676599D01*
X38634860Y-79676610D01*
X38693730Y-79896317D01*
X38693734Y-79896326D01*
X38789865Y-80102481D01*
X38789866Y-80102483D01*
X38840973Y-80175471D01*
X38840974Y-80175472D01*
X39522046Y-79494399D01*
X39534835Y-79575148D01*
X39592359Y-79688045D01*
X39681955Y-79777641D01*
X39794852Y-79835165D01*
X39875599Y-79847953D01*
X39194526Y-80529025D01*
X39194526Y-80529026D01*
X39267512Y-80580131D01*
X39267516Y-80580133D01*
X39473673Y-80676265D01*
X39473682Y-80676269D01*
X39693389Y-80735139D01*
X39693400Y-80735141D01*
X39919998Y-80754966D01*
X39920002Y-80754966D01*
X40146599Y-80735141D01*
X40146610Y-80735139D01*
X40366317Y-80676269D01*
X40366331Y-80676264D01*
X40572478Y-80580136D01*
X40645472Y-80529025D01*
X39964401Y-79847953D01*
X40045148Y-79835165D01*
X40158045Y-79777641D01*
X40247641Y-79688045D01*
X40305165Y-79575148D01*
X40317953Y-79494400D01*
X40999025Y-80175472D01*
X41050136Y-80102478D01*
X41146264Y-79896331D01*
X41146269Y-79896317D01*
X41205139Y-79676610D01*
X41205141Y-79676599D01*
X41224966Y-79450002D01*
X41224966Y-79449997D01*
X41217967Y-79370002D01*
X48775034Y-79370002D01*
X48794858Y-79596599D01*
X48794860Y-79596610D01*
X48853730Y-79816317D01*
X48853734Y-79816326D01*
X48949865Y-80022481D01*
X48949866Y-80022483D01*
X49000973Y-80095471D01*
X49000974Y-80095472D01*
X49682046Y-79414399D01*
X49694835Y-79495148D01*
X49752359Y-79608045D01*
X49841955Y-79697641D01*
X49954852Y-79755165D01*
X50035599Y-79767953D01*
X49354526Y-80449025D01*
X49354526Y-80449026D01*
X49427512Y-80500131D01*
X49427516Y-80500133D01*
X49633673Y-80596265D01*
X49633682Y-80596269D01*
X49853389Y-80655139D01*
X49853400Y-80655141D01*
X50079998Y-80674966D01*
X50080002Y-80674966D01*
X50306599Y-80655141D01*
X50306610Y-80655139D01*
X50526317Y-80596269D01*
X50526331Y-80596264D01*
X50732478Y-80500136D01*
X50805472Y-80449025D01*
X50124401Y-79767953D01*
X50205148Y-79755165D01*
X50318045Y-79697641D01*
X50407641Y-79608045D01*
X50465165Y-79495148D01*
X50477953Y-79414400D01*
X51159025Y-80095472D01*
X51210136Y-80022478D01*
X51306264Y-79816331D01*
X51306269Y-79816317D01*
X51365139Y-79596610D01*
X51365141Y-79596599D01*
X51384966Y-79370002D01*
X51384966Y-79369997D01*
X51365141Y-79143400D01*
X51365139Y-79143389D01*
X51306269Y-78923682D01*
X51306265Y-78923673D01*
X51210133Y-78717516D01*
X51210131Y-78717512D01*
X51159026Y-78644526D01*
X51159025Y-78644526D01*
X50477953Y-79325598D01*
X50465165Y-79244852D01*
X50407641Y-79131955D01*
X50318045Y-79042359D01*
X50205148Y-78984835D01*
X50124400Y-78972046D01*
X50805472Y-78290974D01*
X50805471Y-78290973D01*
X50732483Y-78239866D01*
X50732481Y-78239865D01*
X50526326Y-78143734D01*
X50526317Y-78143730D01*
X50306610Y-78084860D01*
X50306599Y-78084858D01*
X50080002Y-78065034D01*
X50079998Y-78065034D01*
X49853400Y-78084858D01*
X49853389Y-78084860D01*
X49633682Y-78143730D01*
X49633673Y-78143734D01*
X49427513Y-78239868D01*
X49354527Y-78290972D01*
X49354526Y-78290973D01*
X50035600Y-78972046D01*
X49954852Y-78984835D01*
X49841955Y-79042359D01*
X49752359Y-79131955D01*
X49694835Y-79244852D01*
X49682046Y-79325599D01*
X49000973Y-78644526D01*
X49000972Y-78644527D01*
X48949868Y-78717513D01*
X48853734Y-78923673D01*
X48853730Y-78923682D01*
X48794860Y-79143389D01*
X48794858Y-79143400D01*
X48775034Y-79369997D01*
X48775034Y-79370002D01*
X41217967Y-79370002D01*
X41205141Y-79223400D01*
X41205139Y-79223389D01*
X41146269Y-79003682D01*
X41146265Y-79003673D01*
X41050133Y-78797516D01*
X41050131Y-78797512D01*
X40999026Y-78724526D01*
X40999025Y-78724526D01*
X40317953Y-79405598D01*
X40305165Y-79324852D01*
X40247641Y-79211955D01*
X40158045Y-79122359D01*
X40045148Y-79064835D01*
X39964400Y-79052046D01*
X40645472Y-78370974D01*
X40645471Y-78370973D01*
X40572483Y-78319866D01*
X40572481Y-78319865D01*
X40366326Y-78223734D01*
X40366317Y-78223730D01*
X40146610Y-78164860D01*
X40146599Y-78164858D01*
X39920002Y-78145034D01*
X39919998Y-78145034D01*
X39693400Y-78164858D01*
X39693389Y-78164860D01*
X39473682Y-78223730D01*
X39473673Y-78223734D01*
X39267513Y-78319868D01*
X39194527Y-78370972D01*
X39194526Y-78370973D01*
X39875600Y-79052046D01*
X39794852Y-79064835D01*
X39681955Y-79122359D01*
X39592359Y-79211955D01*
X39534835Y-79324852D01*
X39522046Y-79405599D01*
X38840973Y-78724526D01*
X38840972Y-78724527D01*
X38789868Y-78797513D01*
X38693734Y-79003673D01*
X38693730Y-79003682D01*
X38634860Y-79223389D01*
X38634858Y-79223400D01*
X38615034Y-79449997D01*
X38615034Y-79450002D01*
X27460577Y-79450002D01*
X27445746Y-79432180D01*
X27445740Y-79432175D01*
X27244002Y-79251418D01*
X27018092Y-79101957D01*
X27006336Y-79096446D01*
X26772824Y-78986980D01*
X26772819Y-78986978D01*
X26772814Y-78986976D01*
X26513442Y-78908942D01*
X26513428Y-78908939D01*
X26397791Y-78891921D01*
X26245439Y-78869500D01*
X26042369Y-78869500D01*
X26042364Y-78869500D01*
X25839844Y-78884323D01*
X25839831Y-78884325D01*
X25575453Y-78943217D01*
X25575446Y-78943220D01*
X25322439Y-79039987D01*
X25086226Y-79172557D01*
X24871822Y-79338112D01*
X24683822Y-79533109D01*
X24683816Y-79533116D01*
X24526202Y-79753419D01*
X24526199Y-79753424D01*
X24402350Y-79994309D01*
X24402343Y-79994327D01*
X24314884Y-80250685D01*
X24314882Y-80250695D01*
X24269227Y-80497872D01*
X24265681Y-80517068D01*
X24265680Y-80517075D01*
X24255787Y-80787763D01*
X23360500Y-80787763D01*
X23360500Y-73784334D01*
X27979500Y-73784334D01*
X28020429Y-74029616D01*
X28101169Y-74264802D01*
X28101172Y-74264811D01*
X28219524Y-74483506D01*
X28219526Y-74483509D01*
X28372262Y-74679744D01*
X28505214Y-74802135D01*
X28555217Y-74848166D01*
X28763393Y-74984173D01*
X28991118Y-75084063D01*
X29232175Y-75145107D01*
X29232179Y-75145108D01*
X29232181Y-75145108D01*
X29232186Y-75145109D01*
X29365376Y-75156145D01*
X29417933Y-75160500D01*
X29417935Y-75160500D01*
X31542065Y-75160500D01*
X31542067Y-75160500D01*
X31603284Y-75155427D01*
X31727813Y-75145109D01*
X31727816Y-75145108D01*
X31727821Y-75145108D01*
X31968881Y-75084063D01*
X32196607Y-74984173D01*
X32404785Y-74848164D01*
X32587738Y-74679744D01*
X32740474Y-74483509D01*
X32858828Y-74264810D01*
X32939571Y-74029614D01*
X32980500Y-73784335D01*
X32980500Y-73535665D01*
X32939571Y-73290386D01*
X32858828Y-73055190D01*
X32740474Y-72836491D01*
X32587738Y-72640256D01*
X32434129Y-72498849D01*
X32404782Y-72471833D01*
X32196606Y-72335826D01*
X31968881Y-72235936D01*
X31727824Y-72174892D01*
X31727813Y-72174890D01*
X31562548Y-72161197D01*
X31542067Y-72159500D01*
X29417933Y-72159500D01*
X29398521Y-72161108D01*
X29232186Y-72174890D01*
X29232175Y-72174892D01*
X28991118Y-72235936D01*
X28763393Y-72335826D01*
X28555217Y-72471833D01*
X28372261Y-72640257D01*
X28219524Y-72836493D01*
X28101172Y-73055188D01*
X28101169Y-73055197D01*
X28020429Y-73290383D01*
X27979500Y-73535665D01*
X27979500Y-73784334D01*
X23360500Y-73784334D01*
X23360500Y-70022041D01*
X25980000Y-70022041D01*
X25995385Y-70207730D01*
X25995387Y-70207738D01*
X26056412Y-70448717D01*
X26156267Y-70676367D01*
X26292232Y-70884478D01*
X26460592Y-71067364D01*
X26460602Y-71067373D01*
X26656762Y-71220051D01*
X26656771Y-71220057D01*
X26875385Y-71338364D01*
X26875396Y-71338369D01*
X27110507Y-71419083D01*
X27229999Y-71439023D01*
X27229999Y-71439022D01*
X27229999Y-70393686D01*
X27270156Y-70419493D01*
X27408111Y-70460000D01*
X27551889Y-70460000D01*
X27689844Y-70419493D01*
X27730000Y-70393686D01*
X27730000Y-71439023D01*
X27849492Y-71419083D01*
X28084603Y-71338369D01*
X28084614Y-71338364D01*
X28303228Y-71220057D01*
X28303237Y-71220051D01*
X28499397Y-71067373D01*
X28499407Y-71067364D01*
X28667767Y-70884478D01*
X28803732Y-70676367D01*
X28903587Y-70448717D01*
X28964612Y-70207738D01*
X28964614Y-70207730D01*
X28980000Y-70022041D01*
X28980000Y-69210000D01*
X27980000Y-69210000D01*
X27980000Y-68710000D01*
X28980000Y-68710000D01*
X28980000Y-67897959D01*
X28964614Y-67712269D01*
X28964612Y-67712261D01*
X28903587Y-67471282D01*
X28803732Y-67243632D01*
X28667767Y-67035521D01*
X28499407Y-66852635D01*
X28499397Y-66852626D01*
X28303237Y-66699948D01*
X28303228Y-66699942D01*
X28084614Y-66581635D01*
X28084603Y-66581630D01*
X27849492Y-66500916D01*
X27730000Y-66480976D01*
X27730000Y-67526313D01*
X27689844Y-67500507D01*
X27551889Y-67460000D01*
X27408111Y-67460000D01*
X27270156Y-67500507D01*
X27229999Y-67526313D01*
X27230000Y-66480976D01*
X27229999Y-66480976D01*
X27110507Y-66500916D01*
X26875396Y-66581630D01*
X26875385Y-66581635D01*
X26656771Y-66699942D01*
X26656762Y-66699948D01*
X26460602Y-66852626D01*
X26460592Y-66852635D01*
X26292232Y-67035521D01*
X26156267Y-67243632D01*
X26056412Y-67471282D01*
X25995387Y-67712261D01*
X25995385Y-67712269D01*
X25980000Y-67897959D01*
X25980000Y-68710000D01*
X26980000Y-68710000D01*
X26980000Y-69210000D01*
X25980000Y-69210000D01*
X25980000Y-70022041D01*
X23360500Y-70022041D01*
X23360500Y-57404000D01*
X26257706Y-57404000D01*
X26276853Y-57647297D01*
X26276853Y-57647300D01*
X26276854Y-57647302D01*
X26331672Y-57875633D01*
X26333830Y-57884619D01*
X26427222Y-58110089D01*
X26540449Y-58294857D01*
X26558694Y-58362303D01*
X26537578Y-58428905D01*
X26509034Y-58458913D01*
X26405452Y-58536455D01*
X26319206Y-58651664D01*
X26319202Y-58651671D01*
X26268908Y-58786517D01*
X26262501Y-58846116D01*
X26262501Y-58846123D01*
X26262500Y-58846135D01*
X26262500Y-61041870D01*
X26262501Y-61041876D01*
X26268908Y-61101483D01*
X26319202Y-61236328D01*
X26319206Y-61236335D01*
X26405452Y-61351544D01*
X26405455Y-61351547D01*
X26520664Y-61437793D01*
X26520671Y-61437797D01*
X26655517Y-61488091D01*
X26655516Y-61488091D01*
X26662444Y-61488835D01*
X26715127Y-61494500D01*
X28038638Y-61494499D01*
X28105677Y-61514184D01*
X28126319Y-61530818D01*
X32610078Y-66014577D01*
X32643563Y-66075900D01*
X32638579Y-66145592D01*
X32596707Y-66201525D01*
X32565730Y-66218440D01*
X32437671Y-66266202D01*
X32437664Y-66266206D01*
X32322455Y-66352452D01*
X32322452Y-66352455D01*
X32236206Y-66467664D01*
X32236202Y-66467671D01*
X32185908Y-66602517D01*
X32179501Y-66662116D01*
X32179501Y-66662123D01*
X32179500Y-66662135D01*
X32179500Y-71257870D01*
X32179501Y-71257876D01*
X32185908Y-71317483D01*
X32236202Y-71452328D01*
X32236206Y-71452335D01*
X32322452Y-71567544D01*
X32322455Y-71567547D01*
X32437664Y-71653793D01*
X32437671Y-71653797D01*
X32572517Y-71704091D01*
X32572516Y-71704091D01*
X32579444Y-71704835D01*
X32632127Y-71710500D01*
X34727872Y-71710499D01*
X34787483Y-71704091D01*
X34922331Y-71653796D01*
X35037546Y-71567546D01*
X35123796Y-71452331D01*
X35174091Y-71317483D01*
X35180500Y-71257873D01*
X35180499Y-67897870D01*
X38319500Y-67897870D01*
X38319501Y-67897876D01*
X38325908Y-67957483D01*
X38376202Y-68092328D01*
X38376206Y-68092335D01*
X38462452Y-68207544D01*
X38462455Y-68207547D01*
X38577664Y-68293793D01*
X38577671Y-68293797D01*
X38622618Y-68310560D01*
X38712517Y-68344091D01*
X38772127Y-68350500D01*
X38895500Y-68350499D01*
X38962539Y-68370183D01*
X39008294Y-68422987D01*
X39019500Y-68474499D01*
X39019500Y-74267209D01*
X38999815Y-74334248D01*
X38947011Y-74380003D01*
X38938833Y-74383391D01*
X38877671Y-74406202D01*
X38877664Y-74406206D01*
X38762455Y-74492452D01*
X38762452Y-74492455D01*
X38676206Y-74607664D01*
X38676202Y-74607671D01*
X38625908Y-74742517D01*
X38619501Y-74802116D01*
X38619500Y-74802135D01*
X38619500Y-76497870D01*
X38619501Y-76497876D01*
X38625908Y-76557483D01*
X38676202Y-76692328D01*
X38676206Y-76692335D01*
X38762452Y-76807544D01*
X38762455Y-76807547D01*
X38877664Y-76893793D01*
X38877671Y-76893797D01*
X39012517Y-76944091D01*
X39012516Y-76944091D01*
X39019444Y-76944835D01*
X39072127Y-76950500D01*
X40767872Y-76950499D01*
X40827483Y-76944091D01*
X40962331Y-76893796D01*
X41077546Y-76807546D01*
X41163796Y-76692331D01*
X41214091Y-76557483D01*
X41220500Y-76497873D01*
X41220499Y-75674360D01*
X41240183Y-75607322D01*
X41256818Y-75586680D01*
X41536680Y-75306819D01*
X41598003Y-75273334D01*
X41624361Y-75270500D01*
X49089952Y-75270500D01*
X49156991Y-75290185D01*
X49177628Y-75306814D01*
X49240861Y-75370047D01*
X49427266Y-75500568D01*
X49633504Y-75596739D01*
X49853308Y-75655635D01*
X50015230Y-75669801D01*
X50079998Y-75675468D01*
X50080000Y-75675468D01*
X50080002Y-75675468D01*
X50136672Y-75670509D01*
X50306692Y-75655635D01*
X50526496Y-75596739D01*
X50732734Y-75500568D01*
X50919139Y-75370047D01*
X50982368Y-75306817D01*
X51043689Y-75273334D01*
X51070048Y-75270500D01*
X54735639Y-75270500D01*
X54802678Y-75290185D01*
X54823320Y-75306819D01*
X58750681Y-79234181D01*
X58784166Y-79295504D01*
X58787000Y-79321862D01*
X58787000Y-80497870D01*
X58787001Y-80497876D01*
X58793408Y-80557483D01*
X58843702Y-80692328D01*
X58843706Y-80692335D01*
X58929952Y-80807544D01*
X58929955Y-80807547D01*
X59045164Y-80893793D01*
X59045171Y-80893797D01*
X59180017Y-80944091D01*
X59180016Y-80944091D01*
X59186944Y-80944835D01*
X59239627Y-80950500D01*
X61240372Y-80950499D01*
X61299983Y-80944091D01*
X61434831Y-80893796D01*
X61550046Y-80807546D01*
X61636296Y-80692331D01*
X61636297Y-80692328D01*
X61636298Y-80692327D01*
X61647907Y-80661199D01*
X61689776Y-80605264D01*
X61755240Y-80580844D01*
X61823513Y-80595694D01*
X61840252Y-80606675D01*
X61982831Y-80717649D01*
X61982840Y-80717655D01*
X62194531Y-80832215D01*
X62194545Y-80832221D01*
X62422207Y-80910379D01*
X62529999Y-80928366D01*
X62529999Y-79941683D01*
X62558819Y-79959209D01*
X62704404Y-80000000D01*
X62817622Y-80000000D01*
X62929783Y-79984584D01*
X63030000Y-79941053D01*
X63030000Y-80928365D01*
X63137792Y-80910379D01*
X63365454Y-80832221D01*
X63365468Y-80832215D01*
X63577159Y-80717655D01*
X63577168Y-80717649D01*
X63767116Y-80569806D01*
X63767126Y-80569797D01*
X63930154Y-80392702D01*
X63930155Y-80392701D01*
X63945891Y-80368616D01*
X63999036Y-80323258D01*
X64068267Y-80313833D01*
X64131604Y-80343333D01*
X64153510Y-80368614D01*
X64169446Y-80393007D01*
X64169448Y-80393009D01*
X64169449Y-80393010D01*
X64332537Y-80570171D01*
X64488908Y-80691879D01*
X64522017Y-80717649D01*
X64522561Y-80718072D01*
X64651339Y-80787763D01*
X64733478Y-80832215D01*
X64734336Y-80832679D01*
X64852598Y-80873278D01*
X64962083Y-80910865D01*
X64962085Y-80910865D01*
X64962087Y-80910866D01*
X65199601Y-80950500D01*
X65199602Y-80950500D01*
X65440398Y-80950500D01*
X65440399Y-80950500D01*
X65677913Y-80910866D01*
X65905664Y-80832679D01*
X65988661Y-80787763D01*
X107755787Y-80787763D01*
X107785413Y-81057013D01*
X107785415Y-81057024D01*
X107853926Y-81319082D01*
X107853928Y-81319088D01*
X107959870Y-81568390D01*
X108031998Y-81686575D01*
X108100979Y-81799605D01*
X108100986Y-81799615D01*
X108274253Y-82007819D01*
X108274259Y-82007824D01*
X108475998Y-82188582D01*
X108701910Y-82338044D01*
X108947176Y-82453020D01*
X108947183Y-82453022D01*
X108947185Y-82453023D01*
X109206557Y-82531057D01*
X109206564Y-82531058D01*
X109206569Y-82531060D01*
X109474561Y-82570500D01*
X109474566Y-82570500D01*
X109677636Y-82570500D01*
X109729133Y-82566730D01*
X109880156Y-82555677D01*
X109992758Y-82530593D01*
X110144546Y-82496782D01*
X110144548Y-82496781D01*
X110144553Y-82496780D01*
X110397558Y-82400014D01*
X110633777Y-82267441D01*
X110848177Y-82101888D01*
X111036186Y-81906881D01*
X111193799Y-81686579D01*
X111267787Y-81542669D01*
X111317649Y-81445690D01*
X111317651Y-81445684D01*
X111317656Y-81445675D01*
X111405118Y-81189305D01*
X111454319Y-80922933D01*
X111464212Y-80652235D01*
X111434586Y-80382982D01*
X111366072Y-80120912D01*
X111260130Y-79871610D01*
X111119018Y-79640390D01*
X111115294Y-79635915D01*
X110945746Y-79432180D01*
X110945740Y-79432175D01*
X110744002Y-79251418D01*
X110518092Y-79101957D01*
X110506336Y-79096446D01*
X110272824Y-78986980D01*
X110272819Y-78986978D01*
X110272814Y-78986976D01*
X110013442Y-78908942D01*
X110013428Y-78908939D01*
X109897791Y-78891921D01*
X109745439Y-78869500D01*
X109542369Y-78869500D01*
X109542364Y-78869500D01*
X109339844Y-78884323D01*
X109339831Y-78884325D01*
X109075453Y-78943217D01*
X109075446Y-78943220D01*
X108822439Y-79039987D01*
X108586226Y-79172557D01*
X108371822Y-79338112D01*
X108183822Y-79533109D01*
X108183816Y-79533116D01*
X108026202Y-79753419D01*
X108026199Y-79753424D01*
X107902350Y-79994309D01*
X107902343Y-79994327D01*
X107814884Y-80250685D01*
X107814882Y-80250695D01*
X107769227Y-80497872D01*
X107765681Y-80517068D01*
X107765680Y-80517075D01*
X107755787Y-80787763D01*
X65988661Y-80787763D01*
X66117439Y-80718072D01*
X66307463Y-80570171D01*
X66470551Y-80393010D01*
X66602255Y-80191422D01*
X66698983Y-79970905D01*
X66758095Y-79737476D01*
X66773000Y-79557600D01*
X66773000Y-79370002D01*
X74175034Y-79370002D01*
X74194858Y-79596599D01*
X74194860Y-79596610D01*
X74253730Y-79816317D01*
X74253734Y-79816326D01*
X74349865Y-80022481D01*
X74349866Y-80022483D01*
X74400973Y-80095471D01*
X74400974Y-80095472D01*
X75082046Y-79414399D01*
X75094835Y-79495148D01*
X75152359Y-79608045D01*
X75241955Y-79697641D01*
X75354852Y-79755165D01*
X75435599Y-79767953D01*
X74754526Y-80449025D01*
X74754526Y-80449026D01*
X74827512Y-80500131D01*
X74827516Y-80500133D01*
X75033673Y-80596265D01*
X75033682Y-80596269D01*
X75253389Y-80655139D01*
X75253400Y-80655141D01*
X75479998Y-80674966D01*
X75480002Y-80674966D01*
X75706599Y-80655141D01*
X75706610Y-80655139D01*
X75926317Y-80596269D01*
X75926331Y-80596264D01*
X76132478Y-80500136D01*
X76205472Y-80449025D01*
X75524401Y-79767953D01*
X75605148Y-79755165D01*
X75718045Y-79697641D01*
X75807641Y-79608045D01*
X75865165Y-79495148D01*
X75877953Y-79414400D01*
X76559025Y-80095472D01*
X76610136Y-80022478D01*
X76706264Y-79816331D01*
X76706269Y-79816317D01*
X76765139Y-79596610D01*
X76765141Y-79596599D01*
X76777967Y-79450002D01*
X84335034Y-79450002D01*
X84354858Y-79676599D01*
X84354860Y-79676610D01*
X84413730Y-79896317D01*
X84413734Y-79896326D01*
X84509865Y-80102481D01*
X84509866Y-80102483D01*
X84560973Y-80175471D01*
X84560974Y-80175472D01*
X85242046Y-79494399D01*
X85254835Y-79575148D01*
X85312359Y-79688045D01*
X85401955Y-79777641D01*
X85514852Y-79835165D01*
X85595599Y-79847953D01*
X84914526Y-80529025D01*
X84914526Y-80529026D01*
X84987512Y-80580131D01*
X84987516Y-80580133D01*
X85193673Y-80676265D01*
X85193682Y-80676269D01*
X85413389Y-80735139D01*
X85413400Y-80735141D01*
X85639998Y-80754966D01*
X85640002Y-80754966D01*
X85866599Y-80735141D01*
X85866610Y-80735139D01*
X86086317Y-80676269D01*
X86086331Y-80676264D01*
X86292478Y-80580136D01*
X86365472Y-80529025D01*
X85684401Y-79847953D01*
X85765148Y-79835165D01*
X85878045Y-79777641D01*
X85967641Y-79688045D01*
X86025165Y-79575148D01*
X86037953Y-79494400D01*
X86719025Y-80175472D01*
X86770136Y-80102478D01*
X86866264Y-79896331D01*
X86866269Y-79896317D01*
X86925139Y-79676610D01*
X86925141Y-79676599D01*
X86944966Y-79450002D01*
X86944966Y-79449997D01*
X86925141Y-79223400D01*
X86925139Y-79223389D01*
X86866269Y-79003682D01*
X86866265Y-79003673D01*
X86770133Y-78797516D01*
X86770131Y-78797512D01*
X86719026Y-78724526D01*
X86719025Y-78724526D01*
X86037953Y-79405598D01*
X86025165Y-79324852D01*
X85967641Y-79211955D01*
X85878045Y-79122359D01*
X85765148Y-79064835D01*
X85684400Y-79052046D01*
X86365472Y-78370974D01*
X86365471Y-78370973D01*
X86292483Y-78319866D01*
X86292481Y-78319865D01*
X86086326Y-78223734D01*
X86086317Y-78223730D01*
X85866610Y-78164860D01*
X85866599Y-78164858D01*
X85640002Y-78145034D01*
X85639998Y-78145034D01*
X85413400Y-78164858D01*
X85413389Y-78164860D01*
X85193682Y-78223730D01*
X85193673Y-78223734D01*
X84987513Y-78319868D01*
X84914527Y-78370972D01*
X84914526Y-78370973D01*
X85595600Y-79052046D01*
X85514852Y-79064835D01*
X85401955Y-79122359D01*
X85312359Y-79211955D01*
X85254835Y-79324852D01*
X85242046Y-79405599D01*
X84560973Y-78724526D01*
X84560972Y-78724527D01*
X84509868Y-78797513D01*
X84413734Y-79003673D01*
X84413730Y-79003682D01*
X84354860Y-79223389D01*
X84354858Y-79223400D01*
X84335034Y-79449997D01*
X84335034Y-79450002D01*
X76777967Y-79450002D01*
X76784966Y-79370002D01*
X76784966Y-79369997D01*
X76765141Y-79143400D01*
X76765139Y-79143389D01*
X76706269Y-78923682D01*
X76706265Y-78923673D01*
X76610133Y-78717516D01*
X76610131Y-78717512D01*
X76559026Y-78644526D01*
X76559025Y-78644526D01*
X75877953Y-79325598D01*
X75865165Y-79244852D01*
X75807641Y-79131955D01*
X75718045Y-79042359D01*
X75605148Y-78984835D01*
X75524400Y-78972046D01*
X76205472Y-78290974D01*
X76205471Y-78290973D01*
X76132483Y-78239866D01*
X76132481Y-78239865D01*
X75926326Y-78143734D01*
X75926317Y-78143730D01*
X75706610Y-78084860D01*
X75706599Y-78084858D01*
X75480002Y-78065034D01*
X75479998Y-78065034D01*
X75253400Y-78084858D01*
X75253389Y-78084860D01*
X75033682Y-78143730D01*
X75033673Y-78143734D01*
X74827513Y-78239868D01*
X74754527Y-78290972D01*
X74754526Y-78290973D01*
X75435600Y-78972046D01*
X75354852Y-78984835D01*
X75241955Y-79042359D01*
X75152359Y-79131955D01*
X75094835Y-79244852D01*
X75082046Y-79325599D01*
X74400973Y-78644526D01*
X74400972Y-78644527D01*
X74349868Y-78717513D01*
X74253734Y-78923673D01*
X74253730Y-78923682D01*
X74194860Y-79143389D01*
X74194858Y-79143400D01*
X74175034Y-79369997D01*
X74175034Y-79370002D01*
X66773000Y-79370002D01*
X66773000Y-79342400D01*
X66772244Y-79333283D01*
X66786322Y-79264849D01*
X66808136Y-79235362D01*
X70736680Y-75306819D01*
X70798004Y-75273334D01*
X70824362Y-75270500D01*
X74489952Y-75270500D01*
X74556991Y-75290185D01*
X74577628Y-75306814D01*
X74640861Y-75370047D01*
X74827266Y-75500568D01*
X75033504Y-75596739D01*
X75253308Y-75655635D01*
X75415230Y-75669801D01*
X75479998Y-75675468D01*
X75480000Y-75675468D01*
X75480002Y-75675468D01*
X75536673Y-75670509D01*
X75706692Y-75655635D01*
X75926496Y-75596739D01*
X76132734Y-75500568D01*
X76319139Y-75370047D01*
X76382368Y-75306817D01*
X76443689Y-75273334D01*
X76470048Y-75270500D01*
X83935639Y-75270500D01*
X84002678Y-75290185D01*
X84023320Y-75306819D01*
X84303181Y-75586680D01*
X84336666Y-75648003D01*
X84339500Y-75674361D01*
X84339500Y-76497870D01*
X84339501Y-76497876D01*
X84345908Y-76557483D01*
X84396202Y-76692328D01*
X84396206Y-76692335D01*
X84482452Y-76807544D01*
X84482455Y-76807547D01*
X84597664Y-76893793D01*
X84597671Y-76893797D01*
X84732517Y-76944091D01*
X84732516Y-76944091D01*
X84739444Y-76944835D01*
X84792127Y-76950500D01*
X86487872Y-76950499D01*
X86547483Y-76944091D01*
X86682331Y-76893796D01*
X86797546Y-76807546D01*
X86883796Y-76692331D01*
X86906608Y-76631167D01*
X86948480Y-76575233D01*
X87013944Y-76550816D01*
X87022791Y-76550500D01*
X88089373Y-76550500D01*
X88108772Y-76552027D01*
X88122612Y-76554219D01*
X88191959Y-76550584D01*
X88195203Y-76550500D01*
X88217191Y-76550500D01*
X88217192Y-76550500D01*
X88233988Y-76548734D01*
X88239064Y-76548201D01*
X88242284Y-76547947D01*
X88311646Y-76544313D01*
X88325187Y-76540683D01*
X88344313Y-76537138D01*
X88358256Y-76535674D01*
X88424306Y-76514212D01*
X88427368Y-76513304D01*
X88494488Y-76495320D01*
X88506976Y-76488956D01*
X88524950Y-76481510D01*
X88538284Y-76477179D01*
X88598476Y-76442425D01*
X88601222Y-76440934D01*
X88663149Y-76409383D01*
X88674031Y-76400569D01*
X88690083Y-76389537D01*
X88702216Y-76382533D01*
X88753847Y-76336043D01*
X88756260Y-76333982D01*
X88773380Y-76320119D01*
X88788929Y-76304568D01*
X88791270Y-76302347D01*
X88842888Y-76255871D01*
X88851130Y-76244525D01*
X88863760Y-76229737D01*
X91923054Y-73170444D01*
X91984375Y-73136961D01*
X91999916Y-73134600D01*
X92216692Y-73115635D01*
X92436496Y-73056739D01*
X92642734Y-72960568D01*
X92829139Y-72830047D01*
X92990047Y-72669139D01*
X93120568Y-72482734D01*
X93216739Y-72276496D01*
X93275635Y-72056692D01*
X93294599Y-71839924D01*
X93298481Y-71830001D01*
X98304532Y-71830001D01*
X98324364Y-72056686D01*
X98324366Y-72056697D01*
X98383258Y-72276488D01*
X98383261Y-72276497D01*
X98479431Y-72482732D01*
X98479432Y-72482734D01*
X98609954Y-72669141D01*
X98770858Y-72830045D01*
X98770861Y-72830047D01*
X98957266Y-72960568D01*
X99163504Y-73056739D01*
X99383308Y-73115635D01*
X99545230Y-73129801D01*
X99609998Y-73135468D01*
X99610000Y-73135468D01*
X99610002Y-73135468D01*
X99666673Y-73130509D01*
X99836692Y-73115635D01*
X100056496Y-73056739D01*
X100262734Y-72960568D01*
X100449139Y-72830047D01*
X100610047Y-72669139D01*
X100643874Y-72620828D01*
X100670098Y-72583377D01*
X100724675Y-72539752D01*
X100771673Y-72530500D01*
X104677649Y-72530500D01*
X104744688Y-72550185D01*
X104781458Y-72586679D01*
X104851016Y-72693147D01*
X104851019Y-72693151D01*
X104851021Y-72693153D01*
X105008216Y-72863913D01*
X105008219Y-72863915D01*
X105008222Y-72863918D01*
X105191365Y-73006464D01*
X105191371Y-73006468D01*
X105191374Y-73006470D01*
X105395497Y-73116936D01*
X105472179Y-73143261D01*
X105615015Y-73192297D01*
X105615017Y-73192297D01*
X105615019Y-73192298D01*
X105843951Y-73230500D01*
X105843952Y-73230500D01*
X106076048Y-73230500D01*
X106076049Y-73230500D01*
X106304981Y-73192298D01*
X106524503Y-73116936D01*
X106728626Y-73006470D01*
X106911784Y-72863913D01*
X106920511Y-72854432D01*
X106980394Y-72818441D01*
X107050232Y-72820538D01*
X107107850Y-72860060D01*
X107127924Y-72895080D01*
X107156645Y-72972086D01*
X107156649Y-72972093D01*
X107242809Y-73087187D01*
X107242812Y-73087190D01*
X107357906Y-73173350D01*
X107357913Y-73173354D01*
X107492620Y-73223596D01*
X107492627Y-73223598D01*
X107552155Y-73229999D01*
X107552172Y-73230000D01*
X108250000Y-73230000D01*
X108250000Y-72204189D01*
X108302547Y-72240016D01*
X108432173Y-72280000D01*
X108533724Y-72280000D01*
X108634138Y-72264865D01*
X108750000Y-72209068D01*
X108750000Y-73230000D01*
X109447828Y-73230000D01*
X109447844Y-73229999D01*
X109507372Y-73223598D01*
X109507379Y-73223596D01*
X109642086Y-73173354D01*
X109642093Y-73173350D01*
X109757187Y-73087190D01*
X109757190Y-73087187D01*
X109843350Y-72972093D01*
X109843354Y-72972086D01*
X109893596Y-72837379D01*
X109893598Y-72837372D01*
X109899999Y-72777844D01*
X109900000Y-72777827D01*
X109900000Y-72080000D01*
X108875278Y-72080000D01*
X108923625Y-71996260D01*
X108953810Y-71864008D01*
X108943673Y-71728735D01*
X108894113Y-71602459D01*
X108876203Y-71580000D01*
X109899999Y-71580000D01*
X109900000Y-70882172D01*
X109899999Y-70882155D01*
X109893598Y-70822627D01*
X109893596Y-70822620D01*
X109843354Y-70687913D01*
X109843350Y-70687906D01*
X109757190Y-70572812D01*
X109757187Y-70572809D01*
X109642093Y-70486649D01*
X109642086Y-70486645D01*
X109507379Y-70436403D01*
X109507372Y-70436401D01*
X109447844Y-70430000D01*
X108750000Y-70430000D01*
X108750000Y-71455810D01*
X108697453Y-71419984D01*
X108567827Y-71380000D01*
X108466276Y-71380000D01*
X108365862Y-71395135D01*
X108250000Y-71450931D01*
X108250000Y-70430000D01*
X107552155Y-70430000D01*
X107492627Y-70436401D01*
X107492620Y-70436403D01*
X107357913Y-70486645D01*
X107357906Y-70486649D01*
X107242812Y-70572809D01*
X107242809Y-70572812D01*
X107156649Y-70687906D01*
X107156646Y-70687911D01*
X107127924Y-70764920D01*
X107086052Y-70820853D01*
X107020588Y-70845270D01*
X106952315Y-70830418D01*
X106920514Y-70805571D01*
X106911784Y-70796087D01*
X106911779Y-70796083D01*
X106911777Y-70796081D01*
X106728634Y-70653535D01*
X106728628Y-70653531D01*
X106524504Y-70543064D01*
X106524495Y-70543061D01*
X106304984Y-70467702D01*
X106117404Y-70436401D01*
X106076049Y-70429500D01*
X105843951Y-70429500D01*
X105802596Y-70436401D01*
X105615015Y-70467702D01*
X105395504Y-70543061D01*
X105395495Y-70543064D01*
X105191371Y-70653531D01*
X105191365Y-70653535D01*
X105008222Y-70796081D01*
X105008219Y-70796084D01*
X105008216Y-70796086D01*
X105008216Y-70796087D01*
X104983791Y-70822620D01*
X104851016Y-70966852D01*
X104781458Y-71073321D01*
X104728312Y-71118678D01*
X104677649Y-71129500D01*
X100771673Y-71129500D01*
X100704634Y-71109815D01*
X100670098Y-71076623D01*
X100610045Y-70990858D01*
X100449141Y-70829954D01*
X100262734Y-70699432D01*
X100262732Y-70699431D01*
X100056497Y-70603261D01*
X100056488Y-70603258D01*
X99836697Y-70544366D01*
X99836693Y-70544365D01*
X99836692Y-70544365D01*
X99836691Y-70544364D01*
X99836686Y-70544364D01*
X99610002Y-70524532D01*
X99609998Y-70524532D01*
X99383313Y-70544364D01*
X99383302Y-70544366D01*
X99163511Y-70603258D01*
X99163502Y-70603261D01*
X98957267Y-70699431D01*
X98957265Y-70699432D01*
X98770858Y-70829954D01*
X98609954Y-70990858D01*
X98479432Y-71177265D01*
X98479431Y-71177267D01*
X98383261Y-71383502D01*
X98383258Y-71383511D01*
X98324366Y-71603302D01*
X98324364Y-71603313D01*
X98304532Y-71829998D01*
X98304532Y-71830001D01*
X93298481Y-71830001D01*
X93320051Y-71774857D01*
X93330438Y-71763060D01*
X96379742Y-68713756D01*
X96394525Y-68701130D01*
X96405871Y-68692888D01*
X96452339Y-68641278D01*
X96454540Y-68638958D01*
X96470120Y-68623380D01*
X96483975Y-68606268D01*
X96486054Y-68603834D01*
X96532533Y-68552216D01*
X96539537Y-68540083D01*
X96550563Y-68524041D01*
X96559382Y-68513150D01*
X96590914Y-68451263D01*
X96592442Y-68448447D01*
X96627179Y-68388284D01*
X96631509Y-68374956D01*
X96638960Y-68356969D01*
X96645319Y-68344489D01*
X96645320Y-68344488D01*
X96663296Y-68277397D01*
X96664214Y-68274301D01*
X96685674Y-68208256D01*
X96687138Y-68194317D01*
X96690687Y-68175175D01*
X96694313Y-68161645D01*
X96697947Y-68092281D01*
X96698201Y-68089064D01*
X96700499Y-68067199D01*
X96700500Y-68067191D01*
X96700500Y-68045201D01*
X96700585Y-68041956D01*
X96700916Y-68035633D01*
X96704219Y-67972612D01*
X96702027Y-67958772D01*
X96700500Y-67939373D01*
X96700500Y-64210001D01*
X98304532Y-64210001D01*
X98324364Y-64436686D01*
X98324366Y-64436697D01*
X98383258Y-64656488D01*
X98383261Y-64656497D01*
X98479431Y-64862732D01*
X98479432Y-64862734D01*
X98609954Y-65049141D01*
X98770858Y-65210045D01*
X98770861Y-65210047D01*
X98957266Y-65340568D01*
X99163504Y-65436739D01*
X99163509Y-65436740D01*
X99163511Y-65436741D01*
X99216415Y-65450916D01*
X99383308Y-65495635D01*
X99545230Y-65509801D01*
X99609998Y-65515468D01*
X99610000Y-65515468D01*
X99610002Y-65515468D01*
X99666672Y-65510509D01*
X99836692Y-65495635D01*
X100056496Y-65436739D01*
X100262734Y-65340568D01*
X100449139Y-65210047D01*
X100610047Y-65049139D01*
X100643874Y-65000828D01*
X100670098Y-64963377D01*
X100724675Y-64919752D01*
X100771673Y-64910500D01*
X104677649Y-64910500D01*
X104744688Y-64930185D01*
X104781458Y-64966679D01*
X104851016Y-65073147D01*
X104851019Y-65073151D01*
X104851021Y-65073153D01*
X105008216Y-65243913D01*
X105008219Y-65243915D01*
X105008222Y-65243918D01*
X105191365Y-65386464D01*
X105191371Y-65386468D01*
X105191374Y-65386470D01*
X105395497Y-65496936D01*
X105449479Y-65515468D01*
X105615015Y-65572297D01*
X105615017Y-65572297D01*
X105615019Y-65572298D01*
X105843951Y-65610500D01*
X105843952Y-65610500D01*
X106076048Y-65610500D01*
X106076049Y-65610500D01*
X106304981Y-65572298D01*
X106524503Y-65496936D01*
X106728626Y-65386470D01*
X106911784Y-65243913D01*
X106920511Y-65234432D01*
X106980394Y-65198441D01*
X107050232Y-65200538D01*
X107107850Y-65240060D01*
X107127924Y-65275080D01*
X107156645Y-65352086D01*
X107156649Y-65352093D01*
X107242809Y-65467187D01*
X107242812Y-65467190D01*
X107357906Y-65553350D01*
X107357913Y-65553354D01*
X107492620Y-65603596D01*
X107492627Y-65603598D01*
X107552155Y-65609999D01*
X107552172Y-65610000D01*
X108250000Y-65610000D01*
X108250000Y-64584189D01*
X108302547Y-64620016D01*
X108432173Y-64660000D01*
X108533724Y-64660000D01*
X108634138Y-64644865D01*
X108750000Y-64589068D01*
X108750000Y-65610000D01*
X109447828Y-65610000D01*
X109447844Y-65609999D01*
X109507372Y-65603598D01*
X109507379Y-65603596D01*
X109642086Y-65553354D01*
X109642093Y-65553350D01*
X109757187Y-65467190D01*
X109757190Y-65467187D01*
X109843350Y-65352093D01*
X109843354Y-65352086D01*
X109893596Y-65217379D01*
X109893598Y-65217372D01*
X109899999Y-65157844D01*
X109900000Y-65157827D01*
X109900000Y-64460000D01*
X108875278Y-64460000D01*
X108923625Y-64376260D01*
X108953810Y-64244008D01*
X108943673Y-64108735D01*
X108894113Y-63982459D01*
X108876203Y-63960000D01*
X109899999Y-63960000D01*
X109900000Y-63262172D01*
X109899999Y-63262155D01*
X109893598Y-63202627D01*
X109893596Y-63202620D01*
X109843354Y-63067913D01*
X109843350Y-63067906D01*
X109757190Y-62952812D01*
X109757187Y-62952809D01*
X109642093Y-62866649D01*
X109642086Y-62866645D01*
X109507379Y-62816403D01*
X109507372Y-62816401D01*
X109447844Y-62810000D01*
X108750000Y-62810000D01*
X108750000Y-63835810D01*
X108697453Y-63799984D01*
X108567827Y-63760000D01*
X108466276Y-63760000D01*
X108365862Y-63775135D01*
X108250000Y-63830931D01*
X108250000Y-62810000D01*
X107552155Y-62810000D01*
X107492627Y-62816401D01*
X107492620Y-62816403D01*
X107357913Y-62866645D01*
X107357906Y-62866649D01*
X107242812Y-62952809D01*
X107242809Y-62952812D01*
X107156649Y-63067906D01*
X107156646Y-63067911D01*
X107127924Y-63144920D01*
X107086052Y-63200853D01*
X107020588Y-63225270D01*
X106952315Y-63210418D01*
X106920514Y-63185571D01*
X106911784Y-63176087D01*
X106911779Y-63176083D01*
X106911777Y-63176081D01*
X106728634Y-63033535D01*
X106728628Y-63033531D01*
X106524504Y-62923064D01*
X106524495Y-62923061D01*
X106304984Y-62847702D01*
X106117404Y-62816401D01*
X106076049Y-62809500D01*
X105843951Y-62809500D01*
X105802596Y-62816401D01*
X105615015Y-62847702D01*
X105395504Y-62923061D01*
X105395495Y-62923064D01*
X105191371Y-63033531D01*
X105191365Y-63033535D01*
X105008222Y-63176081D01*
X105008219Y-63176084D01*
X105008216Y-63176086D01*
X105008216Y-63176087D01*
X104983791Y-63202620D01*
X104851016Y-63346852D01*
X104781458Y-63453321D01*
X104728312Y-63498678D01*
X104677649Y-63509500D01*
X100771673Y-63509500D01*
X100704634Y-63489815D01*
X100670098Y-63456623D01*
X100610045Y-63370858D01*
X100449141Y-63209954D01*
X100262734Y-63079432D01*
X100262732Y-63079431D01*
X100056497Y-62983261D01*
X100056488Y-62983258D01*
X99836697Y-62924366D01*
X99836693Y-62924365D01*
X99836692Y-62924365D01*
X99836691Y-62924364D01*
X99836686Y-62924364D01*
X99610002Y-62904532D01*
X99609998Y-62904532D01*
X99383313Y-62924364D01*
X99383302Y-62924366D01*
X99163511Y-62983258D01*
X99163502Y-62983261D01*
X98957267Y-63079431D01*
X98957265Y-63079432D01*
X98770858Y-63209954D01*
X98609954Y-63370858D01*
X98479432Y-63557265D01*
X98479431Y-63557267D01*
X98383261Y-63763502D01*
X98383258Y-63763511D01*
X98324366Y-63983302D01*
X98324364Y-63983313D01*
X98304532Y-64209998D01*
X98304532Y-64210001D01*
X96700500Y-64210001D01*
X96700500Y-51934360D01*
X96720185Y-51867321D01*
X96736819Y-51846679D01*
X97541540Y-51041958D01*
X98382760Y-50200737D01*
X98444081Y-50167254D01*
X98513773Y-50172238D01*
X98544750Y-50189153D01*
X98571930Y-50209500D01*
X98577668Y-50213795D01*
X98577671Y-50213797D01*
X98712517Y-50264091D01*
X98712516Y-50264091D01*
X98719444Y-50264835D01*
X98772127Y-50270500D01*
X100467872Y-50270499D01*
X100527483Y-50264091D01*
X100662331Y-50213796D01*
X100777546Y-50127546D01*
X100863796Y-50012331D01*
X100914091Y-49877483D01*
X100920500Y-49817873D01*
X100920500Y-48970002D01*
X102115034Y-48970002D01*
X102134858Y-49196599D01*
X102134860Y-49196610D01*
X102193730Y-49416317D01*
X102193734Y-49416326D01*
X102289865Y-49622481D01*
X102289866Y-49622483D01*
X102340973Y-49695471D01*
X102340974Y-49695472D01*
X103022046Y-49014399D01*
X103034835Y-49095148D01*
X103092359Y-49208045D01*
X103181955Y-49297641D01*
X103294852Y-49355165D01*
X103375599Y-49367953D01*
X102694526Y-50049025D01*
X102694526Y-50049026D01*
X102767512Y-50100131D01*
X102767516Y-50100133D01*
X102973673Y-50196265D01*
X102973682Y-50196269D01*
X103193389Y-50255139D01*
X103193400Y-50255141D01*
X103419998Y-50274966D01*
X103420002Y-50274966D01*
X103646599Y-50255141D01*
X103646610Y-50255139D01*
X103866317Y-50196269D01*
X103866331Y-50196264D01*
X104072478Y-50100136D01*
X104145472Y-50049025D01*
X103464401Y-49367953D01*
X103545148Y-49355165D01*
X103658045Y-49297641D01*
X103747641Y-49208045D01*
X103805165Y-49095148D01*
X103817953Y-49014400D01*
X104499025Y-49695472D01*
X104550136Y-49622478D01*
X104646264Y-49416331D01*
X104646269Y-49416317D01*
X104705139Y-49196610D01*
X104705141Y-49196599D01*
X104724966Y-48970002D01*
X104724966Y-48969997D01*
X104705141Y-48743400D01*
X104705139Y-48743389D01*
X104646269Y-48523682D01*
X104646265Y-48523673D01*
X104550133Y-48317516D01*
X104550131Y-48317512D01*
X104499026Y-48244526D01*
X104499025Y-48244526D01*
X103817953Y-48925598D01*
X103805165Y-48844852D01*
X103747641Y-48731955D01*
X103658045Y-48642359D01*
X103545148Y-48584835D01*
X103464400Y-48572046D01*
X104145472Y-47890974D01*
X104145471Y-47890973D01*
X104072483Y-47839866D01*
X104072481Y-47839865D01*
X103866326Y-47743734D01*
X103866317Y-47743730D01*
X103646610Y-47684860D01*
X103646599Y-47684858D01*
X103420002Y-47665034D01*
X103419998Y-47665034D01*
X103193400Y-47684858D01*
X103193389Y-47684860D01*
X102973682Y-47743730D01*
X102973673Y-47743734D01*
X102767513Y-47839868D01*
X102694527Y-47890972D01*
X102694526Y-47890973D01*
X103375600Y-48572046D01*
X103294852Y-48584835D01*
X103181955Y-48642359D01*
X103092359Y-48731955D01*
X103034835Y-48844852D01*
X103022046Y-48925599D01*
X102340973Y-48244526D01*
X102340972Y-48244527D01*
X102289868Y-48317513D01*
X102193734Y-48523673D01*
X102193730Y-48523682D01*
X102134860Y-48743389D01*
X102134858Y-48743400D01*
X102115034Y-48969997D01*
X102115034Y-48970002D01*
X100920500Y-48970002D01*
X100920499Y-48122128D01*
X100914091Y-48062517D01*
X100906497Y-48042157D01*
X100863797Y-47927671D01*
X100863793Y-47927664D01*
X100777547Y-47812455D01*
X100777544Y-47812452D01*
X100662335Y-47726206D01*
X100662328Y-47726202D01*
X100601167Y-47703391D01*
X100545233Y-47661520D01*
X100520816Y-47596056D01*
X100520500Y-47587209D01*
X100520500Y-44314360D01*
X100540185Y-44247321D01*
X100556814Y-44226684D01*
X105705047Y-39078451D01*
X105766366Y-39044969D01*
X105836058Y-39049953D01*
X105891991Y-39091825D01*
X105916408Y-39157289D01*
X105916479Y-39158349D01*
X105924299Y-39282653D01*
X105924300Y-39282660D01*
X105983253Y-39591700D01*
X106080470Y-39890904D01*
X106080472Y-39890909D01*
X106214420Y-40175562D01*
X106214424Y-40175568D01*
X106382994Y-40441193D01*
X106382996Y-40441196D01*
X106473848Y-40551017D01*
X107442418Y-39582447D01*
X107491663Y-39661980D01*
X107634688Y-39818871D01*
X107793312Y-39938659D01*
X106824533Y-40907438D01*
X106824534Y-40907440D01*
X107067378Y-41083876D01*
X107067396Y-41083887D01*
X107343081Y-41235446D01*
X107343089Y-41235450D01*
X107635589Y-41351259D01*
X107635592Y-41351260D01*
X107940317Y-41429499D01*
X108252428Y-41468929D01*
X108252440Y-41468930D01*
X108567040Y-41468930D01*
X108567051Y-41468929D01*
X108879162Y-41429499D01*
X109183887Y-41351260D01*
X109183890Y-41351259D01*
X109476390Y-41235450D01*
X109476398Y-41235446D01*
X109752083Y-41083887D01*
X109752093Y-41083881D01*
X109994944Y-40907438D01*
X109994945Y-40907438D01*
X109026167Y-39938659D01*
X109184792Y-39818871D01*
X109327817Y-39661980D01*
X109377060Y-39582448D01*
X110345630Y-40551017D01*
X110436482Y-40441197D01*
X110436485Y-40441193D01*
X110605055Y-40175568D01*
X110605059Y-40175562D01*
X110739007Y-39890909D01*
X110739009Y-39890904D01*
X110836226Y-39591700D01*
X110895179Y-39282660D01*
X110895180Y-39282653D01*
X110914933Y-38968685D01*
X110914933Y-38968674D01*
X110895180Y-38654706D01*
X110895179Y-38654699D01*
X110836226Y-38345659D01*
X110739009Y-38046455D01*
X110739007Y-38046450D01*
X110605059Y-37761797D01*
X110605055Y-37761791D01*
X110436487Y-37496169D01*
X110345629Y-37386341D01*
X109377060Y-38354910D01*
X109327817Y-38275380D01*
X109184792Y-38118489D01*
X109026166Y-37998699D01*
X109994945Y-37029920D01*
X109994944Y-37029918D01*
X109752101Y-36853483D01*
X109752083Y-36853472D01*
X109476398Y-36701913D01*
X109476390Y-36701909D01*
X109183890Y-36586100D01*
X109183887Y-36586099D01*
X108879162Y-36507860D01*
X108567051Y-36468430D01*
X108252428Y-36468430D01*
X107940317Y-36507860D01*
X107635592Y-36586099D01*
X107635589Y-36586100D01*
X107343089Y-36701909D01*
X107343081Y-36701913D01*
X107067393Y-36853473D01*
X107067388Y-36853476D01*
X106824534Y-37029919D01*
X106824533Y-37029920D01*
X107793313Y-37998699D01*
X107634688Y-38118489D01*
X107491663Y-38275380D01*
X107442418Y-38354912D01*
X106473847Y-37386341D01*
X106440340Y-37387921D01*
X106372448Y-37371416D01*
X106324257Y-37320826D01*
X106310500Y-37264059D01*
X106310500Y-36377627D01*
X106330185Y-36310588D01*
X106335538Y-36302910D01*
X106422933Y-36187182D01*
X106520931Y-35990377D01*
X106581096Y-35778916D01*
X106601382Y-35560000D01*
X106581096Y-35341084D01*
X106520931Y-35129623D01*
X106520930Y-35129620D01*
X106422936Y-34932823D01*
X106422931Y-34932815D01*
X106368374Y-34860570D01*
X106290442Y-34757371D01*
X106147150Y-34626744D01*
X106110872Y-34567037D01*
X106112632Y-34497189D01*
X106147150Y-34443475D01*
X106290442Y-34312849D01*
X106422933Y-34137402D01*
X106520931Y-33940597D01*
X106581096Y-33729136D01*
X106601382Y-33510220D01*
X106581096Y-33291304D01*
X106520931Y-33079843D01*
X106520930Y-33079840D01*
X106422936Y-32883043D01*
X106422931Y-32883035D01*
X106353571Y-32791188D01*
X106290442Y-32707591D01*
X106127968Y-32559477D01*
X106074237Y-32526208D01*
X105941046Y-32443739D01*
X105941044Y-32443738D01*
X105870282Y-32416325D01*
X105736037Y-32364318D01*
X105561162Y-32331628D01*
X105498883Y-32299961D01*
X105463610Y-32239648D01*
X105464867Y-32209745D01*
X106714807Y-32209745D01*
X106734559Y-32523713D01*
X106734560Y-32523720D01*
X106793513Y-32832760D01*
X106890730Y-33131964D01*
X106890732Y-33131969D01*
X107024680Y-33416622D01*
X107024684Y-33416628D01*
X107193254Y-33682253D01*
X107193256Y-33682256D01*
X107284108Y-33792077D01*
X108252678Y-32823507D01*
X108301923Y-32903040D01*
X108444948Y-33059931D01*
X108603572Y-33179719D01*
X107634793Y-34148498D01*
X107634794Y-34148500D01*
X107877638Y-34324936D01*
X107877656Y-34324947D01*
X108153341Y-34476506D01*
X108153349Y-34476510D01*
X108445849Y-34592319D01*
X108445852Y-34592320D01*
X108750577Y-34670559D01*
X109062688Y-34709989D01*
X109062700Y-34709990D01*
X109377300Y-34709990D01*
X109377311Y-34709989D01*
X109689422Y-34670559D01*
X109994147Y-34592320D01*
X109994150Y-34592319D01*
X110286650Y-34476510D01*
X110286658Y-34476506D01*
X110562343Y-34324947D01*
X110562353Y-34324941D01*
X110805204Y-34148498D01*
X110805205Y-34148498D01*
X109836427Y-33179719D01*
X109995052Y-33059931D01*
X110138077Y-32903040D01*
X110187321Y-32823508D01*
X111155890Y-33792077D01*
X111246742Y-33682257D01*
X111246745Y-33682253D01*
X111415315Y-33416628D01*
X111415319Y-33416622D01*
X111549267Y-33131969D01*
X111549269Y-33131964D01*
X111646486Y-32832760D01*
X111705439Y-32523720D01*
X111705440Y-32523713D01*
X111725193Y-32209745D01*
X111725193Y-32209734D01*
X111705440Y-31895766D01*
X111705439Y-31895759D01*
X111646486Y-31586719D01*
X111549269Y-31287515D01*
X111549267Y-31287510D01*
X111415319Y-31002857D01*
X111415315Y-31002851D01*
X111246747Y-30737229D01*
X111155889Y-30627401D01*
X110187320Y-31595970D01*
X110138077Y-31516440D01*
X109995052Y-31359549D01*
X109836426Y-31239759D01*
X110805205Y-30270980D01*
X110805204Y-30270978D01*
X110562361Y-30094543D01*
X110562343Y-30094532D01*
X110286658Y-29942973D01*
X110286650Y-29942969D01*
X109994150Y-29827160D01*
X109994147Y-29827159D01*
X109689422Y-29748920D01*
X109377311Y-29709490D01*
X109062688Y-29709490D01*
X108750577Y-29748920D01*
X108445852Y-29827159D01*
X108445849Y-29827160D01*
X108153349Y-29942969D01*
X108153341Y-29942973D01*
X107877653Y-30094533D01*
X107877648Y-30094536D01*
X107634794Y-30270979D01*
X107634793Y-30270980D01*
X108603573Y-31239759D01*
X108444948Y-31359549D01*
X108301923Y-31516440D01*
X108252678Y-31595971D01*
X107284108Y-30627401D01*
X107193256Y-30737224D01*
X107193254Y-30737227D01*
X107024684Y-31002851D01*
X107024680Y-31002857D01*
X106890732Y-31287510D01*
X106890730Y-31287515D01*
X106793513Y-31586719D01*
X106734560Y-31895759D01*
X106734559Y-31895766D01*
X106714807Y-32209734D01*
X106714807Y-32209745D01*
X105464867Y-32209745D01*
X105466544Y-32169840D01*
X105506753Y-32112700D01*
X105561162Y-32087851D01*
X105736037Y-32055162D01*
X105941045Y-31975741D01*
X106127968Y-31860003D01*
X106290442Y-31711889D01*
X106422933Y-31536442D01*
X106520931Y-31339637D01*
X106581096Y-31128176D01*
X106601382Y-30909260D01*
X106581096Y-30690344D01*
X106520931Y-30478883D01*
X106520930Y-30478880D01*
X106422936Y-30282083D01*
X106422931Y-30282075D01*
X106353364Y-30189954D01*
X106290442Y-30106631D01*
X106127968Y-29958517D01*
X106113916Y-29949816D01*
X106067282Y-29897788D01*
X106061799Y-29864832D01*
X105493398Y-29296430D01*
X105542499Y-29289030D01*
X105663224Y-29230892D01*
X105761450Y-29139752D01*
X105828447Y-29023708D01*
X105846906Y-28942833D01*
X106408723Y-29504650D01*
X106422506Y-29486398D01*
X106422511Y-29486391D01*
X106520460Y-29289681D01*
X106520461Y-29289680D01*
X106580603Y-29078299D01*
X106600880Y-28859480D01*
X106600880Y-28859479D01*
X106580603Y-28640660D01*
X106520461Y-28429281D01*
X106422506Y-28232561D01*
X106408722Y-28214308D01*
X105849319Y-28773712D01*
X105848251Y-28759452D01*
X105799297Y-28634720D01*
X105715752Y-28529958D01*
X105605040Y-28454476D01*
X105495301Y-28420625D01*
X106053012Y-27862914D01*
X105940821Y-27793448D01*
X105940820Y-27793447D01*
X105735898Y-27714061D01*
X105519879Y-27673680D01*
X105300121Y-27673680D01*
X105084102Y-27714061D01*
X105084101Y-27714061D01*
X104879181Y-27793447D01*
X104879175Y-27793449D01*
X104766987Y-27862913D01*
X104766986Y-27862914D01*
X105326602Y-28422529D01*
X105277501Y-28429930D01*
X105156776Y-28488068D01*
X105058550Y-28579208D01*
X104991553Y-28695252D01*
X104973093Y-28776125D01*
X104411276Y-28214308D01*
X104397494Y-28232559D01*
X104299537Y-28429283D01*
X104299535Y-28429287D01*
X104283655Y-28485100D01*
X104246375Y-28544193D01*
X104183065Y-28573750D01*
X104113826Y-28564388D01*
X104060640Y-28519077D01*
X104045122Y-28485097D01*
X104029191Y-28429102D01*
X104029190Y-28429101D01*
X103931196Y-28232303D01*
X103931191Y-28232295D01*
X103887425Y-28174340D01*
X103798702Y-28056851D01*
X103636228Y-27908737D01*
X103584989Y-27877011D01*
X103449306Y-27792999D01*
X103449304Y-27792998D01*
X103378542Y-27765585D01*
X103244297Y-27713578D01*
X103028187Y-27673180D01*
X102808333Y-27673180D01*
X102592223Y-27713578D01*
X102581919Y-27717570D01*
X102387215Y-27792998D01*
X102387213Y-27792999D01*
X102200296Y-27908734D01*
X102200294Y-27908735D01*
X102200292Y-27908737D01*
X102054148Y-28041964D01*
X102037817Y-28056852D01*
X101997903Y-28109707D01*
X101941794Y-28151343D01*
X101898949Y-28158980D01*
X95877568Y-28158980D01*
X95873823Y-28158867D01*
X95811916Y-28155122D01*
X95811909Y-28155122D01*
X95750906Y-28166301D01*
X95747205Y-28166864D01*
X95685648Y-28174339D01*
X95685641Y-28174341D01*
X95676167Y-28177934D01*
X95654569Y-28183955D01*
X95644588Y-28185785D01*
X95644583Y-28185786D01*
X95588025Y-28211241D01*
X95584566Y-28212673D01*
X95526590Y-28234661D01*
X95526586Y-28234664D01*
X95518243Y-28240422D01*
X95498708Y-28251440D01*
X95489468Y-28255599D01*
X95489459Y-28255604D01*
X95440644Y-28293848D01*
X95437629Y-28296066D01*
X95386588Y-28331298D01*
X95345462Y-28377720D01*
X95342895Y-28380446D01*
X91087966Y-32635375D01*
X91085240Y-32637942D01*
X91038818Y-32679068D01*
X91003586Y-32730109D01*
X91001368Y-32733124D01*
X90963124Y-32781939D01*
X90963119Y-32781948D01*
X90958960Y-32791188D01*
X90947942Y-32810723D01*
X90942187Y-32819061D01*
X90942183Y-32819067D01*
X90942182Y-32819070D01*
X90942180Y-32819074D01*
X90942179Y-32819077D01*
X90920189Y-32877055D01*
X90918757Y-32880513D01*
X90893305Y-32937068D01*
X90891477Y-32947042D01*
X90885453Y-32968653D01*
X90881860Y-32978127D01*
X90881859Y-32978128D01*
X90874384Y-33039685D01*
X90873821Y-33043386D01*
X90862642Y-33104389D01*
X90862642Y-33104394D01*
X90866386Y-33166300D01*
X90866499Y-33170044D01*
X90866499Y-44489481D01*
X90846814Y-44556520D01*
X90830180Y-44577162D01*
X89714162Y-45693181D01*
X89652839Y-45726666D01*
X89626481Y-45729500D01*
X86801673Y-45729500D01*
X86734634Y-45709815D01*
X86700098Y-45676623D01*
X86640045Y-45590858D01*
X86479141Y-45429954D01*
X86292734Y-45299432D01*
X86292728Y-45299429D01*
X86234725Y-45272382D01*
X86182285Y-45226210D01*
X86163133Y-45159017D01*
X86183348Y-45092135D01*
X86234725Y-45047618D01*
X86249061Y-45040933D01*
X86292734Y-45020568D01*
X86479139Y-44890047D01*
X86640047Y-44729139D01*
X86770568Y-44542734D01*
X86866739Y-44336496D01*
X86925635Y-44116692D01*
X86945468Y-43890000D01*
X86944794Y-43882301D01*
X86933112Y-43748771D01*
X86925635Y-43663308D01*
X86871205Y-43460172D01*
X86866741Y-43443511D01*
X86866738Y-43443502D01*
X86826765Y-43357781D01*
X86770568Y-43237266D01*
X86656282Y-43074047D01*
X86640045Y-43050858D01*
X86479141Y-42889954D01*
X86292734Y-42759432D01*
X86292728Y-42759429D01*
X86234725Y-42732382D01*
X86182285Y-42686210D01*
X86163133Y-42619017D01*
X86183348Y-42552135D01*
X86234725Y-42507618D01*
X86292734Y-42480568D01*
X86479139Y-42350047D01*
X86640047Y-42189139D01*
X86770568Y-42002734D01*
X86866739Y-41796496D01*
X86925635Y-41576692D01*
X86945468Y-41350000D01*
X86925635Y-41123308D01*
X86866739Y-40903504D01*
X86770568Y-40697266D01*
X86640047Y-40510861D01*
X86640045Y-40510858D01*
X86479141Y-40349954D01*
X86292734Y-40219432D01*
X86292728Y-40219429D01*
X86234725Y-40192382D01*
X86182285Y-40146210D01*
X86163133Y-40079017D01*
X86183348Y-40012135D01*
X86234725Y-39967618D01*
X86292734Y-39940568D01*
X86479139Y-39810047D01*
X86640047Y-39649139D01*
X86770568Y-39462734D01*
X86866739Y-39256496D01*
X86925635Y-39036692D01*
X86945468Y-38810000D01*
X86925635Y-38583308D01*
X86866739Y-38363504D01*
X86770568Y-38157266D01*
X86640047Y-37970861D01*
X86640045Y-37970858D01*
X86479141Y-37809954D01*
X86292734Y-37679432D01*
X86292728Y-37679429D01*
X86234725Y-37652382D01*
X86182285Y-37606210D01*
X86163133Y-37539017D01*
X86183348Y-37472135D01*
X86234725Y-37427618D01*
X86292734Y-37400568D01*
X86479139Y-37270047D01*
X86640047Y-37109139D01*
X86770568Y-36922734D01*
X86866739Y-36716496D01*
X86925635Y-36496692D01*
X86945468Y-36270000D01*
X86944411Y-36257924D01*
X86939683Y-36203878D01*
X86925635Y-36043308D01*
X86866739Y-35823504D01*
X86770568Y-35617266D01*
X86640047Y-35430861D01*
X86640045Y-35430858D01*
X86479141Y-35269954D01*
X86292734Y-35139432D01*
X86292728Y-35139429D01*
X86234725Y-35112382D01*
X86182285Y-35066210D01*
X86163133Y-34999017D01*
X86183348Y-34932135D01*
X86234725Y-34887618D01*
X86292734Y-34860568D01*
X86479139Y-34730047D01*
X86640047Y-34569139D01*
X86770568Y-34382734D01*
X86866739Y-34176496D01*
X86925635Y-33956692D01*
X86945468Y-33730000D01*
X86945392Y-33729136D01*
X86934555Y-33605264D01*
X86925635Y-33503308D01*
X86875849Y-33317502D01*
X86866741Y-33283511D01*
X86866738Y-33283502D01*
X86866271Y-33282501D01*
X86770568Y-33077266D01*
X86640047Y-32890861D01*
X86640045Y-32890858D01*
X86479141Y-32729954D01*
X86292735Y-32599433D01*
X86292736Y-32599433D01*
X86292734Y-32599432D01*
X86234722Y-32572380D01*
X86182284Y-32526208D01*
X86163133Y-32459014D01*
X86183349Y-32392133D01*
X86234721Y-32347619D01*
X86292734Y-32320568D01*
X86479139Y-32190047D01*
X86640047Y-32029139D01*
X86770568Y-31842734D01*
X86866739Y-31636496D01*
X86925635Y-31416692D01*
X86945468Y-31190000D01*
X86941740Y-31147394D01*
X86934462Y-31064200D01*
X86925635Y-30963308D01*
X86880916Y-30796415D01*
X86866741Y-30743511D01*
X86866738Y-30743502D01*
X86863812Y-30737227D01*
X86770568Y-30537266D01*
X86640047Y-30350861D01*
X86640045Y-30350858D01*
X86479141Y-30189954D01*
X86292734Y-30059432D01*
X86292728Y-30059429D01*
X86234725Y-30032382D01*
X86182285Y-29986210D01*
X86163133Y-29919017D01*
X86183348Y-29852135D01*
X86234725Y-29807618D01*
X86292734Y-29780568D01*
X86479139Y-29650047D01*
X86640047Y-29489139D01*
X86770568Y-29302734D01*
X86866739Y-29096496D01*
X86925635Y-28876692D01*
X86945468Y-28650000D01*
X86944642Y-28640564D01*
X86931041Y-28485097D01*
X86925635Y-28423308D01*
X86875088Y-28234662D01*
X86866741Y-28203511D01*
X86866738Y-28203502D01*
X86853140Y-28174341D01*
X86770568Y-27997266D01*
X86640047Y-27810861D01*
X86640045Y-27810858D01*
X86479141Y-27649954D01*
X86292734Y-27519432D01*
X86292728Y-27519429D01*
X86234725Y-27492382D01*
X86182285Y-27446210D01*
X86163133Y-27379017D01*
X86183348Y-27312135D01*
X86234725Y-27267618D01*
X86292734Y-27240568D01*
X86479139Y-27110047D01*
X86640047Y-26949139D01*
X86770568Y-26762734D01*
X86866739Y-26556496D01*
X86925635Y-26336692D01*
X86945468Y-26110000D01*
X86925635Y-25883308D01*
X86866739Y-25663504D01*
X86770568Y-25457266D01*
X86766044Y-25450805D01*
X105904547Y-25450805D01*
X105924299Y-25764773D01*
X105924300Y-25764780D01*
X105983253Y-26073820D01*
X106080470Y-26373024D01*
X106080472Y-26373029D01*
X106214420Y-26657682D01*
X106214424Y-26657688D01*
X106382994Y-26923313D01*
X106382996Y-26923316D01*
X106473848Y-27033137D01*
X107442418Y-26064567D01*
X107491663Y-26144100D01*
X107634688Y-26300991D01*
X107793312Y-26420779D01*
X106824533Y-27389558D01*
X106824534Y-27389560D01*
X107067378Y-27565996D01*
X107067396Y-27566007D01*
X107343081Y-27717566D01*
X107343089Y-27717570D01*
X107635589Y-27833379D01*
X107635592Y-27833380D01*
X107940317Y-27911619D01*
X108252428Y-27951049D01*
X108252440Y-27951050D01*
X108567040Y-27951050D01*
X108567051Y-27951049D01*
X108879162Y-27911619D01*
X109183887Y-27833380D01*
X109183890Y-27833379D01*
X109476390Y-27717570D01*
X109476398Y-27717566D01*
X109752083Y-27566007D01*
X109752093Y-27566001D01*
X109994944Y-27389558D01*
X109994945Y-27389558D01*
X109026167Y-26420779D01*
X109184792Y-26300991D01*
X109327817Y-26144100D01*
X109377060Y-26064568D01*
X110345630Y-27033137D01*
X110436482Y-26923317D01*
X110436485Y-26923313D01*
X110605055Y-26657688D01*
X110605059Y-26657682D01*
X110739007Y-26373029D01*
X110739009Y-26373024D01*
X110836226Y-26073820D01*
X110895179Y-25764780D01*
X110895180Y-25764773D01*
X110914933Y-25450805D01*
X110914933Y-25450794D01*
X110895180Y-25136826D01*
X110895179Y-25136819D01*
X110836226Y-24827779D01*
X110739009Y-24528575D01*
X110739007Y-24528570D01*
X110605059Y-24243917D01*
X110605055Y-24243911D01*
X110436487Y-23978289D01*
X110345629Y-23868461D01*
X109377060Y-24837030D01*
X109327817Y-24757500D01*
X109184792Y-24600609D01*
X109026166Y-24480819D01*
X109994945Y-23512040D01*
X109994944Y-23512038D01*
X109752101Y-23335603D01*
X109752083Y-23335592D01*
X109476398Y-23184033D01*
X109476390Y-23184029D01*
X109183890Y-23068220D01*
X109183887Y-23068219D01*
X108879162Y-22989980D01*
X108567051Y-22950550D01*
X108252428Y-22950550D01*
X107940317Y-22989980D01*
X107635592Y-23068219D01*
X107635589Y-23068220D01*
X107343089Y-23184029D01*
X107343081Y-23184033D01*
X107067393Y-23335593D01*
X107067388Y-23335596D01*
X106824534Y-23512039D01*
X106824533Y-23512040D01*
X107793313Y-24480819D01*
X107634688Y-24600609D01*
X107491663Y-24757500D01*
X107442418Y-24837031D01*
X106473848Y-23868461D01*
X106382996Y-23978284D01*
X106382994Y-23978287D01*
X106214424Y-24243911D01*
X106214420Y-24243917D01*
X106080472Y-24528570D01*
X106080470Y-24528575D01*
X105983253Y-24827779D01*
X105924300Y-25136819D01*
X105924299Y-25136826D01*
X105904547Y-25450794D01*
X105904547Y-25450805D01*
X86766044Y-25450805D01*
X86640047Y-25270861D01*
X86640045Y-25270858D01*
X86479141Y-25109954D01*
X86292734Y-24979432D01*
X86292728Y-24979429D01*
X86234725Y-24952382D01*
X86182285Y-24906210D01*
X86163133Y-24839017D01*
X86183348Y-24772135D01*
X86234725Y-24727618D01*
X86292734Y-24700568D01*
X86479139Y-24570047D01*
X86640047Y-24409139D01*
X86770568Y-24222734D01*
X86866739Y-24016496D01*
X86925635Y-23796692D01*
X86945468Y-23570000D01*
X86925635Y-23343308D01*
X86866739Y-23123504D01*
X86770568Y-22917266D01*
X86663808Y-22764795D01*
X86640045Y-22730858D01*
X86479141Y-22569954D01*
X86292734Y-22439432D01*
X86292728Y-22439429D01*
X86234725Y-22412382D01*
X86182285Y-22366210D01*
X86163133Y-22299017D01*
X86183348Y-22232135D01*
X86234725Y-22187618D01*
X86292734Y-22160568D01*
X86479139Y-22030047D01*
X86640047Y-21869139D01*
X86770568Y-21682734D01*
X86866739Y-21476496D01*
X86925635Y-21256692D01*
X86945468Y-21030000D01*
X86925635Y-20803308D01*
X86866739Y-20583504D01*
X86770568Y-20377266D01*
X86640047Y-20190861D01*
X86640045Y-20190858D01*
X86479141Y-20029954D01*
X86292734Y-19899432D01*
X86292732Y-19899431D01*
X86086497Y-19803261D01*
X86086488Y-19803258D01*
X85866697Y-19744366D01*
X85866693Y-19744365D01*
X85866692Y-19744365D01*
X85866691Y-19744364D01*
X85866686Y-19744364D01*
X85640002Y-19724532D01*
X85639998Y-19724532D01*
X85413313Y-19744364D01*
X85413302Y-19744366D01*
X85193511Y-19803258D01*
X85193502Y-19803261D01*
X84987267Y-19899431D01*
X84987265Y-19899432D01*
X84800858Y-20029954D01*
X84639954Y-20190858D01*
X84509432Y-20377265D01*
X84509431Y-20377267D01*
X84413261Y-20583502D01*
X84413258Y-20583511D01*
X84354366Y-20803302D01*
X84354364Y-20803313D01*
X84334532Y-21029998D01*
X84334532Y-21030001D01*
X84354364Y-21256686D01*
X84354366Y-21256697D01*
X84413258Y-21476488D01*
X84413261Y-21476497D01*
X84509431Y-21682732D01*
X84509432Y-21682734D01*
X84639954Y-21869141D01*
X84800858Y-22030045D01*
X84800861Y-22030047D01*
X84987266Y-22160568D01*
X85045278Y-22187619D01*
X85097713Y-22233788D01*
X85116866Y-22300982D01*
X85096651Y-22367863D01*
X85045277Y-22412380D01*
X84987268Y-22439430D01*
X84987265Y-22439432D01*
X84800858Y-22569954D01*
X84639954Y-22730858D01*
X84509432Y-22917265D01*
X84509431Y-22917267D01*
X84413261Y-23123502D01*
X84413258Y-23123511D01*
X84354366Y-23343302D01*
X84354364Y-23343313D01*
X84334532Y-23569998D01*
X84334532Y-23570001D01*
X84354364Y-23796686D01*
X84354366Y-23796697D01*
X84413258Y-24016488D01*
X84413261Y-24016497D01*
X84509431Y-24222732D01*
X84509432Y-24222734D01*
X84639954Y-24409141D01*
X84800858Y-24570045D01*
X84837211Y-24595499D01*
X84987266Y-24700568D01*
X85045278Y-24727619D01*
X85097713Y-24773788D01*
X85116866Y-24840982D01*
X85096651Y-24907863D01*
X85045277Y-24952380D01*
X84987268Y-24979430D01*
X84987265Y-24979432D01*
X84800858Y-25109954D01*
X84639954Y-25270858D01*
X84509432Y-25457265D01*
X84509431Y-25457267D01*
X84413261Y-25663502D01*
X84413258Y-25663511D01*
X84354366Y-25883302D01*
X84354364Y-25883313D01*
X84334532Y-26109998D01*
X84334532Y-26110001D01*
X84354364Y-26336686D01*
X84354366Y-26336697D01*
X84413258Y-26556488D01*
X84413261Y-26556497D01*
X84509431Y-26762732D01*
X84509432Y-26762734D01*
X84639954Y-26949141D01*
X84800858Y-27110045D01*
X84800861Y-27110047D01*
X84987266Y-27240568D01*
X85045275Y-27267618D01*
X85097714Y-27313791D01*
X85116866Y-27380984D01*
X85096650Y-27447865D01*
X85045275Y-27492382D01*
X84987267Y-27519431D01*
X84987265Y-27519432D01*
X84800858Y-27649954D01*
X84639954Y-27810858D01*
X84509432Y-27997265D01*
X84509431Y-27997267D01*
X84413261Y-28203502D01*
X84413258Y-28203511D01*
X84354366Y-28423302D01*
X84354364Y-28423313D01*
X84334532Y-28649998D01*
X84334532Y-28650001D01*
X84354364Y-28876686D01*
X84354366Y-28876697D01*
X84413258Y-29096488D01*
X84413261Y-29096497D01*
X84509431Y-29302732D01*
X84509432Y-29302734D01*
X84639954Y-29489141D01*
X84800858Y-29650045D01*
X84800861Y-29650047D01*
X84987266Y-29780568D01*
X85045275Y-29807618D01*
X85097714Y-29853791D01*
X85116866Y-29920984D01*
X85096650Y-29987865D01*
X85045275Y-30032382D01*
X84987267Y-30059431D01*
X84987265Y-30059432D01*
X84800858Y-30189954D01*
X84639954Y-30350858D01*
X84509432Y-30537265D01*
X84509431Y-30537267D01*
X84413261Y-30743502D01*
X84413258Y-30743511D01*
X84354366Y-30963302D01*
X84354364Y-30963313D01*
X84334532Y-31189998D01*
X84334532Y-31190001D01*
X84354819Y-31421881D01*
X84341052Y-31490381D01*
X84318972Y-31520369D01*
X82620966Y-33218375D01*
X82618240Y-33220942D01*
X82571818Y-33262068D01*
X82536586Y-33313109D01*
X82534368Y-33316124D01*
X82496124Y-33364939D01*
X82496119Y-33364948D01*
X82491960Y-33374188D01*
X82480942Y-33393723D01*
X82475187Y-33402061D01*
X82475183Y-33402067D01*
X82475182Y-33402070D01*
X82475180Y-33402074D01*
X82475179Y-33402077D01*
X82453189Y-33460055D01*
X82451757Y-33463513D01*
X82426305Y-33520068D01*
X82424477Y-33530042D01*
X82418453Y-33551653D01*
X82414860Y-33561127D01*
X82414859Y-33561128D01*
X82407384Y-33622685D01*
X82406821Y-33626386D01*
X82395642Y-33687390D01*
X82395642Y-33687395D01*
X82399387Y-33749302D01*
X82399500Y-33753047D01*
X82399500Y-59106951D01*
X82399387Y-59110696D01*
X82395642Y-59172603D01*
X82395642Y-59172605D01*
X82406821Y-59233612D01*
X82407384Y-59237313D01*
X82414859Y-59298870D01*
X82414860Y-59298874D01*
X82418451Y-59308343D01*
X82424474Y-59329946D01*
X82426304Y-59339930D01*
X82451759Y-59396490D01*
X82453189Y-59399941D01*
X82475182Y-59457930D01*
X82475183Y-59457931D01*
X82480936Y-59466266D01*
X82491961Y-59485813D01*
X82496120Y-59495055D01*
X82496124Y-59495060D01*
X82534371Y-59543878D01*
X82536591Y-59546896D01*
X82571812Y-59597924D01*
X82571816Y-59597928D01*
X82571817Y-59597929D01*
X82618250Y-59639064D01*
X82620941Y-59641598D01*
X87668399Y-64689056D01*
X87670935Y-64691750D01*
X87707610Y-64733148D01*
X87712070Y-64738182D01*
X87763106Y-64773410D01*
X87766122Y-64775630D01*
X87792490Y-64796287D01*
X87814943Y-64813878D01*
X87821845Y-64816984D01*
X87824182Y-64818036D01*
X87843733Y-64829063D01*
X87852070Y-64834818D01*
X87910065Y-64856812D01*
X87913474Y-64858223D01*
X87959302Y-64878849D01*
X87970064Y-64883693D01*
X87970065Y-64883693D01*
X87970069Y-64883695D01*
X87980034Y-64885521D01*
X88001656Y-64891548D01*
X88004777Y-64892731D01*
X88011128Y-64895140D01*
X88056251Y-64900618D01*
X88072674Y-64902613D01*
X88076371Y-64903175D01*
X88137394Y-64914358D01*
X88192752Y-64911009D01*
X88199303Y-64910613D01*
X88203048Y-64910500D01*
X90828327Y-64910500D01*
X90895366Y-64930185D01*
X90929902Y-64963377D01*
X90989954Y-65049141D01*
X91150858Y-65210045D01*
X91150861Y-65210047D01*
X91337266Y-65340568D01*
X91543504Y-65436739D01*
X91543509Y-65436740D01*
X91543511Y-65436741D01*
X91596415Y-65450916D01*
X91763308Y-65495635D01*
X91925230Y-65509801D01*
X91989998Y-65515468D01*
X91990000Y-65515468D01*
X91990002Y-65515468D01*
X92046672Y-65510509D01*
X92216692Y-65495635D01*
X92436496Y-65436739D01*
X92642734Y-65340568D01*
X92829139Y-65210047D01*
X92990047Y-65049139D01*
X93120568Y-64862734D01*
X93216739Y-64656496D01*
X93275635Y-64436692D01*
X93295468Y-64210000D01*
X93275635Y-63983308D01*
X93216739Y-63763504D01*
X93120568Y-63557266D01*
X92990047Y-63370861D01*
X92990045Y-63370858D01*
X92829141Y-63209954D01*
X92642734Y-63079432D01*
X92642732Y-63079431D01*
X92436497Y-62983261D01*
X92436488Y-62983258D01*
X92216697Y-62924366D01*
X92216693Y-62924365D01*
X92216692Y-62924365D01*
X92216691Y-62924364D01*
X92216686Y-62924364D01*
X91990002Y-62904532D01*
X91989998Y-62904532D01*
X91763313Y-62924364D01*
X91763302Y-62924366D01*
X91543511Y-62983258D01*
X91543502Y-62983261D01*
X91337267Y-63079431D01*
X91337265Y-63079432D01*
X91150858Y-63209954D01*
X90989954Y-63370858D01*
X90929902Y-63456623D01*
X90875325Y-63500248D01*
X90828327Y-63509500D01*
X88521519Y-63509500D01*
X88454480Y-63489815D01*
X88433838Y-63473181D01*
X83836819Y-58876162D01*
X83803334Y-58814839D01*
X83800500Y-58788481D01*
X83800500Y-34071518D01*
X83820185Y-34004479D01*
X83836815Y-33983841D01*
X84126879Y-33693776D01*
X84188202Y-33660292D01*
X84257894Y-33665276D01*
X84313827Y-33707148D01*
X84338088Y-33770650D01*
X84354364Y-33956687D01*
X84354366Y-33956697D01*
X84413258Y-34176488D01*
X84413261Y-34176497D01*
X84509431Y-34382732D01*
X84509432Y-34382734D01*
X84639954Y-34569141D01*
X84800858Y-34730045D01*
X84800861Y-34730047D01*
X84987266Y-34860568D01*
X85045275Y-34887618D01*
X85097714Y-34933791D01*
X85116866Y-35000984D01*
X85096650Y-35067865D01*
X85045275Y-35112382D01*
X84987267Y-35139431D01*
X84987265Y-35139432D01*
X84800858Y-35269954D01*
X84639954Y-35430858D01*
X84509432Y-35617265D01*
X84509431Y-35617267D01*
X84413261Y-35823502D01*
X84413258Y-35823511D01*
X84354366Y-36043302D01*
X84354364Y-36043313D01*
X84334532Y-36269998D01*
X84334532Y-36270001D01*
X84354364Y-36496686D01*
X84354366Y-36496697D01*
X84413258Y-36716488D01*
X84413261Y-36716497D01*
X84509431Y-36922732D01*
X84509432Y-36922734D01*
X84639954Y-37109141D01*
X84800858Y-37270045D01*
X84800861Y-37270047D01*
X84987266Y-37400568D01*
X85029427Y-37420228D01*
X85045275Y-37427618D01*
X85097714Y-37473791D01*
X85116866Y-37540984D01*
X85096650Y-37607865D01*
X85045275Y-37652382D01*
X84987267Y-37679431D01*
X84987265Y-37679432D01*
X84800858Y-37809954D01*
X84639954Y-37970858D01*
X84509432Y-38157265D01*
X84509431Y-38157267D01*
X84413261Y-38363502D01*
X84413258Y-38363511D01*
X84354366Y-38583302D01*
X84354364Y-38583313D01*
X84334532Y-38809998D01*
X84334532Y-38810001D01*
X84354364Y-39036686D01*
X84354366Y-39036697D01*
X84413258Y-39256488D01*
X84413261Y-39256497D01*
X84509431Y-39462732D01*
X84509432Y-39462734D01*
X84639954Y-39649141D01*
X84800858Y-39810045D01*
X84800861Y-39810047D01*
X84987266Y-39940568D01*
X85045275Y-39967618D01*
X85097714Y-40013791D01*
X85116866Y-40080984D01*
X85096650Y-40147865D01*
X85045275Y-40192382D01*
X84987267Y-40219431D01*
X84987265Y-40219432D01*
X84800858Y-40349954D01*
X84639954Y-40510858D01*
X84509432Y-40697265D01*
X84509431Y-40697267D01*
X84413261Y-40903502D01*
X84413258Y-40903511D01*
X84354366Y-41123302D01*
X84354364Y-41123313D01*
X84334532Y-41349998D01*
X84334532Y-41350001D01*
X84354364Y-41576686D01*
X84354366Y-41576697D01*
X84413258Y-41796488D01*
X84413261Y-41796497D01*
X84509431Y-42002732D01*
X84509432Y-42002734D01*
X84639954Y-42189141D01*
X84800858Y-42350045D01*
X84800861Y-42350047D01*
X84987266Y-42480568D01*
X85045278Y-42507619D01*
X85097713Y-42553788D01*
X85116866Y-42620982D01*
X85096651Y-42687863D01*
X85045277Y-42732380D01*
X84987268Y-42759430D01*
X84987265Y-42759432D01*
X84800858Y-42889954D01*
X84639954Y-43050858D01*
X84509432Y-43237265D01*
X84509431Y-43237267D01*
X84413261Y-43443502D01*
X84413258Y-43443511D01*
X84354366Y-43663302D01*
X84354364Y-43663313D01*
X84334532Y-43889998D01*
X84334532Y-43890001D01*
X84354364Y-44116686D01*
X84354366Y-44116697D01*
X84413258Y-44336488D01*
X84413261Y-44336497D01*
X84509431Y-44542732D01*
X84509432Y-44542734D01*
X84639954Y-44729141D01*
X84800858Y-44890045D01*
X84800861Y-44890047D01*
X84987266Y-45020568D01*
X85030939Y-45040933D01*
X85045275Y-45047618D01*
X85097714Y-45093791D01*
X85116866Y-45160984D01*
X85096650Y-45227865D01*
X85045275Y-45272382D01*
X84987267Y-45299431D01*
X84987265Y-45299432D01*
X84800858Y-45429954D01*
X84639954Y-45590858D01*
X84509432Y-45777265D01*
X84509431Y-45777267D01*
X84413261Y-45983502D01*
X84413258Y-45983511D01*
X84354366Y-46203302D01*
X84354364Y-46203313D01*
X84334532Y-46429998D01*
X84334532Y-46430001D01*
X84354364Y-46656686D01*
X84354366Y-46656697D01*
X84413258Y-46876488D01*
X84413261Y-46876497D01*
X84509431Y-47082732D01*
X84509432Y-47082734D01*
X84639954Y-47269141D01*
X84800858Y-47430045D01*
X84800861Y-47430047D01*
X84987266Y-47560568D01*
X85045275Y-47587618D01*
X85097714Y-47633791D01*
X85116866Y-47700984D01*
X85096650Y-47767865D01*
X85045275Y-47812381D01*
X85045118Y-47812455D01*
X84987267Y-47839431D01*
X84987265Y-47839432D01*
X84800858Y-47969954D01*
X84639954Y-48130858D01*
X84509432Y-48317265D01*
X84509431Y-48317267D01*
X84413261Y-48523502D01*
X84413258Y-48523511D01*
X84354366Y-48743302D01*
X84354364Y-48743313D01*
X84334532Y-48969998D01*
X84334532Y-48970001D01*
X84354364Y-49196686D01*
X84354366Y-49196697D01*
X84413258Y-49416488D01*
X84413261Y-49416497D01*
X84509431Y-49622732D01*
X84509432Y-49622734D01*
X84639954Y-49809141D01*
X84800858Y-49970045D01*
X84800861Y-49970047D01*
X84987266Y-50100568D01*
X85045275Y-50127618D01*
X85097714Y-50173791D01*
X85116866Y-50240984D01*
X85096650Y-50307865D01*
X85045275Y-50352381D01*
X85045118Y-50352455D01*
X84987267Y-50379431D01*
X84987265Y-50379432D01*
X84800858Y-50509954D01*
X84639954Y-50670858D01*
X84509432Y-50857265D01*
X84509431Y-50857267D01*
X84413261Y-51063502D01*
X84413258Y-51063511D01*
X84354366Y-51283302D01*
X84354364Y-51283313D01*
X84334532Y-51509998D01*
X84334532Y-51510001D01*
X84354364Y-51736686D01*
X84354366Y-51736697D01*
X84413258Y-51956488D01*
X84413261Y-51956497D01*
X84509431Y-52162732D01*
X84509432Y-52162734D01*
X84639954Y-52349141D01*
X84800858Y-52510045D01*
X84800861Y-52510047D01*
X84987266Y-52640568D01*
X85045275Y-52667618D01*
X85097714Y-52713791D01*
X85116866Y-52780984D01*
X85096650Y-52847865D01*
X85045275Y-52892382D01*
X84987267Y-52919431D01*
X84987265Y-52919432D01*
X84800858Y-53049954D01*
X84639954Y-53210858D01*
X84509432Y-53397265D01*
X84509431Y-53397267D01*
X84413261Y-53603502D01*
X84413258Y-53603511D01*
X84354366Y-53823302D01*
X84354364Y-53823313D01*
X84334532Y-54049998D01*
X84334532Y-54050001D01*
X84354364Y-54276686D01*
X84354366Y-54276697D01*
X84413258Y-54496488D01*
X84413261Y-54496497D01*
X84509431Y-54702732D01*
X84509432Y-54702734D01*
X84639954Y-54889141D01*
X84800858Y-55050045D01*
X84825462Y-55067273D01*
X84869087Y-55121849D01*
X84876281Y-55191348D01*
X84844758Y-55253703D01*
X84784529Y-55289117D01*
X84767593Y-55292138D01*
X84732516Y-55295908D01*
X84597671Y-55346202D01*
X84597664Y-55346206D01*
X84482455Y-55432452D01*
X84482452Y-55432455D01*
X84396206Y-55547664D01*
X84396202Y-55547671D01*
X84345908Y-55682517D01*
X84339501Y-55742116D01*
X84339501Y-55742123D01*
X84339500Y-55742135D01*
X84339500Y-57437870D01*
X84339501Y-57437876D01*
X84345908Y-57497483D01*
X84396202Y-57632328D01*
X84396206Y-57632335D01*
X84482452Y-57747544D01*
X84482455Y-57747547D01*
X84597664Y-57833793D01*
X84597671Y-57833797D01*
X84732517Y-57884091D01*
X84732516Y-57884091D01*
X84737363Y-57884612D01*
X84792127Y-57890500D01*
X86487872Y-57890499D01*
X86547483Y-57884091D01*
X86682331Y-57833796D01*
X86797546Y-57747546D01*
X86883796Y-57632331D01*
X86934091Y-57497483D01*
X86940500Y-57437873D01*
X86940499Y-55742128D01*
X86934091Y-55682517D01*
X86929353Y-55669815D01*
X86883797Y-55547671D01*
X86883793Y-55547664D01*
X86797547Y-55432455D01*
X86797544Y-55432452D01*
X86682335Y-55346206D01*
X86682328Y-55346202D01*
X86547482Y-55295908D01*
X86547483Y-55295908D01*
X86512404Y-55292137D01*
X86447853Y-55265399D01*
X86408005Y-55208006D01*
X86405512Y-55138181D01*
X86441165Y-55078092D01*
X86454539Y-55067272D01*
X86479140Y-55050046D01*
X86640045Y-54889141D01*
X86640044Y-54889141D01*
X86640047Y-54889139D01*
X86770568Y-54702734D01*
X86866739Y-54496496D01*
X86925635Y-54276692D01*
X86945468Y-54050000D01*
X86925635Y-53823308D01*
X86866739Y-53603504D01*
X86770568Y-53397266D01*
X86640047Y-53210861D01*
X86640045Y-53210858D01*
X86479141Y-53049954D01*
X86292735Y-52919433D01*
X86292736Y-52919433D01*
X86292734Y-52919432D01*
X86234722Y-52892380D01*
X86182284Y-52846208D01*
X86163133Y-52779014D01*
X86183349Y-52712133D01*
X86234721Y-52667619D01*
X86292734Y-52640568D01*
X86479139Y-52510047D01*
X86640047Y-52349139D01*
X86770568Y-52162734D01*
X86866739Y-51956496D01*
X86925635Y-51736692D01*
X86945468Y-51510000D01*
X86925635Y-51283308D01*
X86871205Y-51080172D01*
X86866741Y-51063511D01*
X86866738Y-51063502D01*
X86804608Y-50930265D01*
X86770568Y-50857266D01*
X86648421Y-50682820D01*
X86640045Y-50670858D01*
X86479141Y-50509954D01*
X86292734Y-50379432D01*
X86292728Y-50379429D01*
X86234882Y-50352455D01*
X86234724Y-50352381D01*
X86182285Y-50306210D01*
X86163133Y-50239017D01*
X86183348Y-50172135D01*
X86234725Y-50127618D01*
X86292734Y-50100568D01*
X86479139Y-49970047D01*
X86640047Y-49809139D01*
X86770568Y-49622734D01*
X86866739Y-49416496D01*
X86925635Y-49196692D01*
X86945468Y-48970000D01*
X86941740Y-48927394D01*
X86932257Y-48819000D01*
X86925635Y-48743308D01*
X86866739Y-48523504D01*
X86770568Y-48317266D01*
X86648421Y-48142820D01*
X86640045Y-48130858D01*
X86479141Y-47969954D01*
X86292734Y-47839432D01*
X86292728Y-47839429D01*
X86234882Y-47812455D01*
X86234724Y-47812381D01*
X86182285Y-47766210D01*
X86163133Y-47699017D01*
X86183348Y-47632135D01*
X86234725Y-47587618D01*
X86292734Y-47560568D01*
X86479139Y-47430047D01*
X86640047Y-47269139D01*
X86691917Y-47195060D01*
X86700098Y-47183377D01*
X86754675Y-47139752D01*
X86801673Y-47130500D01*
X89944952Y-47130500D01*
X89948697Y-47130613D01*
X89956042Y-47131057D01*
X90010606Y-47134358D01*
X90048314Y-47127447D01*
X90071621Y-47123177D01*
X90075325Y-47122613D01*
X90093170Y-47120446D01*
X90136872Y-47115140D01*
X90146335Y-47111550D01*
X90167961Y-47105522D01*
X90168893Y-47105351D01*
X90177932Y-47103695D01*
X90234512Y-47078229D01*
X90237942Y-47076809D01*
X90295930Y-47054818D01*
X90304266Y-47049062D01*
X90323821Y-47038034D01*
X90333057Y-47033878D01*
X90381896Y-46995613D01*
X90384876Y-46993421D01*
X90435929Y-46958183D01*
X90477065Y-46911748D01*
X90479599Y-46909056D01*
X92046048Y-45342606D01*
X92048740Y-45340072D01*
X92095183Y-45298929D01*
X92130423Y-45247872D01*
X92132630Y-45244873D01*
X92170877Y-45196057D01*
X92175029Y-45186828D01*
X92186062Y-45167268D01*
X92191079Y-45160000D01*
X92191818Y-45158930D01*
X92213812Y-45100933D01*
X92215231Y-45097505D01*
X92240694Y-45040932D01*
X92242520Y-45030965D01*
X92248548Y-45009340D01*
X92252140Y-44999872D01*
X92259615Y-44938309D01*
X92260179Y-44934605D01*
X92264456Y-44911258D01*
X92271357Y-44873606D01*
X92267613Y-44811707D01*
X92267500Y-44807963D01*
X92267500Y-33488519D01*
X92287185Y-33421480D01*
X92303819Y-33400838D01*
X96108358Y-29596299D01*
X96169681Y-29562814D01*
X96196039Y-29559980D01*
X101898949Y-29559980D01*
X101965988Y-29579665D01*
X101997903Y-29609253D01*
X102037818Y-29662109D01*
X102200292Y-29810223D01*
X102288855Y-29865059D01*
X102377587Y-29920000D01*
X102387215Y-29925961D01*
X102592223Y-30005382D01*
X102808333Y-30045780D01*
X102808335Y-30045780D01*
X103028185Y-30045780D01*
X103028187Y-30045780D01*
X103244297Y-30005382D01*
X103449305Y-29925961D01*
X103636228Y-29810223D01*
X103798702Y-29662109D01*
X103931193Y-29486662D01*
X104029191Y-29289857D01*
X104045123Y-29233859D01*
X104082400Y-29174768D01*
X104145709Y-29145209D01*
X104214949Y-29154570D01*
X104268136Y-29199879D01*
X104283655Y-29233859D01*
X104299535Y-29289672D01*
X104299537Y-29289676D01*
X104397489Y-29486391D01*
X104397497Y-29486404D01*
X104411275Y-29504649D01*
X104970680Y-28945246D01*
X104971749Y-28959508D01*
X105020703Y-29084240D01*
X105104248Y-29189002D01*
X105214960Y-29264484D01*
X105324698Y-29298334D01*
X104757972Y-29865059D01*
X104752148Y-29898964D01*
X104706086Y-29949813D01*
X104692038Y-29958511D01*
X104692031Y-29958517D01*
X104529559Y-30106628D01*
X104397068Y-30282075D01*
X104397063Y-30282083D01*
X104299069Y-30478880D01*
X104238903Y-30690346D01*
X104218618Y-30909259D01*
X104238903Y-31128173D01*
X104299069Y-31339639D01*
X104397063Y-31536436D01*
X104397068Y-31536444D01*
X104435034Y-31586719D01*
X104529558Y-31711889D01*
X104692032Y-31860003D01*
X104809398Y-31932673D01*
X104843919Y-31954048D01*
X104878955Y-31975741D01*
X105083963Y-32055162D01*
X105258835Y-32087851D01*
X105321116Y-32119519D01*
X105356389Y-32179832D01*
X105353455Y-32249640D01*
X105313246Y-32306780D01*
X105258836Y-32331628D01*
X105083963Y-32364318D01*
X105026719Y-32386494D01*
X104878955Y-32443738D01*
X104878953Y-32443739D01*
X104692036Y-32559474D01*
X104692034Y-32559475D01*
X104692032Y-32559477D01*
X104560843Y-32679071D01*
X104529557Y-32707592D01*
X104397068Y-32883035D01*
X104397063Y-32883043D01*
X104299069Y-33079840D01*
X104238903Y-33291306D01*
X104218618Y-33510219D01*
X104238903Y-33729133D01*
X104299069Y-33940599D01*
X104397063Y-34137396D01*
X104397068Y-34137404D01*
X104529559Y-34312851D01*
X104672845Y-34443473D01*
X104709127Y-34503184D01*
X104707366Y-34573032D01*
X104672845Y-34626747D01*
X104529559Y-34757368D01*
X104397068Y-34932815D01*
X104397063Y-34932823D01*
X104299069Y-35129621D01*
X104299067Y-35129625D01*
X104283395Y-35184707D01*
X104246115Y-35243800D01*
X104182805Y-35273357D01*
X104113566Y-35263995D01*
X104060380Y-35218684D01*
X104044863Y-35184707D01*
X104029191Y-35129623D01*
X103989400Y-35049712D01*
X103931196Y-34932823D01*
X103931191Y-34932815D01*
X103876634Y-34860570D01*
X103798702Y-34757371D01*
X103636228Y-34609257D01*
X103571439Y-34569141D01*
X103449306Y-34493519D01*
X103449304Y-34493518D01*
X103378542Y-34466105D01*
X103244297Y-34414098D01*
X103028187Y-34373700D01*
X102808333Y-34373700D01*
X102592223Y-34414098D01*
X102534979Y-34436274D01*
X102387215Y-34493518D01*
X102387213Y-34493519D01*
X102200296Y-34609254D01*
X102200294Y-34609255D01*
X102200292Y-34609257D01*
X102067791Y-34730047D01*
X102037817Y-34757372D01*
X101905328Y-34932815D01*
X101905323Y-34932823D01*
X101807329Y-35129620D01*
X101747163Y-35341086D01*
X101726878Y-35560000D01*
X101747163Y-35778913D01*
X101807329Y-35990379D01*
X101905323Y-36187176D01*
X101905328Y-36187184D01*
X101917935Y-36203878D01*
X102037818Y-36362629D01*
X102200292Y-36510743D01*
X102256228Y-36545377D01*
X102366301Y-36613532D01*
X102387215Y-36626481D01*
X102592223Y-36705902D01*
X102808333Y-36746300D01*
X102808335Y-36746300D01*
X103028185Y-36746300D01*
X103028187Y-36746300D01*
X103244297Y-36705902D01*
X103449305Y-36626481D01*
X103636228Y-36510743D01*
X103798702Y-36362629D01*
X103931193Y-36187182D01*
X104029191Y-35990377D01*
X104029828Y-35988141D01*
X104038155Y-35958870D01*
X104044863Y-35935294D01*
X104082140Y-35876201D01*
X104145449Y-35846642D01*
X104214688Y-35856003D01*
X104267876Y-35901311D01*
X104283395Y-35935292D01*
X104299067Y-35990374D01*
X104299069Y-35990378D01*
X104397063Y-36187176D01*
X104397068Y-36187184D01*
X104484453Y-36302900D01*
X104509145Y-36368262D01*
X104509499Y-36377627D01*
X104509499Y-37675637D01*
X104489814Y-37742676D01*
X104473180Y-37763318D01*
X99040263Y-43196236D01*
X99025474Y-43208869D01*
X99014126Y-43217114D01*
X98967666Y-43268713D01*
X98965435Y-43271065D01*
X98949890Y-43286610D01*
X98949875Y-43286627D01*
X98936039Y-43303710D01*
X98933936Y-43306172D01*
X98887469Y-43357781D01*
X98887466Y-43357785D01*
X98880458Y-43369923D01*
X98869444Y-43385948D01*
X98860626Y-43396837D01*
X98860616Y-43396853D01*
X98829082Y-43458740D01*
X98827533Y-43461592D01*
X98792821Y-43521713D01*
X98788487Y-43535053D01*
X98781045Y-43553020D01*
X98774680Y-43565512D01*
X98756706Y-43632584D01*
X98755785Y-43635692D01*
X98734326Y-43701742D01*
X98734325Y-43701745D01*
X98732860Y-43715686D01*
X98729315Y-43734812D01*
X98725686Y-43748352D01*
X98722051Y-43817710D01*
X98721797Y-43820941D01*
X98719500Y-43842810D01*
X98719500Y-43864797D01*
X98719415Y-43868040D01*
X98718753Y-43880672D01*
X98715781Y-43937387D01*
X98717973Y-43951225D01*
X98719500Y-43970626D01*
X98719500Y-47587209D01*
X98699815Y-47654248D01*
X98647011Y-47700003D01*
X98638833Y-47703391D01*
X98577671Y-47726202D01*
X98577664Y-47726206D01*
X98462455Y-47812452D01*
X98462452Y-47812455D01*
X98376206Y-47927664D01*
X98376203Y-47927669D01*
X98351876Y-47992894D01*
X98310004Y-48048827D01*
X98244540Y-48073244D01*
X98242186Y-48073390D01*
X98198356Y-48075687D01*
X98184809Y-48079317D01*
X98165686Y-48082860D01*
X98151745Y-48084325D01*
X98151743Y-48084325D01*
X98085702Y-48105784D01*
X98082590Y-48106705D01*
X98015517Y-48124677D01*
X98015503Y-48124683D01*
X98003022Y-48131043D01*
X97985049Y-48138488D01*
X97971715Y-48142820D01*
X97911592Y-48177533D01*
X97908740Y-48179082D01*
X97846853Y-48210616D01*
X97846837Y-48210626D01*
X97835948Y-48219444D01*
X97819923Y-48230458D01*
X97807785Y-48237466D01*
X97807781Y-48237469D01*
X97756172Y-48283936D01*
X97753710Y-48286039D01*
X97736627Y-48299875D01*
X97736610Y-48299890D01*
X97721065Y-48315435D01*
X97718713Y-48317666D01*
X97667114Y-48364126D01*
X97658869Y-48375474D01*
X97646236Y-48390263D01*
X95220263Y-50816236D01*
X95205474Y-50828869D01*
X95194126Y-50837114D01*
X95147666Y-50888713D01*
X95145435Y-50891065D01*
X95129890Y-50906610D01*
X95129875Y-50906627D01*
X95116039Y-50923710D01*
X95113936Y-50926172D01*
X95067469Y-50977781D01*
X95067466Y-50977785D01*
X95060458Y-50989923D01*
X95049444Y-51005948D01*
X95040626Y-51016837D01*
X95040616Y-51016853D01*
X95009082Y-51078740D01*
X95007533Y-51081592D01*
X94972821Y-51141713D01*
X94968487Y-51155053D01*
X94961045Y-51173020D01*
X94954680Y-51185512D01*
X94936706Y-51252584D01*
X94935785Y-51255692D01*
X94914326Y-51321742D01*
X94914325Y-51321745D01*
X94912860Y-51335686D01*
X94909315Y-51354812D01*
X94905686Y-51368352D01*
X94902051Y-51437710D01*
X94901797Y-51440941D01*
X94899500Y-51462810D01*
X94899500Y-51484797D01*
X94899415Y-51488042D01*
X94895781Y-51557387D01*
X94897973Y-51571225D01*
X94899500Y-51590626D01*
X94899500Y-67595637D01*
X94879815Y-67662676D01*
X94863181Y-67683318D01*
X92056945Y-70489553D01*
X91995622Y-70523038D01*
X91980072Y-70525400D01*
X91763312Y-70544364D01*
X91763302Y-70544366D01*
X91543511Y-70603258D01*
X91543502Y-70603261D01*
X91337267Y-70699431D01*
X91337265Y-70699432D01*
X91150858Y-70829954D01*
X90989954Y-70990858D01*
X90859432Y-71177265D01*
X90859431Y-71177267D01*
X90763261Y-71383502D01*
X90763258Y-71383511D01*
X90704366Y-71603302D01*
X90704364Y-71603312D01*
X90685400Y-71820072D01*
X90659947Y-71885140D01*
X90649553Y-71896945D01*
X87833320Y-74713181D01*
X87771997Y-74746666D01*
X87745639Y-74749500D01*
X87022791Y-74749500D01*
X86955752Y-74729815D01*
X86909997Y-74677011D01*
X86906609Y-74668833D01*
X86883797Y-74607671D01*
X86883793Y-74607664D01*
X86797547Y-74492455D01*
X86797544Y-74492452D01*
X86682335Y-74406206D01*
X86682328Y-74406202D01*
X86547482Y-74355908D01*
X86547483Y-74355908D01*
X86487883Y-74349501D01*
X86487881Y-74349500D01*
X86487873Y-74349500D01*
X86487865Y-74349500D01*
X85664361Y-74349500D01*
X85597322Y-74329815D01*
X85576680Y-74313181D01*
X85053764Y-73790265D01*
X85041126Y-73775468D01*
X85032887Y-73764128D01*
X84981277Y-73717657D01*
X84978922Y-73715423D01*
X84963382Y-73699882D01*
X84946295Y-73686043D01*
X84943831Y-73683939D01*
X84892220Y-73637470D01*
X84892213Y-73637465D01*
X84880070Y-73630454D01*
X84864043Y-73619438D01*
X84853153Y-73610620D01*
X84853151Y-73610619D01*
X84853149Y-73610617D01*
X84834259Y-73600992D01*
X84791266Y-73579085D01*
X84788414Y-73577537D01*
X84728282Y-73542820D01*
X84714949Y-73538488D01*
X84696978Y-73531043D01*
X84684498Y-73524684D01*
X84684486Y-73524679D01*
X84617409Y-73506705D01*
X84614309Y-73505787D01*
X84548256Y-73484326D01*
X84548251Y-73484325D01*
X84548249Y-73484325D01*
X84534314Y-73482860D01*
X84515189Y-73479315D01*
X84501653Y-73475688D01*
X84501643Y-73475686D01*
X84432290Y-73472051D01*
X84429059Y-73471797D01*
X84414537Y-73470271D01*
X84407192Y-73469500D01*
X84407189Y-73469500D01*
X84385203Y-73469500D01*
X84381959Y-73469415D01*
X84312612Y-73465781D01*
X84312611Y-73465781D01*
X84298772Y-73467973D01*
X84279373Y-73469500D01*
X76504500Y-73469500D01*
X76437461Y-73449815D01*
X76391706Y-73397011D01*
X76380500Y-73345500D01*
X76380500Y-61750626D01*
X76382027Y-61731225D01*
X76384219Y-61717388D01*
X76380584Y-61648040D01*
X76380500Y-61644797D01*
X76380500Y-61622809D01*
X76380499Y-61622800D01*
X76378201Y-61600936D01*
X76377947Y-61597720D01*
X76374313Y-61528355D01*
X76370685Y-61514814D01*
X76367139Y-61495688D01*
X76365674Y-61481744D01*
X76344209Y-61415682D01*
X76343296Y-61412601D01*
X76325320Y-61345512D01*
X76318956Y-61333022D01*
X76311511Y-61315050D01*
X76307179Y-61301716D01*
X76272453Y-61241569D01*
X76270903Y-61238714D01*
X76263152Y-61223502D01*
X76239383Y-61176851D01*
X76230557Y-61165952D01*
X76219540Y-61149920D01*
X76217065Y-61145633D01*
X76212533Y-61137784D01*
X76179847Y-61101483D01*
X76166058Y-61086168D01*
X76163964Y-61083716D01*
X76150120Y-61066620D01*
X76134568Y-61051068D01*
X76132348Y-61048730D01*
X76085871Y-60997112D01*
X76085869Y-60997110D01*
X76074529Y-60988871D01*
X76059736Y-60976236D01*
X71740446Y-56656946D01*
X71706961Y-56595623D01*
X71704599Y-56580072D01*
X71685635Y-56363308D01*
X71640916Y-56196415D01*
X71626741Y-56143511D01*
X71626738Y-56143502D01*
X71568319Y-56018223D01*
X71530568Y-55937266D01*
X71400047Y-55750861D01*
X71400045Y-55750858D01*
X71239141Y-55589954D01*
X71052734Y-55459432D01*
X71052732Y-55459431D01*
X71041275Y-55454088D01*
X70994132Y-55432105D01*
X70941694Y-55385934D01*
X70922542Y-55318740D01*
X70942758Y-55251859D01*
X70994134Y-55207341D01*
X71052484Y-55180132D01*
X71238820Y-55049657D01*
X71399657Y-54888820D01*
X71530134Y-54702482D01*
X71626265Y-54496326D01*
X71626269Y-54496317D01*
X71678872Y-54300000D01*
X70833686Y-54300000D01*
X70859493Y-54259844D01*
X70900000Y-54121889D01*
X70900000Y-53978111D01*
X70859493Y-53840156D01*
X70833686Y-53800000D01*
X71678872Y-53800000D01*
X71678872Y-53799999D01*
X71626269Y-53603682D01*
X71626265Y-53603673D01*
X71530134Y-53397517D01*
X71399657Y-53211179D01*
X71238820Y-53050342D01*
X71052482Y-52919865D01*
X70994133Y-52892657D01*
X70941694Y-52846484D01*
X70922542Y-52779291D01*
X70942758Y-52712410D01*
X70994129Y-52667895D01*
X71052734Y-52640568D01*
X71239139Y-52510047D01*
X71400047Y-52349139D01*
X71530568Y-52162734D01*
X71626739Y-51956496D01*
X71685635Y-51736692D01*
X71705468Y-51510000D01*
X71685635Y-51283308D01*
X71631205Y-51080172D01*
X71626741Y-51063511D01*
X71626738Y-51063502D01*
X71564608Y-50930265D01*
X71530568Y-50857266D01*
X71408421Y-50682820D01*
X71400045Y-50670858D01*
X71239141Y-50509954D01*
X71052734Y-50379432D01*
X71052728Y-50379429D01*
X70994882Y-50352455D01*
X70994724Y-50352381D01*
X70942285Y-50306210D01*
X70923133Y-50239017D01*
X70943348Y-50172135D01*
X70994725Y-50127618D01*
X71052734Y-50100568D01*
X71239139Y-49970047D01*
X71400047Y-49809139D01*
X71530568Y-49622734D01*
X71626739Y-49416496D01*
X71685635Y-49196692D01*
X71705468Y-48970000D01*
X71701740Y-48927394D01*
X71692257Y-48819000D01*
X71685635Y-48743308D01*
X71626739Y-48523504D01*
X71530568Y-48317266D01*
X71408421Y-48142820D01*
X71400045Y-48130858D01*
X71239141Y-47969954D01*
X71052734Y-47839432D01*
X71052728Y-47839429D01*
X70994882Y-47812455D01*
X70994724Y-47812381D01*
X70942285Y-47766210D01*
X70923133Y-47699017D01*
X70943348Y-47632135D01*
X70994725Y-47587618D01*
X71052734Y-47560568D01*
X71239139Y-47430047D01*
X71400047Y-47269139D01*
X71530568Y-47082734D01*
X71626739Y-46876496D01*
X71685635Y-46656692D01*
X71705468Y-46430000D01*
X71685635Y-46203308D01*
X71626739Y-45983504D01*
X71530568Y-45777266D01*
X71400047Y-45590861D01*
X71400045Y-45590858D01*
X71239141Y-45429954D01*
X71052734Y-45299432D01*
X71052728Y-45299429D01*
X70994725Y-45272382D01*
X70942285Y-45226210D01*
X70923133Y-45159017D01*
X70943348Y-45092135D01*
X70994725Y-45047618D01*
X71009061Y-45040933D01*
X71052734Y-45020568D01*
X71239139Y-44890047D01*
X71400047Y-44729139D01*
X71530568Y-44542734D01*
X71626739Y-44336496D01*
X71685635Y-44116692D01*
X71705468Y-43890000D01*
X71704794Y-43882301D01*
X71693112Y-43748771D01*
X71685635Y-43663308D01*
X71631205Y-43460172D01*
X71626741Y-43443511D01*
X71626738Y-43443502D01*
X71586765Y-43357781D01*
X71530568Y-43237266D01*
X71416282Y-43074047D01*
X71400045Y-43050858D01*
X71239141Y-42889954D01*
X71052734Y-42759432D01*
X71052728Y-42759429D01*
X70994725Y-42732382D01*
X70942285Y-42686210D01*
X70923133Y-42619017D01*
X70943348Y-42552135D01*
X70994725Y-42507618D01*
X71052734Y-42480568D01*
X71239139Y-42350047D01*
X71400047Y-42189139D01*
X71530568Y-42002734D01*
X71626739Y-41796496D01*
X71685635Y-41576692D01*
X71705468Y-41350000D01*
X71685635Y-41123308D01*
X71626739Y-40903504D01*
X71530568Y-40697266D01*
X71400047Y-40510861D01*
X71400045Y-40510858D01*
X71239141Y-40349954D01*
X71052734Y-40219432D01*
X71052728Y-40219429D01*
X70994725Y-40192382D01*
X70942285Y-40146210D01*
X70923133Y-40079017D01*
X70943348Y-40012135D01*
X70994725Y-39967618D01*
X71052734Y-39940568D01*
X71239139Y-39810047D01*
X71400047Y-39649139D01*
X71530568Y-39462734D01*
X71626739Y-39256496D01*
X71685635Y-39036692D01*
X71705468Y-38810000D01*
X71685635Y-38583308D01*
X71626739Y-38363504D01*
X71530568Y-38157266D01*
X71400047Y-37970861D01*
X71400045Y-37970858D01*
X71239141Y-37809954D01*
X71052734Y-37679432D01*
X71052728Y-37679429D01*
X70994725Y-37652382D01*
X70942285Y-37606210D01*
X70923133Y-37539017D01*
X70943348Y-37472135D01*
X70994725Y-37427618D01*
X71052734Y-37400568D01*
X71239139Y-37270047D01*
X71400047Y-37109139D01*
X71530568Y-36922734D01*
X71626739Y-36716496D01*
X71685635Y-36496692D01*
X71705468Y-36270000D01*
X71704411Y-36257924D01*
X71699683Y-36203878D01*
X71685635Y-36043308D01*
X71626739Y-35823504D01*
X71530568Y-35617266D01*
X71400047Y-35430861D01*
X71400045Y-35430858D01*
X71239141Y-35269954D01*
X71052734Y-35139432D01*
X71052728Y-35139429D01*
X70994725Y-35112382D01*
X70942285Y-35066210D01*
X70923133Y-34999017D01*
X70943348Y-34932135D01*
X70994725Y-34887618D01*
X71052734Y-34860568D01*
X71239139Y-34730047D01*
X71400047Y-34569139D01*
X71530568Y-34382734D01*
X71626739Y-34176496D01*
X71685635Y-33956692D01*
X71705468Y-33730000D01*
X71705392Y-33729136D01*
X71694555Y-33605264D01*
X71685635Y-33503308D01*
X71635849Y-33317502D01*
X71626741Y-33283511D01*
X71626738Y-33283502D01*
X71626271Y-33282501D01*
X71530568Y-33077266D01*
X71400047Y-32890861D01*
X71400045Y-32890858D01*
X71239141Y-32729954D01*
X71052734Y-32599432D01*
X71052728Y-32599429D01*
X70994725Y-32572382D01*
X70942285Y-32526210D01*
X70923133Y-32459017D01*
X70943348Y-32392135D01*
X70994725Y-32347618D01*
X71052734Y-32320568D01*
X71239139Y-32190047D01*
X71400047Y-32029139D01*
X71530568Y-31842734D01*
X71626739Y-31636496D01*
X71685635Y-31416692D01*
X71705468Y-31190000D01*
X71701740Y-31147394D01*
X71694462Y-31064200D01*
X71685635Y-30963308D01*
X71640916Y-30796415D01*
X71626741Y-30743511D01*
X71626738Y-30743502D01*
X71623812Y-30737227D01*
X71530568Y-30537266D01*
X71400047Y-30350861D01*
X71400045Y-30350858D01*
X71239141Y-30189954D01*
X71052734Y-30059432D01*
X71052728Y-30059429D01*
X70994725Y-30032382D01*
X70942285Y-29986210D01*
X70923133Y-29919017D01*
X70943348Y-29852135D01*
X70994725Y-29807618D01*
X71052734Y-29780568D01*
X71239139Y-29650047D01*
X71400047Y-29489139D01*
X71530568Y-29302734D01*
X71626739Y-29096496D01*
X71685635Y-28876692D01*
X71705468Y-28650000D01*
X71704642Y-28640564D01*
X71691041Y-28485097D01*
X71685635Y-28423308D01*
X71635088Y-28234662D01*
X71626741Y-28203511D01*
X71626738Y-28203502D01*
X71613140Y-28174341D01*
X71530568Y-27997266D01*
X71400047Y-27810861D01*
X71400045Y-27810858D01*
X71239141Y-27649954D01*
X71052734Y-27519432D01*
X71052728Y-27519429D01*
X70994725Y-27492382D01*
X70942285Y-27446210D01*
X70923133Y-27379017D01*
X70943348Y-27312135D01*
X70994725Y-27267618D01*
X71052734Y-27240568D01*
X71239139Y-27110047D01*
X71400047Y-26949139D01*
X71530568Y-26762734D01*
X71626739Y-26556496D01*
X71685635Y-26336692D01*
X71705468Y-26110000D01*
X71685635Y-25883308D01*
X71626739Y-25663504D01*
X71530568Y-25457266D01*
X71400047Y-25270861D01*
X71400045Y-25270858D01*
X71239141Y-25109954D01*
X71052735Y-24979433D01*
X71052736Y-24979433D01*
X71052734Y-24979432D01*
X70994722Y-24952380D01*
X70942284Y-24906208D01*
X70923133Y-24839014D01*
X70943349Y-24772133D01*
X70994721Y-24727619D01*
X71052734Y-24700568D01*
X71239139Y-24570047D01*
X71400047Y-24409139D01*
X71530568Y-24222734D01*
X71626739Y-24016496D01*
X71685635Y-23796692D01*
X71705468Y-23570000D01*
X71685635Y-23343308D01*
X71626739Y-23123504D01*
X71530568Y-22917266D01*
X71423808Y-22764795D01*
X71400045Y-22730858D01*
X71239141Y-22569954D01*
X71052734Y-22439432D01*
X71052728Y-22439429D01*
X70994725Y-22412382D01*
X70942285Y-22366210D01*
X70923133Y-22299017D01*
X70943348Y-22232135D01*
X70994725Y-22187618D01*
X71052734Y-22160568D01*
X71239139Y-22030047D01*
X71400047Y-21869139D01*
X71530568Y-21682734D01*
X71626739Y-21476496D01*
X71685635Y-21256692D01*
X71705468Y-21030000D01*
X71685635Y-20803308D01*
X71626739Y-20583504D01*
X71530568Y-20377266D01*
X71400047Y-20190861D01*
X71400045Y-20190858D01*
X71239141Y-20029954D01*
X71052734Y-19899432D01*
X71052732Y-19899431D01*
X70846497Y-19803261D01*
X70846488Y-19803258D01*
X70626697Y-19744366D01*
X70626693Y-19744365D01*
X70626692Y-19744365D01*
X70626691Y-19744364D01*
X70626686Y-19744364D01*
X70400002Y-19724532D01*
X70399998Y-19724532D01*
X70173313Y-19744364D01*
X70173302Y-19744366D01*
X69953511Y-19803258D01*
X69953502Y-19803261D01*
X69747267Y-19899431D01*
X69747265Y-19899432D01*
X69560858Y-20029954D01*
X69399954Y-20190858D01*
X69269432Y-20377265D01*
X69269431Y-20377267D01*
X69173261Y-20583502D01*
X69173258Y-20583511D01*
X69114366Y-20803302D01*
X69114364Y-20803313D01*
X69094532Y-21029998D01*
X69094532Y-21030001D01*
X69114364Y-21256686D01*
X69114366Y-21256697D01*
X69173258Y-21476488D01*
X69173261Y-21476497D01*
X69269431Y-21682732D01*
X69269432Y-21682734D01*
X69399954Y-21869141D01*
X69560858Y-22030045D01*
X69560861Y-22030047D01*
X69747266Y-22160568D01*
X69805275Y-22187618D01*
X69857714Y-22233791D01*
X69876866Y-22300984D01*
X69856650Y-22367865D01*
X69805275Y-22412382D01*
X69747267Y-22439431D01*
X69747265Y-22439432D01*
X69560858Y-22569954D01*
X69399954Y-22730858D01*
X69269432Y-22917265D01*
X69269431Y-22917267D01*
X69173261Y-23123502D01*
X69173258Y-23123511D01*
X69114366Y-23343302D01*
X69114364Y-23343313D01*
X69094532Y-23569998D01*
X69094532Y-23570001D01*
X69114364Y-23796686D01*
X69114366Y-23796697D01*
X69173258Y-24016488D01*
X69173261Y-24016497D01*
X69269431Y-24222732D01*
X69269432Y-24222734D01*
X69399954Y-24409141D01*
X69560858Y-24570045D01*
X69560861Y-24570047D01*
X69747266Y-24700568D01*
X69805275Y-24727618D01*
X69857714Y-24773791D01*
X69876866Y-24840984D01*
X69856650Y-24907865D01*
X69805275Y-24952382D01*
X69747267Y-24979431D01*
X69747265Y-24979432D01*
X69560858Y-25109954D01*
X69399954Y-25270858D01*
X69269432Y-25457265D01*
X69269431Y-25457267D01*
X69173261Y-25663502D01*
X69173258Y-25663511D01*
X69114366Y-25883302D01*
X69114364Y-25883313D01*
X69094532Y-26109998D01*
X69094532Y-26110001D01*
X69114364Y-26336686D01*
X69114366Y-26336697D01*
X69173258Y-26556488D01*
X69173261Y-26556497D01*
X69269431Y-26762732D01*
X69269432Y-26762734D01*
X69399954Y-26949141D01*
X69560858Y-27110045D01*
X69560861Y-27110047D01*
X69747266Y-27240568D01*
X69805275Y-27267618D01*
X69857714Y-27313791D01*
X69876866Y-27380984D01*
X69856650Y-27447865D01*
X69805275Y-27492382D01*
X69747267Y-27519431D01*
X69747265Y-27519432D01*
X69560858Y-27649954D01*
X69399954Y-27810858D01*
X69269432Y-27997265D01*
X69269431Y-27997267D01*
X69173261Y-28203502D01*
X69173258Y-28203511D01*
X69114366Y-28423302D01*
X69114364Y-28423313D01*
X69094532Y-28649998D01*
X69094532Y-28650001D01*
X69114364Y-28876686D01*
X69114366Y-28876697D01*
X69173258Y-29096488D01*
X69173261Y-29096497D01*
X69269431Y-29302732D01*
X69269432Y-29302734D01*
X69399954Y-29489141D01*
X69560858Y-29650045D01*
X69560861Y-29650047D01*
X69747266Y-29780568D01*
X69805275Y-29807618D01*
X69857714Y-29853791D01*
X69876866Y-29920984D01*
X69856650Y-29987865D01*
X69805275Y-30032382D01*
X69747267Y-30059431D01*
X69747265Y-30059432D01*
X69560858Y-30189954D01*
X69399954Y-30350858D01*
X69269432Y-30537265D01*
X69269431Y-30537267D01*
X69173261Y-30743502D01*
X69173258Y-30743511D01*
X69114366Y-30963302D01*
X69114364Y-30963313D01*
X69094532Y-31189998D01*
X69094532Y-31190001D01*
X69114364Y-31416686D01*
X69114366Y-31416697D01*
X69173258Y-31636488D01*
X69173261Y-31636497D01*
X69269431Y-31842732D01*
X69269432Y-31842734D01*
X69399954Y-32029141D01*
X69560858Y-32190045D01*
X69560861Y-32190047D01*
X69747266Y-32320568D01*
X69805275Y-32347618D01*
X69857714Y-32393791D01*
X69876866Y-32460984D01*
X69856650Y-32527865D01*
X69805275Y-32572382D01*
X69747267Y-32599431D01*
X69747265Y-32599432D01*
X69560858Y-32729954D01*
X69399954Y-32890858D01*
X69269432Y-33077265D01*
X69269431Y-33077267D01*
X69173261Y-33283502D01*
X69173258Y-33283511D01*
X69114366Y-33503302D01*
X69114364Y-33503313D01*
X69094532Y-33729998D01*
X69094532Y-33730001D01*
X69114364Y-33956686D01*
X69114366Y-33956697D01*
X69173258Y-34176488D01*
X69173261Y-34176497D01*
X69269431Y-34382732D01*
X69269432Y-34382734D01*
X69399954Y-34569141D01*
X69560858Y-34730045D01*
X69560861Y-34730047D01*
X69747266Y-34860568D01*
X69805275Y-34887618D01*
X69857714Y-34933791D01*
X69876866Y-35000984D01*
X69856650Y-35067865D01*
X69805275Y-35112382D01*
X69747267Y-35139431D01*
X69747265Y-35139432D01*
X69560858Y-35269954D01*
X69399954Y-35430858D01*
X69269432Y-35617265D01*
X69269431Y-35617267D01*
X69173261Y-35823502D01*
X69173258Y-35823511D01*
X69114366Y-36043302D01*
X69114364Y-36043313D01*
X69094532Y-36269998D01*
X69094532Y-36270001D01*
X69114364Y-36496686D01*
X69114366Y-36496697D01*
X69173258Y-36716488D01*
X69173261Y-36716497D01*
X69269431Y-36922732D01*
X69269432Y-36922734D01*
X69399954Y-37109141D01*
X69560858Y-37270045D01*
X69560861Y-37270047D01*
X69747266Y-37400568D01*
X69789427Y-37420228D01*
X69805275Y-37427618D01*
X69857714Y-37473791D01*
X69876866Y-37540984D01*
X69856650Y-37607865D01*
X69805275Y-37652382D01*
X69747267Y-37679431D01*
X69747265Y-37679432D01*
X69560858Y-37809954D01*
X69399954Y-37970858D01*
X69269432Y-38157265D01*
X69269431Y-38157267D01*
X69173261Y-38363502D01*
X69173258Y-38363511D01*
X69114366Y-38583302D01*
X69114364Y-38583313D01*
X69094532Y-38809998D01*
X69094532Y-38810001D01*
X69114364Y-39036686D01*
X69114366Y-39036697D01*
X69173258Y-39256488D01*
X69173261Y-39256497D01*
X69269431Y-39462732D01*
X69269432Y-39462734D01*
X69399954Y-39649141D01*
X69560858Y-39810045D01*
X69560861Y-39810047D01*
X69747266Y-39940568D01*
X69805275Y-39967618D01*
X69857714Y-40013791D01*
X69876866Y-40080984D01*
X69856650Y-40147865D01*
X69805275Y-40192382D01*
X69747267Y-40219431D01*
X69747265Y-40219432D01*
X69560858Y-40349954D01*
X69399954Y-40510858D01*
X69269432Y-40697265D01*
X69269431Y-40697267D01*
X69173261Y-40903502D01*
X69173258Y-40903511D01*
X69114366Y-41123302D01*
X69114364Y-41123313D01*
X69094532Y-41349998D01*
X69094532Y-41350001D01*
X69114364Y-41576686D01*
X69114366Y-41576697D01*
X69173258Y-41796488D01*
X69173261Y-41796497D01*
X69269431Y-42002732D01*
X69269432Y-42002734D01*
X69399954Y-42189141D01*
X69560858Y-42350045D01*
X69560861Y-42350047D01*
X69747266Y-42480568D01*
X69805275Y-42507618D01*
X69857714Y-42553791D01*
X69876866Y-42620984D01*
X69856650Y-42687865D01*
X69805275Y-42732382D01*
X69747267Y-42759431D01*
X69747265Y-42759432D01*
X69560858Y-42889954D01*
X69399954Y-43050858D01*
X69269432Y-43237265D01*
X69269431Y-43237267D01*
X69173261Y-43443502D01*
X69173258Y-43443511D01*
X69114366Y-43663302D01*
X69114364Y-43663313D01*
X69094532Y-43889998D01*
X69094532Y-43890001D01*
X69114364Y-44116686D01*
X69114366Y-44116697D01*
X69173258Y-44336488D01*
X69173261Y-44336497D01*
X69269431Y-44542732D01*
X69269432Y-44542734D01*
X69399954Y-44729141D01*
X69560858Y-44890045D01*
X69560861Y-44890047D01*
X69747266Y-45020568D01*
X69790939Y-45040933D01*
X69805275Y-45047618D01*
X69857714Y-45093791D01*
X69876866Y-45160984D01*
X69856650Y-45227865D01*
X69805275Y-45272382D01*
X69747267Y-45299431D01*
X69747265Y-45299432D01*
X69560858Y-45429954D01*
X69399954Y-45590858D01*
X69269432Y-45777265D01*
X69269431Y-45777267D01*
X69173261Y-45983502D01*
X69173258Y-45983511D01*
X69114366Y-46203302D01*
X69114364Y-46203313D01*
X69094532Y-46429998D01*
X69094532Y-46430001D01*
X69114364Y-46656686D01*
X69114366Y-46656697D01*
X69173258Y-46876488D01*
X69173261Y-46876497D01*
X69269431Y-47082732D01*
X69269432Y-47082734D01*
X69399954Y-47269141D01*
X69560858Y-47430045D01*
X69560861Y-47430047D01*
X69747266Y-47560568D01*
X69805275Y-47587618D01*
X69857714Y-47633791D01*
X69876866Y-47700984D01*
X69856650Y-47767865D01*
X69805275Y-47812381D01*
X69805118Y-47812455D01*
X69747267Y-47839431D01*
X69747265Y-47839432D01*
X69560858Y-47969954D01*
X69399954Y-48130858D01*
X69269432Y-48317265D01*
X69269431Y-48317267D01*
X69173261Y-48523502D01*
X69173258Y-48523511D01*
X69114366Y-48743302D01*
X69114364Y-48743313D01*
X69094532Y-48969998D01*
X69094532Y-48970001D01*
X69114364Y-49196686D01*
X69114366Y-49196697D01*
X69173258Y-49416488D01*
X69173261Y-49416497D01*
X69269431Y-49622732D01*
X69269432Y-49622734D01*
X69399954Y-49809141D01*
X69560858Y-49970045D01*
X69560861Y-49970047D01*
X69747266Y-50100568D01*
X69805275Y-50127618D01*
X69857714Y-50173791D01*
X69876866Y-50240984D01*
X69856650Y-50307865D01*
X69805275Y-50352381D01*
X69805118Y-50352455D01*
X69747267Y-50379431D01*
X69747265Y-50379432D01*
X69560858Y-50509954D01*
X69399954Y-50670858D01*
X69269432Y-50857265D01*
X69269431Y-50857267D01*
X69173261Y-51063502D01*
X69173258Y-51063511D01*
X69114366Y-51283302D01*
X69114364Y-51283313D01*
X69094532Y-51509998D01*
X69094532Y-51510001D01*
X69114364Y-51736686D01*
X69114366Y-51736697D01*
X69173258Y-51956488D01*
X69173261Y-51956497D01*
X69269431Y-52162732D01*
X69269432Y-52162734D01*
X69399954Y-52349141D01*
X69560858Y-52510045D01*
X69560861Y-52510047D01*
X69747266Y-52640568D01*
X69805865Y-52667893D01*
X69858305Y-52714065D01*
X69877457Y-52781258D01*
X69857242Y-52848139D01*
X69805867Y-52892657D01*
X69747515Y-52919867D01*
X69561179Y-53050342D01*
X69400342Y-53211179D01*
X69269865Y-53397517D01*
X69173734Y-53603673D01*
X69173730Y-53603682D01*
X69121127Y-53799999D01*
X69121128Y-53800000D01*
X69966314Y-53800000D01*
X69940507Y-53840156D01*
X69900000Y-53978111D01*
X69900000Y-54121889D01*
X69940507Y-54259844D01*
X69966314Y-54300000D01*
X69121128Y-54300000D01*
X69173730Y-54496317D01*
X69173734Y-54496326D01*
X69269865Y-54702482D01*
X69400342Y-54888820D01*
X69561179Y-55049657D01*
X69747518Y-55180134D01*
X69747520Y-55180135D01*
X69805865Y-55207342D01*
X69858305Y-55253514D01*
X69877457Y-55320707D01*
X69857242Y-55387589D01*
X69805867Y-55432105D01*
X69747268Y-55459431D01*
X69747264Y-55459433D01*
X69560862Y-55589951D01*
X69529247Y-55621565D01*
X69497631Y-55653182D01*
X69436311Y-55686666D01*
X69409952Y-55689500D01*
X65744362Y-55689500D01*
X65677323Y-55669815D01*
X65656681Y-55653181D01*
X60933764Y-50930265D01*
X60921126Y-50915468D01*
X60914698Y-50906620D01*
X60912888Y-50904129D01*
X60895767Y-50888713D01*
X60861277Y-50857657D01*
X60858922Y-50855423D01*
X60843382Y-50839882D01*
X60826295Y-50826043D01*
X60823831Y-50823939D01*
X60772220Y-50777470D01*
X60772213Y-50777465D01*
X60760070Y-50770454D01*
X60744043Y-50759438D01*
X60733153Y-50750620D01*
X60733151Y-50750619D01*
X60733149Y-50750617D01*
X60714259Y-50740992D01*
X60671266Y-50719085D01*
X60668414Y-50717537D01*
X60608282Y-50682820D01*
X60594949Y-50678488D01*
X60576978Y-50671043D01*
X60564498Y-50664684D01*
X60564486Y-50664679D01*
X60497409Y-50646705D01*
X60494309Y-50645787D01*
X60428256Y-50624326D01*
X60428251Y-50624325D01*
X60428249Y-50624325D01*
X60414314Y-50622860D01*
X60395189Y-50619315D01*
X60381653Y-50615688D01*
X60381643Y-50615686D01*
X60312290Y-50612051D01*
X60309059Y-50611797D01*
X60294537Y-50610271D01*
X60287192Y-50609500D01*
X60287189Y-50609500D01*
X60265203Y-50609500D01*
X60261959Y-50609415D01*
X60192612Y-50605781D01*
X60192611Y-50605781D01*
X60178772Y-50607973D01*
X60159373Y-50609500D01*
X58724499Y-50609500D01*
X58657460Y-50589815D01*
X58611705Y-50537011D01*
X58600499Y-50485500D01*
X58600499Y-49877482D01*
X58600499Y-49130614D01*
X58602025Y-49111235D01*
X58604219Y-49097389D01*
X58600583Y-49028041D01*
X58600499Y-49024794D01*
X58600500Y-49002808D01*
X58598200Y-48980934D01*
X58597947Y-48977719D01*
X58594313Y-48908355D01*
X58590685Y-48894814D01*
X58587139Y-48875688D01*
X58585674Y-48861744D01*
X58564213Y-48795697D01*
X58563297Y-48792604D01*
X58545320Y-48725513D01*
X58538953Y-48713018D01*
X58531511Y-48695051D01*
X58527179Y-48681716D01*
X58492458Y-48621577D01*
X58490912Y-48618729D01*
X58459386Y-48556855D01*
X58459383Y-48556850D01*
X58450557Y-48545951D01*
X58439539Y-48529919D01*
X58432534Y-48517786D01*
X58432533Y-48517784D01*
X58398889Y-48480419D01*
X58386075Y-48466187D01*
X58383967Y-48463719D01*
X58370125Y-48446626D01*
X58370116Y-48446616D01*
X58354567Y-48431067D01*
X58352332Y-48428712D01*
X58305875Y-48377116D01*
X58305869Y-48377110D01*
X58294529Y-48368871D01*
X58279736Y-48356236D01*
X56441180Y-46517680D01*
X56407695Y-46456357D01*
X56412679Y-46386665D01*
X56441178Y-46342320D01*
X58279742Y-44503756D01*
X58294525Y-44491130D01*
X58305871Y-44482888D01*
X58352339Y-44431278D01*
X58354541Y-44428957D01*
X58370120Y-44413380D01*
X58383974Y-44396270D01*
X58386059Y-44393828D01*
X58432533Y-44342216D01*
X58439541Y-44330076D01*
X58450559Y-44314045D01*
X58459384Y-44303149D01*
X58490929Y-44241234D01*
X58492448Y-44238437D01*
X58527179Y-44178284D01*
X58531510Y-44164951D01*
X58538955Y-44146976D01*
X58545320Y-44134487D01*
X58563298Y-44067390D01*
X58564213Y-44064304D01*
X58585674Y-43998255D01*
X58587139Y-43984317D01*
X58590687Y-43965175D01*
X58594313Y-43951645D01*
X58597947Y-43882276D01*
X58598201Y-43879062D01*
X58600500Y-43857192D01*
X58600500Y-43835200D01*
X58600585Y-43831955D01*
X58601247Y-43819328D01*
X58604219Y-43762611D01*
X58602027Y-43748771D01*
X58600500Y-43729372D01*
X58600500Y-37260048D01*
X58620185Y-37193009D01*
X58636814Y-37172371D01*
X58700047Y-37109139D01*
X58830568Y-36922734D01*
X58926739Y-36716496D01*
X58985635Y-36496692D01*
X59005468Y-36270000D01*
X59004411Y-36257924D01*
X58999683Y-36203878D01*
X58985635Y-36043308D01*
X58926739Y-35823504D01*
X58830568Y-35617266D01*
X58700047Y-35430861D01*
X58700045Y-35430858D01*
X58539141Y-35269954D01*
X58352734Y-35139432D01*
X58352732Y-35139431D01*
X58146497Y-35043261D01*
X58146488Y-35043258D01*
X57926697Y-34984366D01*
X57926693Y-34984365D01*
X57926692Y-34984365D01*
X57926691Y-34984364D01*
X57926686Y-34984364D01*
X57700002Y-34964532D01*
X57699998Y-34964532D01*
X57473313Y-34984364D01*
X57473302Y-34984366D01*
X57253511Y-35043258D01*
X57253502Y-35043261D01*
X57047267Y-35139431D01*
X57047265Y-35139432D01*
X56860858Y-35269954D01*
X56699954Y-35430858D01*
X56569432Y-35617265D01*
X56569431Y-35617267D01*
X56473261Y-35823502D01*
X56473258Y-35823511D01*
X56414366Y-36043302D01*
X56414364Y-36043313D01*
X56394532Y-36269998D01*
X56394532Y-36270001D01*
X56414364Y-36496686D01*
X56414366Y-36496697D01*
X56473258Y-36716488D01*
X56473261Y-36716497D01*
X56569431Y-36922732D01*
X56569432Y-36922734D01*
X56699951Y-37109137D01*
X56699952Y-37109138D01*
X56699953Y-37109139D01*
X56763182Y-37172368D01*
X56796666Y-37233689D01*
X56799500Y-37260048D01*
X56799499Y-43385637D01*
X56779814Y-43452676D01*
X56763180Y-43473318D01*
X55146945Y-45089553D01*
X55085622Y-45123038D01*
X55070072Y-45125400D01*
X54853312Y-45144364D01*
X54853302Y-45144366D01*
X54633511Y-45203258D01*
X54633502Y-45203261D01*
X54427267Y-45299431D01*
X54427265Y-45299432D01*
X54240858Y-45429954D01*
X54079954Y-45590858D01*
X53946327Y-45781701D01*
X53944289Y-45780274D01*
X53901268Y-45821256D01*
X53832655Y-45834447D01*
X53767802Y-45808448D01*
X53727301Y-45751515D01*
X53720500Y-45711014D01*
X53720500Y-39233047D01*
X53720613Y-39229302D01*
X53724358Y-39167394D01*
X53713175Y-39106371D01*
X53712613Y-39102674D01*
X53709232Y-39074830D01*
X53705140Y-39041128D01*
X53701548Y-39031656D01*
X53695521Y-39010034D01*
X53693695Y-39000071D01*
X53693695Y-39000069D01*
X53668223Y-38943474D01*
X53666812Y-38940065D01*
X53644818Y-38882070D01*
X53639063Y-38873733D01*
X53628036Y-38854182D01*
X53623879Y-38844946D01*
X53623878Y-38844943D01*
X53596502Y-38810000D01*
X53585630Y-38796122D01*
X53583410Y-38793106D01*
X53579099Y-38786860D01*
X53548183Y-38742071D01*
X53501750Y-38700935D01*
X53499056Y-38698399D01*
X51401027Y-36600370D01*
X51367542Y-36539047D01*
X51365180Y-36501881D01*
X51365633Y-36496697D01*
X51365635Y-36496692D01*
X51385468Y-36270000D01*
X51384411Y-36257924D01*
X51379683Y-36203878D01*
X51365635Y-36043308D01*
X51306739Y-35823504D01*
X51210568Y-35617266D01*
X51080047Y-35430861D01*
X51080045Y-35430858D01*
X50919141Y-35269954D01*
X50732734Y-35139432D01*
X50732732Y-35139431D01*
X50526497Y-35043261D01*
X50526488Y-35043258D01*
X50306697Y-34984366D01*
X50306693Y-34984365D01*
X50306692Y-34984365D01*
X50306691Y-34984364D01*
X50306686Y-34984364D01*
X50080002Y-34964532D01*
X50079998Y-34964532D01*
X49853313Y-34984364D01*
X49853302Y-34984366D01*
X49633511Y-35043258D01*
X49633502Y-35043261D01*
X49427267Y-35139431D01*
X49427265Y-35139432D01*
X49240858Y-35269954D01*
X49079954Y-35430858D01*
X49019902Y-35516623D01*
X48965325Y-35560248D01*
X48918327Y-35569500D01*
X47417351Y-35569500D01*
X47350312Y-35549815D01*
X47304557Y-35497011D01*
X47294061Y-35458752D01*
X47289091Y-35412516D01*
X47238797Y-35277671D01*
X47238793Y-35277664D01*
X47152547Y-35162455D01*
X47152544Y-35162452D01*
X47037335Y-35076206D01*
X47037328Y-35076202D01*
X46902482Y-35025908D01*
X46902483Y-35025908D01*
X46842883Y-35019501D01*
X46842881Y-35019500D01*
X46842873Y-35019500D01*
X46842865Y-35019500D01*
X45824500Y-35019500D01*
X45757461Y-34999815D01*
X45711706Y-34947011D01*
X45700500Y-34895500D01*
X45700500Y-34071518D01*
X45720185Y-34004479D01*
X45736814Y-33983842D01*
X49749630Y-29971025D01*
X49810951Y-29937542D01*
X49848117Y-29935180D01*
X49853303Y-29935633D01*
X49853308Y-29935635D01*
X50058263Y-29953566D01*
X50079999Y-29955468D01*
X50080000Y-29955468D01*
X50080002Y-29955468D01*
X50144637Y-29949813D01*
X50306692Y-29935635D01*
X50526496Y-29876739D01*
X50732734Y-29780568D01*
X50919139Y-29650047D01*
X51080047Y-29489139D01*
X51140096Y-29403377D01*
X51194675Y-29359752D01*
X51241673Y-29350500D01*
X56538327Y-29350500D01*
X56605366Y-29370185D01*
X56639902Y-29403377D01*
X56699954Y-29489141D01*
X56860858Y-29650045D01*
X56860861Y-29650047D01*
X57047266Y-29780568D01*
X57253504Y-29876739D01*
X57473308Y-29935635D01*
X57635230Y-29949801D01*
X57699998Y-29955468D01*
X57700000Y-29955468D01*
X57700002Y-29955468D01*
X57764637Y-29949813D01*
X57926692Y-29935635D01*
X58146496Y-29876739D01*
X58352734Y-29780568D01*
X58539139Y-29650047D01*
X58700047Y-29489139D01*
X58830568Y-29302734D01*
X58926739Y-29096496D01*
X58985635Y-28876692D01*
X59005468Y-28650000D01*
X59004642Y-28640564D01*
X58991041Y-28485097D01*
X58985635Y-28423308D01*
X58935088Y-28234662D01*
X58926741Y-28203511D01*
X58926738Y-28203502D01*
X58913140Y-28174341D01*
X58830568Y-27997266D01*
X58700047Y-27810861D01*
X58700045Y-27810858D01*
X58539141Y-27649954D01*
X58352734Y-27519432D01*
X58352732Y-27519431D01*
X58146497Y-27423261D01*
X58146488Y-27423258D01*
X57926697Y-27364366D01*
X57926693Y-27364365D01*
X57926692Y-27364365D01*
X57926691Y-27364364D01*
X57926686Y-27364364D01*
X57700002Y-27344532D01*
X57699998Y-27344532D01*
X57473313Y-27364364D01*
X57473302Y-27364366D01*
X57253511Y-27423258D01*
X57253502Y-27423261D01*
X57047267Y-27519431D01*
X57047265Y-27519432D01*
X56860858Y-27649954D01*
X56699954Y-27810858D01*
X56639902Y-27896623D01*
X56585325Y-27940248D01*
X56538327Y-27949500D01*
X51241673Y-27949500D01*
X51174634Y-27929815D01*
X51140098Y-27896623D01*
X51080045Y-27810858D01*
X50919141Y-27649954D01*
X50732734Y-27519432D01*
X50732732Y-27519431D01*
X50526497Y-27423261D01*
X50526488Y-27423258D01*
X50306697Y-27364366D01*
X50306693Y-27364365D01*
X50306692Y-27364365D01*
X50306691Y-27364364D01*
X50306686Y-27364364D01*
X50080002Y-27344532D01*
X50079998Y-27344532D01*
X49853313Y-27364364D01*
X49853302Y-27364366D01*
X49633511Y-27423258D01*
X49633502Y-27423261D01*
X49427267Y-27519431D01*
X49427265Y-27519432D01*
X49240858Y-27649954D01*
X49079954Y-27810858D01*
X48949432Y-27997265D01*
X48949431Y-27997267D01*
X48853261Y-28203502D01*
X48853258Y-28203511D01*
X48794366Y-28423302D01*
X48794364Y-28423313D01*
X48774532Y-28649998D01*
X48774532Y-28650001D01*
X48794819Y-28881881D01*
X48781052Y-28950381D01*
X48758972Y-28980369D01*
X44520966Y-33218375D01*
X44518240Y-33220942D01*
X44471818Y-33262068D01*
X44436586Y-33313109D01*
X44434368Y-33316124D01*
X44396124Y-33364939D01*
X44396119Y-33364948D01*
X44391960Y-33374188D01*
X44380942Y-33393723D01*
X44375187Y-33402061D01*
X44375183Y-33402067D01*
X44375182Y-33402070D01*
X44375180Y-33402074D01*
X44375179Y-33402077D01*
X44353189Y-33460055D01*
X44351757Y-33463513D01*
X44326305Y-33520068D01*
X44324477Y-33530042D01*
X44318453Y-33551653D01*
X44314860Y-33561127D01*
X44314859Y-33561128D01*
X44307384Y-33622685D01*
X44306821Y-33626386D01*
X44295642Y-33687390D01*
X44295642Y-33687395D01*
X44299387Y-33749302D01*
X44299500Y-33753047D01*
X44299500Y-34980494D01*
X44279815Y-35047533D01*
X44227011Y-35093288D01*
X44157853Y-35103232D01*
X44128055Y-35095058D01*
X44124152Y-35093441D01*
X43980000Y-35049712D01*
X43980000Y-35935728D01*
X43979701Y-35941808D01*
X43977088Y-35968343D01*
X43975370Y-35985779D01*
X43910948Y-35935637D01*
X43792576Y-35895000D01*
X43698927Y-35895000D01*
X43606554Y-35910414D01*
X43496486Y-35969981D01*
X43480000Y-35987889D01*
X43480000Y-35049712D01*
X43335849Y-35093441D01*
X43157790Y-35188615D01*
X43157784Y-35188620D01*
X43001707Y-35316707D01*
X42873620Y-35472784D01*
X42873615Y-35472790D01*
X42778443Y-35650845D01*
X42719829Y-35844067D01*
X42705000Y-35994642D01*
X42705000Y-36020000D01*
X43450440Y-36020000D01*
X43411722Y-36062059D01*
X43361449Y-36176670D01*
X43351114Y-36301395D01*
X43381837Y-36422719D01*
X43445394Y-36520000D01*
X42705000Y-36520000D01*
X42705000Y-36545357D01*
X42719829Y-36695932D01*
X42778443Y-36889154D01*
X42873615Y-37067209D01*
X42873620Y-37067215D01*
X43001707Y-37223292D01*
X43157784Y-37351379D01*
X43157790Y-37351384D01*
X43335846Y-37446557D01*
X43480000Y-37490285D01*
X43480000Y-36550617D01*
X43549052Y-36604363D01*
X43667424Y-36645000D01*
X43761073Y-36645000D01*
X43853446Y-36629586D01*
X43963514Y-36570019D01*
X43975630Y-36556857D01*
X43976927Y-36570019D01*
X43979701Y-36598190D01*
X43980000Y-36604270D01*
X43980000Y-37490285D01*
X44124151Y-37446557D01*
X44306014Y-37349348D01*
X44374416Y-37335106D01*
X44422921Y-37349348D01*
X44605654Y-37447021D01*
X44605656Y-37447021D01*
X44605659Y-37447023D01*
X44798967Y-37505662D01*
X45000000Y-37525462D01*
X45201033Y-37505662D01*
X45394341Y-37447023D01*
X45394344Y-37447021D01*
X45395423Y-37446694D01*
X45465290Y-37446070D01*
X45494380Y-37460470D01*
X45494886Y-37459546D01*
X45502671Y-37463797D01*
X45637517Y-37514091D01*
X45637516Y-37514091D01*
X45644444Y-37514835D01*
X45697127Y-37520500D01*
X46842872Y-37520499D01*
X46902483Y-37514091D01*
X47037331Y-37463796D01*
X47152546Y-37377546D01*
X47238796Y-37262331D01*
X47289091Y-37127483D01*
X47294062Y-37081242D01*
X47320799Y-37016694D01*
X47378191Y-36976846D01*
X47417351Y-36970500D01*
X48918327Y-36970500D01*
X48985366Y-36990185D01*
X49019902Y-37023377D01*
X49079954Y-37109141D01*
X49240858Y-37270045D01*
X49240861Y-37270047D01*
X49427266Y-37400568D01*
X49633504Y-37496739D01*
X49633509Y-37496740D01*
X49633511Y-37496741D01*
X49666805Y-37505662D01*
X49853308Y-37555635D01*
X50015230Y-37569801D01*
X50079998Y-37575468D01*
X50080000Y-37575468D01*
X50080001Y-37575468D01*
X50098304Y-37573866D01*
X50306692Y-37555635D01*
X50306697Y-37555633D01*
X50311881Y-37555180D01*
X50380381Y-37568946D01*
X50410370Y-37591027D01*
X52283180Y-39463837D01*
X52316665Y-39525160D01*
X52319499Y-39551518D01*
X52319499Y-46806951D01*
X52319386Y-46810694D01*
X52315641Y-46872601D01*
X52315642Y-46872605D01*
X52315642Y-46872606D01*
X52316355Y-46876496D01*
X52326821Y-46933612D01*
X52327384Y-46937313D01*
X52334859Y-46998870D01*
X52334860Y-46998874D01*
X52338451Y-47008343D01*
X52344474Y-47029946D01*
X52346304Y-47039930D01*
X52371759Y-47096490D01*
X52373189Y-47099941D01*
X52395182Y-47157930D01*
X52395183Y-47157931D01*
X52400936Y-47166266D01*
X52411961Y-47185813D01*
X52416120Y-47195055D01*
X52416122Y-47195057D01*
X52453644Y-47242951D01*
X52454371Y-47243878D01*
X52456591Y-47246896D01*
X52491812Y-47297924D01*
X52491816Y-47297928D01*
X52491817Y-47297929D01*
X52538250Y-47339064D01*
X52540941Y-47341598D01*
X53483279Y-48283936D01*
X54423181Y-49223838D01*
X54456666Y-49285161D01*
X54459500Y-49311519D01*
X54459500Y-59106951D01*
X54459387Y-59110696D01*
X54455642Y-59172603D01*
X54455642Y-59172605D01*
X54466821Y-59233612D01*
X54467384Y-59237313D01*
X54474859Y-59298870D01*
X54474860Y-59298874D01*
X54478451Y-59308343D01*
X54484474Y-59329946D01*
X54486304Y-59339930D01*
X54511759Y-59396490D01*
X54513189Y-59399941D01*
X54535182Y-59457930D01*
X54535183Y-59457931D01*
X54540936Y-59466266D01*
X54551961Y-59485813D01*
X54556120Y-59495055D01*
X54556124Y-59495060D01*
X54594371Y-59543878D01*
X54596591Y-59546896D01*
X54631812Y-59597924D01*
X54631816Y-59597928D01*
X54631817Y-59597929D01*
X54678250Y-59639064D01*
X54680941Y-59641598D01*
X55551723Y-60512380D01*
X56378972Y-61339629D01*
X56412457Y-61400952D01*
X56414819Y-61438117D01*
X56394532Y-61669998D01*
X56394532Y-61670001D01*
X56414364Y-61896686D01*
X56414366Y-61896697D01*
X56473258Y-62116488D01*
X56473261Y-62116497D01*
X56569431Y-62322732D01*
X56569432Y-62322734D01*
X56699954Y-62509141D01*
X56860857Y-62670044D01*
X56860860Y-62670046D01*
X56860861Y-62670047D01*
X56946623Y-62730097D01*
X56990248Y-62784673D01*
X56999500Y-62831672D01*
X56999500Y-63048326D01*
X56979815Y-63115365D01*
X56946624Y-63149901D01*
X56860863Y-63209951D01*
X56699951Y-63370862D01*
X56569432Y-63557265D01*
X56569431Y-63557267D01*
X56473261Y-63763502D01*
X56473258Y-63763511D01*
X56414366Y-63983302D01*
X56414364Y-63983313D01*
X56394532Y-64209998D01*
X56394532Y-64210001D01*
X56414364Y-64436686D01*
X56414366Y-64436697D01*
X56473258Y-64656488D01*
X56473261Y-64656497D01*
X56569431Y-64862732D01*
X56569432Y-64862734D01*
X56699954Y-65049141D01*
X56860858Y-65210045D01*
X56860861Y-65210047D01*
X57047266Y-65340568D01*
X57105275Y-65367618D01*
X57157714Y-65413791D01*
X57176866Y-65480984D01*
X57156650Y-65547865D01*
X57105275Y-65592382D01*
X57047267Y-65619431D01*
X57047265Y-65619432D01*
X56860858Y-65749954D01*
X56699954Y-65910858D01*
X56569432Y-66097265D01*
X56569431Y-66097267D01*
X56473261Y-66303502D01*
X56473258Y-66303511D01*
X56414366Y-66523302D01*
X56414364Y-66523313D01*
X56394532Y-66749998D01*
X56394532Y-66750001D01*
X56414364Y-66976686D01*
X56414366Y-66976697D01*
X56473258Y-67196488D01*
X56473261Y-67196497D01*
X56569431Y-67402732D01*
X56569432Y-67402734D01*
X56699954Y-67589141D01*
X56860858Y-67750045D01*
X56860861Y-67750047D01*
X57047266Y-67880568D01*
X57253504Y-67976739D01*
X57473308Y-68035635D01*
X57635230Y-68049801D01*
X57699998Y-68055468D01*
X57700000Y-68055468D01*
X57700002Y-68055468D01*
X57756673Y-68050509D01*
X57926692Y-68035635D01*
X58146496Y-67976739D01*
X58352734Y-67880568D01*
X58539139Y-67750047D01*
X58700047Y-67589139D01*
X58830568Y-67402734D01*
X58926739Y-67196496D01*
X58985635Y-66976692D01*
X59005468Y-66750000D01*
X59001088Y-66699942D01*
X58990738Y-66581635D01*
X58985635Y-66523308D01*
X58926739Y-66303504D01*
X58830568Y-66097266D01*
X58700047Y-65910861D01*
X58700045Y-65910858D01*
X58539141Y-65749954D01*
X58352734Y-65619432D01*
X58352728Y-65619429D01*
X58315626Y-65602128D01*
X58294724Y-65592381D01*
X58242285Y-65546210D01*
X58223133Y-65479017D01*
X58243348Y-65412135D01*
X58294725Y-65367618D01*
X58352734Y-65340568D01*
X58539139Y-65210047D01*
X58700047Y-65049139D01*
X58830568Y-64862734D01*
X58926739Y-64656496D01*
X58985635Y-64436692D01*
X59005468Y-64210000D01*
X58985635Y-63983308D01*
X58926739Y-63763504D01*
X58830568Y-63557266D01*
X58700047Y-63370861D01*
X58539139Y-63209953D01*
X58453376Y-63149901D01*
X58409751Y-63095324D01*
X58400500Y-63048326D01*
X58400500Y-62831672D01*
X58420185Y-62764633D01*
X58453375Y-62730098D01*
X58539139Y-62670047D01*
X58700047Y-62509139D01*
X58830568Y-62322734D01*
X58926739Y-62116496D01*
X58985635Y-61896692D01*
X59005468Y-61670000D01*
X58985635Y-61443308D01*
X58940916Y-61276415D01*
X58926741Y-61223511D01*
X58926738Y-61223502D01*
X58869839Y-61101483D01*
X58830568Y-61017266D01*
X58700047Y-60830861D01*
X58700045Y-60830858D01*
X58539141Y-60669954D01*
X58352735Y-60539433D01*
X58352736Y-60539433D01*
X58352734Y-60539432D01*
X58294722Y-60512380D01*
X58242284Y-60466208D01*
X58223133Y-60399014D01*
X58243349Y-60332133D01*
X58294721Y-60287619D01*
X58352734Y-60260568D01*
X58539139Y-60130047D01*
X58700047Y-59969139D01*
X58830568Y-59782734D01*
X58926739Y-59576496D01*
X58985635Y-59356692D01*
X59005468Y-59130000D01*
X59003451Y-59106951D01*
X58985635Y-58903313D01*
X58985635Y-58903312D01*
X58985635Y-58903308D01*
X58926739Y-58683504D01*
X58830568Y-58477266D01*
X58700047Y-58290861D01*
X58700045Y-58290858D01*
X58539141Y-58129954D01*
X58352734Y-57999432D01*
X58352728Y-57999429D01*
X58294725Y-57972382D01*
X58242285Y-57926210D01*
X58223133Y-57859017D01*
X58243348Y-57792135D01*
X58294725Y-57747618D01*
X58352734Y-57720568D01*
X58539139Y-57590047D01*
X58700047Y-57429139D01*
X58830568Y-57242734D01*
X58926739Y-57036496D01*
X58985635Y-56816692D01*
X59005468Y-56590000D01*
X59004599Y-56580072D01*
X58985635Y-56363313D01*
X58985635Y-56363308D01*
X58940916Y-56196415D01*
X58926741Y-56143511D01*
X58926738Y-56143502D01*
X58868319Y-56018223D01*
X58830568Y-55937266D01*
X58700047Y-55750861D01*
X58700045Y-55750858D01*
X58539141Y-55589954D01*
X58352734Y-55459432D01*
X58352728Y-55459429D01*
X58294882Y-55432455D01*
X58294724Y-55432381D01*
X58242285Y-55386210D01*
X58223133Y-55319017D01*
X58243348Y-55252135D01*
X58294725Y-55207618D01*
X58295319Y-55207341D01*
X58352734Y-55180568D01*
X58539139Y-55050047D01*
X58700047Y-54889139D01*
X58830568Y-54702734D01*
X58926739Y-54496496D01*
X58985635Y-54276692D01*
X59005468Y-54050000D01*
X58985635Y-53823308D01*
X58926739Y-53603504D01*
X58830568Y-53397266D01*
X58700047Y-53210861D01*
X58700045Y-53210858D01*
X58539141Y-53049954D01*
X58352734Y-52919432D01*
X58352728Y-52919429D01*
X58294725Y-52892382D01*
X58242285Y-52846210D01*
X58223133Y-52779017D01*
X58243348Y-52712135D01*
X58294725Y-52667618D01*
X58352734Y-52640568D01*
X58539139Y-52510047D01*
X58602368Y-52446817D01*
X58663689Y-52413334D01*
X58690048Y-52410500D01*
X59815639Y-52410500D01*
X59882678Y-52430185D01*
X59903320Y-52446819D01*
X64626236Y-57169736D01*
X64638871Y-57184529D01*
X64647110Y-57195869D01*
X64647115Y-57195874D01*
X64659846Y-57207337D01*
X64698730Y-57242348D01*
X64701068Y-57244568D01*
X64716620Y-57260120D01*
X64733716Y-57273964D01*
X64736168Y-57276058D01*
X64756492Y-57294357D01*
X64787784Y-57322533D01*
X64795633Y-57327065D01*
X64799920Y-57329540D01*
X64815952Y-57340557D01*
X64826851Y-57349383D01*
X64888714Y-57380903D01*
X64891569Y-57382453D01*
X64951707Y-57417174D01*
X64951712Y-57417177D01*
X64951713Y-57417177D01*
X64951716Y-57417179D01*
X64965050Y-57421511D01*
X64983022Y-57428956D01*
X64995512Y-57435320D01*
X64995514Y-57435320D01*
X64995515Y-57435321D01*
X65005036Y-57437872D01*
X65062601Y-57453296D01*
X65065682Y-57454209D01*
X65131744Y-57475674D01*
X65145688Y-57477139D01*
X65164814Y-57480685D01*
X65174441Y-57483264D01*
X65178355Y-57484313D01*
X65247720Y-57487947D01*
X65250935Y-57488200D01*
X65272808Y-57490500D01*
X65294798Y-57490500D01*
X65298041Y-57490584D01*
X65367388Y-57494219D01*
X65381227Y-57492027D01*
X65400627Y-57490500D01*
X69409952Y-57490500D01*
X69476991Y-57510185D01*
X69497628Y-57526814D01*
X69560859Y-57590045D01*
X69560862Y-57590048D01*
X69621245Y-57632328D01*
X69747266Y-57720568D01*
X69953504Y-57816739D01*
X70173308Y-57875635D01*
X70390073Y-57894599D01*
X70455141Y-57920051D01*
X70466946Y-57930446D01*
X74543181Y-62006680D01*
X74576666Y-62068003D01*
X74579500Y-62094361D01*
X74579500Y-73345500D01*
X74559815Y-73412539D01*
X74507011Y-73458294D01*
X74455500Y-73469500D01*
X70480627Y-73469500D01*
X70461228Y-73467973D01*
X70447388Y-73465781D01*
X70378041Y-73469415D01*
X70374798Y-73469500D01*
X70352808Y-73469500D01*
X70346559Y-73470156D01*
X70330941Y-73471797D01*
X70327710Y-73472051D01*
X70258358Y-73475686D01*
X70258353Y-73475687D01*
X70244803Y-73479317D01*
X70225691Y-73482859D01*
X70211749Y-73484325D01*
X70211737Y-73484327D01*
X70159469Y-73501310D01*
X70145687Y-73505788D01*
X70142607Y-73506701D01*
X70105695Y-73516591D01*
X70075514Y-73524679D01*
X70063020Y-73531045D01*
X70045053Y-73538487D01*
X70031714Y-73542821D01*
X69971591Y-73577533D01*
X69968740Y-73579081D01*
X69906850Y-73610617D01*
X69895951Y-73619442D01*
X69879931Y-73630452D01*
X69867787Y-73637464D01*
X69867783Y-73637467D01*
X69816190Y-73683921D01*
X69813726Y-73686026D01*
X69796620Y-73699879D01*
X69781056Y-73715443D01*
X69778723Y-73717657D01*
X69757206Y-73737030D01*
X69727113Y-73764127D01*
X69727105Y-73764136D01*
X69718872Y-73775468D01*
X69706238Y-73790260D01*
X65576889Y-77919610D01*
X65515566Y-77953095D01*
X65468803Y-77954239D01*
X65451190Y-77951300D01*
X65440399Y-77949500D01*
X65199601Y-77949500D01*
X65171202Y-77954239D01*
X64962083Y-77989134D01*
X64734343Y-78067318D01*
X64734334Y-78067321D01*
X64522558Y-78181929D01*
X64448119Y-78239868D01*
X64332537Y-78329829D01*
X64332534Y-78329831D01*
X64332534Y-78329832D01*
X64169450Y-78506988D01*
X64169446Y-78506994D01*
X64153507Y-78531389D01*
X64100359Y-78576744D01*
X64031127Y-78586165D01*
X63967793Y-78556661D01*
X63945892Y-78531385D01*
X63930154Y-78507296D01*
X63767126Y-78330202D01*
X63767116Y-78330193D01*
X63577168Y-78182350D01*
X63577159Y-78182344D01*
X63365468Y-78067784D01*
X63365454Y-78067778D01*
X63137791Y-77989619D01*
X63030000Y-77971633D01*
X63030000Y-78958316D01*
X63001181Y-78940791D01*
X62855596Y-78900000D01*
X62742378Y-78900000D01*
X62630217Y-78915416D01*
X62529999Y-78958946D01*
X62529999Y-77971633D01*
X62529998Y-77971633D01*
X62422213Y-77989619D01*
X62194545Y-78067778D01*
X62194531Y-78067784D01*
X61982840Y-78182344D01*
X61982838Y-78182345D01*
X61840252Y-78293325D01*
X61775258Y-78318967D01*
X61706718Y-78305400D01*
X61656393Y-78256932D01*
X61647907Y-78238801D01*
X61636297Y-78207671D01*
X61636293Y-78207664D01*
X61550047Y-78092455D01*
X61550044Y-78092452D01*
X61434835Y-78006206D01*
X61434828Y-78006202D01*
X61299982Y-77955908D01*
X61299983Y-77955908D01*
X61240383Y-77949501D01*
X61240381Y-77949500D01*
X61240373Y-77949500D01*
X61240365Y-77949500D01*
X60064362Y-77949500D01*
X59997323Y-77929815D01*
X59976681Y-77913181D01*
X55853764Y-73790265D01*
X55841126Y-73775468D01*
X55832887Y-73764128D01*
X55781277Y-73717657D01*
X55778922Y-73715423D01*
X55763382Y-73699882D01*
X55746295Y-73686043D01*
X55743831Y-73683939D01*
X55692220Y-73637470D01*
X55692213Y-73637465D01*
X55680070Y-73630454D01*
X55664043Y-73619438D01*
X55653153Y-73610620D01*
X55653151Y-73610619D01*
X55653149Y-73610617D01*
X55634259Y-73600992D01*
X55591266Y-73579085D01*
X55588414Y-73577537D01*
X55528282Y-73542820D01*
X55514949Y-73538488D01*
X55496978Y-73531043D01*
X55484498Y-73524684D01*
X55484486Y-73524679D01*
X55417409Y-73506705D01*
X55414309Y-73505787D01*
X55348256Y-73484326D01*
X55348251Y-73484325D01*
X55348249Y-73484325D01*
X55334314Y-73482860D01*
X55315189Y-73479315D01*
X55301653Y-73475688D01*
X55301643Y-73475686D01*
X55232290Y-73472051D01*
X55229059Y-73471797D01*
X55214537Y-73470271D01*
X55207192Y-73469500D01*
X55207189Y-73469500D01*
X55185203Y-73469500D01*
X55181959Y-73469415D01*
X55112612Y-73465781D01*
X55112611Y-73465781D01*
X55098772Y-73467973D01*
X55079373Y-73469500D01*
X51070048Y-73469500D01*
X51003009Y-73449815D01*
X50982371Y-73433185D01*
X50919139Y-73369953D01*
X50919138Y-73369952D01*
X50919137Y-73369951D01*
X50732734Y-73239432D01*
X50732732Y-73239431D01*
X50526497Y-73143261D01*
X50526488Y-73143258D01*
X50306697Y-73084366D01*
X50306693Y-73084365D01*
X50306692Y-73084365D01*
X50306691Y-73084364D01*
X50306686Y-73084364D01*
X50080002Y-73064532D01*
X50079998Y-73064532D01*
X49853313Y-73084364D01*
X49853302Y-73084366D01*
X49633511Y-73143258D01*
X49633502Y-73143261D01*
X49427267Y-73239431D01*
X49427265Y-73239432D01*
X49240862Y-73369951D01*
X49213878Y-73396936D01*
X49177631Y-73433182D01*
X49116311Y-73466666D01*
X49089952Y-73469500D01*
X41280627Y-73469500D01*
X41261228Y-73467973D01*
X41247389Y-73465781D01*
X41247388Y-73465781D01*
X41178046Y-73469415D01*
X41174803Y-73469500D01*
X41152808Y-73469500D01*
X41137403Y-73471118D01*
X41130933Y-73471798D01*
X41127702Y-73472052D01*
X41058356Y-73475687D01*
X41044809Y-73479317D01*
X41025686Y-73482860D01*
X41011746Y-73484325D01*
X40982816Y-73493725D01*
X40912975Y-73495719D01*
X40853143Y-73459637D01*
X40822316Y-73396936D01*
X40820500Y-73375793D01*
X40820500Y-68474499D01*
X40840185Y-68407460D01*
X40892989Y-68361705D01*
X40944500Y-68350499D01*
X41067871Y-68350499D01*
X41067872Y-68350499D01*
X41127483Y-68344091D01*
X41262331Y-68293796D01*
X41377546Y-68207546D01*
X41463796Y-68092331D01*
X41514091Y-67957483D01*
X41520500Y-67897873D01*
X41520499Y-65602128D01*
X41514666Y-65547865D01*
X41514091Y-65542516D01*
X41463797Y-65407671D01*
X41463793Y-65407664D01*
X41377547Y-65292455D01*
X41377544Y-65292452D01*
X41262335Y-65206206D01*
X41262328Y-65206202D01*
X41127482Y-65155908D01*
X41127483Y-65155908D01*
X41067883Y-65149501D01*
X41067881Y-65149500D01*
X41067873Y-65149500D01*
X41067864Y-65149500D01*
X38772129Y-65149500D01*
X38772123Y-65149501D01*
X38712516Y-65155908D01*
X38577671Y-65206202D01*
X38577664Y-65206206D01*
X38462455Y-65292452D01*
X38462452Y-65292455D01*
X38376206Y-65407664D01*
X38376202Y-65407671D01*
X38325908Y-65542517D01*
X38320518Y-65592657D01*
X38319501Y-65602123D01*
X38319500Y-65602135D01*
X38319500Y-67897870D01*
X35180499Y-67897870D01*
X35180499Y-66662128D01*
X35174091Y-66602517D01*
X35136196Y-66500916D01*
X35123797Y-66467671D01*
X35123793Y-66467664D01*
X35037547Y-66352455D01*
X35037544Y-66352452D01*
X34922335Y-66266206D01*
X34922328Y-66266202D01*
X34787482Y-66215908D01*
X34787483Y-66215908D01*
X34727883Y-66209501D01*
X34727881Y-66209500D01*
X34727873Y-66209500D01*
X34727865Y-66209500D01*
X34704500Y-66209500D01*
X34637461Y-66189815D01*
X34591706Y-66137011D01*
X34580500Y-66085500D01*
X34580500Y-65891626D01*
X34582027Y-65872225D01*
X34584219Y-65858388D01*
X34580584Y-65789040D01*
X34580500Y-65785797D01*
X34580500Y-65763809D01*
X34580499Y-65763800D01*
X34578201Y-65741936D01*
X34577947Y-65738720D01*
X34574313Y-65669355D01*
X34570685Y-65655814D01*
X34567139Y-65636688D01*
X34565674Y-65622744D01*
X34544209Y-65556682D01*
X34543296Y-65553601D01*
X34528113Y-65496935D01*
X34525321Y-65486515D01*
X34525320Y-65486514D01*
X34525320Y-65486512D01*
X34518956Y-65474022D01*
X34511511Y-65456050D01*
X34507179Y-65442716D01*
X34507177Y-65442712D01*
X34507175Y-65442707D01*
X34483670Y-65401998D01*
X34472443Y-65382552D01*
X34470920Y-65379747D01*
X34439383Y-65317851D01*
X34439382Y-65317849D01*
X34430560Y-65306955D01*
X34419538Y-65290918D01*
X34412532Y-65278783D01*
X34412531Y-65278781D01*
X34366060Y-65227170D01*
X34363952Y-65224702D01*
X34350118Y-65207619D01*
X34334577Y-65192078D01*
X34332341Y-65189722D01*
X34285872Y-65138113D01*
X34285871Y-65138112D01*
X34274525Y-65129869D01*
X34259734Y-65117235D01*
X29399818Y-60257318D01*
X29366333Y-60195995D01*
X29363499Y-60169637D01*
X29363499Y-59543878D01*
X29363499Y-58846128D01*
X29357091Y-58786517D01*
X29318672Y-58683511D01*
X29306797Y-58651671D01*
X29306793Y-58651664D01*
X29220547Y-58536455D01*
X29220544Y-58536452D01*
X29116966Y-58458913D01*
X29075095Y-58402979D01*
X29070111Y-58333288D01*
X29085548Y-58294860D01*
X29198777Y-58110089D01*
X29292172Y-57884612D01*
X29349146Y-57647302D01*
X29352493Y-57604771D01*
X29377376Y-57539484D01*
X29433607Y-57498012D01*
X29476111Y-57490500D01*
X38527138Y-57490500D01*
X38594177Y-57510185D01*
X38621427Y-57533967D01*
X38784776Y-57725224D01*
X38911899Y-57833797D01*
X38976343Y-57888838D01*
X38976346Y-57888839D01*
X39191140Y-58020466D01*
X39407511Y-58110089D01*
X39423889Y-58116873D01*
X39668852Y-58175683D01*
X39920000Y-58195449D01*
X40171148Y-58175683D01*
X40416111Y-58116873D01*
X40648859Y-58020466D01*
X40863659Y-57888836D01*
X41055224Y-57725224D01*
X41218836Y-57533659D01*
X41350466Y-57318859D01*
X41446873Y-57086111D01*
X41505683Y-56841148D01*
X41525449Y-56590000D01*
X41505683Y-56338852D01*
X41446873Y-56093889D01*
X41415531Y-56018222D01*
X41350466Y-55861140D01*
X41218839Y-55646346D01*
X41218838Y-55646343D01*
X41170674Y-55589951D01*
X41055224Y-55454776D01*
X40898574Y-55320984D01*
X40863656Y-55291161D01*
X40863653Y-55291160D01*
X40648859Y-55159533D01*
X40416110Y-55063126D01*
X40171151Y-55004317D01*
X39920000Y-54984551D01*
X39668848Y-55004317D01*
X39423889Y-55063126D01*
X39191140Y-55159533D01*
X38976346Y-55291160D01*
X38976343Y-55291161D01*
X38784776Y-55454776D01*
X38621428Y-55646032D01*
X38562921Y-55684225D01*
X38527138Y-55689500D01*
X28579808Y-55689500D01*
X28438744Y-55704326D01*
X28438741Y-55704326D01*
X28438740Y-55704327D01*
X28258722Y-55762818D01*
X28258710Y-55762823D01*
X28107679Y-55850021D01*
X28039779Y-55866494D01*
X28035952Y-55866252D01*
X27813000Y-55848706D01*
X27569702Y-55867853D01*
X27332380Y-55924830D01*
X27106910Y-56018222D01*
X26898826Y-56145737D01*
X26898823Y-56145738D01*
X26713241Y-56304241D01*
X26554738Y-56489823D01*
X26554737Y-56489826D01*
X26427222Y-56697910D01*
X26333830Y-56923380D01*
X26333828Y-56923387D01*
X26333828Y-56923388D01*
X26298860Y-57069039D01*
X26276853Y-57160702D01*
X26257706Y-57404000D01*
X23360500Y-57404000D01*
X23360500Y-50419005D01*
X28229057Y-50419005D01*
X28248807Y-50732942D01*
X28248808Y-50732949D01*
X28307755Y-51041958D01*
X28404963Y-51341132D01*
X28404965Y-51341137D01*
X28538900Y-51625761D01*
X28538903Y-51625767D01*
X28707457Y-51891367D01*
X28707460Y-51891371D01*
X28798286Y-52001160D01*
X29436266Y-51363179D01*
X29599130Y-51553870D01*
X29789818Y-51716732D01*
X29148971Y-52357579D01*
X29148972Y-52357581D01*
X29391772Y-52533985D01*
X29391790Y-52533996D01*
X29667447Y-52685540D01*
X29667455Y-52685544D01*
X29959926Y-52801340D01*
X30264620Y-52879573D01*
X30264629Y-52879575D01*
X30576701Y-52918999D01*
X30576715Y-52919000D01*
X30891285Y-52919000D01*
X30891298Y-52918999D01*
X31203370Y-52879575D01*
X31203379Y-52879573D01*
X31508073Y-52801340D01*
X31800544Y-52685544D01*
X31800552Y-52685540D01*
X32076209Y-52533996D01*
X32076219Y-52533990D01*
X32319026Y-52357579D01*
X32319027Y-52357579D01*
X31678180Y-51716733D01*
X31868870Y-51553870D01*
X32031733Y-51363181D01*
X32669712Y-52001160D01*
X32760544Y-51891364D01*
X32929096Y-51625767D01*
X32929099Y-51625761D01*
X33063034Y-51341137D01*
X33063036Y-51341132D01*
X33160244Y-51041958D01*
X33219191Y-50732949D01*
X33219192Y-50732942D01*
X33238943Y-50419005D01*
X33238943Y-50418994D01*
X33219192Y-50105057D01*
X33219191Y-50105050D01*
X33160244Y-49796041D01*
X33063036Y-49496867D01*
X33063034Y-49496862D01*
X32929099Y-49212238D01*
X32929096Y-49212232D01*
X32760542Y-48946632D01*
X32760539Y-48946628D01*
X32669712Y-48836838D01*
X32031732Y-49474818D01*
X31868870Y-49284130D01*
X31678180Y-49121266D01*
X32319027Y-48480419D01*
X32319026Y-48480417D01*
X32076227Y-48304014D01*
X32076209Y-48304003D01*
X31800552Y-48152459D01*
X31800544Y-48152455D01*
X31508073Y-48036659D01*
X31203379Y-47958426D01*
X31203370Y-47958424D01*
X30891298Y-47919000D01*
X30576701Y-47919000D01*
X30264629Y-47958424D01*
X30264620Y-47958426D01*
X29959926Y-48036659D01*
X29667455Y-48152455D01*
X29667447Y-48152459D01*
X29391787Y-48304004D01*
X29391782Y-48304007D01*
X29148972Y-48480418D01*
X29148971Y-48480419D01*
X29789819Y-49121266D01*
X29599130Y-49284130D01*
X29436266Y-49474819D01*
X28798286Y-48836838D01*
X28798285Y-48836838D01*
X28707459Y-48946629D01*
X28707457Y-48946632D01*
X28538903Y-49212232D01*
X28538900Y-49212238D01*
X28404965Y-49496862D01*
X28404963Y-49496867D01*
X28307755Y-49796041D01*
X28248808Y-50105050D01*
X28248807Y-50105057D01*
X28229057Y-50418994D01*
X28229057Y-50419005D01*
X23360500Y-50419005D01*
X23360500Y-35832606D01*
X23975642Y-35832606D01*
X23984559Y-35881266D01*
X23986821Y-35893612D01*
X23987384Y-35897313D01*
X23994859Y-35958870D01*
X23994860Y-35958874D01*
X23998451Y-35968343D01*
X24004474Y-35989946D01*
X24006304Y-35999930D01*
X24031759Y-36056490D01*
X24033189Y-36059941D01*
X24055182Y-36117930D01*
X24055183Y-36117931D01*
X24060936Y-36126266D01*
X24071961Y-36145813D01*
X24076120Y-36155055D01*
X24076122Y-36155057D01*
X24101285Y-36187176D01*
X24114371Y-36203878D01*
X24116591Y-36206896D01*
X24151812Y-36257924D01*
X24151816Y-36257928D01*
X24151817Y-36257929D01*
X24198250Y-36299064D01*
X24200941Y-36301598D01*
X25551725Y-37652382D01*
X26872972Y-38973629D01*
X26906457Y-39034952D01*
X26908819Y-39072117D01*
X26888532Y-39303994D01*
X26888532Y-39304001D01*
X26908364Y-39530686D01*
X26908366Y-39530697D01*
X26967258Y-39750488D01*
X26967261Y-39750497D01*
X27063431Y-39956732D01*
X27063432Y-39956734D01*
X27193954Y-40143141D01*
X27354858Y-40304045D01*
X27354861Y-40304047D01*
X27541266Y-40434568D01*
X27747504Y-40530739D01*
X27747509Y-40530740D01*
X27747511Y-40530741D01*
X27891136Y-40569225D01*
X27950797Y-40605590D01*
X27981326Y-40668437D01*
X27973031Y-40737812D01*
X27928546Y-40791690D01*
X27891136Y-40808775D01*
X27747511Y-40847258D01*
X27747502Y-40847261D01*
X27541267Y-40943431D01*
X27541265Y-40943432D01*
X27354858Y-41073954D01*
X27193954Y-41234858D01*
X27063432Y-41421265D01*
X27063431Y-41421267D01*
X26967261Y-41627502D01*
X26967258Y-41627511D01*
X26908366Y-41847302D01*
X26908364Y-41847313D01*
X26888532Y-42073998D01*
X26888532Y-42074001D01*
X26908364Y-42300686D01*
X26908366Y-42300697D01*
X26967258Y-42520488D01*
X26967261Y-42520497D01*
X27063431Y-42726732D01*
X27063432Y-42726734D01*
X27193954Y-42913141D01*
X27354858Y-43074045D01*
X27354861Y-43074047D01*
X27541266Y-43204568D01*
X27747504Y-43300739D01*
X27967308Y-43359635D01*
X28129230Y-43373801D01*
X28193998Y-43379468D01*
X28194000Y-43379468D01*
X28194002Y-43379468D01*
X28250673Y-43374509D01*
X28420692Y-43359635D01*
X28640496Y-43300739D01*
X28846734Y-43204568D01*
X29033139Y-43074047D01*
X29194047Y-42913139D01*
X29324568Y-42726734D01*
X29420739Y-42520496D01*
X29479635Y-42300692D01*
X29499468Y-42074000D01*
X29479635Y-41847308D01*
X29420739Y-41627504D01*
X29324568Y-41421266D01*
X29226839Y-41281693D01*
X29194045Y-41234858D01*
X29033141Y-41073954D01*
X28846734Y-40943432D01*
X28846732Y-40943431D01*
X28640497Y-40847261D01*
X28640488Y-40847258D01*
X28517966Y-40814429D01*
X28496862Y-40808774D01*
X28437202Y-40772410D01*
X28406673Y-40709563D01*
X28409132Y-40689001D01*
X29728532Y-40689001D01*
X29748364Y-40915686D01*
X29748366Y-40915697D01*
X29807258Y-41135488D01*
X29807261Y-41135497D01*
X29903431Y-41341732D01*
X29903432Y-41341734D01*
X30033954Y-41528141D01*
X30194858Y-41689045D01*
X30194861Y-41689047D01*
X30381266Y-41819568D01*
X30587504Y-41915739D01*
X30587506Y-41915739D01*
X30592598Y-41917593D01*
X30591836Y-41919684D01*
X30643343Y-41951047D01*
X30673902Y-42013880D01*
X30665639Y-42083260D01*
X30621179Y-42137158D01*
X30554637Y-42158463D01*
X30551628Y-42158500D01*
X30186130Y-42158500D01*
X30186123Y-42158501D01*
X30126516Y-42164908D01*
X29991671Y-42215202D01*
X29991664Y-42215206D01*
X29876455Y-42301452D01*
X29876452Y-42301455D01*
X29790206Y-42416664D01*
X29790202Y-42416671D01*
X29739908Y-42551517D01*
X29737197Y-42576739D01*
X29733501Y-42611123D01*
X29733500Y-42611135D01*
X29733500Y-44306870D01*
X29733501Y-44306876D01*
X29739908Y-44366483D01*
X29790202Y-44501328D01*
X29790206Y-44501335D01*
X29876452Y-44616544D01*
X29876455Y-44616547D01*
X29991664Y-44702793D01*
X29991671Y-44702797D01*
X30126517Y-44753091D01*
X30126516Y-44753091D01*
X30133444Y-44753835D01*
X30186127Y-44759500D01*
X31881872Y-44759499D01*
X31941483Y-44753091D01*
X32076331Y-44702796D01*
X32191546Y-44616546D01*
X32277796Y-44501331D01*
X32328091Y-44366483D01*
X32334500Y-44306873D01*
X32334499Y-42611128D01*
X32329299Y-42562757D01*
X32328091Y-42551516D01*
X32277797Y-42416671D01*
X32277793Y-42416664D01*
X32191547Y-42301455D01*
X32191544Y-42301452D01*
X32076335Y-42215206D01*
X32076328Y-42215202D01*
X31941482Y-42164908D01*
X31941483Y-42164908D01*
X31881883Y-42158501D01*
X31881881Y-42158500D01*
X31881873Y-42158500D01*
X31881865Y-42158500D01*
X31516373Y-42158500D01*
X31449334Y-42138815D01*
X31403579Y-42086011D01*
X31393635Y-42016853D01*
X31422660Y-41953297D01*
X31475935Y-41919059D01*
X31475402Y-41917593D01*
X31480489Y-41915740D01*
X31480496Y-41915739D01*
X31686734Y-41819568D01*
X31873139Y-41689047D01*
X32034047Y-41528139D01*
X32094096Y-41442377D01*
X32148675Y-41398752D01*
X32195673Y-41389500D01*
X36029481Y-41389500D01*
X36096520Y-41409185D01*
X36117162Y-41425819D01*
X42697181Y-48005838D01*
X42730666Y-48067161D01*
X42733500Y-48093519D01*
X42733500Y-52046951D01*
X42733387Y-52050696D01*
X42729642Y-52112603D01*
X42729642Y-52112605D01*
X42740821Y-52173612D01*
X42741384Y-52177313D01*
X42748859Y-52238870D01*
X42748860Y-52238874D01*
X42752451Y-52248343D01*
X42758474Y-52269946D01*
X42760304Y-52279930D01*
X42785759Y-52336490D01*
X42787189Y-52339941D01*
X42809182Y-52397930D01*
X42809183Y-52397931D01*
X42814936Y-52406266D01*
X42825961Y-52425813D01*
X42830120Y-52435055D01*
X42830124Y-52435060D01*
X42868371Y-52483878D01*
X42870591Y-52486896D01*
X42905812Y-52537924D01*
X42905816Y-52537928D01*
X42905817Y-52537929D01*
X42952250Y-52579064D01*
X42954941Y-52581598D01*
X47442399Y-57069056D01*
X47444935Y-57071750D01*
X47486071Y-57118183D01*
X47517431Y-57139829D01*
X47537110Y-57153413D01*
X47540127Y-57155633D01*
X47588938Y-57193874D01*
X47588943Y-57193877D01*
X47598174Y-57198031D01*
X47617727Y-57209059D01*
X47626070Y-57214818D01*
X47684057Y-57236809D01*
X47687512Y-57238239D01*
X47697498Y-57242734D01*
X47744063Y-57263692D01*
X47744064Y-57263692D01*
X47744068Y-57263694D01*
X47754030Y-57265519D01*
X47775651Y-57271546D01*
X47785125Y-57275139D01*
X47785128Y-57275140D01*
X47792689Y-57276058D01*
X47846689Y-57282615D01*
X47850386Y-57283177D01*
X47911394Y-57294357D01*
X47911395Y-57294356D01*
X47911396Y-57294357D01*
X47973293Y-57290613D01*
X47977037Y-57290500D01*
X48918327Y-57290500D01*
X48985366Y-57310185D01*
X49019902Y-57343377D01*
X49079954Y-57429141D01*
X49240858Y-57590045D01*
X49240861Y-57590047D01*
X49427266Y-57720568D01*
X49485275Y-57747618D01*
X49537714Y-57793791D01*
X49556866Y-57860984D01*
X49536650Y-57927865D01*
X49485275Y-57972382D01*
X49427267Y-57999431D01*
X49427265Y-57999432D01*
X49240858Y-58129954D01*
X49079954Y-58290858D01*
X48949432Y-58477265D01*
X48949431Y-58477267D01*
X48853261Y-58683502D01*
X48853258Y-58683511D01*
X48794366Y-58903302D01*
X48794364Y-58903313D01*
X48774532Y-59129998D01*
X48774532Y-59130001D01*
X48794364Y-59356686D01*
X48794366Y-59356697D01*
X48853258Y-59576488D01*
X48853261Y-59576497D01*
X48949431Y-59782732D01*
X48949432Y-59782734D01*
X49079954Y-59969141D01*
X49240858Y-60130045D01*
X49370757Y-60221000D01*
X49427266Y-60260568D01*
X49485278Y-60287619D01*
X49537713Y-60333788D01*
X49556866Y-60400982D01*
X49536651Y-60467863D01*
X49485277Y-60512380D01*
X49427268Y-60539430D01*
X49427265Y-60539432D01*
X49240858Y-60669954D01*
X49079954Y-60830858D01*
X48949432Y-61017265D01*
X48949431Y-61017267D01*
X48853261Y-61223502D01*
X48853258Y-61223511D01*
X48794366Y-61443302D01*
X48794364Y-61443313D01*
X48774532Y-61669998D01*
X48774532Y-61670001D01*
X48794364Y-61896686D01*
X48794366Y-61896697D01*
X48853258Y-62116488D01*
X48853261Y-62116497D01*
X48949431Y-62322732D01*
X48949432Y-62322734D01*
X49079954Y-62509141D01*
X49240858Y-62670045D01*
X49326621Y-62730096D01*
X49427266Y-62800568D01*
X49485278Y-62827619D01*
X49537713Y-62873788D01*
X49556866Y-62940982D01*
X49536651Y-63007863D01*
X49485277Y-63052380D01*
X49427268Y-63079430D01*
X49427265Y-63079432D01*
X49240858Y-63209954D01*
X49079954Y-63370858D01*
X48949432Y-63557265D01*
X48949431Y-63557267D01*
X48853261Y-63763502D01*
X48853258Y-63763511D01*
X48794366Y-63983302D01*
X48794364Y-63983313D01*
X48774532Y-64209998D01*
X48774532Y-64210001D01*
X48794364Y-64436686D01*
X48794366Y-64436697D01*
X48853258Y-64656488D01*
X48853261Y-64656497D01*
X48949431Y-64862732D01*
X48949432Y-64862734D01*
X49079954Y-65049141D01*
X49240858Y-65210045D01*
X49240861Y-65210047D01*
X49427266Y-65340568D01*
X49485865Y-65367893D01*
X49538305Y-65414065D01*
X49557457Y-65481258D01*
X49537242Y-65548139D01*
X49485867Y-65592657D01*
X49427515Y-65619867D01*
X49241179Y-65750342D01*
X49080342Y-65911179D01*
X48949865Y-66097517D01*
X48853734Y-66303673D01*
X48853730Y-66303682D01*
X48801127Y-66499999D01*
X48801128Y-66500000D01*
X49764314Y-66500000D01*
X49752359Y-66511955D01*
X49694835Y-66624852D01*
X49675014Y-66750000D01*
X49694835Y-66875148D01*
X49752359Y-66988045D01*
X49764314Y-67000000D01*
X48801128Y-67000000D01*
X48853730Y-67196317D01*
X48853734Y-67196326D01*
X48949865Y-67402482D01*
X49080342Y-67588820D01*
X49241179Y-67749657D01*
X49427517Y-67880134D01*
X49633673Y-67976265D01*
X49633682Y-67976269D01*
X49829999Y-68028872D01*
X49830000Y-68028871D01*
X49830000Y-67065686D01*
X49841955Y-67077641D01*
X49954852Y-67135165D01*
X50048519Y-67150000D01*
X50111481Y-67150000D01*
X50205148Y-67135165D01*
X50318045Y-67077641D01*
X50330000Y-67065685D01*
X50330000Y-68028872D01*
X50526317Y-67976269D01*
X50526326Y-67976265D01*
X50732482Y-67880134D01*
X50918820Y-67749657D01*
X51079657Y-67588820D01*
X51210134Y-67402482D01*
X51306265Y-67196326D01*
X51306269Y-67196317D01*
X51358872Y-67000000D01*
X50395686Y-67000000D01*
X50407641Y-66988045D01*
X50465165Y-66875148D01*
X50484986Y-66750000D01*
X50465165Y-66624852D01*
X50407641Y-66511955D01*
X50395686Y-66500000D01*
X51358872Y-66500000D01*
X51358872Y-66499999D01*
X51306269Y-66303682D01*
X51306265Y-66303673D01*
X51210134Y-66097517D01*
X51079657Y-65911179D01*
X50918820Y-65750342D01*
X50732482Y-65619865D01*
X50674133Y-65592657D01*
X50621694Y-65546484D01*
X50602542Y-65479291D01*
X50622758Y-65412410D01*
X50674129Y-65367895D01*
X50732734Y-65340568D01*
X50919139Y-65210047D01*
X51080047Y-65049139D01*
X51210568Y-64862734D01*
X51306739Y-64656496D01*
X51365635Y-64436692D01*
X51385468Y-64210000D01*
X51365635Y-63983308D01*
X51306739Y-63763504D01*
X51210568Y-63557266D01*
X51080047Y-63370861D01*
X51080045Y-63370858D01*
X50919141Y-63209954D01*
X50732734Y-63079432D01*
X50732728Y-63079429D01*
X50674725Y-63052382D01*
X50622285Y-63006210D01*
X50603133Y-62939017D01*
X50623348Y-62872135D01*
X50674725Y-62827618D01*
X50732734Y-62800568D01*
X50919139Y-62670047D01*
X51080047Y-62509139D01*
X51210568Y-62322734D01*
X51306739Y-62116496D01*
X51365635Y-61896692D01*
X51385468Y-61670000D01*
X51365635Y-61443308D01*
X51320916Y-61276415D01*
X51306741Y-61223511D01*
X51306738Y-61223502D01*
X51249839Y-61101483D01*
X51210568Y-61017266D01*
X51080047Y-60830861D01*
X51080045Y-60830858D01*
X50919141Y-60669954D01*
X50732734Y-60539432D01*
X50732728Y-60539429D01*
X50674725Y-60512382D01*
X50622285Y-60466210D01*
X50603133Y-60399017D01*
X50623348Y-60332135D01*
X50674725Y-60287618D01*
X50732734Y-60260568D01*
X50919139Y-60130047D01*
X51080047Y-59969139D01*
X51210568Y-59782734D01*
X51306739Y-59576496D01*
X51365635Y-59356692D01*
X51385468Y-59130000D01*
X51383451Y-59106951D01*
X51365635Y-58903313D01*
X51365635Y-58903312D01*
X51365635Y-58903308D01*
X51306739Y-58683504D01*
X51210568Y-58477266D01*
X51080047Y-58290861D01*
X51080045Y-58290858D01*
X50919141Y-58129954D01*
X50732734Y-57999432D01*
X50732728Y-57999429D01*
X50674725Y-57972382D01*
X50622285Y-57926210D01*
X50603133Y-57859017D01*
X50623348Y-57792135D01*
X50674725Y-57747618D01*
X50732734Y-57720568D01*
X50919139Y-57590047D01*
X51080047Y-57429139D01*
X51210568Y-57242734D01*
X51306739Y-57036496D01*
X51365635Y-56816692D01*
X51385468Y-56590000D01*
X51384599Y-56580072D01*
X51365635Y-56363313D01*
X51365635Y-56363308D01*
X51320916Y-56196415D01*
X51306741Y-56143511D01*
X51306738Y-56143502D01*
X51248319Y-56018223D01*
X51210568Y-55937266D01*
X51080047Y-55750861D01*
X51080045Y-55750858D01*
X50919141Y-55589954D01*
X50732734Y-55459432D01*
X50732728Y-55459429D01*
X50674882Y-55432455D01*
X50674724Y-55432381D01*
X50622285Y-55386210D01*
X50603133Y-55319017D01*
X50623348Y-55252135D01*
X50674725Y-55207618D01*
X50675319Y-55207341D01*
X50732734Y-55180568D01*
X50919139Y-55050047D01*
X51080047Y-54889139D01*
X51210568Y-54702734D01*
X51306739Y-54496496D01*
X51365635Y-54276692D01*
X51385468Y-54050000D01*
X51365635Y-53823308D01*
X51306739Y-53603504D01*
X51210568Y-53397266D01*
X51080047Y-53210861D01*
X51080045Y-53210858D01*
X50919143Y-53049956D01*
X50894536Y-53032726D01*
X50850912Y-52978149D01*
X50843719Y-52908650D01*
X50875241Y-52846296D01*
X50935471Y-52810882D01*
X50952404Y-52807861D01*
X50987483Y-52804091D01*
X51122331Y-52753796D01*
X51237546Y-52667546D01*
X51323796Y-52552331D01*
X51374091Y-52417483D01*
X51380500Y-52357873D01*
X51380499Y-50662128D01*
X51374091Y-50602517D01*
X51369353Y-50589815D01*
X51323797Y-50467671D01*
X51323793Y-50467664D01*
X51237547Y-50352455D01*
X51237544Y-50352452D01*
X51122335Y-50266206D01*
X51122328Y-50266202D01*
X50987482Y-50215908D01*
X50987483Y-50215908D01*
X50927883Y-50209501D01*
X50927881Y-50209500D01*
X50927873Y-50209500D01*
X50927864Y-50209500D01*
X49232129Y-50209500D01*
X49232123Y-50209501D01*
X49172516Y-50215908D01*
X49037671Y-50266202D01*
X49037664Y-50266206D01*
X48922455Y-50352452D01*
X48922452Y-50352455D01*
X48836206Y-50467664D01*
X48836202Y-50467671D01*
X48785908Y-50602517D01*
X48781257Y-50645784D01*
X48779501Y-50662123D01*
X48779500Y-50662135D01*
X48779500Y-52357870D01*
X48779501Y-52357876D01*
X48785908Y-52417483D01*
X48836202Y-52552328D01*
X48836206Y-52552335D01*
X48922452Y-52667544D01*
X48922455Y-52667547D01*
X49037664Y-52753793D01*
X49037671Y-52753797D01*
X49082618Y-52770561D01*
X49172517Y-52804091D01*
X49207596Y-52807862D01*
X49272144Y-52834599D01*
X49311993Y-52891991D01*
X49314488Y-52961816D01*
X49278836Y-53021905D01*
X49265464Y-53032725D01*
X49240858Y-53049954D01*
X49079954Y-53210858D01*
X48949432Y-53397265D01*
X48949431Y-53397267D01*
X48853261Y-53603502D01*
X48853258Y-53603511D01*
X48794366Y-53823302D01*
X48794364Y-53823313D01*
X48774532Y-54049998D01*
X48774532Y-54050001D01*
X48794364Y-54276686D01*
X48794366Y-54276697D01*
X48853258Y-54496488D01*
X48853261Y-54496497D01*
X48949431Y-54702732D01*
X48949432Y-54702734D01*
X49079954Y-54889141D01*
X49240858Y-55050045D01*
X49280914Y-55078092D01*
X49427266Y-55180568D01*
X49450384Y-55191348D01*
X49485275Y-55207618D01*
X49537714Y-55253791D01*
X49556866Y-55320984D01*
X49536650Y-55387865D01*
X49485275Y-55432381D01*
X49485118Y-55432455D01*
X49427267Y-55459431D01*
X49427265Y-55459432D01*
X49240858Y-55589954D01*
X49079954Y-55750858D01*
X49019902Y-55836623D01*
X48965325Y-55880248D01*
X48918327Y-55889500D01*
X48295519Y-55889500D01*
X48228480Y-55869815D01*
X48207838Y-55853181D01*
X44170819Y-51816162D01*
X44137334Y-51754839D01*
X44134500Y-51728481D01*
X44134500Y-47775035D01*
X44134613Y-47771290D01*
X44138357Y-47709394D01*
X44127177Y-47648386D01*
X44126615Y-47644689D01*
X44119685Y-47587618D01*
X44119140Y-47583128D01*
X44115546Y-47573651D01*
X44109519Y-47552029D01*
X44107694Y-47542070D01*
X44107694Y-47542068D01*
X44082239Y-47485512D01*
X44080809Y-47482057D01*
X44058818Y-47424070D01*
X44053059Y-47415727D01*
X44042030Y-47396172D01*
X44037877Y-47386943D01*
X44037874Y-47386938D01*
X43999633Y-47338127D01*
X43997413Y-47335110D01*
X43971748Y-47297929D01*
X43962183Y-47284071D01*
X43915750Y-47242935D01*
X43913056Y-47240399D01*
X43102659Y-46430002D01*
X48775034Y-46430002D01*
X48794858Y-46656599D01*
X48794860Y-46656610D01*
X48853730Y-46876317D01*
X48853734Y-46876326D01*
X48949865Y-47082481D01*
X48949866Y-47082483D01*
X49000973Y-47155471D01*
X49000974Y-47155472D01*
X49682046Y-46474399D01*
X49694835Y-46555148D01*
X49752359Y-46668045D01*
X49841955Y-46757641D01*
X49954852Y-46815165D01*
X50035599Y-46827953D01*
X49354526Y-47509025D01*
X49354526Y-47509026D01*
X49427512Y-47560131D01*
X49427516Y-47560133D01*
X49633673Y-47656265D01*
X49633682Y-47656269D01*
X49853389Y-47715139D01*
X49853400Y-47715141D01*
X50079998Y-47734966D01*
X50080002Y-47734966D01*
X50306599Y-47715141D01*
X50306610Y-47715139D01*
X50526317Y-47656269D01*
X50526331Y-47656264D01*
X50732478Y-47560136D01*
X50805472Y-47509025D01*
X50124401Y-46827953D01*
X50205148Y-46815165D01*
X50318045Y-46757641D01*
X50407641Y-46668045D01*
X50465165Y-46555148D01*
X50477953Y-46474400D01*
X51159025Y-47155472D01*
X51210136Y-47082478D01*
X51306264Y-46876331D01*
X51306269Y-46876317D01*
X51365139Y-46656610D01*
X51365141Y-46656599D01*
X51384966Y-46430002D01*
X51384966Y-46429997D01*
X51365141Y-46203400D01*
X51365139Y-46203389D01*
X51306269Y-45983682D01*
X51306265Y-45983673D01*
X51210133Y-45777516D01*
X51210131Y-45777512D01*
X51159026Y-45704526D01*
X51159025Y-45704526D01*
X50477953Y-46385598D01*
X50465165Y-46304852D01*
X50407641Y-46191955D01*
X50318045Y-46102359D01*
X50205148Y-46044835D01*
X50124400Y-46032046D01*
X50805472Y-45350974D01*
X50805471Y-45350973D01*
X50732483Y-45299866D01*
X50732481Y-45299865D01*
X50526326Y-45203734D01*
X50526317Y-45203730D01*
X50306610Y-45144860D01*
X50306599Y-45144858D01*
X50080002Y-45125034D01*
X50079998Y-45125034D01*
X49853400Y-45144858D01*
X49853389Y-45144860D01*
X49633682Y-45203730D01*
X49633673Y-45203734D01*
X49427513Y-45299868D01*
X49354527Y-45350972D01*
X49354526Y-45350973D01*
X50035600Y-46032046D01*
X49954852Y-46044835D01*
X49841955Y-46102359D01*
X49752359Y-46191955D01*
X49694835Y-46304852D01*
X49682046Y-46385599D01*
X49000973Y-45704526D01*
X49000972Y-45704527D01*
X48949868Y-45777513D01*
X48853734Y-45983673D01*
X48853730Y-45983682D01*
X48794860Y-46203389D01*
X48794858Y-46203400D01*
X48775034Y-46429997D01*
X48775034Y-46430002D01*
X43102659Y-46430002D01*
X36882598Y-40209941D01*
X36880064Y-40207250D01*
X36838929Y-40160817D01*
X36838928Y-40160816D01*
X36838924Y-40160812D01*
X36787896Y-40125591D01*
X36784887Y-40123377D01*
X36736060Y-40085124D01*
X36736055Y-40085120D01*
X36726813Y-40080961D01*
X36707266Y-40069936D01*
X36698931Y-40064183D01*
X36698932Y-40064183D01*
X36698930Y-40064182D01*
X36640941Y-40042189D01*
X36637490Y-40040759D01*
X36580930Y-40015304D01*
X36570946Y-40013474D01*
X36549343Y-40007451D01*
X36539874Y-40003860D01*
X36539870Y-40003859D01*
X36478313Y-39996384D01*
X36474612Y-39995821D01*
X36413608Y-39984642D01*
X36413603Y-39984642D01*
X36351697Y-39988387D01*
X36347952Y-39988500D01*
X32195673Y-39988500D01*
X32128634Y-39968815D01*
X32094098Y-39935623D01*
X32034045Y-39849858D01*
X31873141Y-39688954D01*
X31686734Y-39558432D01*
X31686732Y-39558431D01*
X31480497Y-39462261D01*
X31480488Y-39462258D01*
X31357966Y-39429429D01*
X31336862Y-39423774D01*
X31277202Y-39387410D01*
X31246673Y-39324563D01*
X31254968Y-39255188D01*
X31299453Y-39201310D01*
X31336862Y-39184225D01*
X31480496Y-39145739D01*
X31686734Y-39049568D01*
X31873139Y-38919047D01*
X32034047Y-38758139D01*
X32164568Y-38571734D01*
X32260739Y-38365496D01*
X32319635Y-38145692D01*
X32339468Y-37919000D01*
X32335197Y-37870188D01*
X32329928Y-37809954D01*
X32319635Y-37692308D01*
X32267233Y-37496739D01*
X32260741Y-37472511D01*
X32260738Y-37472502D01*
X32255127Y-37460470D01*
X32164568Y-37266266D01*
X32054549Y-37109141D01*
X32034045Y-37079858D01*
X31873141Y-36918954D01*
X31686734Y-36788432D01*
X31686732Y-36788431D01*
X31480497Y-36692261D01*
X31480488Y-36692258D01*
X31357966Y-36659429D01*
X31336862Y-36653774D01*
X31277202Y-36617410D01*
X31246673Y-36554563D01*
X31254968Y-36485188D01*
X31299453Y-36431310D01*
X31336862Y-36414225D01*
X31480496Y-36375739D01*
X31686734Y-36279568D01*
X31873139Y-36149047D01*
X32034047Y-35988139D01*
X32164568Y-35801734D01*
X32260739Y-35595496D01*
X32319635Y-35375692D01*
X32339468Y-35149000D01*
X32337772Y-35129620D01*
X32325064Y-34984364D01*
X32319635Y-34922308D01*
X32260739Y-34702504D01*
X32164568Y-34496266D01*
X32034047Y-34309861D01*
X32034045Y-34309858D01*
X31873141Y-34148954D01*
X31686734Y-34018432D01*
X31686732Y-34018431D01*
X31480497Y-33922261D01*
X31480488Y-33922258D01*
X31335898Y-33883516D01*
X31276237Y-33847151D01*
X31245708Y-33784304D01*
X31254003Y-33714929D01*
X31298488Y-33661051D01*
X31335898Y-33643966D01*
X31480317Y-33605269D01*
X31480331Y-33605264D01*
X31686478Y-33509136D01*
X31759472Y-33458025D01*
X31166534Y-32865086D01*
X31176315Y-32863680D01*
X31307100Y-32803952D01*
X31415761Y-32709798D01*
X31493493Y-32588844D01*
X31517077Y-32508523D01*
X32113025Y-33104472D01*
X32164136Y-33031478D01*
X32260264Y-32825331D01*
X32260269Y-32825317D01*
X32319139Y-32605610D01*
X32319141Y-32605599D01*
X32338966Y-32379002D01*
X32338966Y-32378997D01*
X32319141Y-32152400D01*
X32319139Y-32152389D01*
X32260269Y-31932682D01*
X32260265Y-31932673D01*
X32164133Y-31726516D01*
X32164131Y-31726512D01*
X32113026Y-31653526D01*
X32113025Y-31653526D01*
X31517076Y-32249474D01*
X31493493Y-32169156D01*
X31415761Y-32048202D01*
X31307100Y-31954048D01*
X31176315Y-31894320D01*
X31166533Y-31892913D01*
X31759472Y-31299974D01*
X31759471Y-31299973D01*
X31686483Y-31248866D01*
X31686481Y-31248865D01*
X31480326Y-31152734D01*
X31480317Y-31152730D01*
X31260610Y-31093860D01*
X31260599Y-31093858D01*
X31034002Y-31074034D01*
X31033998Y-31074034D01*
X30807400Y-31093858D01*
X30807389Y-31093860D01*
X30587682Y-31152730D01*
X30587673Y-31152734D01*
X30381513Y-31248868D01*
X30308527Y-31299972D01*
X30308526Y-31299973D01*
X30901467Y-31892913D01*
X30891685Y-31894320D01*
X30760900Y-31954048D01*
X30652239Y-32048202D01*
X30574507Y-32169156D01*
X30550923Y-32249475D01*
X29954973Y-31653526D01*
X29903868Y-31726513D01*
X29807734Y-31932673D01*
X29807730Y-31932682D01*
X29748860Y-32152389D01*
X29748858Y-32152400D01*
X29729034Y-32378997D01*
X29729034Y-32379002D01*
X29748858Y-32605599D01*
X29748860Y-32605610D01*
X29807730Y-32825317D01*
X29807734Y-32825326D01*
X29903865Y-33031481D01*
X29903866Y-33031483D01*
X29954973Y-33104471D01*
X29954973Y-33104472D01*
X30550922Y-32508522D01*
X30574507Y-32588844D01*
X30652239Y-32709798D01*
X30760900Y-32803952D01*
X30891685Y-32863680D01*
X30901466Y-32865086D01*
X30308526Y-33458025D01*
X30308526Y-33458026D01*
X30381512Y-33509131D01*
X30381516Y-33509133D01*
X30587673Y-33605265D01*
X30587682Y-33605269D01*
X30732101Y-33643966D01*
X30791762Y-33680331D01*
X30822291Y-33743178D01*
X30813996Y-33812553D01*
X30769511Y-33866431D01*
X30732102Y-33883516D01*
X30587508Y-33922259D01*
X30587502Y-33922261D01*
X30381267Y-34018431D01*
X30381265Y-34018432D01*
X30194858Y-34148954D01*
X30033954Y-34309858D01*
X29903432Y-34496265D01*
X29903431Y-34496267D01*
X29807261Y-34702502D01*
X29807258Y-34702511D01*
X29748366Y-34922302D01*
X29748364Y-34922313D01*
X29728532Y-35148998D01*
X29728532Y-35149001D01*
X29748364Y-35375686D01*
X29748366Y-35375697D01*
X29807258Y-35595488D01*
X29807261Y-35595497D01*
X29903431Y-35801732D01*
X29903432Y-35801734D01*
X30033954Y-35988141D01*
X30194858Y-36149045D01*
X30234311Y-36176670D01*
X30381266Y-36279568D01*
X30587504Y-36375739D01*
X30587509Y-36375740D01*
X30587511Y-36375741D01*
X30731136Y-36414225D01*
X30790797Y-36450590D01*
X30821326Y-36513437D01*
X30813031Y-36582812D01*
X30768546Y-36636690D01*
X30731136Y-36653775D01*
X30587511Y-36692258D01*
X30587502Y-36692261D01*
X30381267Y-36788431D01*
X30381265Y-36788432D01*
X30194858Y-36918954D01*
X30033954Y-37079858D01*
X29903432Y-37266265D01*
X29903431Y-37266267D01*
X29807261Y-37472502D01*
X29807258Y-37472511D01*
X29748366Y-37692302D01*
X29748364Y-37692313D01*
X29728532Y-37918998D01*
X29728532Y-37919001D01*
X29748364Y-38145686D01*
X29748366Y-38145697D01*
X29807258Y-38365488D01*
X29807261Y-38365497D01*
X29903431Y-38571732D01*
X29903432Y-38571734D01*
X30033954Y-38758141D01*
X30194858Y-38919045D01*
X30194861Y-38919047D01*
X30381266Y-39049568D01*
X30587504Y-39145739D01*
X30587509Y-39145740D01*
X30587511Y-39145741D01*
X30731136Y-39184225D01*
X30790797Y-39220590D01*
X30821326Y-39283437D01*
X30813031Y-39352812D01*
X30768546Y-39406690D01*
X30731136Y-39423775D01*
X30587511Y-39462258D01*
X30587502Y-39462261D01*
X30381267Y-39558431D01*
X30381265Y-39558432D01*
X30194858Y-39688954D01*
X30033954Y-39849858D01*
X29903432Y-40036265D01*
X29903431Y-40036267D01*
X29807261Y-40242502D01*
X29807258Y-40242511D01*
X29748366Y-40462302D01*
X29748364Y-40462313D01*
X29728532Y-40688998D01*
X29728532Y-40689001D01*
X28409132Y-40689001D01*
X28414968Y-40640188D01*
X28459453Y-40586310D01*
X28496862Y-40569225D01*
X28640496Y-40530739D01*
X28846734Y-40434568D01*
X29033139Y-40304047D01*
X29194047Y-40143139D01*
X29324568Y-39956734D01*
X29420739Y-39750496D01*
X29479635Y-39530692D01*
X29499468Y-39304000D01*
X29499468Y-39303994D01*
X29488650Y-39180349D01*
X29479635Y-39077308D01*
X29420739Y-38857504D01*
X29324568Y-38651266D01*
X29194047Y-38464861D01*
X29194045Y-38464858D01*
X29033141Y-38303954D01*
X28846734Y-38173432D01*
X28846732Y-38173431D01*
X28640497Y-38077261D01*
X28640488Y-38077258D01*
X28517966Y-38044429D01*
X28496862Y-38038774D01*
X28437202Y-38002410D01*
X28406673Y-37939563D01*
X28414968Y-37870188D01*
X28459453Y-37816310D01*
X28496862Y-37799225D01*
X28640496Y-37760739D01*
X28846734Y-37664568D01*
X29033139Y-37534047D01*
X29194047Y-37373139D01*
X29324568Y-37186734D01*
X29420739Y-36980496D01*
X29479635Y-36760692D01*
X29498474Y-36545357D01*
X29499468Y-36534001D01*
X29499468Y-36533998D01*
X29479635Y-36307313D01*
X29479635Y-36307308D01*
X29420739Y-36087504D01*
X29324568Y-35881266D01*
X29194047Y-35694861D01*
X29194045Y-35694858D01*
X29033141Y-35533954D01*
X28846734Y-35403432D01*
X28846732Y-35403431D01*
X28640497Y-35307261D01*
X28640488Y-35307258D01*
X28513964Y-35273357D01*
X28496862Y-35268774D01*
X28437202Y-35232410D01*
X28406673Y-35169563D01*
X28414968Y-35100188D01*
X28459453Y-35046310D01*
X28496862Y-35029225D01*
X28640496Y-34990739D01*
X28846734Y-34894568D01*
X29033139Y-34764047D01*
X29194047Y-34603139D01*
X29324568Y-34416734D01*
X29420739Y-34210496D01*
X29479635Y-33990692D01*
X29499468Y-33764000D01*
X29496493Y-33730001D01*
X29487428Y-33626386D01*
X29479635Y-33537308D01*
X29420739Y-33317504D01*
X29324568Y-33111266D01*
X29194047Y-32924861D01*
X29194045Y-32924858D01*
X29033141Y-32763954D01*
X28846734Y-32633432D01*
X28846732Y-32633431D01*
X28640497Y-32537261D01*
X28640488Y-32537258D01*
X28420697Y-32478366D01*
X28420693Y-32478365D01*
X28420692Y-32478365D01*
X28420691Y-32478364D01*
X28420686Y-32478364D01*
X28194002Y-32458532D01*
X28193998Y-32458532D01*
X27967313Y-32478364D01*
X27967302Y-32478366D01*
X27747511Y-32537258D01*
X27747502Y-32537261D01*
X27541267Y-32633431D01*
X27541265Y-32633432D01*
X27354858Y-32763954D01*
X27193954Y-32924858D01*
X27063432Y-33111265D01*
X27063431Y-33111267D01*
X26967261Y-33317502D01*
X26967258Y-33317511D01*
X26908366Y-33537302D01*
X26908364Y-33537313D01*
X26888532Y-33763998D01*
X26888532Y-33764001D01*
X26908364Y-33990686D01*
X26908366Y-33990697D01*
X26967258Y-34210488D01*
X26967261Y-34210497D01*
X27063431Y-34416732D01*
X27063432Y-34416734D01*
X27193954Y-34603141D01*
X27354858Y-34764045D01*
X27354861Y-34764047D01*
X27541266Y-34894568D01*
X27747504Y-34990739D01*
X27747509Y-34990740D01*
X27747511Y-34990741D01*
X27891136Y-35029225D01*
X27950797Y-35065590D01*
X27981326Y-35128437D01*
X27973031Y-35197812D01*
X27928546Y-35251690D01*
X27891136Y-35268775D01*
X27747511Y-35307258D01*
X27747502Y-35307261D01*
X27541267Y-35403431D01*
X27541265Y-35403432D01*
X27354858Y-35533954D01*
X27193954Y-35694858D01*
X27063432Y-35881265D01*
X27063431Y-35881267D01*
X26967261Y-36087502D01*
X26967258Y-36087511D01*
X26908366Y-36307302D01*
X26908364Y-36307313D01*
X26888532Y-36533998D01*
X26888532Y-36534002D01*
X26904272Y-36713918D01*
X26890505Y-36782418D01*
X26841890Y-36832601D01*
X26773861Y-36848534D01*
X26708018Y-36825158D01*
X26693063Y-36812406D01*
X25416818Y-35536161D01*
X25383333Y-35474838D01*
X25380499Y-35448489D01*
X25380500Y-31531517D01*
X25400185Y-31464479D01*
X25416819Y-31443837D01*
X27473838Y-29386819D01*
X27535161Y-29353334D01*
X27561519Y-29350500D01*
X38758327Y-29350500D01*
X38825366Y-29370185D01*
X38859902Y-29403377D01*
X38919954Y-29489141D01*
X39080858Y-29650045D01*
X39080861Y-29650047D01*
X39267266Y-29780568D01*
X39473504Y-29876739D01*
X39693308Y-29935635D01*
X39855230Y-29949801D01*
X39919998Y-29955468D01*
X39920000Y-29955468D01*
X39920002Y-29955468D01*
X39984637Y-29949813D01*
X40146692Y-29935635D01*
X40366496Y-29876739D01*
X40572734Y-29780568D01*
X40759139Y-29650047D01*
X40920047Y-29489139D01*
X41050568Y-29302734D01*
X41146739Y-29096496D01*
X41205635Y-28876692D01*
X41225468Y-28650000D01*
X41224642Y-28640564D01*
X41211041Y-28485097D01*
X41205635Y-28423308D01*
X41155088Y-28234662D01*
X41146741Y-28203511D01*
X41146738Y-28203502D01*
X41133140Y-28174341D01*
X41050568Y-27997266D01*
X40920047Y-27810861D01*
X40920045Y-27810858D01*
X40759141Y-27649954D01*
X40572734Y-27519432D01*
X40572732Y-27519431D01*
X40366497Y-27423261D01*
X40366488Y-27423258D01*
X40146697Y-27364366D01*
X40146693Y-27364365D01*
X40146692Y-27364365D01*
X40146691Y-27364364D01*
X40146686Y-27364364D01*
X39920002Y-27344532D01*
X39919998Y-27344532D01*
X39693313Y-27364364D01*
X39693302Y-27364366D01*
X39473511Y-27423258D01*
X39473502Y-27423261D01*
X39267267Y-27519431D01*
X39267265Y-27519432D01*
X39080858Y-27649954D01*
X38919954Y-27810858D01*
X38859902Y-27896623D01*
X38805325Y-27940248D01*
X38758327Y-27949500D01*
X31783898Y-27949500D01*
X31716859Y-27929815D01*
X31671104Y-27877011D01*
X31661160Y-27807853D01*
X31690185Y-27744297D01*
X31738250Y-27710208D01*
X31800549Y-27685541D01*
X31800552Y-27685540D01*
X32076209Y-27533996D01*
X32076219Y-27533990D01*
X32319026Y-27357579D01*
X32319027Y-27357579D01*
X31678180Y-26716733D01*
X31868870Y-26553870D01*
X32031733Y-26363180D01*
X32669712Y-27001160D01*
X32760544Y-26891364D01*
X32929096Y-26625767D01*
X32929099Y-26625761D01*
X33063034Y-26341137D01*
X33063036Y-26341132D01*
X33160244Y-26041958D01*
X33219191Y-25732949D01*
X33219192Y-25732942D01*
X33238943Y-25419005D01*
X33238943Y-25418994D01*
X33219192Y-25105057D01*
X33219191Y-25105050D01*
X33160244Y-24796041D01*
X33063036Y-24496867D01*
X33063034Y-24496862D01*
X32929099Y-24212238D01*
X32929096Y-24212232D01*
X32760542Y-23946632D01*
X32760539Y-23946628D01*
X32669712Y-23836838D01*
X32031732Y-24474818D01*
X31868870Y-24284130D01*
X31678180Y-24121266D01*
X32319027Y-23480419D01*
X32319026Y-23480417D01*
X32076227Y-23304014D01*
X32076209Y-23304003D01*
X31800552Y-23152459D01*
X31800544Y-23152455D01*
X31508073Y-23036659D01*
X31203379Y-22958426D01*
X31203370Y-22958424D01*
X30891298Y-22919000D01*
X30576701Y-22919000D01*
X30264629Y-22958424D01*
X30264620Y-22958426D01*
X29959926Y-23036659D01*
X29667455Y-23152455D01*
X29667447Y-23152459D01*
X29391787Y-23304004D01*
X29391782Y-23304007D01*
X29148972Y-23480418D01*
X29148971Y-23480419D01*
X29789819Y-24121266D01*
X29599130Y-24284130D01*
X29436266Y-24474819D01*
X28798286Y-23836838D01*
X28798285Y-23836838D01*
X28707459Y-23946629D01*
X28707457Y-23946632D01*
X28538903Y-24212232D01*
X28538900Y-24212238D01*
X28404965Y-24496862D01*
X28404963Y-24496867D01*
X28307755Y-24796041D01*
X28248808Y-25105050D01*
X28248807Y-25105057D01*
X28229057Y-25418994D01*
X28229057Y-25419005D01*
X28248807Y-25732942D01*
X28248808Y-25732949D01*
X28307755Y-26041958D01*
X28404963Y-26341132D01*
X28404965Y-26341137D01*
X28538900Y-26625761D01*
X28538903Y-26625767D01*
X28707457Y-26891367D01*
X28707460Y-26891371D01*
X28798286Y-27001160D01*
X29436266Y-26363179D01*
X29599130Y-26553870D01*
X29789818Y-26716732D01*
X29148971Y-27357579D01*
X29148972Y-27357581D01*
X29391772Y-27533985D01*
X29391790Y-27533996D01*
X29667447Y-27685540D01*
X29667450Y-27685541D01*
X29729750Y-27710208D01*
X29784835Y-27753189D01*
X29807938Y-27819128D01*
X29791724Y-27887091D01*
X29741341Y-27935498D01*
X29684102Y-27949500D01*
X27243036Y-27949500D01*
X27239292Y-27949387D01*
X27177397Y-27945643D01*
X27177390Y-27945643D01*
X27116402Y-27956819D01*
X27112701Y-27957382D01*
X27051125Y-27964860D01*
X27041642Y-27968456D01*
X27020038Y-27974478D01*
X27018535Y-27974754D01*
X27010065Y-27976306D01*
X27010063Y-27976307D01*
X26953527Y-28001752D01*
X26950069Y-28003184D01*
X26892069Y-28025182D01*
X26883724Y-28030942D01*
X26864183Y-28041964D01*
X26854944Y-28046122D01*
X26854939Y-28046125D01*
X26806121Y-28084370D01*
X26803106Y-28086589D01*
X26752072Y-28121816D01*
X26752065Y-28121822D01*
X26710942Y-28168240D01*
X26708375Y-28170966D01*
X24200966Y-30678375D01*
X24198240Y-30680942D01*
X24151818Y-30722068D01*
X24116586Y-30773109D01*
X24114368Y-30776124D01*
X24076124Y-30824939D01*
X24076119Y-30824948D01*
X24071960Y-30834188D01*
X24060942Y-30853723D01*
X24055187Y-30862061D01*
X24055183Y-30862067D01*
X24055182Y-30862070D01*
X24055180Y-30862074D01*
X24055179Y-30862077D01*
X24033189Y-30920055D01*
X24031757Y-30923513D01*
X24006305Y-30980068D01*
X24004477Y-30990042D01*
X23998453Y-31011653D01*
X23994860Y-31021127D01*
X23994859Y-31021128D01*
X23987384Y-31082685D01*
X23986821Y-31086386D01*
X23975642Y-31147390D01*
X23975642Y-31147395D01*
X23979387Y-31209302D01*
X23979500Y-31213047D01*
X23979500Y-35766951D01*
X23979387Y-35770696D01*
X23976193Y-35823504D01*
X23975642Y-35832606D01*
X23360500Y-35832606D01*
X23360500Y-21877870D01*
X38619500Y-21877870D01*
X38619501Y-21877876D01*
X38625908Y-21937483D01*
X38676202Y-22072328D01*
X38676206Y-22072335D01*
X38762452Y-22187544D01*
X38762455Y-22187547D01*
X38877664Y-22273793D01*
X38877671Y-22273797D01*
X39012517Y-22324091D01*
X39012516Y-22324091D01*
X39019444Y-22324835D01*
X39072127Y-22330500D01*
X40767872Y-22330499D01*
X40827483Y-22324091D01*
X40962331Y-22273796D01*
X41077546Y-22187546D01*
X41163796Y-22072331D01*
X41214091Y-21937483D01*
X41220500Y-21877873D01*
X41220500Y-21854499D01*
X41240185Y-21787461D01*
X41292989Y-21741706D01*
X41344500Y-21730500D01*
X43710494Y-21730500D01*
X43777533Y-21750185D01*
X43823288Y-21802989D01*
X43833232Y-21872147D01*
X43825058Y-21901945D01*
X43823444Y-21905841D01*
X43779715Y-22050000D01*
X44665729Y-22050000D01*
X44671809Y-22050299D01*
X44707776Y-22053841D01*
X44716145Y-22054665D01*
X44681722Y-22092059D01*
X44631449Y-22206670D01*
X44621114Y-22331395D01*
X44651837Y-22452719D01*
X44711801Y-22544500D01*
X44202129Y-22544500D01*
X44202125Y-22544501D01*
X44170406Y-22547910D01*
X44154273Y-22549645D01*
X44147646Y-22550000D01*
X43779714Y-22550000D01*
X43823677Y-22694928D01*
X43824300Y-22764795D01*
X43809629Y-22794435D01*
X43810454Y-22794886D01*
X43806202Y-22802671D01*
X43755908Y-22937517D01*
X43749501Y-22997116D01*
X43749500Y-22997135D01*
X43749500Y-24142870D01*
X43749501Y-24142876D01*
X43755908Y-24202483D01*
X43806202Y-24337328D01*
X43806206Y-24337335D01*
X43892452Y-24452544D01*
X43892455Y-24452547D01*
X44007664Y-24538793D01*
X44007671Y-24538797D01*
X44142517Y-24589091D01*
X44142516Y-24589091D01*
X44149444Y-24589835D01*
X44202127Y-24595500D01*
X45797872Y-24595499D01*
X45857483Y-24589091D01*
X45992331Y-24538796D01*
X46107546Y-24452546D01*
X46193796Y-24337331D01*
X46193798Y-24337323D01*
X46195027Y-24335076D01*
X46196849Y-24333253D01*
X46199112Y-24330231D01*
X46199546Y-24330556D01*
X46244431Y-24285669D01*
X46303861Y-24270500D01*
X55136952Y-24270500D01*
X55140697Y-24270613D01*
X55148042Y-24271057D01*
X55202606Y-24274358D01*
X55240314Y-24267447D01*
X55263621Y-24263177D01*
X55267325Y-24262613D01*
X55285170Y-24260446D01*
X55328872Y-24255140D01*
X55338335Y-24251550D01*
X55359961Y-24245522D01*
X55360893Y-24245351D01*
X55369932Y-24243695D01*
X55426512Y-24218229D01*
X55429942Y-24216809D01*
X55487930Y-24194818D01*
X55496266Y-24189062D01*
X55515821Y-24178034D01*
X55525057Y-24173878D01*
X55573896Y-24135613D01*
X55576876Y-24133421D01*
X55627929Y-24098183D01*
X55669065Y-24051748D01*
X55671599Y-24049056D01*
X57369630Y-22351025D01*
X57430951Y-22317542D01*
X57468117Y-22315180D01*
X57473303Y-22315633D01*
X57473308Y-22315635D01*
X57678263Y-22333566D01*
X57699999Y-22335468D01*
X57700000Y-22335468D01*
X57700002Y-22335468D01*
X57756807Y-22330498D01*
X57926692Y-22315635D01*
X58146496Y-22256739D01*
X58352734Y-22160568D01*
X58539139Y-22030047D01*
X58700047Y-21869139D01*
X58830568Y-21682734D01*
X58926739Y-21476496D01*
X58985635Y-21256692D01*
X59005468Y-21030000D01*
X58985635Y-20803308D01*
X58926739Y-20583504D01*
X58830568Y-20377266D01*
X58700047Y-20190861D01*
X58700045Y-20190858D01*
X58539141Y-20029954D01*
X58352734Y-19899432D01*
X58352732Y-19899431D01*
X58146497Y-19803261D01*
X58146488Y-19803258D01*
X57926697Y-19744366D01*
X57926693Y-19744365D01*
X57926692Y-19744365D01*
X57926691Y-19744364D01*
X57926686Y-19744364D01*
X57700002Y-19724532D01*
X57699998Y-19724532D01*
X57473313Y-19744364D01*
X57473302Y-19744366D01*
X57253511Y-19803258D01*
X57253502Y-19803261D01*
X57047267Y-19899431D01*
X57047265Y-19899432D01*
X56860858Y-20029954D01*
X56699954Y-20190858D01*
X56569432Y-20377265D01*
X56569431Y-20377267D01*
X56473261Y-20583502D01*
X56473258Y-20583511D01*
X56414366Y-20803302D01*
X56414364Y-20803313D01*
X56394532Y-21029998D01*
X56394532Y-21030001D01*
X56414819Y-21261881D01*
X56401052Y-21330381D01*
X56378972Y-21360369D01*
X54906162Y-22833181D01*
X54844839Y-22866666D01*
X54818481Y-22869500D01*
X46303861Y-22869500D01*
X46236822Y-22849815D01*
X46199363Y-22809581D01*
X46199112Y-22809770D01*
X46197360Y-22807430D01*
X46195027Y-22804924D01*
X46189544Y-22794882D01*
X46191464Y-22793833D01*
X46171299Y-22739772D01*
X46176322Y-22694928D01*
X46220285Y-22550000D01*
X45852350Y-22550000D01*
X45845717Y-22549644D01*
X45797873Y-22544500D01*
X45797872Y-22544500D01*
X45284623Y-22544500D01*
X45318278Y-22507941D01*
X45368551Y-22393330D01*
X45378886Y-22268605D01*
X45348163Y-22147281D01*
X45287424Y-22054313D01*
X45292223Y-22053841D01*
X45328191Y-22050299D01*
X45334271Y-22050000D01*
X46220285Y-22050000D01*
X46176557Y-21905848D01*
X46079348Y-21723985D01*
X46065106Y-21655582D01*
X46079348Y-21607078D01*
X46177021Y-21424345D01*
X46177021Y-21424344D01*
X46177023Y-21424341D01*
X46235662Y-21231033D01*
X46255462Y-21030000D01*
X46235662Y-20828967D01*
X46220808Y-20779999D01*
X48801127Y-20779999D01*
X48801128Y-20780000D01*
X49764314Y-20780000D01*
X49752359Y-20791955D01*
X49694835Y-20904852D01*
X49675014Y-21030000D01*
X49694835Y-21155148D01*
X49752359Y-21268045D01*
X49764314Y-21280000D01*
X48801128Y-21280000D01*
X48853730Y-21476317D01*
X48853734Y-21476326D01*
X48949865Y-21682482D01*
X49080342Y-21868820D01*
X49241179Y-22029657D01*
X49427517Y-22160134D01*
X49633673Y-22256265D01*
X49633682Y-22256269D01*
X49829999Y-22308872D01*
X49830000Y-22308871D01*
X49830000Y-21345686D01*
X49841955Y-21357641D01*
X49954852Y-21415165D01*
X50048519Y-21430000D01*
X50111481Y-21430000D01*
X50205148Y-21415165D01*
X50318045Y-21357641D01*
X50330000Y-21345685D01*
X50330000Y-22308872D01*
X50526317Y-22256269D01*
X50526326Y-22256265D01*
X50732482Y-22160134D01*
X50918820Y-22029657D01*
X51079657Y-21868820D01*
X51210134Y-21682482D01*
X51306265Y-21476326D01*
X51306269Y-21476317D01*
X51358872Y-21280000D01*
X50395686Y-21280000D01*
X50407641Y-21268045D01*
X50465165Y-21155148D01*
X50484986Y-21030000D01*
X50465165Y-20904852D01*
X50407641Y-20791955D01*
X50395686Y-20780000D01*
X51358872Y-20780000D01*
X51358872Y-20779999D01*
X51306269Y-20583682D01*
X51306265Y-20583673D01*
X51210134Y-20377517D01*
X51079657Y-20191179D01*
X50918820Y-20030342D01*
X50732482Y-19899865D01*
X50526328Y-19803734D01*
X50330000Y-19751127D01*
X50330000Y-20714314D01*
X50318045Y-20702359D01*
X50205148Y-20644835D01*
X50111481Y-20630000D01*
X50048519Y-20630000D01*
X49954852Y-20644835D01*
X49841955Y-20702359D01*
X49830000Y-20714313D01*
X49830000Y-19751127D01*
X49633671Y-19803734D01*
X49427517Y-19899865D01*
X49241179Y-20030342D01*
X49080342Y-20191179D01*
X48949865Y-20377517D01*
X48853734Y-20583673D01*
X48853730Y-20583682D01*
X48801127Y-20779999D01*
X46220808Y-20779999D01*
X46177023Y-20635659D01*
X46177021Y-20635656D01*
X46177021Y-20635654D01*
X46081801Y-20457511D01*
X46081799Y-20457509D01*
X46081798Y-20457506D01*
X45976747Y-20329500D01*
X45953647Y-20301352D01*
X45797495Y-20173203D01*
X45797488Y-20173198D01*
X45619345Y-20077978D01*
X45426031Y-20019337D01*
X45315900Y-20008490D01*
X45275380Y-20004500D01*
X44724620Y-20004500D01*
X44687433Y-20008162D01*
X44573968Y-20019337D01*
X44380654Y-20077978D01*
X44202511Y-20173198D01*
X44202504Y-20173202D01*
X44046353Y-20301353D01*
X43982043Y-20328666D01*
X43967688Y-20329500D01*
X41344499Y-20329500D01*
X41277460Y-20309815D01*
X41231705Y-20257011D01*
X41220499Y-20205500D01*
X41220499Y-20182129D01*
X41220498Y-20182123D01*
X41220497Y-20182116D01*
X41214091Y-20122517D01*
X41179567Y-20029954D01*
X41163797Y-19987671D01*
X41163793Y-19987664D01*
X41077547Y-19872455D01*
X41077544Y-19872452D01*
X40962335Y-19786206D01*
X40962328Y-19786202D01*
X40827482Y-19735908D01*
X40827483Y-19735908D01*
X40767883Y-19729501D01*
X40767881Y-19729500D01*
X40767873Y-19729500D01*
X40767864Y-19729500D01*
X39072129Y-19729500D01*
X39072123Y-19729501D01*
X39012516Y-19735908D01*
X38877671Y-19786202D01*
X38877664Y-19786206D01*
X38762455Y-19872452D01*
X38762452Y-19872455D01*
X38676206Y-19987664D01*
X38676202Y-19987671D01*
X38625908Y-20122517D01*
X38620459Y-20173203D01*
X38619501Y-20182123D01*
X38619500Y-20182135D01*
X38619500Y-21877870D01*
X23360500Y-21877870D01*
X23360500Y-17287763D01*
X24255787Y-17287763D01*
X24285413Y-17557013D01*
X24285415Y-17557024D01*
X24353926Y-17819082D01*
X24353928Y-17819088D01*
X24459870Y-18068390D01*
X24531998Y-18186575D01*
X24600979Y-18299605D01*
X24600986Y-18299615D01*
X24774253Y-18507819D01*
X24774259Y-18507824D01*
X24975998Y-18688582D01*
X25201910Y-18838044D01*
X25447176Y-18953020D01*
X25447183Y-18953022D01*
X25447185Y-18953023D01*
X25706557Y-19031057D01*
X25706564Y-19031058D01*
X25706569Y-19031060D01*
X25974561Y-19070500D01*
X25974566Y-19070500D01*
X26177636Y-19070500D01*
X26229133Y-19066730D01*
X26380156Y-19055677D01*
X26492758Y-19030593D01*
X26644546Y-18996782D01*
X26644548Y-18996781D01*
X26644553Y-18996780D01*
X26897558Y-18900014D01*
X27133777Y-18767441D01*
X27348177Y-18601888D01*
X27536186Y-18406881D01*
X27693799Y-18186579D01*
X27767787Y-18042669D01*
X27817649Y-17945690D01*
X27817651Y-17945684D01*
X27817656Y-17945675D01*
X27905118Y-17689305D01*
X27954319Y-17422933D01*
X27959259Y-17287763D01*
X107755787Y-17287763D01*
X107785413Y-17557013D01*
X107785415Y-17557024D01*
X107853926Y-17819082D01*
X107853928Y-17819088D01*
X107959870Y-18068390D01*
X108031998Y-18186575D01*
X108100979Y-18299605D01*
X108100986Y-18299615D01*
X108274253Y-18507819D01*
X108274259Y-18507824D01*
X108475998Y-18688582D01*
X108701910Y-18838044D01*
X108947176Y-18953020D01*
X108947183Y-18953022D01*
X108947185Y-18953023D01*
X109206557Y-19031057D01*
X109206564Y-19031058D01*
X109206569Y-19031060D01*
X109474561Y-19070500D01*
X109474566Y-19070500D01*
X109677636Y-19070500D01*
X109729133Y-19066730D01*
X109880156Y-19055677D01*
X109992758Y-19030593D01*
X110144546Y-18996782D01*
X110144548Y-18996781D01*
X110144553Y-18996780D01*
X110397558Y-18900014D01*
X110633777Y-18767441D01*
X110848177Y-18601888D01*
X111036186Y-18406881D01*
X111193799Y-18186579D01*
X111267787Y-18042669D01*
X111317649Y-17945690D01*
X111317651Y-17945684D01*
X111317656Y-17945675D01*
X111405118Y-17689305D01*
X111454319Y-17422933D01*
X111464212Y-17152235D01*
X111434586Y-16882982D01*
X111366072Y-16620912D01*
X111260130Y-16371610D01*
X111119018Y-16140390D01*
X111029747Y-16033119D01*
X110945746Y-15932180D01*
X110945740Y-15932175D01*
X110744002Y-15751418D01*
X110518092Y-15601957D01*
X110518090Y-15601956D01*
X110272824Y-15486980D01*
X110272819Y-15486978D01*
X110272814Y-15486976D01*
X110013442Y-15408942D01*
X110013428Y-15408939D01*
X109897791Y-15391921D01*
X109745439Y-15369500D01*
X109542369Y-15369500D01*
X109542364Y-15369500D01*
X109339844Y-15384323D01*
X109339831Y-15384325D01*
X109075453Y-15443217D01*
X109075446Y-15443220D01*
X108822439Y-15539987D01*
X108586226Y-15672557D01*
X108371822Y-15838112D01*
X108183822Y-16033109D01*
X108183816Y-16033116D01*
X108026202Y-16253419D01*
X108026199Y-16253424D01*
X107902350Y-16494309D01*
X107902343Y-16494327D01*
X107814884Y-16750685D01*
X107814881Y-16750699D01*
X107765681Y-17017068D01*
X107765680Y-17017075D01*
X107755787Y-17287763D01*
X27959259Y-17287763D01*
X27964212Y-17152235D01*
X27934586Y-16882982D01*
X27866072Y-16620912D01*
X27760130Y-16371610D01*
X27619018Y-16140390D01*
X27529747Y-16033119D01*
X27445746Y-15932180D01*
X27445740Y-15932175D01*
X27244002Y-15751418D01*
X27018092Y-15601957D01*
X27018090Y-15601956D01*
X26772824Y-15486980D01*
X26772819Y-15486978D01*
X26772814Y-15486976D01*
X26513442Y-15408942D01*
X26513428Y-15408939D01*
X26397791Y-15391921D01*
X26245439Y-15369500D01*
X26042369Y-15369500D01*
X26042364Y-15369500D01*
X25839844Y-15384323D01*
X25839831Y-15384325D01*
X25575453Y-15443217D01*
X25575446Y-15443220D01*
X25322439Y-15539987D01*
X25086226Y-15672557D01*
X24871822Y-15838112D01*
X24683822Y-16033109D01*
X24683816Y-16033116D01*
X24526202Y-16253419D01*
X24526199Y-16253424D01*
X24402350Y-16494309D01*
X24402343Y-16494327D01*
X24314884Y-16750685D01*
X24314881Y-16750699D01*
X24265681Y-17017068D01*
X24265680Y-17017075D01*
X24255787Y-17287763D01*
X23360500Y-17287763D01*
X23360500Y-14594500D01*
X23380185Y-14527461D01*
X23432989Y-14481706D01*
X23484500Y-14470500D01*
X112235500Y-14470500D01*
X112302539Y-14490185D01*
G37*
%TD.AperFunction*%
%TD*%
M02*
