M48
; DRILL file {KiCad 7.0.6} date Sat Aug 12 23:40:45 2023
; FORMAT={-:-/ absolute / inch / decimal}
; #@! TF.CreationDate,2023-08-12T23:40:45+02:00
; #@! TF.GenerationSoftware,Kicad,Pcbnew,7.0.6
; #@! TF.FileFunction,Plated,1,2,PTH
FMAT,2
INCH
; #@! TA.AperFunction,Plated,PTH,ComponentDrill
T1C0.0295
; #@! TA.AperFunction,Plated,PTH,ComponentDrill
T2C0.0315
; #@! TA.AperFunction,Plated,PTH,ComponentDrill
T3C0.0350
; #@! TA.AperFunction,Plated,PTH,ComponentDrill
T4C0.0354
; #@! TA.AperFunction,Plated,PTH,ComponentDrill
T5C0.0394
; #@! TA.AperFunction,Plated,PTH,ComponentDrill
T6C0.0902
%
G90
G05
T1
X2.9Y-2.75
X2.9Y-2.8
X2.9Y-2.85
X3.5Y-2.55
X3.55Y-2.55
X3.6Y-2.55
T2
X2.1Y-0.7
X2.15Y-1.45
X2.15Y-1.55
X2.15Y-1.65
X2.15Y-1.75
X2.15Y-1.85
X2.15Y-1.95
X2.15Y-2.05
X2.2031Y-1.2
X2.25Y-2.6004
X2.25Y-2.75
X2.4Y-0.7
X2.4Y-1.2
X2.45Y-1.45
X2.45Y-1.55
X2.45Y-1.65
X2.45Y-1.75
X2.45Y-1.85
X2.45Y-1.95
X2.45Y-2.05
X2.65Y-2.55
X2.65Y-2.85
X2.95Y-2.55
X3.15Y-2.85
X3.25Y-2.55
X3.45Y-2.85
X3.75Y-2.55
X3.75Y-2.85
X3.85Y-1.95
X4.15Y-1.95
T3
X4.1838Y-1.202
X4.1838Y-1.4658
X4.2819Y-1.202
X4.2819Y-1.2827
X4.2819Y-1.3851
X4.2819Y-1.4658
T4
X1.85Y-0.7
X1.85Y-0.8
X4.4Y-1.9
X4.4Y-2.0
T5
X0.85Y-1.35
X0.85Y-1.45
X0.85Y-1.55
X0.85Y-1.65
X0.85Y-1.75
X0.85Y-1.85
X0.85Y-1.95
X0.85Y-2.05
X0.85Y-2.15
X0.85Y-2.25
X0.85Y-2.35
X0.85Y-2.45
X0.85Y-2.55
X0.85Y-2.65
X0.85Y-2.75
X1.45Y-1.35
X1.45Y-1.45
X1.45Y-1.55
X1.45Y-1.65
X1.45Y-1.75
X1.45Y-1.85
X1.45Y-1.95
X1.45Y-2.05
X1.45Y-2.15
X1.45Y-2.25
X1.45Y-2.35
X1.45Y-2.45
X1.45Y-2.55
X1.45Y-2.65
X1.45Y-2.75
X4.1Y-2.5
X4.1Y-2.6
X4.1Y-2.7
X4.1Y-2.8
X4.1Y-2.9
X4.2Y-2.5
X4.2Y-2.6
X4.2Y-2.7
X4.2Y-2.8
X4.2Y-2.9
T6
X4.4Y-1.0678
X4.4Y-1.6
X4.4319Y-1.3339
T0
M30
