%TF.GenerationSoftware,KiCad,Pcbnew,7.0.6*%
%TF.CreationDate,2023-08-12T12:33:25+02:00*%
%TF.ProjectId,ps2_mouse_to_serial_port_adapter_ISA_card,7073325f-6d6f-4757-9365-5f746f5f7365,rev?*%
%TF.SameCoordinates,Original*%
%TF.FileFunction,Drillmap*%
%TF.FilePolarity,Positive*%
%FSLAX45Y45*%
G04 Gerber Fmt 4.5, Leading zero omitted, Abs format (unit mm)*
G04 Created by KiCad (PCBNEW 7.0.6) date 2023-08-12 12:33:25*
%MOMM*%
%LPD*%
G01*
G04 APERTURE LIST*
%ADD10C,0.050000*%
%ADD11C,0.200000*%
%ADD12C,0.320000*%
G04 APERTURE END LIST*
D10*
X1270072Y-9997536D02*
G75*
G03*
X1335566Y-10063038I65498J-5D01*
G01*
X1397000Y-1270000D02*
X11557000Y-1270000D01*
X11684000Y-1397000D02*
X11685097Y-8990859D01*
X1397000Y-1270000D02*
G75*
G03*
X1270000Y-1397000I0J-127000D01*
G01*
X11558097Y-9117857D02*
G75*
G03*
X11685097Y-8990859I3J126997D01*
G01*
X9359733Y-10062915D02*
G75*
G03*
X9425235Y-9997414I-3J65505D01*
G01*
X9490499Y-9117987D02*
G75*
G03*
X9424997Y-9183486I1J-65503D01*
G01*
X11684000Y-1397000D02*
G75*
G03*
X11557000Y-1270000I-127000J0D01*
G01*
X9359733Y-10062916D02*
X1335566Y-10063038D01*
X9490499Y-9117984D02*
X11558097Y-9117859D01*
X9424997Y-9183486D02*
X9425235Y-9997414D01*
X1270064Y-9997536D02*
X1270000Y-1397000D01*
D11*
D12*
X11016000Y-1618000D02*
X11336000Y-1938000D01*
X11336000Y-1618000D02*
X11016000Y-1938000D01*
X11016000Y-8476000D02*
X11336000Y-8796000D01*
X11336000Y-8476000D02*
X11016000Y-8796000D01*
D11*
X1528277Y-10377022D02*
X1528277Y-10177022D01*
X1528277Y-10177022D02*
X1575896Y-10177022D01*
X1575896Y-10177022D02*
X1604467Y-10186546D01*
X1604467Y-10186546D02*
X1623515Y-10205593D01*
X1623515Y-10205593D02*
X1633039Y-10224641D01*
X1633039Y-10224641D02*
X1642562Y-10262736D01*
X1642562Y-10262736D02*
X1642562Y-10291308D01*
X1642562Y-10291308D02*
X1633039Y-10329403D01*
X1633039Y-10329403D02*
X1623515Y-10348450D01*
X1623515Y-10348450D02*
X1604467Y-10367498D01*
X1604467Y-10367498D02*
X1575896Y-10377022D01*
X1575896Y-10377022D02*
X1528277Y-10377022D01*
X1728277Y-10377022D02*
X1728277Y-10243689D01*
X1728277Y-10281784D02*
X1737801Y-10262736D01*
X1737801Y-10262736D02*
X1747324Y-10253212D01*
X1747324Y-10253212D02*
X1766372Y-10243689D01*
X1766372Y-10243689D02*
X1785420Y-10243689D01*
X1852086Y-10377022D02*
X1852086Y-10243689D01*
X1852086Y-10177022D02*
X1842562Y-10186546D01*
X1842562Y-10186546D02*
X1852086Y-10196070D01*
X1852086Y-10196070D02*
X1861610Y-10186546D01*
X1861610Y-10186546D02*
X1852086Y-10177022D01*
X1852086Y-10177022D02*
X1852086Y-10196070D01*
X1975896Y-10377022D02*
X1956848Y-10367498D01*
X1956848Y-10367498D02*
X1947324Y-10348450D01*
X1947324Y-10348450D02*
X1947324Y-10177022D01*
X2080658Y-10377022D02*
X2061610Y-10367498D01*
X2061610Y-10367498D02*
X2052086Y-10348450D01*
X2052086Y-10348450D02*
X2052086Y-10177022D01*
X2309229Y-10377022D02*
X2309229Y-10177022D01*
X2309229Y-10177022D02*
X2375896Y-10319879D01*
X2375896Y-10319879D02*
X2442563Y-10177022D01*
X2442563Y-10177022D02*
X2442563Y-10377022D01*
X2623515Y-10377022D02*
X2623515Y-10272260D01*
X2623515Y-10272260D02*
X2613991Y-10253212D01*
X2613991Y-10253212D02*
X2594944Y-10243689D01*
X2594944Y-10243689D02*
X2556848Y-10243689D01*
X2556848Y-10243689D02*
X2537801Y-10253212D01*
X2623515Y-10367498D02*
X2604467Y-10377022D01*
X2604467Y-10377022D02*
X2556848Y-10377022D01*
X2556848Y-10377022D02*
X2537801Y-10367498D01*
X2537801Y-10367498D02*
X2528277Y-10348450D01*
X2528277Y-10348450D02*
X2528277Y-10329403D01*
X2528277Y-10329403D02*
X2537801Y-10310355D01*
X2537801Y-10310355D02*
X2556848Y-10300831D01*
X2556848Y-10300831D02*
X2604467Y-10300831D01*
X2604467Y-10300831D02*
X2623515Y-10291308D01*
X2718753Y-10243689D02*
X2718753Y-10443689D01*
X2718753Y-10253212D02*
X2737801Y-10243689D01*
X2737801Y-10243689D02*
X2775896Y-10243689D01*
X2775896Y-10243689D02*
X2794944Y-10253212D01*
X2794944Y-10253212D02*
X2804467Y-10262736D01*
X2804467Y-10262736D02*
X2813991Y-10281784D01*
X2813991Y-10281784D02*
X2813991Y-10338927D01*
X2813991Y-10338927D02*
X2804467Y-10357974D01*
X2804467Y-10357974D02*
X2794944Y-10367498D01*
X2794944Y-10367498D02*
X2775896Y-10377022D01*
X2775896Y-10377022D02*
X2737801Y-10377022D01*
X2737801Y-10377022D02*
X2718753Y-10367498D01*
X2899705Y-10357974D02*
X2909229Y-10367498D01*
X2909229Y-10367498D02*
X2899705Y-10377022D01*
X2899705Y-10377022D02*
X2890182Y-10367498D01*
X2890182Y-10367498D02*
X2899705Y-10357974D01*
X2899705Y-10357974D02*
X2899705Y-10377022D01*
X2899705Y-10253212D02*
X2909229Y-10262736D01*
X2909229Y-10262736D02*
X2899705Y-10272260D01*
X2899705Y-10272260D02*
X2890182Y-10262736D01*
X2890182Y-10262736D02*
X2899705Y-10253212D01*
X2899705Y-10253212D02*
X2899705Y-10272260D01*
X1067500Y-10605538D02*
X1267500Y-10805538D01*
X1267500Y-10605538D02*
X1067500Y-10805538D01*
X1509229Y-10597022D02*
X1633039Y-10597022D01*
X1633039Y-10597022D02*
X1566372Y-10673212D01*
X1566372Y-10673212D02*
X1594943Y-10673212D01*
X1594943Y-10673212D02*
X1613991Y-10682736D01*
X1613991Y-10682736D02*
X1623515Y-10692260D01*
X1623515Y-10692260D02*
X1633039Y-10711308D01*
X1633039Y-10711308D02*
X1633039Y-10758927D01*
X1633039Y-10758927D02*
X1623515Y-10777974D01*
X1623515Y-10777974D02*
X1613991Y-10787498D01*
X1613991Y-10787498D02*
X1594943Y-10797022D01*
X1594943Y-10797022D02*
X1537801Y-10797022D01*
X1537801Y-10797022D02*
X1518753Y-10787498D01*
X1518753Y-10787498D02*
X1509229Y-10777974D01*
X1718753Y-10777974D02*
X1728277Y-10787498D01*
X1728277Y-10787498D02*
X1718753Y-10797022D01*
X1718753Y-10797022D02*
X1709229Y-10787498D01*
X1709229Y-10787498D02*
X1718753Y-10777974D01*
X1718753Y-10777974D02*
X1718753Y-10797022D01*
X1804467Y-10616070D02*
X1813991Y-10606546D01*
X1813991Y-10606546D02*
X1833039Y-10597022D01*
X1833039Y-10597022D02*
X1880658Y-10597022D01*
X1880658Y-10597022D02*
X1899705Y-10606546D01*
X1899705Y-10606546D02*
X1909229Y-10616070D01*
X1909229Y-10616070D02*
X1918753Y-10635117D01*
X1918753Y-10635117D02*
X1918753Y-10654165D01*
X1918753Y-10654165D02*
X1909229Y-10682736D01*
X1909229Y-10682736D02*
X1794943Y-10797022D01*
X1794943Y-10797022D02*
X1918753Y-10797022D01*
X2042562Y-10597022D02*
X2061610Y-10597022D01*
X2061610Y-10597022D02*
X2080658Y-10606546D01*
X2080658Y-10606546D02*
X2090182Y-10616070D01*
X2090182Y-10616070D02*
X2099705Y-10635117D01*
X2099705Y-10635117D02*
X2109229Y-10673212D01*
X2109229Y-10673212D02*
X2109229Y-10720831D01*
X2109229Y-10720831D02*
X2099705Y-10758927D01*
X2099705Y-10758927D02*
X2090182Y-10777974D01*
X2090182Y-10777974D02*
X2080658Y-10787498D01*
X2080658Y-10787498D02*
X2061610Y-10797022D01*
X2061610Y-10797022D02*
X2042562Y-10797022D01*
X2042562Y-10797022D02*
X2023515Y-10787498D01*
X2023515Y-10787498D02*
X2013991Y-10777974D01*
X2013991Y-10777974D02*
X2004467Y-10758927D01*
X2004467Y-10758927D02*
X1994943Y-10720831D01*
X1994943Y-10720831D02*
X1994943Y-10673212D01*
X1994943Y-10673212D02*
X2004467Y-10635117D01*
X2004467Y-10635117D02*
X2013991Y-10616070D01*
X2013991Y-10616070D02*
X2023515Y-10606546D01*
X2023515Y-10606546D02*
X2042562Y-10597022D01*
X2233039Y-10597022D02*
X2252086Y-10597022D01*
X2252086Y-10597022D02*
X2271134Y-10606546D01*
X2271134Y-10606546D02*
X2280658Y-10616070D01*
X2280658Y-10616070D02*
X2290182Y-10635117D01*
X2290182Y-10635117D02*
X2299705Y-10673212D01*
X2299705Y-10673212D02*
X2299705Y-10720831D01*
X2299705Y-10720831D02*
X2290182Y-10758927D01*
X2290182Y-10758927D02*
X2280658Y-10777974D01*
X2280658Y-10777974D02*
X2271134Y-10787498D01*
X2271134Y-10787498D02*
X2252086Y-10797022D01*
X2252086Y-10797022D02*
X2233039Y-10797022D01*
X2233039Y-10797022D02*
X2213991Y-10787498D01*
X2213991Y-10787498D02*
X2204467Y-10777974D01*
X2204467Y-10777974D02*
X2194944Y-10758927D01*
X2194944Y-10758927D02*
X2185420Y-10720831D01*
X2185420Y-10720831D02*
X2185420Y-10673212D01*
X2185420Y-10673212D02*
X2194944Y-10635117D01*
X2194944Y-10635117D02*
X2204467Y-10616070D01*
X2204467Y-10616070D02*
X2213991Y-10606546D01*
X2213991Y-10606546D02*
X2233039Y-10597022D01*
X2385420Y-10797022D02*
X2385420Y-10663689D01*
X2385420Y-10682736D02*
X2394944Y-10673212D01*
X2394944Y-10673212D02*
X2413991Y-10663689D01*
X2413991Y-10663689D02*
X2442563Y-10663689D01*
X2442563Y-10663689D02*
X2461610Y-10673212D01*
X2461610Y-10673212D02*
X2471134Y-10692260D01*
X2471134Y-10692260D02*
X2471134Y-10797022D01*
X2471134Y-10692260D02*
X2480658Y-10673212D01*
X2480658Y-10673212D02*
X2499705Y-10663689D01*
X2499705Y-10663689D02*
X2528277Y-10663689D01*
X2528277Y-10663689D02*
X2547325Y-10673212D01*
X2547325Y-10673212D02*
X2556848Y-10692260D01*
X2556848Y-10692260D02*
X2556848Y-10797022D01*
X2652086Y-10797022D02*
X2652086Y-10663689D01*
X2652086Y-10682736D02*
X2661610Y-10673212D01*
X2661610Y-10673212D02*
X2680658Y-10663689D01*
X2680658Y-10663689D02*
X2709229Y-10663689D01*
X2709229Y-10663689D02*
X2728277Y-10673212D01*
X2728277Y-10673212D02*
X2737801Y-10692260D01*
X2737801Y-10692260D02*
X2737801Y-10797022D01*
X2737801Y-10692260D02*
X2747325Y-10673212D01*
X2747325Y-10673212D02*
X2766372Y-10663689D01*
X2766372Y-10663689D02*
X2794944Y-10663689D01*
X2794944Y-10663689D02*
X2813991Y-10673212D01*
X2813991Y-10673212D02*
X2823515Y-10692260D01*
X2823515Y-10692260D02*
X2823515Y-10797022D01*
X3213991Y-10587498D02*
X3042563Y-10844641D01*
X3471134Y-10597022D02*
X3490182Y-10597022D01*
X3490182Y-10597022D02*
X3509229Y-10606546D01*
X3509229Y-10606546D02*
X3518753Y-10616070D01*
X3518753Y-10616070D02*
X3528277Y-10635117D01*
X3528277Y-10635117D02*
X3537801Y-10673212D01*
X3537801Y-10673212D02*
X3537801Y-10720831D01*
X3537801Y-10720831D02*
X3528277Y-10758927D01*
X3528277Y-10758927D02*
X3518753Y-10777974D01*
X3518753Y-10777974D02*
X3509229Y-10787498D01*
X3509229Y-10787498D02*
X3490182Y-10797022D01*
X3490182Y-10797022D02*
X3471134Y-10797022D01*
X3471134Y-10797022D02*
X3452086Y-10787498D01*
X3452086Y-10787498D02*
X3442563Y-10777974D01*
X3442563Y-10777974D02*
X3433039Y-10758927D01*
X3433039Y-10758927D02*
X3423515Y-10720831D01*
X3423515Y-10720831D02*
X3423515Y-10673212D01*
X3423515Y-10673212D02*
X3433039Y-10635117D01*
X3433039Y-10635117D02*
X3442563Y-10616070D01*
X3442563Y-10616070D02*
X3452086Y-10606546D01*
X3452086Y-10606546D02*
X3471134Y-10597022D01*
X3623515Y-10777974D02*
X3633039Y-10787498D01*
X3633039Y-10787498D02*
X3623515Y-10797022D01*
X3623515Y-10797022D02*
X3613991Y-10787498D01*
X3613991Y-10787498D02*
X3623515Y-10777974D01*
X3623515Y-10777974D02*
X3623515Y-10797022D01*
X3823515Y-10797022D02*
X3709229Y-10797022D01*
X3766372Y-10797022D02*
X3766372Y-10597022D01*
X3766372Y-10597022D02*
X3747325Y-10625593D01*
X3747325Y-10625593D02*
X3728277Y-10644641D01*
X3728277Y-10644641D02*
X3709229Y-10654165D01*
X3899706Y-10616070D02*
X3909229Y-10606546D01*
X3909229Y-10606546D02*
X3928277Y-10597022D01*
X3928277Y-10597022D02*
X3975896Y-10597022D01*
X3975896Y-10597022D02*
X3994944Y-10606546D01*
X3994944Y-10606546D02*
X4004467Y-10616070D01*
X4004467Y-10616070D02*
X4013991Y-10635117D01*
X4013991Y-10635117D02*
X4013991Y-10654165D01*
X4013991Y-10654165D02*
X4004467Y-10682736D01*
X4004467Y-10682736D02*
X3890182Y-10797022D01*
X3890182Y-10797022D02*
X4013991Y-10797022D01*
X4185420Y-10597022D02*
X4147325Y-10597022D01*
X4147325Y-10597022D02*
X4128277Y-10606546D01*
X4128277Y-10606546D02*
X4118753Y-10616070D01*
X4118753Y-10616070D02*
X4099706Y-10644641D01*
X4099706Y-10644641D02*
X4090182Y-10682736D01*
X4090182Y-10682736D02*
X4090182Y-10758927D01*
X4090182Y-10758927D02*
X4099706Y-10777974D01*
X4099706Y-10777974D02*
X4109229Y-10787498D01*
X4109229Y-10787498D02*
X4128277Y-10797022D01*
X4128277Y-10797022D02*
X4166372Y-10797022D01*
X4166372Y-10797022D02*
X4185420Y-10787498D01*
X4185420Y-10787498D02*
X4194944Y-10777974D01*
X4194944Y-10777974D02*
X4204468Y-10758927D01*
X4204468Y-10758927D02*
X4204468Y-10711308D01*
X4204468Y-10711308D02*
X4194944Y-10692260D01*
X4194944Y-10692260D02*
X4185420Y-10682736D01*
X4185420Y-10682736D02*
X4166372Y-10673212D01*
X4166372Y-10673212D02*
X4128277Y-10673212D01*
X4128277Y-10673212D02*
X4109229Y-10682736D01*
X4109229Y-10682736D02*
X4099706Y-10692260D01*
X4099706Y-10692260D02*
X4090182Y-10711308D01*
X4328277Y-10597022D02*
X4347325Y-10597022D01*
X4347325Y-10597022D02*
X4366372Y-10606546D01*
X4366372Y-10606546D02*
X4375896Y-10616070D01*
X4375896Y-10616070D02*
X4385420Y-10635117D01*
X4385420Y-10635117D02*
X4394944Y-10673212D01*
X4394944Y-10673212D02*
X4394944Y-10720831D01*
X4394944Y-10720831D02*
X4385420Y-10758927D01*
X4385420Y-10758927D02*
X4375896Y-10777974D01*
X4375896Y-10777974D02*
X4366372Y-10787498D01*
X4366372Y-10787498D02*
X4347325Y-10797022D01*
X4347325Y-10797022D02*
X4328277Y-10797022D01*
X4328277Y-10797022D02*
X4309229Y-10787498D01*
X4309229Y-10787498D02*
X4299706Y-10777974D01*
X4299706Y-10777974D02*
X4290182Y-10758927D01*
X4290182Y-10758927D02*
X4280658Y-10720831D01*
X4280658Y-10720831D02*
X4280658Y-10673212D01*
X4280658Y-10673212D02*
X4290182Y-10635117D01*
X4290182Y-10635117D02*
X4299706Y-10616070D01*
X4299706Y-10616070D02*
X4309229Y-10606546D01*
X4309229Y-10606546D02*
X4328277Y-10597022D01*
X4471134Y-10597022D02*
X4471134Y-10635117D01*
X4547325Y-10597022D02*
X4547325Y-10635117D01*
X4842563Y-10873212D02*
X4833039Y-10863689D01*
X4833039Y-10863689D02*
X4813991Y-10835117D01*
X4813991Y-10835117D02*
X4804468Y-10816070D01*
X4804468Y-10816070D02*
X4794944Y-10787498D01*
X4794944Y-10787498D02*
X4785420Y-10739879D01*
X4785420Y-10739879D02*
X4785420Y-10701784D01*
X4785420Y-10701784D02*
X4794944Y-10654165D01*
X4794944Y-10654165D02*
X4804468Y-10625593D01*
X4804468Y-10625593D02*
X4813991Y-10606546D01*
X4813991Y-10606546D02*
X4833039Y-10577974D01*
X4833039Y-10577974D02*
X4842563Y-10568450D01*
X4909230Y-10616070D02*
X4918753Y-10606546D01*
X4918753Y-10606546D02*
X4937801Y-10597022D01*
X4937801Y-10597022D02*
X4985420Y-10597022D01*
X4985420Y-10597022D02*
X5004468Y-10606546D01*
X5004468Y-10606546D02*
X5013991Y-10616070D01*
X5013991Y-10616070D02*
X5023515Y-10635117D01*
X5023515Y-10635117D02*
X5023515Y-10654165D01*
X5023515Y-10654165D02*
X5013991Y-10682736D01*
X5013991Y-10682736D02*
X4899706Y-10797022D01*
X4899706Y-10797022D02*
X5023515Y-10797022D01*
X5261611Y-10797022D02*
X5261611Y-10597022D01*
X5347325Y-10797022D02*
X5347325Y-10692260D01*
X5347325Y-10692260D02*
X5337801Y-10673212D01*
X5337801Y-10673212D02*
X5318753Y-10663689D01*
X5318753Y-10663689D02*
X5290182Y-10663689D01*
X5290182Y-10663689D02*
X5271134Y-10673212D01*
X5271134Y-10673212D02*
X5261611Y-10682736D01*
X5471134Y-10797022D02*
X5452087Y-10787498D01*
X5452087Y-10787498D02*
X5442563Y-10777974D01*
X5442563Y-10777974D02*
X5433039Y-10758927D01*
X5433039Y-10758927D02*
X5433039Y-10701784D01*
X5433039Y-10701784D02*
X5442563Y-10682736D01*
X5442563Y-10682736D02*
X5452087Y-10673212D01*
X5452087Y-10673212D02*
X5471134Y-10663689D01*
X5471134Y-10663689D02*
X5499706Y-10663689D01*
X5499706Y-10663689D02*
X5518753Y-10673212D01*
X5518753Y-10673212D02*
X5528277Y-10682736D01*
X5528277Y-10682736D02*
X5537801Y-10701784D01*
X5537801Y-10701784D02*
X5537801Y-10758927D01*
X5537801Y-10758927D02*
X5528277Y-10777974D01*
X5528277Y-10777974D02*
X5518753Y-10787498D01*
X5518753Y-10787498D02*
X5499706Y-10797022D01*
X5499706Y-10797022D02*
X5471134Y-10797022D01*
X5652087Y-10797022D02*
X5633039Y-10787498D01*
X5633039Y-10787498D02*
X5623515Y-10768450D01*
X5623515Y-10768450D02*
X5623515Y-10597022D01*
X5804468Y-10787498D02*
X5785420Y-10797022D01*
X5785420Y-10797022D02*
X5747325Y-10797022D01*
X5747325Y-10797022D02*
X5728277Y-10787498D01*
X5728277Y-10787498D02*
X5718753Y-10768450D01*
X5718753Y-10768450D02*
X5718753Y-10692260D01*
X5718753Y-10692260D02*
X5728277Y-10673212D01*
X5728277Y-10673212D02*
X5747325Y-10663689D01*
X5747325Y-10663689D02*
X5785420Y-10663689D01*
X5785420Y-10663689D02*
X5804468Y-10673212D01*
X5804468Y-10673212D02*
X5813991Y-10692260D01*
X5813991Y-10692260D02*
X5813991Y-10711308D01*
X5813991Y-10711308D02*
X5718753Y-10730355D01*
X5890182Y-10787498D02*
X5909230Y-10797022D01*
X5909230Y-10797022D02*
X5947325Y-10797022D01*
X5947325Y-10797022D02*
X5966372Y-10787498D01*
X5966372Y-10787498D02*
X5975896Y-10768450D01*
X5975896Y-10768450D02*
X5975896Y-10758927D01*
X5975896Y-10758927D02*
X5966372Y-10739879D01*
X5966372Y-10739879D02*
X5947325Y-10730355D01*
X5947325Y-10730355D02*
X5918753Y-10730355D01*
X5918753Y-10730355D02*
X5899706Y-10720831D01*
X5899706Y-10720831D02*
X5890182Y-10701784D01*
X5890182Y-10701784D02*
X5890182Y-10692260D01*
X5890182Y-10692260D02*
X5899706Y-10673212D01*
X5899706Y-10673212D02*
X5918753Y-10663689D01*
X5918753Y-10663689D02*
X5947325Y-10663689D01*
X5947325Y-10663689D02*
X5966372Y-10673212D01*
X6042563Y-10873212D02*
X6052087Y-10863689D01*
X6052087Y-10863689D02*
X6071134Y-10835117D01*
X6071134Y-10835117D02*
X6080658Y-10816070D01*
X6080658Y-10816070D02*
X6090182Y-10787498D01*
X6090182Y-10787498D02*
X6099706Y-10739879D01*
X6099706Y-10739879D02*
X6099706Y-10701784D01*
X6099706Y-10701784D02*
X6090182Y-10654165D01*
X6090182Y-10654165D02*
X6080658Y-10625593D01*
X6080658Y-10625593D02*
X6071134Y-10606546D01*
X6071134Y-10606546D02*
X6052087Y-10577974D01*
X6052087Y-10577974D02*
X6042563Y-10568450D01*
X6404468Y-10873212D02*
X6394944Y-10863689D01*
X6394944Y-10863689D02*
X6375896Y-10835117D01*
X6375896Y-10835117D02*
X6366372Y-10816070D01*
X6366372Y-10816070D02*
X6356849Y-10787498D01*
X6356849Y-10787498D02*
X6347325Y-10739879D01*
X6347325Y-10739879D02*
X6347325Y-10701784D01*
X6347325Y-10701784D02*
X6356849Y-10654165D01*
X6356849Y-10654165D02*
X6366372Y-10625593D01*
X6366372Y-10625593D02*
X6375896Y-10606546D01*
X6375896Y-10606546D02*
X6394944Y-10577974D01*
X6394944Y-10577974D02*
X6404468Y-10568450D01*
X6480658Y-10663689D02*
X6480658Y-10797022D01*
X6480658Y-10682736D02*
X6490182Y-10673212D01*
X6490182Y-10673212D02*
X6509230Y-10663689D01*
X6509230Y-10663689D02*
X6537801Y-10663689D01*
X6537801Y-10663689D02*
X6556849Y-10673212D01*
X6556849Y-10673212D02*
X6566372Y-10692260D01*
X6566372Y-10692260D02*
X6566372Y-10797022D01*
X6690182Y-10797022D02*
X6671134Y-10787498D01*
X6671134Y-10787498D02*
X6661611Y-10777974D01*
X6661611Y-10777974D02*
X6652087Y-10758927D01*
X6652087Y-10758927D02*
X6652087Y-10701784D01*
X6652087Y-10701784D02*
X6661611Y-10682736D01*
X6661611Y-10682736D02*
X6671134Y-10673212D01*
X6671134Y-10673212D02*
X6690182Y-10663689D01*
X6690182Y-10663689D02*
X6718753Y-10663689D01*
X6718753Y-10663689D02*
X6737801Y-10673212D01*
X6737801Y-10673212D02*
X6747325Y-10682736D01*
X6747325Y-10682736D02*
X6756849Y-10701784D01*
X6756849Y-10701784D02*
X6756849Y-10758927D01*
X6756849Y-10758927D02*
X6747325Y-10777974D01*
X6747325Y-10777974D02*
X6737801Y-10787498D01*
X6737801Y-10787498D02*
X6718753Y-10797022D01*
X6718753Y-10797022D02*
X6690182Y-10797022D01*
X6813992Y-10663689D02*
X6890182Y-10663689D01*
X6842563Y-10597022D02*
X6842563Y-10768450D01*
X6842563Y-10768450D02*
X6852087Y-10787498D01*
X6852087Y-10787498D02*
X6871134Y-10797022D01*
X6871134Y-10797022D02*
X6890182Y-10797022D01*
X7109230Y-10663689D02*
X7109230Y-10863689D01*
X7109230Y-10673212D02*
X7128277Y-10663689D01*
X7128277Y-10663689D02*
X7166373Y-10663689D01*
X7166373Y-10663689D02*
X7185420Y-10673212D01*
X7185420Y-10673212D02*
X7194944Y-10682736D01*
X7194944Y-10682736D02*
X7204468Y-10701784D01*
X7204468Y-10701784D02*
X7204468Y-10758927D01*
X7204468Y-10758927D02*
X7194944Y-10777974D01*
X7194944Y-10777974D02*
X7185420Y-10787498D01*
X7185420Y-10787498D02*
X7166373Y-10797022D01*
X7166373Y-10797022D02*
X7128277Y-10797022D01*
X7128277Y-10797022D02*
X7109230Y-10787498D01*
X7318753Y-10797022D02*
X7299706Y-10787498D01*
X7299706Y-10787498D02*
X7290182Y-10768450D01*
X7290182Y-10768450D02*
X7290182Y-10597022D01*
X7480658Y-10797022D02*
X7480658Y-10692260D01*
X7480658Y-10692260D02*
X7471134Y-10673212D01*
X7471134Y-10673212D02*
X7452087Y-10663689D01*
X7452087Y-10663689D02*
X7413992Y-10663689D01*
X7413992Y-10663689D02*
X7394944Y-10673212D01*
X7480658Y-10787498D02*
X7461611Y-10797022D01*
X7461611Y-10797022D02*
X7413992Y-10797022D01*
X7413992Y-10797022D02*
X7394944Y-10787498D01*
X7394944Y-10787498D02*
X7385420Y-10768450D01*
X7385420Y-10768450D02*
X7385420Y-10749403D01*
X7385420Y-10749403D02*
X7394944Y-10730355D01*
X7394944Y-10730355D02*
X7413992Y-10720831D01*
X7413992Y-10720831D02*
X7461611Y-10720831D01*
X7461611Y-10720831D02*
X7480658Y-10711308D01*
X7547325Y-10663689D02*
X7623515Y-10663689D01*
X7575896Y-10597022D02*
X7575896Y-10768450D01*
X7575896Y-10768450D02*
X7585420Y-10787498D01*
X7585420Y-10787498D02*
X7604468Y-10797022D01*
X7604468Y-10797022D02*
X7623515Y-10797022D01*
X7766373Y-10787498D02*
X7747325Y-10797022D01*
X7747325Y-10797022D02*
X7709230Y-10797022D01*
X7709230Y-10797022D02*
X7690182Y-10787498D01*
X7690182Y-10787498D02*
X7680658Y-10768450D01*
X7680658Y-10768450D02*
X7680658Y-10692260D01*
X7680658Y-10692260D02*
X7690182Y-10673212D01*
X7690182Y-10673212D02*
X7709230Y-10663689D01*
X7709230Y-10663689D02*
X7747325Y-10663689D01*
X7747325Y-10663689D02*
X7766373Y-10673212D01*
X7766373Y-10673212D02*
X7775896Y-10692260D01*
X7775896Y-10692260D02*
X7775896Y-10711308D01*
X7775896Y-10711308D02*
X7680658Y-10730355D01*
X7947325Y-10797022D02*
X7947325Y-10597022D01*
X7947325Y-10787498D02*
X7928277Y-10797022D01*
X7928277Y-10797022D02*
X7890182Y-10797022D01*
X7890182Y-10797022D02*
X7871134Y-10787498D01*
X7871134Y-10787498D02*
X7861611Y-10777974D01*
X7861611Y-10777974D02*
X7852087Y-10758927D01*
X7852087Y-10758927D02*
X7852087Y-10701784D01*
X7852087Y-10701784D02*
X7861611Y-10682736D01*
X7861611Y-10682736D02*
X7871134Y-10673212D01*
X7871134Y-10673212D02*
X7890182Y-10663689D01*
X7890182Y-10663689D02*
X7928277Y-10663689D01*
X7928277Y-10663689D02*
X7947325Y-10673212D01*
X8023515Y-10873212D02*
X8033039Y-10863689D01*
X8033039Y-10863689D02*
X8052087Y-10835117D01*
X8052087Y-10835117D02*
X8061611Y-10816070D01*
X8061611Y-10816070D02*
X8071134Y-10787498D01*
X8071134Y-10787498D02*
X8080658Y-10739879D01*
X8080658Y-10739879D02*
X8080658Y-10701784D01*
X8080658Y-10701784D02*
X8071134Y-10654165D01*
X8071134Y-10654165D02*
X8061611Y-10625593D01*
X8061611Y-10625593D02*
X8052087Y-10606546D01*
X8052087Y-10606546D02*
X8033039Y-10577974D01*
X8033039Y-10577974D02*
X8023515Y-10568450D01*
M02*
