%TF.GenerationSoftware,KiCad,Pcbnew,7.0.6*%
%TF.CreationDate,2023-08-12T12:33:16+02:00*%
%TF.ProjectId,ps2_mouse_to_serial_port_adapter_ISA_card,7073325f-6d6f-4757-9365-5f746f5f7365,rev?*%
%TF.SameCoordinates,Original*%
%TF.FileFunction,Copper,L1,Top*%
%TF.FilePolarity,Positive*%
%FSLAX46Y46*%
G04 Gerber Fmt 4.6, Leading zero omitted, Abs format (unit mm)*
G04 Created by KiCad (PCBNEW 7.0.6) date 2023-08-12 12:33:16*
%MOMM*%
%LPD*%
G01*
G04 APERTURE LIST*
G04 Aperture macros list*
%AMRoundRect*
0 Rectangle with rounded corners*
0 $1 Rounding radius*
0 $2 $3 $4 $5 $6 $7 $8 $9 X,Y pos of 4 corners*
0 Add a 4 corners polygon primitive as box body*
4,1,4,$2,$3,$4,$5,$6,$7,$8,$9,$2,$3,0*
0 Add four circle primitives for the rounded corners*
1,1,$1+$1,$2,$3*
1,1,$1+$1,$4,$5*
1,1,$1+$1,$6,$7*
1,1,$1+$1,$8,$9*
0 Add four rect primitives between the rounded corners*
20,1,$1+$1,$2,$3,$4,$5,0*
20,1,$1+$1,$4,$5,$6,$7,0*
20,1,$1+$1,$6,$7,$8,$9,0*
20,1,$1+$1,$8,$9,$2,$3,0*%
G04 Aperture macros list end*
%TA.AperFunction,ComponentPad*%
%ADD10C,1.600000*%
%TD*%
%TA.AperFunction,ComponentPad*%
%ADD11O,1.600000X1.600000*%
%TD*%
%TA.AperFunction,ComponentPad*%
%ADD12R,1.050000X1.500000*%
%TD*%
%TA.AperFunction,ComponentPad*%
%ADD13O,1.050000X1.500000*%
%TD*%
%TA.AperFunction,ComponentPad*%
%ADD14RoundRect,0.250000X-0.600000X-0.600000X0.600000X-0.600000X0.600000X0.600000X-0.600000X0.600000X0*%
%TD*%
%TA.AperFunction,ComponentPad*%
%ADD15C,1.700000*%
%TD*%
%TA.AperFunction,ConnectorPad*%
%ADD16R,1.780000X7.620000*%
%TD*%
%TA.AperFunction,ComponentPad*%
%ADD17R,1.800000X1.800000*%
%TD*%
%TA.AperFunction,ComponentPad*%
%ADD18C,1.800000*%
%TD*%
%TA.AperFunction,ComponentPad*%
%ADD19R,1.600000X1.600000*%
%TD*%
%TA.AperFunction,ComponentPad*%
%ADD20C,1.371600*%
%TD*%
%TA.AperFunction,ComponentPad*%
%ADD21C,4.000500*%
%TD*%
%TA.AperFunction,ComponentPad*%
%ADD22R,1.500000X1.050000*%
%TD*%
%TA.AperFunction,ComponentPad*%
%ADD23O,1.500000X1.050000*%
%TD*%
%TA.AperFunction,Conductor*%
%ADD24C,0.800000*%
%TD*%
%TA.AperFunction,Conductor*%
%ADD25C,0.400000*%
%TD*%
G04 APERTURE END LIST*
D10*
%TO.P,R3,1*%
%TO.N,Net-(A1-VIN)*%
X82550000Y-64770000D03*
D11*
%TO.P,R3,2*%
%TO.N,Net-(Q1-C)*%
X74930000Y-64770000D03*
%TD*%
D12*
%TO.P,U2,1,VO*%
%TO.N,Net-(U2-VO)*%
X88900000Y-64770000D03*
D13*
%TO.P,U2,2,GND*%
%TO.N,Net-(D2-K)*%
X90170000Y-64770000D03*
%TO.P,U2,3,VI*%
%TO.N,Net-(D1-K)*%
X91440000Y-64770000D03*
%TD*%
D14*
%TO.P,J1,1,Pin_1*%
%TO.N,unconnected-(J1-Pin_1-Pad1)*%
X104140000Y-63500000D03*
D15*
%TO.P,J1,2,Pin_2*%
%TO.N,Net-(J1-Pin_2)*%
X106680000Y-63500000D03*
%TO.P,J1,3,Pin_3*%
%TO.N,unconnected-(J1-Pin_3-Pad3)*%
X104140000Y-66040000D03*
%TO.P,J1,4,Pin_4*%
%TO.N,unconnected-(J1-Pin_4-Pad4)*%
X106680000Y-66040000D03*
%TO.P,J1,5,Pin_5*%
%TO.N,Net-(D2-K)*%
X104140000Y-68580000D03*
%TO.P,J1,6,Pin_6*%
%TO.N,unconnected-(J1-Pin_6-Pad6)*%
X106680000Y-68580000D03*
%TO.P,J1,7,Pin_7*%
%TO.N,Net-(D1-A)*%
X104140000Y-71120000D03*
%TO.P,J1,8,Pin_8*%
%TO.N,unconnected-(J1-Pin_8-Pad8)*%
X106680000Y-71120000D03*
%TO.P,J1,9,Pin_9*%
%TO.N,unconnected-(J1-Pin_9-Pad9)*%
X104140000Y-73660000D03*
%TO.P,J1,10,Pin_10*%
%TO.N,unconnected-(J1-Pin_10-Pad10)*%
X106680000Y-73660000D03*
%TD*%
D16*
%TO.P,J3,32,IO*%
%TO.N,unconnected-(J3-IO-Pad32)*%
X91440000Y-96520000D03*
%TO.P,J3,33,DB7*%
%TO.N,unconnected-(J3-DB7-Pad33)*%
X88900000Y-96520000D03*
%TO.P,J3,34,DB6*%
%TO.N,unconnected-(J3-DB6-Pad34)*%
X86360000Y-96520000D03*
%TO.P,J3,35,DB5*%
%TO.N,unconnected-(J3-DB5-Pad35)*%
X83820000Y-96520000D03*
%TO.P,J3,36,DB4*%
%TO.N,unconnected-(J3-DB4-Pad36)*%
X81280000Y-96520000D03*
%TO.P,J3,37,DB3*%
%TO.N,unconnected-(J3-DB3-Pad37)*%
X78740000Y-96520000D03*
%TO.P,J3,38,DB2*%
%TO.N,unconnected-(J3-DB2-Pad38)*%
X76200000Y-96520000D03*
%TO.P,J3,39,DB1*%
%TO.N,unconnected-(J3-DB1-Pad39)*%
X73660000Y-96520000D03*
%TO.P,J3,40,DB0*%
%TO.N,unconnected-(J3-DB0-Pad40)*%
X71120000Y-96520000D03*
%TO.P,J3,41,IO_READY*%
%TO.N,unconnected-(J3-IO_READY-Pad41)*%
X68580000Y-96520000D03*
%TO.P,J3,42,AEN*%
%TO.N,unconnected-(J3-AEN-Pad42)*%
X66040000Y-96520000D03*
%TO.P,J3,43,BA19*%
%TO.N,unconnected-(J3-BA19-Pad43)*%
X63500000Y-96520000D03*
%TO.P,J3,44,BA18*%
%TO.N,unconnected-(J3-BA18-Pad44)*%
X60960000Y-96520000D03*
%TO.P,J3,45,BA17*%
%TO.N,unconnected-(J3-BA17-Pad45)*%
X58420000Y-96520000D03*
%TO.P,J3,46,BA16*%
%TO.N,unconnected-(J3-BA16-Pad46)*%
X55880000Y-96520000D03*
%TO.P,J3,47,BA15*%
%TO.N,unconnected-(J3-BA15-Pad47)*%
X53340000Y-96520000D03*
%TO.P,J3,48,BA14*%
%TO.N,unconnected-(J3-BA14-Pad48)*%
X50800000Y-96520000D03*
%TO.P,J3,49,BA13*%
%TO.N,unconnected-(J3-BA13-Pad49)*%
X48260000Y-96520000D03*
%TO.P,J3,50,BA12*%
%TO.N,unconnected-(J3-BA12-Pad50)*%
X45720000Y-96520000D03*
%TO.P,J3,51,BA11*%
%TO.N,unconnected-(J3-BA11-Pad51)*%
X43180000Y-96520000D03*
%TO.P,J3,52,BA10*%
%TO.N,unconnected-(J3-BA10-Pad52)*%
X40640000Y-96520000D03*
%TO.P,J3,53,BA09*%
%TO.N,unconnected-(J3-BA09-Pad53)*%
X38100000Y-96520000D03*
%TO.P,J3,54,BA08*%
%TO.N,unconnected-(J3-BA08-Pad54)*%
X35560000Y-96520000D03*
%TO.P,J3,55,BA07*%
%TO.N,unconnected-(J3-BA07-Pad55)*%
X33020000Y-96520000D03*
%TO.P,J3,56,BA06*%
%TO.N,unconnected-(J3-BA06-Pad56)*%
X30480000Y-96520000D03*
%TO.P,J3,57,BA05*%
%TO.N,unconnected-(J3-BA05-Pad57)*%
X27940000Y-96520000D03*
%TO.P,J3,58,BA04*%
%TO.N,unconnected-(J3-BA04-Pad58)*%
X25400000Y-96520000D03*
%TO.P,J3,59,BA03*%
%TO.N,unconnected-(J3-BA03-Pad59)*%
X22860000Y-96520000D03*
%TO.P,J3,60,BA02*%
%TO.N,unconnected-(J3-BA02-Pad60)*%
X20320000Y-96520000D03*
%TO.P,J3,61,BA01*%
%TO.N,unconnected-(J3-BA01-Pad61)*%
X17780000Y-96520000D03*
%TO.P,J3,62,BA00*%
%TO.N,unconnected-(J3-BA00-Pad62)*%
X15240000Y-96520000D03*
%TD*%
D17*
%TO.P,D2,1,K*%
%TO.N,Net-(D2-K)*%
X111760000Y-50800000D03*
D18*
%TO.P,D2,2,A*%
%TO.N,Net-(D2-A)*%
X111760000Y-48260000D03*
%TD*%
D19*
%TO.P,U1,1*%
%TO.N,Net-(A1-D1{slash}TX)*%
X54610000Y-36830000D03*
D11*
%TO.P,U1,2*%
X54610000Y-39370000D03*
%TO.P,U1,3*%
%TO.N,Net-(J1-Pin_2)*%
X54610000Y-41910000D03*
%TO.P,U1,4*%
%TO.N,unconnected-(U1-Pad4)*%
X54610000Y-44450000D03*
%TO.P,U1,5*%
%TO.N,unconnected-(U1-Pad5)*%
X54610000Y-46990000D03*
%TO.P,U1,6*%
%TO.N,unconnected-(U1-Pad6)*%
X54610000Y-49530000D03*
%TO.P,U1,7,GND*%
%TO.N,Net-(D2-K)*%
X54610000Y-52070000D03*
%TO.P,U1,8*%
%TO.N,Net-(A1-D7)*%
X62230000Y-52070000D03*
%TO.P,U1,9*%
%TO.N,Net-(Q1-C)*%
X62230000Y-49530000D03*
%TO.P,U1,10*%
X62230000Y-46990000D03*
%TO.P,U1,11*%
%TO.N,unconnected-(U1-Pad11)*%
X62230000Y-44450000D03*
%TO.P,U1,12*%
%TO.N,unconnected-(U1-Pad12)*%
X62230000Y-41910000D03*
%TO.P,U1,13*%
%TO.N,unconnected-(U1-Pad13)*%
X62230000Y-39370000D03*
%TO.P,U1,14,VCC*%
%TO.N,Net-(A1-VIN)*%
X62230000Y-36830000D03*
%TD*%
D20*
%TO.P,J2,1*%
%TO.N,Net-(A1-D5)*%
X108760260Y-32580580D03*
%TO.P,J2,2*%
%TO.N,unconnected-(J2-Pad2)*%
X108760260Y-35181540D03*
%TO.P,J2,3*%
%TO.N,Net-(D2-K)*%
X108760260Y-30530800D03*
%TO.P,J2,4*%
%TO.N,Net-(A1-VIN)*%
X108760260Y-37231320D03*
%TO.P,J2,5*%
%TO.N,Net-(A1-D2)*%
X106268520Y-30530800D03*
%TO.P,J2,6*%
%TO.N,unconnected-(J2-Pad6)*%
X106268520Y-37231320D03*
D21*
%TO.P,J2,GND*%
%TO.N,N/C*%
X111760000Y-27122120D03*
X112570260Y-33881060D03*
X111760000Y-40640000D03*
%TD*%
D22*
%TO.P,Q1,1,C*%
%TO.N,Net-(Q1-C)*%
X73660000Y-69850000D03*
D23*
%TO.P,Q1,2,B*%
%TO.N,Net-(Q1-B)*%
X73660000Y-71120000D03*
%TO.P,Q1,3,E*%
%TO.N,Net-(D2-K)*%
X73660000Y-72390000D03*
%TD*%
D10*
%TO.P,R4,1*%
%TO.N,Net-(A1-D8)*%
X97790000Y-49530000D03*
D11*
%TO.P,R4,2*%
%TO.N,Net-(D2-A)*%
X105410000Y-49530000D03*
%TD*%
D10*
%TO.P,R5,1*%
%TO.N,Net-(A1-VIN)*%
X60960000Y-17780000D03*
D11*
%TO.P,R5,2*%
%TO.N,Net-(D3-A)*%
X53340000Y-17780000D03*
%TD*%
D19*
%TO.P,D1,1,K*%
%TO.N,Net-(D1-K)*%
X95250000Y-72390000D03*
D11*
%TO.P,D1,2,A*%
%TO.N,Net-(D1-A)*%
X95250000Y-64770000D03*
%TD*%
D19*
%TO.P,C1,1*%
%TO.N,Net-(A1-VIN)*%
X57150000Y-66050000D03*
D10*
%TO.P,C1,2*%
%TO.N,Net-(D2-K)*%
X57150000Y-69850000D03*
%TD*%
%TO.P,R1,1*%
%TO.N,Net-(Q1-B)*%
X80010000Y-72390000D03*
D11*
%TO.P,R1,2*%
%TO.N,Net-(U2-VO)*%
X87630000Y-72390000D03*
%TD*%
D10*
%TO.P,R2,1*%
%TO.N,Net-(Q1-B)*%
X67310000Y-64770000D03*
D11*
%TO.P,R2,2*%
%TO.N,Net-(D2-K)*%
X67310000Y-72390000D03*
%TD*%
D10*
%TO.P,C2,1*%
%TO.N,Net-(A1-VIN)*%
X60960000Y-30480000D03*
%TO.P,C2,2*%
%TO.N,Net-(D2-K)*%
X55960000Y-30480000D03*
%TD*%
D17*
%TO.P,D3,1,K*%
%TO.N,Net-(D2-K)*%
X46990000Y-20320000D03*
D18*
%TO.P,D3,2,A*%
%TO.N,Net-(D3-A)*%
X46990000Y-17780000D03*
%TD*%
D19*
%TO.P,A1,1,D1/TX*%
%TO.N,Net-(A1-D1{slash}TX)*%
X36830000Y-69850000D03*
D11*
%TO.P,A1,2,D0/RX*%
%TO.N,unconnected-(A1-D0{slash}RX-Pad2)*%
X36830000Y-67310000D03*
%TO.P,A1,3,~{RESET}*%
%TO.N,unconnected-(A1-~{RESET}-Pad3)*%
X36830000Y-64770000D03*
%TO.P,A1,4,GND*%
%TO.N,unconnected-(A1-GND-Pad4)*%
X36830000Y-62230000D03*
%TO.P,A1,5,D2*%
%TO.N,Net-(A1-D2)*%
X36830000Y-59690000D03*
%TO.P,A1,6,D3*%
%TO.N,unconnected-(A1-D3-Pad6)*%
X36830000Y-57150000D03*
%TO.P,A1,7,D4*%
%TO.N,unconnected-(A1-D4-Pad7)*%
X36830000Y-54610000D03*
%TO.P,A1,8,D5*%
%TO.N,Net-(A1-D5)*%
X36830000Y-52070000D03*
%TO.P,A1,9,D6*%
%TO.N,unconnected-(A1-D6-Pad9)*%
X36830000Y-49530000D03*
%TO.P,A1,10,D7*%
%TO.N,Net-(A1-D7)*%
X36830000Y-46990000D03*
%TO.P,A1,11,D8*%
%TO.N,Net-(A1-D8)*%
X36830000Y-44450000D03*
%TO.P,A1,12,D9*%
%TO.N,unconnected-(A1-D9-Pad12)*%
X36830000Y-41910000D03*
%TO.P,A1,13,D10*%
%TO.N,unconnected-(A1-D10-Pad13)*%
X36830000Y-39370000D03*
%TO.P,A1,14,D11*%
%TO.N,unconnected-(A1-D11-Pad14)*%
X36830000Y-36830000D03*
%TO.P,A1,15,D12*%
%TO.N,unconnected-(A1-D12-Pad15)*%
X36830000Y-34290000D03*
%TO.P,A1,16,D13*%
%TO.N,unconnected-(A1-D13-Pad16)*%
X21590000Y-34290000D03*
%TO.P,A1,17,3V3*%
%TO.N,unconnected-(A1-3V3-Pad17)*%
X21590000Y-36830000D03*
%TO.P,A1,18,AREF*%
%TO.N,unconnected-(A1-AREF-Pad18)*%
X21590000Y-39370000D03*
%TO.P,A1,19,A0*%
%TO.N,unconnected-(A1-A0-Pad19)*%
X21590000Y-41910000D03*
%TO.P,A1,20,A1*%
%TO.N,unconnected-(A1-A1-Pad20)*%
X21590000Y-44450000D03*
%TO.P,A1,21,A2*%
%TO.N,unconnected-(A1-A2-Pad21)*%
X21590000Y-46990000D03*
%TO.P,A1,22,A3*%
%TO.N,unconnected-(A1-A3-Pad22)*%
X21590000Y-49530000D03*
%TO.P,A1,23,A4*%
%TO.N,unconnected-(A1-A4-Pad23)*%
X21590000Y-52070000D03*
%TO.P,A1,24,A5*%
%TO.N,unconnected-(A1-A5-Pad24)*%
X21590000Y-54610000D03*
%TO.P,A1,25,A6*%
%TO.N,unconnected-(A1-A6-Pad25)*%
X21590000Y-57150000D03*
%TO.P,A1,26,A7*%
%TO.N,unconnected-(A1-A7-Pad26)*%
X21590000Y-59690000D03*
%TO.P,A1,27,+5V*%
%TO.N,unconnected-(A1-+5V-Pad27)*%
X21590000Y-62230000D03*
%TO.P,A1,28,~{RESET}*%
%TO.N,unconnected-(A1-~{RESET}-Pad28)*%
X21590000Y-64770000D03*
%TO.P,A1,29,GND*%
%TO.N,Net-(D2-K)*%
X21590000Y-67310000D03*
%TO.P,A1,30,VIN*%
%TO.N,Net-(A1-VIN)*%
X21590000Y-69850000D03*
%TD*%
D24*
%TO.N,Net-(A1-VIN)*%
X77470000Y-59690000D02*
X82550000Y-64770000D01*
X57150000Y-62230000D02*
X59690000Y-59690000D01*
X57150000Y-66050000D02*
X57150000Y-62230000D01*
X59690000Y-59690000D02*
X77470000Y-59690000D01*
X60960000Y-30480000D02*
X60960000Y-17780000D01*
%TO.N,Net-(D2-K)*%
X48260000Y-74930000D02*
X19050000Y-74930000D01*
X55960000Y-26750000D02*
X49530000Y-20320000D01*
X19050000Y-67310000D02*
X21590000Y-67310000D01*
X55960000Y-30480000D02*
X55960000Y-26750000D01*
X17780000Y-73660000D02*
X17780000Y-68580000D01*
X17780000Y-68580000D02*
X19050000Y-67310000D01*
X19050000Y-74930000D02*
X17780000Y-73660000D01*
X49530000Y-20320000D02*
X46990000Y-20320000D01*
X53340000Y-69850000D02*
X48260000Y-74930000D01*
X57150000Y-69850000D02*
X53340000Y-69850000D01*
D25*
%TO.N,Net-(A1-D8)*%
X68580000Y-49530000D02*
X67310000Y-48260000D01*
X64770000Y-33020000D02*
X53340000Y-33020000D01*
X53340000Y-33020000D02*
X41910000Y-44450000D01*
X67310000Y-48260000D02*
X67310000Y-35560000D01*
X41910000Y-44450000D02*
X36830000Y-44450000D01*
X67310000Y-35560000D02*
X64770000Y-33020000D01*
X97790000Y-49530000D02*
X68580000Y-49530000D01*
%TO.N,Net-(A1-D7)*%
X46990000Y-54610000D02*
X58420000Y-54610000D01*
X60960000Y-52070000D02*
X62230000Y-52070000D01*
X58420000Y-54610000D02*
X60960000Y-52070000D01*
X39370000Y-46990000D02*
X46990000Y-54610000D01*
X36830000Y-46990000D02*
X39370000Y-46990000D01*
%TO.N,Net-(J1-Pin_2)*%
X57150000Y-40640000D02*
X55880000Y-41910000D01*
X55880000Y-41910000D02*
X54610000Y-41910000D01*
X57150000Y-35560000D02*
X57150000Y-40640000D01*
X102870000Y-57150000D02*
X68580000Y-57150000D01*
X106680000Y-60960000D02*
X102870000Y-57150000D01*
X66040000Y-54610000D02*
X66040000Y-35560000D01*
X106680000Y-63500000D02*
X106680000Y-60960000D01*
X66040000Y-35560000D02*
X64770000Y-34290000D01*
X64770000Y-34290000D02*
X58420000Y-34290000D01*
X68580000Y-57150000D02*
X66040000Y-54610000D01*
X58420000Y-34290000D02*
X57150000Y-35560000D01*
%TD*%
M02*
