%TF.GenerationSoftware,KiCad,Pcbnew,7.0.6*%
%TF.CreationDate,2023-08-12T12:33:25+02:00*%
%TF.ProjectId,ps2_mouse_to_serial_port_adapter_ISA_card,7073325f-6d6f-4757-9365-5f746f5f7365,rev?*%
%TF.SameCoordinates,Original*%
%TF.FileFunction,Drillmap*%
%TF.FilePolarity,Positive*%
%FSLAX45Y45*%
G04 Gerber Fmt 4.5, Leading zero omitted, Abs format (unit mm)*
G04 Created by KiCad (PCBNEW 7.0.6) date 2023-08-12 12:33:25*
%MOMM*%
%LPD*%
G01*
G04 APERTURE LIST*
%ADD10C,0.050000*%
%ADD11C,0.200000*%
%ADD12C,0.075000*%
%ADD13C,0.080000*%
%ADD14C,0.088900*%
%ADD15C,0.090000*%
%ADD16C,0.100000*%
%ADD17C,0.229108*%
G04 APERTURE END LIST*
D10*
X1270072Y-9997536D02*
G75*
G03*
X1335566Y-10063038I65498J-5D01*
G01*
X1397000Y-1270000D02*
X11557000Y-1270000D01*
X11684000Y-1397000D02*
X11685097Y-8990859D01*
X1397000Y-1270000D02*
G75*
G03*
X1270000Y-1397000I0J-127000D01*
G01*
X11558097Y-9117857D02*
G75*
G03*
X11685097Y-8990859I3J126997D01*
G01*
X9359733Y-10062915D02*
G75*
G03*
X9425235Y-9997414I-3J65505D01*
G01*
X9490499Y-9117987D02*
G75*
G03*
X9424997Y-9183486I1J-65503D01*
G01*
X11684000Y-1397000D02*
G75*
G03*
X11557000Y-1270000I-127000J0D01*
G01*
X9359733Y-10062916D02*
X1335566Y-10063038D01*
X9490499Y-9117984D02*
X11558097Y-9117859D01*
X9424997Y-9183486D02*
X9425235Y-9997414D01*
X1270064Y-9997536D02*
X1270000Y-1397000D01*
D11*
D12*
X7328500Y-6947500D02*
X7403500Y-7022500D01*
X7403500Y-6947500D02*
X7328500Y-7022500D01*
X7328500Y-7074500D02*
X7403500Y-7149500D01*
X7403500Y-7074500D02*
X7328500Y-7149500D01*
X7328500Y-7201500D02*
X7403500Y-7276500D01*
X7403500Y-7201500D02*
X7328500Y-7276500D01*
X8852500Y-6439500D02*
X8927500Y-6514500D01*
X8927500Y-6439500D02*
X8852500Y-6514500D01*
X8979500Y-6439500D02*
X9054500Y-6514500D01*
X9054500Y-6439500D02*
X8979500Y-6514500D01*
X9106500Y-6439500D02*
X9181500Y-6514500D01*
X9181500Y-6439500D02*
X9106500Y-6514500D01*
D13*
X5374000Y-1778000D02*
G75*
G03*
X5374000Y-1778000I-40000J0D01*
G01*
X5501000Y-3683000D02*
G75*
G03*
X5501000Y-3683000I-40000J0D01*
G01*
X5501000Y-3937000D02*
G75*
G03*
X5501000Y-3937000I-40000J0D01*
G01*
X5501000Y-4191000D02*
G75*
G03*
X5501000Y-4191000I-40000J0D01*
G01*
X5501000Y-4445000D02*
G75*
G03*
X5501000Y-4445000I-40000J0D01*
G01*
X5501000Y-4699000D02*
G75*
G03*
X5501000Y-4699000I-40000J0D01*
G01*
X5501000Y-4953000D02*
G75*
G03*
X5501000Y-4953000I-40000J0D01*
G01*
X5501000Y-5207000D02*
G75*
G03*
X5501000Y-5207000I-40000J0D01*
G01*
X5636000Y-3048000D02*
G75*
G03*
X5636000Y-3048000I-40000J0D01*
G01*
X5755000Y-6605000D02*
G75*
G03*
X5755000Y-6605000I-40000J0D01*
G01*
X5755000Y-6985000D02*
G75*
G03*
X5755000Y-6985000I-40000J0D01*
G01*
X6136000Y-1778000D02*
G75*
G03*
X6136000Y-1778000I-40000J0D01*
G01*
X6136000Y-3048000D02*
G75*
G03*
X6136000Y-3048000I-40000J0D01*
G01*
X6263000Y-3683000D02*
G75*
G03*
X6263000Y-3683000I-40000J0D01*
G01*
X6263000Y-3937000D02*
G75*
G03*
X6263000Y-3937000I-40000J0D01*
G01*
X6263000Y-4191000D02*
G75*
G03*
X6263000Y-4191000I-40000J0D01*
G01*
X6263000Y-4445000D02*
G75*
G03*
X6263000Y-4445000I-40000J0D01*
G01*
X6263000Y-4699000D02*
G75*
G03*
X6263000Y-4699000I-40000J0D01*
G01*
X6263000Y-4953000D02*
G75*
G03*
X6263000Y-4953000I-40000J0D01*
G01*
X6263000Y-5207000D02*
G75*
G03*
X6263000Y-5207000I-40000J0D01*
G01*
X6771000Y-6477000D02*
G75*
G03*
X6771000Y-6477000I-40000J0D01*
G01*
X6771000Y-7239000D02*
G75*
G03*
X6771000Y-7239000I-40000J0D01*
G01*
X7533000Y-6477000D02*
G75*
G03*
X7533000Y-6477000I-40000J0D01*
G01*
X8041000Y-7239000D02*
G75*
G03*
X8041000Y-7239000I-40000J0D01*
G01*
X8295000Y-6477000D02*
G75*
G03*
X8295000Y-6477000I-40000J0D01*
G01*
X8803000Y-7239000D02*
G75*
G03*
X8803000Y-7239000I-40000J0D01*
G01*
X9565000Y-6477000D02*
G75*
G03*
X9565000Y-6477000I-40000J0D01*
G01*
X9565000Y-7239000D02*
G75*
G03*
X9565000Y-7239000I-40000J0D01*
G01*
X9819000Y-4953000D02*
G75*
G03*
X9819000Y-4953000I-40000J0D01*
G01*
X10581000Y-4953000D02*
G75*
G03*
X10581000Y-4953000I-40000J0D01*
G01*
D14*
X10626852Y-3008630D02*
X10626852Y-3097530D01*
X10582402Y-3053080D02*
X10671302Y-3053080D01*
X10626852Y-3678682D02*
X10626852Y-3767582D01*
X10582402Y-3723132D02*
X10671302Y-3723132D01*
X10876026Y-3008630D02*
X10876026Y-3097530D01*
X10831576Y-3053080D02*
X10920476Y-3053080D01*
X10876026Y-3213608D02*
X10876026Y-3302508D01*
X10831576Y-3258058D02*
X10920476Y-3258058D01*
X10876026Y-3473704D02*
X10876026Y-3562604D01*
X10831576Y-3518154D02*
X10920476Y-3518154D01*
X10876026Y-3678682D02*
X10876026Y-3767582D01*
X10831576Y-3723132D02*
X10920476Y-3723132D01*
D15*
X4730820Y-1809820D02*
X4730820Y-1746180D01*
X4667180Y-1746180D01*
X4667180Y-1809820D01*
X4730820Y-1809820D01*
X4730820Y-2063820D02*
X4730820Y-2000180D01*
X4667180Y-2000180D01*
X4667180Y-2063820D01*
X4730820Y-2063820D01*
X11207820Y-4857820D02*
X11207820Y-4794180D01*
X11144180Y-4794180D01*
X11144180Y-4857820D01*
X11207820Y-4857820D01*
X11207820Y-5111820D02*
X11207820Y-5048180D01*
X11144180Y-5048180D01*
X11144180Y-5111820D01*
X11207820Y-5111820D01*
D16*
X2159000Y-3479000D02*
X2209000Y-3429000D01*
X2159000Y-3379000D01*
X2109000Y-3429000D01*
X2159000Y-3479000D01*
X2159000Y-3733000D02*
X2209000Y-3683000D01*
X2159000Y-3633000D01*
X2109000Y-3683000D01*
X2159000Y-3733000D01*
X2159000Y-3987000D02*
X2209000Y-3937000D01*
X2159000Y-3887000D01*
X2109000Y-3937000D01*
X2159000Y-3987000D01*
X2159000Y-4241000D02*
X2209000Y-4191000D01*
X2159000Y-4141000D01*
X2109000Y-4191000D01*
X2159000Y-4241000D01*
X2159000Y-4495000D02*
X2209000Y-4445000D01*
X2159000Y-4395000D01*
X2109000Y-4445000D01*
X2159000Y-4495000D01*
X2159000Y-4749000D02*
X2209000Y-4699000D01*
X2159000Y-4649000D01*
X2109000Y-4699000D01*
X2159000Y-4749000D01*
X2159000Y-5003000D02*
X2209000Y-4953000D01*
X2159000Y-4903000D01*
X2109000Y-4953000D01*
X2159000Y-5003000D01*
X2159000Y-5257000D02*
X2209000Y-5207000D01*
X2159000Y-5157000D01*
X2109000Y-5207000D01*
X2159000Y-5257000D01*
X2159000Y-5511000D02*
X2209000Y-5461000D01*
X2159000Y-5411000D01*
X2109000Y-5461000D01*
X2159000Y-5511000D01*
X2159000Y-5765000D02*
X2209000Y-5715000D01*
X2159000Y-5665000D01*
X2109000Y-5715000D01*
X2159000Y-5765000D01*
X2159000Y-6019000D02*
X2209000Y-5969000D01*
X2159000Y-5919000D01*
X2109000Y-5969000D01*
X2159000Y-6019000D01*
X2159000Y-6273000D02*
X2209000Y-6223000D01*
X2159000Y-6173000D01*
X2109000Y-6223000D01*
X2159000Y-6273000D01*
X2159000Y-6527000D02*
X2209000Y-6477000D01*
X2159000Y-6427000D01*
X2109000Y-6477000D01*
X2159000Y-6527000D01*
X2159000Y-6781000D02*
X2209000Y-6731000D01*
X2159000Y-6681000D01*
X2109000Y-6731000D01*
X2159000Y-6781000D01*
X2159000Y-7035000D02*
X2209000Y-6985000D01*
X2159000Y-6935000D01*
X2109000Y-6985000D01*
X2159000Y-7035000D01*
X3683000Y-3479000D02*
X3733000Y-3429000D01*
X3683000Y-3379000D01*
X3633000Y-3429000D01*
X3683000Y-3479000D01*
X3683000Y-3733000D02*
X3733000Y-3683000D01*
X3683000Y-3633000D01*
X3633000Y-3683000D01*
X3683000Y-3733000D01*
X3683000Y-3987000D02*
X3733000Y-3937000D01*
X3683000Y-3887000D01*
X3633000Y-3937000D01*
X3683000Y-3987000D01*
X3683000Y-4241000D02*
X3733000Y-4191000D01*
X3683000Y-4141000D01*
X3633000Y-4191000D01*
X3683000Y-4241000D01*
X3683000Y-4495000D02*
X3733000Y-4445000D01*
X3683000Y-4395000D01*
X3633000Y-4445000D01*
X3683000Y-4495000D01*
X3683000Y-4749000D02*
X3733000Y-4699000D01*
X3683000Y-4649000D01*
X3633000Y-4699000D01*
X3683000Y-4749000D01*
X3683000Y-5003000D02*
X3733000Y-4953000D01*
X3683000Y-4903000D01*
X3633000Y-4953000D01*
X3683000Y-5003000D01*
X3683000Y-5257000D02*
X3733000Y-5207000D01*
X3683000Y-5157000D01*
X3633000Y-5207000D01*
X3683000Y-5257000D01*
X3683000Y-5511000D02*
X3733000Y-5461000D01*
X3683000Y-5411000D01*
X3633000Y-5461000D01*
X3683000Y-5511000D01*
X3683000Y-5765000D02*
X3733000Y-5715000D01*
X3683000Y-5665000D01*
X3633000Y-5715000D01*
X3683000Y-5765000D01*
X3683000Y-6019000D02*
X3733000Y-5969000D01*
X3683000Y-5919000D01*
X3633000Y-5969000D01*
X3683000Y-6019000D01*
X3683000Y-6273000D02*
X3733000Y-6223000D01*
X3683000Y-6173000D01*
X3633000Y-6223000D01*
X3683000Y-6273000D01*
X3683000Y-6527000D02*
X3733000Y-6477000D01*
X3683000Y-6427000D01*
X3633000Y-6477000D01*
X3683000Y-6527000D01*
X3683000Y-6781000D02*
X3733000Y-6731000D01*
X3683000Y-6681000D01*
X3633000Y-6731000D01*
X3683000Y-6781000D01*
X3683000Y-7035000D02*
X3733000Y-6985000D01*
X3683000Y-6935000D01*
X3633000Y-6985000D01*
X3683000Y-7035000D01*
X10414000Y-6400000D02*
X10464000Y-6350000D01*
X10414000Y-6300000D01*
X10364000Y-6350000D01*
X10414000Y-6400000D01*
X10414000Y-6654000D02*
X10464000Y-6604000D01*
X10414000Y-6554000D01*
X10364000Y-6604000D01*
X10414000Y-6654000D01*
X10414000Y-6908000D02*
X10464000Y-6858000D01*
X10414000Y-6808000D01*
X10364000Y-6858000D01*
X10414000Y-6908000D01*
X10414000Y-7162000D02*
X10464000Y-7112000D01*
X10414000Y-7062000D01*
X10364000Y-7112000D01*
X10414000Y-7162000D01*
X10414000Y-7416000D02*
X10464000Y-7366000D01*
X10414000Y-7316000D01*
X10364000Y-7366000D01*
X10414000Y-7416000D01*
X10668000Y-6400000D02*
X10718000Y-6350000D01*
X10668000Y-6300000D01*
X10618000Y-6350000D01*
X10668000Y-6400000D01*
X10668000Y-6654000D02*
X10718000Y-6604000D01*
X10668000Y-6554000D01*
X10618000Y-6604000D01*
X10668000Y-6654000D01*
X10668000Y-6908000D02*
X10718000Y-6858000D01*
X10668000Y-6808000D01*
X10618000Y-6858000D01*
X10668000Y-6908000D01*
X10668000Y-7162000D02*
X10718000Y-7112000D01*
X10668000Y-7062000D01*
X10618000Y-7112000D01*
X10668000Y-7162000D01*
X10668000Y-7416000D02*
X10718000Y-7366000D01*
X10668000Y-7316000D01*
X10618000Y-7366000D01*
X10668000Y-7416000D01*
D17*
X11061446Y-2597658D02*
X11290554Y-2826766D01*
X11290554Y-2597658D02*
X11061446Y-2826766D01*
X11290554Y-2712212D02*
G75*
G03*
X11290554Y-2712212I-114554J0D01*
G01*
X11061446Y-3949446D02*
X11290554Y-4178554D01*
X11290554Y-3949446D02*
X11061446Y-4178554D01*
X11290554Y-4064000D02*
G75*
G03*
X11290554Y-4064000I-114554J0D01*
G01*
X11142472Y-3273552D02*
X11371580Y-3502660D01*
X11371580Y-3273552D02*
X11142472Y-3502660D01*
X11371580Y-3388106D02*
G75*
G03*
X11371580Y-3388106I-114554J0D01*
G01*
D11*
X1528277Y-10377022D02*
X1528277Y-10177022D01*
X1528277Y-10177022D02*
X1575896Y-10177022D01*
X1575896Y-10177022D02*
X1604467Y-10186546D01*
X1604467Y-10186546D02*
X1623515Y-10205593D01*
X1623515Y-10205593D02*
X1633039Y-10224641D01*
X1633039Y-10224641D02*
X1642562Y-10262736D01*
X1642562Y-10262736D02*
X1642562Y-10291308D01*
X1642562Y-10291308D02*
X1633039Y-10329403D01*
X1633039Y-10329403D02*
X1623515Y-10348450D01*
X1623515Y-10348450D02*
X1604467Y-10367498D01*
X1604467Y-10367498D02*
X1575896Y-10377022D01*
X1575896Y-10377022D02*
X1528277Y-10377022D01*
X1728277Y-10377022D02*
X1728277Y-10243689D01*
X1728277Y-10281784D02*
X1737801Y-10262736D01*
X1737801Y-10262736D02*
X1747324Y-10253212D01*
X1747324Y-10253212D02*
X1766372Y-10243689D01*
X1766372Y-10243689D02*
X1785420Y-10243689D01*
X1852086Y-10377022D02*
X1852086Y-10243689D01*
X1852086Y-10177022D02*
X1842562Y-10186546D01*
X1842562Y-10186546D02*
X1852086Y-10196070D01*
X1852086Y-10196070D02*
X1861610Y-10186546D01*
X1861610Y-10186546D02*
X1852086Y-10177022D01*
X1852086Y-10177022D02*
X1852086Y-10196070D01*
X1975896Y-10377022D02*
X1956848Y-10367498D01*
X1956848Y-10367498D02*
X1947324Y-10348450D01*
X1947324Y-10348450D02*
X1947324Y-10177022D01*
X2080658Y-10377022D02*
X2061610Y-10367498D01*
X2061610Y-10367498D02*
X2052086Y-10348450D01*
X2052086Y-10348450D02*
X2052086Y-10177022D01*
X2309229Y-10377022D02*
X2309229Y-10177022D01*
X2309229Y-10177022D02*
X2375896Y-10319879D01*
X2375896Y-10319879D02*
X2442563Y-10177022D01*
X2442563Y-10177022D02*
X2442563Y-10377022D01*
X2623515Y-10377022D02*
X2623515Y-10272260D01*
X2623515Y-10272260D02*
X2613991Y-10253212D01*
X2613991Y-10253212D02*
X2594944Y-10243689D01*
X2594944Y-10243689D02*
X2556848Y-10243689D01*
X2556848Y-10243689D02*
X2537801Y-10253212D01*
X2623515Y-10367498D02*
X2604467Y-10377022D01*
X2604467Y-10377022D02*
X2556848Y-10377022D01*
X2556848Y-10377022D02*
X2537801Y-10367498D01*
X2537801Y-10367498D02*
X2528277Y-10348450D01*
X2528277Y-10348450D02*
X2528277Y-10329403D01*
X2528277Y-10329403D02*
X2537801Y-10310355D01*
X2537801Y-10310355D02*
X2556848Y-10300831D01*
X2556848Y-10300831D02*
X2604467Y-10300831D01*
X2604467Y-10300831D02*
X2623515Y-10291308D01*
X2718753Y-10243689D02*
X2718753Y-10443689D01*
X2718753Y-10253212D02*
X2737801Y-10243689D01*
X2737801Y-10243689D02*
X2775896Y-10243689D01*
X2775896Y-10243689D02*
X2794944Y-10253212D01*
X2794944Y-10253212D02*
X2804467Y-10262736D01*
X2804467Y-10262736D02*
X2813991Y-10281784D01*
X2813991Y-10281784D02*
X2813991Y-10338927D01*
X2813991Y-10338927D02*
X2804467Y-10357974D01*
X2804467Y-10357974D02*
X2794944Y-10367498D01*
X2794944Y-10367498D02*
X2775896Y-10377022D01*
X2775896Y-10377022D02*
X2737801Y-10377022D01*
X2737801Y-10377022D02*
X2718753Y-10367498D01*
X2899705Y-10357974D02*
X2909229Y-10367498D01*
X2909229Y-10367498D02*
X2899705Y-10377022D01*
X2899705Y-10377022D02*
X2890182Y-10367498D01*
X2890182Y-10367498D02*
X2899705Y-10357974D01*
X2899705Y-10357974D02*
X2899705Y-10377022D01*
X2899705Y-10253212D02*
X2909229Y-10262736D01*
X2909229Y-10262736D02*
X2899705Y-10272260D01*
X2899705Y-10272260D02*
X2890182Y-10262736D01*
X2890182Y-10262736D02*
X2899705Y-10253212D01*
X2899705Y-10253212D02*
X2899705Y-10272260D01*
D12*
X1192500Y-10668038D02*
X1267500Y-10743038D01*
X1267500Y-10668038D02*
X1192500Y-10743038D01*
D11*
X1566372Y-10597022D02*
X1585420Y-10597022D01*
X1585420Y-10597022D02*
X1604467Y-10606546D01*
X1604467Y-10606546D02*
X1613991Y-10616070D01*
X1613991Y-10616070D02*
X1623515Y-10635117D01*
X1623515Y-10635117D02*
X1633039Y-10673212D01*
X1633039Y-10673212D02*
X1633039Y-10720831D01*
X1633039Y-10720831D02*
X1623515Y-10758927D01*
X1623515Y-10758927D02*
X1613991Y-10777974D01*
X1613991Y-10777974D02*
X1604467Y-10787498D01*
X1604467Y-10787498D02*
X1585420Y-10797022D01*
X1585420Y-10797022D02*
X1566372Y-10797022D01*
X1566372Y-10797022D02*
X1547324Y-10787498D01*
X1547324Y-10787498D02*
X1537801Y-10777974D01*
X1537801Y-10777974D02*
X1528277Y-10758927D01*
X1528277Y-10758927D02*
X1518753Y-10720831D01*
X1518753Y-10720831D02*
X1518753Y-10673212D01*
X1518753Y-10673212D02*
X1528277Y-10635117D01*
X1528277Y-10635117D02*
X1537801Y-10616070D01*
X1537801Y-10616070D02*
X1547324Y-10606546D01*
X1547324Y-10606546D02*
X1566372Y-10597022D01*
X1718753Y-10777974D02*
X1728277Y-10787498D01*
X1728277Y-10787498D02*
X1718753Y-10797022D01*
X1718753Y-10797022D02*
X1709229Y-10787498D01*
X1709229Y-10787498D02*
X1718753Y-10777974D01*
X1718753Y-10777974D02*
X1718753Y-10797022D01*
X1794943Y-10597022D02*
X1928277Y-10597022D01*
X1928277Y-10597022D02*
X1842562Y-10797022D01*
X2099705Y-10597022D02*
X2004467Y-10597022D01*
X2004467Y-10597022D02*
X1994943Y-10692260D01*
X1994943Y-10692260D02*
X2004467Y-10682736D01*
X2004467Y-10682736D02*
X2023515Y-10673212D01*
X2023515Y-10673212D02*
X2071134Y-10673212D01*
X2071134Y-10673212D02*
X2090182Y-10682736D01*
X2090182Y-10682736D02*
X2099705Y-10692260D01*
X2099705Y-10692260D02*
X2109229Y-10711308D01*
X2109229Y-10711308D02*
X2109229Y-10758927D01*
X2109229Y-10758927D02*
X2099705Y-10777974D01*
X2099705Y-10777974D02*
X2090182Y-10787498D01*
X2090182Y-10787498D02*
X2071134Y-10797022D01*
X2071134Y-10797022D02*
X2023515Y-10797022D01*
X2023515Y-10797022D02*
X2004467Y-10787498D01*
X2004467Y-10787498D02*
X1994943Y-10777974D01*
X2233039Y-10597022D02*
X2252086Y-10597022D01*
X2252086Y-10597022D02*
X2271134Y-10606546D01*
X2271134Y-10606546D02*
X2280658Y-10616070D01*
X2280658Y-10616070D02*
X2290182Y-10635117D01*
X2290182Y-10635117D02*
X2299705Y-10673212D01*
X2299705Y-10673212D02*
X2299705Y-10720831D01*
X2299705Y-10720831D02*
X2290182Y-10758927D01*
X2290182Y-10758927D02*
X2280658Y-10777974D01*
X2280658Y-10777974D02*
X2271134Y-10787498D01*
X2271134Y-10787498D02*
X2252086Y-10797022D01*
X2252086Y-10797022D02*
X2233039Y-10797022D01*
X2233039Y-10797022D02*
X2213991Y-10787498D01*
X2213991Y-10787498D02*
X2204467Y-10777974D01*
X2204467Y-10777974D02*
X2194944Y-10758927D01*
X2194944Y-10758927D02*
X2185420Y-10720831D01*
X2185420Y-10720831D02*
X2185420Y-10673212D01*
X2185420Y-10673212D02*
X2194944Y-10635117D01*
X2194944Y-10635117D02*
X2204467Y-10616070D01*
X2204467Y-10616070D02*
X2213991Y-10606546D01*
X2213991Y-10606546D02*
X2233039Y-10597022D01*
X2385420Y-10797022D02*
X2385420Y-10663689D01*
X2385420Y-10682736D02*
X2394944Y-10673212D01*
X2394944Y-10673212D02*
X2413991Y-10663689D01*
X2413991Y-10663689D02*
X2442563Y-10663689D01*
X2442563Y-10663689D02*
X2461610Y-10673212D01*
X2461610Y-10673212D02*
X2471134Y-10692260D01*
X2471134Y-10692260D02*
X2471134Y-10797022D01*
X2471134Y-10692260D02*
X2480658Y-10673212D01*
X2480658Y-10673212D02*
X2499705Y-10663689D01*
X2499705Y-10663689D02*
X2528277Y-10663689D01*
X2528277Y-10663689D02*
X2547325Y-10673212D01*
X2547325Y-10673212D02*
X2556848Y-10692260D01*
X2556848Y-10692260D02*
X2556848Y-10797022D01*
X2652086Y-10797022D02*
X2652086Y-10663689D01*
X2652086Y-10682736D02*
X2661610Y-10673212D01*
X2661610Y-10673212D02*
X2680658Y-10663689D01*
X2680658Y-10663689D02*
X2709229Y-10663689D01*
X2709229Y-10663689D02*
X2728277Y-10673212D01*
X2728277Y-10673212D02*
X2737801Y-10692260D01*
X2737801Y-10692260D02*
X2737801Y-10797022D01*
X2737801Y-10692260D02*
X2747325Y-10673212D01*
X2747325Y-10673212D02*
X2766372Y-10663689D01*
X2766372Y-10663689D02*
X2794944Y-10663689D01*
X2794944Y-10663689D02*
X2813991Y-10673212D01*
X2813991Y-10673212D02*
X2823515Y-10692260D01*
X2823515Y-10692260D02*
X2823515Y-10797022D01*
X3213991Y-10587498D02*
X3042563Y-10844641D01*
X3471134Y-10597022D02*
X3490182Y-10597022D01*
X3490182Y-10597022D02*
X3509229Y-10606546D01*
X3509229Y-10606546D02*
X3518753Y-10616070D01*
X3518753Y-10616070D02*
X3528277Y-10635117D01*
X3528277Y-10635117D02*
X3537801Y-10673212D01*
X3537801Y-10673212D02*
X3537801Y-10720831D01*
X3537801Y-10720831D02*
X3528277Y-10758927D01*
X3528277Y-10758927D02*
X3518753Y-10777974D01*
X3518753Y-10777974D02*
X3509229Y-10787498D01*
X3509229Y-10787498D02*
X3490182Y-10797022D01*
X3490182Y-10797022D02*
X3471134Y-10797022D01*
X3471134Y-10797022D02*
X3452086Y-10787498D01*
X3452086Y-10787498D02*
X3442563Y-10777974D01*
X3442563Y-10777974D02*
X3433039Y-10758927D01*
X3433039Y-10758927D02*
X3423515Y-10720831D01*
X3423515Y-10720831D02*
X3423515Y-10673212D01*
X3423515Y-10673212D02*
X3433039Y-10635117D01*
X3433039Y-10635117D02*
X3442563Y-10616070D01*
X3442563Y-10616070D02*
X3452086Y-10606546D01*
X3452086Y-10606546D02*
X3471134Y-10597022D01*
X3623515Y-10777974D02*
X3633039Y-10787498D01*
X3633039Y-10787498D02*
X3623515Y-10797022D01*
X3623515Y-10797022D02*
X3613991Y-10787498D01*
X3613991Y-10787498D02*
X3623515Y-10777974D01*
X3623515Y-10777974D02*
X3623515Y-10797022D01*
X3756848Y-10597022D02*
X3775896Y-10597022D01*
X3775896Y-10597022D02*
X3794944Y-10606546D01*
X3794944Y-10606546D02*
X3804467Y-10616070D01*
X3804467Y-10616070D02*
X3813991Y-10635117D01*
X3813991Y-10635117D02*
X3823515Y-10673212D01*
X3823515Y-10673212D02*
X3823515Y-10720831D01*
X3823515Y-10720831D02*
X3813991Y-10758927D01*
X3813991Y-10758927D02*
X3804467Y-10777974D01*
X3804467Y-10777974D02*
X3794944Y-10787498D01*
X3794944Y-10787498D02*
X3775896Y-10797022D01*
X3775896Y-10797022D02*
X3756848Y-10797022D01*
X3756848Y-10797022D02*
X3737801Y-10787498D01*
X3737801Y-10787498D02*
X3728277Y-10777974D01*
X3728277Y-10777974D02*
X3718753Y-10758927D01*
X3718753Y-10758927D02*
X3709229Y-10720831D01*
X3709229Y-10720831D02*
X3709229Y-10673212D01*
X3709229Y-10673212D02*
X3718753Y-10635117D01*
X3718753Y-10635117D02*
X3728277Y-10616070D01*
X3728277Y-10616070D02*
X3737801Y-10606546D01*
X3737801Y-10606546D02*
X3756848Y-10597022D01*
X3899706Y-10616070D02*
X3909229Y-10606546D01*
X3909229Y-10606546D02*
X3928277Y-10597022D01*
X3928277Y-10597022D02*
X3975896Y-10597022D01*
X3975896Y-10597022D02*
X3994944Y-10606546D01*
X3994944Y-10606546D02*
X4004467Y-10616070D01*
X4004467Y-10616070D02*
X4013991Y-10635117D01*
X4013991Y-10635117D02*
X4013991Y-10654165D01*
X4013991Y-10654165D02*
X4004467Y-10682736D01*
X4004467Y-10682736D02*
X3890182Y-10797022D01*
X3890182Y-10797022D02*
X4013991Y-10797022D01*
X4109229Y-10797022D02*
X4147325Y-10797022D01*
X4147325Y-10797022D02*
X4166372Y-10787498D01*
X4166372Y-10787498D02*
X4175896Y-10777974D01*
X4175896Y-10777974D02*
X4194944Y-10749403D01*
X4194944Y-10749403D02*
X4204468Y-10711308D01*
X4204468Y-10711308D02*
X4204468Y-10635117D01*
X4204468Y-10635117D02*
X4194944Y-10616070D01*
X4194944Y-10616070D02*
X4185420Y-10606546D01*
X4185420Y-10606546D02*
X4166372Y-10597022D01*
X4166372Y-10597022D02*
X4128277Y-10597022D01*
X4128277Y-10597022D02*
X4109229Y-10606546D01*
X4109229Y-10606546D02*
X4099706Y-10616070D01*
X4099706Y-10616070D02*
X4090182Y-10635117D01*
X4090182Y-10635117D02*
X4090182Y-10682736D01*
X4090182Y-10682736D02*
X4099706Y-10701784D01*
X4099706Y-10701784D02*
X4109229Y-10711308D01*
X4109229Y-10711308D02*
X4128277Y-10720831D01*
X4128277Y-10720831D02*
X4166372Y-10720831D01*
X4166372Y-10720831D02*
X4185420Y-10711308D01*
X4185420Y-10711308D02*
X4194944Y-10701784D01*
X4194944Y-10701784D02*
X4204468Y-10682736D01*
X4385420Y-10597022D02*
X4290182Y-10597022D01*
X4290182Y-10597022D02*
X4280658Y-10692260D01*
X4280658Y-10692260D02*
X4290182Y-10682736D01*
X4290182Y-10682736D02*
X4309229Y-10673212D01*
X4309229Y-10673212D02*
X4356849Y-10673212D01*
X4356849Y-10673212D02*
X4375896Y-10682736D01*
X4375896Y-10682736D02*
X4385420Y-10692260D01*
X4385420Y-10692260D02*
X4394944Y-10711308D01*
X4394944Y-10711308D02*
X4394944Y-10758927D01*
X4394944Y-10758927D02*
X4385420Y-10777974D01*
X4385420Y-10777974D02*
X4375896Y-10787498D01*
X4375896Y-10787498D02*
X4356849Y-10797022D01*
X4356849Y-10797022D02*
X4309229Y-10797022D01*
X4309229Y-10797022D02*
X4290182Y-10787498D01*
X4290182Y-10787498D02*
X4280658Y-10777974D01*
X4471134Y-10597022D02*
X4471134Y-10635117D01*
X4547325Y-10597022D02*
X4547325Y-10635117D01*
X4842563Y-10873212D02*
X4833039Y-10863689D01*
X4833039Y-10863689D02*
X4813991Y-10835117D01*
X4813991Y-10835117D02*
X4804468Y-10816070D01*
X4804468Y-10816070D02*
X4794944Y-10787498D01*
X4794944Y-10787498D02*
X4785420Y-10739879D01*
X4785420Y-10739879D02*
X4785420Y-10701784D01*
X4785420Y-10701784D02*
X4794944Y-10654165D01*
X4794944Y-10654165D02*
X4804468Y-10625593D01*
X4804468Y-10625593D02*
X4813991Y-10606546D01*
X4813991Y-10606546D02*
X4833039Y-10577974D01*
X4833039Y-10577974D02*
X4842563Y-10568450D01*
X5004468Y-10597022D02*
X4966372Y-10597022D01*
X4966372Y-10597022D02*
X4947325Y-10606546D01*
X4947325Y-10606546D02*
X4937801Y-10616070D01*
X4937801Y-10616070D02*
X4918753Y-10644641D01*
X4918753Y-10644641D02*
X4909230Y-10682736D01*
X4909230Y-10682736D02*
X4909230Y-10758927D01*
X4909230Y-10758927D02*
X4918753Y-10777974D01*
X4918753Y-10777974D02*
X4928277Y-10787498D01*
X4928277Y-10787498D02*
X4947325Y-10797022D01*
X4947325Y-10797022D02*
X4985420Y-10797022D01*
X4985420Y-10797022D02*
X5004468Y-10787498D01*
X5004468Y-10787498D02*
X5013991Y-10777974D01*
X5013991Y-10777974D02*
X5023515Y-10758927D01*
X5023515Y-10758927D02*
X5023515Y-10711308D01*
X5023515Y-10711308D02*
X5013991Y-10692260D01*
X5013991Y-10692260D02*
X5004468Y-10682736D01*
X5004468Y-10682736D02*
X4985420Y-10673212D01*
X4985420Y-10673212D02*
X4947325Y-10673212D01*
X4947325Y-10673212D02*
X4928277Y-10682736D01*
X4928277Y-10682736D02*
X4918753Y-10692260D01*
X4918753Y-10692260D02*
X4909230Y-10711308D01*
X5261611Y-10797022D02*
X5261611Y-10597022D01*
X5347325Y-10797022D02*
X5347325Y-10692260D01*
X5347325Y-10692260D02*
X5337801Y-10673212D01*
X5337801Y-10673212D02*
X5318753Y-10663689D01*
X5318753Y-10663689D02*
X5290182Y-10663689D01*
X5290182Y-10663689D02*
X5271134Y-10673212D01*
X5271134Y-10673212D02*
X5261611Y-10682736D01*
X5471134Y-10797022D02*
X5452087Y-10787498D01*
X5452087Y-10787498D02*
X5442563Y-10777974D01*
X5442563Y-10777974D02*
X5433039Y-10758927D01*
X5433039Y-10758927D02*
X5433039Y-10701784D01*
X5433039Y-10701784D02*
X5442563Y-10682736D01*
X5442563Y-10682736D02*
X5452087Y-10673212D01*
X5452087Y-10673212D02*
X5471134Y-10663689D01*
X5471134Y-10663689D02*
X5499706Y-10663689D01*
X5499706Y-10663689D02*
X5518753Y-10673212D01*
X5518753Y-10673212D02*
X5528277Y-10682736D01*
X5528277Y-10682736D02*
X5537801Y-10701784D01*
X5537801Y-10701784D02*
X5537801Y-10758927D01*
X5537801Y-10758927D02*
X5528277Y-10777974D01*
X5528277Y-10777974D02*
X5518753Y-10787498D01*
X5518753Y-10787498D02*
X5499706Y-10797022D01*
X5499706Y-10797022D02*
X5471134Y-10797022D01*
X5652087Y-10797022D02*
X5633039Y-10787498D01*
X5633039Y-10787498D02*
X5623515Y-10768450D01*
X5623515Y-10768450D02*
X5623515Y-10597022D01*
X5804468Y-10787498D02*
X5785420Y-10797022D01*
X5785420Y-10797022D02*
X5747325Y-10797022D01*
X5747325Y-10797022D02*
X5728277Y-10787498D01*
X5728277Y-10787498D02*
X5718753Y-10768450D01*
X5718753Y-10768450D02*
X5718753Y-10692260D01*
X5718753Y-10692260D02*
X5728277Y-10673212D01*
X5728277Y-10673212D02*
X5747325Y-10663689D01*
X5747325Y-10663689D02*
X5785420Y-10663689D01*
X5785420Y-10663689D02*
X5804468Y-10673212D01*
X5804468Y-10673212D02*
X5813991Y-10692260D01*
X5813991Y-10692260D02*
X5813991Y-10711308D01*
X5813991Y-10711308D02*
X5718753Y-10730355D01*
X5890182Y-10787498D02*
X5909230Y-10797022D01*
X5909230Y-10797022D02*
X5947325Y-10797022D01*
X5947325Y-10797022D02*
X5966372Y-10787498D01*
X5966372Y-10787498D02*
X5975896Y-10768450D01*
X5975896Y-10768450D02*
X5975896Y-10758927D01*
X5975896Y-10758927D02*
X5966372Y-10739879D01*
X5966372Y-10739879D02*
X5947325Y-10730355D01*
X5947325Y-10730355D02*
X5918753Y-10730355D01*
X5918753Y-10730355D02*
X5899706Y-10720831D01*
X5899706Y-10720831D02*
X5890182Y-10701784D01*
X5890182Y-10701784D02*
X5890182Y-10692260D01*
X5890182Y-10692260D02*
X5899706Y-10673212D01*
X5899706Y-10673212D02*
X5918753Y-10663689D01*
X5918753Y-10663689D02*
X5947325Y-10663689D01*
X5947325Y-10663689D02*
X5966372Y-10673212D01*
X6042563Y-10873212D02*
X6052087Y-10863689D01*
X6052087Y-10863689D02*
X6071134Y-10835117D01*
X6071134Y-10835117D02*
X6080658Y-10816070D01*
X6080658Y-10816070D02*
X6090182Y-10787498D01*
X6090182Y-10787498D02*
X6099706Y-10739879D01*
X6099706Y-10739879D02*
X6099706Y-10701784D01*
X6099706Y-10701784D02*
X6090182Y-10654165D01*
X6090182Y-10654165D02*
X6080658Y-10625593D01*
X6080658Y-10625593D02*
X6071134Y-10606546D01*
X6071134Y-10606546D02*
X6052087Y-10577974D01*
X6052087Y-10577974D02*
X6042563Y-10568450D01*
D13*
X1267500Y-10969538D02*
G75*
G03*
X1267500Y-10969538I-40000J0D01*
G01*
D11*
X1566372Y-10861022D02*
X1585420Y-10861022D01*
X1585420Y-10861022D02*
X1604467Y-10870546D01*
X1604467Y-10870546D02*
X1613991Y-10880070D01*
X1613991Y-10880070D02*
X1623515Y-10899117D01*
X1623515Y-10899117D02*
X1633039Y-10937212D01*
X1633039Y-10937212D02*
X1633039Y-10984831D01*
X1633039Y-10984831D02*
X1623515Y-11022927D01*
X1623515Y-11022927D02*
X1613991Y-11041974D01*
X1613991Y-11041974D02*
X1604467Y-11051498D01*
X1604467Y-11051498D02*
X1585420Y-11061022D01*
X1585420Y-11061022D02*
X1566372Y-11061022D01*
X1566372Y-11061022D02*
X1547324Y-11051498D01*
X1547324Y-11051498D02*
X1537801Y-11041974D01*
X1537801Y-11041974D02*
X1528277Y-11022927D01*
X1528277Y-11022927D02*
X1518753Y-10984831D01*
X1518753Y-10984831D02*
X1518753Y-10937212D01*
X1518753Y-10937212D02*
X1528277Y-10899117D01*
X1528277Y-10899117D02*
X1537801Y-10880070D01*
X1537801Y-10880070D02*
X1547324Y-10870546D01*
X1547324Y-10870546D02*
X1566372Y-10861022D01*
X1718753Y-11041974D02*
X1728277Y-11051498D01*
X1728277Y-11051498D02*
X1718753Y-11061022D01*
X1718753Y-11061022D02*
X1709229Y-11051498D01*
X1709229Y-11051498D02*
X1718753Y-11041974D01*
X1718753Y-11041974D02*
X1718753Y-11061022D01*
X1842562Y-10946736D02*
X1823515Y-10937212D01*
X1823515Y-10937212D02*
X1813991Y-10927689D01*
X1813991Y-10927689D02*
X1804467Y-10908641D01*
X1804467Y-10908641D02*
X1804467Y-10899117D01*
X1804467Y-10899117D02*
X1813991Y-10880070D01*
X1813991Y-10880070D02*
X1823515Y-10870546D01*
X1823515Y-10870546D02*
X1842562Y-10861022D01*
X1842562Y-10861022D02*
X1880658Y-10861022D01*
X1880658Y-10861022D02*
X1899705Y-10870546D01*
X1899705Y-10870546D02*
X1909229Y-10880070D01*
X1909229Y-10880070D02*
X1918753Y-10899117D01*
X1918753Y-10899117D02*
X1918753Y-10908641D01*
X1918753Y-10908641D02*
X1909229Y-10927689D01*
X1909229Y-10927689D02*
X1899705Y-10937212D01*
X1899705Y-10937212D02*
X1880658Y-10946736D01*
X1880658Y-10946736D02*
X1842562Y-10946736D01*
X1842562Y-10946736D02*
X1823515Y-10956260D01*
X1823515Y-10956260D02*
X1813991Y-10965784D01*
X1813991Y-10965784D02*
X1804467Y-10984831D01*
X1804467Y-10984831D02*
X1804467Y-11022927D01*
X1804467Y-11022927D02*
X1813991Y-11041974D01*
X1813991Y-11041974D02*
X1823515Y-11051498D01*
X1823515Y-11051498D02*
X1842562Y-11061022D01*
X1842562Y-11061022D02*
X1880658Y-11061022D01*
X1880658Y-11061022D02*
X1899705Y-11051498D01*
X1899705Y-11051498D02*
X1909229Y-11041974D01*
X1909229Y-11041974D02*
X1918753Y-11022927D01*
X1918753Y-11022927D02*
X1918753Y-10984831D01*
X1918753Y-10984831D02*
X1909229Y-10965784D01*
X1909229Y-10965784D02*
X1899705Y-10956260D01*
X1899705Y-10956260D02*
X1880658Y-10946736D01*
X2042562Y-10861022D02*
X2061610Y-10861022D01*
X2061610Y-10861022D02*
X2080658Y-10870546D01*
X2080658Y-10870546D02*
X2090182Y-10880070D01*
X2090182Y-10880070D02*
X2099705Y-10899117D01*
X2099705Y-10899117D02*
X2109229Y-10937212D01*
X2109229Y-10937212D02*
X2109229Y-10984831D01*
X2109229Y-10984831D02*
X2099705Y-11022927D01*
X2099705Y-11022927D02*
X2090182Y-11041974D01*
X2090182Y-11041974D02*
X2080658Y-11051498D01*
X2080658Y-11051498D02*
X2061610Y-11061022D01*
X2061610Y-11061022D02*
X2042562Y-11061022D01*
X2042562Y-11061022D02*
X2023515Y-11051498D01*
X2023515Y-11051498D02*
X2013991Y-11041974D01*
X2013991Y-11041974D02*
X2004467Y-11022927D01*
X2004467Y-11022927D02*
X1994943Y-10984831D01*
X1994943Y-10984831D02*
X1994943Y-10937212D01*
X1994943Y-10937212D02*
X2004467Y-10899117D01*
X2004467Y-10899117D02*
X2013991Y-10880070D01*
X2013991Y-10880070D02*
X2023515Y-10870546D01*
X2023515Y-10870546D02*
X2042562Y-10861022D01*
X2233039Y-10861022D02*
X2252086Y-10861022D01*
X2252086Y-10861022D02*
X2271134Y-10870546D01*
X2271134Y-10870546D02*
X2280658Y-10880070D01*
X2280658Y-10880070D02*
X2290182Y-10899117D01*
X2290182Y-10899117D02*
X2299705Y-10937212D01*
X2299705Y-10937212D02*
X2299705Y-10984831D01*
X2299705Y-10984831D02*
X2290182Y-11022927D01*
X2290182Y-11022927D02*
X2280658Y-11041974D01*
X2280658Y-11041974D02*
X2271134Y-11051498D01*
X2271134Y-11051498D02*
X2252086Y-11061022D01*
X2252086Y-11061022D02*
X2233039Y-11061022D01*
X2233039Y-11061022D02*
X2213991Y-11051498D01*
X2213991Y-11051498D02*
X2204467Y-11041974D01*
X2204467Y-11041974D02*
X2194944Y-11022927D01*
X2194944Y-11022927D02*
X2185420Y-10984831D01*
X2185420Y-10984831D02*
X2185420Y-10937212D01*
X2185420Y-10937212D02*
X2194944Y-10899117D01*
X2194944Y-10899117D02*
X2204467Y-10880070D01*
X2204467Y-10880070D02*
X2213991Y-10870546D01*
X2213991Y-10870546D02*
X2233039Y-10861022D01*
X2385420Y-11061022D02*
X2385420Y-10927689D01*
X2385420Y-10946736D02*
X2394944Y-10937212D01*
X2394944Y-10937212D02*
X2413991Y-10927689D01*
X2413991Y-10927689D02*
X2442563Y-10927689D01*
X2442563Y-10927689D02*
X2461610Y-10937212D01*
X2461610Y-10937212D02*
X2471134Y-10956260D01*
X2471134Y-10956260D02*
X2471134Y-11061022D01*
X2471134Y-10956260D02*
X2480658Y-10937212D01*
X2480658Y-10937212D02*
X2499705Y-10927689D01*
X2499705Y-10927689D02*
X2528277Y-10927689D01*
X2528277Y-10927689D02*
X2547325Y-10937212D01*
X2547325Y-10937212D02*
X2556848Y-10956260D01*
X2556848Y-10956260D02*
X2556848Y-11061022D01*
X2652086Y-11061022D02*
X2652086Y-10927689D01*
X2652086Y-10946736D02*
X2661610Y-10937212D01*
X2661610Y-10937212D02*
X2680658Y-10927689D01*
X2680658Y-10927689D02*
X2709229Y-10927689D01*
X2709229Y-10927689D02*
X2728277Y-10937212D01*
X2728277Y-10937212D02*
X2737801Y-10956260D01*
X2737801Y-10956260D02*
X2737801Y-11061022D01*
X2737801Y-10956260D02*
X2747325Y-10937212D01*
X2747325Y-10937212D02*
X2766372Y-10927689D01*
X2766372Y-10927689D02*
X2794944Y-10927689D01*
X2794944Y-10927689D02*
X2813991Y-10937212D01*
X2813991Y-10937212D02*
X2823515Y-10956260D01*
X2823515Y-10956260D02*
X2823515Y-11061022D01*
X3213991Y-10851498D02*
X3042563Y-11108641D01*
X3471134Y-10861022D02*
X3490182Y-10861022D01*
X3490182Y-10861022D02*
X3509229Y-10870546D01*
X3509229Y-10870546D02*
X3518753Y-10880070D01*
X3518753Y-10880070D02*
X3528277Y-10899117D01*
X3528277Y-10899117D02*
X3537801Y-10937212D01*
X3537801Y-10937212D02*
X3537801Y-10984831D01*
X3537801Y-10984831D02*
X3528277Y-11022927D01*
X3528277Y-11022927D02*
X3518753Y-11041974D01*
X3518753Y-11041974D02*
X3509229Y-11051498D01*
X3509229Y-11051498D02*
X3490182Y-11061022D01*
X3490182Y-11061022D02*
X3471134Y-11061022D01*
X3471134Y-11061022D02*
X3452086Y-11051498D01*
X3452086Y-11051498D02*
X3442563Y-11041974D01*
X3442563Y-11041974D02*
X3433039Y-11022927D01*
X3433039Y-11022927D02*
X3423515Y-10984831D01*
X3423515Y-10984831D02*
X3423515Y-10937212D01*
X3423515Y-10937212D02*
X3433039Y-10899117D01*
X3433039Y-10899117D02*
X3442563Y-10880070D01*
X3442563Y-10880070D02*
X3452086Y-10870546D01*
X3452086Y-10870546D02*
X3471134Y-10861022D01*
X3623515Y-11041974D02*
X3633039Y-11051498D01*
X3633039Y-11051498D02*
X3623515Y-11061022D01*
X3623515Y-11061022D02*
X3613991Y-11051498D01*
X3613991Y-11051498D02*
X3623515Y-11041974D01*
X3623515Y-11041974D02*
X3623515Y-11061022D01*
X3756848Y-10861022D02*
X3775896Y-10861022D01*
X3775896Y-10861022D02*
X3794944Y-10870546D01*
X3794944Y-10870546D02*
X3804467Y-10880070D01*
X3804467Y-10880070D02*
X3813991Y-10899117D01*
X3813991Y-10899117D02*
X3823515Y-10937212D01*
X3823515Y-10937212D02*
X3823515Y-10984831D01*
X3823515Y-10984831D02*
X3813991Y-11022927D01*
X3813991Y-11022927D02*
X3804467Y-11041974D01*
X3804467Y-11041974D02*
X3794944Y-11051498D01*
X3794944Y-11051498D02*
X3775896Y-11061022D01*
X3775896Y-11061022D02*
X3756848Y-11061022D01*
X3756848Y-11061022D02*
X3737801Y-11051498D01*
X3737801Y-11051498D02*
X3728277Y-11041974D01*
X3728277Y-11041974D02*
X3718753Y-11022927D01*
X3718753Y-11022927D02*
X3709229Y-10984831D01*
X3709229Y-10984831D02*
X3709229Y-10937212D01*
X3709229Y-10937212D02*
X3718753Y-10899117D01*
X3718753Y-10899117D02*
X3728277Y-10880070D01*
X3728277Y-10880070D02*
X3737801Y-10870546D01*
X3737801Y-10870546D02*
X3756848Y-10861022D01*
X3890182Y-10861022D02*
X4013991Y-10861022D01*
X4013991Y-10861022D02*
X3947325Y-10937212D01*
X3947325Y-10937212D02*
X3975896Y-10937212D01*
X3975896Y-10937212D02*
X3994944Y-10946736D01*
X3994944Y-10946736D02*
X4004467Y-10956260D01*
X4004467Y-10956260D02*
X4013991Y-10975308D01*
X4013991Y-10975308D02*
X4013991Y-11022927D01*
X4013991Y-11022927D02*
X4004467Y-11041974D01*
X4004467Y-11041974D02*
X3994944Y-11051498D01*
X3994944Y-11051498D02*
X3975896Y-11061022D01*
X3975896Y-11061022D02*
X3918753Y-11061022D01*
X3918753Y-11061022D02*
X3899706Y-11051498D01*
X3899706Y-11051498D02*
X3890182Y-11041974D01*
X4204468Y-11061022D02*
X4090182Y-11061022D01*
X4147325Y-11061022D02*
X4147325Y-10861022D01*
X4147325Y-10861022D02*
X4128277Y-10889593D01*
X4128277Y-10889593D02*
X4109229Y-10908641D01*
X4109229Y-10908641D02*
X4090182Y-10918165D01*
X4385420Y-10861022D02*
X4290182Y-10861022D01*
X4290182Y-10861022D02*
X4280658Y-10956260D01*
X4280658Y-10956260D02*
X4290182Y-10946736D01*
X4290182Y-10946736D02*
X4309229Y-10937212D01*
X4309229Y-10937212D02*
X4356849Y-10937212D01*
X4356849Y-10937212D02*
X4375896Y-10946736D01*
X4375896Y-10946736D02*
X4385420Y-10956260D01*
X4385420Y-10956260D02*
X4394944Y-10975308D01*
X4394944Y-10975308D02*
X4394944Y-11022927D01*
X4394944Y-11022927D02*
X4385420Y-11041974D01*
X4385420Y-11041974D02*
X4375896Y-11051498D01*
X4375896Y-11051498D02*
X4356849Y-11061022D01*
X4356849Y-11061022D02*
X4309229Y-11061022D01*
X4309229Y-11061022D02*
X4290182Y-11051498D01*
X4290182Y-11051498D02*
X4280658Y-11041974D01*
X4471134Y-10861022D02*
X4471134Y-10899117D01*
X4547325Y-10861022D02*
X4547325Y-10899117D01*
X4842563Y-11137212D02*
X4833039Y-11127689D01*
X4833039Y-11127689D02*
X4813991Y-11099117D01*
X4813991Y-11099117D02*
X4804468Y-11080070D01*
X4804468Y-11080070D02*
X4794944Y-11051498D01*
X4794944Y-11051498D02*
X4785420Y-11003879D01*
X4785420Y-11003879D02*
X4785420Y-10965784D01*
X4785420Y-10965784D02*
X4794944Y-10918165D01*
X4794944Y-10918165D02*
X4804468Y-10889593D01*
X4804468Y-10889593D02*
X4813991Y-10870546D01*
X4813991Y-10870546D02*
X4833039Y-10841974D01*
X4833039Y-10841974D02*
X4842563Y-10832450D01*
X4899706Y-10861022D02*
X5023515Y-10861022D01*
X5023515Y-10861022D02*
X4956849Y-10937212D01*
X4956849Y-10937212D02*
X4985420Y-10937212D01*
X4985420Y-10937212D02*
X5004468Y-10946736D01*
X5004468Y-10946736D02*
X5013991Y-10956260D01*
X5013991Y-10956260D02*
X5023515Y-10975308D01*
X5023515Y-10975308D02*
X5023515Y-11022927D01*
X5023515Y-11022927D02*
X5013991Y-11041974D01*
X5013991Y-11041974D02*
X5004468Y-11051498D01*
X5004468Y-11051498D02*
X4985420Y-11061022D01*
X4985420Y-11061022D02*
X4928277Y-11061022D01*
X4928277Y-11061022D02*
X4909230Y-11051498D01*
X4909230Y-11051498D02*
X4899706Y-11041974D01*
X5147325Y-10861022D02*
X5166372Y-10861022D01*
X5166372Y-10861022D02*
X5185420Y-10870546D01*
X5185420Y-10870546D02*
X5194944Y-10880070D01*
X5194944Y-10880070D02*
X5204468Y-10899117D01*
X5204468Y-10899117D02*
X5213991Y-10937212D01*
X5213991Y-10937212D02*
X5213991Y-10984831D01*
X5213991Y-10984831D02*
X5204468Y-11022927D01*
X5204468Y-11022927D02*
X5194944Y-11041974D01*
X5194944Y-11041974D02*
X5185420Y-11051498D01*
X5185420Y-11051498D02*
X5166372Y-11061022D01*
X5166372Y-11061022D02*
X5147325Y-11061022D01*
X5147325Y-11061022D02*
X5128277Y-11051498D01*
X5128277Y-11051498D02*
X5118753Y-11041974D01*
X5118753Y-11041974D02*
X5109230Y-11022927D01*
X5109230Y-11022927D02*
X5099706Y-10984831D01*
X5099706Y-10984831D02*
X5099706Y-10937212D01*
X5099706Y-10937212D02*
X5109230Y-10899117D01*
X5109230Y-10899117D02*
X5118753Y-10880070D01*
X5118753Y-10880070D02*
X5128277Y-10870546D01*
X5128277Y-10870546D02*
X5147325Y-10861022D01*
X5452087Y-11061022D02*
X5452087Y-10861022D01*
X5537801Y-11061022D02*
X5537801Y-10956260D01*
X5537801Y-10956260D02*
X5528277Y-10937212D01*
X5528277Y-10937212D02*
X5509230Y-10927689D01*
X5509230Y-10927689D02*
X5480658Y-10927689D01*
X5480658Y-10927689D02*
X5461611Y-10937212D01*
X5461611Y-10937212D02*
X5452087Y-10946736D01*
X5661610Y-11061022D02*
X5642563Y-11051498D01*
X5642563Y-11051498D02*
X5633039Y-11041974D01*
X5633039Y-11041974D02*
X5623515Y-11022927D01*
X5623515Y-11022927D02*
X5623515Y-10965784D01*
X5623515Y-10965784D02*
X5633039Y-10946736D01*
X5633039Y-10946736D02*
X5642563Y-10937212D01*
X5642563Y-10937212D02*
X5661610Y-10927689D01*
X5661610Y-10927689D02*
X5690182Y-10927689D01*
X5690182Y-10927689D02*
X5709230Y-10937212D01*
X5709230Y-10937212D02*
X5718753Y-10946736D01*
X5718753Y-10946736D02*
X5728277Y-10965784D01*
X5728277Y-10965784D02*
X5728277Y-11022927D01*
X5728277Y-11022927D02*
X5718753Y-11041974D01*
X5718753Y-11041974D02*
X5709230Y-11051498D01*
X5709230Y-11051498D02*
X5690182Y-11061022D01*
X5690182Y-11061022D02*
X5661610Y-11061022D01*
X5842563Y-11061022D02*
X5823515Y-11051498D01*
X5823515Y-11051498D02*
X5813991Y-11032450D01*
X5813991Y-11032450D02*
X5813991Y-10861022D01*
X5994944Y-11051498D02*
X5975896Y-11061022D01*
X5975896Y-11061022D02*
X5937801Y-11061022D01*
X5937801Y-11061022D02*
X5918753Y-11051498D01*
X5918753Y-11051498D02*
X5909230Y-11032450D01*
X5909230Y-11032450D02*
X5909230Y-10956260D01*
X5909230Y-10956260D02*
X5918753Y-10937212D01*
X5918753Y-10937212D02*
X5937801Y-10927689D01*
X5937801Y-10927689D02*
X5975896Y-10927689D01*
X5975896Y-10927689D02*
X5994944Y-10937212D01*
X5994944Y-10937212D02*
X6004468Y-10956260D01*
X6004468Y-10956260D02*
X6004468Y-10975308D01*
X6004468Y-10975308D02*
X5909230Y-10994355D01*
X6080658Y-11051498D02*
X6099706Y-11061022D01*
X6099706Y-11061022D02*
X6137801Y-11061022D01*
X6137801Y-11061022D02*
X6156849Y-11051498D01*
X6156849Y-11051498D02*
X6166372Y-11032450D01*
X6166372Y-11032450D02*
X6166372Y-11022927D01*
X6166372Y-11022927D02*
X6156849Y-11003879D01*
X6156849Y-11003879D02*
X6137801Y-10994355D01*
X6137801Y-10994355D02*
X6109230Y-10994355D01*
X6109230Y-10994355D02*
X6090182Y-10984831D01*
X6090182Y-10984831D02*
X6080658Y-10965784D01*
X6080658Y-10965784D02*
X6080658Y-10956260D01*
X6080658Y-10956260D02*
X6090182Y-10937212D01*
X6090182Y-10937212D02*
X6109230Y-10927689D01*
X6109230Y-10927689D02*
X6137801Y-10927689D01*
X6137801Y-10927689D02*
X6156849Y-10937212D01*
X6233039Y-11137212D02*
X6242563Y-11127689D01*
X6242563Y-11127689D02*
X6261611Y-11099117D01*
X6261611Y-11099117D02*
X6271134Y-11080070D01*
X6271134Y-11080070D02*
X6280658Y-11051498D01*
X6280658Y-11051498D02*
X6290182Y-11003879D01*
X6290182Y-11003879D02*
X6290182Y-10965784D01*
X6290182Y-10965784D02*
X6280658Y-10918165D01*
X6280658Y-10918165D02*
X6271134Y-10889593D01*
X6271134Y-10889593D02*
X6261611Y-10870546D01*
X6261611Y-10870546D02*
X6242563Y-10841974D01*
X6242563Y-10841974D02*
X6233039Y-10832450D01*
D14*
X1223050Y-11189088D02*
X1223050Y-11277988D01*
X1178600Y-11233538D02*
X1267500Y-11233538D01*
D11*
X1566372Y-11125022D02*
X1585420Y-11125022D01*
X1585420Y-11125022D02*
X1604467Y-11134546D01*
X1604467Y-11134546D02*
X1613991Y-11144070D01*
X1613991Y-11144070D02*
X1623515Y-11163117D01*
X1623515Y-11163117D02*
X1633039Y-11201212D01*
X1633039Y-11201212D02*
X1633039Y-11248831D01*
X1633039Y-11248831D02*
X1623515Y-11286927D01*
X1623515Y-11286927D02*
X1613991Y-11305974D01*
X1613991Y-11305974D02*
X1604467Y-11315498D01*
X1604467Y-11315498D02*
X1585420Y-11325022D01*
X1585420Y-11325022D02*
X1566372Y-11325022D01*
X1566372Y-11325022D02*
X1547324Y-11315498D01*
X1547324Y-11315498D02*
X1537801Y-11305974D01*
X1537801Y-11305974D02*
X1528277Y-11286927D01*
X1528277Y-11286927D02*
X1518753Y-11248831D01*
X1518753Y-11248831D02*
X1518753Y-11201212D01*
X1518753Y-11201212D02*
X1528277Y-11163117D01*
X1528277Y-11163117D02*
X1537801Y-11144070D01*
X1537801Y-11144070D02*
X1547324Y-11134546D01*
X1547324Y-11134546D02*
X1566372Y-11125022D01*
X1718753Y-11305974D02*
X1728277Y-11315498D01*
X1728277Y-11315498D02*
X1718753Y-11325022D01*
X1718753Y-11325022D02*
X1709229Y-11315498D01*
X1709229Y-11315498D02*
X1718753Y-11305974D01*
X1718753Y-11305974D02*
X1718753Y-11325022D01*
X1842562Y-11210736D02*
X1823515Y-11201212D01*
X1823515Y-11201212D02*
X1813991Y-11191688D01*
X1813991Y-11191688D02*
X1804467Y-11172641D01*
X1804467Y-11172641D02*
X1804467Y-11163117D01*
X1804467Y-11163117D02*
X1813991Y-11144070D01*
X1813991Y-11144070D02*
X1823515Y-11134546D01*
X1823515Y-11134546D02*
X1842562Y-11125022D01*
X1842562Y-11125022D02*
X1880658Y-11125022D01*
X1880658Y-11125022D02*
X1899705Y-11134546D01*
X1899705Y-11134546D02*
X1909229Y-11144070D01*
X1909229Y-11144070D02*
X1918753Y-11163117D01*
X1918753Y-11163117D02*
X1918753Y-11172641D01*
X1918753Y-11172641D02*
X1909229Y-11191688D01*
X1909229Y-11191688D02*
X1899705Y-11201212D01*
X1899705Y-11201212D02*
X1880658Y-11210736D01*
X1880658Y-11210736D02*
X1842562Y-11210736D01*
X1842562Y-11210736D02*
X1823515Y-11220260D01*
X1823515Y-11220260D02*
X1813991Y-11229784D01*
X1813991Y-11229784D02*
X1804467Y-11248831D01*
X1804467Y-11248831D02*
X1804467Y-11286927D01*
X1804467Y-11286927D02*
X1813991Y-11305974D01*
X1813991Y-11305974D02*
X1823515Y-11315498D01*
X1823515Y-11315498D02*
X1842562Y-11325022D01*
X1842562Y-11325022D02*
X1880658Y-11325022D01*
X1880658Y-11325022D02*
X1899705Y-11315498D01*
X1899705Y-11315498D02*
X1909229Y-11305974D01*
X1909229Y-11305974D02*
X1918753Y-11286927D01*
X1918753Y-11286927D02*
X1918753Y-11248831D01*
X1918753Y-11248831D02*
X1909229Y-11229784D01*
X1909229Y-11229784D02*
X1899705Y-11220260D01*
X1899705Y-11220260D02*
X1880658Y-11210736D01*
X2033039Y-11210736D02*
X2013991Y-11201212D01*
X2013991Y-11201212D02*
X2004467Y-11191688D01*
X2004467Y-11191688D02*
X1994943Y-11172641D01*
X1994943Y-11172641D02*
X1994943Y-11163117D01*
X1994943Y-11163117D02*
X2004467Y-11144070D01*
X2004467Y-11144070D02*
X2013991Y-11134546D01*
X2013991Y-11134546D02*
X2033039Y-11125022D01*
X2033039Y-11125022D02*
X2071134Y-11125022D01*
X2071134Y-11125022D02*
X2090182Y-11134546D01*
X2090182Y-11134546D02*
X2099705Y-11144070D01*
X2099705Y-11144070D02*
X2109229Y-11163117D01*
X2109229Y-11163117D02*
X2109229Y-11172641D01*
X2109229Y-11172641D02*
X2099705Y-11191688D01*
X2099705Y-11191688D02*
X2090182Y-11201212D01*
X2090182Y-11201212D02*
X2071134Y-11210736D01*
X2071134Y-11210736D02*
X2033039Y-11210736D01*
X2033039Y-11210736D02*
X2013991Y-11220260D01*
X2013991Y-11220260D02*
X2004467Y-11229784D01*
X2004467Y-11229784D02*
X1994943Y-11248831D01*
X1994943Y-11248831D02*
X1994943Y-11286927D01*
X1994943Y-11286927D02*
X2004467Y-11305974D01*
X2004467Y-11305974D02*
X2013991Y-11315498D01*
X2013991Y-11315498D02*
X2033039Y-11325022D01*
X2033039Y-11325022D02*
X2071134Y-11325022D01*
X2071134Y-11325022D02*
X2090182Y-11315498D01*
X2090182Y-11315498D02*
X2099705Y-11305974D01*
X2099705Y-11305974D02*
X2109229Y-11286927D01*
X2109229Y-11286927D02*
X2109229Y-11248831D01*
X2109229Y-11248831D02*
X2099705Y-11229784D01*
X2099705Y-11229784D02*
X2090182Y-11220260D01*
X2090182Y-11220260D02*
X2071134Y-11210736D01*
X2204467Y-11325022D02*
X2242563Y-11325022D01*
X2242563Y-11325022D02*
X2261610Y-11315498D01*
X2261610Y-11315498D02*
X2271134Y-11305974D01*
X2271134Y-11305974D02*
X2290182Y-11277403D01*
X2290182Y-11277403D02*
X2299705Y-11239308D01*
X2299705Y-11239308D02*
X2299705Y-11163117D01*
X2299705Y-11163117D02*
X2290182Y-11144070D01*
X2290182Y-11144070D02*
X2280658Y-11134546D01*
X2280658Y-11134546D02*
X2261610Y-11125022D01*
X2261610Y-11125022D02*
X2223515Y-11125022D01*
X2223515Y-11125022D02*
X2204467Y-11134546D01*
X2204467Y-11134546D02*
X2194944Y-11144070D01*
X2194944Y-11144070D02*
X2185420Y-11163117D01*
X2185420Y-11163117D02*
X2185420Y-11210736D01*
X2185420Y-11210736D02*
X2194944Y-11229784D01*
X2194944Y-11229784D02*
X2204467Y-11239308D01*
X2204467Y-11239308D02*
X2223515Y-11248831D01*
X2223515Y-11248831D02*
X2261610Y-11248831D01*
X2261610Y-11248831D02*
X2280658Y-11239308D01*
X2280658Y-11239308D02*
X2290182Y-11229784D01*
X2290182Y-11229784D02*
X2299705Y-11210736D01*
X2385420Y-11325022D02*
X2385420Y-11191688D01*
X2385420Y-11210736D02*
X2394944Y-11201212D01*
X2394944Y-11201212D02*
X2413991Y-11191688D01*
X2413991Y-11191688D02*
X2442563Y-11191688D01*
X2442563Y-11191688D02*
X2461610Y-11201212D01*
X2461610Y-11201212D02*
X2471134Y-11220260D01*
X2471134Y-11220260D02*
X2471134Y-11325022D01*
X2471134Y-11220260D02*
X2480658Y-11201212D01*
X2480658Y-11201212D02*
X2499705Y-11191688D01*
X2499705Y-11191688D02*
X2528277Y-11191688D01*
X2528277Y-11191688D02*
X2547325Y-11201212D01*
X2547325Y-11201212D02*
X2556848Y-11220260D01*
X2556848Y-11220260D02*
X2556848Y-11325022D01*
X2652086Y-11325022D02*
X2652086Y-11191688D01*
X2652086Y-11210736D02*
X2661610Y-11201212D01*
X2661610Y-11201212D02*
X2680658Y-11191688D01*
X2680658Y-11191688D02*
X2709229Y-11191688D01*
X2709229Y-11191688D02*
X2728277Y-11201212D01*
X2728277Y-11201212D02*
X2737801Y-11220260D01*
X2737801Y-11220260D02*
X2737801Y-11325022D01*
X2737801Y-11220260D02*
X2747325Y-11201212D01*
X2747325Y-11201212D02*
X2766372Y-11191688D01*
X2766372Y-11191688D02*
X2794944Y-11191688D01*
X2794944Y-11191688D02*
X2813991Y-11201212D01*
X2813991Y-11201212D02*
X2823515Y-11220260D01*
X2823515Y-11220260D02*
X2823515Y-11325022D01*
X3213991Y-11115498D02*
X3042563Y-11372641D01*
X3471134Y-11125022D02*
X3490182Y-11125022D01*
X3490182Y-11125022D02*
X3509229Y-11134546D01*
X3509229Y-11134546D02*
X3518753Y-11144070D01*
X3518753Y-11144070D02*
X3528277Y-11163117D01*
X3528277Y-11163117D02*
X3537801Y-11201212D01*
X3537801Y-11201212D02*
X3537801Y-11248831D01*
X3537801Y-11248831D02*
X3528277Y-11286927D01*
X3528277Y-11286927D02*
X3518753Y-11305974D01*
X3518753Y-11305974D02*
X3509229Y-11315498D01*
X3509229Y-11315498D02*
X3490182Y-11325022D01*
X3490182Y-11325022D02*
X3471134Y-11325022D01*
X3471134Y-11325022D02*
X3452086Y-11315498D01*
X3452086Y-11315498D02*
X3442563Y-11305974D01*
X3442563Y-11305974D02*
X3433039Y-11286927D01*
X3433039Y-11286927D02*
X3423515Y-11248831D01*
X3423515Y-11248831D02*
X3423515Y-11201212D01*
X3423515Y-11201212D02*
X3433039Y-11163117D01*
X3433039Y-11163117D02*
X3442563Y-11144070D01*
X3442563Y-11144070D02*
X3452086Y-11134546D01*
X3452086Y-11134546D02*
X3471134Y-11125022D01*
X3623515Y-11305974D02*
X3633039Y-11315498D01*
X3633039Y-11315498D02*
X3623515Y-11325022D01*
X3623515Y-11325022D02*
X3613991Y-11315498D01*
X3613991Y-11315498D02*
X3623515Y-11305974D01*
X3623515Y-11305974D02*
X3623515Y-11325022D01*
X3756848Y-11125022D02*
X3775896Y-11125022D01*
X3775896Y-11125022D02*
X3794944Y-11134546D01*
X3794944Y-11134546D02*
X3804467Y-11144070D01*
X3804467Y-11144070D02*
X3813991Y-11163117D01*
X3813991Y-11163117D02*
X3823515Y-11201212D01*
X3823515Y-11201212D02*
X3823515Y-11248831D01*
X3823515Y-11248831D02*
X3813991Y-11286927D01*
X3813991Y-11286927D02*
X3804467Y-11305974D01*
X3804467Y-11305974D02*
X3794944Y-11315498D01*
X3794944Y-11315498D02*
X3775896Y-11325022D01*
X3775896Y-11325022D02*
X3756848Y-11325022D01*
X3756848Y-11325022D02*
X3737801Y-11315498D01*
X3737801Y-11315498D02*
X3728277Y-11305974D01*
X3728277Y-11305974D02*
X3718753Y-11286927D01*
X3718753Y-11286927D02*
X3709229Y-11248831D01*
X3709229Y-11248831D02*
X3709229Y-11201212D01*
X3709229Y-11201212D02*
X3718753Y-11163117D01*
X3718753Y-11163117D02*
X3728277Y-11144070D01*
X3728277Y-11144070D02*
X3737801Y-11134546D01*
X3737801Y-11134546D02*
X3756848Y-11125022D01*
X3890182Y-11125022D02*
X4013991Y-11125022D01*
X4013991Y-11125022D02*
X3947325Y-11201212D01*
X3947325Y-11201212D02*
X3975896Y-11201212D01*
X3975896Y-11201212D02*
X3994944Y-11210736D01*
X3994944Y-11210736D02*
X4004467Y-11220260D01*
X4004467Y-11220260D02*
X4013991Y-11239308D01*
X4013991Y-11239308D02*
X4013991Y-11286927D01*
X4013991Y-11286927D02*
X4004467Y-11305974D01*
X4004467Y-11305974D02*
X3994944Y-11315498D01*
X3994944Y-11315498D02*
X3975896Y-11325022D01*
X3975896Y-11325022D02*
X3918753Y-11325022D01*
X3918753Y-11325022D02*
X3899706Y-11315498D01*
X3899706Y-11315498D02*
X3890182Y-11305974D01*
X4194944Y-11125022D02*
X4099706Y-11125022D01*
X4099706Y-11125022D02*
X4090182Y-11220260D01*
X4090182Y-11220260D02*
X4099706Y-11210736D01*
X4099706Y-11210736D02*
X4118753Y-11201212D01*
X4118753Y-11201212D02*
X4166372Y-11201212D01*
X4166372Y-11201212D02*
X4185420Y-11210736D01*
X4185420Y-11210736D02*
X4194944Y-11220260D01*
X4194944Y-11220260D02*
X4204468Y-11239308D01*
X4204468Y-11239308D02*
X4204468Y-11286927D01*
X4204468Y-11286927D02*
X4194944Y-11305974D01*
X4194944Y-11305974D02*
X4185420Y-11315498D01*
X4185420Y-11315498D02*
X4166372Y-11325022D01*
X4166372Y-11325022D02*
X4118753Y-11325022D01*
X4118753Y-11325022D02*
X4099706Y-11315498D01*
X4099706Y-11315498D02*
X4090182Y-11305974D01*
X4328277Y-11125022D02*
X4347325Y-11125022D01*
X4347325Y-11125022D02*
X4366372Y-11134546D01*
X4366372Y-11134546D02*
X4375896Y-11144070D01*
X4375896Y-11144070D02*
X4385420Y-11163117D01*
X4385420Y-11163117D02*
X4394944Y-11201212D01*
X4394944Y-11201212D02*
X4394944Y-11248831D01*
X4394944Y-11248831D02*
X4385420Y-11286927D01*
X4385420Y-11286927D02*
X4375896Y-11305974D01*
X4375896Y-11305974D02*
X4366372Y-11315498D01*
X4366372Y-11315498D02*
X4347325Y-11325022D01*
X4347325Y-11325022D02*
X4328277Y-11325022D01*
X4328277Y-11325022D02*
X4309229Y-11315498D01*
X4309229Y-11315498D02*
X4299706Y-11305974D01*
X4299706Y-11305974D02*
X4290182Y-11286927D01*
X4290182Y-11286927D02*
X4280658Y-11248831D01*
X4280658Y-11248831D02*
X4280658Y-11201212D01*
X4280658Y-11201212D02*
X4290182Y-11163117D01*
X4290182Y-11163117D02*
X4299706Y-11144070D01*
X4299706Y-11144070D02*
X4309229Y-11134546D01*
X4309229Y-11134546D02*
X4328277Y-11125022D01*
X4471134Y-11125022D02*
X4471134Y-11163117D01*
X4547325Y-11125022D02*
X4547325Y-11163117D01*
X4842563Y-11401212D02*
X4833039Y-11391688D01*
X4833039Y-11391688D02*
X4813991Y-11363117D01*
X4813991Y-11363117D02*
X4804468Y-11344069D01*
X4804468Y-11344069D02*
X4794944Y-11315498D01*
X4794944Y-11315498D02*
X4785420Y-11267879D01*
X4785420Y-11267879D02*
X4785420Y-11229784D01*
X4785420Y-11229784D02*
X4794944Y-11182165D01*
X4794944Y-11182165D02*
X4804468Y-11153593D01*
X4804468Y-11153593D02*
X4813991Y-11134546D01*
X4813991Y-11134546D02*
X4833039Y-11105974D01*
X4833039Y-11105974D02*
X4842563Y-11096450D01*
X5004468Y-11125022D02*
X4966372Y-11125022D01*
X4966372Y-11125022D02*
X4947325Y-11134546D01*
X4947325Y-11134546D02*
X4937801Y-11144070D01*
X4937801Y-11144070D02*
X4918753Y-11172641D01*
X4918753Y-11172641D02*
X4909230Y-11210736D01*
X4909230Y-11210736D02*
X4909230Y-11286927D01*
X4909230Y-11286927D02*
X4918753Y-11305974D01*
X4918753Y-11305974D02*
X4928277Y-11315498D01*
X4928277Y-11315498D02*
X4947325Y-11325022D01*
X4947325Y-11325022D02*
X4985420Y-11325022D01*
X4985420Y-11325022D02*
X5004468Y-11315498D01*
X5004468Y-11315498D02*
X5013991Y-11305974D01*
X5013991Y-11305974D02*
X5023515Y-11286927D01*
X5023515Y-11286927D02*
X5023515Y-11239308D01*
X5023515Y-11239308D02*
X5013991Y-11220260D01*
X5013991Y-11220260D02*
X5004468Y-11210736D01*
X5004468Y-11210736D02*
X4985420Y-11201212D01*
X4985420Y-11201212D02*
X4947325Y-11201212D01*
X4947325Y-11201212D02*
X4928277Y-11210736D01*
X4928277Y-11210736D02*
X4918753Y-11220260D01*
X4918753Y-11220260D02*
X4909230Y-11239308D01*
X5261611Y-11325022D02*
X5261611Y-11125022D01*
X5347325Y-11325022D02*
X5347325Y-11220260D01*
X5347325Y-11220260D02*
X5337801Y-11201212D01*
X5337801Y-11201212D02*
X5318753Y-11191688D01*
X5318753Y-11191688D02*
X5290182Y-11191688D01*
X5290182Y-11191688D02*
X5271134Y-11201212D01*
X5271134Y-11201212D02*
X5261611Y-11210736D01*
X5471134Y-11325022D02*
X5452087Y-11315498D01*
X5452087Y-11315498D02*
X5442563Y-11305974D01*
X5442563Y-11305974D02*
X5433039Y-11286927D01*
X5433039Y-11286927D02*
X5433039Y-11229784D01*
X5433039Y-11229784D02*
X5442563Y-11210736D01*
X5442563Y-11210736D02*
X5452087Y-11201212D01*
X5452087Y-11201212D02*
X5471134Y-11191688D01*
X5471134Y-11191688D02*
X5499706Y-11191688D01*
X5499706Y-11191688D02*
X5518753Y-11201212D01*
X5518753Y-11201212D02*
X5528277Y-11210736D01*
X5528277Y-11210736D02*
X5537801Y-11229784D01*
X5537801Y-11229784D02*
X5537801Y-11286927D01*
X5537801Y-11286927D02*
X5528277Y-11305974D01*
X5528277Y-11305974D02*
X5518753Y-11315498D01*
X5518753Y-11315498D02*
X5499706Y-11325022D01*
X5499706Y-11325022D02*
X5471134Y-11325022D01*
X5652087Y-11325022D02*
X5633039Y-11315498D01*
X5633039Y-11315498D02*
X5623515Y-11296450D01*
X5623515Y-11296450D02*
X5623515Y-11125022D01*
X5804468Y-11315498D02*
X5785420Y-11325022D01*
X5785420Y-11325022D02*
X5747325Y-11325022D01*
X5747325Y-11325022D02*
X5728277Y-11315498D01*
X5728277Y-11315498D02*
X5718753Y-11296450D01*
X5718753Y-11296450D02*
X5718753Y-11220260D01*
X5718753Y-11220260D02*
X5728277Y-11201212D01*
X5728277Y-11201212D02*
X5747325Y-11191688D01*
X5747325Y-11191688D02*
X5785420Y-11191688D01*
X5785420Y-11191688D02*
X5804468Y-11201212D01*
X5804468Y-11201212D02*
X5813991Y-11220260D01*
X5813991Y-11220260D02*
X5813991Y-11239308D01*
X5813991Y-11239308D02*
X5718753Y-11258355D01*
X5890182Y-11315498D02*
X5909230Y-11325022D01*
X5909230Y-11325022D02*
X5947325Y-11325022D01*
X5947325Y-11325022D02*
X5966372Y-11315498D01*
X5966372Y-11315498D02*
X5975896Y-11296450D01*
X5975896Y-11296450D02*
X5975896Y-11286927D01*
X5975896Y-11286927D02*
X5966372Y-11267879D01*
X5966372Y-11267879D02*
X5947325Y-11258355D01*
X5947325Y-11258355D02*
X5918753Y-11258355D01*
X5918753Y-11258355D02*
X5899706Y-11248831D01*
X5899706Y-11248831D02*
X5890182Y-11229784D01*
X5890182Y-11229784D02*
X5890182Y-11220260D01*
X5890182Y-11220260D02*
X5899706Y-11201212D01*
X5899706Y-11201212D02*
X5918753Y-11191688D01*
X5918753Y-11191688D02*
X5947325Y-11191688D01*
X5947325Y-11191688D02*
X5966372Y-11201212D01*
X6042563Y-11401212D02*
X6052087Y-11391688D01*
X6052087Y-11391688D02*
X6071134Y-11363117D01*
X6071134Y-11363117D02*
X6080658Y-11344069D01*
X6080658Y-11344069D02*
X6090182Y-11315498D01*
X6090182Y-11315498D02*
X6099706Y-11267879D01*
X6099706Y-11267879D02*
X6099706Y-11229784D01*
X6099706Y-11229784D02*
X6090182Y-11182165D01*
X6090182Y-11182165D02*
X6080658Y-11153593D01*
X6080658Y-11153593D02*
X6071134Y-11134546D01*
X6071134Y-11134546D02*
X6052087Y-11105974D01*
X6052087Y-11105974D02*
X6042563Y-11096450D01*
D15*
X1254320Y-11529358D02*
X1254320Y-11465718D01*
X1190680Y-11465718D01*
X1190680Y-11529358D01*
X1254320Y-11529358D01*
D11*
X1566372Y-11389022D02*
X1585420Y-11389022D01*
X1585420Y-11389022D02*
X1604467Y-11398546D01*
X1604467Y-11398546D02*
X1613991Y-11408069D01*
X1613991Y-11408069D02*
X1623515Y-11427117D01*
X1623515Y-11427117D02*
X1633039Y-11465212D01*
X1633039Y-11465212D02*
X1633039Y-11512831D01*
X1633039Y-11512831D02*
X1623515Y-11550927D01*
X1623515Y-11550927D02*
X1613991Y-11569974D01*
X1613991Y-11569974D02*
X1604467Y-11579498D01*
X1604467Y-11579498D02*
X1585420Y-11589022D01*
X1585420Y-11589022D02*
X1566372Y-11589022D01*
X1566372Y-11589022D02*
X1547324Y-11579498D01*
X1547324Y-11579498D02*
X1537801Y-11569974D01*
X1537801Y-11569974D02*
X1528277Y-11550927D01*
X1528277Y-11550927D02*
X1518753Y-11512831D01*
X1518753Y-11512831D02*
X1518753Y-11465212D01*
X1518753Y-11465212D02*
X1528277Y-11427117D01*
X1528277Y-11427117D02*
X1537801Y-11408069D01*
X1537801Y-11408069D02*
X1547324Y-11398546D01*
X1547324Y-11398546D02*
X1566372Y-11389022D01*
X1718753Y-11569974D02*
X1728277Y-11579498D01*
X1728277Y-11579498D02*
X1718753Y-11589022D01*
X1718753Y-11589022D02*
X1709229Y-11579498D01*
X1709229Y-11579498D02*
X1718753Y-11569974D01*
X1718753Y-11569974D02*
X1718753Y-11589022D01*
X1823515Y-11589022D02*
X1861610Y-11589022D01*
X1861610Y-11589022D02*
X1880658Y-11579498D01*
X1880658Y-11579498D02*
X1890182Y-11569974D01*
X1890182Y-11569974D02*
X1909229Y-11541403D01*
X1909229Y-11541403D02*
X1918753Y-11503308D01*
X1918753Y-11503308D02*
X1918753Y-11427117D01*
X1918753Y-11427117D02*
X1909229Y-11408069D01*
X1909229Y-11408069D02*
X1899705Y-11398546D01*
X1899705Y-11398546D02*
X1880658Y-11389022D01*
X1880658Y-11389022D02*
X1842562Y-11389022D01*
X1842562Y-11389022D02*
X1823515Y-11398546D01*
X1823515Y-11398546D02*
X1813991Y-11408069D01*
X1813991Y-11408069D02*
X1804467Y-11427117D01*
X1804467Y-11427117D02*
X1804467Y-11474736D01*
X1804467Y-11474736D02*
X1813991Y-11493784D01*
X1813991Y-11493784D02*
X1823515Y-11503308D01*
X1823515Y-11503308D02*
X1842562Y-11512831D01*
X1842562Y-11512831D02*
X1880658Y-11512831D01*
X1880658Y-11512831D02*
X1899705Y-11503308D01*
X1899705Y-11503308D02*
X1909229Y-11493784D01*
X1909229Y-11493784D02*
X1918753Y-11474736D01*
X2042562Y-11389022D02*
X2061610Y-11389022D01*
X2061610Y-11389022D02*
X2080658Y-11398546D01*
X2080658Y-11398546D02*
X2090182Y-11408069D01*
X2090182Y-11408069D02*
X2099705Y-11427117D01*
X2099705Y-11427117D02*
X2109229Y-11465212D01*
X2109229Y-11465212D02*
X2109229Y-11512831D01*
X2109229Y-11512831D02*
X2099705Y-11550927D01*
X2099705Y-11550927D02*
X2090182Y-11569974D01*
X2090182Y-11569974D02*
X2080658Y-11579498D01*
X2080658Y-11579498D02*
X2061610Y-11589022D01*
X2061610Y-11589022D02*
X2042562Y-11589022D01*
X2042562Y-11589022D02*
X2023515Y-11579498D01*
X2023515Y-11579498D02*
X2013991Y-11569974D01*
X2013991Y-11569974D02*
X2004467Y-11550927D01*
X2004467Y-11550927D02*
X1994943Y-11512831D01*
X1994943Y-11512831D02*
X1994943Y-11465212D01*
X1994943Y-11465212D02*
X2004467Y-11427117D01*
X2004467Y-11427117D02*
X2013991Y-11408069D01*
X2013991Y-11408069D02*
X2023515Y-11398546D01*
X2023515Y-11398546D02*
X2042562Y-11389022D01*
X2233039Y-11389022D02*
X2252086Y-11389022D01*
X2252086Y-11389022D02*
X2271134Y-11398546D01*
X2271134Y-11398546D02*
X2280658Y-11408069D01*
X2280658Y-11408069D02*
X2290182Y-11427117D01*
X2290182Y-11427117D02*
X2299705Y-11465212D01*
X2299705Y-11465212D02*
X2299705Y-11512831D01*
X2299705Y-11512831D02*
X2290182Y-11550927D01*
X2290182Y-11550927D02*
X2280658Y-11569974D01*
X2280658Y-11569974D02*
X2271134Y-11579498D01*
X2271134Y-11579498D02*
X2252086Y-11589022D01*
X2252086Y-11589022D02*
X2233039Y-11589022D01*
X2233039Y-11589022D02*
X2213991Y-11579498D01*
X2213991Y-11579498D02*
X2204467Y-11569974D01*
X2204467Y-11569974D02*
X2194944Y-11550927D01*
X2194944Y-11550927D02*
X2185420Y-11512831D01*
X2185420Y-11512831D02*
X2185420Y-11465212D01*
X2185420Y-11465212D02*
X2194944Y-11427117D01*
X2194944Y-11427117D02*
X2204467Y-11408069D01*
X2204467Y-11408069D02*
X2213991Y-11398546D01*
X2213991Y-11398546D02*
X2233039Y-11389022D01*
X2385420Y-11589022D02*
X2385420Y-11455688D01*
X2385420Y-11474736D02*
X2394944Y-11465212D01*
X2394944Y-11465212D02*
X2413991Y-11455688D01*
X2413991Y-11455688D02*
X2442563Y-11455688D01*
X2442563Y-11455688D02*
X2461610Y-11465212D01*
X2461610Y-11465212D02*
X2471134Y-11484260D01*
X2471134Y-11484260D02*
X2471134Y-11589022D01*
X2471134Y-11484260D02*
X2480658Y-11465212D01*
X2480658Y-11465212D02*
X2499705Y-11455688D01*
X2499705Y-11455688D02*
X2528277Y-11455688D01*
X2528277Y-11455688D02*
X2547325Y-11465212D01*
X2547325Y-11465212D02*
X2556848Y-11484260D01*
X2556848Y-11484260D02*
X2556848Y-11589022D01*
X2652086Y-11589022D02*
X2652086Y-11455688D01*
X2652086Y-11474736D02*
X2661610Y-11465212D01*
X2661610Y-11465212D02*
X2680658Y-11455688D01*
X2680658Y-11455688D02*
X2709229Y-11455688D01*
X2709229Y-11455688D02*
X2728277Y-11465212D01*
X2728277Y-11465212D02*
X2737801Y-11484260D01*
X2737801Y-11484260D02*
X2737801Y-11589022D01*
X2737801Y-11484260D02*
X2747325Y-11465212D01*
X2747325Y-11465212D02*
X2766372Y-11455688D01*
X2766372Y-11455688D02*
X2794944Y-11455688D01*
X2794944Y-11455688D02*
X2813991Y-11465212D01*
X2813991Y-11465212D02*
X2823515Y-11484260D01*
X2823515Y-11484260D02*
X2823515Y-11589022D01*
X3213991Y-11379498D02*
X3042563Y-11636641D01*
X3471134Y-11389022D02*
X3490182Y-11389022D01*
X3490182Y-11389022D02*
X3509229Y-11398546D01*
X3509229Y-11398546D02*
X3518753Y-11408069D01*
X3518753Y-11408069D02*
X3528277Y-11427117D01*
X3528277Y-11427117D02*
X3537801Y-11465212D01*
X3537801Y-11465212D02*
X3537801Y-11512831D01*
X3537801Y-11512831D02*
X3528277Y-11550927D01*
X3528277Y-11550927D02*
X3518753Y-11569974D01*
X3518753Y-11569974D02*
X3509229Y-11579498D01*
X3509229Y-11579498D02*
X3490182Y-11589022D01*
X3490182Y-11589022D02*
X3471134Y-11589022D01*
X3471134Y-11589022D02*
X3452086Y-11579498D01*
X3452086Y-11579498D02*
X3442563Y-11569974D01*
X3442563Y-11569974D02*
X3433039Y-11550927D01*
X3433039Y-11550927D02*
X3423515Y-11512831D01*
X3423515Y-11512831D02*
X3423515Y-11465212D01*
X3423515Y-11465212D02*
X3433039Y-11427117D01*
X3433039Y-11427117D02*
X3442563Y-11408069D01*
X3442563Y-11408069D02*
X3452086Y-11398546D01*
X3452086Y-11398546D02*
X3471134Y-11389022D01*
X3623515Y-11569974D02*
X3633039Y-11579498D01*
X3633039Y-11579498D02*
X3623515Y-11589022D01*
X3623515Y-11589022D02*
X3613991Y-11579498D01*
X3613991Y-11579498D02*
X3623515Y-11569974D01*
X3623515Y-11569974D02*
X3623515Y-11589022D01*
X3756848Y-11389022D02*
X3775896Y-11389022D01*
X3775896Y-11389022D02*
X3794944Y-11398546D01*
X3794944Y-11398546D02*
X3804467Y-11408069D01*
X3804467Y-11408069D02*
X3813991Y-11427117D01*
X3813991Y-11427117D02*
X3823515Y-11465212D01*
X3823515Y-11465212D02*
X3823515Y-11512831D01*
X3823515Y-11512831D02*
X3813991Y-11550927D01*
X3813991Y-11550927D02*
X3804467Y-11569974D01*
X3804467Y-11569974D02*
X3794944Y-11579498D01*
X3794944Y-11579498D02*
X3775896Y-11589022D01*
X3775896Y-11589022D02*
X3756848Y-11589022D01*
X3756848Y-11589022D02*
X3737801Y-11579498D01*
X3737801Y-11579498D02*
X3728277Y-11569974D01*
X3728277Y-11569974D02*
X3718753Y-11550927D01*
X3718753Y-11550927D02*
X3709229Y-11512831D01*
X3709229Y-11512831D02*
X3709229Y-11465212D01*
X3709229Y-11465212D02*
X3718753Y-11427117D01*
X3718753Y-11427117D02*
X3728277Y-11408069D01*
X3728277Y-11408069D02*
X3737801Y-11398546D01*
X3737801Y-11398546D02*
X3756848Y-11389022D01*
X3890182Y-11389022D02*
X4013991Y-11389022D01*
X4013991Y-11389022D02*
X3947325Y-11465212D01*
X3947325Y-11465212D02*
X3975896Y-11465212D01*
X3975896Y-11465212D02*
X3994944Y-11474736D01*
X3994944Y-11474736D02*
X4004467Y-11484260D01*
X4004467Y-11484260D02*
X4013991Y-11503308D01*
X4013991Y-11503308D02*
X4013991Y-11550927D01*
X4013991Y-11550927D02*
X4004467Y-11569974D01*
X4004467Y-11569974D02*
X3994944Y-11579498D01*
X3994944Y-11579498D02*
X3975896Y-11589022D01*
X3975896Y-11589022D02*
X3918753Y-11589022D01*
X3918753Y-11589022D02*
X3899706Y-11579498D01*
X3899706Y-11579498D02*
X3890182Y-11569974D01*
X4194944Y-11389022D02*
X4099706Y-11389022D01*
X4099706Y-11389022D02*
X4090182Y-11484260D01*
X4090182Y-11484260D02*
X4099706Y-11474736D01*
X4099706Y-11474736D02*
X4118753Y-11465212D01*
X4118753Y-11465212D02*
X4166372Y-11465212D01*
X4166372Y-11465212D02*
X4185420Y-11474736D01*
X4185420Y-11474736D02*
X4194944Y-11484260D01*
X4194944Y-11484260D02*
X4204468Y-11503308D01*
X4204468Y-11503308D02*
X4204468Y-11550927D01*
X4204468Y-11550927D02*
X4194944Y-11569974D01*
X4194944Y-11569974D02*
X4185420Y-11579498D01*
X4185420Y-11579498D02*
X4166372Y-11589022D01*
X4166372Y-11589022D02*
X4118753Y-11589022D01*
X4118753Y-11589022D02*
X4099706Y-11579498D01*
X4099706Y-11579498D02*
X4090182Y-11569974D01*
X4375896Y-11455688D02*
X4375896Y-11589022D01*
X4328277Y-11379498D02*
X4280658Y-11522355D01*
X4280658Y-11522355D02*
X4404468Y-11522355D01*
X4471134Y-11389022D02*
X4471134Y-11427117D01*
X4547325Y-11389022D02*
X4547325Y-11427117D01*
X4842563Y-11665212D02*
X4833039Y-11655688D01*
X4833039Y-11655688D02*
X4813991Y-11627117D01*
X4813991Y-11627117D02*
X4804468Y-11608069D01*
X4804468Y-11608069D02*
X4794944Y-11579498D01*
X4794944Y-11579498D02*
X4785420Y-11531879D01*
X4785420Y-11531879D02*
X4785420Y-11493784D01*
X4785420Y-11493784D02*
X4794944Y-11446165D01*
X4794944Y-11446165D02*
X4804468Y-11417593D01*
X4804468Y-11417593D02*
X4813991Y-11398546D01*
X4813991Y-11398546D02*
X4833039Y-11369974D01*
X4833039Y-11369974D02*
X4842563Y-11360450D01*
X5004468Y-11455688D02*
X5004468Y-11589022D01*
X4956849Y-11379498D02*
X4909230Y-11522355D01*
X4909230Y-11522355D02*
X5033039Y-11522355D01*
X5261611Y-11589022D02*
X5261611Y-11389022D01*
X5347325Y-11589022D02*
X5347325Y-11484260D01*
X5347325Y-11484260D02*
X5337801Y-11465212D01*
X5337801Y-11465212D02*
X5318753Y-11455688D01*
X5318753Y-11455688D02*
X5290182Y-11455688D01*
X5290182Y-11455688D02*
X5271134Y-11465212D01*
X5271134Y-11465212D02*
X5261611Y-11474736D01*
X5471134Y-11589022D02*
X5452087Y-11579498D01*
X5452087Y-11579498D02*
X5442563Y-11569974D01*
X5442563Y-11569974D02*
X5433039Y-11550927D01*
X5433039Y-11550927D02*
X5433039Y-11493784D01*
X5433039Y-11493784D02*
X5442563Y-11474736D01*
X5442563Y-11474736D02*
X5452087Y-11465212D01*
X5452087Y-11465212D02*
X5471134Y-11455688D01*
X5471134Y-11455688D02*
X5499706Y-11455688D01*
X5499706Y-11455688D02*
X5518753Y-11465212D01*
X5518753Y-11465212D02*
X5528277Y-11474736D01*
X5528277Y-11474736D02*
X5537801Y-11493784D01*
X5537801Y-11493784D02*
X5537801Y-11550927D01*
X5537801Y-11550927D02*
X5528277Y-11569974D01*
X5528277Y-11569974D02*
X5518753Y-11579498D01*
X5518753Y-11579498D02*
X5499706Y-11589022D01*
X5499706Y-11589022D02*
X5471134Y-11589022D01*
X5652087Y-11589022D02*
X5633039Y-11579498D01*
X5633039Y-11579498D02*
X5623515Y-11560450D01*
X5623515Y-11560450D02*
X5623515Y-11389022D01*
X5804468Y-11579498D02*
X5785420Y-11589022D01*
X5785420Y-11589022D02*
X5747325Y-11589022D01*
X5747325Y-11589022D02*
X5728277Y-11579498D01*
X5728277Y-11579498D02*
X5718753Y-11560450D01*
X5718753Y-11560450D02*
X5718753Y-11484260D01*
X5718753Y-11484260D02*
X5728277Y-11465212D01*
X5728277Y-11465212D02*
X5747325Y-11455688D01*
X5747325Y-11455688D02*
X5785420Y-11455688D01*
X5785420Y-11455688D02*
X5804468Y-11465212D01*
X5804468Y-11465212D02*
X5813991Y-11484260D01*
X5813991Y-11484260D02*
X5813991Y-11503308D01*
X5813991Y-11503308D02*
X5718753Y-11522355D01*
X5890182Y-11579498D02*
X5909230Y-11589022D01*
X5909230Y-11589022D02*
X5947325Y-11589022D01*
X5947325Y-11589022D02*
X5966372Y-11579498D01*
X5966372Y-11579498D02*
X5975896Y-11560450D01*
X5975896Y-11560450D02*
X5975896Y-11550927D01*
X5975896Y-11550927D02*
X5966372Y-11531879D01*
X5966372Y-11531879D02*
X5947325Y-11522355D01*
X5947325Y-11522355D02*
X5918753Y-11522355D01*
X5918753Y-11522355D02*
X5899706Y-11512831D01*
X5899706Y-11512831D02*
X5890182Y-11493784D01*
X5890182Y-11493784D02*
X5890182Y-11484260D01*
X5890182Y-11484260D02*
X5899706Y-11465212D01*
X5899706Y-11465212D02*
X5918753Y-11455688D01*
X5918753Y-11455688D02*
X5947325Y-11455688D01*
X5947325Y-11455688D02*
X5966372Y-11465212D01*
X6042563Y-11665212D02*
X6052087Y-11655688D01*
X6052087Y-11655688D02*
X6071134Y-11627117D01*
X6071134Y-11627117D02*
X6080658Y-11608069D01*
X6080658Y-11608069D02*
X6090182Y-11579498D01*
X6090182Y-11579498D02*
X6099706Y-11531879D01*
X6099706Y-11531879D02*
X6099706Y-11493784D01*
X6099706Y-11493784D02*
X6090182Y-11446165D01*
X6090182Y-11446165D02*
X6080658Y-11417593D01*
X6080658Y-11417593D02*
X6071134Y-11398546D01*
X6071134Y-11398546D02*
X6052087Y-11369974D01*
X6052087Y-11369974D02*
X6042563Y-11360450D01*
D16*
X1217500Y-11811538D02*
X1267500Y-11761538D01*
X1217500Y-11711538D01*
X1167500Y-11761538D01*
X1217500Y-11811538D01*
D11*
X1633039Y-11853022D02*
X1518753Y-11853022D01*
X1575896Y-11853022D02*
X1575896Y-11653022D01*
X1575896Y-11653022D02*
X1556848Y-11681593D01*
X1556848Y-11681593D02*
X1537801Y-11700641D01*
X1537801Y-11700641D02*
X1518753Y-11710165D01*
X1718753Y-11833974D02*
X1728277Y-11843498D01*
X1728277Y-11843498D02*
X1718753Y-11853022D01*
X1718753Y-11853022D02*
X1709229Y-11843498D01*
X1709229Y-11843498D02*
X1718753Y-11833974D01*
X1718753Y-11833974D02*
X1718753Y-11853022D01*
X1852086Y-11653022D02*
X1871134Y-11653022D01*
X1871134Y-11653022D02*
X1890182Y-11662546D01*
X1890182Y-11662546D02*
X1899705Y-11672069D01*
X1899705Y-11672069D02*
X1909229Y-11691117D01*
X1909229Y-11691117D02*
X1918753Y-11729212D01*
X1918753Y-11729212D02*
X1918753Y-11776831D01*
X1918753Y-11776831D02*
X1909229Y-11814927D01*
X1909229Y-11814927D02*
X1899705Y-11833974D01*
X1899705Y-11833974D02*
X1890182Y-11843498D01*
X1890182Y-11843498D02*
X1871134Y-11853022D01*
X1871134Y-11853022D02*
X1852086Y-11853022D01*
X1852086Y-11853022D02*
X1833039Y-11843498D01*
X1833039Y-11843498D02*
X1823515Y-11833974D01*
X1823515Y-11833974D02*
X1813991Y-11814927D01*
X1813991Y-11814927D02*
X1804467Y-11776831D01*
X1804467Y-11776831D02*
X1804467Y-11729212D01*
X1804467Y-11729212D02*
X1813991Y-11691117D01*
X1813991Y-11691117D02*
X1823515Y-11672069D01*
X1823515Y-11672069D02*
X1833039Y-11662546D01*
X1833039Y-11662546D02*
X1852086Y-11653022D01*
X2042562Y-11653022D02*
X2061610Y-11653022D01*
X2061610Y-11653022D02*
X2080658Y-11662546D01*
X2080658Y-11662546D02*
X2090182Y-11672069D01*
X2090182Y-11672069D02*
X2099705Y-11691117D01*
X2099705Y-11691117D02*
X2109229Y-11729212D01*
X2109229Y-11729212D02*
X2109229Y-11776831D01*
X2109229Y-11776831D02*
X2099705Y-11814927D01*
X2099705Y-11814927D02*
X2090182Y-11833974D01*
X2090182Y-11833974D02*
X2080658Y-11843498D01*
X2080658Y-11843498D02*
X2061610Y-11853022D01*
X2061610Y-11853022D02*
X2042562Y-11853022D01*
X2042562Y-11853022D02*
X2023515Y-11843498D01*
X2023515Y-11843498D02*
X2013991Y-11833974D01*
X2013991Y-11833974D02*
X2004467Y-11814927D01*
X2004467Y-11814927D02*
X1994943Y-11776831D01*
X1994943Y-11776831D02*
X1994943Y-11729212D01*
X1994943Y-11729212D02*
X2004467Y-11691117D01*
X2004467Y-11691117D02*
X2013991Y-11672069D01*
X2013991Y-11672069D02*
X2023515Y-11662546D01*
X2023515Y-11662546D02*
X2042562Y-11653022D01*
X2233039Y-11653022D02*
X2252086Y-11653022D01*
X2252086Y-11653022D02*
X2271134Y-11662546D01*
X2271134Y-11662546D02*
X2280658Y-11672069D01*
X2280658Y-11672069D02*
X2290182Y-11691117D01*
X2290182Y-11691117D02*
X2299705Y-11729212D01*
X2299705Y-11729212D02*
X2299705Y-11776831D01*
X2299705Y-11776831D02*
X2290182Y-11814927D01*
X2290182Y-11814927D02*
X2280658Y-11833974D01*
X2280658Y-11833974D02*
X2271134Y-11843498D01*
X2271134Y-11843498D02*
X2252086Y-11853022D01*
X2252086Y-11853022D02*
X2233039Y-11853022D01*
X2233039Y-11853022D02*
X2213991Y-11843498D01*
X2213991Y-11843498D02*
X2204467Y-11833974D01*
X2204467Y-11833974D02*
X2194944Y-11814927D01*
X2194944Y-11814927D02*
X2185420Y-11776831D01*
X2185420Y-11776831D02*
X2185420Y-11729212D01*
X2185420Y-11729212D02*
X2194944Y-11691117D01*
X2194944Y-11691117D02*
X2204467Y-11672069D01*
X2204467Y-11672069D02*
X2213991Y-11662546D01*
X2213991Y-11662546D02*
X2233039Y-11653022D01*
X2385420Y-11853022D02*
X2385420Y-11719688D01*
X2385420Y-11738736D02*
X2394944Y-11729212D01*
X2394944Y-11729212D02*
X2413991Y-11719688D01*
X2413991Y-11719688D02*
X2442563Y-11719688D01*
X2442563Y-11719688D02*
X2461610Y-11729212D01*
X2461610Y-11729212D02*
X2471134Y-11748260D01*
X2471134Y-11748260D02*
X2471134Y-11853022D01*
X2471134Y-11748260D02*
X2480658Y-11729212D01*
X2480658Y-11729212D02*
X2499705Y-11719688D01*
X2499705Y-11719688D02*
X2528277Y-11719688D01*
X2528277Y-11719688D02*
X2547325Y-11729212D01*
X2547325Y-11729212D02*
X2556848Y-11748260D01*
X2556848Y-11748260D02*
X2556848Y-11853022D01*
X2652086Y-11853022D02*
X2652086Y-11719688D01*
X2652086Y-11738736D02*
X2661610Y-11729212D01*
X2661610Y-11729212D02*
X2680658Y-11719688D01*
X2680658Y-11719688D02*
X2709229Y-11719688D01*
X2709229Y-11719688D02*
X2728277Y-11729212D01*
X2728277Y-11729212D02*
X2737801Y-11748260D01*
X2737801Y-11748260D02*
X2737801Y-11853022D01*
X2737801Y-11748260D02*
X2747325Y-11729212D01*
X2747325Y-11729212D02*
X2766372Y-11719688D01*
X2766372Y-11719688D02*
X2794944Y-11719688D01*
X2794944Y-11719688D02*
X2813991Y-11729212D01*
X2813991Y-11729212D02*
X2823515Y-11748260D01*
X2823515Y-11748260D02*
X2823515Y-11853022D01*
X3213991Y-11643498D02*
X3042563Y-11900641D01*
X3471134Y-11653022D02*
X3490182Y-11653022D01*
X3490182Y-11653022D02*
X3509229Y-11662546D01*
X3509229Y-11662546D02*
X3518753Y-11672069D01*
X3518753Y-11672069D02*
X3528277Y-11691117D01*
X3528277Y-11691117D02*
X3537801Y-11729212D01*
X3537801Y-11729212D02*
X3537801Y-11776831D01*
X3537801Y-11776831D02*
X3528277Y-11814927D01*
X3528277Y-11814927D02*
X3518753Y-11833974D01*
X3518753Y-11833974D02*
X3509229Y-11843498D01*
X3509229Y-11843498D02*
X3490182Y-11853022D01*
X3490182Y-11853022D02*
X3471134Y-11853022D01*
X3471134Y-11853022D02*
X3452086Y-11843498D01*
X3452086Y-11843498D02*
X3442563Y-11833974D01*
X3442563Y-11833974D02*
X3433039Y-11814927D01*
X3433039Y-11814927D02*
X3423515Y-11776831D01*
X3423515Y-11776831D02*
X3423515Y-11729212D01*
X3423515Y-11729212D02*
X3433039Y-11691117D01*
X3433039Y-11691117D02*
X3442563Y-11672069D01*
X3442563Y-11672069D02*
X3452086Y-11662546D01*
X3452086Y-11662546D02*
X3471134Y-11653022D01*
X3623515Y-11833974D02*
X3633039Y-11843498D01*
X3633039Y-11843498D02*
X3623515Y-11853022D01*
X3623515Y-11853022D02*
X3613991Y-11843498D01*
X3613991Y-11843498D02*
X3623515Y-11833974D01*
X3623515Y-11833974D02*
X3623515Y-11853022D01*
X3756848Y-11653022D02*
X3775896Y-11653022D01*
X3775896Y-11653022D02*
X3794944Y-11662546D01*
X3794944Y-11662546D02*
X3804467Y-11672069D01*
X3804467Y-11672069D02*
X3813991Y-11691117D01*
X3813991Y-11691117D02*
X3823515Y-11729212D01*
X3823515Y-11729212D02*
X3823515Y-11776831D01*
X3823515Y-11776831D02*
X3813991Y-11814927D01*
X3813991Y-11814927D02*
X3804467Y-11833974D01*
X3804467Y-11833974D02*
X3794944Y-11843498D01*
X3794944Y-11843498D02*
X3775896Y-11853022D01*
X3775896Y-11853022D02*
X3756848Y-11853022D01*
X3756848Y-11853022D02*
X3737801Y-11843498D01*
X3737801Y-11843498D02*
X3728277Y-11833974D01*
X3728277Y-11833974D02*
X3718753Y-11814927D01*
X3718753Y-11814927D02*
X3709229Y-11776831D01*
X3709229Y-11776831D02*
X3709229Y-11729212D01*
X3709229Y-11729212D02*
X3718753Y-11691117D01*
X3718753Y-11691117D02*
X3728277Y-11672069D01*
X3728277Y-11672069D02*
X3737801Y-11662546D01*
X3737801Y-11662546D02*
X3756848Y-11653022D01*
X3890182Y-11653022D02*
X4013991Y-11653022D01*
X4013991Y-11653022D02*
X3947325Y-11729212D01*
X3947325Y-11729212D02*
X3975896Y-11729212D01*
X3975896Y-11729212D02*
X3994944Y-11738736D01*
X3994944Y-11738736D02*
X4004467Y-11748260D01*
X4004467Y-11748260D02*
X4013991Y-11767308D01*
X4013991Y-11767308D02*
X4013991Y-11814927D01*
X4013991Y-11814927D02*
X4004467Y-11833974D01*
X4004467Y-11833974D02*
X3994944Y-11843498D01*
X3994944Y-11843498D02*
X3975896Y-11853022D01*
X3975896Y-11853022D02*
X3918753Y-11853022D01*
X3918753Y-11853022D02*
X3899706Y-11843498D01*
X3899706Y-11843498D02*
X3890182Y-11833974D01*
X4109229Y-11853022D02*
X4147325Y-11853022D01*
X4147325Y-11853022D02*
X4166372Y-11843498D01*
X4166372Y-11843498D02*
X4175896Y-11833974D01*
X4175896Y-11833974D02*
X4194944Y-11805403D01*
X4194944Y-11805403D02*
X4204468Y-11767308D01*
X4204468Y-11767308D02*
X4204468Y-11691117D01*
X4204468Y-11691117D02*
X4194944Y-11672069D01*
X4194944Y-11672069D02*
X4185420Y-11662546D01*
X4185420Y-11662546D02*
X4166372Y-11653022D01*
X4166372Y-11653022D02*
X4128277Y-11653022D01*
X4128277Y-11653022D02*
X4109229Y-11662546D01*
X4109229Y-11662546D02*
X4099706Y-11672069D01*
X4099706Y-11672069D02*
X4090182Y-11691117D01*
X4090182Y-11691117D02*
X4090182Y-11738736D01*
X4090182Y-11738736D02*
X4099706Y-11757784D01*
X4099706Y-11757784D02*
X4109229Y-11767308D01*
X4109229Y-11767308D02*
X4128277Y-11776831D01*
X4128277Y-11776831D02*
X4166372Y-11776831D01*
X4166372Y-11776831D02*
X4185420Y-11767308D01*
X4185420Y-11767308D02*
X4194944Y-11757784D01*
X4194944Y-11757784D02*
X4204468Y-11738736D01*
X4375896Y-11719688D02*
X4375896Y-11853022D01*
X4328277Y-11643498D02*
X4280658Y-11786355D01*
X4280658Y-11786355D02*
X4404468Y-11786355D01*
X4471134Y-11653022D02*
X4471134Y-11691117D01*
X4547325Y-11653022D02*
X4547325Y-11691117D01*
X4842563Y-11929212D02*
X4833039Y-11919688D01*
X4833039Y-11919688D02*
X4813991Y-11891117D01*
X4813991Y-11891117D02*
X4804468Y-11872069D01*
X4804468Y-11872069D02*
X4794944Y-11843498D01*
X4794944Y-11843498D02*
X4785420Y-11795879D01*
X4785420Y-11795879D02*
X4785420Y-11757784D01*
X4785420Y-11757784D02*
X4794944Y-11710165D01*
X4794944Y-11710165D02*
X4804468Y-11681593D01*
X4804468Y-11681593D02*
X4813991Y-11662546D01*
X4813991Y-11662546D02*
X4833039Y-11633974D01*
X4833039Y-11633974D02*
X4842563Y-11624450D01*
X5004468Y-11719688D02*
X5004468Y-11853022D01*
X4956849Y-11643498D02*
X4909230Y-11786355D01*
X4909230Y-11786355D02*
X5033039Y-11786355D01*
X5147325Y-11653022D02*
X5166372Y-11653022D01*
X5166372Y-11653022D02*
X5185420Y-11662546D01*
X5185420Y-11662546D02*
X5194944Y-11672069D01*
X5194944Y-11672069D02*
X5204468Y-11691117D01*
X5204468Y-11691117D02*
X5213991Y-11729212D01*
X5213991Y-11729212D02*
X5213991Y-11776831D01*
X5213991Y-11776831D02*
X5204468Y-11814927D01*
X5204468Y-11814927D02*
X5194944Y-11833974D01*
X5194944Y-11833974D02*
X5185420Y-11843498D01*
X5185420Y-11843498D02*
X5166372Y-11853022D01*
X5166372Y-11853022D02*
X5147325Y-11853022D01*
X5147325Y-11853022D02*
X5128277Y-11843498D01*
X5128277Y-11843498D02*
X5118753Y-11833974D01*
X5118753Y-11833974D02*
X5109230Y-11814927D01*
X5109230Y-11814927D02*
X5099706Y-11776831D01*
X5099706Y-11776831D02*
X5099706Y-11729212D01*
X5099706Y-11729212D02*
X5109230Y-11691117D01*
X5109230Y-11691117D02*
X5118753Y-11672069D01*
X5118753Y-11672069D02*
X5128277Y-11662546D01*
X5128277Y-11662546D02*
X5147325Y-11653022D01*
X5452087Y-11853022D02*
X5452087Y-11653022D01*
X5537801Y-11853022D02*
X5537801Y-11748260D01*
X5537801Y-11748260D02*
X5528277Y-11729212D01*
X5528277Y-11729212D02*
X5509230Y-11719688D01*
X5509230Y-11719688D02*
X5480658Y-11719688D01*
X5480658Y-11719688D02*
X5461611Y-11729212D01*
X5461611Y-11729212D02*
X5452087Y-11738736D01*
X5661610Y-11853022D02*
X5642563Y-11843498D01*
X5642563Y-11843498D02*
X5633039Y-11833974D01*
X5633039Y-11833974D02*
X5623515Y-11814927D01*
X5623515Y-11814927D02*
X5623515Y-11757784D01*
X5623515Y-11757784D02*
X5633039Y-11738736D01*
X5633039Y-11738736D02*
X5642563Y-11729212D01*
X5642563Y-11729212D02*
X5661610Y-11719688D01*
X5661610Y-11719688D02*
X5690182Y-11719688D01*
X5690182Y-11719688D02*
X5709230Y-11729212D01*
X5709230Y-11729212D02*
X5718753Y-11738736D01*
X5718753Y-11738736D02*
X5728277Y-11757784D01*
X5728277Y-11757784D02*
X5728277Y-11814927D01*
X5728277Y-11814927D02*
X5718753Y-11833974D01*
X5718753Y-11833974D02*
X5709230Y-11843498D01*
X5709230Y-11843498D02*
X5690182Y-11853022D01*
X5690182Y-11853022D02*
X5661610Y-11853022D01*
X5842563Y-11853022D02*
X5823515Y-11843498D01*
X5823515Y-11843498D02*
X5813991Y-11824450D01*
X5813991Y-11824450D02*
X5813991Y-11653022D01*
X5994944Y-11843498D02*
X5975896Y-11853022D01*
X5975896Y-11853022D02*
X5937801Y-11853022D01*
X5937801Y-11853022D02*
X5918753Y-11843498D01*
X5918753Y-11843498D02*
X5909230Y-11824450D01*
X5909230Y-11824450D02*
X5909230Y-11748260D01*
X5909230Y-11748260D02*
X5918753Y-11729212D01*
X5918753Y-11729212D02*
X5937801Y-11719688D01*
X5937801Y-11719688D02*
X5975896Y-11719688D01*
X5975896Y-11719688D02*
X5994944Y-11729212D01*
X5994944Y-11729212D02*
X6004468Y-11748260D01*
X6004468Y-11748260D02*
X6004468Y-11767308D01*
X6004468Y-11767308D02*
X5909230Y-11786355D01*
X6080658Y-11843498D02*
X6099706Y-11853022D01*
X6099706Y-11853022D02*
X6137801Y-11853022D01*
X6137801Y-11853022D02*
X6156849Y-11843498D01*
X6156849Y-11843498D02*
X6166372Y-11824450D01*
X6166372Y-11824450D02*
X6166372Y-11814927D01*
X6166372Y-11814927D02*
X6156849Y-11795879D01*
X6156849Y-11795879D02*
X6137801Y-11786355D01*
X6137801Y-11786355D02*
X6109230Y-11786355D01*
X6109230Y-11786355D02*
X6090182Y-11776831D01*
X6090182Y-11776831D02*
X6080658Y-11757784D01*
X6080658Y-11757784D02*
X6080658Y-11748260D01*
X6080658Y-11748260D02*
X6090182Y-11729212D01*
X6090182Y-11729212D02*
X6109230Y-11719688D01*
X6109230Y-11719688D02*
X6137801Y-11719688D01*
X6137801Y-11719688D02*
X6156849Y-11729212D01*
X6233039Y-11929212D02*
X6242563Y-11919688D01*
X6242563Y-11919688D02*
X6261611Y-11891117D01*
X6261611Y-11891117D02*
X6271134Y-11872069D01*
X6271134Y-11872069D02*
X6280658Y-11843498D01*
X6280658Y-11843498D02*
X6290182Y-11795879D01*
X6290182Y-11795879D02*
X6290182Y-11757784D01*
X6290182Y-11757784D02*
X6280658Y-11710165D01*
X6280658Y-11710165D02*
X6271134Y-11681593D01*
X6271134Y-11681593D02*
X6261611Y-11662546D01*
X6261611Y-11662546D02*
X6242563Y-11633974D01*
X6242563Y-11633974D02*
X6233039Y-11624450D01*
X1067500Y-11925538D02*
X1267500Y-12125538D01*
X1267500Y-11925538D02*
X1067500Y-12125538D01*
X1267500Y-12025538D02*
G75*
G03*
X1267500Y-12025538I-100000J0D01*
G01*
X1518753Y-11936069D02*
X1528277Y-11926546D01*
X1528277Y-11926546D02*
X1547324Y-11917022D01*
X1547324Y-11917022D02*
X1594943Y-11917022D01*
X1594943Y-11917022D02*
X1613991Y-11926546D01*
X1613991Y-11926546D02*
X1623515Y-11936069D01*
X1623515Y-11936069D02*
X1633039Y-11955117D01*
X1633039Y-11955117D02*
X1633039Y-11974165D01*
X1633039Y-11974165D02*
X1623515Y-12002736D01*
X1623515Y-12002736D02*
X1509229Y-12117022D01*
X1509229Y-12117022D02*
X1633039Y-12117022D01*
X1718753Y-12097974D02*
X1728277Y-12107498D01*
X1728277Y-12107498D02*
X1718753Y-12117022D01*
X1718753Y-12117022D02*
X1709229Y-12107498D01*
X1709229Y-12107498D02*
X1718753Y-12097974D01*
X1718753Y-12097974D02*
X1718753Y-12117022D01*
X1804467Y-11936069D02*
X1813991Y-11926546D01*
X1813991Y-11926546D02*
X1833039Y-11917022D01*
X1833039Y-11917022D02*
X1880658Y-11917022D01*
X1880658Y-11917022D02*
X1899705Y-11926546D01*
X1899705Y-11926546D02*
X1909229Y-11936069D01*
X1909229Y-11936069D02*
X1918753Y-11955117D01*
X1918753Y-11955117D02*
X1918753Y-11974165D01*
X1918753Y-11974165D02*
X1909229Y-12002736D01*
X1909229Y-12002736D02*
X1794943Y-12117022D01*
X1794943Y-12117022D02*
X1918753Y-12117022D01*
X2013991Y-12117022D02*
X2052086Y-12117022D01*
X2052086Y-12117022D02*
X2071134Y-12107498D01*
X2071134Y-12107498D02*
X2080658Y-12097974D01*
X2080658Y-12097974D02*
X2099705Y-12069403D01*
X2099705Y-12069403D02*
X2109229Y-12031308D01*
X2109229Y-12031308D02*
X2109229Y-11955117D01*
X2109229Y-11955117D02*
X2099705Y-11936069D01*
X2099705Y-11936069D02*
X2090182Y-11926546D01*
X2090182Y-11926546D02*
X2071134Y-11917022D01*
X2071134Y-11917022D02*
X2033039Y-11917022D01*
X2033039Y-11917022D02*
X2013991Y-11926546D01*
X2013991Y-11926546D02*
X2004467Y-11936069D01*
X2004467Y-11936069D02*
X1994943Y-11955117D01*
X1994943Y-11955117D02*
X1994943Y-12002736D01*
X1994943Y-12002736D02*
X2004467Y-12021784D01*
X2004467Y-12021784D02*
X2013991Y-12031308D01*
X2013991Y-12031308D02*
X2033039Y-12040831D01*
X2033039Y-12040831D02*
X2071134Y-12040831D01*
X2071134Y-12040831D02*
X2090182Y-12031308D01*
X2090182Y-12031308D02*
X2099705Y-12021784D01*
X2099705Y-12021784D02*
X2109229Y-12002736D01*
X2299705Y-12117022D02*
X2185420Y-12117022D01*
X2242563Y-12117022D02*
X2242563Y-11917022D01*
X2242563Y-11917022D02*
X2223515Y-11945593D01*
X2223515Y-11945593D02*
X2204467Y-11964641D01*
X2204467Y-11964641D02*
X2185420Y-11974165D01*
X2385420Y-12117022D02*
X2385420Y-11983688D01*
X2385420Y-12002736D02*
X2394944Y-11993212D01*
X2394944Y-11993212D02*
X2413991Y-11983688D01*
X2413991Y-11983688D02*
X2442563Y-11983688D01*
X2442563Y-11983688D02*
X2461610Y-11993212D01*
X2461610Y-11993212D02*
X2471134Y-12012260D01*
X2471134Y-12012260D02*
X2471134Y-12117022D01*
X2471134Y-12012260D02*
X2480658Y-11993212D01*
X2480658Y-11993212D02*
X2499705Y-11983688D01*
X2499705Y-11983688D02*
X2528277Y-11983688D01*
X2528277Y-11983688D02*
X2547325Y-11993212D01*
X2547325Y-11993212D02*
X2556848Y-12012260D01*
X2556848Y-12012260D02*
X2556848Y-12117022D01*
X2652086Y-12117022D02*
X2652086Y-11983688D01*
X2652086Y-12002736D02*
X2661610Y-11993212D01*
X2661610Y-11993212D02*
X2680658Y-11983688D01*
X2680658Y-11983688D02*
X2709229Y-11983688D01*
X2709229Y-11983688D02*
X2728277Y-11993212D01*
X2728277Y-11993212D02*
X2737801Y-12012260D01*
X2737801Y-12012260D02*
X2737801Y-12117022D01*
X2737801Y-12012260D02*
X2747325Y-11993212D01*
X2747325Y-11993212D02*
X2766372Y-11983688D01*
X2766372Y-11983688D02*
X2794944Y-11983688D01*
X2794944Y-11983688D02*
X2813991Y-11993212D01*
X2813991Y-11993212D02*
X2823515Y-12012260D01*
X2823515Y-12012260D02*
X2823515Y-12117022D01*
X3213991Y-11907498D02*
X3042563Y-12164641D01*
X3471134Y-11917022D02*
X3490182Y-11917022D01*
X3490182Y-11917022D02*
X3509229Y-11926546D01*
X3509229Y-11926546D02*
X3518753Y-11936069D01*
X3518753Y-11936069D02*
X3528277Y-11955117D01*
X3528277Y-11955117D02*
X3537801Y-11993212D01*
X3537801Y-11993212D02*
X3537801Y-12040831D01*
X3537801Y-12040831D02*
X3528277Y-12078927D01*
X3528277Y-12078927D02*
X3518753Y-12097974D01*
X3518753Y-12097974D02*
X3509229Y-12107498D01*
X3509229Y-12107498D02*
X3490182Y-12117022D01*
X3490182Y-12117022D02*
X3471134Y-12117022D01*
X3471134Y-12117022D02*
X3452086Y-12107498D01*
X3452086Y-12107498D02*
X3442563Y-12097974D01*
X3442563Y-12097974D02*
X3433039Y-12078927D01*
X3433039Y-12078927D02*
X3423515Y-12040831D01*
X3423515Y-12040831D02*
X3423515Y-11993212D01*
X3423515Y-11993212D02*
X3433039Y-11955117D01*
X3433039Y-11955117D02*
X3442563Y-11936069D01*
X3442563Y-11936069D02*
X3452086Y-11926546D01*
X3452086Y-11926546D02*
X3471134Y-11917022D01*
X3623515Y-12097974D02*
X3633039Y-12107498D01*
X3633039Y-12107498D02*
X3623515Y-12117022D01*
X3623515Y-12117022D02*
X3613991Y-12107498D01*
X3613991Y-12107498D02*
X3623515Y-12097974D01*
X3623515Y-12097974D02*
X3623515Y-12117022D01*
X3756848Y-11917022D02*
X3775896Y-11917022D01*
X3775896Y-11917022D02*
X3794944Y-11926546D01*
X3794944Y-11926546D02*
X3804467Y-11936069D01*
X3804467Y-11936069D02*
X3813991Y-11955117D01*
X3813991Y-11955117D02*
X3823515Y-11993212D01*
X3823515Y-11993212D02*
X3823515Y-12040831D01*
X3823515Y-12040831D02*
X3813991Y-12078927D01*
X3813991Y-12078927D02*
X3804467Y-12097974D01*
X3804467Y-12097974D02*
X3794944Y-12107498D01*
X3794944Y-12107498D02*
X3775896Y-12117022D01*
X3775896Y-12117022D02*
X3756848Y-12117022D01*
X3756848Y-12117022D02*
X3737801Y-12107498D01*
X3737801Y-12107498D02*
X3728277Y-12097974D01*
X3728277Y-12097974D02*
X3718753Y-12078927D01*
X3718753Y-12078927D02*
X3709229Y-12040831D01*
X3709229Y-12040831D02*
X3709229Y-11993212D01*
X3709229Y-11993212D02*
X3718753Y-11955117D01*
X3718753Y-11955117D02*
X3728277Y-11936069D01*
X3728277Y-11936069D02*
X3737801Y-11926546D01*
X3737801Y-11926546D02*
X3756848Y-11917022D01*
X3918753Y-12117022D02*
X3956848Y-12117022D01*
X3956848Y-12117022D02*
X3975896Y-12107498D01*
X3975896Y-12107498D02*
X3985420Y-12097974D01*
X3985420Y-12097974D02*
X4004467Y-12069403D01*
X4004467Y-12069403D02*
X4013991Y-12031308D01*
X4013991Y-12031308D02*
X4013991Y-11955117D01*
X4013991Y-11955117D02*
X4004467Y-11936069D01*
X4004467Y-11936069D02*
X3994944Y-11926546D01*
X3994944Y-11926546D02*
X3975896Y-11917022D01*
X3975896Y-11917022D02*
X3937801Y-11917022D01*
X3937801Y-11917022D02*
X3918753Y-11926546D01*
X3918753Y-11926546D02*
X3909229Y-11936069D01*
X3909229Y-11936069D02*
X3899706Y-11955117D01*
X3899706Y-11955117D02*
X3899706Y-12002736D01*
X3899706Y-12002736D02*
X3909229Y-12021784D01*
X3909229Y-12021784D02*
X3918753Y-12031308D01*
X3918753Y-12031308D02*
X3937801Y-12040831D01*
X3937801Y-12040831D02*
X3975896Y-12040831D01*
X3975896Y-12040831D02*
X3994944Y-12031308D01*
X3994944Y-12031308D02*
X4004467Y-12021784D01*
X4004467Y-12021784D02*
X4013991Y-12002736D01*
X4137801Y-11917022D02*
X4156848Y-11917022D01*
X4156848Y-11917022D02*
X4175896Y-11926546D01*
X4175896Y-11926546D02*
X4185420Y-11936069D01*
X4185420Y-11936069D02*
X4194944Y-11955117D01*
X4194944Y-11955117D02*
X4204468Y-11993212D01*
X4204468Y-11993212D02*
X4204468Y-12040831D01*
X4204468Y-12040831D02*
X4194944Y-12078927D01*
X4194944Y-12078927D02*
X4185420Y-12097974D01*
X4185420Y-12097974D02*
X4175896Y-12107498D01*
X4175896Y-12107498D02*
X4156848Y-12117022D01*
X4156848Y-12117022D02*
X4137801Y-12117022D01*
X4137801Y-12117022D02*
X4118753Y-12107498D01*
X4118753Y-12107498D02*
X4109229Y-12097974D01*
X4109229Y-12097974D02*
X4099706Y-12078927D01*
X4099706Y-12078927D02*
X4090182Y-12040831D01*
X4090182Y-12040831D02*
X4090182Y-11993212D01*
X4090182Y-11993212D02*
X4099706Y-11955117D01*
X4099706Y-11955117D02*
X4109229Y-11936069D01*
X4109229Y-11936069D02*
X4118753Y-11926546D01*
X4118753Y-11926546D02*
X4137801Y-11917022D01*
X4280658Y-11936069D02*
X4290182Y-11926546D01*
X4290182Y-11926546D02*
X4309229Y-11917022D01*
X4309229Y-11917022D02*
X4356849Y-11917022D01*
X4356849Y-11917022D02*
X4375896Y-11926546D01*
X4375896Y-11926546D02*
X4385420Y-11936069D01*
X4385420Y-11936069D02*
X4394944Y-11955117D01*
X4394944Y-11955117D02*
X4394944Y-11974165D01*
X4394944Y-11974165D02*
X4385420Y-12002736D01*
X4385420Y-12002736D02*
X4271134Y-12117022D01*
X4271134Y-12117022D02*
X4394944Y-12117022D01*
X4471134Y-11917022D02*
X4471134Y-11955117D01*
X4547325Y-11917022D02*
X4547325Y-11955117D01*
X4842563Y-12193212D02*
X4833039Y-12183688D01*
X4833039Y-12183688D02*
X4813991Y-12155117D01*
X4813991Y-12155117D02*
X4804468Y-12136069D01*
X4804468Y-12136069D02*
X4794944Y-12107498D01*
X4794944Y-12107498D02*
X4785420Y-12059879D01*
X4785420Y-12059879D02*
X4785420Y-12021784D01*
X4785420Y-12021784D02*
X4794944Y-11974165D01*
X4794944Y-11974165D02*
X4804468Y-11945593D01*
X4804468Y-11945593D02*
X4813991Y-11926546D01*
X4813991Y-11926546D02*
X4833039Y-11897974D01*
X4833039Y-11897974D02*
X4842563Y-11888450D01*
X4899706Y-11917022D02*
X5023515Y-11917022D01*
X5023515Y-11917022D02*
X4956849Y-11993212D01*
X4956849Y-11993212D02*
X4985420Y-11993212D01*
X4985420Y-11993212D02*
X5004468Y-12002736D01*
X5004468Y-12002736D02*
X5013991Y-12012260D01*
X5013991Y-12012260D02*
X5023515Y-12031308D01*
X5023515Y-12031308D02*
X5023515Y-12078927D01*
X5023515Y-12078927D02*
X5013991Y-12097974D01*
X5013991Y-12097974D02*
X5004468Y-12107498D01*
X5004468Y-12107498D02*
X4985420Y-12117022D01*
X4985420Y-12117022D02*
X4928277Y-12117022D01*
X4928277Y-12117022D02*
X4909230Y-12107498D01*
X4909230Y-12107498D02*
X4899706Y-12097974D01*
X5261611Y-12117022D02*
X5261611Y-11917022D01*
X5347325Y-12117022D02*
X5347325Y-12012260D01*
X5347325Y-12012260D02*
X5337801Y-11993212D01*
X5337801Y-11993212D02*
X5318753Y-11983688D01*
X5318753Y-11983688D02*
X5290182Y-11983688D01*
X5290182Y-11983688D02*
X5271134Y-11993212D01*
X5271134Y-11993212D02*
X5261611Y-12002736D01*
X5471134Y-12117022D02*
X5452087Y-12107498D01*
X5452087Y-12107498D02*
X5442563Y-12097974D01*
X5442563Y-12097974D02*
X5433039Y-12078927D01*
X5433039Y-12078927D02*
X5433039Y-12021784D01*
X5433039Y-12021784D02*
X5442563Y-12002736D01*
X5442563Y-12002736D02*
X5452087Y-11993212D01*
X5452087Y-11993212D02*
X5471134Y-11983688D01*
X5471134Y-11983688D02*
X5499706Y-11983688D01*
X5499706Y-11983688D02*
X5518753Y-11993212D01*
X5518753Y-11993212D02*
X5528277Y-12002736D01*
X5528277Y-12002736D02*
X5537801Y-12021784D01*
X5537801Y-12021784D02*
X5537801Y-12078927D01*
X5537801Y-12078927D02*
X5528277Y-12097974D01*
X5528277Y-12097974D02*
X5518753Y-12107498D01*
X5518753Y-12107498D02*
X5499706Y-12117022D01*
X5499706Y-12117022D02*
X5471134Y-12117022D01*
X5652087Y-12117022D02*
X5633039Y-12107498D01*
X5633039Y-12107498D02*
X5623515Y-12088450D01*
X5623515Y-12088450D02*
X5623515Y-11917022D01*
X5804468Y-12107498D02*
X5785420Y-12117022D01*
X5785420Y-12117022D02*
X5747325Y-12117022D01*
X5747325Y-12117022D02*
X5728277Y-12107498D01*
X5728277Y-12107498D02*
X5718753Y-12088450D01*
X5718753Y-12088450D02*
X5718753Y-12012260D01*
X5718753Y-12012260D02*
X5728277Y-11993212D01*
X5728277Y-11993212D02*
X5747325Y-11983688D01*
X5747325Y-11983688D02*
X5785420Y-11983688D01*
X5785420Y-11983688D02*
X5804468Y-11993212D01*
X5804468Y-11993212D02*
X5813991Y-12012260D01*
X5813991Y-12012260D02*
X5813991Y-12031308D01*
X5813991Y-12031308D02*
X5718753Y-12050355D01*
X5890182Y-12107498D02*
X5909230Y-12117022D01*
X5909230Y-12117022D02*
X5947325Y-12117022D01*
X5947325Y-12117022D02*
X5966372Y-12107498D01*
X5966372Y-12107498D02*
X5975896Y-12088450D01*
X5975896Y-12088450D02*
X5975896Y-12078927D01*
X5975896Y-12078927D02*
X5966372Y-12059879D01*
X5966372Y-12059879D02*
X5947325Y-12050355D01*
X5947325Y-12050355D02*
X5918753Y-12050355D01*
X5918753Y-12050355D02*
X5899706Y-12040831D01*
X5899706Y-12040831D02*
X5890182Y-12021784D01*
X5890182Y-12021784D02*
X5890182Y-12012260D01*
X5890182Y-12012260D02*
X5899706Y-11993212D01*
X5899706Y-11993212D02*
X5918753Y-11983688D01*
X5918753Y-11983688D02*
X5947325Y-11983688D01*
X5947325Y-11983688D02*
X5966372Y-11993212D01*
X6042563Y-12193212D02*
X6052087Y-12183688D01*
X6052087Y-12183688D02*
X6071134Y-12155117D01*
X6071134Y-12155117D02*
X6080658Y-12136069D01*
X6080658Y-12136069D02*
X6090182Y-12107498D01*
X6090182Y-12107498D02*
X6099706Y-12059879D01*
X6099706Y-12059879D02*
X6099706Y-12021784D01*
X6099706Y-12021784D02*
X6090182Y-11974165D01*
X6090182Y-11974165D02*
X6080658Y-11945593D01*
X6080658Y-11945593D02*
X6071134Y-11926546D01*
X6071134Y-11926546D02*
X6052087Y-11897974D01*
X6052087Y-11897974D02*
X6042563Y-11888450D01*
M02*
