%TF.GenerationSoftware,KiCad,Pcbnew,7.0.6*%
%TF.CreationDate,2023-08-28T19:35:45+02:00*%
%TF.ProjectId,ps2_mouse_to_serial_port_adapter_ISA_card,7073325f-6d6f-4757-9365-5f746f5f7365,rev?*%
%TF.SameCoordinates,Original*%
%TF.FileFunction,Soldermask,Bot*%
%TF.FilePolarity,Negative*%
%FSLAX46Y46*%
G04 Gerber Fmt 4.6, Leading zero omitted, Abs format (unit mm)*
G04 Created by KiCad (PCBNEW 7.0.6) date 2023-08-28 19:35:45*
%MOMM*%
%LPD*%
G01*
G04 APERTURE LIST*
G04 Aperture macros list*
%AMRoundRect*
0 Rectangle with rounded corners*
0 $1 Rounding radius*
0 $2 $3 $4 $5 $6 $7 $8 $9 X,Y pos of 4 corners*
0 Add a 4 corners polygon primitive as box body*
4,1,4,$2,$3,$4,$5,$6,$7,$8,$9,$2,$3,0*
0 Add four circle primitives for the rounded corners*
1,1,$1+$1,$2,$3*
1,1,$1+$1,$4,$5*
1,1,$1+$1,$6,$7*
1,1,$1+$1,$8,$9*
0 Add four rect primitives between the rounded corners*
20,1,$1+$1,$2,$3,$4,$5,0*
20,1,$1+$1,$4,$5,$6,$7,0*
20,1,$1+$1,$6,$7,$8,$9,0*
20,1,$1+$1,$8,$9,$2,$3,0*%
G04 Aperture macros list end*
%ADD10R,1.100000X1.800000*%
%ADD11RoundRect,0.275000X-0.275000X-0.625000X0.275000X-0.625000X0.275000X0.625000X-0.275000X0.625000X0*%
%ADD12R,1.800000X1.100000*%
%ADD13RoundRect,0.275000X-0.625000X0.275000X-0.625000X-0.275000X0.625000X-0.275000X0.625000X0.275000X0*%
%ADD14C,1.600000*%
%ADD15O,1.600000X1.600000*%
%ADD16RoundRect,0.250000X-0.600000X-0.600000X0.600000X-0.600000X0.600000X0.600000X-0.600000X0.600000X0*%
%ADD17C,1.700000*%
%ADD18R,1.780000X7.620000*%
%ADD19R,1.800000X1.800000*%
%ADD20C,1.800000*%
%ADD21R,1.600000X1.600000*%
%ADD22C,1.371600*%
%ADD23C,4.000500*%
%ADD24C,3.200000*%
G04 APERTURE END LIST*
D10*
%TO.C,U2*%
X88900000Y-65170000D03*
D11*
X90170000Y-63100000D03*
X91440000Y-65170000D03*
%TD*%
D12*
%TO.C,Q1*%
X73260000Y-69850000D03*
D13*
X75330000Y-71120000D03*
X73260000Y-72390000D03*
%TD*%
D14*
%TO.C,R3*%
X82550000Y-64770000D03*
D15*
X74930000Y-64770000D03*
%TD*%
D16*
%TO.C,J1*%
X104140000Y-63500000D03*
D17*
X106680000Y-63500000D03*
X104140000Y-66040000D03*
X106680000Y-66040000D03*
X104140000Y-68580000D03*
X106680000Y-68580000D03*
X104140000Y-71120000D03*
X106680000Y-71120000D03*
X104140000Y-73660000D03*
X106680000Y-73660000D03*
%TD*%
D18*
%TO.C,J3*%
X91440000Y-96520000D03*
X88900000Y-96520000D03*
X86360000Y-96520000D03*
X83820000Y-96520000D03*
X81280000Y-96520000D03*
X78740000Y-96520000D03*
X76200000Y-96520000D03*
X73660000Y-96520000D03*
X71120000Y-96520000D03*
X68580000Y-96520000D03*
X66040000Y-96520000D03*
X63500000Y-96520000D03*
X60960000Y-96520000D03*
X58420000Y-96520000D03*
X55880000Y-96520000D03*
X53340000Y-96520000D03*
X50800000Y-96520000D03*
X48260000Y-96520000D03*
X45720000Y-96520000D03*
X43180000Y-96520000D03*
X40640000Y-96520000D03*
X38100000Y-96520000D03*
X35560000Y-96520000D03*
X33020000Y-96520000D03*
X30480000Y-96520000D03*
X27940000Y-96520000D03*
X25400000Y-96520000D03*
X22860000Y-96520000D03*
X20320000Y-96520000D03*
X17780000Y-96520000D03*
X15240000Y-96520000D03*
%TD*%
D19*
%TO.C,D2*%
X111760000Y-50800000D03*
D20*
X111760000Y-48260000D03*
%TD*%
D21*
%TO.C,U1*%
X54610000Y-36830000D03*
D15*
X54610000Y-39370000D03*
X54610000Y-41910000D03*
X54610000Y-44450000D03*
X54610000Y-46990000D03*
X54610000Y-49530000D03*
X54610000Y-52070000D03*
X62230000Y-52070000D03*
X62230000Y-49530000D03*
X62230000Y-46990000D03*
X62230000Y-44450000D03*
X62230000Y-41910000D03*
X62230000Y-39370000D03*
X62230000Y-36830000D03*
%TD*%
D22*
%TO.C,J2*%
X108760260Y-32580580D03*
X108760260Y-35181540D03*
X108760260Y-30530800D03*
X108760260Y-37231320D03*
X106268520Y-30530800D03*
X106268520Y-37231320D03*
D23*
X111760000Y-27122120D03*
X112570260Y-33881060D03*
X111760000Y-40640000D03*
%TD*%
D14*
%TO.C,R4*%
X97790000Y-49530000D03*
D15*
X105410000Y-49530000D03*
%TD*%
D14*
%TO.C,R5*%
X60960000Y-17780000D03*
D15*
X53340000Y-17780000D03*
%TD*%
D21*
%TO.C,D1*%
X95250000Y-72390000D03*
D15*
X95250000Y-64770000D03*
%TD*%
D21*
%TO.C,C1*%
X57150000Y-66050000D03*
D14*
X57150000Y-69850000D03*
%TD*%
D24*
%TO.C,H2*%
X112522000Y-87376000D03*
%TD*%
D14*
%TO.C,R1*%
X80010000Y-72390000D03*
D15*
X87630000Y-72390000D03*
%TD*%
D14*
%TO.C,R2*%
X67310000Y-64770000D03*
D15*
X67310000Y-72390000D03*
%TD*%
D24*
%TO.C,H1*%
X112522000Y-16764000D03*
%TD*%
D14*
%TO.C,C2*%
X60960000Y-30480000D03*
X55960000Y-30480000D03*
%TD*%
D19*
%TO.C,D3*%
X46990000Y-20320000D03*
D20*
X46990000Y-17780000D03*
%TD*%
D21*
%TO.C,A1*%
X36830000Y-69850000D03*
D15*
X36830000Y-67310000D03*
X36830000Y-64770000D03*
X36830000Y-62230000D03*
X36830000Y-59690000D03*
X36830000Y-57150000D03*
X36830000Y-54610000D03*
X36830000Y-52070000D03*
X36830000Y-49530000D03*
X36830000Y-46990000D03*
X36830000Y-44450000D03*
X36830000Y-41910000D03*
X36830000Y-39370000D03*
X36830000Y-36830000D03*
X36830000Y-34290000D03*
X21590000Y-34290000D03*
X21590000Y-36830000D03*
X21590000Y-39370000D03*
X21590000Y-41910000D03*
X21590000Y-44450000D03*
X21590000Y-46990000D03*
X21590000Y-49530000D03*
X21590000Y-52070000D03*
X21590000Y-54610000D03*
X21590000Y-57150000D03*
X21590000Y-59690000D03*
X21590000Y-62230000D03*
X21590000Y-64770000D03*
X21590000Y-67310000D03*
X21590000Y-69850000D03*
%TD*%
M02*
