%TF.GenerationSoftware,KiCad,Pcbnew,7.0.6*%
%TF.CreationDate,2023-08-29T13:14:21+02:00*%
%TF.ProjectId,ps2_mouse_to_serial_port_adapter_ISA_card,7073325f-6d6f-4757-9365-5f746f5f7365,rev?*%
%TF.SameCoordinates,Original*%
%TF.FileFunction,Copper,L1,Top*%
%TF.FilePolarity,Positive*%
%FSLAX46Y46*%
G04 Gerber Fmt 4.6, Leading zero omitted, Abs format (unit mm)*
G04 Created by KiCad (PCBNEW 7.0.6) date 2023-08-29 13:14:21*
%MOMM*%
%LPD*%
G01*
G04 APERTURE LIST*
G04 Aperture macros list*
%AMRoundRect*
0 Rectangle with rounded corners*
0 $1 Rounding radius*
0 $2 $3 $4 $5 $6 $7 $8 $9 X,Y pos of 4 corners*
0 Add a 4 corners polygon primitive as box body*
4,1,4,$2,$3,$4,$5,$6,$7,$8,$9,$2,$3,0*
0 Add four circle primitives for the rounded corners*
1,1,$1+$1,$2,$3*
1,1,$1+$1,$4,$5*
1,1,$1+$1,$6,$7*
1,1,$1+$1,$8,$9*
0 Add four rect primitives between the rounded corners*
20,1,$1+$1,$2,$3,$4,$5,0*
20,1,$1+$1,$4,$5,$6,$7,0*
20,1,$1+$1,$6,$7,$8,$9,0*
20,1,$1+$1,$8,$9,$2,$3,0*%
G04 Aperture macros list end*
%TA.AperFunction,ComponentPad*%
%ADD10C,1.600000*%
%TD*%
%TA.AperFunction,ComponentPad*%
%ADD11O,1.600000X1.600000*%
%TD*%
%TA.AperFunction,ComponentPad*%
%ADD12R,1.100000X1.800000*%
%TD*%
%TA.AperFunction,ComponentPad*%
%ADD13RoundRect,0.275000X-0.275000X-0.625000X0.275000X-0.625000X0.275000X0.625000X-0.275000X0.625000X0*%
%TD*%
%TA.AperFunction,ComponentPad*%
%ADD14RoundRect,0.250000X-0.600000X-0.600000X0.600000X-0.600000X0.600000X0.600000X-0.600000X0.600000X0*%
%TD*%
%TA.AperFunction,ComponentPad*%
%ADD15C,1.700000*%
%TD*%
%TA.AperFunction,ConnectorPad*%
%ADD16R,1.780000X7.620000*%
%TD*%
%TA.AperFunction,ComponentPad*%
%ADD17R,1.800000X1.800000*%
%TD*%
%TA.AperFunction,ComponentPad*%
%ADD18C,1.800000*%
%TD*%
%TA.AperFunction,ComponentPad*%
%ADD19R,1.600000X1.600000*%
%TD*%
%TA.AperFunction,ComponentPad*%
%ADD20C,1.371600*%
%TD*%
%TA.AperFunction,ComponentPad*%
%ADD21C,4.000500*%
%TD*%
%TA.AperFunction,ComponentPad*%
%ADD22R,1.800000X1.100000*%
%TD*%
%TA.AperFunction,ComponentPad*%
%ADD23RoundRect,0.275000X-0.625000X0.275000X-0.625000X-0.275000X0.625000X-0.275000X0.625000X0.275000X0*%
%TD*%
%TA.AperFunction,Conductor*%
%ADD24C,0.800000*%
%TD*%
%TA.AperFunction,Conductor*%
%ADD25C,0.400000*%
%TD*%
G04 APERTURE END LIST*
D10*
%TO.P,R3,1*%
%TO.N,/+5V*%
X82550000Y-64770000D03*
D11*
%TO.P,R3,2*%
%TO.N,Net-(Q1-C)*%
X74930000Y-64770000D03*
%TD*%
D12*
%TO.P,U2,1,VO*%
%TO.N,Net-(U2-VO)*%
X88900000Y-65170000D03*
D13*
%TO.P,U2,2,GND*%
%TO.N,/GND*%
X90170000Y-63100000D03*
%TO.P,U2,3,VI*%
%TO.N,Net-(D1-K)*%
X91440000Y-65170000D03*
%TD*%
D14*
%TO.P,J1,1,Pin_1*%
%TO.N,unconnected-(J1-Pin_1-Pad1)*%
X104140000Y-63500000D03*
D15*
%TO.P,J1,2,Pin_2*%
%TO.N,unconnected-(J1-Pin_2-Pad2)*%
X106680000Y-63500000D03*
%TO.P,J1,3,Pin_3*%
%TO.N,Net-(J1-Pin_3)*%
X104140000Y-66040000D03*
%TO.P,J1,4,Pin_4*%
%TO.N,Net-(D1-A)*%
X106680000Y-66040000D03*
%TO.P,J1,5,Pin_5*%
%TO.N,unconnected-(J1-Pin_5-Pad5)*%
X104140000Y-68580000D03*
%TO.P,J1,6,Pin_6*%
%TO.N,unconnected-(J1-Pin_6-Pad6)*%
X106680000Y-68580000D03*
%TO.P,J1,7,Pin_7*%
%TO.N,unconnected-(J1-Pin_7-Pad7)*%
X104140000Y-71120000D03*
%TO.P,J1,8,Pin_8*%
%TO.N,unconnected-(J1-Pin_8-Pad8)*%
X106680000Y-71120000D03*
%TO.P,J1,9,Pin_9*%
%TO.N,/GND*%
X104140000Y-73660000D03*
%TO.P,J1,10,Pin_10*%
%TO.N,unconnected-(J1-Pin_10-Pad10)*%
X106680000Y-73660000D03*
%TD*%
D16*
%TO.P,J3,32,IO*%
%TO.N,unconnected-(J3-IO-Pad32)*%
X91440000Y-96520000D03*
%TO.P,J3,33,DB7*%
%TO.N,unconnected-(J3-DB7-Pad33)*%
X88900000Y-96520000D03*
%TO.P,J3,34,DB6*%
%TO.N,unconnected-(J3-DB6-Pad34)*%
X86360000Y-96520000D03*
%TO.P,J3,35,DB5*%
%TO.N,unconnected-(J3-DB5-Pad35)*%
X83820000Y-96520000D03*
%TO.P,J3,36,DB4*%
%TO.N,unconnected-(J3-DB4-Pad36)*%
X81280000Y-96520000D03*
%TO.P,J3,37,DB3*%
%TO.N,unconnected-(J3-DB3-Pad37)*%
X78740000Y-96520000D03*
%TO.P,J3,38,DB2*%
%TO.N,unconnected-(J3-DB2-Pad38)*%
X76200000Y-96520000D03*
%TO.P,J3,39,DB1*%
%TO.N,unconnected-(J3-DB1-Pad39)*%
X73660000Y-96520000D03*
%TO.P,J3,40,DB0*%
%TO.N,unconnected-(J3-DB0-Pad40)*%
X71120000Y-96520000D03*
%TO.P,J3,41,IO_READY*%
%TO.N,unconnected-(J3-IO_READY-Pad41)*%
X68580000Y-96520000D03*
%TO.P,J3,42,AEN*%
%TO.N,unconnected-(J3-AEN-Pad42)*%
X66040000Y-96520000D03*
%TO.P,J3,43,BA19*%
%TO.N,unconnected-(J3-BA19-Pad43)*%
X63500000Y-96520000D03*
%TO.P,J3,44,BA18*%
%TO.N,unconnected-(J3-BA18-Pad44)*%
X60960000Y-96520000D03*
%TO.P,J3,45,BA17*%
%TO.N,unconnected-(J3-BA17-Pad45)*%
X58420000Y-96520000D03*
%TO.P,J3,46,BA16*%
%TO.N,unconnected-(J3-BA16-Pad46)*%
X55880000Y-96520000D03*
%TO.P,J3,47,BA15*%
%TO.N,unconnected-(J3-BA15-Pad47)*%
X53340000Y-96520000D03*
%TO.P,J3,48,BA14*%
%TO.N,unconnected-(J3-BA14-Pad48)*%
X50800000Y-96520000D03*
%TO.P,J3,49,BA13*%
%TO.N,unconnected-(J3-BA13-Pad49)*%
X48260000Y-96520000D03*
%TO.P,J3,50,BA12*%
%TO.N,unconnected-(J3-BA12-Pad50)*%
X45720000Y-96520000D03*
%TO.P,J3,51,BA11*%
%TO.N,unconnected-(J3-BA11-Pad51)*%
X43180000Y-96520000D03*
%TO.P,J3,52,BA10*%
%TO.N,unconnected-(J3-BA10-Pad52)*%
X40640000Y-96520000D03*
%TO.P,J3,53,BA09*%
%TO.N,unconnected-(J3-BA09-Pad53)*%
X38100000Y-96520000D03*
%TO.P,J3,54,BA08*%
%TO.N,unconnected-(J3-BA08-Pad54)*%
X35560000Y-96520000D03*
%TO.P,J3,55,BA07*%
%TO.N,unconnected-(J3-BA07-Pad55)*%
X33020000Y-96520000D03*
%TO.P,J3,56,BA06*%
%TO.N,unconnected-(J3-BA06-Pad56)*%
X30480000Y-96520000D03*
%TO.P,J3,57,BA05*%
%TO.N,unconnected-(J3-BA05-Pad57)*%
X27940000Y-96520000D03*
%TO.P,J3,58,BA04*%
%TO.N,unconnected-(J3-BA04-Pad58)*%
X25400000Y-96520000D03*
%TO.P,J3,59,BA03*%
%TO.N,unconnected-(J3-BA03-Pad59)*%
X22860000Y-96520000D03*
%TO.P,J3,60,BA02*%
%TO.N,unconnected-(J3-BA02-Pad60)*%
X20320000Y-96520000D03*
%TO.P,J3,61,BA01*%
%TO.N,unconnected-(J3-BA01-Pad61)*%
X17780000Y-96520000D03*
%TO.P,J3,62,BA00*%
%TO.N,unconnected-(J3-BA00-Pad62)*%
X15240000Y-96520000D03*
%TD*%
D17*
%TO.P,D2,1,K*%
%TO.N,/GND*%
X111760000Y-50800000D03*
D18*
%TO.P,D2,2,A*%
%TO.N,Net-(D2-A)*%
X111760000Y-48260000D03*
%TD*%
D19*
%TO.P,U1,1*%
%TO.N,Net-(A1-D1{slash}TX)*%
X54610000Y-36830000D03*
D11*
%TO.P,U1,2*%
X54610000Y-39370000D03*
%TO.P,U1,3*%
%TO.N,Net-(J1-Pin_3)*%
X54610000Y-41910000D03*
%TO.P,U1,4*%
%TO.N,unconnected-(U1-Pad4)*%
X54610000Y-44450000D03*
%TO.P,U1,5*%
%TO.N,unconnected-(U1-Pad5)*%
X54610000Y-46990000D03*
%TO.P,U1,6*%
%TO.N,unconnected-(U1-Pad6)*%
X54610000Y-49530000D03*
%TO.P,U1,7,GND*%
%TO.N,/GND*%
X54610000Y-52070000D03*
%TO.P,U1,8*%
%TO.N,Net-(A1-D7)*%
X62230000Y-52070000D03*
%TO.P,U1,9*%
%TO.N,Net-(Q1-C)*%
X62230000Y-49530000D03*
%TO.P,U1,10*%
X62230000Y-46990000D03*
%TO.P,U1,11*%
%TO.N,unconnected-(U1-Pad11)*%
X62230000Y-44450000D03*
%TO.P,U1,12*%
%TO.N,unconnected-(U1-Pad12)*%
X62230000Y-41910000D03*
%TO.P,U1,13*%
%TO.N,unconnected-(U1-Pad13)*%
X62230000Y-39370000D03*
%TO.P,U1,14,VCC*%
%TO.N,/+5V*%
X62230000Y-36830000D03*
%TD*%
D20*
%TO.P,J2,1*%
%TO.N,Net-(A1-D5)*%
X108760260Y-32580580D03*
%TO.P,J2,2*%
%TO.N,unconnected-(J2-Pad2)*%
X108760260Y-35181540D03*
%TO.P,J2,3*%
%TO.N,/GND*%
X108760260Y-30530800D03*
%TO.P,J2,4*%
%TO.N,/+5V*%
X108760260Y-37231320D03*
%TO.P,J2,5*%
%TO.N,Net-(A1-D2)*%
X106268520Y-30530800D03*
%TO.P,J2,6*%
%TO.N,unconnected-(J2-Pad6)*%
X106268520Y-37231320D03*
D21*
%TO.P,J2,GND*%
%TO.N,N/C*%
X111760000Y-27122120D03*
X112570260Y-33881060D03*
X111760000Y-40640000D03*
%TD*%
D22*
%TO.P,Q1,1,C*%
%TO.N,Net-(Q1-C)*%
X73260000Y-69850000D03*
D23*
%TO.P,Q1,2,B*%
%TO.N,Net-(Q1-B)*%
X75330000Y-71120000D03*
%TO.P,Q1,3,E*%
%TO.N,/GND*%
X73260000Y-72390000D03*
%TD*%
D10*
%TO.P,R4,1*%
%TO.N,Net-(A1-D8)*%
X97790000Y-49530000D03*
D11*
%TO.P,R4,2*%
%TO.N,Net-(D2-A)*%
X105410000Y-49530000D03*
%TD*%
D10*
%TO.P,R5,1*%
%TO.N,/+5V*%
X60960000Y-17780000D03*
D11*
%TO.P,R5,2*%
%TO.N,Net-(D3-A)*%
X53340000Y-17780000D03*
%TD*%
D19*
%TO.P,D1,1,K*%
%TO.N,Net-(D1-K)*%
X95250000Y-72390000D03*
D11*
%TO.P,D1,2,A*%
%TO.N,Net-(D1-A)*%
X95250000Y-64770000D03*
%TD*%
D19*
%TO.P,C1,1*%
%TO.N,/+5V*%
X57150000Y-66050000D03*
D10*
%TO.P,C1,2*%
%TO.N,/GND*%
X57150000Y-69850000D03*
%TD*%
%TO.P,R1,1*%
%TO.N,Net-(Q1-B)*%
X80010000Y-72390000D03*
D11*
%TO.P,R1,2*%
%TO.N,Net-(U2-VO)*%
X87630000Y-72390000D03*
%TD*%
D10*
%TO.P,R2,1*%
%TO.N,Net-(Q1-B)*%
X67310000Y-64770000D03*
D11*
%TO.P,R2,2*%
%TO.N,/GND*%
X67310000Y-72390000D03*
%TD*%
D10*
%TO.P,C2,1*%
%TO.N,/+5V*%
X60960000Y-30480000D03*
%TO.P,C2,2*%
%TO.N,/GND*%
X55960000Y-30480000D03*
%TD*%
D17*
%TO.P,D3,1,K*%
%TO.N,/GND*%
X46990000Y-20320000D03*
D18*
%TO.P,D3,2,A*%
%TO.N,Net-(D3-A)*%
X46990000Y-17780000D03*
%TD*%
D19*
%TO.P,A1,1,D1/TX*%
%TO.N,Net-(A1-D1{slash}TX)*%
X36830000Y-69850000D03*
D11*
%TO.P,A1,2,D0/RX*%
%TO.N,unconnected-(A1-D0{slash}RX-Pad2)*%
X36830000Y-67310000D03*
%TO.P,A1,3,~{RESET}*%
%TO.N,unconnected-(A1-~{RESET}-Pad3)*%
X36830000Y-64770000D03*
%TO.P,A1,4,GND*%
%TO.N,unconnected-(A1-GND-Pad4)*%
X36830000Y-62230000D03*
%TO.P,A1,5,D2*%
%TO.N,Net-(A1-D2)*%
X36830000Y-59690000D03*
%TO.P,A1,6,D3*%
%TO.N,unconnected-(A1-D3-Pad6)*%
X36830000Y-57150000D03*
%TO.P,A1,7,D4*%
%TO.N,unconnected-(A1-D4-Pad7)*%
X36830000Y-54610000D03*
%TO.P,A1,8,D5*%
%TO.N,Net-(A1-D5)*%
X36830000Y-52070000D03*
%TO.P,A1,9,D6*%
%TO.N,unconnected-(A1-D6-Pad9)*%
X36830000Y-49530000D03*
%TO.P,A1,10,D7*%
%TO.N,Net-(A1-D7)*%
X36830000Y-46990000D03*
%TO.P,A1,11,D8*%
%TO.N,Net-(A1-D8)*%
X36830000Y-44450000D03*
%TO.P,A1,12,D9*%
%TO.N,unconnected-(A1-D9-Pad12)*%
X36830000Y-41910000D03*
%TO.P,A1,13,D10*%
%TO.N,unconnected-(A1-D10-Pad13)*%
X36830000Y-39370000D03*
%TO.P,A1,14,D11*%
%TO.N,unconnected-(A1-D11-Pad14)*%
X36830000Y-36830000D03*
%TO.P,A1,15,D12*%
%TO.N,unconnected-(A1-D12-Pad15)*%
X36830000Y-34290000D03*
%TO.P,A1,16,D13*%
%TO.N,unconnected-(A1-D13-Pad16)*%
X21590000Y-34290000D03*
%TO.P,A1,17,3V3*%
%TO.N,unconnected-(A1-3V3-Pad17)*%
X21590000Y-36830000D03*
%TO.P,A1,18,AREF*%
%TO.N,unconnected-(A1-AREF-Pad18)*%
X21590000Y-39370000D03*
%TO.P,A1,19,A0*%
%TO.N,unconnected-(A1-A0-Pad19)*%
X21590000Y-41910000D03*
%TO.P,A1,20,A1*%
%TO.N,unconnected-(A1-A1-Pad20)*%
X21590000Y-44450000D03*
%TO.P,A1,21,A2*%
%TO.N,unconnected-(A1-A2-Pad21)*%
X21590000Y-46990000D03*
%TO.P,A1,22,A3*%
%TO.N,unconnected-(A1-A3-Pad22)*%
X21590000Y-49530000D03*
%TO.P,A1,23,A4*%
%TO.N,unconnected-(A1-A4-Pad23)*%
X21590000Y-52070000D03*
%TO.P,A1,24,A5*%
%TO.N,unconnected-(A1-A5-Pad24)*%
X21590000Y-54610000D03*
%TO.P,A1,25,A6*%
%TO.N,unconnected-(A1-A6-Pad25)*%
X21590000Y-57150000D03*
%TO.P,A1,26,A7*%
%TO.N,unconnected-(A1-A7-Pad26)*%
X21590000Y-59690000D03*
%TO.P,A1,27,+5V*%
%TO.N,unconnected-(A1-+5V-Pad27)*%
X21590000Y-62230000D03*
%TO.P,A1,28,~{RESET}*%
%TO.N,unconnected-(A1-~{RESET}-Pad28)*%
X21590000Y-64770000D03*
%TO.P,A1,29,GND*%
%TO.N,/GND*%
X21590000Y-67310000D03*
%TO.P,A1,30,VIN*%
%TO.N,/+5V*%
X21590000Y-69850000D03*
%TD*%
D24*
%TO.N,/GND*%
X48260000Y-74930000D02*
X19050000Y-74930000D01*
X55960000Y-26750000D02*
X49530000Y-20320000D01*
X19050000Y-67310000D02*
X21590000Y-67310000D01*
X55960000Y-30480000D02*
X55960000Y-26750000D01*
X17780000Y-73660000D02*
X17780000Y-68580000D01*
X17780000Y-68580000D02*
X19050000Y-67310000D01*
X19050000Y-74930000D02*
X17780000Y-73660000D01*
X49530000Y-20320000D02*
X46990000Y-20320000D01*
X53340000Y-69850000D02*
X48260000Y-74930000D01*
X57150000Y-69850000D02*
X53340000Y-69850000D01*
%TO.N,/+5V*%
X77470000Y-59690000D02*
X82550000Y-64770000D01*
X57150000Y-62230000D02*
X59690000Y-59690000D01*
X57150000Y-66050000D02*
X57150000Y-62230000D01*
X59690000Y-59690000D02*
X77470000Y-59690000D01*
X60960000Y-30480000D02*
X60960000Y-17780000D01*
D25*
%TO.N,Net-(A1-D8)*%
X68580000Y-49530000D02*
X67310000Y-48260000D01*
X64770000Y-33020000D02*
X53340000Y-33020000D01*
X53340000Y-33020000D02*
X41910000Y-44450000D01*
X67310000Y-48260000D02*
X67310000Y-35560000D01*
X41910000Y-44450000D02*
X36830000Y-44450000D01*
X67310000Y-35560000D02*
X64770000Y-33020000D01*
X97790000Y-49530000D02*
X68580000Y-49530000D01*
%TO.N,Net-(A1-D7)*%
X46990000Y-54610000D02*
X58420000Y-54610000D01*
X60960000Y-52070000D02*
X62230000Y-52070000D01*
X58420000Y-54610000D02*
X60960000Y-52070000D01*
X39370000Y-46990000D02*
X46990000Y-54610000D01*
X36830000Y-46990000D02*
X39370000Y-46990000D01*
%TO.N,Net-(J1-Pin_3)*%
X60325000Y-34925000D02*
X64135000Y-34925000D01*
X68580000Y-52070000D02*
X97790000Y-52070000D01*
X54610000Y-41910000D02*
X57277000Y-41910000D01*
X100965000Y-66040000D02*
X104140000Y-66040000D01*
X58420000Y-36830000D02*
X60325000Y-34925000D01*
X99314000Y-53594000D02*
X99314000Y-64389000D01*
X64135000Y-34925000D02*
X65405000Y-36195000D01*
X57277000Y-41910000D02*
X58420000Y-40767000D01*
X65405000Y-36195000D02*
X65405000Y-48895000D01*
X99314000Y-64389000D02*
X100965000Y-66040000D01*
X97790000Y-52070000D02*
X99314000Y-53594000D01*
X58420000Y-40767000D02*
X58420000Y-36830000D01*
X65405000Y-48895000D02*
X68580000Y-52070000D01*
%TD*%
%TA.AperFunction,Conductor*%
%TO.N,/GND*%
G36*
X105494855Y-71786546D02*
G01*
X105511575Y-71805842D01*
X105641501Y-71991396D01*
X105641506Y-71991402D01*
X105808597Y-72158493D01*
X105808603Y-72158498D01*
X105994158Y-72288425D01*
X106037783Y-72343002D01*
X106044977Y-72412500D01*
X106013454Y-72474855D01*
X105994158Y-72491575D01*
X105808597Y-72621505D01*
X105641505Y-72788597D01*
X105511269Y-72974595D01*
X105456692Y-73018220D01*
X105387194Y-73025414D01*
X105324839Y-72993891D01*
X105308119Y-72974595D01*
X105254925Y-72898626D01*
X105254925Y-72898625D01*
X104623076Y-73530474D01*
X104599493Y-73450156D01*
X104521761Y-73329202D01*
X104413100Y-73235048D01*
X104282315Y-73175320D01*
X104272532Y-73173913D01*
X104901373Y-72545073D01*
X104901373Y-72545072D01*
X104825405Y-72491880D01*
X104781780Y-72437304D01*
X104774586Y-72367805D01*
X104806108Y-72305451D01*
X104825399Y-72288734D01*
X105011401Y-72158495D01*
X105178495Y-71991401D01*
X105308424Y-71805842D01*
X105363002Y-71762217D01*
X105432500Y-71755023D01*
X105494855Y-71786546D01*
G37*
%TD.AperFunction*%
%TA.AperFunction,Conductor*%
G36*
X115446457Y-13200889D02*
G01*
X115572091Y-13215045D01*
X115599151Y-13221221D01*
X115708587Y-13259515D01*
X115733591Y-13271556D01*
X115831766Y-13333242D01*
X115853471Y-13350552D01*
X115935447Y-13432528D01*
X115952757Y-13454234D01*
X116014441Y-13552404D01*
X116026486Y-13577416D01*
X116064776Y-13686841D01*
X116070955Y-13713912D01*
X116085110Y-13839535D01*
X116085500Y-13846481D01*
X116085500Y-90293517D01*
X116085110Y-90300465D01*
X116070955Y-90426087D01*
X116064776Y-90453158D01*
X116026486Y-90562583D01*
X116014439Y-90587600D01*
X115952760Y-90685762D01*
X115935448Y-90707470D01*
X115874236Y-90768682D01*
X115812916Y-90802166D01*
X115786557Y-90805000D01*
X13451500Y-90805000D01*
X13384461Y-90785315D01*
X13338706Y-90732511D01*
X13327500Y-90681000D01*
X13327500Y-87443763D01*
X110667787Y-87443763D01*
X110697413Y-87713013D01*
X110697415Y-87713024D01*
X110765926Y-87975082D01*
X110765928Y-87975088D01*
X110871870Y-88224390D01*
X110943998Y-88342575D01*
X111012979Y-88455605D01*
X111012986Y-88455615D01*
X111186253Y-88663819D01*
X111186259Y-88663824D01*
X111387998Y-88844582D01*
X111613910Y-88994044D01*
X111859176Y-89109020D01*
X111859183Y-89109022D01*
X111859185Y-89109023D01*
X112118557Y-89187057D01*
X112118564Y-89187058D01*
X112118569Y-89187060D01*
X112386561Y-89226500D01*
X112386566Y-89226500D01*
X112589636Y-89226500D01*
X112641133Y-89222730D01*
X112792156Y-89211677D01*
X112904758Y-89186593D01*
X113056546Y-89152782D01*
X113056548Y-89152781D01*
X113056553Y-89152780D01*
X113309558Y-89056014D01*
X113545777Y-88923441D01*
X113760177Y-88757888D01*
X113948186Y-88562881D01*
X114105799Y-88342579D01*
X114179787Y-88198669D01*
X114229649Y-88101690D01*
X114229651Y-88101684D01*
X114229656Y-88101675D01*
X114317118Y-87845305D01*
X114366319Y-87578933D01*
X114376212Y-87308235D01*
X114346586Y-87038982D01*
X114278072Y-86776912D01*
X114172130Y-86527610D01*
X114031018Y-86296390D01*
X113941747Y-86189119D01*
X113857746Y-86088180D01*
X113857740Y-86088175D01*
X113656002Y-85907418D01*
X113430092Y-85757957D01*
X113430090Y-85757956D01*
X113184824Y-85642980D01*
X113184819Y-85642978D01*
X113184814Y-85642976D01*
X112925442Y-85564942D01*
X112925428Y-85564939D01*
X112809791Y-85547921D01*
X112657439Y-85525500D01*
X112454369Y-85525500D01*
X112454364Y-85525500D01*
X112251844Y-85540323D01*
X112251831Y-85540325D01*
X111987453Y-85599217D01*
X111987446Y-85599220D01*
X111734439Y-85695987D01*
X111498226Y-85828557D01*
X111283822Y-85994112D01*
X111095822Y-86189109D01*
X111095816Y-86189116D01*
X110938202Y-86409419D01*
X110938199Y-86409424D01*
X110814350Y-86650309D01*
X110814343Y-86650327D01*
X110726884Y-86906685D01*
X110726881Y-86906699D01*
X110677681Y-87173068D01*
X110677680Y-87173075D01*
X110667787Y-87443763D01*
X13327500Y-87443763D01*
X13327500Y-72139999D01*
X66031127Y-72139999D01*
X66031128Y-72140000D01*
X66994314Y-72140000D01*
X66982359Y-72151955D01*
X66924835Y-72264852D01*
X66905014Y-72390000D01*
X66924835Y-72515148D01*
X66982359Y-72628045D01*
X66994314Y-72640000D01*
X66031128Y-72640000D01*
X66083730Y-72836317D01*
X66083734Y-72836326D01*
X66179865Y-73042482D01*
X66310342Y-73228820D01*
X66471179Y-73389657D01*
X66657517Y-73520134D01*
X66863673Y-73616265D01*
X66863682Y-73616269D01*
X67059999Y-73668872D01*
X67060000Y-73668871D01*
X67060000Y-72705686D01*
X67071955Y-72717641D01*
X67184852Y-72775165D01*
X67278519Y-72790000D01*
X67341481Y-72790000D01*
X67435148Y-72775165D01*
X67548045Y-72717641D01*
X67560000Y-72705686D01*
X67560000Y-73668872D01*
X67756317Y-73616269D01*
X67756326Y-73616265D01*
X67962482Y-73520134D01*
X68148820Y-73389657D01*
X68309657Y-73228820D01*
X68440134Y-73042482D01*
X68536265Y-72836326D01*
X68536269Y-72836317D01*
X68588872Y-72640000D01*
X71860000Y-72640000D01*
X71860000Y-72708530D01*
X71874648Y-72838539D01*
X71932330Y-73003386D01*
X72025246Y-73151262D01*
X72148737Y-73274753D01*
X72296613Y-73367669D01*
X72461460Y-73425351D01*
X72591469Y-73439999D01*
X72591473Y-73440000D01*
X73010000Y-73440000D01*
X73010000Y-72640000D01*
X71860000Y-72640000D01*
X68588872Y-72640000D01*
X67625686Y-72640000D01*
X67637641Y-72628045D01*
X67695165Y-72515148D01*
X67714986Y-72390000D01*
X67695165Y-72264852D01*
X67637641Y-72151955D01*
X67625686Y-72140000D01*
X68588872Y-72140000D01*
X71860000Y-72140000D01*
X73010000Y-72140000D01*
X73010000Y-71340000D01*
X72591469Y-71340000D01*
X72461460Y-71354648D01*
X72296613Y-71412330D01*
X72148737Y-71505246D01*
X72025246Y-71628737D01*
X71932330Y-71776613D01*
X71874648Y-71941460D01*
X71860000Y-72071469D01*
X71860000Y-72140000D01*
X68588872Y-72140000D01*
X68588872Y-72139999D01*
X68536269Y-71943682D01*
X68536265Y-71943673D01*
X68440134Y-71737517D01*
X68309657Y-71551179D01*
X68148820Y-71390342D01*
X67962482Y-71259865D01*
X67756328Y-71163734D01*
X67560000Y-71111127D01*
X67560000Y-72074314D01*
X67548045Y-72062359D01*
X67435148Y-72004835D01*
X67341481Y-71990000D01*
X67278519Y-71990000D01*
X67184852Y-72004835D01*
X67071955Y-72062359D01*
X67060000Y-72074314D01*
X67060000Y-71111127D01*
X66863671Y-71163734D01*
X66657517Y-71259865D01*
X66471179Y-71390342D01*
X66310342Y-71551179D01*
X66179865Y-71737517D01*
X66083734Y-71943673D01*
X66083730Y-71943682D01*
X66031127Y-72139999D01*
X13327500Y-72139999D01*
X13327500Y-69850001D01*
X20284532Y-69850001D01*
X20304364Y-70076686D01*
X20304366Y-70076697D01*
X20363258Y-70296488D01*
X20363261Y-70296497D01*
X20459431Y-70502732D01*
X20459432Y-70502734D01*
X20589954Y-70689141D01*
X20750858Y-70850045D01*
X20750861Y-70850047D01*
X20937266Y-70980568D01*
X21143504Y-71076739D01*
X21363308Y-71135635D01*
X21525230Y-71149801D01*
X21589998Y-71155468D01*
X21590000Y-71155468D01*
X21590002Y-71155468D01*
X21646807Y-71150498D01*
X21816692Y-71135635D01*
X22036496Y-71076739D01*
X22242734Y-70980568D01*
X22429139Y-70850047D01*
X22590047Y-70689139D01*
X22720568Y-70502734D01*
X22816739Y-70296496D01*
X22875635Y-70076692D01*
X22895468Y-69850000D01*
X22875635Y-69623308D01*
X22816739Y-69403504D01*
X22720568Y-69197266D01*
X22590047Y-69010861D01*
X22590045Y-69010858D01*
X22429141Y-68849954D01*
X22242734Y-68719432D01*
X22242732Y-68719431D01*
X22231275Y-68714088D01*
X22184132Y-68692105D01*
X22131694Y-68645934D01*
X22112542Y-68578740D01*
X22132758Y-68511859D01*
X22184134Y-68467341D01*
X22242484Y-68440132D01*
X22428820Y-68309657D01*
X22589657Y-68148820D01*
X22720134Y-67962482D01*
X22816265Y-67756326D01*
X22816269Y-67756317D01*
X22868872Y-67560000D01*
X22023686Y-67560000D01*
X22049493Y-67519844D01*
X22090000Y-67381889D01*
X22090000Y-67310001D01*
X35524532Y-67310001D01*
X35544364Y-67536686D01*
X35544366Y-67536697D01*
X35603258Y-67756488D01*
X35603261Y-67756497D01*
X35699431Y-67962732D01*
X35699432Y-67962734D01*
X35829954Y-68149141D01*
X35990858Y-68310045D01*
X36015462Y-68327273D01*
X36059087Y-68381849D01*
X36066281Y-68451348D01*
X36034758Y-68513703D01*
X35974529Y-68549117D01*
X35957593Y-68552138D01*
X35922516Y-68555908D01*
X35787671Y-68606202D01*
X35787664Y-68606206D01*
X35672455Y-68692452D01*
X35672452Y-68692455D01*
X35586206Y-68807664D01*
X35586202Y-68807671D01*
X35535908Y-68942517D01*
X35529501Y-69002116D01*
X35529501Y-69002123D01*
X35529500Y-69002135D01*
X35529500Y-70697870D01*
X35529501Y-70697876D01*
X35535908Y-70757483D01*
X35586202Y-70892328D01*
X35586206Y-70892335D01*
X35672452Y-71007544D01*
X35672455Y-71007547D01*
X35787664Y-71093793D01*
X35787671Y-71093797D01*
X35922517Y-71144091D01*
X35922516Y-71144091D01*
X35929444Y-71144835D01*
X35982127Y-71150500D01*
X37677872Y-71150499D01*
X37737483Y-71144091D01*
X37872331Y-71093796D01*
X37987546Y-71007546D01*
X38073796Y-70892331D01*
X38124091Y-70757483D01*
X38130500Y-70697873D01*
X38130500Y-69850002D01*
X55845034Y-69850002D01*
X55864858Y-70076599D01*
X55864860Y-70076610D01*
X55923730Y-70296317D01*
X55923734Y-70296326D01*
X56019865Y-70502481D01*
X56019866Y-70502483D01*
X56070973Y-70575471D01*
X56070974Y-70575472D01*
X56752046Y-69894399D01*
X56764835Y-69975148D01*
X56822359Y-70088045D01*
X56911955Y-70177641D01*
X57024852Y-70235165D01*
X57105599Y-70247953D01*
X56424526Y-70929025D01*
X56424526Y-70929026D01*
X56497512Y-70980131D01*
X56497516Y-70980133D01*
X56703673Y-71076265D01*
X56703682Y-71076269D01*
X56923389Y-71135139D01*
X56923400Y-71135141D01*
X57149998Y-71154966D01*
X57150002Y-71154966D01*
X57376599Y-71135141D01*
X57376610Y-71135139D01*
X57596317Y-71076269D01*
X57596331Y-71076264D01*
X57802478Y-70980136D01*
X57875472Y-70929025D01*
X57194401Y-70247953D01*
X57275148Y-70235165D01*
X57388045Y-70177641D01*
X57477641Y-70088045D01*
X57535165Y-69975148D01*
X57547953Y-69894400D01*
X58229025Y-70575472D01*
X58280136Y-70502478D01*
X58305600Y-70447870D01*
X71859500Y-70447870D01*
X71859501Y-70447876D01*
X71865908Y-70507483D01*
X71916202Y-70642328D01*
X71916206Y-70642335D01*
X72002452Y-70757544D01*
X72002455Y-70757547D01*
X72117664Y-70843793D01*
X72117671Y-70843797D01*
X72252517Y-70894091D01*
X72252516Y-70894091D01*
X72259444Y-70894835D01*
X72312127Y-70900500D01*
X73805500Y-70900499D01*
X73872539Y-70920184D01*
X73918294Y-70972987D01*
X73929500Y-71024499D01*
X73929500Y-71216000D01*
X73909815Y-71283039D01*
X73857011Y-71328794D01*
X73805500Y-71340000D01*
X73510000Y-71340000D01*
X73510000Y-72044784D01*
X73426486Y-72089981D01*
X73341722Y-72182059D01*
X73291449Y-72296670D01*
X73281114Y-72421395D01*
X73311837Y-72542719D01*
X73380289Y-72647492D01*
X73479052Y-72724363D01*
X73510000Y-72734987D01*
X73510000Y-73440000D01*
X73928527Y-73440000D01*
X73928530Y-73439999D01*
X74058539Y-73425351D01*
X74223386Y-73367669D01*
X74371262Y-73274753D01*
X74494753Y-73151262D01*
X74587669Y-73003386D01*
X74645351Y-72838539D01*
X74659999Y-72708530D01*
X74660000Y-72708526D01*
X74660000Y-72640000D01*
X73939560Y-72640000D01*
X73978278Y-72597941D01*
X74028551Y-72483330D01*
X74036284Y-72390001D01*
X78704532Y-72390001D01*
X78724364Y-72616686D01*
X78724366Y-72616697D01*
X78783258Y-72836488D01*
X78783261Y-72836497D01*
X78879431Y-73042732D01*
X78879432Y-73042734D01*
X79009954Y-73229141D01*
X79170858Y-73390045D01*
X79170861Y-73390047D01*
X79357266Y-73520568D01*
X79563504Y-73616739D01*
X79783308Y-73675635D01*
X79945230Y-73689801D01*
X80009998Y-73695468D01*
X80010000Y-73695468D01*
X80010002Y-73695468D01*
X80066807Y-73690498D01*
X80236692Y-73675635D01*
X80456496Y-73616739D01*
X80662734Y-73520568D01*
X80849139Y-73390047D01*
X81010047Y-73229139D01*
X81140568Y-73042734D01*
X81236739Y-72836496D01*
X81295635Y-72616692D01*
X81315468Y-72390001D01*
X86324532Y-72390001D01*
X86344364Y-72616686D01*
X86344366Y-72616697D01*
X86403258Y-72836488D01*
X86403261Y-72836497D01*
X86499431Y-73042732D01*
X86499432Y-73042734D01*
X86629954Y-73229141D01*
X86790858Y-73390045D01*
X86790861Y-73390047D01*
X86977266Y-73520568D01*
X87183504Y-73616739D01*
X87403308Y-73675635D01*
X87565230Y-73689801D01*
X87629998Y-73695468D01*
X87630000Y-73695468D01*
X87630002Y-73695468D01*
X87686807Y-73690498D01*
X87856692Y-73675635D01*
X88076496Y-73616739D01*
X88282734Y-73520568D01*
X88469139Y-73390047D01*
X88621316Y-73237870D01*
X93949500Y-73237870D01*
X93949501Y-73237876D01*
X93955908Y-73297483D01*
X94006202Y-73432328D01*
X94006206Y-73432335D01*
X94092452Y-73547544D01*
X94092455Y-73547547D01*
X94207664Y-73633793D01*
X94207671Y-73633797D01*
X94342517Y-73684091D01*
X94342516Y-73684091D01*
X94349444Y-73684835D01*
X94402127Y-73690500D01*
X96097872Y-73690499D01*
X96157483Y-73684091D01*
X96292331Y-73633796D01*
X96407546Y-73547546D01*
X96493796Y-73432331D01*
X96544091Y-73297483D01*
X96550500Y-73237873D01*
X96550499Y-71542128D01*
X96544091Y-71482517D01*
X96527695Y-71438558D01*
X96493797Y-71347671D01*
X96493793Y-71347664D01*
X96407547Y-71232455D01*
X96407544Y-71232452D01*
X96292335Y-71146206D01*
X96292328Y-71146202D01*
X96157482Y-71095908D01*
X96157483Y-71095908D01*
X96097883Y-71089501D01*
X96097881Y-71089500D01*
X96097873Y-71089500D01*
X96097864Y-71089500D01*
X94402129Y-71089500D01*
X94402123Y-71089501D01*
X94342516Y-71095908D01*
X94207671Y-71146202D01*
X94207664Y-71146206D01*
X94092455Y-71232452D01*
X94092452Y-71232455D01*
X94006206Y-71347664D01*
X94006202Y-71347671D01*
X93955908Y-71482517D01*
X93953465Y-71505246D01*
X93949501Y-71542123D01*
X93949500Y-71542135D01*
X93949500Y-73237870D01*
X88621316Y-73237870D01*
X88630047Y-73229139D01*
X88760568Y-73042734D01*
X88856739Y-72836496D01*
X88915635Y-72616692D01*
X88935468Y-72390000D01*
X88915635Y-72163308D01*
X88856739Y-71943504D01*
X88760568Y-71737266D01*
X88653009Y-71583655D01*
X88630045Y-71550858D01*
X88469141Y-71389954D01*
X88282734Y-71259432D01*
X88282732Y-71259431D01*
X88076497Y-71163261D01*
X88076488Y-71163258D01*
X87856697Y-71104366D01*
X87856693Y-71104365D01*
X87856692Y-71104365D01*
X87856691Y-71104364D01*
X87856686Y-71104364D01*
X87630002Y-71084532D01*
X87629998Y-71084532D01*
X87403313Y-71104364D01*
X87403302Y-71104366D01*
X87183511Y-71163258D01*
X87183502Y-71163261D01*
X86977267Y-71259431D01*
X86977265Y-71259432D01*
X86790858Y-71389954D01*
X86629954Y-71550858D01*
X86499432Y-71737265D01*
X86499431Y-71737267D01*
X86403261Y-71943502D01*
X86403258Y-71943511D01*
X86344366Y-72163302D01*
X86344364Y-72163313D01*
X86324532Y-72389998D01*
X86324532Y-72390001D01*
X81315468Y-72390001D01*
X81315468Y-72390000D01*
X81295635Y-72163308D01*
X81236739Y-71943504D01*
X81140568Y-71737266D01*
X81033009Y-71583655D01*
X81010045Y-71550858D01*
X80849141Y-71389954D01*
X80662734Y-71259432D01*
X80662732Y-71259431D01*
X80456497Y-71163261D01*
X80456488Y-71163258D01*
X80236697Y-71104366D01*
X80236693Y-71104365D01*
X80236692Y-71104365D01*
X80236691Y-71104364D01*
X80236686Y-71104364D01*
X80010002Y-71084532D01*
X80009998Y-71084532D01*
X79783313Y-71104364D01*
X79783302Y-71104366D01*
X79563511Y-71163258D01*
X79563502Y-71163261D01*
X79357267Y-71259431D01*
X79357265Y-71259432D01*
X79170858Y-71389954D01*
X79009954Y-71550858D01*
X78879432Y-71737265D01*
X78879431Y-71737267D01*
X78783261Y-71943502D01*
X78783258Y-71943511D01*
X78724366Y-72163302D01*
X78724364Y-72163313D01*
X78704532Y-72389998D01*
X78704532Y-72390001D01*
X74036284Y-72390001D01*
X74038886Y-72358605D01*
X74008163Y-72237281D01*
X73944606Y-72140000D01*
X74465005Y-72140000D01*
X74505960Y-72146959D01*
X74531343Y-72155841D01*
X74531349Y-72155841D01*
X74531351Y-72155842D01*
X74554898Y-72158495D01*
X74661442Y-72170499D01*
X74661445Y-72170500D01*
X74661448Y-72170500D01*
X75998555Y-72170500D01*
X75998556Y-72170499D01*
X76128657Y-72155841D01*
X76293606Y-72098122D01*
X76441576Y-72005147D01*
X76565147Y-71881576D01*
X76658122Y-71733606D01*
X76715841Y-71568657D01*
X76730500Y-71438552D01*
X76730500Y-70801448D01*
X76718831Y-70697883D01*
X76715842Y-70671351D01*
X76715841Y-70671349D01*
X76715841Y-70671343D01*
X76658122Y-70506394D01*
X76565147Y-70358424D01*
X76441576Y-70234853D01*
X76293606Y-70141878D01*
X76293605Y-70141877D01*
X76293604Y-70141877D01*
X76128658Y-70084159D01*
X76128648Y-70084157D01*
X75998558Y-70069500D01*
X75998552Y-70069500D01*
X74784499Y-70069500D01*
X74717460Y-70049815D01*
X74671705Y-69997011D01*
X74660499Y-69945500D01*
X74660499Y-69252129D01*
X74660498Y-69252123D01*
X74660497Y-69252116D01*
X74654091Y-69192517D01*
X74628732Y-69124527D01*
X74603797Y-69057671D01*
X74603793Y-69057664D01*
X74517547Y-68942455D01*
X74517544Y-68942452D01*
X74402335Y-68856206D01*
X74402328Y-68856202D01*
X74267482Y-68805908D01*
X74267483Y-68805908D01*
X74207883Y-68799501D01*
X74207881Y-68799500D01*
X74207873Y-68799500D01*
X74207864Y-68799500D01*
X72312129Y-68799500D01*
X72312123Y-68799501D01*
X72252516Y-68805908D01*
X72117671Y-68856202D01*
X72117664Y-68856206D01*
X72002455Y-68942452D01*
X72002452Y-68942455D01*
X71916206Y-69057664D01*
X71916202Y-69057671D01*
X71865908Y-69192517D01*
X71860100Y-69246546D01*
X71859501Y-69252123D01*
X71859500Y-69252135D01*
X71859500Y-70447870D01*
X58305600Y-70447870D01*
X58376264Y-70296331D01*
X58376269Y-70296317D01*
X58435139Y-70076610D01*
X58435141Y-70076599D01*
X58454966Y-69850002D01*
X58454966Y-69849997D01*
X58435141Y-69623400D01*
X58435139Y-69623389D01*
X58376269Y-69403682D01*
X58376265Y-69403673D01*
X58280133Y-69197516D01*
X58280131Y-69197512D01*
X58229026Y-69124526D01*
X58229025Y-69124526D01*
X57547953Y-69805598D01*
X57535165Y-69724852D01*
X57477641Y-69611955D01*
X57388045Y-69522359D01*
X57275148Y-69464835D01*
X57194400Y-69452046D01*
X57875472Y-68770974D01*
X57875471Y-68770973D01*
X57802483Y-68719866D01*
X57802481Y-68719865D01*
X57596326Y-68623734D01*
X57596317Y-68623730D01*
X57376610Y-68564860D01*
X57376599Y-68564858D01*
X57150002Y-68545034D01*
X57149998Y-68545034D01*
X56923400Y-68564858D01*
X56923389Y-68564860D01*
X56703682Y-68623730D01*
X56703673Y-68623734D01*
X56497513Y-68719868D01*
X56424527Y-68770972D01*
X56424526Y-68770973D01*
X57105600Y-69452046D01*
X57024852Y-69464835D01*
X56911955Y-69522359D01*
X56822359Y-69611955D01*
X56764835Y-69724852D01*
X56752046Y-69805599D01*
X56070973Y-69124526D01*
X56070972Y-69124527D01*
X56019868Y-69197513D01*
X55923734Y-69403673D01*
X55923730Y-69403682D01*
X55864860Y-69623389D01*
X55864858Y-69623400D01*
X55845034Y-69849997D01*
X55845034Y-69850002D01*
X38130500Y-69850002D01*
X38130499Y-69002128D01*
X38124091Y-68942517D01*
X38091898Y-68856204D01*
X38073797Y-68807671D01*
X38073793Y-68807664D01*
X37987547Y-68692455D01*
X37987544Y-68692452D01*
X37872335Y-68606206D01*
X37872328Y-68606202D01*
X37737482Y-68555908D01*
X37737483Y-68555908D01*
X37702404Y-68552137D01*
X37637853Y-68525399D01*
X37598005Y-68468006D01*
X37595512Y-68398181D01*
X37631165Y-68338092D01*
X37644539Y-68327272D01*
X37669140Y-68310046D01*
X37830045Y-68149141D01*
X37830044Y-68149140D01*
X37830047Y-68149139D01*
X37960568Y-67962734D01*
X38056739Y-67756496D01*
X38115635Y-67536692D01*
X38135468Y-67310000D01*
X38134050Y-67293797D01*
X38126581Y-67208425D01*
X38115635Y-67083308D01*
X38065947Y-66897870D01*
X55849500Y-66897870D01*
X55849501Y-66897876D01*
X55855908Y-66957483D01*
X55906202Y-67092328D01*
X55906206Y-67092335D01*
X55992452Y-67207544D01*
X55992455Y-67207547D01*
X56107664Y-67293793D01*
X56107671Y-67293797D01*
X56242517Y-67344091D01*
X56242516Y-67344091D01*
X56249444Y-67344835D01*
X56302127Y-67350500D01*
X57997872Y-67350499D01*
X58057483Y-67344091D01*
X58192331Y-67293796D01*
X58307546Y-67207546D01*
X58393796Y-67092331D01*
X58444091Y-66957483D01*
X58450500Y-66897873D01*
X58450500Y-66117870D01*
X87849500Y-66117870D01*
X87849501Y-66117876D01*
X87855908Y-66177483D01*
X87906202Y-66312328D01*
X87906206Y-66312335D01*
X87992452Y-66427544D01*
X87992455Y-66427547D01*
X88107664Y-66513793D01*
X88107671Y-66513797D01*
X88242517Y-66564091D01*
X88242516Y-66564091D01*
X88249444Y-66564835D01*
X88302127Y-66570500D01*
X89497872Y-66570499D01*
X89557483Y-66564091D01*
X89692331Y-66513796D01*
X89807546Y-66427546D01*
X89893796Y-66312331D01*
X89944091Y-66177483D01*
X89950500Y-66117873D01*
X89950499Y-64222128D01*
X89944091Y-64162517D01*
X89939429Y-64150018D01*
X89927818Y-64118886D01*
X89920000Y-64075553D01*
X89920000Y-63780617D01*
X89989052Y-63834363D01*
X90107424Y-63875000D01*
X90201073Y-63875000D01*
X90293446Y-63859586D01*
X90403514Y-63800019D01*
X90420000Y-63782110D01*
X90420000Y-64305001D01*
X90413042Y-64345955D01*
X90404159Y-64371340D01*
X90404157Y-64371348D01*
X90389500Y-64501441D01*
X90389500Y-65838558D01*
X90404157Y-65968648D01*
X90404159Y-65968658D01*
X90456376Y-66117883D01*
X90461878Y-66133606D01*
X90554853Y-66281576D01*
X90678424Y-66405147D01*
X90826394Y-66498122D01*
X90991343Y-66555841D01*
X90991349Y-66555841D01*
X90991351Y-66555842D01*
X91032750Y-66560506D01*
X91121442Y-66570499D01*
X91121445Y-66570500D01*
X91121448Y-66570500D01*
X91758555Y-66570500D01*
X91758556Y-66570499D01*
X91888657Y-66555841D01*
X92053606Y-66498122D01*
X92201576Y-66405147D01*
X92325147Y-66281576D01*
X92418122Y-66133606D01*
X92475841Y-65968657D01*
X92490500Y-65838552D01*
X92490500Y-64770001D01*
X93944532Y-64770001D01*
X93964364Y-64996686D01*
X93964366Y-64996697D01*
X94023258Y-65216488D01*
X94023261Y-65216497D01*
X94119431Y-65422732D01*
X94119432Y-65422734D01*
X94249954Y-65609141D01*
X94410858Y-65770045D01*
X94410861Y-65770047D01*
X94597266Y-65900568D01*
X94803504Y-65996739D01*
X95023308Y-66055635D01*
X95185230Y-66069801D01*
X95249998Y-66075468D01*
X95250000Y-66075468D01*
X95250002Y-66075468D01*
X95306673Y-66070509D01*
X95476692Y-66055635D01*
X95696496Y-65996739D01*
X95902734Y-65900568D01*
X96089139Y-65770047D01*
X96250047Y-65609139D01*
X96380568Y-65422734D01*
X96476739Y-65216496D01*
X96535635Y-64996692D01*
X96555468Y-64770000D01*
X96554169Y-64755158D01*
X96540501Y-64598930D01*
X96535635Y-64543308D01*
X96489571Y-64371395D01*
X96476741Y-64323511D01*
X96476738Y-64323502D01*
X96443768Y-64252799D01*
X96380568Y-64117266D01*
X96250047Y-63930861D01*
X96250045Y-63930858D01*
X96089141Y-63769954D01*
X95902734Y-63639432D01*
X95902732Y-63639431D01*
X95696497Y-63543261D01*
X95696488Y-63543258D01*
X95476697Y-63484366D01*
X95476693Y-63484365D01*
X95476692Y-63484365D01*
X95476691Y-63484364D01*
X95476686Y-63484364D01*
X95250002Y-63464532D01*
X95249998Y-63464532D01*
X95023313Y-63484364D01*
X95023302Y-63484366D01*
X94803511Y-63543258D01*
X94803502Y-63543261D01*
X94597267Y-63639431D01*
X94597265Y-63639432D01*
X94410858Y-63769954D01*
X94249954Y-63930858D01*
X94119432Y-64117265D01*
X94119431Y-64117267D01*
X94023261Y-64323502D01*
X94023258Y-64323511D01*
X93964366Y-64543302D01*
X93964364Y-64543313D01*
X93944532Y-64769998D01*
X93944532Y-64770001D01*
X92490500Y-64770001D01*
X92490500Y-64501448D01*
X92475841Y-64371343D01*
X92418122Y-64206394D01*
X92325147Y-64058424D01*
X92201576Y-63934853D01*
X92053606Y-63841878D01*
X92053605Y-63841877D01*
X92053604Y-63841877D01*
X91888658Y-63784159D01*
X91888648Y-63784157D01*
X91758558Y-63769500D01*
X91758552Y-63769500D01*
X91344000Y-63769500D01*
X91276961Y-63749815D01*
X91231206Y-63697011D01*
X91220000Y-63645500D01*
X91220000Y-63350000D01*
X90518852Y-63350000D01*
X90518163Y-63347281D01*
X90449711Y-63242508D01*
X90350948Y-63165637D01*
X90232576Y-63125000D01*
X90138927Y-63125000D01*
X90046554Y-63140414D01*
X89936486Y-63199981D01*
X89851722Y-63292059D01*
X89826307Y-63350000D01*
X89120000Y-63350000D01*
X89120000Y-63645500D01*
X89100315Y-63712539D01*
X89047511Y-63758294D01*
X88996000Y-63769500D01*
X88302129Y-63769500D01*
X88302123Y-63769501D01*
X88242516Y-63775908D01*
X88107671Y-63826202D01*
X88107664Y-63826206D01*
X87992455Y-63912452D01*
X87992452Y-63912455D01*
X87906206Y-64027664D01*
X87906202Y-64027671D01*
X87855908Y-64162517D01*
X87851191Y-64206395D01*
X87849501Y-64222123D01*
X87849500Y-64222135D01*
X87849500Y-66117870D01*
X58450500Y-66117870D01*
X58450499Y-65202128D01*
X58444091Y-65142517D01*
X58393796Y-65007669D01*
X58393795Y-65007668D01*
X58393793Y-65007664D01*
X58307547Y-64892455D01*
X58307544Y-64892452D01*
X58192335Y-64806206D01*
X58192328Y-64806202D01*
X58131167Y-64783391D01*
X58113280Y-64770001D01*
X66004532Y-64770001D01*
X66024364Y-64996686D01*
X66024366Y-64996697D01*
X66083258Y-65216488D01*
X66083261Y-65216497D01*
X66179431Y-65422732D01*
X66179432Y-65422734D01*
X66309954Y-65609141D01*
X66470858Y-65770045D01*
X66470861Y-65770047D01*
X66657266Y-65900568D01*
X66863504Y-65996739D01*
X67083308Y-66055635D01*
X67245230Y-66069801D01*
X67309998Y-66075468D01*
X67310000Y-66075468D01*
X67310002Y-66075468D01*
X67366672Y-66070509D01*
X67536692Y-66055635D01*
X67756496Y-65996739D01*
X67962734Y-65900568D01*
X68149139Y-65770047D01*
X68310047Y-65609139D01*
X68440568Y-65422734D01*
X68536739Y-65216496D01*
X68595635Y-64996692D01*
X68615468Y-64770001D01*
X73624532Y-64770001D01*
X73644364Y-64996686D01*
X73644366Y-64996697D01*
X73703258Y-65216488D01*
X73703261Y-65216497D01*
X73799431Y-65422732D01*
X73799432Y-65422734D01*
X73929954Y-65609141D01*
X74090858Y-65770045D01*
X74090861Y-65770047D01*
X74277266Y-65900568D01*
X74483504Y-65996739D01*
X74703308Y-66055635D01*
X74865230Y-66069801D01*
X74929998Y-66075468D01*
X74930000Y-66075468D01*
X74930002Y-66075468D01*
X74986673Y-66070509D01*
X75156692Y-66055635D01*
X75376496Y-65996739D01*
X75582734Y-65900568D01*
X75769139Y-65770047D01*
X75930047Y-65609139D01*
X76060568Y-65422734D01*
X76156739Y-65216496D01*
X76215635Y-64996692D01*
X76235468Y-64770000D01*
X76234169Y-64755158D01*
X76220501Y-64598930D01*
X76215635Y-64543308D01*
X76169571Y-64371395D01*
X76156741Y-64323511D01*
X76156738Y-64323502D01*
X76123768Y-64252799D01*
X76060568Y-64117266D01*
X75930047Y-63930861D01*
X75930045Y-63930858D01*
X75769141Y-63769954D01*
X75582734Y-63639432D01*
X75582732Y-63639431D01*
X75376497Y-63543261D01*
X75376488Y-63543258D01*
X75156697Y-63484366D01*
X75156693Y-63484365D01*
X75156692Y-63484365D01*
X75156691Y-63484364D01*
X75156686Y-63484364D01*
X74930002Y-63464532D01*
X74929998Y-63464532D01*
X74703313Y-63484364D01*
X74703302Y-63484366D01*
X74483511Y-63543258D01*
X74483502Y-63543261D01*
X74277267Y-63639431D01*
X74277265Y-63639432D01*
X74090858Y-63769954D01*
X73929954Y-63930858D01*
X73799432Y-64117265D01*
X73799431Y-64117267D01*
X73703261Y-64323502D01*
X73703258Y-64323511D01*
X73644366Y-64543302D01*
X73644364Y-64543313D01*
X73624532Y-64769998D01*
X73624532Y-64770001D01*
X68615468Y-64770001D01*
X68615468Y-64770000D01*
X68614169Y-64755158D01*
X68600501Y-64598930D01*
X68595635Y-64543308D01*
X68549571Y-64371395D01*
X68536741Y-64323511D01*
X68536738Y-64323502D01*
X68503768Y-64252799D01*
X68440568Y-64117266D01*
X68310047Y-63930861D01*
X68310045Y-63930858D01*
X68149141Y-63769954D01*
X67962734Y-63639432D01*
X67962732Y-63639431D01*
X67756497Y-63543261D01*
X67756488Y-63543258D01*
X67536697Y-63484366D01*
X67536693Y-63484365D01*
X67536692Y-63484365D01*
X67536691Y-63484364D01*
X67536686Y-63484364D01*
X67310002Y-63464532D01*
X67309998Y-63464532D01*
X67083313Y-63484364D01*
X67083302Y-63484366D01*
X66863511Y-63543258D01*
X66863502Y-63543261D01*
X66657267Y-63639431D01*
X66657265Y-63639432D01*
X66470858Y-63769954D01*
X66309954Y-63930858D01*
X66179432Y-64117265D01*
X66179431Y-64117267D01*
X66083261Y-64323502D01*
X66083258Y-64323511D01*
X66024366Y-64543302D01*
X66024364Y-64543313D01*
X66004532Y-64769998D01*
X66004532Y-64770001D01*
X58113280Y-64770001D01*
X58075233Y-64741520D01*
X58050816Y-64676056D01*
X58050500Y-64667209D01*
X58050500Y-62654361D01*
X58070185Y-62587322D01*
X58086819Y-62566680D01*
X60026680Y-60626819D01*
X60088003Y-60593334D01*
X60114361Y-60590500D01*
X77045639Y-60590500D01*
X77112678Y-60610185D01*
X77133320Y-60626819D01*
X81209553Y-64703053D01*
X81243038Y-64764376D01*
X81245400Y-64779926D01*
X81264364Y-64996687D01*
X81264366Y-64996697D01*
X81323258Y-65216488D01*
X81323261Y-65216497D01*
X81419431Y-65422732D01*
X81419432Y-65422734D01*
X81549954Y-65609141D01*
X81710858Y-65770045D01*
X81710861Y-65770047D01*
X81897266Y-65900568D01*
X82103504Y-65996739D01*
X82323308Y-66055635D01*
X82485230Y-66069801D01*
X82549998Y-66075468D01*
X82550000Y-66075468D01*
X82550002Y-66075468D01*
X82606672Y-66070509D01*
X82776692Y-66055635D01*
X82996496Y-65996739D01*
X83202734Y-65900568D01*
X83389139Y-65770047D01*
X83550047Y-65609139D01*
X83680568Y-65422734D01*
X83776739Y-65216496D01*
X83835635Y-64996692D01*
X83855468Y-64770000D01*
X83854169Y-64755158D01*
X83840501Y-64598930D01*
X83835635Y-64543308D01*
X83789571Y-64371395D01*
X83776741Y-64323511D01*
X83776738Y-64323502D01*
X83743768Y-64252799D01*
X83680568Y-64117266D01*
X83550047Y-63930861D01*
X83550045Y-63930858D01*
X83389141Y-63769954D01*
X83202734Y-63639432D01*
X83202732Y-63639431D01*
X82996497Y-63543261D01*
X82996488Y-63543258D01*
X82776697Y-63484366D01*
X82776687Y-63484364D01*
X82559926Y-63465400D01*
X82494858Y-63439947D01*
X82483053Y-63429553D01*
X81903500Y-62850000D01*
X89120000Y-62850000D01*
X89920000Y-62850000D01*
X89920000Y-61700000D01*
X90420000Y-61700000D01*
X90420000Y-62850000D01*
X91220000Y-62850000D01*
X91220000Y-62431473D01*
X91219999Y-62431469D01*
X91205351Y-62301460D01*
X91147669Y-62136613D01*
X91054753Y-61988737D01*
X90931262Y-61865246D01*
X90783386Y-61772330D01*
X90618539Y-61714648D01*
X90488530Y-61700000D01*
X90420000Y-61700000D01*
X89920000Y-61700000D01*
X89851469Y-61700000D01*
X89721460Y-61714648D01*
X89556613Y-61772330D01*
X89408737Y-61865246D01*
X89285246Y-61988737D01*
X89192330Y-62136613D01*
X89134648Y-62301460D01*
X89120000Y-62431469D01*
X89120000Y-62850000D01*
X81903500Y-62850000D01*
X78163764Y-59110265D01*
X78151126Y-59095468D01*
X78142887Y-59084128D01*
X78091277Y-59037657D01*
X78088922Y-59035423D01*
X78073382Y-59019882D01*
X78056295Y-59006043D01*
X78053831Y-59003939D01*
X78002220Y-58957470D01*
X78002213Y-58957465D01*
X77990070Y-58950454D01*
X77974043Y-58939438D01*
X77963153Y-58930620D01*
X77963151Y-58930619D01*
X77963149Y-58930617D01*
X77944259Y-58920992D01*
X77901266Y-58899085D01*
X77898414Y-58897537D01*
X77838282Y-58862820D01*
X77824949Y-58858488D01*
X77806978Y-58851043D01*
X77794498Y-58844684D01*
X77794486Y-58844679D01*
X77727409Y-58826705D01*
X77724309Y-58825787D01*
X77658256Y-58804326D01*
X77658251Y-58804325D01*
X77658249Y-58804325D01*
X77644314Y-58802860D01*
X77625189Y-58799315D01*
X77611653Y-58795688D01*
X77611643Y-58795686D01*
X77542290Y-58792051D01*
X77539059Y-58791797D01*
X77524537Y-58790271D01*
X77517192Y-58789500D01*
X77517189Y-58789500D01*
X77495203Y-58789500D01*
X77491959Y-58789415D01*
X77422612Y-58785781D01*
X77422611Y-58785781D01*
X77408772Y-58787973D01*
X77389373Y-58789500D01*
X59770627Y-58789500D01*
X59751228Y-58787973D01*
X59737389Y-58785781D01*
X59737388Y-58785781D01*
X59668046Y-58789415D01*
X59664803Y-58789500D01*
X59642808Y-58789500D01*
X59627403Y-58791118D01*
X59620933Y-58791798D01*
X59617702Y-58792052D01*
X59548356Y-58795687D01*
X59534809Y-58799317D01*
X59515686Y-58802860D01*
X59501745Y-58804325D01*
X59501743Y-58804325D01*
X59435702Y-58825784D01*
X59432590Y-58826705D01*
X59365517Y-58844677D01*
X59365503Y-58844683D01*
X59353022Y-58851043D01*
X59335049Y-58858488D01*
X59321715Y-58862820D01*
X59261592Y-58897533D01*
X59258740Y-58899082D01*
X59196853Y-58930616D01*
X59196837Y-58930626D01*
X59185948Y-58939444D01*
X59169923Y-58950458D01*
X59157785Y-58957466D01*
X59157781Y-58957469D01*
X59106172Y-59003936D01*
X59103710Y-59006039D01*
X59086627Y-59019875D01*
X59086610Y-59019890D01*
X59071065Y-59035435D01*
X59068713Y-59037666D01*
X59017114Y-59084126D01*
X59008869Y-59095474D01*
X58996236Y-59110263D01*
X56570263Y-61536236D01*
X56555474Y-61548869D01*
X56544126Y-61557114D01*
X56497666Y-61608713D01*
X56495435Y-61611065D01*
X56479890Y-61626610D01*
X56479875Y-61626627D01*
X56466039Y-61643710D01*
X56463936Y-61646172D01*
X56417469Y-61697781D01*
X56417466Y-61697785D01*
X56410458Y-61709923D01*
X56399444Y-61725948D01*
X56390626Y-61736837D01*
X56390616Y-61736853D01*
X56359082Y-61798740D01*
X56357533Y-61801592D01*
X56322821Y-61861713D01*
X56318487Y-61875053D01*
X56311045Y-61893020D01*
X56304680Y-61905512D01*
X56286706Y-61972584D01*
X56285785Y-61975692D01*
X56264326Y-62041742D01*
X56264325Y-62041745D01*
X56262860Y-62055686D01*
X56259315Y-62074812D01*
X56255686Y-62088352D01*
X56252051Y-62157710D01*
X56251797Y-62160941D01*
X56249500Y-62182810D01*
X56249500Y-62204797D01*
X56249415Y-62208042D01*
X56245781Y-62277387D01*
X56247973Y-62291225D01*
X56249500Y-62310626D01*
X56249500Y-64667209D01*
X56229815Y-64734248D01*
X56177011Y-64780003D01*
X56168833Y-64783391D01*
X56107671Y-64806202D01*
X56107664Y-64806206D01*
X55992455Y-64892452D01*
X55992452Y-64892455D01*
X55906206Y-65007664D01*
X55906202Y-65007671D01*
X55855908Y-65142517D01*
X55849501Y-65202116D01*
X55849501Y-65202123D01*
X55849500Y-65202135D01*
X55849500Y-66897870D01*
X38065947Y-66897870D01*
X38056739Y-66863504D01*
X37960568Y-66657266D01*
X37830047Y-66470861D01*
X37830045Y-66470858D01*
X37669141Y-66309954D01*
X37482734Y-66179432D01*
X37482728Y-66179429D01*
X37424725Y-66152382D01*
X37372285Y-66106210D01*
X37353133Y-66039017D01*
X37373348Y-65972135D01*
X37424725Y-65927618D01*
X37482734Y-65900568D01*
X37669139Y-65770047D01*
X37830047Y-65609139D01*
X37960568Y-65422734D01*
X38056739Y-65216496D01*
X38115635Y-64996692D01*
X38135468Y-64770000D01*
X38134169Y-64755158D01*
X38120501Y-64598930D01*
X38115635Y-64543308D01*
X38069571Y-64371395D01*
X38056741Y-64323511D01*
X38056738Y-64323502D01*
X38023768Y-64252799D01*
X37960568Y-64117266D01*
X37830047Y-63930861D01*
X37830045Y-63930858D01*
X37669141Y-63769954D01*
X37482734Y-63639432D01*
X37482728Y-63639429D01*
X37424725Y-63612382D01*
X37372285Y-63566210D01*
X37353133Y-63499017D01*
X37373348Y-63432135D01*
X37424725Y-63387618D01*
X37482734Y-63360568D01*
X37669139Y-63230047D01*
X37830047Y-63069139D01*
X37960568Y-62882734D01*
X38056739Y-62676496D01*
X38115635Y-62456692D01*
X38135468Y-62230000D01*
X38115635Y-62003308D01*
X38061205Y-61800172D01*
X38056741Y-61783511D01*
X38056738Y-61783502D01*
X38016765Y-61697781D01*
X37960568Y-61577266D01*
X37830047Y-61390861D01*
X37830045Y-61390858D01*
X37669141Y-61229954D01*
X37482734Y-61099432D01*
X37482728Y-61099429D01*
X37424725Y-61072382D01*
X37372285Y-61026210D01*
X37353133Y-60959017D01*
X37373348Y-60892135D01*
X37424725Y-60847618D01*
X37482734Y-60820568D01*
X37669139Y-60690047D01*
X37830047Y-60529139D01*
X37960568Y-60342734D01*
X38056739Y-60136496D01*
X38115635Y-59916692D01*
X38135468Y-59690000D01*
X38115635Y-59463308D01*
X38056739Y-59243504D01*
X37960568Y-59037266D01*
X37838421Y-58862820D01*
X37830045Y-58850858D01*
X37669141Y-58689954D01*
X37482734Y-58559432D01*
X37482728Y-58559429D01*
X37424725Y-58532382D01*
X37372285Y-58486210D01*
X37353133Y-58419017D01*
X37373348Y-58352135D01*
X37424725Y-58307618D01*
X37482734Y-58280568D01*
X37669139Y-58150047D01*
X37830047Y-57989139D01*
X37960568Y-57802734D01*
X38056739Y-57596496D01*
X38115635Y-57376692D01*
X38135468Y-57150000D01*
X38115635Y-56923308D01*
X38056739Y-56703504D01*
X37960568Y-56497266D01*
X37830047Y-56310861D01*
X37830045Y-56310858D01*
X37669141Y-56149954D01*
X37482734Y-56019432D01*
X37482728Y-56019429D01*
X37424725Y-55992382D01*
X37372285Y-55946210D01*
X37353133Y-55879017D01*
X37373348Y-55812135D01*
X37424725Y-55767618D01*
X37482734Y-55740568D01*
X37669139Y-55610047D01*
X37830047Y-55449139D01*
X37960568Y-55262734D01*
X38056739Y-55056496D01*
X38115635Y-54836692D01*
X38135468Y-54610000D01*
X38115635Y-54383308D01*
X38056739Y-54163504D01*
X37960568Y-53957266D01*
X37830047Y-53770861D01*
X37830045Y-53770858D01*
X37669141Y-53609954D01*
X37482735Y-53479433D01*
X37482736Y-53479433D01*
X37482734Y-53479432D01*
X37424722Y-53452380D01*
X37372284Y-53406208D01*
X37353133Y-53339014D01*
X37373349Y-53272133D01*
X37424721Y-53227619D01*
X37482734Y-53200568D01*
X37669139Y-53070047D01*
X37830047Y-52909139D01*
X37960568Y-52722734D01*
X38056739Y-52516496D01*
X38115635Y-52296692D01*
X38135468Y-52070000D01*
X38115635Y-51843308D01*
X38056739Y-51623504D01*
X37960568Y-51417266D01*
X37830047Y-51230861D01*
X37830045Y-51230858D01*
X37669141Y-51069954D01*
X37562546Y-50995316D01*
X37482734Y-50939432D01*
X37424722Y-50912380D01*
X37372284Y-50866208D01*
X37353133Y-50799014D01*
X37373349Y-50732133D01*
X37424721Y-50687619D01*
X37482734Y-50660568D01*
X37669139Y-50530047D01*
X37830047Y-50369139D01*
X37960568Y-50182734D01*
X38056739Y-49976496D01*
X38115635Y-49756692D01*
X38135468Y-49530000D01*
X38115635Y-49303308D01*
X38056739Y-49083504D01*
X37960568Y-48877266D01*
X37830047Y-48690861D01*
X37830045Y-48690858D01*
X37669141Y-48529954D01*
X37482734Y-48399432D01*
X37482728Y-48399429D01*
X37424725Y-48372382D01*
X37372285Y-48326210D01*
X37353133Y-48259017D01*
X37373348Y-48192135D01*
X37424725Y-48147618D01*
X37482734Y-48120568D01*
X37669139Y-47990047D01*
X37830047Y-47829139D01*
X37890096Y-47743377D01*
X37944675Y-47699752D01*
X37991673Y-47690500D01*
X39028481Y-47690500D01*
X39095520Y-47710185D01*
X39116161Y-47726819D01*
X46478399Y-55089056D01*
X46480935Y-55091750D01*
X46522071Y-55138183D01*
X46553431Y-55159829D01*
X46573110Y-55173413D01*
X46576127Y-55175633D01*
X46624938Y-55213874D01*
X46624943Y-55213877D01*
X46634174Y-55218031D01*
X46653727Y-55229059D01*
X46662070Y-55234818D01*
X46720044Y-55256804D01*
X46720057Y-55256809D01*
X46723508Y-55258238D01*
X46733498Y-55262734D01*
X46780063Y-55283692D01*
X46780064Y-55283692D01*
X46780068Y-55283694D01*
X46790030Y-55285519D01*
X46811651Y-55291546D01*
X46811667Y-55291552D01*
X46821128Y-55295140D01*
X46837871Y-55297173D01*
X46882689Y-55302615D01*
X46886386Y-55303177D01*
X46947394Y-55314357D01*
X46947395Y-55314356D01*
X46947396Y-55314357D01*
X47009293Y-55310613D01*
X47013037Y-55310500D01*
X58396952Y-55310500D01*
X58400697Y-55310613D01*
X58408042Y-55311057D01*
X58462606Y-55314358D01*
X58500314Y-55307447D01*
X58523621Y-55303177D01*
X58527325Y-55302613D01*
X58545170Y-55300446D01*
X58588872Y-55295140D01*
X58598335Y-55291550D01*
X58619961Y-55285522D01*
X58620893Y-55285351D01*
X58629932Y-55283695D01*
X58686512Y-55258229D01*
X58689942Y-55256809D01*
X58747930Y-55234818D01*
X58756266Y-55229062D01*
X58775821Y-55218034D01*
X58785057Y-55213878D01*
X58833896Y-55175613D01*
X58836876Y-55173421D01*
X58887929Y-55138183D01*
X58929065Y-55091748D01*
X58931599Y-55089056D01*
X61083055Y-52937600D01*
X61144376Y-52904117D01*
X61214068Y-52909101D01*
X61258415Y-52937602D01*
X61390858Y-53070045D01*
X61390861Y-53070047D01*
X61577266Y-53200568D01*
X61783504Y-53296739D01*
X62003308Y-53355635D01*
X62165230Y-53369801D01*
X62229998Y-53375468D01*
X62230000Y-53375468D01*
X62230002Y-53375468D01*
X62286672Y-53370509D01*
X62456692Y-53355635D01*
X62676496Y-53296739D01*
X62882734Y-53200568D01*
X63069139Y-53070047D01*
X63230047Y-52909139D01*
X63360568Y-52722734D01*
X63456739Y-52516496D01*
X63515635Y-52296692D01*
X63535468Y-52070000D01*
X63515635Y-51843308D01*
X63456739Y-51623504D01*
X63360568Y-51417266D01*
X63230047Y-51230861D01*
X63230045Y-51230858D01*
X63069141Y-51069954D01*
X62882734Y-50939432D01*
X62882728Y-50939429D01*
X62824725Y-50912382D01*
X62772285Y-50866210D01*
X62753133Y-50799017D01*
X62773348Y-50732135D01*
X62824725Y-50687618D01*
X62882734Y-50660568D01*
X63069139Y-50530047D01*
X63230047Y-50369139D01*
X63360568Y-50182734D01*
X63456739Y-49976496D01*
X63515635Y-49756692D01*
X63535468Y-49530000D01*
X63515635Y-49303308D01*
X63456739Y-49083504D01*
X63360568Y-48877266D01*
X63230047Y-48690861D01*
X63230045Y-48690858D01*
X63069141Y-48529954D01*
X62882734Y-48399432D01*
X62882728Y-48399429D01*
X62824725Y-48372382D01*
X62772285Y-48326210D01*
X62753133Y-48259017D01*
X62773348Y-48192135D01*
X62824725Y-48147618D01*
X62882734Y-48120568D01*
X63069139Y-47990047D01*
X63230047Y-47829139D01*
X63360568Y-47642734D01*
X63456739Y-47436496D01*
X63515635Y-47216692D01*
X63535468Y-46990000D01*
X63515635Y-46763308D01*
X63456739Y-46543504D01*
X63360568Y-46337266D01*
X63230047Y-46150861D01*
X63230045Y-46150858D01*
X63069141Y-45989954D01*
X62882734Y-45859432D01*
X62882728Y-45859429D01*
X62824725Y-45832382D01*
X62772285Y-45786210D01*
X62753133Y-45719017D01*
X62773348Y-45652135D01*
X62824725Y-45607618D01*
X62882734Y-45580568D01*
X63069139Y-45450047D01*
X63230047Y-45289139D01*
X63360568Y-45102734D01*
X63456739Y-44896496D01*
X63515635Y-44676692D01*
X63535468Y-44450000D01*
X63515635Y-44223308D01*
X63456739Y-44003504D01*
X63360568Y-43797266D01*
X63230047Y-43610861D01*
X63230045Y-43610858D01*
X63069141Y-43449954D01*
X62882734Y-43319432D01*
X62882728Y-43319429D01*
X62824725Y-43292382D01*
X62772285Y-43246210D01*
X62753133Y-43179017D01*
X62773348Y-43112135D01*
X62824725Y-43067618D01*
X62882734Y-43040568D01*
X63069139Y-42910047D01*
X63230047Y-42749139D01*
X63360568Y-42562734D01*
X63456739Y-42356496D01*
X63515635Y-42136692D01*
X63535468Y-41910000D01*
X63515635Y-41683308D01*
X63456739Y-41463504D01*
X63360568Y-41257266D01*
X63230047Y-41070861D01*
X63230045Y-41070858D01*
X63069141Y-40909954D01*
X62882734Y-40779432D01*
X62882728Y-40779429D01*
X62824725Y-40752382D01*
X62772285Y-40706210D01*
X62753133Y-40639017D01*
X62773348Y-40572135D01*
X62824725Y-40527618D01*
X62882734Y-40500568D01*
X63069139Y-40370047D01*
X63230047Y-40209139D01*
X63360568Y-40022734D01*
X63456739Y-39816496D01*
X63515635Y-39596692D01*
X63535468Y-39370000D01*
X63515635Y-39143308D01*
X63456739Y-38923504D01*
X63360568Y-38717266D01*
X63230047Y-38530861D01*
X63230045Y-38530858D01*
X63069141Y-38369954D01*
X62882734Y-38239432D01*
X62882728Y-38239429D01*
X62824725Y-38212382D01*
X62772285Y-38166210D01*
X62753133Y-38099017D01*
X62773348Y-38032135D01*
X62824725Y-37987618D01*
X62882734Y-37960568D01*
X63069139Y-37830047D01*
X63230047Y-37669139D01*
X63360568Y-37482734D01*
X63456739Y-37276496D01*
X63515635Y-37056692D01*
X63535468Y-36830000D01*
X63532925Y-36800939D01*
X63526079Y-36722685D01*
X63515635Y-36603308D01*
X63468846Y-36428688D01*
X63456741Y-36383511D01*
X63456738Y-36383502D01*
X63455949Y-36381809D01*
X63360568Y-36177266D01*
X63234126Y-35996686D01*
X63230045Y-35990858D01*
X63076368Y-35837181D01*
X63042883Y-35775858D01*
X63047867Y-35706166D01*
X63089739Y-35650233D01*
X63155203Y-35625816D01*
X63164049Y-35625500D01*
X63793481Y-35625500D01*
X63860520Y-35645185D01*
X63881162Y-35661819D01*
X64668181Y-36448838D01*
X64701666Y-36510161D01*
X64704500Y-36536519D01*
X64704500Y-48871951D01*
X64704387Y-48875696D01*
X64700642Y-48937603D01*
X64700642Y-48937605D01*
X64711821Y-48998612D01*
X64712384Y-49002313D01*
X64719859Y-49063870D01*
X64719860Y-49063874D01*
X64723451Y-49073343D01*
X64729474Y-49094946D01*
X64731304Y-49104930D01*
X64756759Y-49161490D01*
X64758189Y-49164941D01*
X64780182Y-49222930D01*
X64782653Y-49226510D01*
X64785936Y-49231266D01*
X64796961Y-49250813D01*
X64801120Y-49260055D01*
X64801122Y-49260057D01*
X64827646Y-49293913D01*
X64839371Y-49308878D01*
X64841591Y-49311896D01*
X64876812Y-49362924D01*
X64876816Y-49362928D01*
X64876817Y-49362929D01*
X64923250Y-49404064D01*
X64925941Y-49406598D01*
X68068399Y-52549056D01*
X68070935Y-52551750D01*
X68107610Y-52593148D01*
X68112070Y-52598182D01*
X68163106Y-52633410D01*
X68166122Y-52635630D01*
X68192490Y-52656287D01*
X68214943Y-52673878D01*
X68221845Y-52676984D01*
X68224182Y-52678036D01*
X68243733Y-52689063D01*
X68252070Y-52694818D01*
X68310058Y-52716809D01*
X68313496Y-52718234D01*
X68370068Y-52743695D01*
X68380042Y-52745522D01*
X68401656Y-52751548D01*
X68411127Y-52755140D01*
X68472673Y-52762613D01*
X68476370Y-52763175D01*
X68537394Y-52774358D01*
X68592377Y-52771031D01*
X68599303Y-52770613D01*
X68603048Y-52770500D01*
X97448481Y-52770500D01*
X97515520Y-52790185D01*
X97536162Y-52806819D01*
X98577181Y-53847837D01*
X98610666Y-53909160D01*
X98613500Y-53935518D01*
X98613500Y-64365951D01*
X98613387Y-64369696D01*
X98609642Y-64431603D01*
X98609642Y-64431605D01*
X98620821Y-64492612D01*
X98621384Y-64496313D01*
X98628859Y-64557870D01*
X98628860Y-64557874D01*
X98632451Y-64567343D01*
X98638474Y-64588946D01*
X98640304Y-64598930D01*
X98665759Y-64655490D01*
X98667189Y-64658941D01*
X98689182Y-64716930D01*
X98689183Y-64716931D01*
X98694936Y-64725266D01*
X98705961Y-64744813D01*
X98710120Y-64754055D01*
X98710124Y-64754060D01*
X98711573Y-64755909D01*
X98734218Y-64784814D01*
X98748371Y-64802878D01*
X98750588Y-64805892D01*
X98750805Y-64806206D01*
X98785812Y-64856924D01*
X98785816Y-64856928D01*
X98785817Y-64856929D01*
X98832250Y-64898064D01*
X98834941Y-64900598D01*
X100453392Y-66519048D01*
X100455928Y-66521742D01*
X100497071Y-66568183D01*
X100544631Y-66601011D01*
X100548115Y-66603416D01*
X100551120Y-66605626D01*
X100599944Y-66643878D01*
X100599946Y-66643879D01*
X100599949Y-66643881D01*
X100609177Y-66648034D01*
X100628731Y-66659062D01*
X100637066Y-66664816D01*
X100637068Y-66664816D01*
X100637070Y-66664818D01*
X100695079Y-66686817D01*
X100698476Y-66688224D01*
X100739185Y-66706546D01*
X100755064Y-66713693D01*
X100755065Y-66713693D01*
X100755069Y-66713695D01*
X100765034Y-66715521D01*
X100786656Y-66721548D01*
X100789777Y-66722731D01*
X100796128Y-66725140D01*
X100841251Y-66730618D01*
X100857674Y-66732613D01*
X100861371Y-66733175D01*
X100922394Y-66744358D01*
X100977752Y-66741009D01*
X100984303Y-66740613D01*
X100988048Y-66740500D01*
X102917289Y-66740500D01*
X102984328Y-66760185D01*
X103018864Y-66793377D01*
X103101505Y-66911402D01*
X103268597Y-67078493D01*
X103268603Y-67078498D01*
X103454158Y-67208425D01*
X103497783Y-67263002D01*
X103504977Y-67332500D01*
X103473454Y-67394855D01*
X103454158Y-67411575D01*
X103268597Y-67541505D01*
X103101505Y-67708597D01*
X102965965Y-67902169D01*
X102965964Y-67902171D01*
X102866098Y-68116335D01*
X102866094Y-68116344D01*
X102804938Y-68344586D01*
X102804936Y-68344596D01*
X102784341Y-68579999D01*
X102784341Y-68580000D01*
X102804936Y-68815403D01*
X102804938Y-68815413D01*
X102866094Y-69043655D01*
X102866096Y-69043659D01*
X102866097Y-69043663D01*
X102937724Y-69197267D01*
X102965965Y-69257830D01*
X102965967Y-69257834D01*
X103067966Y-69403502D01*
X103101501Y-69451396D01*
X103101506Y-69451402D01*
X103268597Y-69618493D01*
X103268603Y-69618498D01*
X103454158Y-69748425D01*
X103497783Y-69803002D01*
X103504977Y-69872500D01*
X103473454Y-69934855D01*
X103454158Y-69951575D01*
X103268597Y-70081505D01*
X103101505Y-70248597D01*
X102965965Y-70442169D01*
X102965964Y-70442171D01*
X102866098Y-70656335D01*
X102866094Y-70656344D01*
X102804938Y-70884586D01*
X102804936Y-70884596D01*
X102784341Y-71119999D01*
X102784341Y-71120000D01*
X102804936Y-71355403D01*
X102804938Y-71355413D01*
X102866094Y-71583655D01*
X102866096Y-71583659D01*
X102866097Y-71583663D01*
X102937724Y-71737267D01*
X102965965Y-71797830D01*
X102965967Y-71797834D01*
X103066536Y-71941460D01*
X103101505Y-71991401D01*
X103268599Y-72158495D01*
X103454158Y-72288425D01*
X103454594Y-72288730D01*
X103498218Y-72343307D01*
X103505411Y-72412806D01*
X103473889Y-72475160D01*
X103454593Y-72491880D01*
X103378626Y-72545072D01*
X103378625Y-72545073D01*
X104007465Y-73173913D01*
X103997685Y-73175320D01*
X103866900Y-73235048D01*
X103758239Y-73329202D01*
X103680507Y-73450156D01*
X103656923Y-73530475D01*
X103025073Y-72898625D01*
X103025072Y-72898626D01*
X102966401Y-72982419D01*
X102866570Y-73196507D01*
X102866566Y-73196516D01*
X102805432Y-73424673D01*
X102805430Y-73424684D01*
X102784843Y-73659998D01*
X102784843Y-73660001D01*
X102805430Y-73895315D01*
X102805432Y-73895326D01*
X102866566Y-74123483D01*
X102866570Y-74123492D01*
X102966400Y-74337579D01*
X102966402Y-74337583D01*
X103025072Y-74421373D01*
X103025073Y-74421373D01*
X103656922Y-73789523D01*
X103680507Y-73869844D01*
X103758239Y-73990798D01*
X103866900Y-74084952D01*
X103997685Y-74144680D01*
X104007466Y-74146086D01*
X103378625Y-74774925D01*
X103462421Y-74833599D01*
X103676507Y-74933429D01*
X103676516Y-74933433D01*
X103904673Y-74994567D01*
X103904684Y-74994569D01*
X104139998Y-75015157D01*
X104140002Y-75015157D01*
X104375315Y-74994569D01*
X104375326Y-74994567D01*
X104603483Y-74933433D01*
X104603492Y-74933429D01*
X104817578Y-74833600D01*
X104817582Y-74833598D01*
X104901373Y-74774926D01*
X104901373Y-74774925D01*
X104272533Y-74146086D01*
X104282315Y-74144680D01*
X104413100Y-74084952D01*
X104521761Y-73990798D01*
X104599493Y-73869844D01*
X104623076Y-73789524D01*
X105254925Y-74421373D01*
X105308119Y-74345405D01*
X105362696Y-74301781D01*
X105432195Y-74294588D01*
X105494549Y-74326110D01*
X105511269Y-74345405D01*
X105641505Y-74531401D01*
X105808599Y-74698495D01*
X105905384Y-74766265D01*
X106002165Y-74834032D01*
X106002167Y-74834033D01*
X106002170Y-74834035D01*
X106216337Y-74933903D01*
X106444592Y-74995063D01*
X106632918Y-75011539D01*
X106679999Y-75015659D01*
X106680000Y-75015659D01*
X106680001Y-75015659D01*
X106719234Y-75012226D01*
X106915408Y-74995063D01*
X107143663Y-74933903D01*
X107357830Y-74834035D01*
X107551401Y-74698495D01*
X107718495Y-74531401D01*
X107854035Y-74337830D01*
X107953903Y-74123663D01*
X108015063Y-73895408D01*
X108035659Y-73660000D01*
X108033366Y-73633797D01*
X108023422Y-73520134D01*
X108015063Y-73424592D01*
X107953903Y-73196337D01*
X107854035Y-72982171D01*
X107848731Y-72974595D01*
X107718494Y-72788597D01*
X107551402Y-72621506D01*
X107551396Y-72621501D01*
X107365842Y-72491575D01*
X107322217Y-72436998D01*
X107315023Y-72367500D01*
X107346546Y-72305145D01*
X107365842Y-72288425D01*
X107517748Y-72182059D01*
X107551401Y-72158495D01*
X107718495Y-71991401D01*
X107854035Y-71797830D01*
X107953903Y-71583663D01*
X108015063Y-71355408D01*
X108035659Y-71120000D01*
X108033366Y-71093797D01*
X108031539Y-71072918D01*
X108015063Y-70884592D01*
X107953903Y-70656337D01*
X107854035Y-70442171D01*
X107848425Y-70434158D01*
X107718494Y-70248597D01*
X107551402Y-70081506D01*
X107551396Y-70081501D01*
X107365842Y-69951575D01*
X107322217Y-69896998D01*
X107315023Y-69827500D01*
X107346546Y-69765145D01*
X107365842Y-69748425D01*
X107399508Y-69724852D01*
X107551401Y-69618495D01*
X107718495Y-69451401D01*
X107854035Y-69257830D01*
X107953903Y-69043663D01*
X108015063Y-68815408D01*
X108035659Y-68580000D01*
X108015063Y-68344592D01*
X107953903Y-68116337D01*
X107854035Y-67902171D01*
X107848425Y-67894158D01*
X107718494Y-67708597D01*
X107551402Y-67541506D01*
X107551396Y-67541501D01*
X107365842Y-67411575D01*
X107322217Y-67356998D01*
X107315023Y-67287500D01*
X107346546Y-67225145D01*
X107365842Y-67208425D01*
X107388026Y-67192891D01*
X107551401Y-67078495D01*
X107718495Y-66911401D01*
X107854035Y-66717830D01*
X107953903Y-66503663D01*
X108015063Y-66275408D01*
X108035659Y-66040000D01*
X108015063Y-65804592D01*
X107953903Y-65576337D01*
X107854035Y-65362171D01*
X107848425Y-65354158D01*
X107718494Y-65168597D01*
X107551402Y-65001506D01*
X107551396Y-65001501D01*
X107365842Y-64871575D01*
X107322217Y-64816998D01*
X107315023Y-64747500D01*
X107346546Y-64685145D01*
X107365842Y-64668425D01*
X107465091Y-64598930D01*
X107551401Y-64538495D01*
X107718495Y-64371401D01*
X107854035Y-64177830D01*
X107953903Y-63963663D01*
X108015063Y-63735408D01*
X108035659Y-63500000D01*
X108015063Y-63264592D01*
X107953903Y-63036337D01*
X107854035Y-62822171D01*
X107752034Y-62676497D01*
X107718494Y-62628597D01*
X107551402Y-62461506D01*
X107551395Y-62461501D01*
X107357834Y-62325967D01*
X107357830Y-62325965D01*
X107357830Y-62325964D01*
X107143663Y-62226097D01*
X107143659Y-62226096D01*
X107143655Y-62226094D01*
X106915413Y-62164938D01*
X106915403Y-62164936D01*
X106680001Y-62144341D01*
X106679999Y-62144341D01*
X106444596Y-62164936D01*
X106444586Y-62164938D01*
X106216344Y-62226094D01*
X106216335Y-62226098D01*
X106002171Y-62325964D01*
X106002169Y-62325965D01*
X105808597Y-62461505D01*
X105641503Y-62628599D01*
X105640349Y-62629975D01*
X105639688Y-62630414D01*
X105637676Y-62632427D01*
X105637271Y-62632022D01*
X105582173Y-62668671D01*
X105512312Y-62669772D01*
X105452946Y-62632928D01*
X105427663Y-62589265D01*
X105424814Y-62580666D01*
X105332712Y-62431344D01*
X105208656Y-62307288D01*
X105083353Y-62230001D01*
X105059336Y-62215187D01*
X105059331Y-62215185D01*
X105027982Y-62204797D01*
X104892797Y-62160001D01*
X104892795Y-62160000D01*
X104790010Y-62149500D01*
X103489998Y-62149500D01*
X103489981Y-62149501D01*
X103387203Y-62160000D01*
X103387200Y-62160001D01*
X103220668Y-62215185D01*
X103220663Y-62215187D01*
X103071342Y-62307289D01*
X102947289Y-62431342D01*
X102855187Y-62580663D01*
X102855185Y-62580668D01*
X102838701Y-62630414D01*
X102800001Y-62747203D01*
X102800001Y-62747204D01*
X102800000Y-62747204D01*
X102789500Y-62849983D01*
X102789500Y-64150001D01*
X102789501Y-64150018D01*
X102800000Y-64252796D01*
X102800001Y-64252799D01*
X102855185Y-64419331D01*
X102855187Y-64419336D01*
X102862755Y-64431605D01*
X102947288Y-64568656D01*
X103071344Y-64692712D01*
X103220666Y-64784814D01*
X103229264Y-64787663D01*
X103286707Y-64827433D01*
X103313531Y-64891948D01*
X103301217Y-64960724D01*
X103272234Y-64997483D01*
X103272427Y-64997676D01*
X103270798Y-64999304D01*
X103269975Y-65000349D01*
X103268599Y-65001503D01*
X103101506Y-65168596D01*
X103018864Y-65286623D01*
X102964287Y-65330248D01*
X102917289Y-65339500D01*
X101306518Y-65339500D01*
X101239479Y-65319815D01*
X101218837Y-65303181D01*
X100638658Y-64723002D01*
X100050816Y-64135159D01*
X100017333Y-64073839D01*
X100014499Y-64047490D01*
X100014499Y-53617037D01*
X100014612Y-53613292D01*
X100014968Y-53607398D01*
X100018357Y-53551394D01*
X100007177Y-53490386D01*
X100006615Y-53486689D01*
X99999140Y-53425129D01*
X99999139Y-53425125D01*
X99995546Y-53415651D01*
X99989519Y-53394029D01*
X99987694Y-53384070D01*
X99987694Y-53384068D01*
X99983823Y-53375468D01*
X99962243Y-53327520D01*
X99960809Y-53324057D01*
X99938818Y-53266070D01*
X99933060Y-53257728D01*
X99922032Y-53238176D01*
X99917877Y-53228943D01*
X99917876Y-53228942D01*
X99917875Y-53228939D01*
X99879639Y-53180137D01*
X99877428Y-53177133D01*
X99859490Y-53151145D01*
X99842185Y-53126073D01*
X99842183Y-53126071D01*
X99795742Y-53084928D01*
X99793048Y-53082392D01*
X98301598Y-51590941D01*
X98299064Y-51588250D01*
X98257929Y-51541817D01*
X98257928Y-51541816D01*
X98257924Y-51541812D01*
X98206896Y-51506591D01*
X98203887Y-51504377D01*
X98155060Y-51466124D01*
X98155055Y-51466120D01*
X98145813Y-51461961D01*
X98126266Y-51450936D01*
X98117931Y-51445183D01*
X98117932Y-51445183D01*
X98117930Y-51445182D01*
X98059941Y-51423189D01*
X98056490Y-51421759D01*
X97999930Y-51396304D01*
X97989946Y-51394474D01*
X97968343Y-51388451D01*
X97958874Y-51384860D01*
X97958870Y-51384859D01*
X97897313Y-51377384D01*
X97893612Y-51376821D01*
X97832608Y-51365642D01*
X97832603Y-51365642D01*
X97770697Y-51369387D01*
X97766952Y-51369500D01*
X68921519Y-51369500D01*
X68854480Y-51349815D01*
X68833838Y-51333181D01*
X66141819Y-48641162D01*
X66108334Y-48579839D01*
X66105500Y-48553481D01*
X66105500Y-36218035D01*
X66105613Y-36214290D01*
X66109357Y-36152394D01*
X66098177Y-36091386D01*
X66097615Y-36087689D01*
X66090140Y-36026129D01*
X66090139Y-36026125D01*
X66086546Y-36016651D01*
X66080519Y-35995029D01*
X66078694Y-35985070D01*
X66078694Y-35985068D01*
X66053241Y-35928514D01*
X66051807Y-35925052D01*
X66029818Y-35867071D01*
X66029818Y-35867070D01*
X66024058Y-35858726D01*
X66013035Y-35839180D01*
X66008878Y-35829943D01*
X65970617Y-35781107D01*
X65968417Y-35778117D01*
X65951786Y-35754021D01*
X65933185Y-35727073D01*
X65933183Y-35727071D01*
X65886750Y-35685935D01*
X65884056Y-35683399D01*
X64646598Y-34445941D01*
X64644064Y-34443250D01*
X64602929Y-34396817D01*
X64602928Y-34396816D01*
X64602924Y-34396812D01*
X64551896Y-34361591D01*
X64548887Y-34359377D01*
X64500060Y-34321124D01*
X64500055Y-34321120D01*
X64490813Y-34316961D01*
X64471266Y-34305936D01*
X64469657Y-34304826D01*
X64462930Y-34300182D01*
X64404938Y-34278188D01*
X64401490Y-34276759D01*
X64344930Y-34251304D01*
X64334946Y-34249474D01*
X64313343Y-34243451D01*
X64303874Y-34239860D01*
X64303870Y-34239859D01*
X64242313Y-34232384D01*
X64238612Y-34231821D01*
X64177608Y-34220642D01*
X64177603Y-34220642D01*
X64115697Y-34224387D01*
X64111952Y-34224500D01*
X60348048Y-34224500D01*
X60344303Y-34224387D01*
X60282396Y-34220642D01*
X60282389Y-34220642D01*
X60221386Y-34231821D01*
X60217685Y-34232384D01*
X60156128Y-34239859D01*
X60156121Y-34239861D01*
X60146647Y-34243454D01*
X60125049Y-34249475D01*
X60115069Y-34251304D01*
X60058519Y-34276755D01*
X60055060Y-34278188D01*
X59997071Y-34300181D01*
X59997066Y-34300184D01*
X59988722Y-34305943D01*
X59969187Y-34316961D01*
X59959947Y-34321120D01*
X59959945Y-34321121D01*
X59911136Y-34359359D01*
X59908122Y-34361576D01*
X59857070Y-34396817D01*
X59857068Y-34396818D01*
X59815942Y-34443240D01*
X59813375Y-34445966D01*
X57940966Y-36318375D01*
X57938240Y-36320942D01*
X57891818Y-36362068D01*
X57856586Y-36413109D01*
X57854368Y-36416124D01*
X57816124Y-36464939D01*
X57816119Y-36464948D01*
X57811960Y-36474188D01*
X57800942Y-36493723D01*
X57795187Y-36502061D01*
X57795183Y-36502067D01*
X57795182Y-36502070D01*
X57795180Y-36502074D01*
X57795179Y-36502077D01*
X57773189Y-36560055D01*
X57771757Y-36563513D01*
X57746305Y-36620068D01*
X57744477Y-36630042D01*
X57738453Y-36651653D01*
X57734860Y-36661127D01*
X57734859Y-36661128D01*
X57727384Y-36722685D01*
X57726821Y-36726386D01*
X57715642Y-36787390D01*
X57715642Y-36787395D01*
X57719386Y-36849303D01*
X57719499Y-36853047D01*
X57719500Y-40425481D01*
X57699815Y-40492520D01*
X57683181Y-40513162D01*
X57023162Y-41173181D01*
X56961839Y-41206666D01*
X56935481Y-41209500D01*
X55771673Y-41209500D01*
X55704634Y-41189815D01*
X55670098Y-41156623D01*
X55610045Y-41070858D01*
X55449141Y-40909954D01*
X55262734Y-40779432D01*
X55262728Y-40779429D01*
X55204725Y-40752382D01*
X55152285Y-40706210D01*
X55133133Y-40639017D01*
X55153348Y-40572135D01*
X55204725Y-40527618D01*
X55262734Y-40500568D01*
X55449139Y-40370047D01*
X55610047Y-40209139D01*
X55740568Y-40022734D01*
X55836739Y-39816496D01*
X55895635Y-39596692D01*
X55915468Y-39370000D01*
X55895635Y-39143308D01*
X55836739Y-38923504D01*
X55740568Y-38717266D01*
X55610047Y-38530861D01*
X55610045Y-38530858D01*
X55449143Y-38369956D01*
X55424536Y-38352726D01*
X55380912Y-38298149D01*
X55373719Y-38228650D01*
X55405241Y-38166296D01*
X55465471Y-38130882D01*
X55482404Y-38127861D01*
X55517483Y-38124091D01*
X55652331Y-38073796D01*
X55767546Y-37987546D01*
X55853796Y-37872331D01*
X55904091Y-37737483D01*
X55910500Y-37677873D01*
X55910499Y-35982128D01*
X55904091Y-35922517D01*
X55896259Y-35901519D01*
X55853797Y-35787671D01*
X55853793Y-35787664D01*
X55767547Y-35672455D01*
X55767544Y-35672452D01*
X55652335Y-35586206D01*
X55652328Y-35586202D01*
X55517482Y-35535908D01*
X55517483Y-35535908D01*
X55457883Y-35529501D01*
X55457881Y-35529500D01*
X55457873Y-35529500D01*
X55457864Y-35529500D01*
X53762129Y-35529500D01*
X53762123Y-35529501D01*
X53702516Y-35535908D01*
X53567671Y-35586202D01*
X53567664Y-35586206D01*
X53452455Y-35672452D01*
X53452452Y-35672455D01*
X53366206Y-35787664D01*
X53366202Y-35787671D01*
X53315908Y-35922517D01*
X53309501Y-35982116D01*
X53309501Y-35982123D01*
X53309500Y-35982135D01*
X53309500Y-37677870D01*
X53309501Y-37677876D01*
X53315908Y-37737483D01*
X53366202Y-37872328D01*
X53366206Y-37872335D01*
X53452452Y-37987544D01*
X53452455Y-37987547D01*
X53567664Y-38073793D01*
X53567671Y-38073797D01*
X53612618Y-38090561D01*
X53702517Y-38124091D01*
X53737596Y-38127862D01*
X53802144Y-38154599D01*
X53841993Y-38211991D01*
X53844488Y-38281816D01*
X53808836Y-38341905D01*
X53795464Y-38352725D01*
X53770858Y-38369954D01*
X53609954Y-38530858D01*
X53479432Y-38717265D01*
X53479431Y-38717267D01*
X53383261Y-38923502D01*
X53383258Y-38923511D01*
X53324366Y-39143302D01*
X53324364Y-39143313D01*
X53304532Y-39369998D01*
X53304532Y-39370001D01*
X53324364Y-39596686D01*
X53324366Y-39596697D01*
X53383258Y-39816488D01*
X53383261Y-39816497D01*
X53479431Y-40022732D01*
X53479432Y-40022734D01*
X53609954Y-40209141D01*
X53770858Y-40370045D01*
X53770861Y-40370047D01*
X53957266Y-40500568D01*
X53984274Y-40513162D01*
X54015275Y-40527618D01*
X54067714Y-40573791D01*
X54086866Y-40640984D01*
X54066650Y-40707865D01*
X54015275Y-40752382D01*
X53957267Y-40779431D01*
X53957265Y-40779432D01*
X53770858Y-40909954D01*
X53609954Y-41070858D01*
X53479432Y-41257265D01*
X53479431Y-41257267D01*
X53383261Y-41463502D01*
X53383258Y-41463511D01*
X53324366Y-41683302D01*
X53324364Y-41683313D01*
X53304532Y-41909998D01*
X53304532Y-41910001D01*
X53324364Y-42136686D01*
X53324366Y-42136697D01*
X53383258Y-42356488D01*
X53383261Y-42356497D01*
X53479431Y-42562732D01*
X53479432Y-42562734D01*
X53609954Y-42749141D01*
X53770858Y-42910045D01*
X53770861Y-42910047D01*
X53957266Y-43040568D01*
X54015278Y-43067619D01*
X54067713Y-43113788D01*
X54086866Y-43180982D01*
X54066651Y-43247863D01*
X54015277Y-43292380D01*
X53957268Y-43319430D01*
X53957265Y-43319432D01*
X53770858Y-43449954D01*
X53609954Y-43610858D01*
X53479432Y-43797265D01*
X53479431Y-43797267D01*
X53383261Y-44003502D01*
X53383258Y-44003511D01*
X53324366Y-44223302D01*
X53324364Y-44223313D01*
X53304532Y-44449998D01*
X53304532Y-44450001D01*
X53324364Y-44676686D01*
X53324366Y-44676697D01*
X53383258Y-44896488D01*
X53383261Y-44896497D01*
X53479431Y-45102732D01*
X53479432Y-45102734D01*
X53609954Y-45289141D01*
X53770858Y-45450045D01*
X53770861Y-45450047D01*
X53957266Y-45580568D01*
X54015275Y-45607618D01*
X54067714Y-45653791D01*
X54086866Y-45720984D01*
X54066650Y-45787865D01*
X54015275Y-45832382D01*
X53957267Y-45859431D01*
X53957265Y-45859432D01*
X53770858Y-45989954D01*
X53609954Y-46150858D01*
X53479432Y-46337265D01*
X53479431Y-46337267D01*
X53383261Y-46543502D01*
X53383258Y-46543511D01*
X53324366Y-46763302D01*
X53324364Y-46763313D01*
X53304532Y-46989998D01*
X53304532Y-46990001D01*
X53324364Y-47216686D01*
X53324366Y-47216697D01*
X53383258Y-47436488D01*
X53383261Y-47436497D01*
X53479431Y-47642732D01*
X53479432Y-47642734D01*
X53609954Y-47829141D01*
X53770858Y-47990045D01*
X53770861Y-47990047D01*
X53957266Y-48120568D01*
X54015275Y-48147618D01*
X54067714Y-48193791D01*
X54086866Y-48260984D01*
X54066650Y-48327865D01*
X54015275Y-48372382D01*
X53957267Y-48399431D01*
X53957265Y-48399432D01*
X53770858Y-48529954D01*
X53609954Y-48690858D01*
X53479432Y-48877265D01*
X53479431Y-48877267D01*
X53383261Y-49083502D01*
X53383258Y-49083511D01*
X53324366Y-49303302D01*
X53324364Y-49303313D01*
X53304532Y-49529998D01*
X53304532Y-49530001D01*
X53324364Y-49756686D01*
X53324366Y-49756697D01*
X53383258Y-49976488D01*
X53383261Y-49976497D01*
X53479431Y-50182732D01*
X53479432Y-50182734D01*
X53609954Y-50369141D01*
X53770858Y-50530045D01*
X53770861Y-50530047D01*
X53957266Y-50660568D01*
X54015865Y-50687893D01*
X54068305Y-50734065D01*
X54087457Y-50801258D01*
X54067242Y-50868139D01*
X54015867Y-50912657D01*
X53957515Y-50939867D01*
X53771179Y-51070342D01*
X53610342Y-51231179D01*
X53479865Y-51417517D01*
X53383734Y-51623673D01*
X53383730Y-51623682D01*
X53331127Y-51819999D01*
X53331128Y-51820000D01*
X54294314Y-51820000D01*
X54282359Y-51831955D01*
X54224835Y-51944852D01*
X54205014Y-52070000D01*
X54224835Y-52195148D01*
X54282359Y-52308045D01*
X54294314Y-52320000D01*
X53331128Y-52320000D01*
X53383730Y-52516317D01*
X53383734Y-52516326D01*
X53479865Y-52722482D01*
X53610342Y-52908820D01*
X53771179Y-53069657D01*
X53957517Y-53200134D01*
X54163673Y-53296265D01*
X54163682Y-53296269D01*
X54359999Y-53348872D01*
X54359999Y-53348871D01*
X54359999Y-52385685D01*
X54371955Y-52397641D01*
X54484852Y-52455165D01*
X54578519Y-52470000D01*
X54641481Y-52470000D01*
X54735148Y-52455165D01*
X54848045Y-52397641D01*
X54860000Y-52385686D01*
X54860000Y-53348872D01*
X55056317Y-53296269D01*
X55056326Y-53296265D01*
X55262482Y-53200134D01*
X55448820Y-53069657D01*
X55609657Y-52908820D01*
X55740134Y-52722482D01*
X55836265Y-52516326D01*
X55836269Y-52516317D01*
X55888872Y-52320000D01*
X54925686Y-52320000D01*
X54937641Y-52308045D01*
X54995165Y-52195148D01*
X55014986Y-52070000D01*
X54995165Y-51944852D01*
X54937641Y-51831955D01*
X54925686Y-51820000D01*
X55888872Y-51820000D01*
X55888872Y-51819999D01*
X55836269Y-51623682D01*
X55836265Y-51623673D01*
X55740134Y-51417517D01*
X55609657Y-51231179D01*
X55448820Y-51070342D01*
X55262482Y-50939865D01*
X55204133Y-50912657D01*
X55151694Y-50866484D01*
X55132542Y-50799291D01*
X55152758Y-50732410D01*
X55204129Y-50687895D01*
X55262734Y-50660568D01*
X55449139Y-50530047D01*
X55610047Y-50369139D01*
X55740568Y-50182734D01*
X55836739Y-49976496D01*
X55895635Y-49756692D01*
X55915468Y-49530000D01*
X55895635Y-49303308D01*
X55836739Y-49083504D01*
X55740568Y-48877266D01*
X55610047Y-48690861D01*
X55610045Y-48690858D01*
X55449141Y-48529954D01*
X55262734Y-48399432D01*
X55262728Y-48399429D01*
X55204725Y-48372382D01*
X55152285Y-48326210D01*
X55133133Y-48259017D01*
X55153348Y-48192135D01*
X55204725Y-48147618D01*
X55262734Y-48120568D01*
X55449139Y-47990047D01*
X55610047Y-47829139D01*
X55740568Y-47642734D01*
X55836739Y-47436496D01*
X55895635Y-47216692D01*
X55915468Y-46990000D01*
X55895635Y-46763308D01*
X55836739Y-46543504D01*
X55740568Y-46337266D01*
X55610047Y-46150861D01*
X55610045Y-46150858D01*
X55449141Y-45989954D01*
X55262734Y-45859432D01*
X55262728Y-45859429D01*
X55204725Y-45832382D01*
X55152285Y-45786210D01*
X55133133Y-45719017D01*
X55153348Y-45652135D01*
X55204725Y-45607618D01*
X55262734Y-45580568D01*
X55449139Y-45450047D01*
X55610047Y-45289139D01*
X55740568Y-45102734D01*
X55836739Y-44896496D01*
X55895635Y-44676692D01*
X55915468Y-44450000D01*
X55895635Y-44223308D01*
X55836739Y-44003504D01*
X55740568Y-43797266D01*
X55610047Y-43610861D01*
X55610045Y-43610858D01*
X55449141Y-43449954D01*
X55262734Y-43319432D01*
X55262728Y-43319429D01*
X55204725Y-43292382D01*
X55152285Y-43246210D01*
X55133133Y-43179017D01*
X55153348Y-43112135D01*
X55204725Y-43067618D01*
X55262734Y-43040568D01*
X55449139Y-42910047D01*
X55610047Y-42749139D01*
X55670096Y-42663377D01*
X55724675Y-42619752D01*
X55771673Y-42610500D01*
X57253952Y-42610500D01*
X57257697Y-42610613D01*
X57265042Y-42611057D01*
X57319606Y-42614358D01*
X57357314Y-42607447D01*
X57380621Y-42603177D01*
X57384325Y-42602613D01*
X57402170Y-42600446D01*
X57445872Y-42595140D01*
X57455335Y-42591550D01*
X57476961Y-42585522D01*
X57477893Y-42585351D01*
X57486932Y-42583695D01*
X57543512Y-42558229D01*
X57546942Y-42556809D01*
X57604930Y-42534818D01*
X57613266Y-42529062D01*
X57632821Y-42518034D01*
X57642057Y-42513878D01*
X57690896Y-42475613D01*
X57693876Y-42473421D01*
X57744929Y-42438183D01*
X57786065Y-42391748D01*
X57788599Y-42389056D01*
X58899056Y-41278599D01*
X58901748Y-41276065D01*
X58948183Y-41234929D01*
X58983436Y-41183855D01*
X58985613Y-41180896D01*
X59023878Y-41132057D01*
X59028037Y-41122815D01*
X59039062Y-41103268D01*
X59044818Y-41094930D01*
X59066820Y-41036912D01*
X59068235Y-41033495D01*
X59093694Y-40976932D01*
X59095520Y-40966965D01*
X59101548Y-40945340D01*
X59105140Y-40935872D01*
X59112615Y-40874309D01*
X59113179Y-40870605D01*
X59117456Y-40847258D01*
X59124357Y-40809606D01*
X59120613Y-40747707D01*
X59120500Y-40743963D01*
X59120500Y-37171518D01*
X59140185Y-37104479D01*
X59156819Y-37083837D01*
X60578838Y-35661819D01*
X60640161Y-35628334D01*
X60666519Y-35625500D01*
X61295951Y-35625500D01*
X61362990Y-35645185D01*
X61408745Y-35697989D01*
X61418689Y-35767147D01*
X61389664Y-35830703D01*
X61383632Y-35837181D01*
X61229954Y-35990858D01*
X61099432Y-36177265D01*
X61099431Y-36177267D01*
X61003261Y-36383502D01*
X61003258Y-36383511D01*
X60944366Y-36603302D01*
X60944364Y-36603313D01*
X60924532Y-36829998D01*
X60924532Y-36830001D01*
X60944364Y-37056686D01*
X60944366Y-37056697D01*
X61003258Y-37276488D01*
X61003261Y-37276497D01*
X61099431Y-37482732D01*
X61099432Y-37482734D01*
X61229954Y-37669141D01*
X61390858Y-37830045D01*
X61390861Y-37830047D01*
X61577266Y-37960568D01*
X61635275Y-37987618D01*
X61687714Y-38033791D01*
X61706866Y-38100984D01*
X61686650Y-38167865D01*
X61635275Y-38212382D01*
X61577267Y-38239431D01*
X61577265Y-38239432D01*
X61390858Y-38369954D01*
X61229954Y-38530858D01*
X61099432Y-38717265D01*
X61099431Y-38717267D01*
X61003261Y-38923502D01*
X61003258Y-38923511D01*
X60944366Y-39143302D01*
X60944364Y-39143313D01*
X60924532Y-39369998D01*
X60924532Y-39370001D01*
X60944364Y-39596686D01*
X60944366Y-39596697D01*
X61003258Y-39816488D01*
X61003261Y-39816497D01*
X61099431Y-40022732D01*
X61099432Y-40022734D01*
X61229954Y-40209141D01*
X61390858Y-40370045D01*
X61390861Y-40370047D01*
X61577266Y-40500568D01*
X61604274Y-40513162D01*
X61635275Y-40527618D01*
X61687714Y-40573791D01*
X61706866Y-40640984D01*
X61686650Y-40707865D01*
X61635275Y-40752382D01*
X61577267Y-40779431D01*
X61577265Y-40779432D01*
X61390858Y-40909954D01*
X61229954Y-41070858D01*
X61099432Y-41257265D01*
X61099431Y-41257267D01*
X61003261Y-41463502D01*
X61003258Y-41463511D01*
X60944366Y-41683302D01*
X60944364Y-41683313D01*
X60924532Y-41909998D01*
X60924532Y-41910001D01*
X60944364Y-42136686D01*
X60944366Y-42136697D01*
X61003258Y-42356488D01*
X61003261Y-42356497D01*
X61099431Y-42562732D01*
X61099432Y-42562734D01*
X61229954Y-42749141D01*
X61390858Y-42910045D01*
X61390861Y-42910047D01*
X61577266Y-43040568D01*
X61635275Y-43067618D01*
X61687714Y-43113791D01*
X61706866Y-43180984D01*
X61686650Y-43247865D01*
X61635275Y-43292382D01*
X61577267Y-43319431D01*
X61577265Y-43319432D01*
X61390858Y-43449954D01*
X61229954Y-43610858D01*
X61099432Y-43797265D01*
X61099431Y-43797267D01*
X61003261Y-44003502D01*
X61003258Y-44003511D01*
X60944366Y-44223302D01*
X60944364Y-44223313D01*
X60924532Y-44449998D01*
X60924532Y-44450001D01*
X60944364Y-44676686D01*
X60944366Y-44676697D01*
X61003258Y-44896488D01*
X61003261Y-44896497D01*
X61099431Y-45102732D01*
X61099432Y-45102734D01*
X61229954Y-45289141D01*
X61390858Y-45450045D01*
X61390861Y-45450047D01*
X61577266Y-45580568D01*
X61635275Y-45607618D01*
X61687714Y-45653791D01*
X61706866Y-45720984D01*
X61686650Y-45787865D01*
X61635275Y-45832382D01*
X61577267Y-45859431D01*
X61577265Y-45859432D01*
X61390858Y-45989954D01*
X61229954Y-46150858D01*
X61099432Y-46337265D01*
X61099431Y-46337267D01*
X61003261Y-46543502D01*
X61003258Y-46543511D01*
X60944366Y-46763302D01*
X60944364Y-46763313D01*
X60924532Y-46989998D01*
X60924532Y-46990001D01*
X60944364Y-47216686D01*
X60944366Y-47216697D01*
X61003258Y-47436488D01*
X61003261Y-47436497D01*
X61099431Y-47642732D01*
X61099432Y-47642734D01*
X61229954Y-47829141D01*
X61390858Y-47990045D01*
X61390861Y-47990047D01*
X61577266Y-48120568D01*
X61635275Y-48147618D01*
X61687714Y-48193791D01*
X61706866Y-48260984D01*
X61686650Y-48327865D01*
X61635275Y-48372382D01*
X61577267Y-48399431D01*
X61577265Y-48399432D01*
X61390858Y-48529954D01*
X61229954Y-48690858D01*
X61099432Y-48877265D01*
X61099431Y-48877267D01*
X61003261Y-49083502D01*
X61003258Y-49083511D01*
X60944366Y-49303302D01*
X60944364Y-49303313D01*
X60924532Y-49529998D01*
X60924532Y-49530001D01*
X60944364Y-49756686D01*
X60944366Y-49756697D01*
X61003258Y-49976488D01*
X61003261Y-49976497D01*
X61099431Y-50182732D01*
X61099432Y-50182734D01*
X61229954Y-50369141D01*
X61390858Y-50530045D01*
X61390861Y-50530047D01*
X61577266Y-50660568D01*
X61635275Y-50687618D01*
X61687714Y-50733791D01*
X61706866Y-50800984D01*
X61686650Y-50867865D01*
X61635275Y-50912382D01*
X61577267Y-50939431D01*
X61577265Y-50939432D01*
X61390858Y-51069954D01*
X61229954Y-51230858D01*
X61169902Y-51316623D01*
X61115325Y-51360248D01*
X61068327Y-51369500D01*
X60983036Y-51369500D01*
X60979292Y-51369387D01*
X60917397Y-51365643D01*
X60917390Y-51365643D01*
X60856402Y-51376819D01*
X60852701Y-51377382D01*
X60791125Y-51384860D01*
X60781642Y-51388456D01*
X60760038Y-51394478D01*
X60758535Y-51394754D01*
X60750065Y-51396306D01*
X60750063Y-51396307D01*
X60693527Y-51421752D01*
X60690069Y-51423184D01*
X60632069Y-51445182D01*
X60623724Y-51450942D01*
X60604183Y-51461964D01*
X60594944Y-51466122D01*
X60594939Y-51466125D01*
X60546121Y-51504370D01*
X60543106Y-51506589D01*
X60492072Y-51541816D01*
X60492065Y-51541822D01*
X60450942Y-51588240D01*
X60448375Y-51590966D01*
X58166162Y-53873181D01*
X58104839Y-53906666D01*
X58078481Y-53909500D01*
X47331519Y-53909500D01*
X47264480Y-53889815D01*
X47243838Y-53873181D01*
X43574348Y-50203691D01*
X39881598Y-46510941D01*
X39879064Y-46508250D01*
X39837929Y-46461817D01*
X39837928Y-46461816D01*
X39837924Y-46461812D01*
X39786896Y-46426591D01*
X39783887Y-46424377D01*
X39735060Y-46386124D01*
X39735055Y-46386120D01*
X39725813Y-46381961D01*
X39706266Y-46370936D01*
X39697931Y-46365183D01*
X39697932Y-46365183D01*
X39697930Y-46365182D01*
X39639941Y-46343189D01*
X39636490Y-46341759D01*
X39579930Y-46316304D01*
X39569946Y-46314474D01*
X39548343Y-46308451D01*
X39538874Y-46304860D01*
X39538870Y-46304859D01*
X39477313Y-46297384D01*
X39473612Y-46296821D01*
X39412608Y-46285642D01*
X39412603Y-46285642D01*
X39350697Y-46289387D01*
X39346952Y-46289500D01*
X37991673Y-46289500D01*
X37924634Y-46269815D01*
X37890098Y-46236623D01*
X37830045Y-46150858D01*
X37669141Y-45989954D01*
X37482734Y-45859432D01*
X37482728Y-45859429D01*
X37424725Y-45832382D01*
X37372285Y-45786210D01*
X37353133Y-45719017D01*
X37373348Y-45652135D01*
X37424725Y-45607618D01*
X37482734Y-45580568D01*
X37669139Y-45450047D01*
X37830047Y-45289139D01*
X37890096Y-45203377D01*
X37944675Y-45159752D01*
X37991673Y-45150500D01*
X41886952Y-45150500D01*
X41890697Y-45150613D01*
X41898042Y-45151057D01*
X41952606Y-45154358D01*
X41990314Y-45147447D01*
X42013621Y-45143177D01*
X42017325Y-45142613D01*
X42035170Y-45140446D01*
X42078872Y-45135140D01*
X42088335Y-45131550D01*
X42109961Y-45125522D01*
X42110893Y-45125351D01*
X42119932Y-45123695D01*
X42176512Y-45098229D01*
X42179942Y-45096809D01*
X42237930Y-45074818D01*
X42246266Y-45069062D01*
X42265821Y-45058034D01*
X42275057Y-45053878D01*
X42323896Y-45015613D01*
X42326876Y-45013421D01*
X42377929Y-44978183D01*
X42419065Y-44931748D01*
X42421599Y-44929056D01*
X53593837Y-33756819D01*
X53655161Y-33723334D01*
X53681519Y-33720500D01*
X64428481Y-33720500D01*
X64495520Y-33740185D01*
X64516162Y-33756819D01*
X66573181Y-35813838D01*
X66606666Y-35875161D01*
X66609500Y-35901519D01*
X66609500Y-48236951D01*
X66609387Y-48240696D01*
X66605642Y-48302606D01*
X66605762Y-48303261D01*
X66616821Y-48363612D01*
X66617384Y-48367313D01*
X66624859Y-48428870D01*
X66624860Y-48428874D01*
X66628451Y-48438343D01*
X66634474Y-48459946D01*
X66636304Y-48469930D01*
X66661759Y-48526490D01*
X66663189Y-48529941D01*
X66685182Y-48587930D01*
X66685183Y-48587931D01*
X66690936Y-48596266D01*
X66701961Y-48615813D01*
X66706120Y-48625055D01*
X66706124Y-48625060D01*
X66744371Y-48673878D01*
X66746591Y-48676896D01*
X66781812Y-48727924D01*
X66781816Y-48727928D01*
X66781817Y-48727929D01*
X66828250Y-48769064D01*
X66830941Y-48771598D01*
X68068399Y-50009056D01*
X68070935Y-50011750D01*
X68112071Y-50058183D01*
X68112073Y-50058185D01*
X68139021Y-50076786D01*
X68163117Y-50093417D01*
X68166107Y-50095617D01*
X68214943Y-50133878D01*
X68224180Y-50138035D01*
X68243726Y-50149058D01*
X68252070Y-50154818D01*
X68310052Y-50176807D01*
X68313514Y-50178241D01*
X68370068Y-50203694D01*
X68380030Y-50205519D01*
X68401651Y-50211546D01*
X68411125Y-50215139D01*
X68411128Y-50215140D01*
X68427871Y-50217173D01*
X68472689Y-50222615D01*
X68476386Y-50223177D01*
X68537394Y-50234357D01*
X68537395Y-50234356D01*
X68537396Y-50234357D01*
X68599293Y-50230613D01*
X68603037Y-50230500D01*
X96628327Y-50230500D01*
X96695366Y-50250185D01*
X96729902Y-50283377D01*
X96789954Y-50369141D01*
X96950858Y-50530045D01*
X96950861Y-50530047D01*
X97137266Y-50660568D01*
X97343504Y-50756739D01*
X97563308Y-50815635D01*
X97725230Y-50829801D01*
X97789998Y-50835468D01*
X97790000Y-50835468D01*
X97790002Y-50835468D01*
X97846672Y-50830509D01*
X98016692Y-50815635D01*
X98236496Y-50756739D01*
X98442734Y-50660568D01*
X98629139Y-50530047D01*
X98790047Y-50369139D01*
X98920568Y-50182734D01*
X99016739Y-49976496D01*
X99075635Y-49756692D01*
X99095468Y-49530001D01*
X104104532Y-49530001D01*
X104124364Y-49756686D01*
X104124366Y-49756697D01*
X104183258Y-49976488D01*
X104183261Y-49976497D01*
X104279431Y-50182732D01*
X104279432Y-50182734D01*
X104409954Y-50369141D01*
X104570858Y-50530045D01*
X104570861Y-50530047D01*
X104757266Y-50660568D01*
X104963504Y-50756739D01*
X105183308Y-50815635D01*
X105345230Y-50829801D01*
X105409998Y-50835468D01*
X105410000Y-50835468D01*
X105410002Y-50835468D01*
X105466673Y-50830509D01*
X105636692Y-50815635D01*
X105856496Y-50756739D01*
X106062734Y-50660568D01*
X106249139Y-50530047D01*
X106410047Y-50369139D01*
X106540568Y-50182734D01*
X106636739Y-49976496D01*
X106695635Y-49756692D01*
X106715468Y-49530000D01*
X106695635Y-49303308D01*
X106636739Y-49083504D01*
X106540568Y-48877266D01*
X106410047Y-48690861D01*
X106410045Y-48690858D01*
X106249141Y-48529954D01*
X106062734Y-48399432D01*
X106062732Y-48399431D01*
X105856497Y-48303261D01*
X105856488Y-48303258D01*
X105695067Y-48260006D01*
X110354700Y-48260006D01*
X110373864Y-48491297D01*
X110373866Y-48491308D01*
X110430842Y-48716300D01*
X110524075Y-48928848D01*
X110651018Y-49123150D01*
X110746167Y-49226510D01*
X110777089Y-49289164D01*
X110769228Y-49358590D01*
X110725081Y-49412746D01*
X110698271Y-49426674D01*
X110617911Y-49456646D01*
X110617906Y-49456649D01*
X110502812Y-49542809D01*
X110502809Y-49542812D01*
X110416649Y-49657906D01*
X110416645Y-49657913D01*
X110366403Y-49792620D01*
X110366401Y-49792627D01*
X110360000Y-49852155D01*
X110360000Y-50550000D01*
X111384722Y-50550000D01*
X111336375Y-50633740D01*
X111306190Y-50765992D01*
X111316327Y-50901265D01*
X111365887Y-51027541D01*
X111383797Y-51050000D01*
X110360000Y-51050000D01*
X110360000Y-51747844D01*
X110366401Y-51807372D01*
X110366403Y-51807379D01*
X110416645Y-51942086D01*
X110416649Y-51942093D01*
X110502809Y-52057187D01*
X110502812Y-52057190D01*
X110617906Y-52143350D01*
X110617913Y-52143354D01*
X110752620Y-52193596D01*
X110752627Y-52193598D01*
X110812155Y-52199999D01*
X110812172Y-52200000D01*
X111510000Y-52200000D01*
X111510000Y-51174189D01*
X111562547Y-51210016D01*
X111692173Y-51250000D01*
X111793724Y-51250000D01*
X111894138Y-51234865D01*
X112010000Y-51179068D01*
X112010000Y-52200000D01*
X112707828Y-52200000D01*
X112707844Y-52199999D01*
X112767372Y-52193598D01*
X112767379Y-52193596D01*
X112902086Y-52143354D01*
X112902093Y-52143350D01*
X113017187Y-52057190D01*
X113017190Y-52057187D01*
X113103350Y-51942093D01*
X113103354Y-51942086D01*
X113153596Y-51807379D01*
X113153598Y-51807372D01*
X113159999Y-51747844D01*
X113160000Y-51747827D01*
X113160000Y-51050000D01*
X112135278Y-51050000D01*
X112183625Y-50966260D01*
X112213810Y-50834008D01*
X112203673Y-50698735D01*
X112154113Y-50572459D01*
X112136203Y-50550000D01*
X113160000Y-50550000D01*
X113160000Y-49852172D01*
X113159999Y-49852155D01*
X113153598Y-49792627D01*
X113153596Y-49792620D01*
X113103354Y-49657913D01*
X113103350Y-49657906D01*
X113017190Y-49542812D01*
X113017187Y-49542809D01*
X112902093Y-49456649D01*
X112902086Y-49456645D01*
X112821729Y-49426674D01*
X112765795Y-49384803D01*
X112741378Y-49319338D01*
X112756230Y-49251065D01*
X112773826Y-49226516D01*
X112868979Y-49123153D01*
X112995924Y-48928849D01*
X113089157Y-48716300D01*
X113146134Y-48491305D01*
X113147905Y-48469930D01*
X113165300Y-48260006D01*
X113165300Y-48259993D01*
X113146135Y-48028702D01*
X113146133Y-48028691D01*
X113089157Y-47803699D01*
X112995924Y-47591151D01*
X112868983Y-47396852D01*
X112868980Y-47396849D01*
X112868979Y-47396847D01*
X112711784Y-47226087D01*
X112711779Y-47226083D01*
X112711777Y-47226081D01*
X112528634Y-47083535D01*
X112528628Y-47083531D01*
X112324504Y-46973064D01*
X112324495Y-46973061D01*
X112104984Y-46897702D01*
X111933282Y-46869050D01*
X111876049Y-46859500D01*
X111643951Y-46859500D01*
X111598164Y-46867140D01*
X111415015Y-46897702D01*
X111195504Y-46973061D01*
X111195495Y-46973064D01*
X110991371Y-47083531D01*
X110991365Y-47083535D01*
X110808222Y-47226081D01*
X110808219Y-47226084D01*
X110651016Y-47396852D01*
X110524075Y-47591151D01*
X110430842Y-47803699D01*
X110373866Y-48028691D01*
X110373864Y-48028702D01*
X110354700Y-48259993D01*
X110354700Y-48260006D01*
X105695067Y-48260006D01*
X105636697Y-48244366D01*
X105636693Y-48244365D01*
X105636692Y-48244365D01*
X105636691Y-48244364D01*
X105636686Y-48244364D01*
X105410002Y-48224532D01*
X105409998Y-48224532D01*
X105183313Y-48244364D01*
X105183302Y-48244366D01*
X104963511Y-48303258D01*
X104963502Y-48303261D01*
X104757267Y-48399431D01*
X104757265Y-48399432D01*
X104570858Y-48529954D01*
X104409954Y-48690858D01*
X104279432Y-48877265D01*
X104279431Y-48877267D01*
X104183261Y-49083502D01*
X104183258Y-49083511D01*
X104124366Y-49303302D01*
X104124364Y-49303313D01*
X104104532Y-49529998D01*
X104104532Y-49530001D01*
X99095468Y-49530001D01*
X99095468Y-49530000D01*
X99075635Y-49303308D01*
X99016739Y-49083504D01*
X98920568Y-48877266D01*
X98790047Y-48690861D01*
X98790045Y-48690858D01*
X98629141Y-48529954D01*
X98442734Y-48399432D01*
X98442732Y-48399431D01*
X98236497Y-48303261D01*
X98236488Y-48303258D01*
X98016697Y-48244366D01*
X98016693Y-48244365D01*
X98016692Y-48244365D01*
X98016691Y-48244364D01*
X98016686Y-48244364D01*
X97790002Y-48224532D01*
X97789998Y-48224532D01*
X97563313Y-48244364D01*
X97563302Y-48244366D01*
X97343511Y-48303258D01*
X97343502Y-48303261D01*
X97137267Y-48399431D01*
X97137265Y-48399432D01*
X96950858Y-48529954D01*
X96789954Y-48690858D01*
X96729902Y-48776623D01*
X96675325Y-48820248D01*
X96628327Y-48829500D01*
X68921519Y-48829500D01*
X68854480Y-48809815D01*
X68833838Y-48793181D01*
X68046819Y-48006162D01*
X68013334Y-47944839D01*
X68010500Y-47918481D01*
X68010500Y-40640005D01*
X109254306Y-40640005D01*
X109274062Y-40954036D01*
X109274063Y-40954040D01*
X109274063Y-40954044D01*
X109274064Y-40954047D01*
X109333027Y-41263141D01*
X109385150Y-41423560D01*
X109430265Y-41562408D01*
X109430267Y-41562413D01*
X109564242Y-41847123D01*
X109564245Y-41847129D01*
X109732847Y-42112805D01*
X109732850Y-42112809D01*
X109732851Y-42112810D01*
X109933428Y-42355266D01*
X110149572Y-42558238D01*
X110162809Y-42570668D01*
X110162819Y-42570677D01*
X110417379Y-42755626D01*
X110417384Y-42755629D01*
X110693127Y-42907220D01*
X110693135Y-42907224D01*
X110985694Y-43023056D01*
X110985697Y-43023057D01*
X111053899Y-43040568D01*
X111290480Y-43101311D01*
X111389244Y-43113788D01*
X111602656Y-43140749D01*
X111602662Y-43140749D01*
X111602666Y-43140750D01*
X111602668Y-43140750D01*
X111917332Y-43140750D01*
X111917334Y-43140750D01*
X111917339Y-43140749D01*
X111917343Y-43140749D01*
X112000220Y-43130278D01*
X112229520Y-43101311D01*
X112534302Y-43023057D01*
X112534305Y-43023056D01*
X112826864Y-42907224D01*
X112826868Y-42907221D01*
X112826873Y-42907220D01*
X112995216Y-42814671D01*
X113102615Y-42755629D01*
X113102620Y-42755626D01*
X113357180Y-42570677D01*
X113357182Y-42570674D01*
X113357189Y-42570670D01*
X113586572Y-42355266D01*
X113787149Y-42112810D01*
X113955756Y-41847127D01*
X114089735Y-41562407D01*
X114186973Y-41263141D01*
X114245936Y-40954047D01*
X114246484Y-40945336D01*
X114265694Y-40640005D01*
X114265694Y-40639994D01*
X114245937Y-40325963D01*
X114245936Y-40325959D01*
X114245936Y-40325953D01*
X114186973Y-40016859D01*
X114089735Y-39717593D01*
X113955756Y-39432873D01*
X113787149Y-39167190D01*
X113586572Y-38924734D01*
X113357189Y-38709330D01*
X113357188Y-38709329D01*
X113357180Y-38709322D01*
X113102620Y-38524373D01*
X113102615Y-38524370D01*
X112826872Y-38372779D01*
X112826864Y-38372775D01*
X112534305Y-38256943D01*
X112534302Y-38256942D01*
X112229517Y-38178688D01*
X111917343Y-38139250D01*
X111917334Y-38139250D01*
X111602666Y-38139250D01*
X111602656Y-38139250D01*
X111290482Y-38178688D01*
X110985697Y-38256942D01*
X110985694Y-38256943D01*
X110693135Y-38372775D01*
X110693127Y-38372779D01*
X110417384Y-38524370D01*
X110417379Y-38524373D01*
X110162819Y-38709322D01*
X110162809Y-38709331D01*
X109933430Y-38924732D01*
X109732847Y-39167194D01*
X109564245Y-39432870D01*
X109564242Y-39432876D01*
X109430267Y-39717586D01*
X109430265Y-39717591D01*
X109398129Y-39816496D01*
X109333027Y-40016859D01*
X109274064Y-40325953D01*
X109274063Y-40325959D01*
X109274062Y-40325963D01*
X109254306Y-40639994D01*
X109254306Y-40640005D01*
X68010500Y-40640005D01*
X68010500Y-37231320D01*
X105077138Y-37231320D01*
X105097423Y-37450233D01*
X105157589Y-37661699D01*
X105255583Y-37858496D01*
X105255588Y-37858504D01*
X105266030Y-37872331D01*
X105388078Y-38033949D01*
X105550552Y-38182063D01*
X105737475Y-38297801D01*
X105942483Y-38377222D01*
X106158593Y-38417620D01*
X106158595Y-38417620D01*
X106378445Y-38417620D01*
X106378447Y-38417620D01*
X106594557Y-38377222D01*
X106799565Y-38297801D01*
X106986488Y-38182063D01*
X107148962Y-38033949D01*
X107281453Y-37858502D01*
X107379451Y-37661697D01*
X107395123Y-37606613D01*
X107432402Y-37547520D01*
X107495711Y-37517962D01*
X107564951Y-37527323D01*
X107618138Y-37572633D01*
X107633657Y-37606614D01*
X107649329Y-37661699D01*
X107747323Y-37858496D01*
X107747328Y-37858504D01*
X107757770Y-37872331D01*
X107879818Y-38033949D01*
X108042292Y-38182063D01*
X108229215Y-38297801D01*
X108434223Y-38377222D01*
X108650333Y-38417620D01*
X108650335Y-38417620D01*
X108870185Y-38417620D01*
X108870187Y-38417620D01*
X109086297Y-38377222D01*
X109291305Y-38297801D01*
X109478228Y-38182063D01*
X109640702Y-38033949D01*
X109773193Y-37858502D01*
X109871191Y-37661697D01*
X109931356Y-37450236D01*
X109951642Y-37231320D01*
X109931356Y-37012404D01*
X109871191Y-36800943D01*
X109871190Y-36800940D01*
X109773196Y-36604143D01*
X109773191Y-36604135D01*
X109640700Y-36428688D01*
X109497414Y-36298067D01*
X109461132Y-36238356D01*
X109462893Y-36168509D01*
X109497414Y-36114793D01*
X109640700Y-35984171D01*
X109642243Y-35982129D01*
X109773193Y-35808722D01*
X109871191Y-35611917D01*
X109931356Y-35400456D01*
X109951642Y-35181540D01*
X109931356Y-34962624D01*
X109871191Y-34751163D01*
X109871190Y-34751160D01*
X109773196Y-34554363D01*
X109773191Y-34554355D01*
X109691334Y-34445959D01*
X109640702Y-34378911D01*
X109478228Y-34230797D01*
X109420587Y-34195107D01*
X109291306Y-34115059D01*
X109291304Y-34115058D01*
X109220542Y-34087645D01*
X109086297Y-34035638D01*
X108911422Y-34002948D01*
X108849143Y-33971281D01*
X108813870Y-33910968D01*
X108815127Y-33881065D01*
X110064566Y-33881065D01*
X110084322Y-34195096D01*
X110084323Y-34195100D01*
X110084323Y-34195104D01*
X110084324Y-34195107D01*
X110143287Y-34504201D01*
X110159583Y-34554355D01*
X110240525Y-34803468D01*
X110240527Y-34803473D01*
X110374502Y-35088183D01*
X110374505Y-35088189D01*
X110543107Y-35353865D01*
X110543110Y-35353869D01*
X110543111Y-35353870D01*
X110743688Y-35596326D01*
X110969868Y-35808722D01*
X110973069Y-35811728D01*
X110973079Y-35811737D01*
X111227639Y-35996686D01*
X111227644Y-35996689D01*
X111503387Y-36148280D01*
X111503395Y-36148284D01*
X111795954Y-36264116D01*
X111795957Y-36264117D01*
X111860054Y-36280574D01*
X112100740Y-36342371D01*
X112253606Y-36361682D01*
X112412916Y-36381809D01*
X112412922Y-36381809D01*
X112412926Y-36381810D01*
X112412928Y-36381810D01*
X112727592Y-36381810D01*
X112727594Y-36381810D01*
X112727599Y-36381809D01*
X112727603Y-36381809D01*
X112810480Y-36371338D01*
X113039780Y-36342371D01*
X113344562Y-36264117D01*
X113394483Y-36244352D01*
X113637124Y-36148284D01*
X113637128Y-36148281D01*
X113637133Y-36148280D01*
X113859324Y-36026129D01*
X113912875Y-35996689D01*
X113912880Y-35996686D01*
X114167440Y-35811737D01*
X114167442Y-35811734D01*
X114167449Y-35811730D01*
X114396832Y-35596326D01*
X114597409Y-35353870D01*
X114766016Y-35088187D01*
X114899995Y-34803467D01*
X114997233Y-34504201D01*
X115056196Y-34195107D01*
X115061232Y-34115059D01*
X115075954Y-33881065D01*
X115075954Y-33881054D01*
X115056197Y-33567023D01*
X115056196Y-33567019D01*
X115056196Y-33567013D01*
X114997233Y-33257919D01*
X114899995Y-32958653D01*
X114766016Y-32673933D01*
X114681633Y-32540966D01*
X114597412Y-32408254D01*
X114586598Y-32395182D01*
X114396832Y-32165794D01*
X114167449Y-31950390D01*
X114167448Y-31950389D01*
X114167440Y-31950382D01*
X113912880Y-31765433D01*
X113912875Y-31765430D01*
X113637132Y-31613839D01*
X113637124Y-31613835D01*
X113344565Y-31498003D01*
X113344562Y-31498002D01*
X113039777Y-31419748D01*
X112727603Y-31380310D01*
X112727594Y-31380310D01*
X112412926Y-31380310D01*
X112412916Y-31380310D01*
X112100742Y-31419748D01*
X111795957Y-31498002D01*
X111795954Y-31498003D01*
X111503395Y-31613835D01*
X111503387Y-31613839D01*
X111227644Y-31765430D01*
X111227639Y-31765433D01*
X110973079Y-31950382D01*
X110973069Y-31950391D01*
X110743690Y-32165792D01*
X110543107Y-32408254D01*
X110374505Y-32673930D01*
X110374502Y-32673936D01*
X110240527Y-32958646D01*
X110240525Y-32958651D01*
X110159586Y-33207756D01*
X110143287Y-33257919D01*
X110091132Y-33531323D01*
X110084323Y-33567019D01*
X110084322Y-33567023D01*
X110064566Y-33881054D01*
X110064566Y-33881065D01*
X108815127Y-33881065D01*
X108816804Y-33841160D01*
X108857013Y-33784020D01*
X108911422Y-33759171D01*
X109086297Y-33726482D01*
X109291305Y-33647061D01*
X109478228Y-33531323D01*
X109640702Y-33383209D01*
X109773193Y-33207762D01*
X109871191Y-33010957D01*
X109931356Y-32799496D01*
X109951642Y-32580580D01*
X109931356Y-32361664D01*
X109871191Y-32150203D01*
X109871190Y-32150200D01*
X109773196Y-31953403D01*
X109773191Y-31953395D01*
X109738728Y-31907759D01*
X109640702Y-31777951D01*
X109478228Y-31629837D01*
X109464176Y-31621136D01*
X109417542Y-31569108D01*
X109412059Y-31536152D01*
X108843658Y-30967750D01*
X108892759Y-30960350D01*
X109013484Y-30902212D01*
X109111710Y-30811072D01*
X109178707Y-30695028D01*
X109197166Y-30614153D01*
X109758983Y-31175970D01*
X109772766Y-31157718D01*
X109772771Y-31157711D01*
X109870720Y-30961001D01*
X109870721Y-30961000D01*
X109930863Y-30749619D01*
X109951140Y-30530800D01*
X109951140Y-30530799D01*
X109930863Y-30311980D01*
X109870721Y-30100601D01*
X109772766Y-29903881D01*
X109758982Y-29885628D01*
X109199579Y-30445032D01*
X109198511Y-30430772D01*
X109149557Y-30306040D01*
X109066012Y-30201278D01*
X108955300Y-30125796D01*
X108845561Y-30091945D01*
X109403272Y-29534234D01*
X109291081Y-29464768D01*
X109291080Y-29464767D01*
X109086158Y-29385381D01*
X108870139Y-29345000D01*
X108650381Y-29345000D01*
X108434362Y-29385381D01*
X108434361Y-29385381D01*
X108229441Y-29464767D01*
X108229435Y-29464769D01*
X108117247Y-29534233D01*
X108117246Y-29534234D01*
X108676862Y-30093849D01*
X108627761Y-30101250D01*
X108507036Y-30159388D01*
X108408810Y-30250528D01*
X108341813Y-30366572D01*
X108323353Y-30447445D01*
X107761536Y-29885628D01*
X107747754Y-29903879D01*
X107649797Y-30100603D01*
X107649795Y-30100607D01*
X107633915Y-30156420D01*
X107596635Y-30215513D01*
X107533325Y-30245070D01*
X107464086Y-30235708D01*
X107410900Y-30190397D01*
X107395382Y-30156417D01*
X107394227Y-30152359D01*
X107385675Y-30122300D01*
X107379451Y-30100422D01*
X107379450Y-30100421D01*
X107281456Y-29903623D01*
X107281451Y-29903615D01*
X107246988Y-29857979D01*
X107148962Y-29728171D01*
X106986488Y-29580057D01*
X106923916Y-29541314D01*
X106799566Y-29464319D01*
X106799564Y-29464318D01*
X106728802Y-29436905D01*
X106594557Y-29384898D01*
X106378447Y-29344500D01*
X106158593Y-29344500D01*
X105942483Y-29384898D01*
X105931007Y-29389344D01*
X105737475Y-29464318D01*
X105737473Y-29464319D01*
X105550556Y-29580054D01*
X105550554Y-29580055D01*
X105550552Y-29580057D01*
X105483853Y-29640861D01*
X105388077Y-29728172D01*
X105255588Y-29903615D01*
X105255583Y-29903623D01*
X105157589Y-30100420D01*
X105097423Y-30311886D01*
X105077138Y-30530800D01*
X105097423Y-30749713D01*
X105157589Y-30961179D01*
X105255583Y-31157976D01*
X105255588Y-31157984D01*
X105321832Y-31245705D01*
X105388078Y-31333429D01*
X105550552Y-31481543D01*
X105737475Y-31597281D01*
X105942483Y-31676702D01*
X106158593Y-31717100D01*
X106158595Y-31717100D01*
X106378445Y-31717100D01*
X106378447Y-31717100D01*
X106594557Y-31676702D01*
X106799565Y-31597281D01*
X106986488Y-31481543D01*
X107148962Y-31333429D01*
X107281453Y-31157982D01*
X107379451Y-30961177D01*
X107395383Y-30905179D01*
X107432660Y-30846088D01*
X107495969Y-30816529D01*
X107565209Y-30825890D01*
X107618396Y-30871199D01*
X107633915Y-30905179D01*
X107649795Y-30960992D01*
X107649797Y-30960996D01*
X107747749Y-31157711D01*
X107747757Y-31157724D01*
X107761536Y-31175970D01*
X108320940Y-30616565D01*
X108322009Y-30630828D01*
X108370963Y-30755560D01*
X108454508Y-30860322D01*
X108565220Y-30935804D01*
X108674958Y-30969654D01*
X108108232Y-31536379D01*
X108102408Y-31570284D01*
X108056346Y-31621133D01*
X108042298Y-31629831D01*
X108042291Y-31629837D01*
X107879819Y-31777948D01*
X107747328Y-31953395D01*
X107747323Y-31953403D01*
X107649329Y-32150200D01*
X107589163Y-32361666D01*
X107568878Y-32580580D01*
X107589163Y-32799493D01*
X107649329Y-33010959D01*
X107747323Y-33207756D01*
X107747328Y-33207764D01*
X107809395Y-33289953D01*
X107879818Y-33383209D01*
X108042292Y-33531323D01*
X108166907Y-33608481D01*
X108213395Y-33637266D01*
X108229215Y-33647061D01*
X108434223Y-33726482D01*
X108609095Y-33759171D01*
X108671376Y-33790839D01*
X108706649Y-33851152D01*
X108703715Y-33920960D01*
X108663506Y-33978100D01*
X108609096Y-34002948D01*
X108434223Y-34035638D01*
X108376979Y-34057814D01*
X108229215Y-34115058D01*
X108229213Y-34115059D01*
X108042296Y-34230794D01*
X108042294Y-34230795D01*
X108042292Y-34230797D01*
X107899992Y-34360520D01*
X107879817Y-34378912D01*
X107747328Y-34554355D01*
X107747323Y-34554363D01*
X107649329Y-34751160D01*
X107589163Y-34962626D01*
X107568878Y-35181540D01*
X107589163Y-35400453D01*
X107649329Y-35611919D01*
X107747323Y-35808716D01*
X107747328Y-35808724D01*
X107879819Y-35984171D01*
X108023105Y-36114793D01*
X108059387Y-36174504D01*
X108057626Y-36244352D01*
X108023105Y-36298067D01*
X107879819Y-36428688D01*
X107747328Y-36604135D01*
X107747323Y-36604143D01*
X107649330Y-36800939D01*
X107649330Y-36800940D01*
X107649329Y-36800943D01*
X107634505Y-36853047D01*
X107633657Y-36856026D01*
X107596378Y-36915119D01*
X107533068Y-36944677D01*
X107463828Y-36935315D01*
X107410642Y-36890006D01*
X107395123Y-36856026D01*
X107379451Y-36800943D01*
X107309831Y-36661128D01*
X107281456Y-36604143D01*
X107281451Y-36604135D01*
X107204368Y-36502061D01*
X107148962Y-36428691D01*
X106986488Y-36280577D01*
X106918299Y-36238356D01*
X106799566Y-36164839D01*
X106799564Y-36164838D01*
X106728802Y-36137425D01*
X106594557Y-36085418D01*
X106378447Y-36045020D01*
X106158593Y-36045020D01*
X105942483Y-36085418D01*
X105885239Y-36107594D01*
X105737475Y-36164838D01*
X105737473Y-36164839D01*
X105550556Y-36280574D01*
X105550554Y-36280575D01*
X105550552Y-36280577D01*
X105388081Y-36428688D01*
X105388077Y-36428692D01*
X105255588Y-36604135D01*
X105255583Y-36604143D01*
X105157589Y-36800940D01*
X105097423Y-37012406D01*
X105077138Y-37231320D01*
X68010500Y-37231320D01*
X68010500Y-35583035D01*
X68010613Y-35579290D01*
X68014357Y-35517394D01*
X68003177Y-35456386D01*
X68002615Y-35452689D01*
X67995140Y-35391129D01*
X67995139Y-35391125D01*
X67991546Y-35381651D01*
X67985519Y-35360029D01*
X67983694Y-35350068D01*
X67958239Y-35293512D01*
X67956809Y-35290057D01*
X67956805Y-35290047D01*
X67934818Y-35232070D01*
X67929059Y-35223727D01*
X67918030Y-35204172D01*
X67913877Y-35194943D01*
X67913874Y-35194938D01*
X67875633Y-35146127D01*
X67873413Y-35143110D01*
X67859829Y-35123431D01*
X67838183Y-35092071D01*
X67791750Y-35050935D01*
X67789056Y-35048399D01*
X65281598Y-32540941D01*
X65279064Y-32538250D01*
X65237929Y-32491817D01*
X65237928Y-32491816D01*
X65237924Y-32491812D01*
X65186896Y-32456591D01*
X65183887Y-32454377D01*
X65135060Y-32416124D01*
X65135055Y-32416120D01*
X65125813Y-32411961D01*
X65106266Y-32400936D01*
X65097931Y-32395183D01*
X65097932Y-32395183D01*
X65097930Y-32395182D01*
X65039941Y-32373189D01*
X65036490Y-32371759D01*
X64979930Y-32346304D01*
X64969946Y-32344474D01*
X64948343Y-32338451D01*
X64938874Y-32334860D01*
X64938870Y-32334859D01*
X64877313Y-32327384D01*
X64873612Y-32326821D01*
X64812608Y-32315642D01*
X64812603Y-32315642D01*
X64750697Y-32319387D01*
X64746952Y-32319500D01*
X53363048Y-32319500D01*
X53359303Y-32319387D01*
X53297396Y-32315642D01*
X53297390Y-32315642D01*
X53236386Y-32326821D01*
X53232685Y-32327384D01*
X53171128Y-32334859D01*
X53171127Y-32334860D01*
X53161653Y-32338453D01*
X53140042Y-32344477D01*
X53130068Y-32346305D01*
X53073513Y-32371757D01*
X53070055Y-32373189D01*
X53012077Y-32395179D01*
X53012074Y-32395180D01*
X53012070Y-32395182D01*
X53012067Y-32395183D01*
X53012061Y-32395187D01*
X53003723Y-32400942D01*
X52984188Y-32411960D01*
X52974948Y-32416119D01*
X52974939Y-32416124D01*
X52926124Y-32454368D01*
X52923109Y-32456586D01*
X52872068Y-32491818D01*
X52830942Y-32538240D01*
X52828375Y-32540966D01*
X41656162Y-43713181D01*
X41594839Y-43746666D01*
X41568481Y-43749500D01*
X37991673Y-43749500D01*
X37924634Y-43729815D01*
X37890098Y-43696623D01*
X37830045Y-43610858D01*
X37669141Y-43449954D01*
X37482734Y-43319432D01*
X37482728Y-43319429D01*
X37424725Y-43292382D01*
X37372285Y-43246210D01*
X37353133Y-43179017D01*
X37373348Y-43112135D01*
X37424725Y-43067618D01*
X37482734Y-43040568D01*
X37669139Y-42910047D01*
X37830047Y-42749139D01*
X37960568Y-42562734D01*
X38056739Y-42356496D01*
X38115635Y-42136692D01*
X38135468Y-41910000D01*
X38115635Y-41683308D01*
X38056739Y-41463504D01*
X37960568Y-41257266D01*
X37830047Y-41070861D01*
X37830045Y-41070858D01*
X37669141Y-40909954D01*
X37482734Y-40779432D01*
X37482728Y-40779429D01*
X37424725Y-40752382D01*
X37372285Y-40706210D01*
X37353133Y-40639017D01*
X37373348Y-40572135D01*
X37424725Y-40527618D01*
X37482734Y-40500568D01*
X37669139Y-40370047D01*
X37830047Y-40209139D01*
X37960568Y-40022734D01*
X38056739Y-39816496D01*
X38115635Y-39596692D01*
X38135468Y-39370000D01*
X38115635Y-39143308D01*
X38056739Y-38923504D01*
X37960568Y-38717266D01*
X37830047Y-38530861D01*
X37830045Y-38530858D01*
X37669141Y-38369954D01*
X37482734Y-38239432D01*
X37482728Y-38239429D01*
X37424725Y-38212382D01*
X37372285Y-38166210D01*
X37353133Y-38099017D01*
X37373348Y-38032135D01*
X37424725Y-37987618D01*
X37482734Y-37960568D01*
X37669139Y-37830047D01*
X37830047Y-37669139D01*
X37960568Y-37482734D01*
X38056739Y-37276496D01*
X38115635Y-37056692D01*
X38135468Y-36830000D01*
X38132925Y-36800939D01*
X38126079Y-36722685D01*
X38115635Y-36603308D01*
X38068846Y-36428688D01*
X38056741Y-36383511D01*
X38056738Y-36383502D01*
X38055949Y-36381809D01*
X37960568Y-36177266D01*
X37834126Y-35996686D01*
X37830045Y-35990858D01*
X37669141Y-35829954D01*
X37482734Y-35699432D01*
X37482728Y-35699429D01*
X37424882Y-35672455D01*
X37424724Y-35672381D01*
X37372285Y-35626210D01*
X37353133Y-35559017D01*
X37373348Y-35492135D01*
X37424725Y-35447618D01*
X37482734Y-35420568D01*
X37669139Y-35290047D01*
X37830047Y-35129139D01*
X37960568Y-34942734D01*
X38056739Y-34736496D01*
X38115635Y-34516692D01*
X38135468Y-34290000D01*
X38131395Y-34243451D01*
X38127165Y-34195096D01*
X38115635Y-34063308D01*
X38056739Y-33843504D01*
X37960568Y-33637266D01*
X37830047Y-33450861D01*
X37830045Y-33450858D01*
X37669141Y-33289954D01*
X37482734Y-33159432D01*
X37482732Y-33159431D01*
X37276497Y-33063261D01*
X37276488Y-33063258D01*
X37056697Y-33004366D01*
X37056693Y-33004365D01*
X37056692Y-33004365D01*
X37056691Y-33004364D01*
X37056686Y-33004364D01*
X36830002Y-32984532D01*
X36829998Y-32984532D01*
X36603313Y-33004364D01*
X36603302Y-33004366D01*
X36383511Y-33063258D01*
X36383502Y-33063261D01*
X36177267Y-33159431D01*
X36177265Y-33159432D01*
X35990858Y-33289954D01*
X35829954Y-33450858D01*
X35699432Y-33637265D01*
X35699431Y-33637267D01*
X35603261Y-33843502D01*
X35603258Y-33843511D01*
X35544366Y-34063302D01*
X35544364Y-34063313D01*
X35524532Y-34289998D01*
X35524532Y-34290001D01*
X35544364Y-34516686D01*
X35544366Y-34516697D01*
X35603258Y-34736488D01*
X35603261Y-34736497D01*
X35699431Y-34942732D01*
X35699432Y-34942734D01*
X35829954Y-35129141D01*
X35990858Y-35290045D01*
X35990861Y-35290047D01*
X36177266Y-35420568D01*
X36235275Y-35447618D01*
X36287714Y-35493791D01*
X36306866Y-35560984D01*
X36286650Y-35627865D01*
X36235275Y-35672381D01*
X36235118Y-35672455D01*
X36177267Y-35699431D01*
X36177265Y-35699432D01*
X35990858Y-35829954D01*
X35829954Y-35990858D01*
X35699432Y-36177265D01*
X35699431Y-36177267D01*
X35603261Y-36383502D01*
X35603258Y-36383511D01*
X35544366Y-36603302D01*
X35544364Y-36603313D01*
X35524532Y-36829998D01*
X35524532Y-36830001D01*
X35544364Y-37056686D01*
X35544366Y-37056697D01*
X35603258Y-37276488D01*
X35603261Y-37276497D01*
X35699431Y-37482732D01*
X35699432Y-37482734D01*
X35829954Y-37669141D01*
X35990858Y-37830045D01*
X35990861Y-37830047D01*
X36177266Y-37960568D01*
X36235275Y-37987618D01*
X36287714Y-38033791D01*
X36306866Y-38100984D01*
X36286650Y-38167865D01*
X36235275Y-38212382D01*
X36177267Y-38239431D01*
X36177265Y-38239432D01*
X35990858Y-38369954D01*
X35829954Y-38530858D01*
X35699432Y-38717265D01*
X35699431Y-38717267D01*
X35603261Y-38923502D01*
X35603258Y-38923511D01*
X35544366Y-39143302D01*
X35544364Y-39143313D01*
X35524532Y-39369998D01*
X35524532Y-39370001D01*
X35544364Y-39596686D01*
X35544366Y-39596697D01*
X35603258Y-39816488D01*
X35603261Y-39816497D01*
X35699431Y-40022732D01*
X35699432Y-40022734D01*
X35829954Y-40209141D01*
X35990858Y-40370045D01*
X35990861Y-40370047D01*
X36177266Y-40500568D01*
X36204274Y-40513162D01*
X36235275Y-40527618D01*
X36287714Y-40573791D01*
X36306866Y-40640984D01*
X36286650Y-40707865D01*
X36235275Y-40752382D01*
X36177267Y-40779431D01*
X36177265Y-40779432D01*
X35990858Y-40909954D01*
X35829954Y-41070858D01*
X35699432Y-41257265D01*
X35699431Y-41257267D01*
X35603261Y-41463502D01*
X35603258Y-41463511D01*
X35544366Y-41683302D01*
X35544364Y-41683313D01*
X35524532Y-41909998D01*
X35524532Y-41910001D01*
X35544364Y-42136686D01*
X35544366Y-42136697D01*
X35603258Y-42356488D01*
X35603261Y-42356497D01*
X35699431Y-42562732D01*
X35699432Y-42562734D01*
X35829954Y-42749141D01*
X35990858Y-42910045D01*
X35990861Y-42910047D01*
X36177266Y-43040568D01*
X36235275Y-43067618D01*
X36287714Y-43113791D01*
X36306866Y-43180984D01*
X36286650Y-43247865D01*
X36235275Y-43292382D01*
X36177267Y-43319431D01*
X36177265Y-43319432D01*
X35990858Y-43449954D01*
X35829954Y-43610858D01*
X35699432Y-43797265D01*
X35699431Y-43797267D01*
X35603261Y-44003502D01*
X35603258Y-44003511D01*
X35544366Y-44223302D01*
X35544364Y-44223313D01*
X35524532Y-44449998D01*
X35524532Y-44450001D01*
X35544364Y-44676686D01*
X35544366Y-44676697D01*
X35603258Y-44896488D01*
X35603261Y-44896497D01*
X35699431Y-45102732D01*
X35699432Y-45102734D01*
X35829954Y-45289141D01*
X35990858Y-45450045D01*
X35990861Y-45450047D01*
X36177266Y-45580568D01*
X36235275Y-45607618D01*
X36287714Y-45653791D01*
X36306866Y-45720984D01*
X36286650Y-45787865D01*
X36235275Y-45832382D01*
X36177267Y-45859431D01*
X36177265Y-45859432D01*
X35990858Y-45989954D01*
X35829954Y-46150858D01*
X35699432Y-46337265D01*
X35699431Y-46337267D01*
X35603261Y-46543502D01*
X35603258Y-46543511D01*
X35544366Y-46763302D01*
X35544364Y-46763313D01*
X35524532Y-46989998D01*
X35524532Y-46990001D01*
X35544364Y-47216686D01*
X35544366Y-47216697D01*
X35603258Y-47436488D01*
X35603261Y-47436497D01*
X35699431Y-47642732D01*
X35699432Y-47642734D01*
X35829954Y-47829141D01*
X35990858Y-47990045D01*
X35990861Y-47990047D01*
X36177266Y-48120568D01*
X36235275Y-48147618D01*
X36287714Y-48193791D01*
X36306866Y-48260984D01*
X36286650Y-48327865D01*
X36235275Y-48372382D01*
X36177267Y-48399431D01*
X36177265Y-48399432D01*
X35990858Y-48529954D01*
X35829954Y-48690858D01*
X35699432Y-48877265D01*
X35699431Y-48877267D01*
X35603261Y-49083502D01*
X35603258Y-49083511D01*
X35544366Y-49303302D01*
X35544364Y-49303313D01*
X35524532Y-49529998D01*
X35524532Y-49530001D01*
X35544364Y-49756686D01*
X35544366Y-49756697D01*
X35603258Y-49976488D01*
X35603261Y-49976497D01*
X35699431Y-50182732D01*
X35699432Y-50182734D01*
X35829954Y-50369141D01*
X35990858Y-50530045D01*
X35990861Y-50530047D01*
X36177266Y-50660568D01*
X36235275Y-50687618D01*
X36287714Y-50733791D01*
X36306866Y-50800984D01*
X36286650Y-50867865D01*
X36235275Y-50912382D01*
X36177267Y-50939431D01*
X36177265Y-50939432D01*
X35990858Y-51069954D01*
X35829954Y-51230858D01*
X35699432Y-51417265D01*
X35699431Y-51417267D01*
X35603261Y-51623502D01*
X35603258Y-51623511D01*
X35544366Y-51843302D01*
X35544364Y-51843313D01*
X35524532Y-52069998D01*
X35524532Y-52070001D01*
X35544364Y-52296686D01*
X35544366Y-52296697D01*
X35603258Y-52516488D01*
X35603261Y-52516497D01*
X35699431Y-52722732D01*
X35699432Y-52722734D01*
X35829954Y-52909141D01*
X35990858Y-53070045D01*
X35990861Y-53070047D01*
X36177266Y-53200568D01*
X36235275Y-53227618D01*
X36287714Y-53273791D01*
X36306866Y-53340984D01*
X36286650Y-53407865D01*
X36235275Y-53452382D01*
X36177267Y-53479431D01*
X36177265Y-53479432D01*
X35990858Y-53609954D01*
X35829954Y-53770858D01*
X35699432Y-53957265D01*
X35699431Y-53957267D01*
X35603261Y-54163502D01*
X35603258Y-54163511D01*
X35544366Y-54383302D01*
X35544364Y-54383313D01*
X35524532Y-54609998D01*
X35524532Y-54610001D01*
X35544364Y-54836686D01*
X35544366Y-54836697D01*
X35603258Y-55056488D01*
X35603261Y-55056497D01*
X35699431Y-55262732D01*
X35699432Y-55262734D01*
X35829954Y-55449141D01*
X35990858Y-55610045D01*
X35990861Y-55610047D01*
X36177266Y-55740568D01*
X36235275Y-55767618D01*
X36287714Y-55813791D01*
X36306866Y-55880984D01*
X36286650Y-55947865D01*
X36235275Y-55992382D01*
X36177267Y-56019431D01*
X36177265Y-56019432D01*
X35990858Y-56149954D01*
X35829954Y-56310858D01*
X35699432Y-56497265D01*
X35699431Y-56497267D01*
X35603261Y-56703502D01*
X35603258Y-56703511D01*
X35544366Y-56923302D01*
X35544364Y-56923313D01*
X35524532Y-57149998D01*
X35524532Y-57150001D01*
X35544364Y-57376686D01*
X35544366Y-57376697D01*
X35603258Y-57596488D01*
X35603261Y-57596497D01*
X35699431Y-57802732D01*
X35699432Y-57802734D01*
X35829954Y-57989141D01*
X35990858Y-58150045D01*
X35990861Y-58150047D01*
X36177266Y-58280568D01*
X36235275Y-58307618D01*
X36287714Y-58353791D01*
X36306866Y-58420984D01*
X36286650Y-58487865D01*
X36235275Y-58532382D01*
X36177267Y-58559431D01*
X36177265Y-58559432D01*
X35990858Y-58689954D01*
X35829954Y-58850858D01*
X35699432Y-59037265D01*
X35699431Y-59037267D01*
X35603261Y-59243502D01*
X35603258Y-59243511D01*
X35544366Y-59463302D01*
X35544364Y-59463313D01*
X35524532Y-59689998D01*
X35524532Y-59690001D01*
X35544364Y-59916686D01*
X35544366Y-59916697D01*
X35603258Y-60136488D01*
X35603261Y-60136497D01*
X35699431Y-60342732D01*
X35699432Y-60342734D01*
X35829954Y-60529141D01*
X35990858Y-60690045D01*
X35990861Y-60690047D01*
X36177266Y-60820568D01*
X36235275Y-60847618D01*
X36287714Y-60893791D01*
X36306866Y-60960984D01*
X36286650Y-61027865D01*
X36235275Y-61072382D01*
X36177267Y-61099431D01*
X36177265Y-61099432D01*
X35990858Y-61229954D01*
X35829954Y-61390858D01*
X35699432Y-61577265D01*
X35699431Y-61577267D01*
X35603261Y-61783502D01*
X35603258Y-61783511D01*
X35544366Y-62003302D01*
X35544364Y-62003313D01*
X35524532Y-62229998D01*
X35524532Y-62230001D01*
X35544364Y-62456686D01*
X35544366Y-62456697D01*
X35603258Y-62676488D01*
X35603261Y-62676497D01*
X35699431Y-62882732D01*
X35699432Y-62882734D01*
X35829954Y-63069141D01*
X35990858Y-63230045D01*
X35990861Y-63230047D01*
X36177266Y-63360568D01*
X36235275Y-63387618D01*
X36287714Y-63433791D01*
X36306866Y-63500984D01*
X36286650Y-63567865D01*
X36235275Y-63612382D01*
X36177267Y-63639431D01*
X36177265Y-63639432D01*
X35990858Y-63769954D01*
X35829954Y-63930858D01*
X35699432Y-64117265D01*
X35699431Y-64117267D01*
X35603261Y-64323502D01*
X35603258Y-64323511D01*
X35544366Y-64543302D01*
X35544364Y-64543313D01*
X35524532Y-64769998D01*
X35524532Y-64770001D01*
X35544364Y-64996686D01*
X35544366Y-64996697D01*
X35603258Y-65216488D01*
X35603261Y-65216497D01*
X35699431Y-65422732D01*
X35699432Y-65422734D01*
X35829954Y-65609141D01*
X35990858Y-65770045D01*
X35990861Y-65770047D01*
X36177266Y-65900568D01*
X36235275Y-65927618D01*
X36287714Y-65973791D01*
X36306866Y-66040984D01*
X36286650Y-66107865D01*
X36235275Y-66152382D01*
X36177267Y-66179431D01*
X36177265Y-66179432D01*
X35990858Y-66309954D01*
X35829954Y-66470858D01*
X35699432Y-66657265D01*
X35699431Y-66657267D01*
X35603261Y-66863502D01*
X35603258Y-66863511D01*
X35544366Y-67083302D01*
X35544364Y-67083313D01*
X35524532Y-67309998D01*
X35524532Y-67310001D01*
X22090000Y-67310001D01*
X22090000Y-67238111D01*
X22049493Y-67100156D01*
X22023686Y-67060000D01*
X22868872Y-67060000D01*
X22868872Y-67059999D01*
X22816269Y-66863682D01*
X22816265Y-66863673D01*
X22720134Y-66657517D01*
X22589657Y-66471179D01*
X22428820Y-66310342D01*
X22242482Y-66179865D01*
X22184133Y-66152657D01*
X22131694Y-66106484D01*
X22112542Y-66039291D01*
X22132758Y-65972410D01*
X22184129Y-65927895D01*
X22242734Y-65900568D01*
X22429139Y-65770047D01*
X22590047Y-65609139D01*
X22720568Y-65422734D01*
X22816739Y-65216496D01*
X22875635Y-64996692D01*
X22895468Y-64770000D01*
X22894169Y-64755158D01*
X22880501Y-64598930D01*
X22875635Y-64543308D01*
X22829571Y-64371395D01*
X22816741Y-64323511D01*
X22816738Y-64323502D01*
X22783768Y-64252799D01*
X22720568Y-64117266D01*
X22590047Y-63930861D01*
X22590045Y-63930858D01*
X22429141Y-63769954D01*
X22242734Y-63639432D01*
X22242728Y-63639429D01*
X22184725Y-63612382D01*
X22132285Y-63566210D01*
X22113133Y-63499017D01*
X22133348Y-63432135D01*
X22184725Y-63387618D01*
X22242734Y-63360568D01*
X22429139Y-63230047D01*
X22590047Y-63069139D01*
X22720568Y-62882734D01*
X22816739Y-62676496D01*
X22875635Y-62456692D01*
X22895468Y-62230000D01*
X22875635Y-62003308D01*
X22821205Y-61800172D01*
X22816741Y-61783511D01*
X22816738Y-61783502D01*
X22776765Y-61697781D01*
X22720568Y-61577266D01*
X22590047Y-61390861D01*
X22590045Y-61390858D01*
X22429141Y-61229954D01*
X22242734Y-61099432D01*
X22242728Y-61099429D01*
X22184725Y-61072382D01*
X22132285Y-61026210D01*
X22113133Y-60959017D01*
X22133348Y-60892135D01*
X22184725Y-60847618D01*
X22242734Y-60820568D01*
X22429139Y-60690047D01*
X22590047Y-60529139D01*
X22720568Y-60342734D01*
X22816739Y-60136496D01*
X22875635Y-59916692D01*
X22895468Y-59690000D01*
X22875635Y-59463308D01*
X22816739Y-59243504D01*
X22720568Y-59037266D01*
X22598421Y-58862820D01*
X22590045Y-58850858D01*
X22429141Y-58689954D01*
X22242734Y-58559432D01*
X22242728Y-58559429D01*
X22184725Y-58532382D01*
X22132285Y-58486210D01*
X22113133Y-58419017D01*
X22133348Y-58352135D01*
X22184725Y-58307618D01*
X22242734Y-58280568D01*
X22429139Y-58150047D01*
X22590047Y-57989139D01*
X22720568Y-57802734D01*
X22816739Y-57596496D01*
X22875635Y-57376692D01*
X22895468Y-57150000D01*
X22875635Y-56923308D01*
X22816739Y-56703504D01*
X22720568Y-56497266D01*
X22590047Y-56310861D01*
X22590045Y-56310858D01*
X22429141Y-56149954D01*
X22242734Y-56019432D01*
X22242728Y-56019429D01*
X22184725Y-55992382D01*
X22132285Y-55946210D01*
X22113133Y-55879017D01*
X22133348Y-55812135D01*
X22184725Y-55767618D01*
X22242734Y-55740568D01*
X22429139Y-55610047D01*
X22590047Y-55449139D01*
X22720568Y-55262734D01*
X22816739Y-55056496D01*
X22875635Y-54836692D01*
X22895468Y-54610000D01*
X22875635Y-54383308D01*
X22816739Y-54163504D01*
X22720568Y-53957266D01*
X22590047Y-53770861D01*
X22590045Y-53770858D01*
X22429141Y-53609954D01*
X22242735Y-53479433D01*
X22242736Y-53479433D01*
X22242734Y-53479432D01*
X22184722Y-53452380D01*
X22132284Y-53406208D01*
X22113133Y-53339014D01*
X22133349Y-53272133D01*
X22184721Y-53227619D01*
X22242734Y-53200568D01*
X22429139Y-53070047D01*
X22590047Y-52909139D01*
X22720568Y-52722734D01*
X22816739Y-52516496D01*
X22875635Y-52296692D01*
X22895468Y-52070000D01*
X22875635Y-51843308D01*
X22816739Y-51623504D01*
X22720568Y-51417266D01*
X22590047Y-51230861D01*
X22590045Y-51230858D01*
X22429141Y-51069954D01*
X22242734Y-50939432D01*
X22242728Y-50939429D01*
X22184725Y-50912382D01*
X22132285Y-50866210D01*
X22113133Y-50799017D01*
X22133348Y-50732135D01*
X22184725Y-50687618D01*
X22242734Y-50660568D01*
X22429139Y-50530047D01*
X22590047Y-50369139D01*
X22720568Y-50182734D01*
X22816739Y-49976496D01*
X22875635Y-49756692D01*
X22895468Y-49530000D01*
X22875635Y-49303308D01*
X22816739Y-49083504D01*
X22720568Y-48877266D01*
X22590047Y-48690861D01*
X22590045Y-48690858D01*
X22429141Y-48529954D01*
X22242734Y-48399432D01*
X22242728Y-48399429D01*
X22184725Y-48372382D01*
X22132285Y-48326210D01*
X22113133Y-48259017D01*
X22133348Y-48192135D01*
X22184725Y-48147618D01*
X22242734Y-48120568D01*
X22429139Y-47990047D01*
X22590047Y-47829139D01*
X22720568Y-47642734D01*
X22816739Y-47436496D01*
X22875635Y-47216692D01*
X22895468Y-46990000D01*
X22875635Y-46763308D01*
X22816739Y-46543504D01*
X22720568Y-46337266D01*
X22590047Y-46150861D01*
X22590045Y-46150858D01*
X22429141Y-45989954D01*
X22242734Y-45859432D01*
X22242728Y-45859429D01*
X22184725Y-45832382D01*
X22132285Y-45786210D01*
X22113133Y-45719017D01*
X22133348Y-45652135D01*
X22184725Y-45607618D01*
X22242734Y-45580568D01*
X22429139Y-45450047D01*
X22590047Y-45289139D01*
X22720568Y-45102734D01*
X22816739Y-44896496D01*
X22875635Y-44676692D01*
X22895468Y-44450000D01*
X22875635Y-44223308D01*
X22816739Y-44003504D01*
X22720568Y-43797266D01*
X22590047Y-43610861D01*
X22590045Y-43610858D01*
X22429141Y-43449954D01*
X22242734Y-43319432D01*
X22242728Y-43319429D01*
X22184725Y-43292382D01*
X22132285Y-43246210D01*
X22113133Y-43179017D01*
X22133348Y-43112135D01*
X22184725Y-43067618D01*
X22242734Y-43040568D01*
X22429139Y-42910047D01*
X22590047Y-42749139D01*
X22720568Y-42562734D01*
X22816739Y-42356496D01*
X22875635Y-42136692D01*
X22895468Y-41910000D01*
X22875635Y-41683308D01*
X22816739Y-41463504D01*
X22720568Y-41257266D01*
X22590047Y-41070861D01*
X22590045Y-41070858D01*
X22429141Y-40909954D01*
X22242734Y-40779432D01*
X22242728Y-40779429D01*
X22184725Y-40752382D01*
X22132285Y-40706210D01*
X22113133Y-40639017D01*
X22133348Y-40572135D01*
X22184725Y-40527618D01*
X22242734Y-40500568D01*
X22429139Y-40370047D01*
X22590047Y-40209139D01*
X22720568Y-40022734D01*
X22816739Y-39816496D01*
X22875635Y-39596692D01*
X22895468Y-39370000D01*
X22875635Y-39143308D01*
X22816739Y-38923504D01*
X22720568Y-38717266D01*
X22590047Y-38530861D01*
X22590045Y-38530858D01*
X22429141Y-38369954D01*
X22242734Y-38239432D01*
X22242728Y-38239429D01*
X22184725Y-38212382D01*
X22132285Y-38166210D01*
X22113133Y-38099017D01*
X22133348Y-38032135D01*
X22184725Y-37987618D01*
X22242734Y-37960568D01*
X22429139Y-37830047D01*
X22590047Y-37669139D01*
X22720568Y-37482734D01*
X22816739Y-37276496D01*
X22875635Y-37056692D01*
X22895468Y-36830000D01*
X22892925Y-36800939D01*
X22886079Y-36722685D01*
X22875635Y-36603308D01*
X22828846Y-36428688D01*
X22816741Y-36383511D01*
X22816738Y-36383502D01*
X22815949Y-36381809D01*
X22720568Y-36177266D01*
X22594126Y-35996686D01*
X22590045Y-35990858D01*
X22429141Y-35829954D01*
X22242734Y-35699432D01*
X22242728Y-35699429D01*
X22184882Y-35672455D01*
X22184724Y-35672381D01*
X22132285Y-35626210D01*
X22113133Y-35559017D01*
X22133348Y-35492135D01*
X22184725Y-35447618D01*
X22242734Y-35420568D01*
X22429139Y-35290047D01*
X22590047Y-35129139D01*
X22720568Y-34942734D01*
X22816739Y-34736496D01*
X22875635Y-34516692D01*
X22895468Y-34290000D01*
X22891395Y-34243451D01*
X22887165Y-34195096D01*
X22875635Y-34063308D01*
X22816739Y-33843504D01*
X22720568Y-33637266D01*
X22590047Y-33450861D01*
X22590045Y-33450858D01*
X22429141Y-33289954D01*
X22242734Y-33159432D01*
X22242732Y-33159431D01*
X22036497Y-33063261D01*
X22036488Y-33063258D01*
X21816697Y-33004366D01*
X21816693Y-33004365D01*
X21816692Y-33004365D01*
X21816691Y-33004364D01*
X21816686Y-33004364D01*
X21590002Y-32984532D01*
X21589998Y-32984532D01*
X21363313Y-33004364D01*
X21363302Y-33004366D01*
X21143511Y-33063258D01*
X21143502Y-33063261D01*
X20937267Y-33159431D01*
X20937265Y-33159432D01*
X20750858Y-33289954D01*
X20589954Y-33450858D01*
X20459432Y-33637265D01*
X20459431Y-33637267D01*
X20363261Y-33843502D01*
X20363258Y-33843511D01*
X20304366Y-34063302D01*
X20304364Y-34063313D01*
X20284532Y-34289998D01*
X20284532Y-34290001D01*
X20304364Y-34516686D01*
X20304366Y-34516697D01*
X20363258Y-34736488D01*
X20363261Y-34736497D01*
X20459431Y-34942732D01*
X20459432Y-34942734D01*
X20589954Y-35129141D01*
X20750858Y-35290045D01*
X20750861Y-35290047D01*
X20937266Y-35420568D01*
X20995275Y-35447618D01*
X21047714Y-35493791D01*
X21066866Y-35560984D01*
X21046650Y-35627865D01*
X20995275Y-35672381D01*
X20995118Y-35672455D01*
X20937267Y-35699431D01*
X20937265Y-35699432D01*
X20750858Y-35829954D01*
X20589954Y-35990858D01*
X20459432Y-36177265D01*
X20459431Y-36177267D01*
X20363261Y-36383502D01*
X20363258Y-36383511D01*
X20304366Y-36603302D01*
X20304364Y-36603313D01*
X20284532Y-36829998D01*
X20284532Y-36830001D01*
X20304364Y-37056686D01*
X20304366Y-37056697D01*
X20363258Y-37276488D01*
X20363261Y-37276497D01*
X20459431Y-37482732D01*
X20459432Y-37482734D01*
X20589954Y-37669141D01*
X20750858Y-37830045D01*
X20750861Y-37830047D01*
X20937266Y-37960568D01*
X20995275Y-37987618D01*
X21047714Y-38033791D01*
X21066866Y-38100984D01*
X21046650Y-38167865D01*
X20995275Y-38212382D01*
X20937267Y-38239431D01*
X20937265Y-38239432D01*
X20750858Y-38369954D01*
X20589954Y-38530858D01*
X20459432Y-38717265D01*
X20459431Y-38717267D01*
X20363261Y-38923502D01*
X20363258Y-38923511D01*
X20304366Y-39143302D01*
X20304364Y-39143313D01*
X20284532Y-39369998D01*
X20284532Y-39370001D01*
X20304364Y-39596686D01*
X20304366Y-39596697D01*
X20363258Y-39816488D01*
X20363261Y-39816497D01*
X20459431Y-40022732D01*
X20459432Y-40022734D01*
X20589954Y-40209141D01*
X20750858Y-40370045D01*
X20750861Y-40370047D01*
X20937266Y-40500568D01*
X20964274Y-40513162D01*
X20995275Y-40527618D01*
X21047714Y-40573791D01*
X21066866Y-40640984D01*
X21046650Y-40707865D01*
X20995275Y-40752382D01*
X20937267Y-40779431D01*
X20937265Y-40779432D01*
X20750858Y-40909954D01*
X20589954Y-41070858D01*
X20459432Y-41257265D01*
X20459431Y-41257267D01*
X20363261Y-41463502D01*
X20363258Y-41463511D01*
X20304366Y-41683302D01*
X20304364Y-41683313D01*
X20284532Y-41909998D01*
X20284532Y-41910001D01*
X20304364Y-42136686D01*
X20304366Y-42136697D01*
X20363258Y-42356488D01*
X20363261Y-42356497D01*
X20459431Y-42562732D01*
X20459432Y-42562734D01*
X20589954Y-42749141D01*
X20750858Y-42910045D01*
X20750861Y-42910047D01*
X20937266Y-43040568D01*
X20995275Y-43067618D01*
X21047714Y-43113791D01*
X21066866Y-43180984D01*
X21046650Y-43247865D01*
X20995275Y-43292382D01*
X20937267Y-43319431D01*
X20937265Y-43319432D01*
X20750858Y-43449954D01*
X20589954Y-43610858D01*
X20459432Y-43797265D01*
X20459431Y-43797267D01*
X20363261Y-44003502D01*
X20363258Y-44003511D01*
X20304366Y-44223302D01*
X20304364Y-44223313D01*
X20284532Y-44449998D01*
X20284532Y-44450001D01*
X20304364Y-44676686D01*
X20304366Y-44676697D01*
X20363258Y-44896488D01*
X20363261Y-44896497D01*
X20459431Y-45102732D01*
X20459432Y-45102734D01*
X20589954Y-45289141D01*
X20750858Y-45450045D01*
X20750861Y-45450047D01*
X20937266Y-45580568D01*
X20995275Y-45607618D01*
X21047714Y-45653791D01*
X21066866Y-45720984D01*
X21046650Y-45787865D01*
X20995275Y-45832382D01*
X20937267Y-45859431D01*
X20937265Y-45859432D01*
X20750858Y-45989954D01*
X20589954Y-46150858D01*
X20459432Y-46337265D01*
X20459431Y-46337267D01*
X20363261Y-46543502D01*
X20363258Y-46543511D01*
X20304366Y-46763302D01*
X20304364Y-46763313D01*
X20284532Y-46989998D01*
X20284532Y-46990001D01*
X20304364Y-47216686D01*
X20304366Y-47216697D01*
X20363258Y-47436488D01*
X20363261Y-47436497D01*
X20459431Y-47642732D01*
X20459432Y-47642734D01*
X20589954Y-47829141D01*
X20750858Y-47990045D01*
X20750861Y-47990047D01*
X20937266Y-48120568D01*
X20995275Y-48147618D01*
X21047714Y-48193791D01*
X21066866Y-48260984D01*
X21046650Y-48327865D01*
X20995275Y-48372382D01*
X20937267Y-48399431D01*
X20937265Y-48399432D01*
X20750858Y-48529954D01*
X20589954Y-48690858D01*
X20459432Y-48877265D01*
X20459431Y-48877267D01*
X20363261Y-49083502D01*
X20363258Y-49083511D01*
X20304366Y-49303302D01*
X20304364Y-49303313D01*
X20284532Y-49529998D01*
X20284532Y-49530001D01*
X20304364Y-49756686D01*
X20304366Y-49756697D01*
X20363258Y-49976488D01*
X20363261Y-49976497D01*
X20459431Y-50182732D01*
X20459432Y-50182734D01*
X20589954Y-50369141D01*
X20750858Y-50530045D01*
X20750861Y-50530047D01*
X20937266Y-50660568D01*
X20995275Y-50687618D01*
X21047714Y-50733791D01*
X21066866Y-50800984D01*
X21046650Y-50867865D01*
X20995275Y-50912382D01*
X20937267Y-50939431D01*
X20937265Y-50939432D01*
X20750858Y-51069954D01*
X20589954Y-51230858D01*
X20459432Y-51417265D01*
X20459431Y-51417267D01*
X20363261Y-51623502D01*
X20363258Y-51623511D01*
X20304366Y-51843302D01*
X20304364Y-51843313D01*
X20284532Y-52069998D01*
X20284532Y-52070001D01*
X20304364Y-52296686D01*
X20304366Y-52296697D01*
X20363258Y-52516488D01*
X20363261Y-52516497D01*
X20459431Y-52722732D01*
X20459432Y-52722734D01*
X20589954Y-52909141D01*
X20750858Y-53070045D01*
X20750861Y-53070047D01*
X20937266Y-53200568D01*
X20995275Y-53227618D01*
X21047714Y-53273791D01*
X21066866Y-53340984D01*
X21046650Y-53407865D01*
X20995275Y-53452382D01*
X20937267Y-53479431D01*
X20937265Y-53479432D01*
X20750858Y-53609954D01*
X20589954Y-53770858D01*
X20459432Y-53957265D01*
X20459431Y-53957267D01*
X20363261Y-54163502D01*
X20363258Y-54163511D01*
X20304366Y-54383302D01*
X20304364Y-54383313D01*
X20284532Y-54609998D01*
X20284532Y-54610001D01*
X20304364Y-54836686D01*
X20304366Y-54836697D01*
X20363258Y-55056488D01*
X20363261Y-55056497D01*
X20459431Y-55262732D01*
X20459432Y-55262734D01*
X20589954Y-55449141D01*
X20750858Y-55610045D01*
X20750861Y-55610047D01*
X20937266Y-55740568D01*
X20995275Y-55767618D01*
X21047714Y-55813791D01*
X21066866Y-55880984D01*
X21046650Y-55947865D01*
X20995275Y-55992382D01*
X20937267Y-56019431D01*
X20937265Y-56019432D01*
X20750858Y-56149954D01*
X20589954Y-56310858D01*
X20459432Y-56497265D01*
X20459431Y-56497267D01*
X20363261Y-56703502D01*
X20363258Y-56703511D01*
X20304366Y-56923302D01*
X20304364Y-56923313D01*
X20284532Y-57149998D01*
X20284532Y-57150001D01*
X20304364Y-57376686D01*
X20304366Y-57376697D01*
X20363258Y-57596488D01*
X20363261Y-57596497D01*
X20459431Y-57802732D01*
X20459432Y-57802734D01*
X20589954Y-57989141D01*
X20750858Y-58150045D01*
X20750861Y-58150047D01*
X20937266Y-58280568D01*
X20995275Y-58307618D01*
X21047714Y-58353791D01*
X21066866Y-58420984D01*
X21046650Y-58487865D01*
X20995275Y-58532382D01*
X20937267Y-58559431D01*
X20937265Y-58559432D01*
X20750858Y-58689954D01*
X20589954Y-58850858D01*
X20459432Y-59037265D01*
X20459431Y-59037267D01*
X20363261Y-59243502D01*
X20363258Y-59243511D01*
X20304366Y-59463302D01*
X20304364Y-59463313D01*
X20284532Y-59689998D01*
X20284532Y-59690001D01*
X20304364Y-59916686D01*
X20304366Y-59916697D01*
X20363258Y-60136488D01*
X20363261Y-60136497D01*
X20459431Y-60342732D01*
X20459432Y-60342734D01*
X20589954Y-60529141D01*
X20750858Y-60690045D01*
X20750861Y-60690047D01*
X20937266Y-60820568D01*
X20995275Y-60847618D01*
X21047714Y-60893791D01*
X21066866Y-60960984D01*
X21046650Y-61027865D01*
X20995275Y-61072382D01*
X20937267Y-61099431D01*
X20937265Y-61099432D01*
X20750858Y-61229954D01*
X20589954Y-61390858D01*
X20459432Y-61577265D01*
X20459431Y-61577267D01*
X20363261Y-61783502D01*
X20363258Y-61783511D01*
X20304366Y-62003302D01*
X20304364Y-62003313D01*
X20284532Y-62229998D01*
X20284532Y-62230001D01*
X20304364Y-62456686D01*
X20304366Y-62456697D01*
X20363258Y-62676488D01*
X20363261Y-62676497D01*
X20459431Y-62882732D01*
X20459432Y-62882734D01*
X20589954Y-63069141D01*
X20750858Y-63230045D01*
X20750861Y-63230047D01*
X20937266Y-63360568D01*
X20995275Y-63387618D01*
X21047714Y-63433791D01*
X21066866Y-63500984D01*
X21046650Y-63567865D01*
X20995275Y-63612382D01*
X20937267Y-63639431D01*
X20937265Y-63639432D01*
X20750858Y-63769954D01*
X20589954Y-63930858D01*
X20459432Y-64117265D01*
X20459431Y-64117267D01*
X20363261Y-64323502D01*
X20363258Y-64323511D01*
X20304366Y-64543302D01*
X20304364Y-64543313D01*
X20284532Y-64769998D01*
X20284532Y-64770001D01*
X20304364Y-64996686D01*
X20304366Y-64996697D01*
X20363258Y-65216488D01*
X20363261Y-65216497D01*
X20459431Y-65422732D01*
X20459432Y-65422734D01*
X20589954Y-65609141D01*
X20750858Y-65770045D01*
X20750861Y-65770047D01*
X20937266Y-65900568D01*
X20995865Y-65927893D01*
X21048305Y-65974065D01*
X21067457Y-66041258D01*
X21047242Y-66108139D01*
X20995867Y-66152657D01*
X20937515Y-66179867D01*
X20751179Y-66310342D01*
X20590342Y-66471179D01*
X20459865Y-66657517D01*
X20363734Y-66863673D01*
X20363730Y-66863682D01*
X20311127Y-67059999D01*
X20311128Y-67060000D01*
X21156314Y-67060000D01*
X21130507Y-67100156D01*
X21090000Y-67238111D01*
X21090000Y-67381889D01*
X21130507Y-67519844D01*
X21156314Y-67560000D01*
X20311128Y-67560000D01*
X20363730Y-67756317D01*
X20363734Y-67756326D01*
X20459865Y-67962482D01*
X20590342Y-68148820D01*
X20751179Y-68309657D01*
X20937518Y-68440134D01*
X20937520Y-68440135D01*
X20995865Y-68467342D01*
X21048305Y-68513514D01*
X21067457Y-68580707D01*
X21047242Y-68647589D01*
X20995867Y-68692105D01*
X20937268Y-68719431D01*
X20937264Y-68719433D01*
X20750858Y-68849954D01*
X20589954Y-69010858D01*
X20459432Y-69197265D01*
X20459431Y-69197267D01*
X20363261Y-69403502D01*
X20363258Y-69403511D01*
X20304366Y-69623302D01*
X20304364Y-69623313D01*
X20284532Y-69849998D01*
X20284532Y-69850001D01*
X13327500Y-69850001D01*
X13327500Y-30480002D01*
X54655034Y-30480002D01*
X54674858Y-30706599D01*
X54674860Y-30706610D01*
X54733730Y-30926317D01*
X54733734Y-30926326D01*
X54829865Y-31132481D01*
X54829866Y-31132483D01*
X54880973Y-31205471D01*
X54880974Y-31205472D01*
X55562046Y-30524399D01*
X55574835Y-30605148D01*
X55632359Y-30718045D01*
X55721955Y-30807641D01*
X55834852Y-30865165D01*
X55915599Y-30877953D01*
X55234526Y-31559025D01*
X55234526Y-31559026D01*
X55307512Y-31610131D01*
X55307516Y-31610133D01*
X55513673Y-31706265D01*
X55513682Y-31706269D01*
X55733389Y-31765139D01*
X55733400Y-31765141D01*
X55959998Y-31784966D01*
X55960002Y-31784966D01*
X56186599Y-31765141D01*
X56186610Y-31765139D01*
X56406317Y-31706269D01*
X56406331Y-31706264D01*
X56612478Y-31610136D01*
X56685472Y-31559025D01*
X56004401Y-30877953D01*
X56085148Y-30865165D01*
X56198045Y-30807641D01*
X56287641Y-30718045D01*
X56345165Y-30605148D01*
X56357953Y-30524400D01*
X57039025Y-31205472D01*
X57090136Y-31132478D01*
X57186264Y-30926331D01*
X57186269Y-30926317D01*
X57245139Y-30706610D01*
X57245141Y-30706599D01*
X57264966Y-30480002D01*
X57264966Y-30480001D01*
X59654532Y-30480001D01*
X59674364Y-30706686D01*
X59674366Y-30706697D01*
X59733258Y-30926488D01*
X59733261Y-30926497D01*
X59829431Y-31132732D01*
X59829432Y-31132734D01*
X59959954Y-31319141D01*
X60120858Y-31480045D01*
X60123000Y-31481545D01*
X60307266Y-31610568D01*
X60513504Y-31706739D01*
X60733308Y-31765635D01*
X60874092Y-31777952D01*
X60959998Y-31785468D01*
X60960000Y-31785468D01*
X60960002Y-31785468D01*
X61016673Y-31780509D01*
X61186692Y-31765635D01*
X61406496Y-31706739D01*
X61612734Y-31610568D01*
X61799139Y-31480047D01*
X61960047Y-31319139D01*
X62090568Y-31132734D01*
X62186739Y-30926496D01*
X62245635Y-30706692D01*
X62265468Y-30480000D01*
X62245635Y-30253308D01*
X62186739Y-30033504D01*
X62090568Y-29827266D01*
X61960047Y-29640861D01*
X61960045Y-29640858D01*
X61896819Y-29577632D01*
X61863334Y-29516309D01*
X61860500Y-29489951D01*
X61860500Y-27122125D01*
X109254306Y-27122125D01*
X109274062Y-27436156D01*
X109274063Y-27436160D01*
X109274063Y-27436164D01*
X109274064Y-27436167D01*
X109333027Y-27745261D01*
X109333029Y-27745266D01*
X109430265Y-28044528D01*
X109430267Y-28044533D01*
X109564242Y-28329243D01*
X109564245Y-28329249D01*
X109732847Y-28594925D01*
X109732850Y-28594929D01*
X109732851Y-28594930D01*
X109933428Y-28837386D01*
X110162809Y-29052788D01*
X110162819Y-29052797D01*
X110417379Y-29237746D01*
X110417384Y-29237749D01*
X110693127Y-29389340D01*
X110693135Y-29389344D01*
X110985694Y-29505176D01*
X110985697Y-29505177D01*
X111087292Y-29531261D01*
X111290480Y-29583431D01*
X111443346Y-29602742D01*
X111602656Y-29622869D01*
X111602662Y-29622869D01*
X111602666Y-29622870D01*
X111602668Y-29622870D01*
X111917332Y-29622870D01*
X111917334Y-29622870D01*
X111917339Y-29622869D01*
X111917343Y-29622869D01*
X112000220Y-29612398D01*
X112229520Y-29583431D01*
X112534302Y-29505177D01*
X112572759Y-29489951D01*
X112826864Y-29389344D01*
X112826868Y-29389341D01*
X112826873Y-29389340D01*
X113073538Y-29253734D01*
X113102615Y-29237749D01*
X113102620Y-29237746D01*
X113357180Y-29052797D01*
X113357182Y-29052794D01*
X113357189Y-29052790D01*
X113586572Y-28837386D01*
X113787149Y-28594930D01*
X113955756Y-28329247D01*
X114089735Y-28044527D01*
X114186973Y-27745261D01*
X114245936Y-27436167D01*
X114265694Y-27122120D01*
X114245936Y-26808073D01*
X114186973Y-26498979D01*
X114089735Y-26199713D01*
X113955756Y-25914993D01*
X113787149Y-25649310D01*
X113586572Y-25406854D01*
X113357189Y-25191450D01*
X113357188Y-25191449D01*
X113357180Y-25191442D01*
X113102620Y-25006493D01*
X113102615Y-25006490D01*
X112826872Y-24854899D01*
X112826864Y-24854895D01*
X112534305Y-24739063D01*
X112534302Y-24739062D01*
X112229517Y-24660808D01*
X111917343Y-24621370D01*
X111917334Y-24621370D01*
X111602666Y-24621370D01*
X111602656Y-24621370D01*
X111290482Y-24660808D01*
X110985697Y-24739062D01*
X110985694Y-24739063D01*
X110693135Y-24854895D01*
X110693127Y-24854899D01*
X110417384Y-25006490D01*
X110417379Y-25006493D01*
X110162819Y-25191442D01*
X110162809Y-25191451D01*
X109933430Y-25406852D01*
X109732847Y-25649314D01*
X109564245Y-25914990D01*
X109564242Y-25914996D01*
X109430267Y-26199706D01*
X109430265Y-26199711D01*
X109340036Y-26477405D01*
X109333027Y-26498979D01*
X109274064Y-26808073D01*
X109274063Y-26808079D01*
X109274062Y-26808083D01*
X109254306Y-27122114D01*
X109254306Y-27122125D01*
X61860500Y-27122125D01*
X61860500Y-18770048D01*
X61880185Y-18703009D01*
X61896814Y-18682371D01*
X61960047Y-18619139D01*
X62090568Y-18432734D01*
X62186739Y-18226496D01*
X62245635Y-18006692D01*
X62262634Y-17812384D01*
X62265468Y-17780001D01*
X62265468Y-17779998D01*
X62245635Y-17553313D01*
X62245635Y-17553308D01*
X62186739Y-17333504D01*
X62090568Y-17127266D01*
X61960047Y-16940861D01*
X61960045Y-16940858D01*
X61850950Y-16831763D01*
X110667787Y-16831763D01*
X110697413Y-17101013D01*
X110697415Y-17101024D01*
X110765926Y-17363082D01*
X110765928Y-17363088D01*
X110871870Y-17612390D01*
X110943998Y-17730575D01*
X111012979Y-17843605D01*
X111012986Y-17843615D01*
X111186253Y-18051819D01*
X111186259Y-18051824D01*
X111387998Y-18232582D01*
X111613910Y-18382044D01*
X111859176Y-18497020D01*
X111859183Y-18497022D01*
X111859185Y-18497023D01*
X112118557Y-18575057D01*
X112118564Y-18575058D01*
X112118569Y-18575060D01*
X112386561Y-18614500D01*
X112386566Y-18614500D01*
X112589636Y-18614500D01*
X112641133Y-18610730D01*
X112792156Y-18599677D01*
X112904758Y-18574593D01*
X113056546Y-18540782D01*
X113056548Y-18540781D01*
X113056553Y-18540780D01*
X113309558Y-18444014D01*
X113545777Y-18311441D01*
X113760177Y-18145888D01*
X113948186Y-17950881D01*
X114105799Y-17730579D01*
X114199314Y-17548691D01*
X114229649Y-17489690D01*
X114229651Y-17489684D01*
X114229656Y-17489675D01*
X114317118Y-17233305D01*
X114366319Y-16966933D01*
X114376212Y-16696235D01*
X114346586Y-16426982D01*
X114278072Y-16164912D01*
X114172130Y-15915610D01*
X114031018Y-15684390D01*
X113941747Y-15577119D01*
X113857746Y-15476180D01*
X113857740Y-15476175D01*
X113656002Y-15295418D01*
X113430092Y-15145957D01*
X113430090Y-15145956D01*
X113184824Y-15030980D01*
X113184819Y-15030978D01*
X113184814Y-15030976D01*
X112925442Y-14952942D01*
X112925428Y-14952939D01*
X112809791Y-14935921D01*
X112657439Y-14913500D01*
X112454369Y-14913500D01*
X112454364Y-14913500D01*
X112251844Y-14928323D01*
X112251831Y-14928325D01*
X111987453Y-14987217D01*
X111987446Y-14987220D01*
X111734439Y-15083987D01*
X111498226Y-15216557D01*
X111283822Y-15382112D01*
X111095822Y-15577109D01*
X111095816Y-15577116D01*
X110938202Y-15797419D01*
X110938199Y-15797424D01*
X110814350Y-16038309D01*
X110814343Y-16038327D01*
X110726884Y-16294685D01*
X110726882Y-16294695D01*
X110679124Y-16553258D01*
X110677681Y-16561068D01*
X110677680Y-16561075D01*
X110667787Y-16831763D01*
X61850950Y-16831763D01*
X61799141Y-16779954D01*
X61612734Y-16649432D01*
X61612732Y-16649431D01*
X61406497Y-16553261D01*
X61406488Y-16553258D01*
X61186697Y-16494366D01*
X61186693Y-16494365D01*
X61186692Y-16494365D01*
X61186691Y-16494364D01*
X61186686Y-16494364D01*
X60960002Y-16474532D01*
X60959998Y-16474532D01*
X60733313Y-16494364D01*
X60733302Y-16494366D01*
X60513511Y-16553258D01*
X60513502Y-16553261D01*
X60307267Y-16649431D01*
X60307265Y-16649432D01*
X60120858Y-16779954D01*
X59959954Y-16940858D01*
X59829432Y-17127265D01*
X59829431Y-17127267D01*
X59733261Y-17333502D01*
X59733258Y-17333511D01*
X59674366Y-17553302D01*
X59674364Y-17553313D01*
X59654532Y-17779998D01*
X59654532Y-17780001D01*
X59674364Y-18006686D01*
X59674366Y-18006697D01*
X59733258Y-18226488D01*
X59733261Y-18226497D01*
X59829431Y-18432732D01*
X59829432Y-18432734D01*
X59959949Y-18619134D01*
X59959954Y-18619140D01*
X60023181Y-18682367D01*
X60056666Y-18743690D01*
X60059500Y-18770048D01*
X60059500Y-29489951D01*
X60039815Y-29556990D01*
X60023181Y-29577632D01*
X59959954Y-29640858D01*
X59829432Y-29827265D01*
X59829431Y-29827267D01*
X59733261Y-30033502D01*
X59733258Y-30033511D01*
X59674366Y-30253302D01*
X59674364Y-30253313D01*
X59654532Y-30479998D01*
X59654532Y-30480001D01*
X57264966Y-30480001D01*
X57264966Y-30479997D01*
X57245141Y-30253400D01*
X57245139Y-30253389D01*
X57186269Y-30033682D01*
X57186265Y-30033673D01*
X57090133Y-29827516D01*
X57090131Y-29827512D01*
X57039026Y-29754526D01*
X57039025Y-29754526D01*
X56357953Y-30435598D01*
X56345165Y-30354852D01*
X56287641Y-30241955D01*
X56198045Y-30152359D01*
X56085148Y-30094835D01*
X56004399Y-30082045D01*
X56685472Y-29400973D01*
X56612483Y-29349866D01*
X56612481Y-29349865D01*
X56406326Y-29253734D01*
X56406317Y-29253730D01*
X56186610Y-29194860D01*
X56186599Y-29194858D01*
X55960002Y-29175034D01*
X55959998Y-29175034D01*
X55733400Y-29194858D01*
X55733389Y-29194860D01*
X55513682Y-29253730D01*
X55513673Y-29253734D01*
X55307513Y-29349868D01*
X55234526Y-29400973D01*
X55915598Y-30082046D01*
X55834852Y-30094835D01*
X55721955Y-30152359D01*
X55632359Y-30241955D01*
X55574835Y-30354852D01*
X55562046Y-30435599D01*
X54880973Y-29754526D01*
X54880972Y-29754527D01*
X54829868Y-29827513D01*
X54733734Y-30033673D01*
X54733730Y-30033682D01*
X54674860Y-30253389D01*
X54674858Y-30253400D01*
X54655034Y-30479997D01*
X54655034Y-30480002D01*
X13327500Y-30480002D01*
X13327500Y-17780006D01*
X45584700Y-17780006D01*
X45603864Y-18011297D01*
X45603866Y-18011308D01*
X45660842Y-18236300D01*
X45754075Y-18448848D01*
X45881018Y-18643150D01*
X45976167Y-18746510D01*
X46007089Y-18809164D01*
X45999228Y-18878590D01*
X45955081Y-18932746D01*
X45928271Y-18946674D01*
X45847911Y-18976646D01*
X45847906Y-18976649D01*
X45732812Y-19062809D01*
X45732809Y-19062812D01*
X45646649Y-19177906D01*
X45646645Y-19177913D01*
X45596403Y-19312620D01*
X45596401Y-19312627D01*
X45590000Y-19372155D01*
X45590000Y-20070000D01*
X46614722Y-20070000D01*
X46566375Y-20153740D01*
X46536190Y-20285992D01*
X46546327Y-20421265D01*
X46595887Y-20547541D01*
X46613797Y-20570000D01*
X45590000Y-20570000D01*
X45590000Y-21267844D01*
X45596401Y-21327372D01*
X45596403Y-21327379D01*
X45646645Y-21462086D01*
X45646649Y-21462093D01*
X45732809Y-21577187D01*
X45732812Y-21577190D01*
X45847906Y-21663350D01*
X45847913Y-21663354D01*
X45982620Y-21713596D01*
X45982627Y-21713598D01*
X46042155Y-21719999D01*
X46042172Y-21720000D01*
X46740000Y-21720000D01*
X46740000Y-20694189D01*
X46792547Y-20730016D01*
X46922173Y-20770000D01*
X47023724Y-20770000D01*
X47124138Y-20754865D01*
X47240000Y-20699068D01*
X47240000Y-21720000D01*
X47937828Y-21720000D01*
X47937844Y-21719999D01*
X47997372Y-21713598D01*
X47997379Y-21713596D01*
X48132086Y-21663354D01*
X48132093Y-21663350D01*
X48247187Y-21577190D01*
X48247190Y-21577187D01*
X48333350Y-21462093D01*
X48333354Y-21462086D01*
X48383596Y-21327379D01*
X48383598Y-21327372D01*
X48389999Y-21267844D01*
X48390000Y-21267827D01*
X48390000Y-20570000D01*
X47365278Y-20570000D01*
X47413625Y-20486260D01*
X47443810Y-20354008D01*
X47433673Y-20218735D01*
X47384113Y-20092459D01*
X47366203Y-20070000D01*
X48389999Y-20070000D01*
X48390000Y-19372172D01*
X48389999Y-19372155D01*
X48383598Y-19312627D01*
X48383596Y-19312620D01*
X48333354Y-19177913D01*
X48333350Y-19177906D01*
X48247190Y-19062812D01*
X48247187Y-19062809D01*
X48132093Y-18976649D01*
X48132086Y-18976645D01*
X48051729Y-18946674D01*
X47995795Y-18904803D01*
X47971378Y-18839338D01*
X47986230Y-18771065D01*
X48003826Y-18746516D01*
X48098979Y-18643153D01*
X48225924Y-18448849D01*
X48319157Y-18236300D01*
X48376134Y-18011305D01*
X48376516Y-18006697D01*
X48395300Y-17780006D01*
X48395300Y-17780001D01*
X52034532Y-17780001D01*
X52054364Y-18006686D01*
X52054366Y-18006697D01*
X52113258Y-18226488D01*
X52113261Y-18226497D01*
X52209431Y-18432732D01*
X52209432Y-18432734D01*
X52339954Y-18619141D01*
X52500858Y-18780045D01*
X52500861Y-18780047D01*
X52687266Y-18910568D01*
X52893504Y-19006739D01*
X53113308Y-19065635D01*
X53275230Y-19079801D01*
X53339998Y-19085468D01*
X53340000Y-19085468D01*
X53340002Y-19085468D01*
X53396673Y-19080509D01*
X53566692Y-19065635D01*
X53786496Y-19006739D01*
X53992734Y-18910568D01*
X54179139Y-18780047D01*
X54340047Y-18619139D01*
X54470568Y-18432734D01*
X54566739Y-18226496D01*
X54625635Y-18006692D01*
X54642634Y-17812384D01*
X54645468Y-17780001D01*
X54645468Y-17779998D01*
X54625635Y-17553313D01*
X54625635Y-17553308D01*
X54566739Y-17333504D01*
X54470568Y-17127266D01*
X54340047Y-16940861D01*
X54340045Y-16940858D01*
X54179141Y-16779954D01*
X53992734Y-16649432D01*
X53992732Y-16649431D01*
X53786497Y-16553261D01*
X53786488Y-16553258D01*
X53566697Y-16494366D01*
X53566693Y-16494365D01*
X53566692Y-16494365D01*
X53566691Y-16494364D01*
X53566686Y-16494364D01*
X53340002Y-16474532D01*
X53339998Y-16474532D01*
X53113313Y-16494364D01*
X53113302Y-16494366D01*
X52893511Y-16553258D01*
X52893502Y-16553261D01*
X52687267Y-16649431D01*
X52687265Y-16649432D01*
X52500858Y-16779954D01*
X52339954Y-16940858D01*
X52209432Y-17127265D01*
X52209431Y-17127267D01*
X52113261Y-17333502D01*
X52113258Y-17333511D01*
X52054366Y-17553302D01*
X52054364Y-17553313D01*
X52034532Y-17779998D01*
X52034532Y-17780001D01*
X48395300Y-17780001D01*
X48395300Y-17779993D01*
X48376135Y-17548702D01*
X48376133Y-17548691D01*
X48319157Y-17323699D01*
X48225924Y-17111151D01*
X48098983Y-16916852D01*
X48098980Y-16916849D01*
X48098979Y-16916847D01*
X47941784Y-16746087D01*
X47941779Y-16746083D01*
X47941777Y-16746081D01*
X47758634Y-16603535D01*
X47758628Y-16603531D01*
X47554504Y-16493064D01*
X47554495Y-16493061D01*
X47334984Y-16417702D01*
X47163281Y-16389050D01*
X47106049Y-16379500D01*
X46873951Y-16379500D01*
X46828164Y-16387140D01*
X46645015Y-16417702D01*
X46425504Y-16493061D01*
X46425495Y-16493064D01*
X46221371Y-16603531D01*
X46221365Y-16603535D01*
X46038222Y-16746081D01*
X46038219Y-16746084D01*
X45881016Y-16916852D01*
X45754075Y-17111151D01*
X45660842Y-17323699D01*
X45603866Y-17548691D01*
X45603864Y-17548702D01*
X45584700Y-17779993D01*
X45584700Y-17780006D01*
X13327500Y-17780006D01*
X13327500Y-13846482D01*
X13327890Y-13839535D01*
X13342045Y-13713906D01*
X13348220Y-13686849D01*
X13386516Y-13577408D01*
X13398554Y-13552411D01*
X13460245Y-13454228D01*
X13477548Y-13432532D01*
X13559532Y-13350548D01*
X13581228Y-13333245D01*
X13679411Y-13271554D01*
X13704408Y-13259516D01*
X13813849Y-13221220D01*
X13840906Y-13215045D01*
X13966542Y-13200889D01*
X13973482Y-13200500D01*
X14035892Y-13200500D01*
X115377108Y-13200500D01*
X115439518Y-13200500D01*
X115446457Y-13200889D01*
G37*
%TD.AperFunction*%
%TD*%
M02*
