%TF.GenerationSoftware,KiCad,Pcbnew,7.0.6*%
%TF.CreationDate,2023-08-28T19:35:50+02:00*%
%TF.ProjectId,ps2_mouse_to_serial_port_adapter_ISA_card,7073325f-6d6f-4757-9365-5f746f5f7365,rev?*%
%TF.SameCoordinates,Original*%
%TF.FileFunction,Drillmap*%
%TF.FilePolarity,Positive*%
%FSLAX45Y45*%
G04 Gerber Fmt 4.5, Leading zero omitted, Abs format (unit mm)*
G04 Created by KiCad (PCBNEW 7.0.6) date 2023-08-28 19:35:50*
%MOMM*%
%LPD*%
G01*
G04 APERTURE LIST*
%ADD10C,0.050000*%
%ADD11C,0.200000*%
%ADD12C,0.320000*%
G04 APERTURE END LIST*
D10*
X1282700Y-9982200D02*
G75*
G03*
X1346200Y-10045700I63500J0D01*
G01*
X1397000Y-1270000D02*
X11544300Y-1270000D01*
X11658600Y-1384300D02*
X11658600Y-9029700D01*
X1397000Y-1270000D02*
G75*
G03*
X1282700Y-1384300I0J-114300D01*
G01*
X11544300Y-9144000D02*
G75*
G03*
X11658600Y-9029700I0J114300D01*
G01*
X9321800Y-10045700D02*
G75*
G03*
X9385300Y-9982200I0J63500D01*
G01*
X9461500Y-9144000D02*
G75*
G03*
X9385300Y-9220200I0J-76200D01*
G01*
X11658600Y-1384300D02*
G75*
G03*
X11544300Y-1270000I-114300J0D01*
G01*
X9321800Y-10045700D02*
X1346200Y-10045700D01*
X9461500Y-9144000D02*
X11544300Y-9144000D01*
X9385300Y-9220200D02*
X9385300Y-9982200D01*
X1282700Y-9982200D02*
X1282700Y-1384300D01*
D11*
D12*
X11092200Y-1516400D02*
X11412200Y-1836400D01*
X11412200Y-1516400D02*
X11092200Y-1836400D01*
X11092200Y-8577600D02*
X11412200Y-8897600D01*
X11412200Y-8577600D02*
X11092200Y-8897600D01*
D11*
X1540977Y-10359684D02*
X1540977Y-10159684D01*
X1540977Y-10159684D02*
X1588596Y-10159684D01*
X1588596Y-10159684D02*
X1617167Y-10169208D01*
X1617167Y-10169208D02*
X1636215Y-10188255D01*
X1636215Y-10188255D02*
X1645739Y-10207303D01*
X1645739Y-10207303D02*
X1655262Y-10245398D01*
X1655262Y-10245398D02*
X1655262Y-10273970D01*
X1655262Y-10273970D02*
X1645739Y-10312065D01*
X1645739Y-10312065D02*
X1636215Y-10331112D01*
X1636215Y-10331112D02*
X1617167Y-10350160D01*
X1617167Y-10350160D02*
X1588596Y-10359684D01*
X1588596Y-10359684D02*
X1540977Y-10359684D01*
X1740977Y-10359684D02*
X1740977Y-10226350D01*
X1740977Y-10264446D02*
X1750501Y-10245398D01*
X1750501Y-10245398D02*
X1760024Y-10235874D01*
X1760024Y-10235874D02*
X1779072Y-10226350D01*
X1779072Y-10226350D02*
X1798120Y-10226350D01*
X1864786Y-10359684D02*
X1864786Y-10226350D01*
X1864786Y-10159684D02*
X1855262Y-10169208D01*
X1855262Y-10169208D02*
X1864786Y-10178731D01*
X1864786Y-10178731D02*
X1874310Y-10169208D01*
X1874310Y-10169208D02*
X1864786Y-10159684D01*
X1864786Y-10159684D02*
X1864786Y-10178731D01*
X1988596Y-10359684D02*
X1969548Y-10350160D01*
X1969548Y-10350160D02*
X1960024Y-10331112D01*
X1960024Y-10331112D02*
X1960024Y-10159684D01*
X2093358Y-10359684D02*
X2074310Y-10350160D01*
X2074310Y-10350160D02*
X2064786Y-10331112D01*
X2064786Y-10331112D02*
X2064786Y-10159684D01*
X2321929Y-10359684D02*
X2321929Y-10159684D01*
X2321929Y-10159684D02*
X2388596Y-10302541D01*
X2388596Y-10302541D02*
X2455263Y-10159684D01*
X2455263Y-10159684D02*
X2455263Y-10359684D01*
X2636215Y-10359684D02*
X2636215Y-10254922D01*
X2636215Y-10254922D02*
X2626691Y-10235874D01*
X2626691Y-10235874D02*
X2607644Y-10226350D01*
X2607644Y-10226350D02*
X2569548Y-10226350D01*
X2569548Y-10226350D02*
X2550501Y-10235874D01*
X2636215Y-10350160D02*
X2617167Y-10359684D01*
X2617167Y-10359684D02*
X2569548Y-10359684D01*
X2569548Y-10359684D02*
X2550501Y-10350160D01*
X2550501Y-10350160D02*
X2540977Y-10331112D01*
X2540977Y-10331112D02*
X2540977Y-10312065D01*
X2540977Y-10312065D02*
X2550501Y-10293017D01*
X2550501Y-10293017D02*
X2569548Y-10283493D01*
X2569548Y-10283493D02*
X2617167Y-10283493D01*
X2617167Y-10283493D02*
X2636215Y-10273970D01*
X2731453Y-10226350D02*
X2731453Y-10426350D01*
X2731453Y-10235874D02*
X2750501Y-10226350D01*
X2750501Y-10226350D02*
X2788596Y-10226350D01*
X2788596Y-10226350D02*
X2807643Y-10235874D01*
X2807643Y-10235874D02*
X2817167Y-10245398D01*
X2817167Y-10245398D02*
X2826691Y-10264446D01*
X2826691Y-10264446D02*
X2826691Y-10321589D01*
X2826691Y-10321589D02*
X2817167Y-10340636D01*
X2817167Y-10340636D02*
X2807643Y-10350160D01*
X2807643Y-10350160D02*
X2788596Y-10359684D01*
X2788596Y-10359684D02*
X2750501Y-10359684D01*
X2750501Y-10359684D02*
X2731453Y-10350160D01*
X2912405Y-10340636D02*
X2921929Y-10350160D01*
X2921929Y-10350160D02*
X2912405Y-10359684D01*
X2912405Y-10359684D02*
X2902882Y-10350160D01*
X2902882Y-10350160D02*
X2912405Y-10340636D01*
X2912405Y-10340636D02*
X2912405Y-10359684D01*
X2912405Y-10235874D02*
X2921929Y-10245398D01*
X2921929Y-10245398D02*
X2912405Y-10254922D01*
X2912405Y-10254922D02*
X2902882Y-10245398D01*
X2902882Y-10245398D02*
X2912405Y-10235874D01*
X2912405Y-10235874D02*
X2912405Y-10254922D01*
X1080200Y-10588200D02*
X1280200Y-10788200D01*
X1280200Y-10588200D02*
X1080200Y-10788200D01*
X1521929Y-10579684D02*
X1645739Y-10579684D01*
X1645739Y-10579684D02*
X1579072Y-10655874D01*
X1579072Y-10655874D02*
X1607643Y-10655874D01*
X1607643Y-10655874D02*
X1626691Y-10665398D01*
X1626691Y-10665398D02*
X1636215Y-10674922D01*
X1636215Y-10674922D02*
X1645739Y-10693970D01*
X1645739Y-10693970D02*
X1645739Y-10741589D01*
X1645739Y-10741589D02*
X1636215Y-10760636D01*
X1636215Y-10760636D02*
X1626691Y-10770160D01*
X1626691Y-10770160D02*
X1607643Y-10779684D01*
X1607643Y-10779684D02*
X1550501Y-10779684D01*
X1550501Y-10779684D02*
X1531453Y-10770160D01*
X1531453Y-10770160D02*
X1521929Y-10760636D01*
X1731453Y-10760636D02*
X1740977Y-10770160D01*
X1740977Y-10770160D02*
X1731453Y-10779684D01*
X1731453Y-10779684D02*
X1721929Y-10770160D01*
X1721929Y-10770160D02*
X1731453Y-10760636D01*
X1731453Y-10760636D02*
X1731453Y-10779684D01*
X1817167Y-10598731D02*
X1826691Y-10589208D01*
X1826691Y-10589208D02*
X1845739Y-10579684D01*
X1845739Y-10579684D02*
X1893358Y-10579684D01*
X1893358Y-10579684D02*
X1912405Y-10589208D01*
X1912405Y-10589208D02*
X1921929Y-10598731D01*
X1921929Y-10598731D02*
X1931453Y-10617779D01*
X1931453Y-10617779D02*
X1931453Y-10636827D01*
X1931453Y-10636827D02*
X1921929Y-10665398D01*
X1921929Y-10665398D02*
X1807643Y-10779684D01*
X1807643Y-10779684D02*
X1931453Y-10779684D01*
X2055262Y-10579684D02*
X2074310Y-10579684D01*
X2074310Y-10579684D02*
X2093358Y-10589208D01*
X2093358Y-10589208D02*
X2102882Y-10598731D01*
X2102882Y-10598731D02*
X2112405Y-10617779D01*
X2112405Y-10617779D02*
X2121929Y-10655874D01*
X2121929Y-10655874D02*
X2121929Y-10703493D01*
X2121929Y-10703493D02*
X2112405Y-10741589D01*
X2112405Y-10741589D02*
X2102882Y-10760636D01*
X2102882Y-10760636D02*
X2093358Y-10770160D01*
X2093358Y-10770160D02*
X2074310Y-10779684D01*
X2074310Y-10779684D02*
X2055262Y-10779684D01*
X2055262Y-10779684D02*
X2036215Y-10770160D01*
X2036215Y-10770160D02*
X2026691Y-10760636D01*
X2026691Y-10760636D02*
X2017167Y-10741589D01*
X2017167Y-10741589D02*
X2007643Y-10703493D01*
X2007643Y-10703493D02*
X2007643Y-10655874D01*
X2007643Y-10655874D02*
X2017167Y-10617779D01*
X2017167Y-10617779D02*
X2026691Y-10598731D01*
X2026691Y-10598731D02*
X2036215Y-10589208D01*
X2036215Y-10589208D02*
X2055262Y-10579684D01*
X2245739Y-10579684D02*
X2264786Y-10579684D01*
X2264786Y-10579684D02*
X2283834Y-10589208D01*
X2283834Y-10589208D02*
X2293358Y-10598731D01*
X2293358Y-10598731D02*
X2302882Y-10617779D01*
X2302882Y-10617779D02*
X2312405Y-10655874D01*
X2312405Y-10655874D02*
X2312405Y-10703493D01*
X2312405Y-10703493D02*
X2302882Y-10741589D01*
X2302882Y-10741589D02*
X2293358Y-10760636D01*
X2293358Y-10760636D02*
X2283834Y-10770160D01*
X2283834Y-10770160D02*
X2264786Y-10779684D01*
X2264786Y-10779684D02*
X2245739Y-10779684D01*
X2245739Y-10779684D02*
X2226691Y-10770160D01*
X2226691Y-10770160D02*
X2217167Y-10760636D01*
X2217167Y-10760636D02*
X2207644Y-10741589D01*
X2207644Y-10741589D02*
X2198120Y-10703493D01*
X2198120Y-10703493D02*
X2198120Y-10655874D01*
X2198120Y-10655874D02*
X2207644Y-10617779D01*
X2207644Y-10617779D02*
X2217167Y-10598731D01*
X2217167Y-10598731D02*
X2226691Y-10589208D01*
X2226691Y-10589208D02*
X2245739Y-10579684D01*
X2398120Y-10779684D02*
X2398120Y-10646350D01*
X2398120Y-10665398D02*
X2407644Y-10655874D01*
X2407644Y-10655874D02*
X2426691Y-10646350D01*
X2426691Y-10646350D02*
X2455263Y-10646350D01*
X2455263Y-10646350D02*
X2474310Y-10655874D01*
X2474310Y-10655874D02*
X2483834Y-10674922D01*
X2483834Y-10674922D02*
X2483834Y-10779684D01*
X2483834Y-10674922D02*
X2493358Y-10655874D01*
X2493358Y-10655874D02*
X2512405Y-10646350D01*
X2512405Y-10646350D02*
X2540977Y-10646350D01*
X2540977Y-10646350D02*
X2560025Y-10655874D01*
X2560025Y-10655874D02*
X2569548Y-10674922D01*
X2569548Y-10674922D02*
X2569548Y-10779684D01*
X2664786Y-10779684D02*
X2664786Y-10646350D01*
X2664786Y-10665398D02*
X2674310Y-10655874D01*
X2674310Y-10655874D02*
X2693358Y-10646350D01*
X2693358Y-10646350D02*
X2721929Y-10646350D01*
X2721929Y-10646350D02*
X2740977Y-10655874D01*
X2740977Y-10655874D02*
X2750501Y-10674922D01*
X2750501Y-10674922D02*
X2750501Y-10779684D01*
X2750501Y-10674922D02*
X2760025Y-10655874D01*
X2760025Y-10655874D02*
X2779072Y-10646350D01*
X2779072Y-10646350D02*
X2807643Y-10646350D01*
X2807643Y-10646350D02*
X2826691Y-10655874D01*
X2826691Y-10655874D02*
X2836215Y-10674922D01*
X2836215Y-10674922D02*
X2836215Y-10779684D01*
X3226691Y-10570160D02*
X3055263Y-10827303D01*
X3483834Y-10579684D02*
X3502882Y-10579684D01*
X3502882Y-10579684D02*
X3521929Y-10589208D01*
X3521929Y-10589208D02*
X3531453Y-10598731D01*
X3531453Y-10598731D02*
X3540977Y-10617779D01*
X3540977Y-10617779D02*
X3550501Y-10655874D01*
X3550501Y-10655874D02*
X3550501Y-10703493D01*
X3550501Y-10703493D02*
X3540977Y-10741589D01*
X3540977Y-10741589D02*
X3531453Y-10760636D01*
X3531453Y-10760636D02*
X3521929Y-10770160D01*
X3521929Y-10770160D02*
X3502882Y-10779684D01*
X3502882Y-10779684D02*
X3483834Y-10779684D01*
X3483834Y-10779684D02*
X3464786Y-10770160D01*
X3464786Y-10770160D02*
X3455263Y-10760636D01*
X3455263Y-10760636D02*
X3445739Y-10741589D01*
X3445739Y-10741589D02*
X3436215Y-10703493D01*
X3436215Y-10703493D02*
X3436215Y-10655874D01*
X3436215Y-10655874D02*
X3445739Y-10617779D01*
X3445739Y-10617779D02*
X3455263Y-10598731D01*
X3455263Y-10598731D02*
X3464786Y-10589208D01*
X3464786Y-10589208D02*
X3483834Y-10579684D01*
X3636215Y-10760636D02*
X3645739Y-10770160D01*
X3645739Y-10770160D02*
X3636215Y-10779684D01*
X3636215Y-10779684D02*
X3626691Y-10770160D01*
X3626691Y-10770160D02*
X3636215Y-10760636D01*
X3636215Y-10760636D02*
X3636215Y-10779684D01*
X3836215Y-10779684D02*
X3721929Y-10779684D01*
X3779072Y-10779684D02*
X3779072Y-10579684D01*
X3779072Y-10579684D02*
X3760025Y-10608255D01*
X3760025Y-10608255D02*
X3740977Y-10627303D01*
X3740977Y-10627303D02*
X3721929Y-10636827D01*
X3912406Y-10598731D02*
X3921929Y-10589208D01*
X3921929Y-10589208D02*
X3940977Y-10579684D01*
X3940977Y-10579684D02*
X3988596Y-10579684D01*
X3988596Y-10579684D02*
X4007644Y-10589208D01*
X4007644Y-10589208D02*
X4017167Y-10598731D01*
X4017167Y-10598731D02*
X4026691Y-10617779D01*
X4026691Y-10617779D02*
X4026691Y-10636827D01*
X4026691Y-10636827D02*
X4017167Y-10665398D01*
X4017167Y-10665398D02*
X3902882Y-10779684D01*
X3902882Y-10779684D02*
X4026691Y-10779684D01*
X4198120Y-10579684D02*
X4160025Y-10579684D01*
X4160025Y-10579684D02*
X4140977Y-10589208D01*
X4140977Y-10589208D02*
X4131453Y-10598731D01*
X4131453Y-10598731D02*
X4112406Y-10627303D01*
X4112406Y-10627303D02*
X4102882Y-10665398D01*
X4102882Y-10665398D02*
X4102882Y-10741589D01*
X4102882Y-10741589D02*
X4112406Y-10760636D01*
X4112406Y-10760636D02*
X4121929Y-10770160D01*
X4121929Y-10770160D02*
X4140977Y-10779684D01*
X4140977Y-10779684D02*
X4179072Y-10779684D01*
X4179072Y-10779684D02*
X4198120Y-10770160D01*
X4198120Y-10770160D02*
X4207644Y-10760636D01*
X4207644Y-10760636D02*
X4217168Y-10741589D01*
X4217168Y-10741589D02*
X4217168Y-10693970D01*
X4217168Y-10693970D02*
X4207644Y-10674922D01*
X4207644Y-10674922D02*
X4198120Y-10665398D01*
X4198120Y-10665398D02*
X4179072Y-10655874D01*
X4179072Y-10655874D02*
X4140977Y-10655874D01*
X4140977Y-10655874D02*
X4121929Y-10665398D01*
X4121929Y-10665398D02*
X4112406Y-10674922D01*
X4112406Y-10674922D02*
X4102882Y-10693970D01*
X4340977Y-10579684D02*
X4360025Y-10579684D01*
X4360025Y-10579684D02*
X4379072Y-10589208D01*
X4379072Y-10589208D02*
X4388596Y-10598731D01*
X4388596Y-10598731D02*
X4398120Y-10617779D01*
X4398120Y-10617779D02*
X4407644Y-10655874D01*
X4407644Y-10655874D02*
X4407644Y-10703493D01*
X4407644Y-10703493D02*
X4398120Y-10741589D01*
X4398120Y-10741589D02*
X4388596Y-10760636D01*
X4388596Y-10760636D02*
X4379072Y-10770160D01*
X4379072Y-10770160D02*
X4360025Y-10779684D01*
X4360025Y-10779684D02*
X4340977Y-10779684D01*
X4340977Y-10779684D02*
X4321929Y-10770160D01*
X4321929Y-10770160D02*
X4312406Y-10760636D01*
X4312406Y-10760636D02*
X4302882Y-10741589D01*
X4302882Y-10741589D02*
X4293358Y-10703493D01*
X4293358Y-10703493D02*
X4293358Y-10655874D01*
X4293358Y-10655874D02*
X4302882Y-10617779D01*
X4302882Y-10617779D02*
X4312406Y-10598731D01*
X4312406Y-10598731D02*
X4321929Y-10589208D01*
X4321929Y-10589208D02*
X4340977Y-10579684D01*
X4483834Y-10579684D02*
X4483834Y-10617779D01*
X4560025Y-10579684D02*
X4560025Y-10617779D01*
X4855263Y-10855874D02*
X4845739Y-10846350D01*
X4845739Y-10846350D02*
X4826691Y-10817779D01*
X4826691Y-10817779D02*
X4817168Y-10798731D01*
X4817168Y-10798731D02*
X4807644Y-10770160D01*
X4807644Y-10770160D02*
X4798120Y-10722541D01*
X4798120Y-10722541D02*
X4798120Y-10684446D01*
X4798120Y-10684446D02*
X4807644Y-10636827D01*
X4807644Y-10636827D02*
X4817168Y-10608255D01*
X4817168Y-10608255D02*
X4826691Y-10589208D01*
X4826691Y-10589208D02*
X4845739Y-10560636D01*
X4845739Y-10560636D02*
X4855263Y-10551112D01*
X4921930Y-10598731D02*
X4931453Y-10589208D01*
X4931453Y-10589208D02*
X4950501Y-10579684D01*
X4950501Y-10579684D02*
X4998120Y-10579684D01*
X4998120Y-10579684D02*
X5017168Y-10589208D01*
X5017168Y-10589208D02*
X5026691Y-10598731D01*
X5026691Y-10598731D02*
X5036215Y-10617779D01*
X5036215Y-10617779D02*
X5036215Y-10636827D01*
X5036215Y-10636827D02*
X5026691Y-10665398D01*
X5026691Y-10665398D02*
X4912406Y-10779684D01*
X4912406Y-10779684D02*
X5036215Y-10779684D01*
X5274311Y-10779684D02*
X5274311Y-10579684D01*
X5360025Y-10779684D02*
X5360025Y-10674922D01*
X5360025Y-10674922D02*
X5350501Y-10655874D01*
X5350501Y-10655874D02*
X5331453Y-10646350D01*
X5331453Y-10646350D02*
X5302882Y-10646350D01*
X5302882Y-10646350D02*
X5283834Y-10655874D01*
X5283834Y-10655874D02*
X5274311Y-10665398D01*
X5483834Y-10779684D02*
X5464787Y-10770160D01*
X5464787Y-10770160D02*
X5455263Y-10760636D01*
X5455263Y-10760636D02*
X5445739Y-10741589D01*
X5445739Y-10741589D02*
X5445739Y-10684446D01*
X5445739Y-10684446D02*
X5455263Y-10665398D01*
X5455263Y-10665398D02*
X5464787Y-10655874D01*
X5464787Y-10655874D02*
X5483834Y-10646350D01*
X5483834Y-10646350D02*
X5512406Y-10646350D01*
X5512406Y-10646350D02*
X5531453Y-10655874D01*
X5531453Y-10655874D02*
X5540977Y-10665398D01*
X5540977Y-10665398D02*
X5550501Y-10684446D01*
X5550501Y-10684446D02*
X5550501Y-10741589D01*
X5550501Y-10741589D02*
X5540977Y-10760636D01*
X5540977Y-10760636D02*
X5531453Y-10770160D01*
X5531453Y-10770160D02*
X5512406Y-10779684D01*
X5512406Y-10779684D02*
X5483834Y-10779684D01*
X5664787Y-10779684D02*
X5645739Y-10770160D01*
X5645739Y-10770160D02*
X5636215Y-10751112D01*
X5636215Y-10751112D02*
X5636215Y-10579684D01*
X5817168Y-10770160D02*
X5798120Y-10779684D01*
X5798120Y-10779684D02*
X5760025Y-10779684D01*
X5760025Y-10779684D02*
X5740977Y-10770160D01*
X5740977Y-10770160D02*
X5731453Y-10751112D01*
X5731453Y-10751112D02*
X5731453Y-10674922D01*
X5731453Y-10674922D02*
X5740977Y-10655874D01*
X5740977Y-10655874D02*
X5760025Y-10646350D01*
X5760025Y-10646350D02*
X5798120Y-10646350D01*
X5798120Y-10646350D02*
X5817168Y-10655874D01*
X5817168Y-10655874D02*
X5826691Y-10674922D01*
X5826691Y-10674922D02*
X5826691Y-10693970D01*
X5826691Y-10693970D02*
X5731453Y-10713017D01*
X5902882Y-10770160D02*
X5921930Y-10779684D01*
X5921930Y-10779684D02*
X5960025Y-10779684D01*
X5960025Y-10779684D02*
X5979072Y-10770160D01*
X5979072Y-10770160D02*
X5988596Y-10751112D01*
X5988596Y-10751112D02*
X5988596Y-10741589D01*
X5988596Y-10741589D02*
X5979072Y-10722541D01*
X5979072Y-10722541D02*
X5960025Y-10713017D01*
X5960025Y-10713017D02*
X5931453Y-10713017D01*
X5931453Y-10713017D02*
X5912406Y-10703493D01*
X5912406Y-10703493D02*
X5902882Y-10684446D01*
X5902882Y-10684446D02*
X5902882Y-10674922D01*
X5902882Y-10674922D02*
X5912406Y-10655874D01*
X5912406Y-10655874D02*
X5931453Y-10646350D01*
X5931453Y-10646350D02*
X5960025Y-10646350D01*
X5960025Y-10646350D02*
X5979072Y-10655874D01*
X6055263Y-10855874D02*
X6064787Y-10846350D01*
X6064787Y-10846350D02*
X6083834Y-10817779D01*
X6083834Y-10817779D02*
X6093358Y-10798731D01*
X6093358Y-10798731D02*
X6102882Y-10770160D01*
X6102882Y-10770160D02*
X6112406Y-10722541D01*
X6112406Y-10722541D02*
X6112406Y-10684446D01*
X6112406Y-10684446D02*
X6102882Y-10636827D01*
X6102882Y-10636827D02*
X6093358Y-10608255D01*
X6093358Y-10608255D02*
X6083834Y-10589208D01*
X6083834Y-10589208D02*
X6064787Y-10560636D01*
X6064787Y-10560636D02*
X6055263Y-10551112D01*
X6417168Y-10855874D02*
X6407644Y-10846350D01*
X6407644Y-10846350D02*
X6388596Y-10817779D01*
X6388596Y-10817779D02*
X6379072Y-10798731D01*
X6379072Y-10798731D02*
X6369549Y-10770160D01*
X6369549Y-10770160D02*
X6360025Y-10722541D01*
X6360025Y-10722541D02*
X6360025Y-10684446D01*
X6360025Y-10684446D02*
X6369549Y-10636827D01*
X6369549Y-10636827D02*
X6379072Y-10608255D01*
X6379072Y-10608255D02*
X6388596Y-10589208D01*
X6388596Y-10589208D02*
X6407644Y-10560636D01*
X6407644Y-10560636D02*
X6417168Y-10551112D01*
X6493358Y-10646350D02*
X6493358Y-10779684D01*
X6493358Y-10665398D02*
X6502882Y-10655874D01*
X6502882Y-10655874D02*
X6521930Y-10646350D01*
X6521930Y-10646350D02*
X6550501Y-10646350D01*
X6550501Y-10646350D02*
X6569549Y-10655874D01*
X6569549Y-10655874D02*
X6579072Y-10674922D01*
X6579072Y-10674922D02*
X6579072Y-10779684D01*
X6702882Y-10779684D02*
X6683834Y-10770160D01*
X6683834Y-10770160D02*
X6674311Y-10760636D01*
X6674311Y-10760636D02*
X6664787Y-10741589D01*
X6664787Y-10741589D02*
X6664787Y-10684446D01*
X6664787Y-10684446D02*
X6674311Y-10665398D01*
X6674311Y-10665398D02*
X6683834Y-10655874D01*
X6683834Y-10655874D02*
X6702882Y-10646350D01*
X6702882Y-10646350D02*
X6731453Y-10646350D01*
X6731453Y-10646350D02*
X6750501Y-10655874D01*
X6750501Y-10655874D02*
X6760025Y-10665398D01*
X6760025Y-10665398D02*
X6769549Y-10684446D01*
X6769549Y-10684446D02*
X6769549Y-10741589D01*
X6769549Y-10741589D02*
X6760025Y-10760636D01*
X6760025Y-10760636D02*
X6750501Y-10770160D01*
X6750501Y-10770160D02*
X6731453Y-10779684D01*
X6731453Y-10779684D02*
X6702882Y-10779684D01*
X6826692Y-10646350D02*
X6902882Y-10646350D01*
X6855263Y-10579684D02*
X6855263Y-10751112D01*
X6855263Y-10751112D02*
X6864787Y-10770160D01*
X6864787Y-10770160D02*
X6883834Y-10779684D01*
X6883834Y-10779684D02*
X6902882Y-10779684D01*
X7121930Y-10646350D02*
X7121930Y-10846350D01*
X7121930Y-10655874D02*
X7140977Y-10646350D01*
X7140977Y-10646350D02*
X7179073Y-10646350D01*
X7179073Y-10646350D02*
X7198120Y-10655874D01*
X7198120Y-10655874D02*
X7207644Y-10665398D01*
X7207644Y-10665398D02*
X7217168Y-10684446D01*
X7217168Y-10684446D02*
X7217168Y-10741589D01*
X7217168Y-10741589D02*
X7207644Y-10760636D01*
X7207644Y-10760636D02*
X7198120Y-10770160D01*
X7198120Y-10770160D02*
X7179073Y-10779684D01*
X7179073Y-10779684D02*
X7140977Y-10779684D01*
X7140977Y-10779684D02*
X7121930Y-10770160D01*
X7331453Y-10779684D02*
X7312406Y-10770160D01*
X7312406Y-10770160D02*
X7302882Y-10751112D01*
X7302882Y-10751112D02*
X7302882Y-10579684D01*
X7493358Y-10779684D02*
X7493358Y-10674922D01*
X7493358Y-10674922D02*
X7483834Y-10655874D01*
X7483834Y-10655874D02*
X7464787Y-10646350D01*
X7464787Y-10646350D02*
X7426692Y-10646350D01*
X7426692Y-10646350D02*
X7407644Y-10655874D01*
X7493358Y-10770160D02*
X7474311Y-10779684D01*
X7474311Y-10779684D02*
X7426692Y-10779684D01*
X7426692Y-10779684D02*
X7407644Y-10770160D01*
X7407644Y-10770160D02*
X7398120Y-10751112D01*
X7398120Y-10751112D02*
X7398120Y-10732065D01*
X7398120Y-10732065D02*
X7407644Y-10713017D01*
X7407644Y-10713017D02*
X7426692Y-10703493D01*
X7426692Y-10703493D02*
X7474311Y-10703493D01*
X7474311Y-10703493D02*
X7493358Y-10693970D01*
X7560025Y-10646350D02*
X7636215Y-10646350D01*
X7588596Y-10579684D02*
X7588596Y-10751112D01*
X7588596Y-10751112D02*
X7598120Y-10770160D01*
X7598120Y-10770160D02*
X7617168Y-10779684D01*
X7617168Y-10779684D02*
X7636215Y-10779684D01*
X7779073Y-10770160D02*
X7760025Y-10779684D01*
X7760025Y-10779684D02*
X7721930Y-10779684D01*
X7721930Y-10779684D02*
X7702882Y-10770160D01*
X7702882Y-10770160D02*
X7693358Y-10751112D01*
X7693358Y-10751112D02*
X7693358Y-10674922D01*
X7693358Y-10674922D02*
X7702882Y-10655874D01*
X7702882Y-10655874D02*
X7721930Y-10646350D01*
X7721930Y-10646350D02*
X7760025Y-10646350D01*
X7760025Y-10646350D02*
X7779073Y-10655874D01*
X7779073Y-10655874D02*
X7788596Y-10674922D01*
X7788596Y-10674922D02*
X7788596Y-10693970D01*
X7788596Y-10693970D02*
X7693358Y-10713017D01*
X7960025Y-10779684D02*
X7960025Y-10579684D01*
X7960025Y-10770160D02*
X7940977Y-10779684D01*
X7940977Y-10779684D02*
X7902882Y-10779684D01*
X7902882Y-10779684D02*
X7883834Y-10770160D01*
X7883834Y-10770160D02*
X7874311Y-10760636D01*
X7874311Y-10760636D02*
X7864787Y-10741589D01*
X7864787Y-10741589D02*
X7864787Y-10684446D01*
X7864787Y-10684446D02*
X7874311Y-10665398D01*
X7874311Y-10665398D02*
X7883834Y-10655874D01*
X7883834Y-10655874D02*
X7902882Y-10646350D01*
X7902882Y-10646350D02*
X7940977Y-10646350D01*
X7940977Y-10646350D02*
X7960025Y-10655874D01*
X8036215Y-10855874D02*
X8045739Y-10846350D01*
X8045739Y-10846350D02*
X8064787Y-10817779D01*
X8064787Y-10817779D02*
X8074311Y-10798731D01*
X8074311Y-10798731D02*
X8083834Y-10770160D01*
X8083834Y-10770160D02*
X8093358Y-10722541D01*
X8093358Y-10722541D02*
X8093358Y-10684446D01*
X8093358Y-10684446D02*
X8083834Y-10636827D01*
X8083834Y-10636827D02*
X8074311Y-10608255D01*
X8074311Y-10608255D02*
X8064787Y-10589208D01*
X8064787Y-10589208D02*
X8045739Y-10560636D01*
X8045739Y-10560636D02*
X8036215Y-10551112D01*
M02*
