%TF.GenerationSoftware,KiCad,Pcbnew,7.0.6*%
%TF.CreationDate,2023-08-14T15:02:37+02:00*%
%TF.ProjectId,ps2_mouse_to_serial_port_adapter_in_a_box,7073325f-6d6f-4757-9365-5f746f5f7365,rev?*%
%TF.SameCoordinates,Original*%
%TF.FileFunction,Soldermask,Bot*%
%TF.FilePolarity,Negative*%
%FSLAX46Y46*%
G04 Gerber Fmt 4.6, Leading zero omitted, Abs format (unit mm)*
G04 Created by KiCad (PCBNEW 7.0.6) date 2023-08-14 15:02:37*
%MOMM*%
%LPD*%
G01*
G04 APERTURE LIST*
%ADD10C,3.200000*%
%ADD11R,2.100000X2.100000*%
%ADD12C,2.100000*%
%ADD13R,1.600000X1.600000*%
%ADD14C,1.600000*%
%ADD15R,2.200000X2.200000*%
%ADD16O,2.200000X2.200000*%
%ADD17R,1.800000X1.800000*%
%ADD18C,1.800000*%
%ADD19O,1.600000X1.600000*%
%ADD20R,1.500000X1.050000*%
%ADD21O,1.500000X1.050000*%
%ADD22R,1.050000X1.500000*%
%ADD23O,1.050000X1.500000*%
%ADD24R,1.905000X2.000000*%
%ADD25O,1.905000X2.000000*%
%ADD26R,1.700000X1.700000*%
%ADD27O,1.700000X1.700000*%
G04 APERTURE END LIST*
D10*
%TO.C,H4*%
X99069000Y-79069000D03*
%TD*%
%TO.C,H3*%
X15569000Y-79069000D03*
%TD*%
%TO.C,H2*%
X99069000Y-15569000D03*
%TD*%
%TO.C,H1*%
X15569000Y-15569000D03*
%TD*%
D11*
%TO.C,J1*%
X19219000Y-67639000D03*
D12*
X19219000Y-70179000D03*
%TD*%
D13*
%TO.C,C5*%
X75099000Y-73999000D03*
D14*
X75099000Y-77799000D03*
%TD*%
D15*
%TO.C,D2*%
X29379000Y-65099000D03*
D16*
X29379000Y-54939000D03*
%TD*%
D17*
%TO.C,D4*%
X97959000Y-70179000D03*
D18*
X95419000Y-70179000D03*
%TD*%
D13*
%TO.C,U1*%
X39539000Y-49859000D03*
D19*
X39539000Y-52399000D03*
X39539000Y-54939000D03*
X39539000Y-57479000D03*
X39539000Y-60019000D03*
X39539000Y-62559000D03*
X39539000Y-65099000D03*
X47159000Y-65099000D03*
X47159000Y-62559000D03*
X47159000Y-60019000D03*
X47159000Y-57479000D03*
X47159000Y-54939000D03*
X47159000Y-52399000D03*
X47159000Y-49859000D03*
%TD*%
D13*
%TO.C,D1*%
X29379000Y-19379000D03*
D19*
X29379000Y-26999000D03*
%TD*%
D14*
%TO.C,R1*%
X47159000Y-26999000D03*
D19*
X47159000Y-19379000D03*
%TD*%
D14*
%TO.C,C3*%
X39539000Y-72719000D03*
X39539000Y-77719000D03*
%TD*%
%TO.C,R2*%
X39539000Y-26999000D03*
D19*
X39539000Y-19379000D03*
%TD*%
D17*
%TO.C,D3*%
X97959000Y-62559000D03*
D18*
X95419000Y-62559000D03*
%TD*%
D20*
%TO.C,U2*%
X34459000Y-21919000D03*
D21*
X34459000Y-20649000D03*
X34459000Y-19379000D03*
%TD*%
D14*
%TO.C,R3*%
X47159000Y-34619000D03*
D19*
X39539000Y-34619000D03*
%TD*%
D14*
%TO.C,R4*%
X81449000Y-62559000D03*
D19*
X89069000Y-62559000D03*
%TD*%
D14*
%TO.C,C4*%
X64939000Y-72719000D03*
X64939000Y-77719000D03*
%TD*%
D11*
%TO.C,J3*%
X19219000Y-24459000D03*
D12*
X19219000Y-26999000D03*
X19219000Y-29539000D03*
%TD*%
D22*
%TO.C,Q1*%
X35729000Y-34619000D03*
D23*
X34459000Y-34619000D03*
X33189000Y-34619000D03*
%TD*%
D13*
%TO.C,A1*%
X75099000Y-54939000D03*
D19*
X75099000Y-52399000D03*
X75099000Y-49859000D03*
X75099000Y-47319000D03*
X75099000Y-44779000D03*
X75099000Y-42239000D03*
X75099000Y-39699000D03*
X75099000Y-37159000D03*
X75099000Y-34619000D03*
X75099000Y-32079000D03*
X75099000Y-29539000D03*
X75099000Y-26999000D03*
X75099000Y-24459000D03*
X75099000Y-21919000D03*
X75099000Y-19379000D03*
X59859000Y-19379000D03*
X59859000Y-21919000D03*
X59859000Y-24459000D03*
X59859000Y-26999000D03*
X59859000Y-29539000D03*
X59859000Y-32079000D03*
X59859000Y-34619000D03*
X59859000Y-37159000D03*
X59859000Y-39699000D03*
X59859000Y-42239000D03*
X59859000Y-44779000D03*
X59859000Y-47319000D03*
X59859000Y-49859000D03*
X59859000Y-52399000D03*
X59859000Y-54939000D03*
%TD*%
D14*
%TO.C,R5*%
X81449000Y-70179000D03*
D19*
X89069000Y-70179000D03*
%TD*%
D24*
%TO.C,U3*%
X49699000Y-77799000D03*
D25*
X52239000Y-77799000D03*
X54779000Y-77799000D03*
%TD*%
D26*
%TO.C,J2*%
X95419000Y-24459000D03*
D27*
X97959000Y-24459000D03*
X95419000Y-26999000D03*
X97959000Y-26999000D03*
X95419000Y-29539000D03*
X97959000Y-29539000D03*
X95419000Y-32079000D03*
X97959000Y-32079000D03*
%TD*%
D13*
%TO.C,C2*%
X29379000Y-73999000D03*
D14*
X29379000Y-77799000D03*
%TD*%
D13*
%TO.C,C1*%
X89079000Y-47319000D03*
D14*
X92879000Y-47319000D03*
%TD*%
D11*
%TO.C,SW1*%
X19219000Y-54939000D03*
D12*
X19219000Y-57479000D03*
%TD*%
D14*
%TO.C,C6*%
X44539000Y-44779000D03*
X39539000Y-44779000D03*
%TD*%
M02*
