%TF.GenerationSoftware,KiCad,Pcbnew,7.0.6*%
%TF.CreationDate,2023-08-28T19:52:05+02:00*%
%TF.ProjectId,ps2_mouse_to_serial_port_adapter_in_a_box,7073325f-6d6f-4757-9365-5f746f5f7365,rev?*%
%TF.SameCoordinates,Original*%
%TF.FileFunction,Drillmap*%
%TF.FilePolarity,Positive*%
%FSLAX45Y45*%
G04 Gerber Fmt 4.5, Leading zero omitted, Abs format (unit mm)*
G04 Created by KiCad (PCBNEW 7.0.6) date 2023-08-28 19:52:05*
%MOMM*%
%LPD*%
G01*
G04 APERTURE LIST*
%ADD10C,0.050000*%
%ADD11C,0.200000*%
%ADD12C,0.075000*%
%ADD13C,0.080000*%
%ADD14C,0.090000*%
%ADD15C,0.100000*%
%ADD16C,0.110000*%
G04 APERTURE END LIST*
D10*
X1231900Y-1231900D02*
X10231900Y-1231900D01*
X10231900Y-8231900D01*
X1231900Y-8231900D01*
X1231900Y-1231900D01*
D11*
D12*
X3281400Y-2027400D02*
X3356400Y-2102400D01*
X3356400Y-2027400D02*
X3281400Y-2102400D01*
X3281400Y-3424400D02*
X3356400Y-3499400D01*
X3356400Y-3424400D02*
X3281400Y-3499400D01*
X3408400Y-1900400D02*
X3483400Y-1975400D01*
X3483400Y-1900400D02*
X3408400Y-1975400D01*
X3408400Y-2154400D02*
X3483400Y-2229400D01*
X3483400Y-2154400D02*
X3408400Y-2229400D01*
X3408400Y-3551400D02*
X3483400Y-3626400D01*
X3483400Y-3551400D02*
X3408400Y-3626400D01*
X3535400Y-3424400D02*
X3610400Y-3499400D01*
X3610400Y-3424400D02*
X3535400Y-3499400D01*
D13*
X2977900Y-1937900D02*
G75*
G03*
X2977900Y-1937900I-40000J0D01*
G01*
X2977900Y-2699900D02*
G75*
G03*
X2977900Y-2699900I-40000J0D01*
G01*
X2977900Y-7399900D02*
G75*
G03*
X2977900Y-7399900I-40000J0D01*
G01*
X2977900Y-7779900D02*
G75*
G03*
X2977900Y-7779900I-40000J0D01*
G01*
X3993900Y-1937900D02*
G75*
G03*
X3993900Y-1937900I-40000J0D01*
G01*
X3993900Y-2699900D02*
G75*
G03*
X3993900Y-2699900I-40000J0D01*
G01*
X3993900Y-3461900D02*
G75*
G03*
X3993900Y-3461900I-40000J0D01*
G01*
X3993900Y-4477900D02*
G75*
G03*
X3993900Y-4477900I-40000J0D01*
G01*
X3993900Y-4985900D02*
G75*
G03*
X3993900Y-4985900I-40000J0D01*
G01*
X3993900Y-5239900D02*
G75*
G03*
X3993900Y-5239900I-40000J0D01*
G01*
X3993900Y-5493900D02*
G75*
G03*
X3993900Y-5493900I-40000J0D01*
G01*
X3993900Y-5747900D02*
G75*
G03*
X3993900Y-5747900I-40000J0D01*
G01*
X3993900Y-6001900D02*
G75*
G03*
X3993900Y-6001900I-40000J0D01*
G01*
X3993900Y-6255900D02*
G75*
G03*
X3993900Y-6255900I-40000J0D01*
G01*
X3993900Y-6509900D02*
G75*
G03*
X3993900Y-6509900I-40000J0D01*
G01*
X3993900Y-7271900D02*
G75*
G03*
X3993900Y-7271900I-40000J0D01*
G01*
X3993900Y-7771900D02*
G75*
G03*
X3993900Y-7771900I-40000J0D01*
G01*
X4493900Y-4477900D02*
G75*
G03*
X4493900Y-4477900I-40000J0D01*
G01*
X4755900Y-1937900D02*
G75*
G03*
X4755900Y-1937900I-40000J0D01*
G01*
X4755900Y-2699900D02*
G75*
G03*
X4755900Y-2699900I-40000J0D01*
G01*
X4755900Y-3461900D02*
G75*
G03*
X4755900Y-3461900I-40000J0D01*
G01*
X4755900Y-4985900D02*
G75*
G03*
X4755900Y-4985900I-40000J0D01*
G01*
X4755900Y-5239900D02*
G75*
G03*
X4755900Y-5239900I-40000J0D01*
G01*
X4755900Y-5493900D02*
G75*
G03*
X4755900Y-5493900I-40000J0D01*
G01*
X4755900Y-5747900D02*
G75*
G03*
X4755900Y-5747900I-40000J0D01*
G01*
X4755900Y-6001900D02*
G75*
G03*
X4755900Y-6001900I-40000J0D01*
G01*
X4755900Y-6255900D02*
G75*
G03*
X4755900Y-6255900I-40000J0D01*
G01*
X4755900Y-6509900D02*
G75*
G03*
X4755900Y-6509900I-40000J0D01*
G01*
X6533900Y-7271900D02*
G75*
G03*
X6533900Y-7271900I-40000J0D01*
G01*
X6533900Y-7771900D02*
G75*
G03*
X6533900Y-7771900I-40000J0D01*
G01*
X7549900Y-7399900D02*
G75*
G03*
X7549900Y-7399900I-40000J0D01*
G01*
X7549900Y-7779900D02*
G75*
G03*
X7549900Y-7779900I-40000J0D01*
G01*
X8184900Y-6255900D02*
G75*
G03*
X8184900Y-6255900I-40000J0D01*
G01*
X8184900Y-7017900D02*
G75*
G03*
X8184900Y-7017900I-40000J0D01*
G01*
X8946900Y-6255900D02*
G75*
G03*
X8946900Y-6255900I-40000J0D01*
G01*
X8946900Y-7017900D02*
G75*
G03*
X8946900Y-7017900I-40000J0D01*
G01*
X8947900Y-4731900D02*
G75*
G03*
X8947900Y-4731900I-40000J0D01*
G01*
X9327900Y-4731900D02*
G75*
G03*
X9327900Y-4731900I-40000J0D01*
G01*
D14*
X9541900Y-6210900D02*
X9541900Y-6300900D01*
X9496900Y-6255900D02*
X9586900Y-6255900D01*
X9541900Y-6972900D02*
X9541900Y-7062900D01*
X9496900Y-7017900D02*
X9586900Y-7017900D01*
X9795900Y-6210900D02*
X9795900Y-6300900D01*
X9750900Y-6255900D02*
X9840900Y-6255900D01*
X9795900Y-6972900D02*
X9795900Y-7062900D01*
X9750900Y-7017900D02*
X9840900Y-7017900D01*
D15*
X6021256Y-1973256D02*
X6021256Y-1902544D01*
X5950544Y-1902544D01*
X5950544Y-1973256D01*
X6021256Y-1973256D01*
X6021256Y-2227256D02*
X6021256Y-2156544D01*
X5950544Y-2156544D01*
X5950544Y-2227256D01*
X6021256Y-2227256D01*
X6021256Y-2481256D02*
X6021256Y-2410544D01*
X5950544Y-2410544D01*
X5950544Y-2481256D01*
X6021256Y-2481256D01*
X6021256Y-2735256D02*
X6021256Y-2664544D01*
X5950544Y-2664544D01*
X5950544Y-2735256D01*
X6021256Y-2735256D01*
X6021256Y-2989256D02*
X6021256Y-2918544D01*
X5950544Y-2918544D01*
X5950544Y-2989256D01*
X6021256Y-2989256D01*
X6021256Y-3243256D02*
X6021256Y-3172544D01*
X5950544Y-3172544D01*
X5950544Y-3243256D01*
X6021256Y-3243256D01*
X6021256Y-3497256D02*
X6021256Y-3426544D01*
X5950544Y-3426544D01*
X5950544Y-3497256D01*
X6021256Y-3497256D01*
X6021256Y-3751256D02*
X6021256Y-3680544D01*
X5950544Y-3680544D01*
X5950544Y-3751256D01*
X6021256Y-3751256D01*
X6021256Y-4005256D02*
X6021256Y-3934544D01*
X5950544Y-3934544D01*
X5950544Y-4005256D01*
X6021256Y-4005256D01*
X6021256Y-4259256D02*
X6021256Y-4188544D01*
X5950544Y-4188544D01*
X5950544Y-4259256D01*
X6021256Y-4259256D01*
X6021256Y-4513256D02*
X6021256Y-4442544D01*
X5950544Y-4442544D01*
X5950544Y-4513256D01*
X6021256Y-4513256D01*
X6021256Y-4767256D02*
X6021256Y-4696544D01*
X5950544Y-4696544D01*
X5950544Y-4767256D01*
X6021256Y-4767256D01*
X6021256Y-5021256D02*
X6021256Y-4950544D01*
X5950544Y-4950544D01*
X5950544Y-5021256D01*
X6021256Y-5021256D01*
X6021256Y-5275256D02*
X6021256Y-5204544D01*
X5950544Y-5204544D01*
X5950544Y-5275256D01*
X6021256Y-5275256D01*
X6021256Y-5529256D02*
X6021256Y-5458544D01*
X5950544Y-5458544D01*
X5950544Y-5529256D01*
X6021256Y-5529256D01*
X7545256Y-1973256D02*
X7545256Y-1902544D01*
X7474544Y-1902544D01*
X7474544Y-1973256D01*
X7545256Y-1973256D01*
X7545256Y-2227256D02*
X7545256Y-2156544D01*
X7474544Y-2156544D01*
X7474544Y-2227256D01*
X7545256Y-2227256D01*
X7545256Y-2481256D02*
X7545256Y-2410544D01*
X7474544Y-2410544D01*
X7474544Y-2481256D01*
X7545256Y-2481256D01*
X7545256Y-2735256D02*
X7545256Y-2664544D01*
X7474544Y-2664544D01*
X7474544Y-2735256D01*
X7545256Y-2735256D01*
X7545256Y-2989256D02*
X7545256Y-2918544D01*
X7474544Y-2918544D01*
X7474544Y-2989256D01*
X7545256Y-2989256D01*
X7545256Y-3243256D02*
X7545256Y-3172544D01*
X7474544Y-3172544D01*
X7474544Y-3243256D01*
X7545256Y-3243256D01*
X7545256Y-3497256D02*
X7545256Y-3426544D01*
X7474544Y-3426544D01*
X7474544Y-3497256D01*
X7545256Y-3497256D01*
X7545256Y-3751256D02*
X7545256Y-3680544D01*
X7474544Y-3680544D01*
X7474544Y-3751256D01*
X7545256Y-3751256D01*
X7545256Y-4005256D02*
X7545256Y-3934544D01*
X7474544Y-3934544D01*
X7474544Y-4005256D01*
X7545256Y-4005256D01*
X7545256Y-4259256D02*
X7545256Y-4188544D01*
X7474544Y-4188544D01*
X7474544Y-4259256D01*
X7545256Y-4259256D01*
X7545256Y-4513256D02*
X7545256Y-4442544D01*
X7474544Y-4442544D01*
X7474544Y-4513256D01*
X7545256Y-4513256D01*
X7545256Y-4767256D02*
X7545256Y-4696544D01*
X7474544Y-4696544D01*
X7474544Y-4767256D01*
X7545256Y-4767256D01*
X7545256Y-5021256D02*
X7545256Y-4950544D01*
X7474544Y-4950544D01*
X7474544Y-5021256D01*
X7545256Y-5021256D01*
X7545256Y-5275256D02*
X7545256Y-5204544D01*
X7474544Y-5204544D01*
X7474544Y-5275256D01*
X7545256Y-5275256D01*
X7545256Y-5529256D02*
X7545256Y-5458544D01*
X7474544Y-5458544D01*
X7474544Y-5529256D01*
X7545256Y-5529256D01*
X9577256Y-2481256D02*
X9577256Y-2410544D01*
X9506544Y-2410544D01*
X9506544Y-2481256D01*
X9577256Y-2481256D01*
X9577256Y-2735256D02*
X9577256Y-2664544D01*
X9506544Y-2664544D01*
X9506544Y-2735256D01*
X9577256Y-2735256D01*
X9577256Y-2989256D02*
X9577256Y-2918544D01*
X9506544Y-2918544D01*
X9506544Y-2989256D01*
X9577256Y-2989256D01*
X9577256Y-3243256D02*
X9577256Y-3172544D01*
X9506544Y-3172544D01*
X9506544Y-3243256D01*
X9577256Y-3243256D01*
X9831256Y-2481256D02*
X9831256Y-2410544D01*
X9760544Y-2410544D01*
X9760544Y-2481256D01*
X9831256Y-2481256D01*
X9831256Y-2735256D02*
X9831256Y-2664544D01*
X9760544Y-2664544D01*
X9760544Y-2735256D01*
X9831256Y-2735256D01*
X9831256Y-2989256D02*
X9831256Y-2918544D01*
X9760544Y-2918544D01*
X9760544Y-2989256D01*
X9831256Y-2989256D01*
X9831256Y-3243256D02*
X9831256Y-3172544D01*
X9760544Y-3172544D01*
X9760544Y-3243256D01*
X9831256Y-3243256D01*
D16*
X1921900Y-2500900D02*
X1976900Y-2445900D01*
X1921900Y-2390900D01*
X1866900Y-2445900D01*
X1921900Y-2500900D01*
X1921900Y-2754900D02*
X1976900Y-2699900D01*
X1921900Y-2644900D01*
X1866900Y-2699900D01*
X1921900Y-2754900D01*
X1921900Y-3008900D02*
X1976900Y-2953900D01*
X1921900Y-2898900D01*
X1866900Y-2953900D01*
X1921900Y-3008900D01*
X1921900Y-5548900D02*
X1976900Y-5493900D01*
X1921900Y-5438900D01*
X1866900Y-5493900D01*
X1921900Y-5548900D01*
X1921900Y-5802900D02*
X1976900Y-5747900D01*
X1921900Y-5692900D01*
X1866900Y-5747900D01*
X1921900Y-5802900D01*
X1921900Y-6818900D02*
X1976900Y-6763900D01*
X1921900Y-6708900D01*
X1866900Y-6763900D01*
X1921900Y-6818900D01*
X1921900Y-7072900D02*
X1976900Y-7017900D01*
X1921900Y-6962900D01*
X1866900Y-7017900D01*
X1921900Y-7072900D01*
X2937900Y-5548900D02*
X2992900Y-5493900D01*
X2937900Y-5438900D01*
X2882900Y-5493900D01*
X2937900Y-5548900D01*
X2937900Y-6564900D02*
X2992900Y-6509900D01*
X2937900Y-6454900D01*
X2882900Y-6509900D01*
X2937900Y-6564900D01*
X4969900Y-7834900D02*
X5024900Y-7779900D01*
X4969900Y-7724900D01*
X4914900Y-7779900D01*
X4969900Y-7834900D01*
X5223900Y-7834900D02*
X5278900Y-7779900D01*
X5223900Y-7724900D01*
X5168900Y-7779900D01*
X5223900Y-7834900D01*
X5477900Y-7834900D02*
X5532900Y-7779900D01*
X5477900Y-7724900D01*
X5422900Y-7779900D01*
X5477900Y-7834900D01*
D11*
X1490177Y-8545884D02*
X1490177Y-8345884D01*
X1490177Y-8345884D02*
X1537796Y-8345884D01*
X1537796Y-8345884D02*
X1566367Y-8355408D01*
X1566367Y-8355408D02*
X1585415Y-8374455D01*
X1585415Y-8374455D02*
X1594939Y-8393503D01*
X1594939Y-8393503D02*
X1604462Y-8431598D01*
X1604462Y-8431598D02*
X1604462Y-8460170D01*
X1604462Y-8460170D02*
X1594939Y-8498265D01*
X1594939Y-8498265D02*
X1585415Y-8517312D01*
X1585415Y-8517312D02*
X1566367Y-8536360D01*
X1566367Y-8536360D02*
X1537796Y-8545884D01*
X1537796Y-8545884D02*
X1490177Y-8545884D01*
X1690177Y-8545884D02*
X1690177Y-8412550D01*
X1690177Y-8450646D02*
X1699701Y-8431598D01*
X1699701Y-8431598D02*
X1709224Y-8422074D01*
X1709224Y-8422074D02*
X1728272Y-8412550D01*
X1728272Y-8412550D02*
X1747320Y-8412550D01*
X1813986Y-8545884D02*
X1813986Y-8412550D01*
X1813986Y-8345884D02*
X1804462Y-8355408D01*
X1804462Y-8355408D02*
X1813986Y-8364931D01*
X1813986Y-8364931D02*
X1823510Y-8355408D01*
X1823510Y-8355408D02*
X1813986Y-8345884D01*
X1813986Y-8345884D02*
X1813986Y-8364931D01*
X1937796Y-8545884D02*
X1918748Y-8536360D01*
X1918748Y-8536360D02*
X1909224Y-8517312D01*
X1909224Y-8517312D02*
X1909224Y-8345884D01*
X2042558Y-8545884D02*
X2023510Y-8536360D01*
X2023510Y-8536360D02*
X2013986Y-8517312D01*
X2013986Y-8517312D02*
X2013986Y-8345884D01*
X2271129Y-8545884D02*
X2271129Y-8345884D01*
X2271129Y-8345884D02*
X2337796Y-8488741D01*
X2337796Y-8488741D02*
X2404463Y-8345884D01*
X2404463Y-8345884D02*
X2404463Y-8545884D01*
X2585415Y-8545884D02*
X2585415Y-8441122D01*
X2585415Y-8441122D02*
X2575891Y-8422074D01*
X2575891Y-8422074D02*
X2556844Y-8412550D01*
X2556844Y-8412550D02*
X2518748Y-8412550D01*
X2518748Y-8412550D02*
X2499701Y-8422074D01*
X2585415Y-8536360D02*
X2566367Y-8545884D01*
X2566367Y-8545884D02*
X2518748Y-8545884D01*
X2518748Y-8545884D02*
X2499701Y-8536360D01*
X2499701Y-8536360D02*
X2490177Y-8517312D01*
X2490177Y-8517312D02*
X2490177Y-8498265D01*
X2490177Y-8498265D02*
X2499701Y-8479217D01*
X2499701Y-8479217D02*
X2518748Y-8469693D01*
X2518748Y-8469693D02*
X2566367Y-8469693D01*
X2566367Y-8469693D02*
X2585415Y-8460170D01*
X2680653Y-8412550D02*
X2680653Y-8612550D01*
X2680653Y-8422074D02*
X2699701Y-8412550D01*
X2699701Y-8412550D02*
X2737796Y-8412550D01*
X2737796Y-8412550D02*
X2756844Y-8422074D01*
X2756844Y-8422074D02*
X2766367Y-8431598D01*
X2766367Y-8431598D02*
X2775891Y-8450646D01*
X2775891Y-8450646D02*
X2775891Y-8507789D01*
X2775891Y-8507789D02*
X2766367Y-8526836D01*
X2766367Y-8526836D02*
X2756844Y-8536360D01*
X2756844Y-8536360D02*
X2737796Y-8545884D01*
X2737796Y-8545884D02*
X2699701Y-8545884D01*
X2699701Y-8545884D02*
X2680653Y-8536360D01*
X2861605Y-8526836D02*
X2871129Y-8536360D01*
X2871129Y-8536360D02*
X2861605Y-8545884D01*
X2861605Y-8545884D02*
X2852082Y-8536360D01*
X2852082Y-8536360D02*
X2861605Y-8526836D01*
X2861605Y-8526836D02*
X2861605Y-8545884D01*
X2861605Y-8422074D02*
X2871129Y-8431598D01*
X2871129Y-8431598D02*
X2861605Y-8441122D01*
X2861605Y-8441122D02*
X2852082Y-8431598D01*
X2852082Y-8431598D02*
X2861605Y-8422074D01*
X2861605Y-8422074D02*
X2861605Y-8441122D01*
D12*
X1154400Y-8836900D02*
X1229400Y-8911900D01*
X1229400Y-8836900D02*
X1154400Y-8911900D01*
D11*
X1528272Y-8765884D02*
X1547320Y-8765884D01*
X1547320Y-8765884D02*
X1566367Y-8775408D01*
X1566367Y-8775408D02*
X1575891Y-8784931D01*
X1575891Y-8784931D02*
X1585415Y-8803979D01*
X1585415Y-8803979D02*
X1594939Y-8842074D01*
X1594939Y-8842074D02*
X1594939Y-8889693D01*
X1594939Y-8889693D02*
X1585415Y-8927789D01*
X1585415Y-8927789D02*
X1575891Y-8946836D01*
X1575891Y-8946836D02*
X1566367Y-8956360D01*
X1566367Y-8956360D02*
X1547320Y-8965884D01*
X1547320Y-8965884D02*
X1528272Y-8965884D01*
X1528272Y-8965884D02*
X1509224Y-8956360D01*
X1509224Y-8956360D02*
X1499701Y-8946836D01*
X1499701Y-8946836D02*
X1490177Y-8927789D01*
X1490177Y-8927789D02*
X1480653Y-8889693D01*
X1480653Y-8889693D02*
X1480653Y-8842074D01*
X1480653Y-8842074D02*
X1490177Y-8803979D01*
X1490177Y-8803979D02*
X1499701Y-8784931D01*
X1499701Y-8784931D02*
X1509224Y-8775408D01*
X1509224Y-8775408D02*
X1528272Y-8765884D01*
X1680653Y-8946836D02*
X1690177Y-8956360D01*
X1690177Y-8956360D02*
X1680653Y-8965884D01*
X1680653Y-8965884D02*
X1671129Y-8956360D01*
X1671129Y-8956360D02*
X1680653Y-8946836D01*
X1680653Y-8946836D02*
X1680653Y-8965884D01*
X1756843Y-8765884D02*
X1890177Y-8765884D01*
X1890177Y-8765884D02*
X1804462Y-8965884D01*
X2061605Y-8765884D02*
X1966367Y-8765884D01*
X1966367Y-8765884D02*
X1956843Y-8861122D01*
X1956843Y-8861122D02*
X1966367Y-8851598D01*
X1966367Y-8851598D02*
X1985415Y-8842074D01*
X1985415Y-8842074D02*
X2033034Y-8842074D01*
X2033034Y-8842074D02*
X2052082Y-8851598D01*
X2052082Y-8851598D02*
X2061605Y-8861122D01*
X2061605Y-8861122D02*
X2071129Y-8880170D01*
X2071129Y-8880170D02*
X2071129Y-8927789D01*
X2071129Y-8927789D02*
X2061605Y-8946836D01*
X2061605Y-8946836D02*
X2052082Y-8956360D01*
X2052082Y-8956360D02*
X2033034Y-8965884D01*
X2033034Y-8965884D02*
X1985415Y-8965884D01*
X1985415Y-8965884D02*
X1966367Y-8956360D01*
X1966367Y-8956360D02*
X1956843Y-8946836D01*
X2194939Y-8765884D02*
X2213986Y-8765884D01*
X2213986Y-8765884D02*
X2233034Y-8775408D01*
X2233034Y-8775408D02*
X2242558Y-8784931D01*
X2242558Y-8784931D02*
X2252082Y-8803979D01*
X2252082Y-8803979D02*
X2261605Y-8842074D01*
X2261605Y-8842074D02*
X2261605Y-8889693D01*
X2261605Y-8889693D02*
X2252082Y-8927789D01*
X2252082Y-8927789D02*
X2242558Y-8946836D01*
X2242558Y-8946836D02*
X2233034Y-8956360D01*
X2233034Y-8956360D02*
X2213986Y-8965884D01*
X2213986Y-8965884D02*
X2194939Y-8965884D01*
X2194939Y-8965884D02*
X2175891Y-8956360D01*
X2175891Y-8956360D02*
X2166367Y-8946836D01*
X2166367Y-8946836D02*
X2156844Y-8927789D01*
X2156844Y-8927789D02*
X2147320Y-8889693D01*
X2147320Y-8889693D02*
X2147320Y-8842074D01*
X2147320Y-8842074D02*
X2156844Y-8803979D01*
X2156844Y-8803979D02*
X2166367Y-8784931D01*
X2166367Y-8784931D02*
X2175891Y-8775408D01*
X2175891Y-8775408D02*
X2194939Y-8765884D01*
X2347320Y-8965884D02*
X2347320Y-8832550D01*
X2347320Y-8851598D02*
X2356844Y-8842074D01*
X2356844Y-8842074D02*
X2375891Y-8832550D01*
X2375891Y-8832550D02*
X2404463Y-8832550D01*
X2404463Y-8832550D02*
X2423510Y-8842074D01*
X2423510Y-8842074D02*
X2433034Y-8861122D01*
X2433034Y-8861122D02*
X2433034Y-8965884D01*
X2433034Y-8861122D02*
X2442558Y-8842074D01*
X2442558Y-8842074D02*
X2461605Y-8832550D01*
X2461605Y-8832550D02*
X2490177Y-8832550D01*
X2490177Y-8832550D02*
X2509225Y-8842074D01*
X2509225Y-8842074D02*
X2518748Y-8861122D01*
X2518748Y-8861122D02*
X2518748Y-8965884D01*
X2613986Y-8965884D02*
X2613986Y-8832550D01*
X2613986Y-8851598D02*
X2623510Y-8842074D01*
X2623510Y-8842074D02*
X2642558Y-8832550D01*
X2642558Y-8832550D02*
X2671129Y-8832550D01*
X2671129Y-8832550D02*
X2690177Y-8842074D01*
X2690177Y-8842074D02*
X2699701Y-8861122D01*
X2699701Y-8861122D02*
X2699701Y-8965884D01*
X2699701Y-8861122D02*
X2709225Y-8842074D01*
X2709225Y-8842074D02*
X2728272Y-8832550D01*
X2728272Y-8832550D02*
X2756844Y-8832550D01*
X2756844Y-8832550D02*
X2775891Y-8842074D01*
X2775891Y-8842074D02*
X2785415Y-8861122D01*
X2785415Y-8861122D02*
X2785415Y-8965884D01*
X3175891Y-8756360D02*
X3004463Y-9013503D01*
X3433034Y-8765884D02*
X3452082Y-8765884D01*
X3452082Y-8765884D02*
X3471129Y-8775408D01*
X3471129Y-8775408D02*
X3480653Y-8784931D01*
X3480653Y-8784931D02*
X3490177Y-8803979D01*
X3490177Y-8803979D02*
X3499701Y-8842074D01*
X3499701Y-8842074D02*
X3499701Y-8889693D01*
X3499701Y-8889693D02*
X3490177Y-8927789D01*
X3490177Y-8927789D02*
X3480653Y-8946836D01*
X3480653Y-8946836D02*
X3471129Y-8956360D01*
X3471129Y-8956360D02*
X3452082Y-8965884D01*
X3452082Y-8965884D02*
X3433034Y-8965884D01*
X3433034Y-8965884D02*
X3413986Y-8956360D01*
X3413986Y-8956360D02*
X3404463Y-8946836D01*
X3404463Y-8946836D02*
X3394939Y-8927789D01*
X3394939Y-8927789D02*
X3385415Y-8889693D01*
X3385415Y-8889693D02*
X3385415Y-8842074D01*
X3385415Y-8842074D02*
X3394939Y-8803979D01*
X3394939Y-8803979D02*
X3404463Y-8784931D01*
X3404463Y-8784931D02*
X3413986Y-8775408D01*
X3413986Y-8775408D02*
X3433034Y-8765884D01*
X3585415Y-8946836D02*
X3594939Y-8956360D01*
X3594939Y-8956360D02*
X3585415Y-8965884D01*
X3585415Y-8965884D02*
X3575891Y-8956360D01*
X3575891Y-8956360D02*
X3585415Y-8946836D01*
X3585415Y-8946836D02*
X3585415Y-8965884D01*
X3718748Y-8765884D02*
X3737796Y-8765884D01*
X3737796Y-8765884D02*
X3756844Y-8775408D01*
X3756844Y-8775408D02*
X3766367Y-8784931D01*
X3766367Y-8784931D02*
X3775891Y-8803979D01*
X3775891Y-8803979D02*
X3785415Y-8842074D01*
X3785415Y-8842074D02*
X3785415Y-8889693D01*
X3785415Y-8889693D02*
X3775891Y-8927789D01*
X3775891Y-8927789D02*
X3766367Y-8946836D01*
X3766367Y-8946836D02*
X3756844Y-8956360D01*
X3756844Y-8956360D02*
X3737796Y-8965884D01*
X3737796Y-8965884D02*
X3718748Y-8965884D01*
X3718748Y-8965884D02*
X3699701Y-8956360D01*
X3699701Y-8956360D02*
X3690177Y-8946836D01*
X3690177Y-8946836D02*
X3680653Y-8927789D01*
X3680653Y-8927789D02*
X3671129Y-8889693D01*
X3671129Y-8889693D02*
X3671129Y-8842074D01*
X3671129Y-8842074D02*
X3680653Y-8803979D01*
X3680653Y-8803979D02*
X3690177Y-8784931D01*
X3690177Y-8784931D02*
X3699701Y-8775408D01*
X3699701Y-8775408D02*
X3718748Y-8765884D01*
X3861606Y-8784931D02*
X3871129Y-8775408D01*
X3871129Y-8775408D02*
X3890177Y-8765884D01*
X3890177Y-8765884D02*
X3937796Y-8765884D01*
X3937796Y-8765884D02*
X3956844Y-8775408D01*
X3956844Y-8775408D02*
X3966367Y-8784931D01*
X3966367Y-8784931D02*
X3975891Y-8803979D01*
X3975891Y-8803979D02*
X3975891Y-8823027D01*
X3975891Y-8823027D02*
X3966367Y-8851598D01*
X3966367Y-8851598D02*
X3852082Y-8965884D01*
X3852082Y-8965884D02*
X3975891Y-8965884D01*
X4071129Y-8965884D02*
X4109225Y-8965884D01*
X4109225Y-8965884D02*
X4128272Y-8956360D01*
X4128272Y-8956360D02*
X4137796Y-8946836D01*
X4137796Y-8946836D02*
X4156844Y-8918265D01*
X4156844Y-8918265D02*
X4166367Y-8880170D01*
X4166367Y-8880170D02*
X4166367Y-8803979D01*
X4166367Y-8803979D02*
X4156844Y-8784931D01*
X4156844Y-8784931D02*
X4147320Y-8775408D01*
X4147320Y-8775408D02*
X4128272Y-8765884D01*
X4128272Y-8765884D02*
X4090177Y-8765884D01*
X4090177Y-8765884D02*
X4071129Y-8775408D01*
X4071129Y-8775408D02*
X4061606Y-8784931D01*
X4061606Y-8784931D02*
X4052082Y-8803979D01*
X4052082Y-8803979D02*
X4052082Y-8851598D01*
X4052082Y-8851598D02*
X4061606Y-8870646D01*
X4061606Y-8870646D02*
X4071129Y-8880170D01*
X4071129Y-8880170D02*
X4090177Y-8889693D01*
X4090177Y-8889693D02*
X4128272Y-8889693D01*
X4128272Y-8889693D02*
X4147320Y-8880170D01*
X4147320Y-8880170D02*
X4156844Y-8870646D01*
X4156844Y-8870646D02*
X4166367Y-8851598D01*
X4347320Y-8765884D02*
X4252082Y-8765884D01*
X4252082Y-8765884D02*
X4242558Y-8861122D01*
X4242558Y-8861122D02*
X4252082Y-8851598D01*
X4252082Y-8851598D02*
X4271129Y-8842074D01*
X4271129Y-8842074D02*
X4318749Y-8842074D01*
X4318749Y-8842074D02*
X4337796Y-8851598D01*
X4337796Y-8851598D02*
X4347320Y-8861122D01*
X4347320Y-8861122D02*
X4356844Y-8880170D01*
X4356844Y-8880170D02*
X4356844Y-8927789D01*
X4356844Y-8927789D02*
X4347320Y-8946836D01*
X4347320Y-8946836D02*
X4337796Y-8956360D01*
X4337796Y-8956360D02*
X4318749Y-8965884D01*
X4318749Y-8965884D02*
X4271129Y-8965884D01*
X4271129Y-8965884D02*
X4252082Y-8956360D01*
X4252082Y-8956360D02*
X4242558Y-8946836D01*
X4433034Y-8765884D02*
X4433034Y-8803979D01*
X4509225Y-8765884D02*
X4509225Y-8803979D01*
X4804463Y-9042074D02*
X4794939Y-9032550D01*
X4794939Y-9032550D02*
X4775891Y-9003979D01*
X4775891Y-9003979D02*
X4766368Y-8984931D01*
X4766368Y-8984931D02*
X4756844Y-8956360D01*
X4756844Y-8956360D02*
X4747320Y-8908741D01*
X4747320Y-8908741D02*
X4747320Y-8870646D01*
X4747320Y-8870646D02*
X4756844Y-8823027D01*
X4756844Y-8823027D02*
X4766368Y-8794455D01*
X4766368Y-8794455D02*
X4775891Y-8775408D01*
X4775891Y-8775408D02*
X4794939Y-8746836D01*
X4794939Y-8746836D02*
X4804463Y-8737312D01*
X4966368Y-8765884D02*
X4928272Y-8765884D01*
X4928272Y-8765884D02*
X4909225Y-8775408D01*
X4909225Y-8775408D02*
X4899701Y-8784931D01*
X4899701Y-8784931D02*
X4880653Y-8813503D01*
X4880653Y-8813503D02*
X4871130Y-8851598D01*
X4871130Y-8851598D02*
X4871130Y-8927789D01*
X4871130Y-8927789D02*
X4880653Y-8946836D01*
X4880653Y-8946836D02*
X4890177Y-8956360D01*
X4890177Y-8956360D02*
X4909225Y-8965884D01*
X4909225Y-8965884D02*
X4947320Y-8965884D01*
X4947320Y-8965884D02*
X4966368Y-8956360D01*
X4966368Y-8956360D02*
X4975891Y-8946836D01*
X4975891Y-8946836D02*
X4985415Y-8927789D01*
X4985415Y-8927789D02*
X4985415Y-8880170D01*
X4985415Y-8880170D02*
X4975891Y-8861122D01*
X4975891Y-8861122D02*
X4966368Y-8851598D01*
X4966368Y-8851598D02*
X4947320Y-8842074D01*
X4947320Y-8842074D02*
X4909225Y-8842074D01*
X4909225Y-8842074D02*
X4890177Y-8851598D01*
X4890177Y-8851598D02*
X4880653Y-8861122D01*
X4880653Y-8861122D02*
X4871130Y-8880170D01*
X5223511Y-8965884D02*
X5223511Y-8765884D01*
X5309225Y-8965884D02*
X5309225Y-8861122D01*
X5309225Y-8861122D02*
X5299701Y-8842074D01*
X5299701Y-8842074D02*
X5280653Y-8832550D01*
X5280653Y-8832550D02*
X5252082Y-8832550D01*
X5252082Y-8832550D02*
X5233034Y-8842074D01*
X5233034Y-8842074D02*
X5223511Y-8851598D01*
X5433034Y-8965884D02*
X5413987Y-8956360D01*
X5413987Y-8956360D02*
X5404463Y-8946836D01*
X5404463Y-8946836D02*
X5394939Y-8927789D01*
X5394939Y-8927789D02*
X5394939Y-8870646D01*
X5394939Y-8870646D02*
X5404463Y-8851598D01*
X5404463Y-8851598D02*
X5413987Y-8842074D01*
X5413987Y-8842074D02*
X5433034Y-8832550D01*
X5433034Y-8832550D02*
X5461606Y-8832550D01*
X5461606Y-8832550D02*
X5480653Y-8842074D01*
X5480653Y-8842074D02*
X5490177Y-8851598D01*
X5490177Y-8851598D02*
X5499701Y-8870646D01*
X5499701Y-8870646D02*
X5499701Y-8927789D01*
X5499701Y-8927789D02*
X5490177Y-8946836D01*
X5490177Y-8946836D02*
X5480653Y-8956360D01*
X5480653Y-8956360D02*
X5461606Y-8965884D01*
X5461606Y-8965884D02*
X5433034Y-8965884D01*
X5613987Y-8965884D02*
X5594939Y-8956360D01*
X5594939Y-8956360D02*
X5585415Y-8937312D01*
X5585415Y-8937312D02*
X5585415Y-8765884D01*
X5766368Y-8956360D02*
X5747320Y-8965884D01*
X5747320Y-8965884D02*
X5709225Y-8965884D01*
X5709225Y-8965884D02*
X5690177Y-8956360D01*
X5690177Y-8956360D02*
X5680653Y-8937312D01*
X5680653Y-8937312D02*
X5680653Y-8861122D01*
X5680653Y-8861122D02*
X5690177Y-8842074D01*
X5690177Y-8842074D02*
X5709225Y-8832550D01*
X5709225Y-8832550D02*
X5747320Y-8832550D01*
X5747320Y-8832550D02*
X5766368Y-8842074D01*
X5766368Y-8842074D02*
X5775891Y-8861122D01*
X5775891Y-8861122D02*
X5775891Y-8880170D01*
X5775891Y-8880170D02*
X5680653Y-8899217D01*
X5852082Y-8956360D02*
X5871130Y-8965884D01*
X5871130Y-8965884D02*
X5909225Y-8965884D01*
X5909225Y-8965884D02*
X5928272Y-8956360D01*
X5928272Y-8956360D02*
X5937796Y-8937312D01*
X5937796Y-8937312D02*
X5937796Y-8927789D01*
X5937796Y-8927789D02*
X5928272Y-8908741D01*
X5928272Y-8908741D02*
X5909225Y-8899217D01*
X5909225Y-8899217D02*
X5880653Y-8899217D01*
X5880653Y-8899217D02*
X5861606Y-8889693D01*
X5861606Y-8889693D02*
X5852082Y-8870646D01*
X5852082Y-8870646D02*
X5852082Y-8861122D01*
X5852082Y-8861122D02*
X5861606Y-8842074D01*
X5861606Y-8842074D02*
X5880653Y-8832550D01*
X5880653Y-8832550D02*
X5909225Y-8832550D01*
X5909225Y-8832550D02*
X5928272Y-8842074D01*
X6004463Y-9042074D02*
X6013987Y-9032550D01*
X6013987Y-9032550D02*
X6033034Y-9003979D01*
X6033034Y-9003979D02*
X6042558Y-8984931D01*
X6042558Y-8984931D02*
X6052082Y-8956360D01*
X6052082Y-8956360D02*
X6061606Y-8908741D01*
X6061606Y-8908741D02*
X6061606Y-8870646D01*
X6061606Y-8870646D02*
X6052082Y-8823027D01*
X6052082Y-8823027D02*
X6042558Y-8794455D01*
X6042558Y-8794455D02*
X6033034Y-8775408D01*
X6033034Y-8775408D02*
X6013987Y-8746836D01*
X6013987Y-8746836D02*
X6004463Y-8737312D01*
D13*
X1229400Y-9138400D02*
G75*
G03*
X1229400Y-9138400I-40000J0D01*
G01*
D11*
X1528272Y-9029884D02*
X1547320Y-9029884D01*
X1547320Y-9029884D02*
X1566367Y-9039408D01*
X1566367Y-9039408D02*
X1575891Y-9048931D01*
X1575891Y-9048931D02*
X1585415Y-9067979D01*
X1585415Y-9067979D02*
X1594939Y-9106074D01*
X1594939Y-9106074D02*
X1594939Y-9153693D01*
X1594939Y-9153693D02*
X1585415Y-9191789D01*
X1585415Y-9191789D02*
X1575891Y-9210836D01*
X1575891Y-9210836D02*
X1566367Y-9220360D01*
X1566367Y-9220360D02*
X1547320Y-9229884D01*
X1547320Y-9229884D02*
X1528272Y-9229884D01*
X1528272Y-9229884D02*
X1509224Y-9220360D01*
X1509224Y-9220360D02*
X1499701Y-9210836D01*
X1499701Y-9210836D02*
X1490177Y-9191789D01*
X1490177Y-9191789D02*
X1480653Y-9153693D01*
X1480653Y-9153693D02*
X1480653Y-9106074D01*
X1480653Y-9106074D02*
X1490177Y-9067979D01*
X1490177Y-9067979D02*
X1499701Y-9048931D01*
X1499701Y-9048931D02*
X1509224Y-9039408D01*
X1509224Y-9039408D02*
X1528272Y-9029884D01*
X1680653Y-9210836D02*
X1690177Y-9220360D01*
X1690177Y-9220360D02*
X1680653Y-9229884D01*
X1680653Y-9229884D02*
X1671129Y-9220360D01*
X1671129Y-9220360D02*
X1680653Y-9210836D01*
X1680653Y-9210836D02*
X1680653Y-9229884D01*
X1804462Y-9115598D02*
X1785415Y-9106074D01*
X1785415Y-9106074D02*
X1775891Y-9096550D01*
X1775891Y-9096550D02*
X1766367Y-9077503D01*
X1766367Y-9077503D02*
X1766367Y-9067979D01*
X1766367Y-9067979D02*
X1775891Y-9048931D01*
X1775891Y-9048931D02*
X1785415Y-9039408D01*
X1785415Y-9039408D02*
X1804462Y-9029884D01*
X1804462Y-9029884D02*
X1842558Y-9029884D01*
X1842558Y-9029884D02*
X1861605Y-9039408D01*
X1861605Y-9039408D02*
X1871129Y-9048931D01*
X1871129Y-9048931D02*
X1880653Y-9067979D01*
X1880653Y-9067979D02*
X1880653Y-9077503D01*
X1880653Y-9077503D02*
X1871129Y-9096550D01*
X1871129Y-9096550D02*
X1861605Y-9106074D01*
X1861605Y-9106074D02*
X1842558Y-9115598D01*
X1842558Y-9115598D02*
X1804462Y-9115598D01*
X1804462Y-9115598D02*
X1785415Y-9125122D01*
X1785415Y-9125122D02*
X1775891Y-9134646D01*
X1775891Y-9134646D02*
X1766367Y-9153693D01*
X1766367Y-9153693D02*
X1766367Y-9191789D01*
X1766367Y-9191789D02*
X1775891Y-9210836D01*
X1775891Y-9210836D02*
X1785415Y-9220360D01*
X1785415Y-9220360D02*
X1804462Y-9229884D01*
X1804462Y-9229884D02*
X1842558Y-9229884D01*
X1842558Y-9229884D02*
X1861605Y-9220360D01*
X1861605Y-9220360D02*
X1871129Y-9210836D01*
X1871129Y-9210836D02*
X1880653Y-9191789D01*
X1880653Y-9191789D02*
X1880653Y-9153693D01*
X1880653Y-9153693D02*
X1871129Y-9134646D01*
X1871129Y-9134646D02*
X1861605Y-9125122D01*
X1861605Y-9125122D02*
X1842558Y-9115598D01*
X2004462Y-9029884D02*
X2023510Y-9029884D01*
X2023510Y-9029884D02*
X2042558Y-9039408D01*
X2042558Y-9039408D02*
X2052082Y-9048931D01*
X2052082Y-9048931D02*
X2061605Y-9067979D01*
X2061605Y-9067979D02*
X2071129Y-9106074D01*
X2071129Y-9106074D02*
X2071129Y-9153693D01*
X2071129Y-9153693D02*
X2061605Y-9191789D01*
X2061605Y-9191789D02*
X2052082Y-9210836D01*
X2052082Y-9210836D02*
X2042558Y-9220360D01*
X2042558Y-9220360D02*
X2023510Y-9229884D01*
X2023510Y-9229884D02*
X2004462Y-9229884D01*
X2004462Y-9229884D02*
X1985415Y-9220360D01*
X1985415Y-9220360D02*
X1975891Y-9210836D01*
X1975891Y-9210836D02*
X1966367Y-9191789D01*
X1966367Y-9191789D02*
X1956843Y-9153693D01*
X1956843Y-9153693D02*
X1956843Y-9106074D01*
X1956843Y-9106074D02*
X1966367Y-9067979D01*
X1966367Y-9067979D02*
X1975891Y-9048931D01*
X1975891Y-9048931D02*
X1985415Y-9039408D01*
X1985415Y-9039408D02*
X2004462Y-9029884D01*
X2194939Y-9029884D02*
X2213986Y-9029884D01*
X2213986Y-9029884D02*
X2233034Y-9039408D01*
X2233034Y-9039408D02*
X2242558Y-9048931D01*
X2242558Y-9048931D02*
X2252082Y-9067979D01*
X2252082Y-9067979D02*
X2261605Y-9106074D01*
X2261605Y-9106074D02*
X2261605Y-9153693D01*
X2261605Y-9153693D02*
X2252082Y-9191789D01*
X2252082Y-9191789D02*
X2242558Y-9210836D01*
X2242558Y-9210836D02*
X2233034Y-9220360D01*
X2233034Y-9220360D02*
X2213986Y-9229884D01*
X2213986Y-9229884D02*
X2194939Y-9229884D01*
X2194939Y-9229884D02*
X2175891Y-9220360D01*
X2175891Y-9220360D02*
X2166367Y-9210836D01*
X2166367Y-9210836D02*
X2156844Y-9191789D01*
X2156844Y-9191789D02*
X2147320Y-9153693D01*
X2147320Y-9153693D02*
X2147320Y-9106074D01*
X2147320Y-9106074D02*
X2156844Y-9067979D01*
X2156844Y-9067979D02*
X2166367Y-9048931D01*
X2166367Y-9048931D02*
X2175891Y-9039408D01*
X2175891Y-9039408D02*
X2194939Y-9029884D01*
X2347320Y-9229884D02*
X2347320Y-9096550D01*
X2347320Y-9115598D02*
X2356844Y-9106074D01*
X2356844Y-9106074D02*
X2375891Y-9096550D01*
X2375891Y-9096550D02*
X2404463Y-9096550D01*
X2404463Y-9096550D02*
X2423510Y-9106074D01*
X2423510Y-9106074D02*
X2433034Y-9125122D01*
X2433034Y-9125122D02*
X2433034Y-9229884D01*
X2433034Y-9125122D02*
X2442558Y-9106074D01*
X2442558Y-9106074D02*
X2461605Y-9096550D01*
X2461605Y-9096550D02*
X2490177Y-9096550D01*
X2490177Y-9096550D02*
X2509225Y-9106074D01*
X2509225Y-9106074D02*
X2518748Y-9125122D01*
X2518748Y-9125122D02*
X2518748Y-9229884D01*
X2613986Y-9229884D02*
X2613986Y-9096550D01*
X2613986Y-9115598D02*
X2623510Y-9106074D01*
X2623510Y-9106074D02*
X2642558Y-9096550D01*
X2642558Y-9096550D02*
X2671129Y-9096550D01*
X2671129Y-9096550D02*
X2690177Y-9106074D01*
X2690177Y-9106074D02*
X2699701Y-9125122D01*
X2699701Y-9125122D02*
X2699701Y-9229884D01*
X2699701Y-9125122D02*
X2709225Y-9106074D01*
X2709225Y-9106074D02*
X2728272Y-9096550D01*
X2728272Y-9096550D02*
X2756844Y-9096550D01*
X2756844Y-9096550D02*
X2775891Y-9106074D01*
X2775891Y-9106074D02*
X2785415Y-9125122D01*
X2785415Y-9125122D02*
X2785415Y-9229884D01*
X3175891Y-9020360D02*
X3004463Y-9277503D01*
X3433034Y-9029884D02*
X3452082Y-9029884D01*
X3452082Y-9029884D02*
X3471129Y-9039408D01*
X3471129Y-9039408D02*
X3480653Y-9048931D01*
X3480653Y-9048931D02*
X3490177Y-9067979D01*
X3490177Y-9067979D02*
X3499701Y-9106074D01*
X3499701Y-9106074D02*
X3499701Y-9153693D01*
X3499701Y-9153693D02*
X3490177Y-9191789D01*
X3490177Y-9191789D02*
X3480653Y-9210836D01*
X3480653Y-9210836D02*
X3471129Y-9220360D01*
X3471129Y-9220360D02*
X3452082Y-9229884D01*
X3452082Y-9229884D02*
X3433034Y-9229884D01*
X3433034Y-9229884D02*
X3413986Y-9220360D01*
X3413986Y-9220360D02*
X3404463Y-9210836D01*
X3404463Y-9210836D02*
X3394939Y-9191789D01*
X3394939Y-9191789D02*
X3385415Y-9153693D01*
X3385415Y-9153693D02*
X3385415Y-9106074D01*
X3385415Y-9106074D02*
X3394939Y-9067979D01*
X3394939Y-9067979D02*
X3404463Y-9048931D01*
X3404463Y-9048931D02*
X3413986Y-9039408D01*
X3413986Y-9039408D02*
X3433034Y-9029884D01*
X3585415Y-9210836D02*
X3594939Y-9220360D01*
X3594939Y-9220360D02*
X3585415Y-9229884D01*
X3585415Y-9229884D02*
X3575891Y-9220360D01*
X3575891Y-9220360D02*
X3585415Y-9210836D01*
X3585415Y-9210836D02*
X3585415Y-9229884D01*
X3718748Y-9029884D02*
X3737796Y-9029884D01*
X3737796Y-9029884D02*
X3756844Y-9039408D01*
X3756844Y-9039408D02*
X3766367Y-9048931D01*
X3766367Y-9048931D02*
X3775891Y-9067979D01*
X3775891Y-9067979D02*
X3785415Y-9106074D01*
X3785415Y-9106074D02*
X3785415Y-9153693D01*
X3785415Y-9153693D02*
X3775891Y-9191789D01*
X3775891Y-9191789D02*
X3766367Y-9210836D01*
X3766367Y-9210836D02*
X3756844Y-9220360D01*
X3756844Y-9220360D02*
X3737796Y-9229884D01*
X3737796Y-9229884D02*
X3718748Y-9229884D01*
X3718748Y-9229884D02*
X3699701Y-9220360D01*
X3699701Y-9220360D02*
X3690177Y-9210836D01*
X3690177Y-9210836D02*
X3680653Y-9191789D01*
X3680653Y-9191789D02*
X3671129Y-9153693D01*
X3671129Y-9153693D02*
X3671129Y-9106074D01*
X3671129Y-9106074D02*
X3680653Y-9067979D01*
X3680653Y-9067979D02*
X3690177Y-9048931D01*
X3690177Y-9048931D02*
X3699701Y-9039408D01*
X3699701Y-9039408D02*
X3718748Y-9029884D01*
X3852082Y-9029884D02*
X3975891Y-9029884D01*
X3975891Y-9029884D02*
X3909225Y-9106074D01*
X3909225Y-9106074D02*
X3937796Y-9106074D01*
X3937796Y-9106074D02*
X3956844Y-9115598D01*
X3956844Y-9115598D02*
X3966367Y-9125122D01*
X3966367Y-9125122D02*
X3975891Y-9144170D01*
X3975891Y-9144170D02*
X3975891Y-9191789D01*
X3975891Y-9191789D02*
X3966367Y-9210836D01*
X3966367Y-9210836D02*
X3956844Y-9220360D01*
X3956844Y-9220360D02*
X3937796Y-9229884D01*
X3937796Y-9229884D02*
X3880653Y-9229884D01*
X3880653Y-9229884D02*
X3861606Y-9220360D01*
X3861606Y-9220360D02*
X3852082Y-9210836D01*
X4166367Y-9229884D02*
X4052082Y-9229884D01*
X4109225Y-9229884D02*
X4109225Y-9029884D01*
X4109225Y-9029884D02*
X4090177Y-9058455D01*
X4090177Y-9058455D02*
X4071129Y-9077503D01*
X4071129Y-9077503D02*
X4052082Y-9087027D01*
X4347320Y-9029884D02*
X4252082Y-9029884D01*
X4252082Y-9029884D02*
X4242558Y-9125122D01*
X4242558Y-9125122D02*
X4252082Y-9115598D01*
X4252082Y-9115598D02*
X4271129Y-9106074D01*
X4271129Y-9106074D02*
X4318749Y-9106074D01*
X4318749Y-9106074D02*
X4337796Y-9115598D01*
X4337796Y-9115598D02*
X4347320Y-9125122D01*
X4347320Y-9125122D02*
X4356844Y-9144170D01*
X4356844Y-9144170D02*
X4356844Y-9191789D01*
X4356844Y-9191789D02*
X4347320Y-9210836D01*
X4347320Y-9210836D02*
X4337796Y-9220360D01*
X4337796Y-9220360D02*
X4318749Y-9229884D01*
X4318749Y-9229884D02*
X4271129Y-9229884D01*
X4271129Y-9229884D02*
X4252082Y-9220360D01*
X4252082Y-9220360D02*
X4242558Y-9210836D01*
X4433034Y-9029884D02*
X4433034Y-9067979D01*
X4509225Y-9029884D02*
X4509225Y-9067979D01*
X4804463Y-9306074D02*
X4794939Y-9296550D01*
X4794939Y-9296550D02*
X4775891Y-9267979D01*
X4775891Y-9267979D02*
X4766368Y-9248931D01*
X4766368Y-9248931D02*
X4756844Y-9220360D01*
X4756844Y-9220360D02*
X4747320Y-9172741D01*
X4747320Y-9172741D02*
X4747320Y-9134646D01*
X4747320Y-9134646D02*
X4756844Y-9087027D01*
X4756844Y-9087027D02*
X4766368Y-9058455D01*
X4766368Y-9058455D02*
X4775891Y-9039408D01*
X4775891Y-9039408D02*
X4794939Y-9010836D01*
X4794939Y-9010836D02*
X4804463Y-9001312D01*
X4861606Y-9029884D02*
X4985415Y-9029884D01*
X4985415Y-9029884D02*
X4918749Y-9106074D01*
X4918749Y-9106074D02*
X4947320Y-9106074D01*
X4947320Y-9106074D02*
X4966368Y-9115598D01*
X4966368Y-9115598D02*
X4975891Y-9125122D01*
X4975891Y-9125122D02*
X4985415Y-9144170D01*
X4985415Y-9144170D02*
X4985415Y-9191789D01*
X4985415Y-9191789D02*
X4975891Y-9210836D01*
X4975891Y-9210836D02*
X4966368Y-9220360D01*
X4966368Y-9220360D02*
X4947320Y-9229884D01*
X4947320Y-9229884D02*
X4890177Y-9229884D01*
X4890177Y-9229884D02*
X4871130Y-9220360D01*
X4871130Y-9220360D02*
X4861606Y-9210836D01*
X5099701Y-9115598D02*
X5080653Y-9106074D01*
X5080653Y-9106074D02*
X5071130Y-9096550D01*
X5071130Y-9096550D02*
X5061606Y-9077503D01*
X5061606Y-9077503D02*
X5061606Y-9067979D01*
X5061606Y-9067979D02*
X5071130Y-9048931D01*
X5071130Y-9048931D02*
X5080653Y-9039408D01*
X5080653Y-9039408D02*
X5099701Y-9029884D01*
X5099701Y-9029884D02*
X5137796Y-9029884D01*
X5137796Y-9029884D02*
X5156844Y-9039408D01*
X5156844Y-9039408D02*
X5166368Y-9048931D01*
X5166368Y-9048931D02*
X5175891Y-9067979D01*
X5175891Y-9067979D02*
X5175891Y-9077503D01*
X5175891Y-9077503D02*
X5166368Y-9096550D01*
X5166368Y-9096550D02*
X5156844Y-9106074D01*
X5156844Y-9106074D02*
X5137796Y-9115598D01*
X5137796Y-9115598D02*
X5099701Y-9115598D01*
X5099701Y-9115598D02*
X5080653Y-9125122D01*
X5080653Y-9125122D02*
X5071130Y-9134646D01*
X5071130Y-9134646D02*
X5061606Y-9153693D01*
X5061606Y-9153693D02*
X5061606Y-9191789D01*
X5061606Y-9191789D02*
X5071130Y-9210836D01*
X5071130Y-9210836D02*
X5080653Y-9220360D01*
X5080653Y-9220360D02*
X5099701Y-9229884D01*
X5099701Y-9229884D02*
X5137796Y-9229884D01*
X5137796Y-9229884D02*
X5156844Y-9220360D01*
X5156844Y-9220360D02*
X5166368Y-9210836D01*
X5166368Y-9210836D02*
X5175891Y-9191789D01*
X5175891Y-9191789D02*
X5175891Y-9153693D01*
X5175891Y-9153693D02*
X5166368Y-9134646D01*
X5166368Y-9134646D02*
X5156844Y-9125122D01*
X5156844Y-9125122D02*
X5137796Y-9115598D01*
X5413987Y-9229884D02*
X5413987Y-9029884D01*
X5499701Y-9229884D02*
X5499701Y-9125122D01*
X5499701Y-9125122D02*
X5490177Y-9106074D01*
X5490177Y-9106074D02*
X5471130Y-9096550D01*
X5471130Y-9096550D02*
X5442558Y-9096550D01*
X5442558Y-9096550D02*
X5423511Y-9106074D01*
X5423511Y-9106074D02*
X5413987Y-9115598D01*
X5623510Y-9229884D02*
X5604463Y-9220360D01*
X5604463Y-9220360D02*
X5594939Y-9210836D01*
X5594939Y-9210836D02*
X5585415Y-9191789D01*
X5585415Y-9191789D02*
X5585415Y-9134646D01*
X5585415Y-9134646D02*
X5594939Y-9115598D01*
X5594939Y-9115598D02*
X5604463Y-9106074D01*
X5604463Y-9106074D02*
X5623510Y-9096550D01*
X5623510Y-9096550D02*
X5652082Y-9096550D01*
X5652082Y-9096550D02*
X5671130Y-9106074D01*
X5671130Y-9106074D02*
X5680653Y-9115598D01*
X5680653Y-9115598D02*
X5690177Y-9134646D01*
X5690177Y-9134646D02*
X5690177Y-9191789D01*
X5690177Y-9191789D02*
X5680653Y-9210836D01*
X5680653Y-9210836D02*
X5671130Y-9220360D01*
X5671130Y-9220360D02*
X5652082Y-9229884D01*
X5652082Y-9229884D02*
X5623510Y-9229884D01*
X5804463Y-9229884D02*
X5785415Y-9220360D01*
X5785415Y-9220360D02*
X5775891Y-9201312D01*
X5775891Y-9201312D02*
X5775891Y-9029884D01*
X5956844Y-9220360D02*
X5937796Y-9229884D01*
X5937796Y-9229884D02*
X5899701Y-9229884D01*
X5899701Y-9229884D02*
X5880653Y-9220360D01*
X5880653Y-9220360D02*
X5871130Y-9201312D01*
X5871130Y-9201312D02*
X5871130Y-9125122D01*
X5871130Y-9125122D02*
X5880653Y-9106074D01*
X5880653Y-9106074D02*
X5899701Y-9096550D01*
X5899701Y-9096550D02*
X5937796Y-9096550D01*
X5937796Y-9096550D02*
X5956844Y-9106074D01*
X5956844Y-9106074D02*
X5966368Y-9125122D01*
X5966368Y-9125122D02*
X5966368Y-9144170D01*
X5966368Y-9144170D02*
X5871130Y-9163217D01*
X6042558Y-9220360D02*
X6061606Y-9229884D01*
X6061606Y-9229884D02*
X6099701Y-9229884D01*
X6099701Y-9229884D02*
X6118749Y-9220360D01*
X6118749Y-9220360D02*
X6128272Y-9201312D01*
X6128272Y-9201312D02*
X6128272Y-9191789D01*
X6128272Y-9191789D02*
X6118749Y-9172741D01*
X6118749Y-9172741D02*
X6099701Y-9163217D01*
X6099701Y-9163217D02*
X6071130Y-9163217D01*
X6071130Y-9163217D02*
X6052082Y-9153693D01*
X6052082Y-9153693D02*
X6042558Y-9134646D01*
X6042558Y-9134646D02*
X6042558Y-9125122D01*
X6042558Y-9125122D02*
X6052082Y-9106074D01*
X6052082Y-9106074D02*
X6071130Y-9096550D01*
X6071130Y-9096550D02*
X6099701Y-9096550D01*
X6099701Y-9096550D02*
X6118749Y-9106074D01*
X6194939Y-9306074D02*
X6204463Y-9296550D01*
X6204463Y-9296550D02*
X6223511Y-9267979D01*
X6223511Y-9267979D02*
X6233034Y-9248931D01*
X6233034Y-9248931D02*
X6242558Y-9220360D01*
X6242558Y-9220360D02*
X6252082Y-9172741D01*
X6252082Y-9172741D02*
X6252082Y-9134646D01*
X6252082Y-9134646D02*
X6242558Y-9087027D01*
X6242558Y-9087027D02*
X6233034Y-9058455D01*
X6233034Y-9058455D02*
X6223511Y-9039408D01*
X6223511Y-9039408D02*
X6204463Y-9010836D01*
X6204463Y-9010836D02*
X6194939Y-9001312D01*
D14*
X1184400Y-9357400D02*
X1184400Y-9447400D01*
X1139400Y-9402400D02*
X1229400Y-9402400D01*
D11*
X1528272Y-9293884D02*
X1547320Y-9293884D01*
X1547320Y-9293884D02*
X1566367Y-9303408D01*
X1566367Y-9303408D02*
X1575891Y-9312931D01*
X1575891Y-9312931D02*
X1585415Y-9331979D01*
X1585415Y-9331979D02*
X1594939Y-9370074D01*
X1594939Y-9370074D02*
X1594939Y-9417693D01*
X1594939Y-9417693D02*
X1585415Y-9455789D01*
X1585415Y-9455789D02*
X1575891Y-9474836D01*
X1575891Y-9474836D02*
X1566367Y-9484360D01*
X1566367Y-9484360D02*
X1547320Y-9493884D01*
X1547320Y-9493884D02*
X1528272Y-9493884D01*
X1528272Y-9493884D02*
X1509224Y-9484360D01*
X1509224Y-9484360D02*
X1499701Y-9474836D01*
X1499701Y-9474836D02*
X1490177Y-9455789D01*
X1490177Y-9455789D02*
X1480653Y-9417693D01*
X1480653Y-9417693D02*
X1480653Y-9370074D01*
X1480653Y-9370074D02*
X1490177Y-9331979D01*
X1490177Y-9331979D02*
X1499701Y-9312931D01*
X1499701Y-9312931D02*
X1509224Y-9303408D01*
X1509224Y-9303408D02*
X1528272Y-9293884D01*
X1680653Y-9474836D02*
X1690177Y-9484360D01*
X1690177Y-9484360D02*
X1680653Y-9493884D01*
X1680653Y-9493884D02*
X1671129Y-9484360D01*
X1671129Y-9484360D02*
X1680653Y-9474836D01*
X1680653Y-9474836D02*
X1680653Y-9493884D01*
X1785415Y-9493884D02*
X1823510Y-9493884D01*
X1823510Y-9493884D02*
X1842558Y-9484360D01*
X1842558Y-9484360D02*
X1852082Y-9474836D01*
X1852082Y-9474836D02*
X1871129Y-9446265D01*
X1871129Y-9446265D02*
X1880653Y-9408170D01*
X1880653Y-9408170D02*
X1880653Y-9331979D01*
X1880653Y-9331979D02*
X1871129Y-9312931D01*
X1871129Y-9312931D02*
X1861605Y-9303408D01*
X1861605Y-9303408D02*
X1842558Y-9293884D01*
X1842558Y-9293884D02*
X1804462Y-9293884D01*
X1804462Y-9293884D02*
X1785415Y-9303408D01*
X1785415Y-9303408D02*
X1775891Y-9312931D01*
X1775891Y-9312931D02*
X1766367Y-9331979D01*
X1766367Y-9331979D02*
X1766367Y-9379598D01*
X1766367Y-9379598D02*
X1775891Y-9398646D01*
X1775891Y-9398646D02*
X1785415Y-9408170D01*
X1785415Y-9408170D02*
X1804462Y-9417693D01*
X1804462Y-9417693D02*
X1842558Y-9417693D01*
X1842558Y-9417693D02*
X1861605Y-9408170D01*
X1861605Y-9408170D02*
X1871129Y-9398646D01*
X1871129Y-9398646D02*
X1880653Y-9379598D01*
X2004462Y-9293884D02*
X2023510Y-9293884D01*
X2023510Y-9293884D02*
X2042558Y-9303408D01*
X2042558Y-9303408D02*
X2052082Y-9312931D01*
X2052082Y-9312931D02*
X2061605Y-9331979D01*
X2061605Y-9331979D02*
X2071129Y-9370074D01*
X2071129Y-9370074D02*
X2071129Y-9417693D01*
X2071129Y-9417693D02*
X2061605Y-9455789D01*
X2061605Y-9455789D02*
X2052082Y-9474836D01*
X2052082Y-9474836D02*
X2042558Y-9484360D01*
X2042558Y-9484360D02*
X2023510Y-9493884D01*
X2023510Y-9493884D02*
X2004462Y-9493884D01*
X2004462Y-9493884D02*
X1985415Y-9484360D01*
X1985415Y-9484360D02*
X1975891Y-9474836D01*
X1975891Y-9474836D02*
X1966367Y-9455789D01*
X1966367Y-9455789D02*
X1956843Y-9417693D01*
X1956843Y-9417693D02*
X1956843Y-9370074D01*
X1956843Y-9370074D02*
X1966367Y-9331979D01*
X1966367Y-9331979D02*
X1975891Y-9312931D01*
X1975891Y-9312931D02*
X1985415Y-9303408D01*
X1985415Y-9303408D02*
X2004462Y-9293884D01*
X2194939Y-9293884D02*
X2213986Y-9293884D01*
X2213986Y-9293884D02*
X2233034Y-9303408D01*
X2233034Y-9303408D02*
X2242558Y-9312931D01*
X2242558Y-9312931D02*
X2252082Y-9331979D01*
X2252082Y-9331979D02*
X2261605Y-9370074D01*
X2261605Y-9370074D02*
X2261605Y-9417693D01*
X2261605Y-9417693D02*
X2252082Y-9455789D01*
X2252082Y-9455789D02*
X2242558Y-9474836D01*
X2242558Y-9474836D02*
X2233034Y-9484360D01*
X2233034Y-9484360D02*
X2213986Y-9493884D01*
X2213986Y-9493884D02*
X2194939Y-9493884D01*
X2194939Y-9493884D02*
X2175891Y-9484360D01*
X2175891Y-9484360D02*
X2166367Y-9474836D01*
X2166367Y-9474836D02*
X2156844Y-9455789D01*
X2156844Y-9455789D02*
X2147320Y-9417693D01*
X2147320Y-9417693D02*
X2147320Y-9370074D01*
X2147320Y-9370074D02*
X2156844Y-9331979D01*
X2156844Y-9331979D02*
X2166367Y-9312931D01*
X2166367Y-9312931D02*
X2175891Y-9303408D01*
X2175891Y-9303408D02*
X2194939Y-9293884D01*
X2347320Y-9493884D02*
X2347320Y-9360550D01*
X2347320Y-9379598D02*
X2356844Y-9370074D01*
X2356844Y-9370074D02*
X2375891Y-9360550D01*
X2375891Y-9360550D02*
X2404463Y-9360550D01*
X2404463Y-9360550D02*
X2423510Y-9370074D01*
X2423510Y-9370074D02*
X2433034Y-9389122D01*
X2433034Y-9389122D02*
X2433034Y-9493884D01*
X2433034Y-9389122D02*
X2442558Y-9370074D01*
X2442558Y-9370074D02*
X2461605Y-9360550D01*
X2461605Y-9360550D02*
X2490177Y-9360550D01*
X2490177Y-9360550D02*
X2509225Y-9370074D01*
X2509225Y-9370074D02*
X2518748Y-9389122D01*
X2518748Y-9389122D02*
X2518748Y-9493884D01*
X2613986Y-9493884D02*
X2613986Y-9360550D01*
X2613986Y-9379598D02*
X2623510Y-9370074D01*
X2623510Y-9370074D02*
X2642558Y-9360550D01*
X2642558Y-9360550D02*
X2671129Y-9360550D01*
X2671129Y-9360550D02*
X2690177Y-9370074D01*
X2690177Y-9370074D02*
X2699701Y-9389122D01*
X2699701Y-9389122D02*
X2699701Y-9493884D01*
X2699701Y-9389122D02*
X2709225Y-9370074D01*
X2709225Y-9370074D02*
X2728272Y-9360550D01*
X2728272Y-9360550D02*
X2756844Y-9360550D01*
X2756844Y-9360550D02*
X2775891Y-9370074D01*
X2775891Y-9370074D02*
X2785415Y-9389122D01*
X2785415Y-9389122D02*
X2785415Y-9493884D01*
X3175891Y-9284360D02*
X3004463Y-9541503D01*
X3433034Y-9293884D02*
X3452082Y-9293884D01*
X3452082Y-9293884D02*
X3471129Y-9303408D01*
X3471129Y-9303408D02*
X3480653Y-9312931D01*
X3480653Y-9312931D02*
X3490177Y-9331979D01*
X3490177Y-9331979D02*
X3499701Y-9370074D01*
X3499701Y-9370074D02*
X3499701Y-9417693D01*
X3499701Y-9417693D02*
X3490177Y-9455789D01*
X3490177Y-9455789D02*
X3480653Y-9474836D01*
X3480653Y-9474836D02*
X3471129Y-9484360D01*
X3471129Y-9484360D02*
X3452082Y-9493884D01*
X3452082Y-9493884D02*
X3433034Y-9493884D01*
X3433034Y-9493884D02*
X3413986Y-9484360D01*
X3413986Y-9484360D02*
X3404463Y-9474836D01*
X3404463Y-9474836D02*
X3394939Y-9455789D01*
X3394939Y-9455789D02*
X3385415Y-9417693D01*
X3385415Y-9417693D02*
X3385415Y-9370074D01*
X3385415Y-9370074D02*
X3394939Y-9331979D01*
X3394939Y-9331979D02*
X3404463Y-9312931D01*
X3404463Y-9312931D02*
X3413986Y-9303408D01*
X3413986Y-9303408D02*
X3433034Y-9293884D01*
X3585415Y-9474836D02*
X3594939Y-9484360D01*
X3594939Y-9484360D02*
X3585415Y-9493884D01*
X3585415Y-9493884D02*
X3575891Y-9484360D01*
X3575891Y-9484360D02*
X3585415Y-9474836D01*
X3585415Y-9474836D02*
X3585415Y-9493884D01*
X3718748Y-9293884D02*
X3737796Y-9293884D01*
X3737796Y-9293884D02*
X3756844Y-9303408D01*
X3756844Y-9303408D02*
X3766367Y-9312931D01*
X3766367Y-9312931D02*
X3775891Y-9331979D01*
X3775891Y-9331979D02*
X3785415Y-9370074D01*
X3785415Y-9370074D02*
X3785415Y-9417693D01*
X3785415Y-9417693D02*
X3775891Y-9455789D01*
X3775891Y-9455789D02*
X3766367Y-9474836D01*
X3766367Y-9474836D02*
X3756844Y-9484360D01*
X3756844Y-9484360D02*
X3737796Y-9493884D01*
X3737796Y-9493884D02*
X3718748Y-9493884D01*
X3718748Y-9493884D02*
X3699701Y-9484360D01*
X3699701Y-9484360D02*
X3690177Y-9474836D01*
X3690177Y-9474836D02*
X3680653Y-9455789D01*
X3680653Y-9455789D02*
X3671129Y-9417693D01*
X3671129Y-9417693D02*
X3671129Y-9370074D01*
X3671129Y-9370074D02*
X3680653Y-9331979D01*
X3680653Y-9331979D02*
X3690177Y-9312931D01*
X3690177Y-9312931D02*
X3699701Y-9303408D01*
X3699701Y-9303408D02*
X3718748Y-9293884D01*
X3852082Y-9293884D02*
X3975891Y-9293884D01*
X3975891Y-9293884D02*
X3909225Y-9370074D01*
X3909225Y-9370074D02*
X3937796Y-9370074D01*
X3937796Y-9370074D02*
X3956844Y-9379598D01*
X3956844Y-9379598D02*
X3966367Y-9389122D01*
X3966367Y-9389122D02*
X3975891Y-9408170D01*
X3975891Y-9408170D02*
X3975891Y-9455789D01*
X3975891Y-9455789D02*
X3966367Y-9474836D01*
X3966367Y-9474836D02*
X3956844Y-9484360D01*
X3956844Y-9484360D02*
X3937796Y-9493884D01*
X3937796Y-9493884D02*
X3880653Y-9493884D01*
X3880653Y-9493884D02*
X3861606Y-9484360D01*
X3861606Y-9484360D02*
X3852082Y-9474836D01*
X4156844Y-9293884D02*
X4061606Y-9293884D01*
X4061606Y-9293884D02*
X4052082Y-9389122D01*
X4052082Y-9389122D02*
X4061606Y-9379598D01*
X4061606Y-9379598D02*
X4080653Y-9370074D01*
X4080653Y-9370074D02*
X4128272Y-9370074D01*
X4128272Y-9370074D02*
X4147320Y-9379598D01*
X4147320Y-9379598D02*
X4156844Y-9389122D01*
X4156844Y-9389122D02*
X4166367Y-9408170D01*
X4166367Y-9408170D02*
X4166367Y-9455789D01*
X4166367Y-9455789D02*
X4156844Y-9474836D01*
X4156844Y-9474836D02*
X4147320Y-9484360D01*
X4147320Y-9484360D02*
X4128272Y-9493884D01*
X4128272Y-9493884D02*
X4080653Y-9493884D01*
X4080653Y-9493884D02*
X4061606Y-9484360D01*
X4061606Y-9484360D02*
X4052082Y-9474836D01*
X4337796Y-9360550D02*
X4337796Y-9493884D01*
X4290177Y-9284360D02*
X4242558Y-9427217D01*
X4242558Y-9427217D02*
X4366368Y-9427217D01*
X4433034Y-9293884D02*
X4433034Y-9331979D01*
X4509225Y-9293884D02*
X4509225Y-9331979D01*
X4804463Y-9570074D02*
X4794939Y-9560550D01*
X4794939Y-9560550D02*
X4775891Y-9531979D01*
X4775891Y-9531979D02*
X4766368Y-9512931D01*
X4766368Y-9512931D02*
X4756844Y-9484360D01*
X4756844Y-9484360D02*
X4747320Y-9436741D01*
X4747320Y-9436741D02*
X4747320Y-9398646D01*
X4747320Y-9398646D02*
X4756844Y-9351027D01*
X4756844Y-9351027D02*
X4766368Y-9322455D01*
X4766368Y-9322455D02*
X4775891Y-9303408D01*
X4775891Y-9303408D02*
X4794939Y-9274836D01*
X4794939Y-9274836D02*
X4804463Y-9265312D01*
X4966368Y-9360550D02*
X4966368Y-9493884D01*
X4918749Y-9284360D02*
X4871130Y-9427217D01*
X4871130Y-9427217D02*
X4994939Y-9427217D01*
X5223511Y-9493884D02*
X5223511Y-9293884D01*
X5309225Y-9493884D02*
X5309225Y-9389122D01*
X5309225Y-9389122D02*
X5299701Y-9370074D01*
X5299701Y-9370074D02*
X5280653Y-9360550D01*
X5280653Y-9360550D02*
X5252082Y-9360550D01*
X5252082Y-9360550D02*
X5233034Y-9370074D01*
X5233034Y-9370074D02*
X5223511Y-9379598D01*
X5433034Y-9493884D02*
X5413987Y-9484360D01*
X5413987Y-9484360D02*
X5404463Y-9474836D01*
X5404463Y-9474836D02*
X5394939Y-9455789D01*
X5394939Y-9455789D02*
X5394939Y-9398646D01*
X5394939Y-9398646D02*
X5404463Y-9379598D01*
X5404463Y-9379598D02*
X5413987Y-9370074D01*
X5413987Y-9370074D02*
X5433034Y-9360550D01*
X5433034Y-9360550D02*
X5461606Y-9360550D01*
X5461606Y-9360550D02*
X5480653Y-9370074D01*
X5480653Y-9370074D02*
X5490177Y-9379598D01*
X5490177Y-9379598D02*
X5499701Y-9398646D01*
X5499701Y-9398646D02*
X5499701Y-9455789D01*
X5499701Y-9455789D02*
X5490177Y-9474836D01*
X5490177Y-9474836D02*
X5480653Y-9484360D01*
X5480653Y-9484360D02*
X5461606Y-9493884D01*
X5461606Y-9493884D02*
X5433034Y-9493884D01*
X5613987Y-9493884D02*
X5594939Y-9484360D01*
X5594939Y-9484360D02*
X5585415Y-9465312D01*
X5585415Y-9465312D02*
X5585415Y-9293884D01*
X5766368Y-9484360D02*
X5747320Y-9493884D01*
X5747320Y-9493884D02*
X5709225Y-9493884D01*
X5709225Y-9493884D02*
X5690177Y-9484360D01*
X5690177Y-9484360D02*
X5680653Y-9465312D01*
X5680653Y-9465312D02*
X5680653Y-9389122D01*
X5680653Y-9389122D02*
X5690177Y-9370074D01*
X5690177Y-9370074D02*
X5709225Y-9360550D01*
X5709225Y-9360550D02*
X5747320Y-9360550D01*
X5747320Y-9360550D02*
X5766368Y-9370074D01*
X5766368Y-9370074D02*
X5775891Y-9389122D01*
X5775891Y-9389122D02*
X5775891Y-9408170D01*
X5775891Y-9408170D02*
X5680653Y-9427217D01*
X5852082Y-9484360D02*
X5871130Y-9493884D01*
X5871130Y-9493884D02*
X5909225Y-9493884D01*
X5909225Y-9493884D02*
X5928272Y-9484360D01*
X5928272Y-9484360D02*
X5937796Y-9465312D01*
X5937796Y-9465312D02*
X5937796Y-9455789D01*
X5937796Y-9455789D02*
X5928272Y-9436741D01*
X5928272Y-9436741D02*
X5909225Y-9427217D01*
X5909225Y-9427217D02*
X5880653Y-9427217D01*
X5880653Y-9427217D02*
X5861606Y-9417693D01*
X5861606Y-9417693D02*
X5852082Y-9398646D01*
X5852082Y-9398646D02*
X5852082Y-9389122D01*
X5852082Y-9389122D02*
X5861606Y-9370074D01*
X5861606Y-9370074D02*
X5880653Y-9360550D01*
X5880653Y-9360550D02*
X5909225Y-9360550D01*
X5909225Y-9360550D02*
X5928272Y-9370074D01*
X6004463Y-9570074D02*
X6013987Y-9560550D01*
X6013987Y-9560550D02*
X6033034Y-9531979D01*
X6033034Y-9531979D02*
X6042558Y-9512931D01*
X6042558Y-9512931D02*
X6052082Y-9484360D01*
X6052082Y-9484360D02*
X6061606Y-9436741D01*
X6061606Y-9436741D02*
X6061606Y-9398646D01*
X6061606Y-9398646D02*
X6052082Y-9351027D01*
X6052082Y-9351027D02*
X6042558Y-9322455D01*
X6042558Y-9322455D02*
X6033034Y-9303408D01*
X6033034Y-9303408D02*
X6013987Y-9274836D01*
X6013987Y-9274836D02*
X6004463Y-9265312D01*
D15*
X1214756Y-9701756D02*
X1214756Y-9631044D01*
X1144044Y-9631044D01*
X1144044Y-9701756D01*
X1214756Y-9701756D01*
D11*
X1594939Y-9757884D02*
X1480653Y-9757884D01*
X1537796Y-9757884D02*
X1537796Y-9557884D01*
X1537796Y-9557884D02*
X1518748Y-9586455D01*
X1518748Y-9586455D02*
X1499701Y-9605503D01*
X1499701Y-9605503D02*
X1480653Y-9615027D01*
X1680653Y-9738836D02*
X1690177Y-9748360D01*
X1690177Y-9748360D02*
X1680653Y-9757884D01*
X1680653Y-9757884D02*
X1671129Y-9748360D01*
X1671129Y-9748360D02*
X1680653Y-9738836D01*
X1680653Y-9738836D02*
X1680653Y-9757884D01*
X1813986Y-9557884D02*
X1833034Y-9557884D01*
X1833034Y-9557884D02*
X1852082Y-9567408D01*
X1852082Y-9567408D02*
X1861605Y-9576931D01*
X1861605Y-9576931D02*
X1871129Y-9595979D01*
X1871129Y-9595979D02*
X1880653Y-9634074D01*
X1880653Y-9634074D02*
X1880653Y-9681693D01*
X1880653Y-9681693D02*
X1871129Y-9719789D01*
X1871129Y-9719789D02*
X1861605Y-9738836D01*
X1861605Y-9738836D02*
X1852082Y-9748360D01*
X1852082Y-9748360D02*
X1833034Y-9757884D01*
X1833034Y-9757884D02*
X1813986Y-9757884D01*
X1813986Y-9757884D02*
X1794939Y-9748360D01*
X1794939Y-9748360D02*
X1785415Y-9738836D01*
X1785415Y-9738836D02*
X1775891Y-9719789D01*
X1775891Y-9719789D02*
X1766367Y-9681693D01*
X1766367Y-9681693D02*
X1766367Y-9634074D01*
X1766367Y-9634074D02*
X1775891Y-9595979D01*
X1775891Y-9595979D02*
X1785415Y-9576931D01*
X1785415Y-9576931D02*
X1794939Y-9567408D01*
X1794939Y-9567408D02*
X1813986Y-9557884D01*
X2004462Y-9557884D02*
X2023510Y-9557884D01*
X2023510Y-9557884D02*
X2042558Y-9567408D01*
X2042558Y-9567408D02*
X2052082Y-9576931D01*
X2052082Y-9576931D02*
X2061605Y-9595979D01*
X2061605Y-9595979D02*
X2071129Y-9634074D01*
X2071129Y-9634074D02*
X2071129Y-9681693D01*
X2071129Y-9681693D02*
X2061605Y-9719789D01*
X2061605Y-9719789D02*
X2052082Y-9738836D01*
X2052082Y-9738836D02*
X2042558Y-9748360D01*
X2042558Y-9748360D02*
X2023510Y-9757884D01*
X2023510Y-9757884D02*
X2004462Y-9757884D01*
X2004462Y-9757884D02*
X1985415Y-9748360D01*
X1985415Y-9748360D02*
X1975891Y-9738836D01*
X1975891Y-9738836D02*
X1966367Y-9719789D01*
X1966367Y-9719789D02*
X1956843Y-9681693D01*
X1956843Y-9681693D02*
X1956843Y-9634074D01*
X1956843Y-9634074D02*
X1966367Y-9595979D01*
X1966367Y-9595979D02*
X1975891Y-9576931D01*
X1975891Y-9576931D02*
X1985415Y-9567408D01*
X1985415Y-9567408D02*
X2004462Y-9557884D01*
X2194939Y-9557884D02*
X2213986Y-9557884D01*
X2213986Y-9557884D02*
X2233034Y-9567408D01*
X2233034Y-9567408D02*
X2242558Y-9576931D01*
X2242558Y-9576931D02*
X2252082Y-9595979D01*
X2252082Y-9595979D02*
X2261605Y-9634074D01*
X2261605Y-9634074D02*
X2261605Y-9681693D01*
X2261605Y-9681693D02*
X2252082Y-9719789D01*
X2252082Y-9719789D02*
X2242558Y-9738836D01*
X2242558Y-9738836D02*
X2233034Y-9748360D01*
X2233034Y-9748360D02*
X2213986Y-9757884D01*
X2213986Y-9757884D02*
X2194939Y-9757884D01*
X2194939Y-9757884D02*
X2175891Y-9748360D01*
X2175891Y-9748360D02*
X2166367Y-9738836D01*
X2166367Y-9738836D02*
X2156844Y-9719789D01*
X2156844Y-9719789D02*
X2147320Y-9681693D01*
X2147320Y-9681693D02*
X2147320Y-9634074D01*
X2147320Y-9634074D02*
X2156844Y-9595979D01*
X2156844Y-9595979D02*
X2166367Y-9576931D01*
X2166367Y-9576931D02*
X2175891Y-9567408D01*
X2175891Y-9567408D02*
X2194939Y-9557884D01*
X2347320Y-9757884D02*
X2347320Y-9624550D01*
X2347320Y-9643598D02*
X2356844Y-9634074D01*
X2356844Y-9634074D02*
X2375891Y-9624550D01*
X2375891Y-9624550D02*
X2404463Y-9624550D01*
X2404463Y-9624550D02*
X2423510Y-9634074D01*
X2423510Y-9634074D02*
X2433034Y-9653122D01*
X2433034Y-9653122D02*
X2433034Y-9757884D01*
X2433034Y-9653122D02*
X2442558Y-9634074D01*
X2442558Y-9634074D02*
X2461605Y-9624550D01*
X2461605Y-9624550D02*
X2490177Y-9624550D01*
X2490177Y-9624550D02*
X2509225Y-9634074D01*
X2509225Y-9634074D02*
X2518748Y-9653122D01*
X2518748Y-9653122D02*
X2518748Y-9757884D01*
X2613986Y-9757884D02*
X2613986Y-9624550D01*
X2613986Y-9643598D02*
X2623510Y-9634074D01*
X2623510Y-9634074D02*
X2642558Y-9624550D01*
X2642558Y-9624550D02*
X2671129Y-9624550D01*
X2671129Y-9624550D02*
X2690177Y-9634074D01*
X2690177Y-9634074D02*
X2699701Y-9653122D01*
X2699701Y-9653122D02*
X2699701Y-9757884D01*
X2699701Y-9653122D02*
X2709225Y-9634074D01*
X2709225Y-9634074D02*
X2728272Y-9624550D01*
X2728272Y-9624550D02*
X2756844Y-9624550D01*
X2756844Y-9624550D02*
X2775891Y-9634074D01*
X2775891Y-9634074D02*
X2785415Y-9653122D01*
X2785415Y-9653122D02*
X2785415Y-9757884D01*
X3175891Y-9548360D02*
X3004463Y-9805503D01*
X3433034Y-9557884D02*
X3452082Y-9557884D01*
X3452082Y-9557884D02*
X3471129Y-9567408D01*
X3471129Y-9567408D02*
X3480653Y-9576931D01*
X3480653Y-9576931D02*
X3490177Y-9595979D01*
X3490177Y-9595979D02*
X3499701Y-9634074D01*
X3499701Y-9634074D02*
X3499701Y-9681693D01*
X3499701Y-9681693D02*
X3490177Y-9719789D01*
X3490177Y-9719789D02*
X3480653Y-9738836D01*
X3480653Y-9738836D02*
X3471129Y-9748360D01*
X3471129Y-9748360D02*
X3452082Y-9757884D01*
X3452082Y-9757884D02*
X3433034Y-9757884D01*
X3433034Y-9757884D02*
X3413986Y-9748360D01*
X3413986Y-9748360D02*
X3404463Y-9738836D01*
X3404463Y-9738836D02*
X3394939Y-9719789D01*
X3394939Y-9719789D02*
X3385415Y-9681693D01*
X3385415Y-9681693D02*
X3385415Y-9634074D01*
X3385415Y-9634074D02*
X3394939Y-9595979D01*
X3394939Y-9595979D02*
X3404463Y-9576931D01*
X3404463Y-9576931D02*
X3413986Y-9567408D01*
X3413986Y-9567408D02*
X3433034Y-9557884D01*
X3585415Y-9738836D02*
X3594939Y-9748360D01*
X3594939Y-9748360D02*
X3585415Y-9757884D01*
X3585415Y-9757884D02*
X3575891Y-9748360D01*
X3575891Y-9748360D02*
X3585415Y-9738836D01*
X3585415Y-9738836D02*
X3585415Y-9757884D01*
X3718748Y-9557884D02*
X3737796Y-9557884D01*
X3737796Y-9557884D02*
X3756844Y-9567408D01*
X3756844Y-9567408D02*
X3766367Y-9576931D01*
X3766367Y-9576931D02*
X3775891Y-9595979D01*
X3775891Y-9595979D02*
X3785415Y-9634074D01*
X3785415Y-9634074D02*
X3785415Y-9681693D01*
X3785415Y-9681693D02*
X3775891Y-9719789D01*
X3775891Y-9719789D02*
X3766367Y-9738836D01*
X3766367Y-9738836D02*
X3756844Y-9748360D01*
X3756844Y-9748360D02*
X3737796Y-9757884D01*
X3737796Y-9757884D02*
X3718748Y-9757884D01*
X3718748Y-9757884D02*
X3699701Y-9748360D01*
X3699701Y-9748360D02*
X3690177Y-9738836D01*
X3690177Y-9738836D02*
X3680653Y-9719789D01*
X3680653Y-9719789D02*
X3671129Y-9681693D01*
X3671129Y-9681693D02*
X3671129Y-9634074D01*
X3671129Y-9634074D02*
X3680653Y-9595979D01*
X3680653Y-9595979D02*
X3690177Y-9576931D01*
X3690177Y-9576931D02*
X3699701Y-9567408D01*
X3699701Y-9567408D02*
X3718748Y-9557884D01*
X3852082Y-9557884D02*
X3975891Y-9557884D01*
X3975891Y-9557884D02*
X3909225Y-9634074D01*
X3909225Y-9634074D02*
X3937796Y-9634074D01*
X3937796Y-9634074D02*
X3956844Y-9643598D01*
X3956844Y-9643598D02*
X3966367Y-9653122D01*
X3966367Y-9653122D02*
X3975891Y-9672170D01*
X3975891Y-9672170D02*
X3975891Y-9719789D01*
X3975891Y-9719789D02*
X3966367Y-9738836D01*
X3966367Y-9738836D02*
X3956844Y-9748360D01*
X3956844Y-9748360D02*
X3937796Y-9757884D01*
X3937796Y-9757884D02*
X3880653Y-9757884D01*
X3880653Y-9757884D02*
X3861606Y-9748360D01*
X3861606Y-9748360D02*
X3852082Y-9738836D01*
X4071129Y-9757884D02*
X4109225Y-9757884D01*
X4109225Y-9757884D02*
X4128272Y-9748360D01*
X4128272Y-9748360D02*
X4137796Y-9738836D01*
X4137796Y-9738836D02*
X4156844Y-9710265D01*
X4156844Y-9710265D02*
X4166367Y-9672170D01*
X4166367Y-9672170D02*
X4166367Y-9595979D01*
X4166367Y-9595979D02*
X4156844Y-9576931D01*
X4156844Y-9576931D02*
X4147320Y-9567408D01*
X4147320Y-9567408D02*
X4128272Y-9557884D01*
X4128272Y-9557884D02*
X4090177Y-9557884D01*
X4090177Y-9557884D02*
X4071129Y-9567408D01*
X4071129Y-9567408D02*
X4061606Y-9576931D01*
X4061606Y-9576931D02*
X4052082Y-9595979D01*
X4052082Y-9595979D02*
X4052082Y-9643598D01*
X4052082Y-9643598D02*
X4061606Y-9662646D01*
X4061606Y-9662646D02*
X4071129Y-9672170D01*
X4071129Y-9672170D02*
X4090177Y-9681693D01*
X4090177Y-9681693D02*
X4128272Y-9681693D01*
X4128272Y-9681693D02*
X4147320Y-9672170D01*
X4147320Y-9672170D02*
X4156844Y-9662646D01*
X4156844Y-9662646D02*
X4166367Y-9643598D01*
X4337796Y-9624550D02*
X4337796Y-9757884D01*
X4290177Y-9548360D02*
X4242558Y-9691217D01*
X4242558Y-9691217D02*
X4366368Y-9691217D01*
X4433034Y-9557884D02*
X4433034Y-9595979D01*
X4509225Y-9557884D02*
X4509225Y-9595979D01*
X4804463Y-9834074D02*
X4794939Y-9824550D01*
X4794939Y-9824550D02*
X4775891Y-9795979D01*
X4775891Y-9795979D02*
X4766368Y-9776931D01*
X4766368Y-9776931D02*
X4756844Y-9748360D01*
X4756844Y-9748360D02*
X4747320Y-9700741D01*
X4747320Y-9700741D02*
X4747320Y-9662646D01*
X4747320Y-9662646D02*
X4756844Y-9615027D01*
X4756844Y-9615027D02*
X4766368Y-9586455D01*
X4766368Y-9586455D02*
X4775891Y-9567408D01*
X4775891Y-9567408D02*
X4794939Y-9538836D01*
X4794939Y-9538836D02*
X4804463Y-9529312D01*
X4861606Y-9557884D02*
X4985415Y-9557884D01*
X4985415Y-9557884D02*
X4918749Y-9634074D01*
X4918749Y-9634074D02*
X4947320Y-9634074D01*
X4947320Y-9634074D02*
X4966368Y-9643598D01*
X4966368Y-9643598D02*
X4975891Y-9653122D01*
X4975891Y-9653122D02*
X4985415Y-9672170D01*
X4985415Y-9672170D02*
X4985415Y-9719789D01*
X4985415Y-9719789D02*
X4975891Y-9738836D01*
X4975891Y-9738836D02*
X4966368Y-9748360D01*
X4966368Y-9748360D02*
X4947320Y-9757884D01*
X4947320Y-9757884D02*
X4890177Y-9757884D01*
X4890177Y-9757884D02*
X4871130Y-9748360D01*
X4871130Y-9748360D02*
X4861606Y-9738836D01*
X5099701Y-9643598D02*
X5080653Y-9634074D01*
X5080653Y-9634074D02*
X5071130Y-9624550D01*
X5071130Y-9624550D02*
X5061606Y-9605503D01*
X5061606Y-9605503D02*
X5061606Y-9595979D01*
X5061606Y-9595979D02*
X5071130Y-9576931D01*
X5071130Y-9576931D02*
X5080653Y-9567408D01*
X5080653Y-9567408D02*
X5099701Y-9557884D01*
X5099701Y-9557884D02*
X5137796Y-9557884D01*
X5137796Y-9557884D02*
X5156844Y-9567408D01*
X5156844Y-9567408D02*
X5166368Y-9576931D01*
X5166368Y-9576931D02*
X5175891Y-9595979D01*
X5175891Y-9595979D02*
X5175891Y-9605503D01*
X5175891Y-9605503D02*
X5166368Y-9624550D01*
X5166368Y-9624550D02*
X5156844Y-9634074D01*
X5156844Y-9634074D02*
X5137796Y-9643598D01*
X5137796Y-9643598D02*
X5099701Y-9643598D01*
X5099701Y-9643598D02*
X5080653Y-9653122D01*
X5080653Y-9653122D02*
X5071130Y-9662646D01*
X5071130Y-9662646D02*
X5061606Y-9681693D01*
X5061606Y-9681693D02*
X5061606Y-9719789D01*
X5061606Y-9719789D02*
X5071130Y-9738836D01*
X5071130Y-9738836D02*
X5080653Y-9748360D01*
X5080653Y-9748360D02*
X5099701Y-9757884D01*
X5099701Y-9757884D02*
X5137796Y-9757884D01*
X5137796Y-9757884D02*
X5156844Y-9748360D01*
X5156844Y-9748360D02*
X5166368Y-9738836D01*
X5166368Y-9738836D02*
X5175891Y-9719789D01*
X5175891Y-9719789D02*
X5175891Y-9681693D01*
X5175891Y-9681693D02*
X5166368Y-9662646D01*
X5166368Y-9662646D02*
X5156844Y-9653122D01*
X5156844Y-9653122D02*
X5137796Y-9643598D01*
X5413987Y-9757884D02*
X5413987Y-9557884D01*
X5499701Y-9757884D02*
X5499701Y-9653122D01*
X5499701Y-9653122D02*
X5490177Y-9634074D01*
X5490177Y-9634074D02*
X5471130Y-9624550D01*
X5471130Y-9624550D02*
X5442558Y-9624550D01*
X5442558Y-9624550D02*
X5423511Y-9634074D01*
X5423511Y-9634074D02*
X5413987Y-9643598D01*
X5623510Y-9757884D02*
X5604463Y-9748360D01*
X5604463Y-9748360D02*
X5594939Y-9738836D01*
X5594939Y-9738836D02*
X5585415Y-9719789D01*
X5585415Y-9719789D02*
X5585415Y-9662646D01*
X5585415Y-9662646D02*
X5594939Y-9643598D01*
X5594939Y-9643598D02*
X5604463Y-9634074D01*
X5604463Y-9634074D02*
X5623510Y-9624550D01*
X5623510Y-9624550D02*
X5652082Y-9624550D01*
X5652082Y-9624550D02*
X5671130Y-9634074D01*
X5671130Y-9634074D02*
X5680653Y-9643598D01*
X5680653Y-9643598D02*
X5690177Y-9662646D01*
X5690177Y-9662646D02*
X5690177Y-9719789D01*
X5690177Y-9719789D02*
X5680653Y-9738836D01*
X5680653Y-9738836D02*
X5671130Y-9748360D01*
X5671130Y-9748360D02*
X5652082Y-9757884D01*
X5652082Y-9757884D02*
X5623510Y-9757884D01*
X5804463Y-9757884D02*
X5785415Y-9748360D01*
X5785415Y-9748360D02*
X5775891Y-9729312D01*
X5775891Y-9729312D02*
X5775891Y-9557884D01*
X5956844Y-9748360D02*
X5937796Y-9757884D01*
X5937796Y-9757884D02*
X5899701Y-9757884D01*
X5899701Y-9757884D02*
X5880653Y-9748360D01*
X5880653Y-9748360D02*
X5871130Y-9729312D01*
X5871130Y-9729312D02*
X5871130Y-9653122D01*
X5871130Y-9653122D02*
X5880653Y-9634074D01*
X5880653Y-9634074D02*
X5899701Y-9624550D01*
X5899701Y-9624550D02*
X5937796Y-9624550D01*
X5937796Y-9624550D02*
X5956844Y-9634074D01*
X5956844Y-9634074D02*
X5966368Y-9653122D01*
X5966368Y-9653122D02*
X5966368Y-9672170D01*
X5966368Y-9672170D02*
X5871130Y-9691217D01*
X6042558Y-9748360D02*
X6061606Y-9757884D01*
X6061606Y-9757884D02*
X6099701Y-9757884D01*
X6099701Y-9757884D02*
X6118749Y-9748360D01*
X6118749Y-9748360D02*
X6128272Y-9729312D01*
X6128272Y-9729312D02*
X6128272Y-9719789D01*
X6128272Y-9719789D02*
X6118749Y-9700741D01*
X6118749Y-9700741D02*
X6099701Y-9691217D01*
X6099701Y-9691217D02*
X6071130Y-9691217D01*
X6071130Y-9691217D02*
X6052082Y-9681693D01*
X6052082Y-9681693D02*
X6042558Y-9662646D01*
X6042558Y-9662646D02*
X6042558Y-9653122D01*
X6042558Y-9653122D02*
X6052082Y-9634074D01*
X6052082Y-9634074D02*
X6071130Y-9624550D01*
X6071130Y-9624550D02*
X6099701Y-9624550D01*
X6099701Y-9624550D02*
X6118749Y-9634074D01*
X6194939Y-9834074D02*
X6204463Y-9824550D01*
X6204463Y-9824550D02*
X6223511Y-9795979D01*
X6223511Y-9795979D02*
X6233034Y-9776931D01*
X6233034Y-9776931D02*
X6242558Y-9748360D01*
X6242558Y-9748360D02*
X6252082Y-9700741D01*
X6252082Y-9700741D02*
X6252082Y-9662646D01*
X6252082Y-9662646D02*
X6242558Y-9615027D01*
X6242558Y-9615027D02*
X6233034Y-9586455D01*
X6233034Y-9586455D02*
X6223511Y-9567408D01*
X6223511Y-9567408D02*
X6204463Y-9538836D01*
X6204463Y-9538836D02*
X6194939Y-9529312D01*
D16*
X1174400Y-9985400D02*
X1229400Y-9930400D01*
X1174400Y-9875400D01*
X1119400Y-9930400D01*
X1174400Y-9985400D01*
D11*
X1594939Y-10021884D02*
X1480653Y-10021884D01*
X1537796Y-10021884D02*
X1537796Y-9821884D01*
X1537796Y-9821884D02*
X1518748Y-9850455D01*
X1518748Y-9850455D02*
X1499701Y-9869503D01*
X1499701Y-9869503D02*
X1480653Y-9879027D01*
X1680653Y-10002836D02*
X1690177Y-10012360D01*
X1690177Y-10012360D02*
X1680653Y-10021884D01*
X1680653Y-10021884D02*
X1671129Y-10012360D01*
X1671129Y-10012360D02*
X1680653Y-10002836D01*
X1680653Y-10002836D02*
X1680653Y-10021884D01*
X1880653Y-10021884D02*
X1766367Y-10021884D01*
X1823510Y-10021884D02*
X1823510Y-9821884D01*
X1823510Y-9821884D02*
X1804462Y-9850455D01*
X1804462Y-9850455D02*
X1785415Y-9869503D01*
X1785415Y-9869503D02*
X1766367Y-9879027D01*
X2004462Y-9821884D02*
X2023510Y-9821884D01*
X2023510Y-9821884D02*
X2042558Y-9831408D01*
X2042558Y-9831408D02*
X2052082Y-9840931D01*
X2052082Y-9840931D02*
X2061605Y-9859979D01*
X2061605Y-9859979D02*
X2071129Y-9898074D01*
X2071129Y-9898074D02*
X2071129Y-9945693D01*
X2071129Y-9945693D02*
X2061605Y-9983789D01*
X2061605Y-9983789D02*
X2052082Y-10002836D01*
X2052082Y-10002836D02*
X2042558Y-10012360D01*
X2042558Y-10012360D02*
X2023510Y-10021884D01*
X2023510Y-10021884D02*
X2004462Y-10021884D01*
X2004462Y-10021884D02*
X1985415Y-10012360D01*
X1985415Y-10012360D02*
X1975891Y-10002836D01*
X1975891Y-10002836D02*
X1966367Y-9983789D01*
X1966367Y-9983789D02*
X1956843Y-9945693D01*
X1956843Y-9945693D02*
X1956843Y-9898074D01*
X1956843Y-9898074D02*
X1966367Y-9859979D01*
X1966367Y-9859979D02*
X1975891Y-9840931D01*
X1975891Y-9840931D02*
X1985415Y-9831408D01*
X1985415Y-9831408D02*
X2004462Y-9821884D01*
X2194939Y-9821884D02*
X2213986Y-9821884D01*
X2213986Y-9821884D02*
X2233034Y-9831408D01*
X2233034Y-9831408D02*
X2242558Y-9840931D01*
X2242558Y-9840931D02*
X2252082Y-9859979D01*
X2252082Y-9859979D02*
X2261605Y-9898074D01*
X2261605Y-9898074D02*
X2261605Y-9945693D01*
X2261605Y-9945693D02*
X2252082Y-9983789D01*
X2252082Y-9983789D02*
X2242558Y-10002836D01*
X2242558Y-10002836D02*
X2233034Y-10012360D01*
X2233034Y-10012360D02*
X2213986Y-10021884D01*
X2213986Y-10021884D02*
X2194939Y-10021884D01*
X2194939Y-10021884D02*
X2175891Y-10012360D01*
X2175891Y-10012360D02*
X2166367Y-10002836D01*
X2166367Y-10002836D02*
X2156844Y-9983789D01*
X2156844Y-9983789D02*
X2147320Y-9945693D01*
X2147320Y-9945693D02*
X2147320Y-9898074D01*
X2147320Y-9898074D02*
X2156844Y-9859979D01*
X2156844Y-9859979D02*
X2166367Y-9840931D01*
X2166367Y-9840931D02*
X2175891Y-9831408D01*
X2175891Y-9831408D02*
X2194939Y-9821884D01*
X2347320Y-10021884D02*
X2347320Y-9888550D01*
X2347320Y-9907598D02*
X2356844Y-9898074D01*
X2356844Y-9898074D02*
X2375891Y-9888550D01*
X2375891Y-9888550D02*
X2404463Y-9888550D01*
X2404463Y-9888550D02*
X2423510Y-9898074D01*
X2423510Y-9898074D02*
X2433034Y-9917122D01*
X2433034Y-9917122D02*
X2433034Y-10021884D01*
X2433034Y-9917122D02*
X2442558Y-9898074D01*
X2442558Y-9898074D02*
X2461605Y-9888550D01*
X2461605Y-9888550D02*
X2490177Y-9888550D01*
X2490177Y-9888550D02*
X2509225Y-9898074D01*
X2509225Y-9898074D02*
X2518748Y-9917122D01*
X2518748Y-9917122D02*
X2518748Y-10021884D01*
X2613986Y-10021884D02*
X2613986Y-9888550D01*
X2613986Y-9907598D02*
X2623510Y-9898074D01*
X2623510Y-9898074D02*
X2642558Y-9888550D01*
X2642558Y-9888550D02*
X2671129Y-9888550D01*
X2671129Y-9888550D02*
X2690177Y-9898074D01*
X2690177Y-9898074D02*
X2699701Y-9917122D01*
X2699701Y-9917122D02*
X2699701Y-10021884D01*
X2699701Y-9917122D02*
X2709225Y-9898074D01*
X2709225Y-9898074D02*
X2728272Y-9888550D01*
X2728272Y-9888550D02*
X2756844Y-9888550D01*
X2756844Y-9888550D02*
X2775891Y-9898074D01*
X2775891Y-9898074D02*
X2785415Y-9917122D01*
X2785415Y-9917122D02*
X2785415Y-10021884D01*
X3175891Y-9812360D02*
X3004463Y-10069503D01*
X3433034Y-9821884D02*
X3452082Y-9821884D01*
X3452082Y-9821884D02*
X3471129Y-9831408D01*
X3471129Y-9831408D02*
X3480653Y-9840931D01*
X3480653Y-9840931D02*
X3490177Y-9859979D01*
X3490177Y-9859979D02*
X3499701Y-9898074D01*
X3499701Y-9898074D02*
X3499701Y-9945693D01*
X3499701Y-9945693D02*
X3490177Y-9983789D01*
X3490177Y-9983789D02*
X3480653Y-10002836D01*
X3480653Y-10002836D02*
X3471129Y-10012360D01*
X3471129Y-10012360D02*
X3452082Y-10021884D01*
X3452082Y-10021884D02*
X3433034Y-10021884D01*
X3433034Y-10021884D02*
X3413986Y-10012360D01*
X3413986Y-10012360D02*
X3404463Y-10002836D01*
X3404463Y-10002836D02*
X3394939Y-9983789D01*
X3394939Y-9983789D02*
X3385415Y-9945693D01*
X3385415Y-9945693D02*
X3385415Y-9898074D01*
X3385415Y-9898074D02*
X3394939Y-9859979D01*
X3394939Y-9859979D02*
X3404463Y-9840931D01*
X3404463Y-9840931D02*
X3413986Y-9831408D01*
X3413986Y-9831408D02*
X3433034Y-9821884D01*
X3585415Y-10002836D02*
X3594939Y-10012360D01*
X3594939Y-10012360D02*
X3585415Y-10021884D01*
X3585415Y-10021884D02*
X3575891Y-10012360D01*
X3575891Y-10012360D02*
X3585415Y-10002836D01*
X3585415Y-10002836D02*
X3585415Y-10021884D01*
X3718748Y-9821884D02*
X3737796Y-9821884D01*
X3737796Y-9821884D02*
X3756844Y-9831408D01*
X3756844Y-9831408D02*
X3766367Y-9840931D01*
X3766367Y-9840931D02*
X3775891Y-9859979D01*
X3775891Y-9859979D02*
X3785415Y-9898074D01*
X3785415Y-9898074D02*
X3785415Y-9945693D01*
X3785415Y-9945693D02*
X3775891Y-9983789D01*
X3775891Y-9983789D02*
X3766367Y-10002836D01*
X3766367Y-10002836D02*
X3756844Y-10012360D01*
X3756844Y-10012360D02*
X3737796Y-10021884D01*
X3737796Y-10021884D02*
X3718748Y-10021884D01*
X3718748Y-10021884D02*
X3699701Y-10012360D01*
X3699701Y-10012360D02*
X3690177Y-10002836D01*
X3690177Y-10002836D02*
X3680653Y-9983789D01*
X3680653Y-9983789D02*
X3671129Y-9945693D01*
X3671129Y-9945693D02*
X3671129Y-9898074D01*
X3671129Y-9898074D02*
X3680653Y-9859979D01*
X3680653Y-9859979D02*
X3690177Y-9840931D01*
X3690177Y-9840931D02*
X3699701Y-9831408D01*
X3699701Y-9831408D02*
X3718748Y-9821884D01*
X3956844Y-9888550D02*
X3956844Y-10021884D01*
X3909225Y-9812360D02*
X3861606Y-9955217D01*
X3861606Y-9955217D02*
X3985415Y-9955217D01*
X4042558Y-9821884D02*
X4166367Y-9821884D01*
X4166367Y-9821884D02*
X4099701Y-9898074D01*
X4099701Y-9898074D02*
X4128272Y-9898074D01*
X4128272Y-9898074D02*
X4147320Y-9907598D01*
X4147320Y-9907598D02*
X4156844Y-9917122D01*
X4156844Y-9917122D02*
X4166367Y-9936170D01*
X4166367Y-9936170D02*
X4166367Y-9983789D01*
X4166367Y-9983789D02*
X4156844Y-10002836D01*
X4156844Y-10002836D02*
X4147320Y-10012360D01*
X4147320Y-10012360D02*
X4128272Y-10021884D01*
X4128272Y-10021884D02*
X4071129Y-10021884D01*
X4071129Y-10021884D02*
X4052082Y-10012360D01*
X4052082Y-10012360D02*
X4042558Y-10002836D01*
X4233034Y-9821884D02*
X4356844Y-9821884D01*
X4356844Y-9821884D02*
X4290177Y-9898074D01*
X4290177Y-9898074D02*
X4318749Y-9898074D01*
X4318749Y-9898074D02*
X4337796Y-9907598D01*
X4337796Y-9907598D02*
X4347320Y-9917122D01*
X4347320Y-9917122D02*
X4356844Y-9936170D01*
X4356844Y-9936170D02*
X4356844Y-9983789D01*
X4356844Y-9983789D02*
X4347320Y-10002836D01*
X4347320Y-10002836D02*
X4337796Y-10012360D01*
X4337796Y-10012360D02*
X4318749Y-10021884D01*
X4318749Y-10021884D02*
X4261606Y-10021884D01*
X4261606Y-10021884D02*
X4242558Y-10012360D01*
X4242558Y-10012360D02*
X4233034Y-10002836D01*
X4433034Y-9821884D02*
X4433034Y-9859979D01*
X4509225Y-9821884D02*
X4509225Y-9859979D01*
X4804463Y-10098074D02*
X4794939Y-10088550D01*
X4794939Y-10088550D02*
X4775891Y-10059979D01*
X4775891Y-10059979D02*
X4766368Y-10040931D01*
X4766368Y-10040931D02*
X4756844Y-10012360D01*
X4756844Y-10012360D02*
X4747320Y-9964741D01*
X4747320Y-9964741D02*
X4747320Y-9926646D01*
X4747320Y-9926646D02*
X4756844Y-9879027D01*
X4756844Y-9879027D02*
X4766368Y-9850455D01*
X4766368Y-9850455D02*
X4775891Y-9831408D01*
X4775891Y-9831408D02*
X4794939Y-9802836D01*
X4794939Y-9802836D02*
X4804463Y-9793312D01*
X4985415Y-10021884D02*
X4871130Y-10021884D01*
X4928272Y-10021884D02*
X4928272Y-9821884D01*
X4928272Y-9821884D02*
X4909225Y-9850455D01*
X4909225Y-9850455D02*
X4890177Y-9869503D01*
X4890177Y-9869503D02*
X4871130Y-9879027D01*
X5061606Y-9840931D02*
X5071130Y-9831408D01*
X5071130Y-9831408D02*
X5090177Y-9821884D01*
X5090177Y-9821884D02*
X5137796Y-9821884D01*
X5137796Y-9821884D02*
X5156844Y-9831408D01*
X5156844Y-9831408D02*
X5166368Y-9840931D01*
X5166368Y-9840931D02*
X5175891Y-9859979D01*
X5175891Y-9859979D02*
X5175891Y-9879027D01*
X5175891Y-9879027D02*
X5166368Y-9907598D01*
X5166368Y-9907598D02*
X5052082Y-10021884D01*
X5052082Y-10021884D02*
X5175891Y-10021884D01*
X5413987Y-10021884D02*
X5413987Y-9821884D01*
X5499701Y-10021884D02*
X5499701Y-9917122D01*
X5499701Y-9917122D02*
X5490177Y-9898074D01*
X5490177Y-9898074D02*
X5471130Y-9888550D01*
X5471130Y-9888550D02*
X5442558Y-9888550D01*
X5442558Y-9888550D02*
X5423511Y-9898074D01*
X5423511Y-9898074D02*
X5413987Y-9907598D01*
X5623510Y-10021884D02*
X5604463Y-10012360D01*
X5604463Y-10012360D02*
X5594939Y-10002836D01*
X5594939Y-10002836D02*
X5585415Y-9983789D01*
X5585415Y-9983789D02*
X5585415Y-9926646D01*
X5585415Y-9926646D02*
X5594939Y-9907598D01*
X5594939Y-9907598D02*
X5604463Y-9898074D01*
X5604463Y-9898074D02*
X5623510Y-9888550D01*
X5623510Y-9888550D02*
X5652082Y-9888550D01*
X5652082Y-9888550D02*
X5671130Y-9898074D01*
X5671130Y-9898074D02*
X5680653Y-9907598D01*
X5680653Y-9907598D02*
X5690177Y-9926646D01*
X5690177Y-9926646D02*
X5690177Y-9983789D01*
X5690177Y-9983789D02*
X5680653Y-10002836D01*
X5680653Y-10002836D02*
X5671130Y-10012360D01*
X5671130Y-10012360D02*
X5652082Y-10021884D01*
X5652082Y-10021884D02*
X5623510Y-10021884D01*
X5804463Y-10021884D02*
X5785415Y-10012360D01*
X5785415Y-10012360D02*
X5775891Y-9993312D01*
X5775891Y-9993312D02*
X5775891Y-9821884D01*
X5956844Y-10012360D02*
X5937796Y-10021884D01*
X5937796Y-10021884D02*
X5899701Y-10021884D01*
X5899701Y-10021884D02*
X5880653Y-10012360D01*
X5880653Y-10012360D02*
X5871130Y-9993312D01*
X5871130Y-9993312D02*
X5871130Y-9917122D01*
X5871130Y-9917122D02*
X5880653Y-9898074D01*
X5880653Y-9898074D02*
X5899701Y-9888550D01*
X5899701Y-9888550D02*
X5937796Y-9888550D01*
X5937796Y-9888550D02*
X5956844Y-9898074D01*
X5956844Y-9898074D02*
X5966368Y-9917122D01*
X5966368Y-9917122D02*
X5966368Y-9936170D01*
X5966368Y-9936170D02*
X5871130Y-9955217D01*
X6042558Y-10012360D02*
X6061606Y-10021884D01*
X6061606Y-10021884D02*
X6099701Y-10021884D01*
X6099701Y-10021884D02*
X6118749Y-10012360D01*
X6118749Y-10012360D02*
X6128272Y-9993312D01*
X6128272Y-9993312D02*
X6128272Y-9983789D01*
X6128272Y-9983789D02*
X6118749Y-9964741D01*
X6118749Y-9964741D02*
X6099701Y-9955217D01*
X6099701Y-9955217D02*
X6071130Y-9955217D01*
X6071130Y-9955217D02*
X6052082Y-9945693D01*
X6052082Y-9945693D02*
X6042558Y-9926646D01*
X6042558Y-9926646D02*
X6042558Y-9917122D01*
X6042558Y-9917122D02*
X6052082Y-9898074D01*
X6052082Y-9898074D02*
X6071130Y-9888550D01*
X6071130Y-9888550D02*
X6099701Y-9888550D01*
X6099701Y-9888550D02*
X6118749Y-9898074D01*
X6194939Y-10098074D02*
X6204463Y-10088550D01*
X6204463Y-10088550D02*
X6223511Y-10059979D01*
X6223511Y-10059979D02*
X6233034Y-10040931D01*
X6233034Y-10040931D02*
X6242558Y-10012360D01*
X6242558Y-10012360D02*
X6252082Y-9964741D01*
X6252082Y-9964741D02*
X6252082Y-9926646D01*
X6252082Y-9926646D02*
X6242558Y-9879027D01*
X6242558Y-9879027D02*
X6233034Y-9850455D01*
X6233034Y-9850455D02*
X6223511Y-9831408D01*
X6223511Y-9831408D02*
X6204463Y-9802836D01*
X6204463Y-9802836D02*
X6194939Y-9793312D01*
M02*
