%TF.GenerationSoftware,KiCad,Pcbnew,7.0.6*%
%TF.CreationDate,2023-08-14T15:02:37+02:00*%
%TF.ProjectId,ps2_mouse_to_serial_port_adapter_in_a_box,7073325f-6d6f-4757-9365-5f746f5f7365,rev?*%
%TF.SameCoordinates,Original*%
%TF.FileFunction,Legend,Top*%
%TF.FilePolarity,Positive*%
%FSLAX46Y46*%
G04 Gerber Fmt 4.6, Leading zero omitted, Abs format (unit mm)*
G04 Created by KiCad (PCBNEW 7.0.6) date 2023-08-14 15:02:37*
%MOMM*%
%LPD*%
G01*
G04 APERTURE LIST*
%ADD10C,0.100000*%
%ADD11C,0.150000*%
%ADD12C,0.120000*%
G04 APERTURE END LIST*
D10*
X16443074Y-33446419D02*
X15966884Y-33446419D01*
X15966884Y-33446419D02*
X15919265Y-33922609D01*
X15919265Y-33922609D02*
X15966884Y-33874990D01*
X15966884Y-33874990D02*
X16062122Y-33827371D01*
X16062122Y-33827371D02*
X16300217Y-33827371D01*
X16300217Y-33827371D02*
X16395455Y-33874990D01*
X16395455Y-33874990D02*
X16443074Y-33922609D01*
X16443074Y-33922609D02*
X16490693Y-34017847D01*
X16490693Y-34017847D02*
X16490693Y-34255942D01*
X16490693Y-34255942D02*
X16443074Y-34351180D01*
X16443074Y-34351180D02*
X16395455Y-34398800D01*
X16395455Y-34398800D02*
X16300217Y-34446419D01*
X16300217Y-34446419D02*
X16062122Y-34446419D01*
X16062122Y-34446419D02*
X15966884Y-34398800D01*
X15966884Y-34398800D02*
X15919265Y-34351180D01*
X17681170Y-34065466D02*
X18443075Y-34065466D01*
X20204979Y-33494038D02*
X20109741Y-33446419D01*
X20109741Y-33446419D02*
X19966884Y-33446419D01*
X19966884Y-33446419D02*
X19824027Y-33494038D01*
X19824027Y-33494038D02*
X19728789Y-33589276D01*
X19728789Y-33589276D02*
X19681170Y-33684514D01*
X19681170Y-33684514D02*
X19633551Y-33874990D01*
X19633551Y-33874990D02*
X19633551Y-34017847D01*
X19633551Y-34017847D02*
X19681170Y-34208323D01*
X19681170Y-34208323D02*
X19728789Y-34303561D01*
X19728789Y-34303561D02*
X19824027Y-34398800D01*
X19824027Y-34398800D02*
X19966884Y-34446419D01*
X19966884Y-34446419D02*
X20062122Y-34446419D01*
X20062122Y-34446419D02*
X20204979Y-34398800D01*
X20204979Y-34398800D02*
X20252598Y-34351180D01*
X20252598Y-34351180D02*
X20252598Y-34017847D01*
X20252598Y-34017847D02*
X20062122Y-34017847D01*
X20681170Y-34446419D02*
X20681170Y-33446419D01*
X20681170Y-33446419D02*
X21252598Y-34446419D01*
X21252598Y-34446419D02*
X21252598Y-33446419D01*
X21728789Y-34446419D02*
X21728789Y-33446419D01*
X21728789Y-33446419D02*
X21966884Y-33446419D01*
X21966884Y-33446419D02*
X22109741Y-33494038D01*
X22109741Y-33494038D02*
X22204979Y-33589276D01*
X22204979Y-33589276D02*
X22252598Y-33684514D01*
X22252598Y-33684514D02*
X22300217Y-33874990D01*
X22300217Y-33874990D02*
X22300217Y-34017847D01*
X22300217Y-34017847D02*
X22252598Y-34208323D01*
X22252598Y-34208323D02*
X22204979Y-34303561D01*
X22204979Y-34303561D02*
X22109741Y-34398800D01*
X22109741Y-34398800D02*
X21966884Y-34446419D01*
X21966884Y-34446419D02*
X21728789Y-34446419D01*
X15871646Y-35056419D02*
X16538312Y-35056419D01*
X16538312Y-35056419D02*
X16109741Y-36056419D01*
X17681170Y-35675466D02*
X18443075Y-35675466D01*
X20252598Y-36056419D02*
X19919265Y-35580228D01*
X19681170Y-36056419D02*
X19681170Y-35056419D01*
X19681170Y-35056419D02*
X20062122Y-35056419D01*
X20062122Y-35056419D02*
X20157360Y-35104038D01*
X20157360Y-35104038D02*
X20204979Y-35151657D01*
X20204979Y-35151657D02*
X20252598Y-35246895D01*
X20252598Y-35246895D02*
X20252598Y-35389752D01*
X20252598Y-35389752D02*
X20204979Y-35484990D01*
X20204979Y-35484990D02*
X20157360Y-35532609D01*
X20157360Y-35532609D02*
X20062122Y-35580228D01*
X20062122Y-35580228D02*
X19681170Y-35580228D01*
X20538313Y-35056419D02*
X21109741Y-35056419D01*
X20824027Y-36056419D02*
X20824027Y-35056419D01*
X21395456Y-36008800D02*
X21538313Y-36056419D01*
X21538313Y-36056419D02*
X21776408Y-36056419D01*
X21776408Y-36056419D02*
X21871646Y-36008800D01*
X21871646Y-36008800D02*
X21919265Y-35961180D01*
X21919265Y-35961180D02*
X21966884Y-35865942D01*
X21966884Y-35865942D02*
X21966884Y-35770704D01*
X21966884Y-35770704D02*
X21919265Y-35675466D01*
X21919265Y-35675466D02*
X21871646Y-35627847D01*
X21871646Y-35627847D02*
X21776408Y-35580228D01*
X21776408Y-35580228D02*
X21585932Y-35532609D01*
X21585932Y-35532609D02*
X21490694Y-35484990D01*
X21490694Y-35484990D02*
X21443075Y-35437371D01*
X21443075Y-35437371D02*
X21395456Y-35342133D01*
X21395456Y-35342133D02*
X21395456Y-35246895D01*
X21395456Y-35246895D02*
X21443075Y-35151657D01*
X21443075Y-35151657D02*
X21490694Y-35104038D01*
X21490694Y-35104038D02*
X21585932Y-35056419D01*
X21585932Y-35056419D02*
X21824027Y-35056419D01*
X21824027Y-35056419D02*
X21966884Y-35104038D01*
X15919265Y-36761657D02*
X15966884Y-36714038D01*
X15966884Y-36714038D02*
X16062122Y-36666419D01*
X16062122Y-36666419D02*
X16300217Y-36666419D01*
X16300217Y-36666419D02*
X16395455Y-36714038D01*
X16395455Y-36714038D02*
X16443074Y-36761657D01*
X16443074Y-36761657D02*
X16490693Y-36856895D01*
X16490693Y-36856895D02*
X16490693Y-36952133D01*
X16490693Y-36952133D02*
X16443074Y-37094990D01*
X16443074Y-37094990D02*
X15871646Y-37666419D01*
X15871646Y-37666419D02*
X16490693Y-37666419D01*
X17681170Y-37285466D02*
X18443075Y-37285466D01*
X20252598Y-37666419D02*
X19919265Y-37190228D01*
X19681170Y-37666419D02*
X19681170Y-36666419D01*
X19681170Y-36666419D02*
X20062122Y-36666419D01*
X20062122Y-36666419D02*
X20157360Y-36714038D01*
X20157360Y-36714038D02*
X20204979Y-36761657D01*
X20204979Y-36761657D02*
X20252598Y-36856895D01*
X20252598Y-36856895D02*
X20252598Y-36999752D01*
X20252598Y-36999752D02*
X20204979Y-37094990D01*
X20204979Y-37094990D02*
X20157360Y-37142609D01*
X20157360Y-37142609D02*
X20062122Y-37190228D01*
X20062122Y-37190228D02*
X19681170Y-37190228D01*
X20585932Y-36666419D02*
X21252598Y-37666419D01*
X21252598Y-36666419D02*
X20585932Y-37666419D01*
X21633551Y-37666419D02*
X21633551Y-36666419D01*
X21633551Y-36666419D02*
X21871646Y-36666419D01*
X21871646Y-36666419D02*
X22014503Y-36714038D01*
X22014503Y-36714038D02*
X22109741Y-36809276D01*
X22109741Y-36809276D02*
X22157360Y-36904514D01*
X22157360Y-36904514D02*
X22204979Y-37094990D01*
X22204979Y-37094990D02*
X22204979Y-37237847D01*
X22204979Y-37237847D02*
X22157360Y-37428323D01*
X22157360Y-37428323D02*
X22109741Y-37523561D01*
X22109741Y-37523561D02*
X22014503Y-37618800D01*
X22014503Y-37618800D02*
X21871646Y-37666419D01*
X21871646Y-37666419D02*
X21633551Y-37666419D01*
X87594884Y-27125466D02*
X88356789Y-27125466D01*
X87975836Y-27506419D02*
X87975836Y-26744514D01*
X88832979Y-27506419D02*
X88832979Y-26506419D01*
X88832979Y-26506419D02*
X89071074Y-26506419D01*
X89071074Y-26506419D02*
X89213931Y-26554038D01*
X89213931Y-26554038D02*
X89309169Y-26649276D01*
X89309169Y-26649276D02*
X89356788Y-26744514D01*
X89356788Y-26744514D02*
X89404407Y-26934990D01*
X89404407Y-26934990D02*
X89404407Y-27077847D01*
X89404407Y-27077847D02*
X89356788Y-27268323D01*
X89356788Y-27268323D02*
X89309169Y-27363561D01*
X89309169Y-27363561D02*
X89213931Y-27458800D01*
X89213931Y-27458800D02*
X89071074Y-27506419D01*
X89071074Y-27506419D02*
X88832979Y-27506419D01*
X89785360Y-27220704D02*
X90261550Y-27220704D01*
X89690122Y-27506419D02*
X90023455Y-26506419D01*
X90023455Y-26506419D02*
X90356788Y-27506419D01*
X90547265Y-26506419D02*
X91118693Y-26506419D01*
X90832979Y-27506419D02*
X90832979Y-26506419D01*
X91404408Y-27220704D02*
X91880598Y-27220704D01*
X91309170Y-27506419D02*
X91642503Y-26506419D01*
X91642503Y-26506419D02*
X91975836Y-27506419D01*
X37633419Y-22662925D02*
X37633419Y-23139115D01*
X37633419Y-23139115D02*
X36633419Y-23139115D01*
X36633419Y-22424829D02*
X36633419Y-21758163D01*
X36633419Y-21758163D02*
X37633419Y-22186734D01*
X37061990Y-21234353D02*
X37014371Y-21329591D01*
X37014371Y-21329591D02*
X36966752Y-21377210D01*
X36966752Y-21377210D02*
X36871514Y-21424829D01*
X36871514Y-21424829D02*
X36823895Y-21424829D01*
X36823895Y-21424829D02*
X36728657Y-21377210D01*
X36728657Y-21377210D02*
X36681038Y-21329591D01*
X36681038Y-21329591D02*
X36633419Y-21234353D01*
X36633419Y-21234353D02*
X36633419Y-21043877D01*
X36633419Y-21043877D02*
X36681038Y-20948639D01*
X36681038Y-20948639D02*
X36728657Y-20901020D01*
X36728657Y-20901020D02*
X36823895Y-20853401D01*
X36823895Y-20853401D02*
X36871514Y-20853401D01*
X36871514Y-20853401D02*
X36966752Y-20901020D01*
X36966752Y-20901020D02*
X37014371Y-20948639D01*
X37014371Y-20948639D02*
X37061990Y-21043877D01*
X37061990Y-21043877D02*
X37061990Y-21234353D01*
X37061990Y-21234353D02*
X37109609Y-21329591D01*
X37109609Y-21329591D02*
X37157228Y-21377210D01*
X37157228Y-21377210D02*
X37252466Y-21424829D01*
X37252466Y-21424829D02*
X37442942Y-21424829D01*
X37442942Y-21424829D02*
X37538180Y-21377210D01*
X37538180Y-21377210D02*
X37585800Y-21329591D01*
X37585800Y-21329591D02*
X37633419Y-21234353D01*
X37633419Y-21234353D02*
X37633419Y-21043877D01*
X37633419Y-21043877D02*
X37585800Y-20948639D01*
X37585800Y-20948639D02*
X37538180Y-20901020D01*
X37538180Y-20901020D02*
X37442942Y-20853401D01*
X37442942Y-20853401D02*
X37252466Y-20853401D01*
X37252466Y-20853401D02*
X37157228Y-20901020D01*
X37157228Y-20901020D02*
X37109609Y-20948639D01*
X37109609Y-20948639D02*
X37061990Y-21043877D01*
X37633419Y-19948639D02*
X37633419Y-20424829D01*
X37633419Y-20424829D02*
X36633419Y-20424829D01*
X36633419Y-19424829D02*
X36633419Y-19329591D01*
X36633419Y-19329591D02*
X36681038Y-19234353D01*
X36681038Y-19234353D02*
X36728657Y-19186734D01*
X36728657Y-19186734D02*
X36823895Y-19139115D01*
X36823895Y-19139115D02*
X37014371Y-19091496D01*
X37014371Y-19091496D02*
X37252466Y-19091496D01*
X37252466Y-19091496D02*
X37442942Y-19139115D01*
X37442942Y-19139115D02*
X37538180Y-19186734D01*
X37538180Y-19186734D02*
X37585800Y-19234353D01*
X37585800Y-19234353D02*
X37633419Y-19329591D01*
X37633419Y-19329591D02*
X37633419Y-19424829D01*
X37633419Y-19424829D02*
X37585800Y-19520067D01*
X37585800Y-19520067D02*
X37538180Y-19567686D01*
X37538180Y-19567686D02*
X37442942Y-19615305D01*
X37442942Y-19615305D02*
X37252466Y-19662924D01*
X37252466Y-19662924D02*
X37014371Y-19662924D01*
X37014371Y-19662924D02*
X36823895Y-19615305D01*
X36823895Y-19615305D02*
X36728657Y-19567686D01*
X36728657Y-19567686D02*
X36681038Y-19520067D01*
X36681038Y-19520067D02*
X36633419Y-19424829D01*
X36633419Y-18186734D02*
X36633419Y-18662924D01*
X36633419Y-18662924D02*
X37109609Y-18710543D01*
X37109609Y-18710543D02*
X37061990Y-18662924D01*
X37061990Y-18662924D02*
X37014371Y-18567686D01*
X37014371Y-18567686D02*
X37014371Y-18329591D01*
X37014371Y-18329591D02*
X37061990Y-18234353D01*
X37061990Y-18234353D02*
X37109609Y-18186734D01*
X37109609Y-18186734D02*
X37204847Y-18139115D01*
X37204847Y-18139115D02*
X37442942Y-18139115D01*
X37442942Y-18139115D02*
X37538180Y-18186734D01*
X37538180Y-18186734D02*
X37585800Y-18234353D01*
X37585800Y-18234353D02*
X37633419Y-18329591D01*
X37633419Y-18329591D02*
X37633419Y-18567686D01*
X37633419Y-18567686D02*
X37585800Y-18662924D01*
X37585800Y-18662924D02*
X37538180Y-18710543D01*
X49460419Y-59556353D02*
X49460419Y-58889687D01*
X49460419Y-58889687D02*
X50460419Y-59318258D01*
X49793752Y-58080163D02*
X50460419Y-58080163D01*
X49412800Y-58318258D02*
X50127085Y-58556353D01*
X50127085Y-58556353D02*
X50127085Y-57937306D01*
X50460419Y-57080163D02*
X50460419Y-57556353D01*
X50460419Y-57556353D02*
X49460419Y-57556353D01*
X50412800Y-56794448D02*
X50460419Y-56651591D01*
X50460419Y-56651591D02*
X50460419Y-56413496D01*
X50460419Y-56413496D02*
X50412800Y-56318258D01*
X50412800Y-56318258D02*
X50365180Y-56270639D01*
X50365180Y-56270639D02*
X50269942Y-56223020D01*
X50269942Y-56223020D02*
X50174704Y-56223020D01*
X50174704Y-56223020D02*
X50079466Y-56270639D01*
X50079466Y-56270639D02*
X50031847Y-56318258D01*
X50031847Y-56318258D02*
X49984228Y-56413496D01*
X49984228Y-56413496D02*
X49936609Y-56603972D01*
X49936609Y-56603972D02*
X49888990Y-56699210D01*
X49888990Y-56699210D02*
X49841371Y-56746829D01*
X49841371Y-56746829D02*
X49746133Y-56794448D01*
X49746133Y-56794448D02*
X49650895Y-56794448D01*
X49650895Y-56794448D02*
X49555657Y-56746829D01*
X49555657Y-56746829D02*
X49508038Y-56699210D01*
X49508038Y-56699210D02*
X49460419Y-56603972D01*
X49460419Y-56603972D02*
X49460419Y-56365877D01*
X49460419Y-56365877D02*
X49508038Y-56223020D01*
X49460419Y-55603972D02*
X49460419Y-55508734D01*
X49460419Y-55508734D02*
X49508038Y-55413496D01*
X49508038Y-55413496D02*
X49555657Y-55365877D01*
X49555657Y-55365877D02*
X49650895Y-55318258D01*
X49650895Y-55318258D02*
X49841371Y-55270639D01*
X49841371Y-55270639D02*
X50079466Y-55270639D01*
X50079466Y-55270639D02*
X50269942Y-55318258D01*
X50269942Y-55318258D02*
X50365180Y-55365877D01*
X50365180Y-55365877D02*
X50412800Y-55413496D01*
X50412800Y-55413496D02*
X50460419Y-55508734D01*
X50460419Y-55508734D02*
X50460419Y-55603972D01*
X50460419Y-55603972D02*
X50412800Y-55699210D01*
X50412800Y-55699210D02*
X50365180Y-55746829D01*
X50365180Y-55746829D02*
X50269942Y-55794448D01*
X50269942Y-55794448D02*
X50079466Y-55842067D01*
X50079466Y-55842067D02*
X49841371Y-55842067D01*
X49841371Y-55842067D02*
X49650895Y-55794448D01*
X49650895Y-55794448D02*
X49555657Y-55746829D01*
X49555657Y-55746829D02*
X49508038Y-55699210D01*
X49508038Y-55699210D02*
X49460419Y-55603972D01*
X49460419Y-54651591D02*
X49460419Y-54556353D01*
X49460419Y-54556353D02*
X49508038Y-54461115D01*
X49508038Y-54461115D02*
X49555657Y-54413496D01*
X49555657Y-54413496D02*
X49650895Y-54365877D01*
X49650895Y-54365877D02*
X49841371Y-54318258D01*
X49841371Y-54318258D02*
X50079466Y-54318258D01*
X50079466Y-54318258D02*
X50269942Y-54365877D01*
X50269942Y-54365877D02*
X50365180Y-54413496D01*
X50365180Y-54413496D02*
X50412800Y-54461115D01*
X50412800Y-54461115D02*
X50460419Y-54556353D01*
X50460419Y-54556353D02*
X50460419Y-54651591D01*
X50460419Y-54651591D02*
X50412800Y-54746829D01*
X50412800Y-54746829D02*
X50365180Y-54794448D01*
X50365180Y-54794448D02*
X50269942Y-54842067D01*
X50269942Y-54842067D02*
X50079466Y-54889686D01*
X50079466Y-54889686D02*
X49841371Y-54889686D01*
X49841371Y-54889686D02*
X49650895Y-54842067D01*
X49650895Y-54842067D02*
X49555657Y-54794448D01*
X49555657Y-54794448D02*
X49508038Y-54746829D01*
X49508038Y-54746829D02*
X49460419Y-54651591D01*
X24063074Y-23966419D02*
X23586884Y-23966419D01*
X23586884Y-23966419D02*
X23539265Y-24442609D01*
X23539265Y-24442609D02*
X23586884Y-24394990D01*
X23586884Y-24394990D02*
X23682122Y-24347371D01*
X23682122Y-24347371D02*
X23920217Y-24347371D01*
X23920217Y-24347371D02*
X24015455Y-24394990D01*
X24015455Y-24394990D02*
X24063074Y-24442609D01*
X24063074Y-24442609D02*
X24110693Y-24537847D01*
X24110693Y-24537847D02*
X24110693Y-24775942D01*
X24110693Y-24775942D02*
X24063074Y-24871180D01*
X24063074Y-24871180D02*
X24015455Y-24918800D01*
X24015455Y-24918800D02*
X23920217Y-24966419D01*
X23920217Y-24966419D02*
X23682122Y-24966419D01*
X23682122Y-24966419D02*
X23586884Y-24918800D01*
X23586884Y-24918800D02*
X23539265Y-24871180D01*
X93436884Y-60018419D02*
X93436884Y-59018419D01*
X93436884Y-59018419D02*
X93770217Y-59732704D01*
X93770217Y-59732704D02*
X94103550Y-59018419D01*
X94103550Y-59018419D02*
X94103550Y-60018419D01*
X94532122Y-59970800D02*
X94674979Y-60018419D01*
X94674979Y-60018419D02*
X94913074Y-60018419D01*
X94913074Y-60018419D02*
X95008312Y-59970800D01*
X95008312Y-59970800D02*
X95055931Y-59923180D01*
X95055931Y-59923180D02*
X95103550Y-59827942D01*
X95103550Y-59827942D02*
X95103550Y-59732704D01*
X95103550Y-59732704D02*
X95055931Y-59637466D01*
X95055931Y-59637466D02*
X95008312Y-59589847D01*
X95008312Y-59589847D02*
X94913074Y-59542228D01*
X94913074Y-59542228D02*
X94722598Y-59494609D01*
X94722598Y-59494609D02*
X94627360Y-59446990D01*
X94627360Y-59446990D02*
X94579741Y-59399371D01*
X94579741Y-59399371D02*
X94532122Y-59304133D01*
X94532122Y-59304133D02*
X94532122Y-59208895D01*
X94532122Y-59208895D02*
X94579741Y-59113657D01*
X94579741Y-59113657D02*
X94627360Y-59066038D01*
X94627360Y-59066038D02*
X94722598Y-59018419D01*
X94722598Y-59018419D02*
X94960693Y-59018419D01*
X94960693Y-59018419D02*
X95103550Y-59066038D01*
X96055931Y-59066038D02*
X95960693Y-59018419D01*
X95960693Y-59018419D02*
X95817836Y-59018419D01*
X95817836Y-59018419D02*
X95674979Y-59066038D01*
X95674979Y-59066038D02*
X95579741Y-59161276D01*
X95579741Y-59161276D02*
X95532122Y-59256514D01*
X95532122Y-59256514D02*
X95484503Y-59446990D01*
X95484503Y-59446990D02*
X95484503Y-59589847D01*
X95484503Y-59589847D02*
X95532122Y-59780323D01*
X95532122Y-59780323D02*
X95579741Y-59875561D01*
X95579741Y-59875561D02*
X95674979Y-59970800D01*
X95674979Y-59970800D02*
X95817836Y-60018419D01*
X95817836Y-60018419D02*
X95913074Y-60018419D01*
X95913074Y-60018419D02*
X96055931Y-59970800D01*
X96055931Y-59970800D02*
X96103550Y-59923180D01*
X96103550Y-59923180D02*
X96103550Y-59589847D01*
X96103550Y-59589847D02*
X95913074Y-59589847D01*
X97770217Y-60018419D02*
X97294027Y-60018419D01*
X97294027Y-60018419D02*
X97294027Y-59018419D01*
X98103551Y-59494609D02*
X98436884Y-59494609D01*
X98579741Y-60018419D02*
X98103551Y-60018419D01*
X98103551Y-60018419D02*
X98103551Y-59018419D01*
X98103551Y-59018419D02*
X98579741Y-59018419D01*
X99008313Y-60018419D02*
X99008313Y-59018419D01*
X99008313Y-59018419D02*
X99246408Y-59018419D01*
X99246408Y-59018419D02*
X99389265Y-59066038D01*
X99389265Y-59066038D02*
X99484503Y-59161276D01*
X99484503Y-59161276D02*
X99532122Y-59256514D01*
X99532122Y-59256514D02*
X99579741Y-59446990D01*
X99579741Y-59446990D02*
X99579741Y-59589847D01*
X99579741Y-59589847D02*
X99532122Y-59780323D01*
X99532122Y-59780323D02*
X99484503Y-59875561D01*
X99484503Y-59875561D02*
X99389265Y-59970800D01*
X99389265Y-59970800D02*
X99246408Y-60018419D01*
X99246408Y-60018419D02*
X99008313Y-60018419D01*
X27346419Y-26552306D02*
X27346419Y-27123734D01*
X27346419Y-26838020D02*
X26346419Y-26838020D01*
X26346419Y-26838020D02*
X26489276Y-26933258D01*
X26489276Y-26933258D02*
X26584514Y-27028496D01*
X26584514Y-27028496D02*
X26632133Y-27123734D01*
X27346419Y-26123734D02*
X26346419Y-26123734D01*
X26346419Y-26123734D02*
X27346419Y-25552306D01*
X27346419Y-25552306D02*
X26346419Y-25552306D01*
X26679752Y-24647544D02*
X27346419Y-24647544D01*
X26298800Y-24885639D02*
X27013085Y-25123734D01*
X27013085Y-25123734D02*
X27013085Y-24504687D01*
X27346419Y-23599925D02*
X27346419Y-24171353D01*
X27346419Y-23885639D02*
X26346419Y-23885639D01*
X26346419Y-23885639D02*
X26489276Y-23980877D01*
X26489276Y-23980877D02*
X26584514Y-24076115D01*
X26584514Y-24076115D02*
X26632133Y-24171353D01*
X26679752Y-22742782D02*
X27346419Y-22742782D01*
X26298800Y-22980877D02*
X27013085Y-23218972D01*
X27013085Y-23218972D02*
X27013085Y-22599925D01*
X26774990Y-22076115D02*
X26727371Y-22171353D01*
X26727371Y-22171353D02*
X26679752Y-22218972D01*
X26679752Y-22218972D02*
X26584514Y-22266591D01*
X26584514Y-22266591D02*
X26536895Y-22266591D01*
X26536895Y-22266591D02*
X26441657Y-22218972D01*
X26441657Y-22218972D02*
X26394038Y-22171353D01*
X26394038Y-22171353D02*
X26346419Y-22076115D01*
X26346419Y-22076115D02*
X26346419Y-21885639D01*
X26346419Y-21885639D02*
X26394038Y-21790401D01*
X26394038Y-21790401D02*
X26441657Y-21742782D01*
X26441657Y-21742782D02*
X26536895Y-21695163D01*
X26536895Y-21695163D02*
X26584514Y-21695163D01*
X26584514Y-21695163D02*
X26679752Y-21742782D01*
X26679752Y-21742782D02*
X26727371Y-21790401D01*
X26727371Y-21790401D02*
X26774990Y-21885639D01*
X26774990Y-21885639D02*
X26774990Y-22076115D01*
X26774990Y-22076115D02*
X26822609Y-22171353D01*
X26822609Y-22171353D02*
X26870228Y-22218972D01*
X26870228Y-22218972D02*
X26965466Y-22266591D01*
X26965466Y-22266591D02*
X27155942Y-22266591D01*
X27155942Y-22266591D02*
X27251180Y-22218972D01*
X27251180Y-22218972D02*
X27298800Y-22171353D01*
X27298800Y-22171353D02*
X27346419Y-22076115D01*
X27346419Y-22076115D02*
X27346419Y-21885639D01*
X27346419Y-21885639D02*
X27298800Y-21790401D01*
X27298800Y-21790401D02*
X27251180Y-21742782D01*
X27251180Y-21742782D02*
X27155942Y-21695163D01*
X27155942Y-21695163D02*
X26965466Y-21695163D01*
X26965466Y-21695163D02*
X26870228Y-21742782D01*
X26870228Y-21742782D02*
X26822609Y-21790401D01*
X26822609Y-21790401D02*
X26774990Y-21885639D01*
X32556217Y-31681609D02*
X32699074Y-31729228D01*
X32699074Y-31729228D02*
X32746693Y-31776847D01*
X32746693Y-31776847D02*
X32794312Y-31872085D01*
X32794312Y-31872085D02*
X32794312Y-32014942D01*
X32794312Y-32014942D02*
X32746693Y-32110180D01*
X32746693Y-32110180D02*
X32699074Y-32157800D01*
X32699074Y-32157800D02*
X32603836Y-32205419D01*
X32603836Y-32205419D02*
X32222884Y-32205419D01*
X32222884Y-32205419D02*
X32222884Y-31205419D01*
X32222884Y-31205419D02*
X32556217Y-31205419D01*
X32556217Y-31205419D02*
X32651455Y-31253038D01*
X32651455Y-31253038D02*
X32699074Y-31300657D01*
X32699074Y-31300657D02*
X32746693Y-31395895D01*
X32746693Y-31395895D02*
X32746693Y-31491133D01*
X32746693Y-31491133D02*
X32699074Y-31586371D01*
X32699074Y-31586371D02*
X32651455Y-31633990D01*
X32651455Y-31633990D02*
X32556217Y-31681609D01*
X32556217Y-31681609D02*
X32222884Y-31681609D01*
X33794312Y-32110180D02*
X33746693Y-32157800D01*
X33746693Y-32157800D02*
X33603836Y-32205419D01*
X33603836Y-32205419D02*
X33508598Y-32205419D01*
X33508598Y-32205419D02*
X33365741Y-32157800D01*
X33365741Y-32157800D02*
X33270503Y-32062561D01*
X33270503Y-32062561D02*
X33222884Y-31967323D01*
X33222884Y-31967323D02*
X33175265Y-31776847D01*
X33175265Y-31776847D02*
X33175265Y-31633990D01*
X33175265Y-31633990D02*
X33222884Y-31443514D01*
X33222884Y-31443514D02*
X33270503Y-31348276D01*
X33270503Y-31348276D02*
X33365741Y-31253038D01*
X33365741Y-31253038D02*
X33508598Y-31205419D01*
X33508598Y-31205419D02*
X33603836Y-31205419D01*
X33603836Y-31205419D02*
X33746693Y-31253038D01*
X33746693Y-31253038D02*
X33794312Y-31300657D01*
X34699074Y-31205419D02*
X34222884Y-31205419D01*
X34222884Y-31205419D02*
X34175265Y-31681609D01*
X34175265Y-31681609D02*
X34222884Y-31633990D01*
X34222884Y-31633990D02*
X34318122Y-31586371D01*
X34318122Y-31586371D02*
X34556217Y-31586371D01*
X34556217Y-31586371D02*
X34651455Y-31633990D01*
X34651455Y-31633990D02*
X34699074Y-31681609D01*
X34699074Y-31681609D02*
X34746693Y-31776847D01*
X34746693Y-31776847D02*
X34746693Y-32014942D01*
X34746693Y-32014942D02*
X34699074Y-32110180D01*
X34699074Y-32110180D02*
X34651455Y-32157800D01*
X34651455Y-32157800D02*
X34556217Y-32205419D01*
X34556217Y-32205419D02*
X34318122Y-32205419D01*
X34318122Y-32205419D02*
X34222884Y-32157800D01*
X34222884Y-32157800D02*
X34175265Y-32110180D01*
X35603836Y-31538752D02*
X35603836Y-32205419D01*
X35365741Y-31157800D02*
X35127646Y-31872085D01*
X35127646Y-31872085D02*
X35746693Y-31872085D01*
X36032408Y-31205419D02*
X36699074Y-31205419D01*
X36699074Y-31205419D02*
X36270503Y-32205419D01*
X89896693Y-24014038D02*
X89801455Y-23966419D01*
X89801455Y-23966419D02*
X89658598Y-23966419D01*
X89658598Y-23966419D02*
X89515741Y-24014038D01*
X89515741Y-24014038D02*
X89420503Y-24109276D01*
X89420503Y-24109276D02*
X89372884Y-24204514D01*
X89372884Y-24204514D02*
X89325265Y-24394990D01*
X89325265Y-24394990D02*
X89325265Y-24537847D01*
X89325265Y-24537847D02*
X89372884Y-24728323D01*
X89372884Y-24728323D02*
X89420503Y-24823561D01*
X89420503Y-24823561D02*
X89515741Y-24918800D01*
X89515741Y-24918800D02*
X89658598Y-24966419D01*
X89658598Y-24966419D02*
X89753836Y-24966419D01*
X89753836Y-24966419D02*
X89896693Y-24918800D01*
X89896693Y-24918800D02*
X89944312Y-24871180D01*
X89944312Y-24871180D02*
X89944312Y-24537847D01*
X89944312Y-24537847D02*
X89753836Y-24537847D01*
X90372884Y-24966419D02*
X90372884Y-23966419D01*
X90372884Y-23966419D02*
X90944312Y-24966419D01*
X90944312Y-24966419D02*
X90944312Y-23966419D01*
X91420503Y-24966419D02*
X91420503Y-23966419D01*
X91420503Y-23966419D02*
X91658598Y-23966419D01*
X91658598Y-23966419D02*
X91801455Y-24014038D01*
X91801455Y-24014038D02*
X91896693Y-24109276D01*
X91896693Y-24109276D02*
X91944312Y-24204514D01*
X91944312Y-24204514D02*
X91991931Y-24394990D01*
X91991931Y-24394990D02*
X91991931Y-24537847D01*
X91991931Y-24537847D02*
X91944312Y-24728323D01*
X91944312Y-24728323D02*
X91896693Y-24823561D01*
X91896693Y-24823561D02*
X91801455Y-24918800D01*
X91801455Y-24918800D02*
X91658598Y-24966419D01*
X91658598Y-24966419D02*
X91420503Y-24966419D01*
X14598800Y-58619734D02*
X14646419Y-58476877D01*
X14646419Y-58476877D02*
X14646419Y-58238782D01*
X14646419Y-58238782D02*
X14598800Y-58143544D01*
X14598800Y-58143544D02*
X14551180Y-58095925D01*
X14551180Y-58095925D02*
X14455942Y-58048306D01*
X14455942Y-58048306D02*
X14360704Y-58048306D01*
X14360704Y-58048306D02*
X14265466Y-58095925D01*
X14265466Y-58095925D02*
X14217847Y-58143544D01*
X14217847Y-58143544D02*
X14170228Y-58238782D01*
X14170228Y-58238782D02*
X14122609Y-58429258D01*
X14122609Y-58429258D02*
X14074990Y-58524496D01*
X14074990Y-58524496D02*
X14027371Y-58572115D01*
X14027371Y-58572115D02*
X13932133Y-58619734D01*
X13932133Y-58619734D02*
X13836895Y-58619734D01*
X13836895Y-58619734D02*
X13741657Y-58572115D01*
X13741657Y-58572115D02*
X13694038Y-58524496D01*
X13694038Y-58524496D02*
X13646419Y-58429258D01*
X13646419Y-58429258D02*
X13646419Y-58191163D01*
X13646419Y-58191163D02*
X13694038Y-58048306D01*
X13646419Y-57714972D02*
X14646419Y-57476877D01*
X14646419Y-57476877D02*
X13932133Y-57286401D01*
X13932133Y-57286401D02*
X14646419Y-57095925D01*
X14646419Y-57095925D02*
X13646419Y-56857830D01*
X14646419Y-56476877D02*
X13646419Y-56476877D01*
X13646419Y-56143544D02*
X13646419Y-55572116D01*
X14646419Y-55857830D02*
X13646419Y-55857830D01*
X14551180Y-54667354D02*
X14598800Y-54714973D01*
X14598800Y-54714973D02*
X14646419Y-54857830D01*
X14646419Y-54857830D02*
X14646419Y-54953068D01*
X14646419Y-54953068D02*
X14598800Y-55095925D01*
X14598800Y-55095925D02*
X14503561Y-55191163D01*
X14503561Y-55191163D02*
X14408323Y-55238782D01*
X14408323Y-55238782D02*
X14217847Y-55286401D01*
X14217847Y-55286401D02*
X14074990Y-55286401D01*
X14074990Y-55286401D02*
X13884514Y-55238782D01*
X13884514Y-55238782D02*
X13789276Y-55191163D01*
X13789276Y-55191163D02*
X13694038Y-55095925D01*
X13694038Y-55095925D02*
X13646419Y-54953068D01*
X13646419Y-54953068D02*
X13646419Y-54857830D01*
X13646419Y-54857830D02*
X13694038Y-54714973D01*
X13694038Y-54714973D02*
X13741657Y-54667354D01*
X14646419Y-54238782D02*
X13646419Y-54238782D01*
X14122609Y-54238782D02*
X14122609Y-53667354D01*
X14646419Y-53667354D02*
X13646419Y-53667354D01*
X19091466Y-73685115D02*
X19091466Y-72923211D01*
X18887884Y-64463466D02*
X19649789Y-64463466D01*
X19268836Y-64844419D02*
X19268836Y-64082514D01*
X62906419Y-76717306D02*
X62906419Y-77288734D01*
X62906419Y-77003020D02*
X61906419Y-77003020D01*
X61906419Y-77003020D02*
X62049276Y-77098258D01*
X62049276Y-77098258D02*
X62144514Y-77193496D01*
X62144514Y-77193496D02*
X62192133Y-77288734D01*
X61906419Y-76098258D02*
X61906419Y-76003020D01*
X61906419Y-76003020D02*
X61954038Y-75907782D01*
X61954038Y-75907782D02*
X62001657Y-75860163D01*
X62001657Y-75860163D02*
X62096895Y-75812544D01*
X62096895Y-75812544D02*
X62287371Y-75764925D01*
X62287371Y-75764925D02*
X62525466Y-75764925D01*
X62525466Y-75764925D02*
X62715942Y-75812544D01*
X62715942Y-75812544D02*
X62811180Y-75860163D01*
X62811180Y-75860163D02*
X62858800Y-75907782D01*
X62858800Y-75907782D02*
X62906419Y-76003020D01*
X62906419Y-76003020D02*
X62906419Y-76098258D01*
X62906419Y-76098258D02*
X62858800Y-76193496D01*
X62858800Y-76193496D02*
X62811180Y-76241115D01*
X62811180Y-76241115D02*
X62715942Y-76288734D01*
X62715942Y-76288734D02*
X62525466Y-76336353D01*
X62525466Y-76336353D02*
X62287371Y-76336353D01*
X62287371Y-76336353D02*
X62096895Y-76288734D01*
X62096895Y-76288734D02*
X62001657Y-76241115D01*
X62001657Y-76241115D02*
X61954038Y-76193496D01*
X61954038Y-76193496D02*
X61906419Y-76098258D01*
X61906419Y-75145877D02*
X61906419Y-75050639D01*
X61906419Y-75050639D02*
X61954038Y-74955401D01*
X61954038Y-74955401D02*
X62001657Y-74907782D01*
X62001657Y-74907782D02*
X62096895Y-74860163D01*
X62096895Y-74860163D02*
X62287371Y-74812544D01*
X62287371Y-74812544D02*
X62525466Y-74812544D01*
X62525466Y-74812544D02*
X62715942Y-74860163D01*
X62715942Y-74860163D02*
X62811180Y-74907782D01*
X62811180Y-74907782D02*
X62858800Y-74955401D01*
X62858800Y-74955401D02*
X62906419Y-75050639D01*
X62906419Y-75050639D02*
X62906419Y-75145877D01*
X62906419Y-75145877D02*
X62858800Y-75241115D01*
X62858800Y-75241115D02*
X62811180Y-75288734D01*
X62811180Y-75288734D02*
X62715942Y-75336353D01*
X62715942Y-75336353D02*
X62525466Y-75383972D01*
X62525466Y-75383972D02*
X62287371Y-75383972D01*
X62287371Y-75383972D02*
X62096895Y-75336353D01*
X62096895Y-75336353D02*
X62001657Y-75288734D01*
X62001657Y-75288734D02*
X61954038Y-75241115D01*
X61954038Y-75241115D02*
X61906419Y-75145877D01*
X62239752Y-74383972D02*
X62906419Y-74383972D01*
X62334990Y-74383972D02*
X62287371Y-74336353D01*
X62287371Y-74336353D02*
X62239752Y-74241115D01*
X62239752Y-74241115D02*
X62239752Y-74098258D01*
X62239752Y-74098258D02*
X62287371Y-74003020D01*
X62287371Y-74003020D02*
X62382609Y-73955401D01*
X62382609Y-73955401D02*
X62906419Y-73955401D01*
X62382609Y-73145877D02*
X62382609Y-73479210D01*
X62906419Y-73479210D02*
X61906419Y-73479210D01*
X61906419Y-73479210D02*
X61906419Y-73003020D01*
X89426380Y-53074419D02*
X88854952Y-53074419D01*
X89140666Y-53074419D02*
X89140666Y-52074419D01*
X89140666Y-52074419D02*
X89045428Y-52217276D01*
X89045428Y-52217276D02*
X88950190Y-52312514D01*
X88950190Y-52312514D02*
X88854952Y-52360133D01*
X90045428Y-52074419D02*
X90140666Y-52074419D01*
X90140666Y-52074419D02*
X90235904Y-52122038D01*
X90235904Y-52122038D02*
X90283523Y-52169657D01*
X90283523Y-52169657D02*
X90331142Y-52264895D01*
X90331142Y-52264895D02*
X90378761Y-52455371D01*
X90378761Y-52455371D02*
X90378761Y-52693466D01*
X90378761Y-52693466D02*
X90331142Y-52883942D01*
X90331142Y-52883942D02*
X90283523Y-52979180D01*
X90283523Y-52979180D02*
X90235904Y-53026800D01*
X90235904Y-53026800D02*
X90140666Y-53074419D01*
X90140666Y-53074419D02*
X90045428Y-53074419D01*
X90045428Y-53074419D02*
X89950190Y-53026800D01*
X89950190Y-53026800D02*
X89902571Y-52979180D01*
X89902571Y-52979180D02*
X89854952Y-52883942D01*
X89854952Y-52883942D02*
X89807333Y-52693466D01*
X89807333Y-52693466D02*
X89807333Y-52455371D01*
X89807333Y-52455371D02*
X89854952Y-52264895D01*
X89854952Y-52264895D02*
X89902571Y-52169657D01*
X89902571Y-52169657D02*
X89950190Y-52122038D01*
X89950190Y-52122038D02*
X90045428Y-52074419D01*
X90997809Y-52074419D02*
X91093047Y-52074419D01*
X91093047Y-52074419D02*
X91188285Y-52122038D01*
X91188285Y-52122038D02*
X91235904Y-52169657D01*
X91235904Y-52169657D02*
X91283523Y-52264895D01*
X91283523Y-52264895D02*
X91331142Y-52455371D01*
X91331142Y-52455371D02*
X91331142Y-52693466D01*
X91331142Y-52693466D02*
X91283523Y-52883942D01*
X91283523Y-52883942D02*
X91235904Y-52979180D01*
X91235904Y-52979180D02*
X91188285Y-53026800D01*
X91188285Y-53026800D02*
X91093047Y-53074419D01*
X91093047Y-53074419D02*
X90997809Y-53074419D01*
X90997809Y-53074419D02*
X90902571Y-53026800D01*
X90902571Y-53026800D02*
X90854952Y-52979180D01*
X90854952Y-52979180D02*
X90807333Y-52883942D01*
X90807333Y-52883942D02*
X90759714Y-52693466D01*
X90759714Y-52693466D02*
X90759714Y-52455371D01*
X90759714Y-52455371D02*
X90807333Y-52264895D01*
X90807333Y-52264895D02*
X90854952Y-52169657D01*
X90854952Y-52169657D02*
X90902571Y-52122038D01*
X90902571Y-52122038D02*
X90997809Y-52074419D01*
X92188285Y-52407752D02*
X92188285Y-53074419D01*
X91759714Y-52407752D02*
X91759714Y-52931561D01*
X91759714Y-52931561D02*
X91807333Y-53026800D01*
X91807333Y-53026800D02*
X91902571Y-53074419D01*
X91902571Y-53074419D02*
X92045428Y-53074419D01*
X92045428Y-53074419D02*
X92140666Y-53026800D01*
X92140666Y-53026800D02*
X92188285Y-52979180D01*
X92997809Y-52550609D02*
X92664476Y-52550609D01*
X92664476Y-53074419D02*
X92664476Y-52074419D01*
X92664476Y-52074419D02*
X93140666Y-52074419D01*
X90354952Y-54684419D02*
X89783524Y-54684419D01*
X90069238Y-54684419D02*
X90069238Y-53684419D01*
X90069238Y-53684419D02*
X89974000Y-53827276D01*
X89974000Y-53827276D02*
X89878762Y-53922514D01*
X89878762Y-53922514D02*
X89783524Y-53970133D01*
X91212095Y-53684419D02*
X91021619Y-53684419D01*
X91021619Y-53684419D02*
X90926381Y-53732038D01*
X90926381Y-53732038D02*
X90878762Y-53779657D01*
X90878762Y-53779657D02*
X90783524Y-53922514D01*
X90783524Y-53922514D02*
X90735905Y-54112990D01*
X90735905Y-54112990D02*
X90735905Y-54493942D01*
X90735905Y-54493942D02*
X90783524Y-54589180D01*
X90783524Y-54589180D02*
X90831143Y-54636800D01*
X90831143Y-54636800D02*
X90926381Y-54684419D01*
X90926381Y-54684419D02*
X91116857Y-54684419D01*
X91116857Y-54684419D02*
X91212095Y-54636800D01*
X91212095Y-54636800D02*
X91259714Y-54589180D01*
X91259714Y-54589180D02*
X91307333Y-54493942D01*
X91307333Y-54493942D02*
X91307333Y-54255847D01*
X91307333Y-54255847D02*
X91259714Y-54160609D01*
X91259714Y-54160609D02*
X91212095Y-54112990D01*
X91212095Y-54112990D02*
X91116857Y-54065371D01*
X91116857Y-54065371D02*
X90926381Y-54065371D01*
X90926381Y-54065371D02*
X90831143Y-54112990D01*
X90831143Y-54112990D02*
X90783524Y-54160609D01*
X90783524Y-54160609D02*
X90735905Y-54255847D01*
X91593048Y-53684419D02*
X91926381Y-54684419D01*
X91926381Y-54684419D02*
X92259714Y-53684419D01*
X27863142Y-68536752D02*
X27863142Y-69203419D01*
X27625047Y-68155800D02*
X27386952Y-68870085D01*
X27386952Y-68870085D02*
X28005999Y-68870085D01*
X28291714Y-68203419D02*
X28958380Y-68203419D01*
X28958380Y-68203419D02*
X28529809Y-69203419D01*
X29529809Y-68203419D02*
X29625047Y-68203419D01*
X29625047Y-68203419D02*
X29720285Y-68251038D01*
X29720285Y-68251038D02*
X29767904Y-68298657D01*
X29767904Y-68298657D02*
X29815523Y-68393895D01*
X29815523Y-68393895D02*
X29863142Y-68584371D01*
X29863142Y-68584371D02*
X29863142Y-68822466D01*
X29863142Y-68822466D02*
X29815523Y-69012942D01*
X29815523Y-69012942D02*
X29767904Y-69108180D01*
X29767904Y-69108180D02*
X29720285Y-69155800D01*
X29720285Y-69155800D02*
X29625047Y-69203419D01*
X29625047Y-69203419D02*
X29529809Y-69203419D01*
X29529809Y-69203419D02*
X29434571Y-69155800D01*
X29434571Y-69155800D02*
X29386952Y-69108180D01*
X29386952Y-69108180D02*
X29339333Y-69012942D01*
X29339333Y-69012942D02*
X29291714Y-68822466D01*
X29291714Y-68822466D02*
X29291714Y-68584371D01*
X29291714Y-68584371D02*
X29339333Y-68393895D01*
X29339333Y-68393895D02*
X29386952Y-68298657D01*
X29386952Y-68298657D02*
X29434571Y-68251038D01*
X29434571Y-68251038D02*
X29529809Y-68203419D01*
X30720285Y-68536752D02*
X30720285Y-69203419D01*
X30291714Y-68536752D02*
X30291714Y-69060561D01*
X30291714Y-69060561D02*
X30339333Y-69155800D01*
X30339333Y-69155800D02*
X30434571Y-69203419D01*
X30434571Y-69203419D02*
X30577428Y-69203419D01*
X30577428Y-69203419D02*
X30672666Y-69155800D01*
X30672666Y-69155800D02*
X30720285Y-69108180D01*
X31529809Y-68679609D02*
X31196476Y-68679609D01*
X31196476Y-69203419D02*
X31196476Y-68203419D01*
X31196476Y-68203419D02*
X31672666Y-68203419D01*
X28886952Y-70813419D02*
X28315524Y-70813419D01*
X28601238Y-70813419D02*
X28601238Y-69813419D01*
X28601238Y-69813419D02*
X28506000Y-69956276D01*
X28506000Y-69956276D02*
X28410762Y-70051514D01*
X28410762Y-70051514D02*
X28315524Y-70099133D01*
X29744095Y-69813419D02*
X29553619Y-69813419D01*
X29553619Y-69813419D02*
X29458381Y-69861038D01*
X29458381Y-69861038D02*
X29410762Y-69908657D01*
X29410762Y-69908657D02*
X29315524Y-70051514D01*
X29315524Y-70051514D02*
X29267905Y-70241990D01*
X29267905Y-70241990D02*
X29267905Y-70622942D01*
X29267905Y-70622942D02*
X29315524Y-70718180D01*
X29315524Y-70718180D02*
X29363143Y-70765800D01*
X29363143Y-70765800D02*
X29458381Y-70813419D01*
X29458381Y-70813419D02*
X29648857Y-70813419D01*
X29648857Y-70813419D02*
X29744095Y-70765800D01*
X29744095Y-70765800D02*
X29791714Y-70718180D01*
X29791714Y-70718180D02*
X29839333Y-70622942D01*
X29839333Y-70622942D02*
X29839333Y-70384847D01*
X29839333Y-70384847D02*
X29791714Y-70289609D01*
X29791714Y-70289609D02*
X29744095Y-70241990D01*
X29744095Y-70241990D02*
X29648857Y-70194371D01*
X29648857Y-70194371D02*
X29458381Y-70194371D01*
X29458381Y-70194371D02*
X29363143Y-70241990D01*
X29363143Y-70241990D02*
X29315524Y-70289609D01*
X29315524Y-70289609D02*
X29267905Y-70384847D01*
X30125048Y-69813419D02*
X30458381Y-70813419D01*
X30458381Y-70813419D02*
X30791714Y-69813419D01*
X14598800Y-30806734D02*
X14646419Y-30663877D01*
X14646419Y-30663877D02*
X14646419Y-30425782D01*
X14646419Y-30425782D02*
X14598800Y-30330544D01*
X14598800Y-30330544D02*
X14551180Y-30282925D01*
X14551180Y-30282925D02*
X14455942Y-30235306D01*
X14455942Y-30235306D02*
X14360704Y-30235306D01*
X14360704Y-30235306D02*
X14265466Y-30282925D01*
X14265466Y-30282925D02*
X14217847Y-30330544D01*
X14217847Y-30330544D02*
X14170228Y-30425782D01*
X14170228Y-30425782D02*
X14122609Y-30616258D01*
X14122609Y-30616258D02*
X14074990Y-30711496D01*
X14074990Y-30711496D02*
X14027371Y-30759115D01*
X14027371Y-30759115D02*
X13932133Y-30806734D01*
X13932133Y-30806734D02*
X13836895Y-30806734D01*
X13836895Y-30806734D02*
X13741657Y-30759115D01*
X13741657Y-30759115D02*
X13694038Y-30711496D01*
X13694038Y-30711496D02*
X13646419Y-30616258D01*
X13646419Y-30616258D02*
X13646419Y-30378163D01*
X13646419Y-30378163D02*
X13694038Y-30235306D01*
X14598800Y-29425782D02*
X14646419Y-29521020D01*
X14646419Y-29521020D02*
X14646419Y-29711496D01*
X14646419Y-29711496D02*
X14598800Y-29806734D01*
X14598800Y-29806734D02*
X14503561Y-29854353D01*
X14503561Y-29854353D02*
X14122609Y-29854353D01*
X14122609Y-29854353D02*
X14027371Y-29806734D01*
X14027371Y-29806734D02*
X13979752Y-29711496D01*
X13979752Y-29711496D02*
X13979752Y-29521020D01*
X13979752Y-29521020D02*
X14027371Y-29425782D01*
X14027371Y-29425782D02*
X14122609Y-29378163D01*
X14122609Y-29378163D02*
X14217847Y-29378163D01*
X14217847Y-29378163D02*
X14313085Y-29854353D01*
X14646419Y-28949591D02*
X13979752Y-28949591D01*
X14170228Y-28949591D02*
X14074990Y-28901972D01*
X14074990Y-28901972D02*
X14027371Y-28854353D01*
X14027371Y-28854353D02*
X13979752Y-28759115D01*
X13979752Y-28759115D02*
X13979752Y-28663877D01*
X14646419Y-28330543D02*
X13979752Y-28330543D01*
X13646419Y-28330543D02*
X13694038Y-28378162D01*
X13694038Y-28378162D02*
X13741657Y-28330543D01*
X13741657Y-28330543D02*
X13694038Y-28282924D01*
X13694038Y-28282924D02*
X13646419Y-28330543D01*
X13646419Y-28330543D02*
X13741657Y-28330543D01*
X14646419Y-27425782D02*
X14122609Y-27425782D01*
X14122609Y-27425782D02*
X14027371Y-27473401D01*
X14027371Y-27473401D02*
X13979752Y-27568639D01*
X13979752Y-27568639D02*
X13979752Y-27759115D01*
X13979752Y-27759115D02*
X14027371Y-27854353D01*
X14598800Y-27425782D02*
X14646419Y-27521020D01*
X14646419Y-27521020D02*
X14646419Y-27759115D01*
X14646419Y-27759115D02*
X14598800Y-27854353D01*
X14598800Y-27854353D02*
X14503561Y-27901972D01*
X14503561Y-27901972D02*
X14408323Y-27901972D01*
X14408323Y-27901972D02*
X14313085Y-27854353D01*
X14313085Y-27854353D02*
X14265466Y-27759115D01*
X14265466Y-27759115D02*
X14265466Y-27521020D01*
X14265466Y-27521020D02*
X14217847Y-27425782D01*
X14646419Y-26806734D02*
X14598800Y-26901972D01*
X14598800Y-26901972D02*
X14503561Y-26949591D01*
X14503561Y-26949591D02*
X13646419Y-26949591D01*
X14646419Y-25663876D02*
X13646419Y-25663876D01*
X13646419Y-25663876D02*
X13646419Y-25282924D01*
X13646419Y-25282924D02*
X13694038Y-25187686D01*
X13694038Y-25187686D02*
X13741657Y-25140067D01*
X13741657Y-25140067D02*
X13836895Y-25092448D01*
X13836895Y-25092448D02*
X13979752Y-25092448D01*
X13979752Y-25092448D02*
X14074990Y-25140067D01*
X14074990Y-25140067D02*
X14122609Y-25187686D01*
X14122609Y-25187686D02*
X14170228Y-25282924D01*
X14170228Y-25282924D02*
X14170228Y-25663876D01*
X14646419Y-24521019D02*
X14598800Y-24616257D01*
X14598800Y-24616257D02*
X14551180Y-24663876D01*
X14551180Y-24663876D02*
X14455942Y-24711495D01*
X14455942Y-24711495D02*
X14170228Y-24711495D01*
X14170228Y-24711495D02*
X14074990Y-24663876D01*
X14074990Y-24663876D02*
X14027371Y-24616257D01*
X14027371Y-24616257D02*
X13979752Y-24521019D01*
X13979752Y-24521019D02*
X13979752Y-24378162D01*
X13979752Y-24378162D02*
X14027371Y-24282924D01*
X14027371Y-24282924D02*
X14074990Y-24235305D01*
X14074990Y-24235305D02*
X14170228Y-24187686D01*
X14170228Y-24187686D02*
X14455942Y-24187686D01*
X14455942Y-24187686D02*
X14551180Y-24235305D01*
X14551180Y-24235305D02*
X14598800Y-24282924D01*
X14598800Y-24282924D02*
X14646419Y-24378162D01*
X14646419Y-24378162D02*
X14646419Y-24521019D01*
X14646419Y-23759114D02*
X13979752Y-23759114D01*
X14170228Y-23759114D02*
X14074990Y-23711495D01*
X14074990Y-23711495D02*
X14027371Y-23663876D01*
X14027371Y-23663876D02*
X13979752Y-23568638D01*
X13979752Y-23568638D02*
X13979752Y-23473400D01*
X13979752Y-23282923D02*
X13979752Y-22901971D01*
X13646419Y-23140066D02*
X14503561Y-23140066D01*
X14503561Y-23140066D02*
X14598800Y-23092447D01*
X14598800Y-23092447D02*
X14646419Y-22997209D01*
X14646419Y-22997209D02*
X14646419Y-22901971D01*
X86324884Y-29665466D02*
X87086789Y-29665466D01*
X86705836Y-30046419D02*
X86705836Y-29284514D01*
X88134407Y-29951180D02*
X88086788Y-29998800D01*
X88086788Y-29998800D02*
X87943931Y-30046419D01*
X87943931Y-30046419D02*
X87848693Y-30046419D01*
X87848693Y-30046419D02*
X87705836Y-29998800D01*
X87705836Y-29998800D02*
X87610598Y-29903561D01*
X87610598Y-29903561D02*
X87562979Y-29808323D01*
X87562979Y-29808323D02*
X87515360Y-29617847D01*
X87515360Y-29617847D02*
X87515360Y-29474990D01*
X87515360Y-29474990D02*
X87562979Y-29284514D01*
X87562979Y-29284514D02*
X87610598Y-29189276D01*
X87610598Y-29189276D02*
X87705836Y-29094038D01*
X87705836Y-29094038D02*
X87848693Y-29046419D01*
X87848693Y-29046419D02*
X87943931Y-29046419D01*
X87943931Y-29046419D02*
X88086788Y-29094038D01*
X88086788Y-29094038D02*
X88134407Y-29141657D01*
X89039169Y-30046419D02*
X88562979Y-30046419D01*
X88562979Y-30046419D02*
X88562979Y-29046419D01*
X89562979Y-29046419D02*
X89753455Y-29046419D01*
X89753455Y-29046419D02*
X89848693Y-29094038D01*
X89848693Y-29094038D02*
X89943931Y-29189276D01*
X89943931Y-29189276D02*
X89991550Y-29379752D01*
X89991550Y-29379752D02*
X89991550Y-29713085D01*
X89991550Y-29713085D02*
X89943931Y-29903561D01*
X89943931Y-29903561D02*
X89848693Y-29998800D01*
X89848693Y-29998800D02*
X89753455Y-30046419D01*
X89753455Y-30046419D02*
X89562979Y-30046419D01*
X89562979Y-30046419D02*
X89467741Y-29998800D01*
X89467741Y-29998800D02*
X89372503Y-29903561D01*
X89372503Y-29903561D02*
X89324884Y-29713085D01*
X89324884Y-29713085D02*
X89324884Y-29379752D01*
X89324884Y-29379752D02*
X89372503Y-29189276D01*
X89372503Y-29189276D02*
X89467741Y-29094038D01*
X89467741Y-29094038D02*
X89562979Y-29046419D01*
X90991550Y-29951180D02*
X90943931Y-29998800D01*
X90943931Y-29998800D02*
X90801074Y-30046419D01*
X90801074Y-30046419D02*
X90705836Y-30046419D01*
X90705836Y-30046419D02*
X90562979Y-29998800D01*
X90562979Y-29998800D02*
X90467741Y-29903561D01*
X90467741Y-29903561D02*
X90420122Y-29808323D01*
X90420122Y-29808323D02*
X90372503Y-29617847D01*
X90372503Y-29617847D02*
X90372503Y-29474990D01*
X90372503Y-29474990D02*
X90420122Y-29284514D01*
X90420122Y-29284514D02*
X90467741Y-29189276D01*
X90467741Y-29189276D02*
X90562979Y-29094038D01*
X90562979Y-29094038D02*
X90705836Y-29046419D01*
X90705836Y-29046419D02*
X90801074Y-29046419D01*
X90801074Y-29046419D02*
X90943931Y-29094038D01*
X90943931Y-29094038D02*
X90991550Y-29141657D01*
X91420122Y-30046419D02*
X91420122Y-29046419D01*
X91991550Y-30046419D02*
X91562979Y-29474990D01*
X91991550Y-29046419D02*
X91420122Y-29617847D01*
X83435646Y-71972419D02*
X84054693Y-71972419D01*
X84054693Y-71972419D02*
X83721360Y-72353371D01*
X83721360Y-72353371D02*
X83864217Y-72353371D01*
X83864217Y-72353371D02*
X83959455Y-72400990D01*
X83959455Y-72400990D02*
X84007074Y-72448609D01*
X84007074Y-72448609D02*
X84054693Y-72543847D01*
X84054693Y-72543847D02*
X84054693Y-72781942D01*
X84054693Y-72781942D02*
X84007074Y-72877180D01*
X84007074Y-72877180D02*
X83959455Y-72924800D01*
X83959455Y-72924800D02*
X83864217Y-72972419D01*
X83864217Y-72972419D02*
X83578503Y-72972419D01*
X83578503Y-72972419D02*
X83483265Y-72924800D01*
X83483265Y-72924800D02*
X83435646Y-72877180D01*
X84388027Y-71972419D02*
X85007074Y-71972419D01*
X85007074Y-71972419D02*
X84673741Y-72353371D01*
X84673741Y-72353371D02*
X84816598Y-72353371D01*
X84816598Y-72353371D02*
X84911836Y-72400990D01*
X84911836Y-72400990D02*
X84959455Y-72448609D01*
X84959455Y-72448609D02*
X85007074Y-72543847D01*
X85007074Y-72543847D02*
X85007074Y-72781942D01*
X85007074Y-72781942D02*
X84959455Y-72877180D01*
X84959455Y-72877180D02*
X84911836Y-72924800D01*
X84911836Y-72924800D02*
X84816598Y-72972419D01*
X84816598Y-72972419D02*
X84530884Y-72972419D01*
X84530884Y-72972419D02*
X84435646Y-72924800D01*
X84435646Y-72924800D02*
X84388027Y-72877180D01*
X85626122Y-71972419D02*
X85721360Y-71972419D01*
X85721360Y-71972419D02*
X85816598Y-72020038D01*
X85816598Y-72020038D02*
X85864217Y-72067657D01*
X85864217Y-72067657D02*
X85911836Y-72162895D01*
X85911836Y-72162895D02*
X85959455Y-72353371D01*
X85959455Y-72353371D02*
X85959455Y-72591466D01*
X85959455Y-72591466D02*
X85911836Y-72781942D01*
X85911836Y-72781942D02*
X85864217Y-72877180D01*
X85864217Y-72877180D02*
X85816598Y-72924800D01*
X85816598Y-72924800D02*
X85721360Y-72972419D01*
X85721360Y-72972419D02*
X85626122Y-72972419D01*
X85626122Y-72972419D02*
X85530884Y-72924800D01*
X85530884Y-72924800D02*
X85483265Y-72877180D01*
X85483265Y-72877180D02*
X85435646Y-72781942D01*
X85435646Y-72781942D02*
X85388027Y-72591466D01*
X85388027Y-72591466D02*
X85388027Y-72353371D01*
X85388027Y-72353371D02*
X85435646Y-72162895D01*
X85435646Y-72162895D02*
X85483265Y-72067657D01*
X85483265Y-72067657D02*
X85530884Y-72020038D01*
X85530884Y-72020038D02*
X85626122Y-71972419D01*
X86959455Y-72972419D02*
X86626122Y-72496228D01*
X86388027Y-72972419D02*
X86388027Y-71972419D01*
X86388027Y-71972419D02*
X86768979Y-71972419D01*
X86768979Y-71972419D02*
X86864217Y-72020038D01*
X86864217Y-72020038D02*
X86911836Y-72067657D01*
X86911836Y-72067657D02*
X86959455Y-72162895D01*
X86959455Y-72162895D02*
X86959455Y-72305752D01*
X86959455Y-72305752D02*
X86911836Y-72400990D01*
X86911836Y-72400990D02*
X86864217Y-72448609D01*
X86864217Y-72448609D02*
X86768979Y-72496228D01*
X86768979Y-72496228D02*
X86388027Y-72496228D01*
X72852952Y-68425657D02*
X72900571Y-68378038D01*
X72900571Y-68378038D02*
X72995809Y-68330419D01*
X72995809Y-68330419D02*
X73233904Y-68330419D01*
X73233904Y-68330419D02*
X73329142Y-68378038D01*
X73329142Y-68378038D02*
X73376761Y-68425657D01*
X73376761Y-68425657D02*
X73424380Y-68520895D01*
X73424380Y-68520895D02*
X73424380Y-68616133D01*
X73424380Y-68616133D02*
X73376761Y-68758990D01*
X73376761Y-68758990D02*
X72805333Y-69330419D01*
X72805333Y-69330419D02*
X73424380Y-69330419D01*
X73805333Y-68425657D02*
X73852952Y-68378038D01*
X73852952Y-68378038D02*
X73948190Y-68330419D01*
X73948190Y-68330419D02*
X74186285Y-68330419D01*
X74186285Y-68330419D02*
X74281523Y-68378038D01*
X74281523Y-68378038D02*
X74329142Y-68425657D01*
X74329142Y-68425657D02*
X74376761Y-68520895D01*
X74376761Y-68520895D02*
X74376761Y-68616133D01*
X74376761Y-68616133D02*
X74329142Y-68758990D01*
X74329142Y-68758990D02*
X73757714Y-69330419D01*
X73757714Y-69330419D02*
X74376761Y-69330419D01*
X74995809Y-68330419D02*
X75091047Y-68330419D01*
X75091047Y-68330419D02*
X75186285Y-68378038D01*
X75186285Y-68378038D02*
X75233904Y-68425657D01*
X75233904Y-68425657D02*
X75281523Y-68520895D01*
X75281523Y-68520895D02*
X75329142Y-68711371D01*
X75329142Y-68711371D02*
X75329142Y-68949466D01*
X75329142Y-68949466D02*
X75281523Y-69139942D01*
X75281523Y-69139942D02*
X75233904Y-69235180D01*
X75233904Y-69235180D02*
X75186285Y-69282800D01*
X75186285Y-69282800D02*
X75091047Y-69330419D01*
X75091047Y-69330419D02*
X74995809Y-69330419D01*
X74995809Y-69330419D02*
X74900571Y-69282800D01*
X74900571Y-69282800D02*
X74852952Y-69235180D01*
X74852952Y-69235180D02*
X74805333Y-69139942D01*
X74805333Y-69139942D02*
X74757714Y-68949466D01*
X74757714Y-68949466D02*
X74757714Y-68711371D01*
X74757714Y-68711371D02*
X74805333Y-68520895D01*
X74805333Y-68520895D02*
X74852952Y-68425657D01*
X74852952Y-68425657D02*
X74900571Y-68378038D01*
X74900571Y-68378038D02*
X74995809Y-68330419D01*
X76186285Y-68663752D02*
X76186285Y-69330419D01*
X75757714Y-68663752D02*
X75757714Y-69187561D01*
X75757714Y-69187561D02*
X75805333Y-69282800D01*
X75805333Y-69282800D02*
X75900571Y-69330419D01*
X75900571Y-69330419D02*
X76043428Y-69330419D01*
X76043428Y-69330419D02*
X76138666Y-69282800D01*
X76138666Y-69282800D02*
X76186285Y-69235180D01*
X76995809Y-68806609D02*
X76662476Y-68806609D01*
X76662476Y-69330419D02*
X76662476Y-68330419D01*
X76662476Y-68330419D02*
X77138666Y-68330419D01*
X74352952Y-70940419D02*
X73781524Y-70940419D01*
X74067238Y-70940419D02*
X74067238Y-69940419D01*
X74067238Y-69940419D02*
X73972000Y-70083276D01*
X73972000Y-70083276D02*
X73876762Y-70178514D01*
X73876762Y-70178514D02*
X73781524Y-70226133D01*
X75210095Y-69940419D02*
X75019619Y-69940419D01*
X75019619Y-69940419D02*
X74924381Y-69988038D01*
X74924381Y-69988038D02*
X74876762Y-70035657D01*
X74876762Y-70035657D02*
X74781524Y-70178514D01*
X74781524Y-70178514D02*
X74733905Y-70368990D01*
X74733905Y-70368990D02*
X74733905Y-70749942D01*
X74733905Y-70749942D02*
X74781524Y-70845180D01*
X74781524Y-70845180D02*
X74829143Y-70892800D01*
X74829143Y-70892800D02*
X74924381Y-70940419D01*
X74924381Y-70940419D02*
X75114857Y-70940419D01*
X75114857Y-70940419D02*
X75210095Y-70892800D01*
X75210095Y-70892800D02*
X75257714Y-70845180D01*
X75257714Y-70845180D02*
X75305333Y-70749942D01*
X75305333Y-70749942D02*
X75305333Y-70511847D01*
X75305333Y-70511847D02*
X75257714Y-70416609D01*
X75257714Y-70416609D02*
X75210095Y-70368990D01*
X75210095Y-70368990D02*
X75114857Y-70321371D01*
X75114857Y-70321371D02*
X74924381Y-70321371D01*
X74924381Y-70321371D02*
X74829143Y-70368990D01*
X74829143Y-70368990D02*
X74781524Y-70416609D01*
X74781524Y-70416609D02*
X74733905Y-70511847D01*
X75591048Y-69940419D02*
X75924381Y-70940419D01*
X75924381Y-70940419D02*
X76257714Y-69940419D01*
X32299419Y-62112306D02*
X32299419Y-62683734D01*
X32299419Y-62398020D02*
X31299419Y-62398020D01*
X31299419Y-62398020D02*
X31442276Y-62493258D01*
X31442276Y-62493258D02*
X31537514Y-62588496D01*
X31537514Y-62588496D02*
X31585133Y-62683734D01*
X32299419Y-61683734D02*
X31299419Y-61683734D01*
X31299419Y-61683734D02*
X32299419Y-61112306D01*
X32299419Y-61112306D02*
X31299419Y-61112306D01*
X31299419Y-60159925D02*
X31299419Y-60636115D01*
X31299419Y-60636115D02*
X31775609Y-60683734D01*
X31775609Y-60683734D02*
X31727990Y-60636115D01*
X31727990Y-60636115D02*
X31680371Y-60540877D01*
X31680371Y-60540877D02*
X31680371Y-60302782D01*
X31680371Y-60302782D02*
X31727990Y-60207544D01*
X31727990Y-60207544D02*
X31775609Y-60159925D01*
X31775609Y-60159925D02*
X31870847Y-60112306D01*
X31870847Y-60112306D02*
X32108942Y-60112306D01*
X32108942Y-60112306D02*
X32204180Y-60159925D01*
X32204180Y-60159925D02*
X32251800Y-60207544D01*
X32251800Y-60207544D02*
X32299419Y-60302782D01*
X32299419Y-60302782D02*
X32299419Y-60540877D01*
X32299419Y-60540877D02*
X32251800Y-60636115D01*
X32251800Y-60636115D02*
X32204180Y-60683734D01*
X31727990Y-59540877D02*
X31680371Y-59636115D01*
X31680371Y-59636115D02*
X31632752Y-59683734D01*
X31632752Y-59683734D02*
X31537514Y-59731353D01*
X31537514Y-59731353D02*
X31489895Y-59731353D01*
X31489895Y-59731353D02*
X31394657Y-59683734D01*
X31394657Y-59683734D02*
X31347038Y-59636115D01*
X31347038Y-59636115D02*
X31299419Y-59540877D01*
X31299419Y-59540877D02*
X31299419Y-59350401D01*
X31299419Y-59350401D02*
X31347038Y-59255163D01*
X31347038Y-59255163D02*
X31394657Y-59207544D01*
X31394657Y-59207544D02*
X31489895Y-59159925D01*
X31489895Y-59159925D02*
X31537514Y-59159925D01*
X31537514Y-59159925D02*
X31632752Y-59207544D01*
X31632752Y-59207544D02*
X31680371Y-59255163D01*
X31680371Y-59255163D02*
X31727990Y-59350401D01*
X31727990Y-59350401D02*
X31727990Y-59540877D01*
X31727990Y-59540877D02*
X31775609Y-59636115D01*
X31775609Y-59636115D02*
X31823228Y-59683734D01*
X31823228Y-59683734D02*
X31918466Y-59731353D01*
X31918466Y-59731353D02*
X32108942Y-59731353D01*
X32108942Y-59731353D02*
X32204180Y-59683734D01*
X32204180Y-59683734D02*
X32251800Y-59636115D01*
X32251800Y-59636115D02*
X32299419Y-59540877D01*
X32299419Y-59540877D02*
X32299419Y-59350401D01*
X32299419Y-59350401D02*
X32251800Y-59255163D01*
X32251800Y-59255163D02*
X32204180Y-59207544D01*
X32204180Y-59207544D02*
X32108942Y-59159925D01*
X32108942Y-59159925D02*
X31918466Y-59159925D01*
X31918466Y-59159925D02*
X31823228Y-59207544D01*
X31823228Y-59207544D02*
X31775609Y-59255163D01*
X31775609Y-59255163D02*
X31727990Y-59350401D01*
X32299419Y-58207544D02*
X32299419Y-58778972D01*
X32299419Y-58493258D02*
X31299419Y-58493258D01*
X31299419Y-58493258D02*
X31442276Y-58588496D01*
X31442276Y-58588496D02*
X31537514Y-58683734D01*
X31537514Y-58683734D02*
X31585133Y-58778972D01*
X31299419Y-57874210D02*
X31299419Y-57207544D01*
X31299419Y-57207544D02*
X32299419Y-57636115D01*
X89245884Y-32205466D02*
X90007789Y-32205466D01*
X89626836Y-32586419D02*
X89626836Y-31824514D01*
X90960169Y-31586419D02*
X90483979Y-31586419D01*
X90483979Y-31586419D02*
X90436360Y-32062609D01*
X90436360Y-32062609D02*
X90483979Y-32014990D01*
X90483979Y-32014990D02*
X90579217Y-31967371D01*
X90579217Y-31967371D02*
X90817312Y-31967371D01*
X90817312Y-31967371D02*
X90912550Y-32014990D01*
X90912550Y-32014990D02*
X90960169Y-32062609D01*
X90960169Y-32062609D02*
X91007788Y-32157847D01*
X91007788Y-32157847D02*
X91007788Y-32395942D01*
X91007788Y-32395942D02*
X90960169Y-32491180D01*
X90960169Y-32491180D02*
X90912550Y-32538800D01*
X90912550Y-32538800D02*
X90817312Y-32586419D01*
X90817312Y-32586419D02*
X90579217Y-32586419D01*
X90579217Y-32586419D02*
X90483979Y-32538800D01*
X90483979Y-32538800D02*
X90436360Y-32491180D01*
X91293503Y-31586419D02*
X91626836Y-32586419D01*
X91626836Y-32586419D02*
X91960169Y-31586419D01*
X37506419Y-76717306D02*
X37506419Y-77288734D01*
X37506419Y-77003020D02*
X36506419Y-77003020D01*
X36506419Y-77003020D02*
X36649276Y-77098258D01*
X36649276Y-77098258D02*
X36744514Y-77193496D01*
X36744514Y-77193496D02*
X36792133Y-77288734D01*
X36506419Y-76098258D02*
X36506419Y-76003020D01*
X36506419Y-76003020D02*
X36554038Y-75907782D01*
X36554038Y-75907782D02*
X36601657Y-75860163D01*
X36601657Y-75860163D02*
X36696895Y-75812544D01*
X36696895Y-75812544D02*
X36887371Y-75764925D01*
X36887371Y-75764925D02*
X37125466Y-75764925D01*
X37125466Y-75764925D02*
X37315942Y-75812544D01*
X37315942Y-75812544D02*
X37411180Y-75860163D01*
X37411180Y-75860163D02*
X37458800Y-75907782D01*
X37458800Y-75907782D02*
X37506419Y-76003020D01*
X37506419Y-76003020D02*
X37506419Y-76098258D01*
X37506419Y-76098258D02*
X37458800Y-76193496D01*
X37458800Y-76193496D02*
X37411180Y-76241115D01*
X37411180Y-76241115D02*
X37315942Y-76288734D01*
X37315942Y-76288734D02*
X37125466Y-76336353D01*
X37125466Y-76336353D02*
X36887371Y-76336353D01*
X36887371Y-76336353D02*
X36696895Y-76288734D01*
X36696895Y-76288734D02*
X36601657Y-76241115D01*
X36601657Y-76241115D02*
X36554038Y-76193496D01*
X36554038Y-76193496D02*
X36506419Y-76098258D01*
X36506419Y-75145877D02*
X36506419Y-75050639D01*
X36506419Y-75050639D02*
X36554038Y-74955401D01*
X36554038Y-74955401D02*
X36601657Y-74907782D01*
X36601657Y-74907782D02*
X36696895Y-74860163D01*
X36696895Y-74860163D02*
X36887371Y-74812544D01*
X36887371Y-74812544D02*
X37125466Y-74812544D01*
X37125466Y-74812544D02*
X37315942Y-74860163D01*
X37315942Y-74860163D02*
X37411180Y-74907782D01*
X37411180Y-74907782D02*
X37458800Y-74955401D01*
X37458800Y-74955401D02*
X37506419Y-75050639D01*
X37506419Y-75050639D02*
X37506419Y-75145877D01*
X37506419Y-75145877D02*
X37458800Y-75241115D01*
X37458800Y-75241115D02*
X37411180Y-75288734D01*
X37411180Y-75288734D02*
X37315942Y-75336353D01*
X37315942Y-75336353D02*
X37125466Y-75383972D01*
X37125466Y-75383972D02*
X36887371Y-75383972D01*
X36887371Y-75383972D02*
X36696895Y-75336353D01*
X36696895Y-75336353D02*
X36601657Y-75288734D01*
X36601657Y-75288734D02*
X36554038Y-75241115D01*
X36554038Y-75241115D02*
X36506419Y-75145877D01*
X36839752Y-74383972D02*
X37506419Y-74383972D01*
X36934990Y-74383972D02*
X36887371Y-74336353D01*
X36887371Y-74336353D02*
X36839752Y-74241115D01*
X36839752Y-74241115D02*
X36839752Y-74098258D01*
X36839752Y-74098258D02*
X36887371Y-74003020D01*
X36887371Y-74003020D02*
X36982609Y-73955401D01*
X36982609Y-73955401D02*
X37506419Y-73955401D01*
X36982609Y-73145877D02*
X36982609Y-73479210D01*
X37506419Y-73479210D02*
X36506419Y-73479210D01*
X36506419Y-73479210D02*
X36506419Y-73003020D01*
X23539265Y-29141657D02*
X23586884Y-29094038D01*
X23586884Y-29094038D02*
X23682122Y-29046419D01*
X23682122Y-29046419D02*
X23920217Y-29046419D01*
X23920217Y-29046419D02*
X24015455Y-29094038D01*
X24015455Y-29094038D02*
X24063074Y-29141657D01*
X24063074Y-29141657D02*
X24110693Y-29236895D01*
X24110693Y-29236895D02*
X24110693Y-29332133D01*
X24110693Y-29332133D02*
X24063074Y-29474990D01*
X24063074Y-29474990D02*
X23491646Y-30046419D01*
X23491646Y-30046419D02*
X24110693Y-30046419D01*
X42652693Y-32586419D02*
X42081265Y-32586419D01*
X42366979Y-32586419D02*
X42366979Y-31586419D01*
X42366979Y-31586419D02*
X42271741Y-31729276D01*
X42271741Y-31729276D02*
X42176503Y-31824514D01*
X42176503Y-31824514D02*
X42081265Y-31872133D01*
X43271741Y-31586419D02*
X43366979Y-31586419D01*
X43366979Y-31586419D02*
X43462217Y-31634038D01*
X43462217Y-31634038D02*
X43509836Y-31681657D01*
X43509836Y-31681657D02*
X43557455Y-31776895D01*
X43557455Y-31776895D02*
X43605074Y-31967371D01*
X43605074Y-31967371D02*
X43605074Y-32205466D01*
X43605074Y-32205466D02*
X43557455Y-32395942D01*
X43557455Y-32395942D02*
X43509836Y-32491180D01*
X43509836Y-32491180D02*
X43462217Y-32538800D01*
X43462217Y-32538800D02*
X43366979Y-32586419D01*
X43366979Y-32586419D02*
X43271741Y-32586419D01*
X43271741Y-32586419D02*
X43176503Y-32538800D01*
X43176503Y-32538800D02*
X43128884Y-32491180D01*
X43128884Y-32491180D02*
X43081265Y-32395942D01*
X43081265Y-32395942D02*
X43033646Y-32205466D01*
X43033646Y-32205466D02*
X43033646Y-31967371D01*
X43033646Y-31967371D02*
X43081265Y-31776895D01*
X43081265Y-31776895D02*
X43128884Y-31681657D01*
X43128884Y-31681657D02*
X43176503Y-31634038D01*
X43176503Y-31634038D02*
X43271741Y-31586419D01*
X44033646Y-32586419D02*
X44033646Y-31586419D01*
X44605074Y-32586419D02*
X44176503Y-32014990D01*
X44605074Y-31586419D02*
X44033646Y-32157847D01*
X14646419Y-72288115D02*
X13646419Y-72288115D01*
X13646419Y-72288115D02*
X13646419Y-72050020D01*
X13646419Y-72050020D02*
X13694038Y-71907163D01*
X13694038Y-71907163D02*
X13789276Y-71811925D01*
X13789276Y-71811925D02*
X13884514Y-71764306D01*
X13884514Y-71764306D02*
X14074990Y-71716687D01*
X14074990Y-71716687D02*
X14217847Y-71716687D01*
X14217847Y-71716687D02*
X14408323Y-71764306D01*
X14408323Y-71764306D02*
X14503561Y-71811925D01*
X14503561Y-71811925D02*
X14598800Y-71907163D01*
X14598800Y-71907163D02*
X14646419Y-72050020D01*
X14646419Y-72050020D02*
X14646419Y-72288115D01*
X14551180Y-70716687D02*
X14598800Y-70764306D01*
X14598800Y-70764306D02*
X14646419Y-70907163D01*
X14646419Y-70907163D02*
X14646419Y-71002401D01*
X14646419Y-71002401D02*
X14598800Y-71145258D01*
X14598800Y-71145258D02*
X14503561Y-71240496D01*
X14503561Y-71240496D02*
X14408323Y-71288115D01*
X14408323Y-71288115D02*
X14217847Y-71335734D01*
X14217847Y-71335734D02*
X14074990Y-71335734D01*
X14074990Y-71335734D02*
X13884514Y-71288115D01*
X13884514Y-71288115D02*
X13789276Y-71240496D01*
X13789276Y-71240496D02*
X13694038Y-71145258D01*
X13694038Y-71145258D02*
X13646419Y-71002401D01*
X13646419Y-71002401D02*
X13646419Y-70907163D01*
X13646419Y-70907163D02*
X13694038Y-70764306D01*
X13694038Y-70764306D02*
X13741657Y-70716687D01*
X14265466Y-70288115D02*
X14265466Y-69526211D01*
X14646419Y-69050020D02*
X13646419Y-69050020D01*
X14646419Y-68573830D02*
X13646419Y-68573830D01*
X13646419Y-68573830D02*
X14646419Y-68002402D01*
X14646419Y-68002402D02*
X13646419Y-68002402D01*
X14646419Y-66716687D02*
X14646419Y-66526211D01*
X14646419Y-66526211D02*
X14598800Y-66430973D01*
X14598800Y-66430973D02*
X14551180Y-66383354D01*
X14551180Y-66383354D02*
X14408323Y-66288116D01*
X14408323Y-66288116D02*
X14217847Y-66240497D01*
X14217847Y-66240497D02*
X13836895Y-66240497D01*
X13836895Y-66240497D02*
X13741657Y-66288116D01*
X13741657Y-66288116D02*
X13694038Y-66335735D01*
X13694038Y-66335735D02*
X13646419Y-66430973D01*
X13646419Y-66430973D02*
X13646419Y-66621449D01*
X13646419Y-66621449D02*
X13694038Y-66716687D01*
X13694038Y-66716687D02*
X13741657Y-66764306D01*
X13741657Y-66764306D02*
X13836895Y-66811925D01*
X13836895Y-66811925D02*
X14074990Y-66811925D01*
X14074990Y-66811925D02*
X14170228Y-66764306D01*
X14170228Y-66764306D02*
X14217847Y-66716687D01*
X14217847Y-66716687D02*
X14265466Y-66621449D01*
X14265466Y-66621449D02*
X14265466Y-66430973D01*
X14265466Y-66430973D02*
X14217847Y-66335735D01*
X14217847Y-66335735D02*
X14170228Y-66288116D01*
X14170228Y-66288116D02*
X14074990Y-66240497D01*
X13646419Y-65954782D02*
X14646419Y-65621449D01*
X14646419Y-65621449D02*
X13646419Y-65288116D01*
X83435646Y-64352419D02*
X84054693Y-64352419D01*
X84054693Y-64352419D02*
X83721360Y-64733371D01*
X83721360Y-64733371D02*
X83864217Y-64733371D01*
X83864217Y-64733371D02*
X83959455Y-64780990D01*
X83959455Y-64780990D02*
X84007074Y-64828609D01*
X84007074Y-64828609D02*
X84054693Y-64923847D01*
X84054693Y-64923847D02*
X84054693Y-65161942D01*
X84054693Y-65161942D02*
X84007074Y-65257180D01*
X84007074Y-65257180D02*
X83959455Y-65304800D01*
X83959455Y-65304800D02*
X83864217Y-65352419D01*
X83864217Y-65352419D02*
X83578503Y-65352419D01*
X83578503Y-65352419D02*
X83483265Y-65304800D01*
X83483265Y-65304800D02*
X83435646Y-65257180D01*
X84388027Y-64352419D02*
X85007074Y-64352419D01*
X85007074Y-64352419D02*
X84673741Y-64733371D01*
X84673741Y-64733371D02*
X84816598Y-64733371D01*
X84816598Y-64733371D02*
X84911836Y-64780990D01*
X84911836Y-64780990D02*
X84959455Y-64828609D01*
X84959455Y-64828609D02*
X85007074Y-64923847D01*
X85007074Y-64923847D02*
X85007074Y-65161942D01*
X85007074Y-65161942D02*
X84959455Y-65257180D01*
X84959455Y-65257180D02*
X84911836Y-65304800D01*
X84911836Y-65304800D02*
X84816598Y-65352419D01*
X84816598Y-65352419D02*
X84530884Y-65352419D01*
X84530884Y-65352419D02*
X84435646Y-65304800D01*
X84435646Y-65304800D02*
X84388027Y-65257180D01*
X85626122Y-64352419D02*
X85721360Y-64352419D01*
X85721360Y-64352419D02*
X85816598Y-64400038D01*
X85816598Y-64400038D02*
X85864217Y-64447657D01*
X85864217Y-64447657D02*
X85911836Y-64542895D01*
X85911836Y-64542895D02*
X85959455Y-64733371D01*
X85959455Y-64733371D02*
X85959455Y-64971466D01*
X85959455Y-64971466D02*
X85911836Y-65161942D01*
X85911836Y-65161942D02*
X85864217Y-65257180D01*
X85864217Y-65257180D02*
X85816598Y-65304800D01*
X85816598Y-65304800D02*
X85721360Y-65352419D01*
X85721360Y-65352419D02*
X85626122Y-65352419D01*
X85626122Y-65352419D02*
X85530884Y-65304800D01*
X85530884Y-65304800D02*
X85483265Y-65257180D01*
X85483265Y-65257180D02*
X85435646Y-65161942D01*
X85435646Y-65161942D02*
X85388027Y-64971466D01*
X85388027Y-64971466D02*
X85388027Y-64733371D01*
X85388027Y-64733371D02*
X85435646Y-64542895D01*
X85435646Y-64542895D02*
X85483265Y-64447657D01*
X85483265Y-64447657D02*
X85530884Y-64400038D01*
X85530884Y-64400038D02*
X85626122Y-64352419D01*
X86959455Y-65352419D02*
X86626122Y-64876228D01*
X86388027Y-65352419D02*
X86388027Y-64352419D01*
X86388027Y-64352419D02*
X86768979Y-64352419D01*
X86768979Y-64352419D02*
X86864217Y-64400038D01*
X86864217Y-64400038D02*
X86911836Y-64447657D01*
X86911836Y-64447657D02*
X86959455Y-64542895D01*
X86959455Y-64542895D02*
X86959455Y-64685752D01*
X86959455Y-64685752D02*
X86911836Y-64780990D01*
X86911836Y-64780990D02*
X86864217Y-64828609D01*
X86864217Y-64828609D02*
X86768979Y-64876228D01*
X86768979Y-64876228D02*
X86388027Y-64876228D01*
X42332419Y-23758306D02*
X42332419Y-24329734D01*
X42332419Y-24044020D02*
X41332419Y-24044020D01*
X41332419Y-24044020D02*
X41475276Y-24139258D01*
X41475276Y-24139258D02*
X41570514Y-24234496D01*
X41570514Y-24234496D02*
X41618133Y-24329734D01*
X41332419Y-23139258D02*
X41332419Y-23044020D01*
X41332419Y-23044020D02*
X41380038Y-22948782D01*
X41380038Y-22948782D02*
X41427657Y-22901163D01*
X41427657Y-22901163D02*
X41522895Y-22853544D01*
X41522895Y-22853544D02*
X41713371Y-22805925D01*
X41713371Y-22805925D02*
X41951466Y-22805925D01*
X41951466Y-22805925D02*
X42141942Y-22853544D01*
X42141942Y-22853544D02*
X42237180Y-22901163D01*
X42237180Y-22901163D02*
X42284800Y-22948782D01*
X42284800Y-22948782D02*
X42332419Y-23044020D01*
X42332419Y-23044020D02*
X42332419Y-23139258D01*
X42332419Y-23139258D02*
X42284800Y-23234496D01*
X42284800Y-23234496D02*
X42237180Y-23282115D01*
X42237180Y-23282115D02*
X42141942Y-23329734D01*
X42141942Y-23329734D02*
X41951466Y-23377353D01*
X41951466Y-23377353D02*
X41713371Y-23377353D01*
X41713371Y-23377353D02*
X41522895Y-23329734D01*
X41522895Y-23329734D02*
X41427657Y-23282115D01*
X41427657Y-23282115D02*
X41380038Y-23234496D01*
X41380038Y-23234496D02*
X41332419Y-23139258D01*
X42332419Y-22377353D02*
X41332419Y-22377353D01*
X42332419Y-21805925D02*
X41760990Y-22234496D01*
X41332419Y-21805925D02*
X41903847Y-22377353D01*
X67446704Y-42109734D02*
X67446704Y-41633544D01*
X67732419Y-42204972D02*
X66732419Y-41871639D01*
X66732419Y-41871639D02*
X67732419Y-41538306D01*
X67732419Y-41204972D02*
X67065752Y-41204972D01*
X67256228Y-41204972D02*
X67160990Y-41157353D01*
X67160990Y-41157353D02*
X67113371Y-41109734D01*
X67113371Y-41109734D02*
X67065752Y-41014496D01*
X67065752Y-41014496D02*
X67065752Y-40919258D01*
X67732419Y-40157353D02*
X66732419Y-40157353D01*
X67684800Y-40157353D02*
X67732419Y-40252591D01*
X67732419Y-40252591D02*
X67732419Y-40443067D01*
X67732419Y-40443067D02*
X67684800Y-40538305D01*
X67684800Y-40538305D02*
X67637180Y-40585924D01*
X67637180Y-40585924D02*
X67541942Y-40633543D01*
X67541942Y-40633543D02*
X67256228Y-40633543D01*
X67256228Y-40633543D02*
X67160990Y-40585924D01*
X67160990Y-40585924D02*
X67113371Y-40538305D01*
X67113371Y-40538305D02*
X67065752Y-40443067D01*
X67065752Y-40443067D02*
X67065752Y-40252591D01*
X67065752Y-40252591D02*
X67113371Y-40157353D01*
X67065752Y-39252591D02*
X67732419Y-39252591D01*
X67065752Y-39681162D02*
X67589561Y-39681162D01*
X67589561Y-39681162D02*
X67684800Y-39633543D01*
X67684800Y-39633543D02*
X67732419Y-39538305D01*
X67732419Y-39538305D02*
X67732419Y-39395448D01*
X67732419Y-39395448D02*
X67684800Y-39300210D01*
X67684800Y-39300210D02*
X67637180Y-39252591D01*
X67732419Y-38776400D02*
X67065752Y-38776400D01*
X66732419Y-38776400D02*
X66780038Y-38824019D01*
X66780038Y-38824019D02*
X66827657Y-38776400D01*
X66827657Y-38776400D02*
X66780038Y-38728781D01*
X66780038Y-38728781D02*
X66732419Y-38776400D01*
X66732419Y-38776400D02*
X66827657Y-38776400D01*
X67065752Y-38300210D02*
X67732419Y-38300210D01*
X67160990Y-38300210D02*
X67113371Y-38252591D01*
X67113371Y-38252591D02*
X67065752Y-38157353D01*
X67065752Y-38157353D02*
X67065752Y-38014496D01*
X67065752Y-38014496D02*
X67113371Y-37919258D01*
X67113371Y-37919258D02*
X67208609Y-37871639D01*
X67208609Y-37871639D02*
X67732419Y-37871639D01*
X67732419Y-37252591D02*
X67684800Y-37347829D01*
X67684800Y-37347829D02*
X67637180Y-37395448D01*
X67637180Y-37395448D02*
X67541942Y-37443067D01*
X67541942Y-37443067D02*
X67256228Y-37443067D01*
X67256228Y-37443067D02*
X67160990Y-37395448D01*
X67160990Y-37395448D02*
X67113371Y-37347829D01*
X67113371Y-37347829D02*
X67065752Y-37252591D01*
X67065752Y-37252591D02*
X67065752Y-37109734D01*
X67065752Y-37109734D02*
X67113371Y-37014496D01*
X67113371Y-37014496D02*
X67160990Y-36966877D01*
X67160990Y-36966877D02*
X67256228Y-36919258D01*
X67256228Y-36919258D02*
X67541942Y-36919258D01*
X67541942Y-36919258D02*
X67637180Y-36966877D01*
X67637180Y-36966877D02*
X67684800Y-37014496D01*
X67684800Y-37014496D02*
X67732419Y-37109734D01*
X67732419Y-37109734D02*
X67732419Y-37252591D01*
X67732419Y-35728781D02*
X66732419Y-35728781D01*
X66732419Y-35728781D02*
X67732419Y-35157353D01*
X67732419Y-35157353D02*
X66732419Y-35157353D01*
X67446704Y-34728781D02*
X67446704Y-34252591D01*
X67732419Y-34824019D02*
X66732419Y-34490686D01*
X66732419Y-34490686D02*
X67732419Y-34157353D01*
X67732419Y-33824019D02*
X66732419Y-33824019D01*
X66732419Y-33824019D02*
X67732419Y-33252591D01*
X67732419Y-33252591D02*
X66732419Y-33252591D01*
X66732419Y-32585924D02*
X66732419Y-32395448D01*
X66732419Y-32395448D02*
X66780038Y-32300210D01*
X66780038Y-32300210D02*
X66875276Y-32204972D01*
X66875276Y-32204972D02*
X67065752Y-32157353D01*
X67065752Y-32157353D02*
X67399085Y-32157353D01*
X67399085Y-32157353D02*
X67589561Y-32204972D01*
X67589561Y-32204972D02*
X67684800Y-32300210D01*
X67684800Y-32300210D02*
X67732419Y-32395448D01*
X67732419Y-32395448D02*
X67732419Y-32585924D01*
X67732419Y-32585924D02*
X67684800Y-32681162D01*
X67684800Y-32681162D02*
X67589561Y-32776400D01*
X67589561Y-32776400D02*
X67399085Y-32824019D01*
X67399085Y-32824019D02*
X67065752Y-32824019D01*
X67065752Y-32824019D02*
X66875276Y-32776400D01*
X66875276Y-32776400D02*
X66780038Y-32681162D01*
X66780038Y-32681162D02*
X66732419Y-32585924D01*
X67065752Y-31062114D02*
X67732419Y-30824019D01*
X67732419Y-30824019D02*
X67065752Y-30585924D01*
X66732419Y-30300209D02*
X66732419Y-29681162D01*
X66732419Y-29681162D02*
X67113371Y-30014495D01*
X67113371Y-30014495D02*
X67113371Y-29871638D01*
X67113371Y-29871638D02*
X67160990Y-29776400D01*
X67160990Y-29776400D02*
X67208609Y-29728781D01*
X67208609Y-29728781D02*
X67303847Y-29681162D01*
X67303847Y-29681162D02*
X67541942Y-29681162D01*
X67541942Y-29681162D02*
X67637180Y-29728781D01*
X67637180Y-29728781D02*
X67684800Y-29776400D01*
X67684800Y-29776400D02*
X67732419Y-29871638D01*
X67732419Y-29871638D02*
X67732419Y-30157352D01*
X67732419Y-30157352D02*
X67684800Y-30252590D01*
X67684800Y-30252590D02*
X67637180Y-30300209D01*
X19480884Y-14518419D02*
X19480884Y-13518419D01*
X19480884Y-13518419D02*
X19861836Y-13518419D01*
X19861836Y-13518419D02*
X19957074Y-13566038D01*
X19957074Y-13566038D02*
X20004693Y-13613657D01*
X20004693Y-13613657D02*
X20052312Y-13708895D01*
X20052312Y-13708895D02*
X20052312Y-13851752D01*
X20052312Y-13851752D02*
X20004693Y-13946990D01*
X20004693Y-13946990D02*
X19957074Y-13994609D01*
X19957074Y-13994609D02*
X19861836Y-14042228D01*
X19861836Y-14042228D02*
X19480884Y-14042228D01*
X20433265Y-14470800D02*
X20576122Y-14518419D01*
X20576122Y-14518419D02*
X20814217Y-14518419D01*
X20814217Y-14518419D02*
X20909455Y-14470800D01*
X20909455Y-14470800D02*
X20957074Y-14423180D01*
X20957074Y-14423180D02*
X21004693Y-14327942D01*
X21004693Y-14327942D02*
X21004693Y-14232704D01*
X21004693Y-14232704D02*
X20957074Y-14137466D01*
X20957074Y-14137466D02*
X20909455Y-14089847D01*
X20909455Y-14089847D02*
X20814217Y-14042228D01*
X20814217Y-14042228D02*
X20623741Y-13994609D01*
X20623741Y-13994609D02*
X20528503Y-13946990D01*
X20528503Y-13946990D02*
X20480884Y-13899371D01*
X20480884Y-13899371D02*
X20433265Y-13804133D01*
X20433265Y-13804133D02*
X20433265Y-13708895D01*
X20433265Y-13708895D02*
X20480884Y-13613657D01*
X20480884Y-13613657D02*
X20528503Y-13566038D01*
X20528503Y-13566038D02*
X20623741Y-13518419D01*
X20623741Y-13518419D02*
X20861836Y-13518419D01*
X20861836Y-13518419D02*
X21004693Y-13566038D01*
X22147550Y-13470800D02*
X21290408Y-14756514D01*
X22433265Y-13613657D02*
X22480884Y-13566038D01*
X22480884Y-13566038D02*
X22576122Y-13518419D01*
X22576122Y-13518419D02*
X22814217Y-13518419D01*
X22814217Y-13518419D02*
X22909455Y-13566038D01*
X22909455Y-13566038D02*
X22957074Y-13613657D01*
X22957074Y-13613657D02*
X23004693Y-13708895D01*
X23004693Y-13708895D02*
X23004693Y-13804133D01*
X23004693Y-13804133D02*
X22957074Y-13946990D01*
X22957074Y-13946990D02*
X22385646Y-14518419D01*
X22385646Y-14518419D02*
X23004693Y-14518419D01*
X24195170Y-14518419D02*
X24195170Y-13851752D01*
X24195170Y-13946990D02*
X24242789Y-13899371D01*
X24242789Y-13899371D02*
X24338027Y-13851752D01*
X24338027Y-13851752D02*
X24480884Y-13851752D01*
X24480884Y-13851752D02*
X24576122Y-13899371D01*
X24576122Y-13899371D02*
X24623741Y-13994609D01*
X24623741Y-13994609D02*
X24623741Y-14518419D01*
X24623741Y-13994609D02*
X24671360Y-13899371D01*
X24671360Y-13899371D02*
X24766598Y-13851752D01*
X24766598Y-13851752D02*
X24909455Y-13851752D01*
X24909455Y-13851752D02*
X25004694Y-13899371D01*
X25004694Y-13899371D02*
X25052313Y-13994609D01*
X25052313Y-13994609D02*
X25052313Y-14518419D01*
X25671360Y-14518419D02*
X25576122Y-14470800D01*
X25576122Y-14470800D02*
X25528503Y-14423180D01*
X25528503Y-14423180D02*
X25480884Y-14327942D01*
X25480884Y-14327942D02*
X25480884Y-14042228D01*
X25480884Y-14042228D02*
X25528503Y-13946990D01*
X25528503Y-13946990D02*
X25576122Y-13899371D01*
X25576122Y-13899371D02*
X25671360Y-13851752D01*
X25671360Y-13851752D02*
X25814217Y-13851752D01*
X25814217Y-13851752D02*
X25909455Y-13899371D01*
X25909455Y-13899371D02*
X25957074Y-13946990D01*
X25957074Y-13946990D02*
X26004693Y-14042228D01*
X26004693Y-14042228D02*
X26004693Y-14327942D01*
X26004693Y-14327942D02*
X25957074Y-14423180D01*
X25957074Y-14423180D02*
X25909455Y-14470800D01*
X25909455Y-14470800D02*
X25814217Y-14518419D01*
X25814217Y-14518419D02*
X25671360Y-14518419D01*
X26861836Y-13851752D02*
X26861836Y-14518419D01*
X26433265Y-13851752D02*
X26433265Y-14375561D01*
X26433265Y-14375561D02*
X26480884Y-14470800D01*
X26480884Y-14470800D02*
X26576122Y-14518419D01*
X26576122Y-14518419D02*
X26718979Y-14518419D01*
X26718979Y-14518419D02*
X26814217Y-14470800D01*
X26814217Y-14470800D02*
X26861836Y-14423180D01*
X27290408Y-14470800D02*
X27385646Y-14518419D01*
X27385646Y-14518419D02*
X27576122Y-14518419D01*
X27576122Y-14518419D02*
X27671360Y-14470800D01*
X27671360Y-14470800D02*
X27718979Y-14375561D01*
X27718979Y-14375561D02*
X27718979Y-14327942D01*
X27718979Y-14327942D02*
X27671360Y-14232704D01*
X27671360Y-14232704D02*
X27576122Y-14185085D01*
X27576122Y-14185085D02*
X27433265Y-14185085D01*
X27433265Y-14185085D02*
X27338027Y-14137466D01*
X27338027Y-14137466D02*
X27290408Y-14042228D01*
X27290408Y-14042228D02*
X27290408Y-13994609D01*
X27290408Y-13994609D02*
X27338027Y-13899371D01*
X27338027Y-13899371D02*
X27433265Y-13851752D01*
X27433265Y-13851752D02*
X27576122Y-13851752D01*
X27576122Y-13851752D02*
X27671360Y-13899371D01*
X28528503Y-14470800D02*
X28433265Y-14518419D01*
X28433265Y-14518419D02*
X28242789Y-14518419D01*
X28242789Y-14518419D02*
X28147551Y-14470800D01*
X28147551Y-14470800D02*
X28099932Y-14375561D01*
X28099932Y-14375561D02*
X28099932Y-13994609D01*
X28099932Y-13994609D02*
X28147551Y-13899371D01*
X28147551Y-13899371D02*
X28242789Y-13851752D01*
X28242789Y-13851752D02*
X28433265Y-13851752D01*
X28433265Y-13851752D02*
X28528503Y-13899371D01*
X28528503Y-13899371D02*
X28576122Y-13994609D01*
X28576122Y-13994609D02*
X28576122Y-14089847D01*
X28576122Y-14089847D02*
X28099932Y-14185085D01*
X29623742Y-13851752D02*
X30004694Y-13851752D01*
X29766599Y-13518419D02*
X29766599Y-14375561D01*
X29766599Y-14375561D02*
X29814218Y-14470800D01*
X29814218Y-14470800D02*
X29909456Y-14518419D01*
X29909456Y-14518419D02*
X30004694Y-14518419D01*
X30480885Y-14518419D02*
X30385647Y-14470800D01*
X30385647Y-14470800D02*
X30338028Y-14423180D01*
X30338028Y-14423180D02*
X30290409Y-14327942D01*
X30290409Y-14327942D02*
X30290409Y-14042228D01*
X30290409Y-14042228D02*
X30338028Y-13946990D01*
X30338028Y-13946990D02*
X30385647Y-13899371D01*
X30385647Y-13899371D02*
X30480885Y-13851752D01*
X30480885Y-13851752D02*
X30623742Y-13851752D01*
X30623742Y-13851752D02*
X30718980Y-13899371D01*
X30718980Y-13899371D02*
X30766599Y-13946990D01*
X30766599Y-13946990D02*
X30814218Y-14042228D01*
X30814218Y-14042228D02*
X30814218Y-14327942D01*
X30814218Y-14327942D02*
X30766599Y-14423180D01*
X30766599Y-14423180D02*
X30718980Y-14470800D01*
X30718980Y-14470800D02*
X30623742Y-14518419D01*
X30623742Y-14518419D02*
X30480885Y-14518419D01*
X31957076Y-14470800D02*
X32052314Y-14518419D01*
X32052314Y-14518419D02*
X32242790Y-14518419D01*
X32242790Y-14518419D02*
X32338028Y-14470800D01*
X32338028Y-14470800D02*
X32385647Y-14375561D01*
X32385647Y-14375561D02*
X32385647Y-14327942D01*
X32385647Y-14327942D02*
X32338028Y-14232704D01*
X32338028Y-14232704D02*
X32242790Y-14185085D01*
X32242790Y-14185085D02*
X32099933Y-14185085D01*
X32099933Y-14185085D02*
X32004695Y-14137466D01*
X32004695Y-14137466D02*
X31957076Y-14042228D01*
X31957076Y-14042228D02*
X31957076Y-13994609D01*
X31957076Y-13994609D02*
X32004695Y-13899371D01*
X32004695Y-13899371D02*
X32099933Y-13851752D01*
X32099933Y-13851752D02*
X32242790Y-13851752D01*
X32242790Y-13851752D02*
X32338028Y-13899371D01*
X33195171Y-14470800D02*
X33099933Y-14518419D01*
X33099933Y-14518419D02*
X32909457Y-14518419D01*
X32909457Y-14518419D02*
X32814219Y-14470800D01*
X32814219Y-14470800D02*
X32766600Y-14375561D01*
X32766600Y-14375561D02*
X32766600Y-13994609D01*
X32766600Y-13994609D02*
X32814219Y-13899371D01*
X32814219Y-13899371D02*
X32909457Y-13851752D01*
X32909457Y-13851752D02*
X33099933Y-13851752D01*
X33099933Y-13851752D02*
X33195171Y-13899371D01*
X33195171Y-13899371D02*
X33242790Y-13994609D01*
X33242790Y-13994609D02*
X33242790Y-14089847D01*
X33242790Y-14089847D02*
X32766600Y-14185085D01*
X33671362Y-14518419D02*
X33671362Y-13851752D01*
X33671362Y-14042228D02*
X33718981Y-13946990D01*
X33718981Y-13946990D02*
X33766600Y-13899371D01*
X33766600Y-13899371D02*
X33861838Y-13851752D01*
X33861838Y-13851752D02*
X33957076Y-13851752D01*
X34290410Y-14518419D02*
X34290410Y-13851752D01*
X34290410Y-13518419D02*
X34242791Y-13566038D01*
X34242791Y-13566038D02*
X34290410Y-13613657D01*
X34290410Y-13613657D02*
X34338029Y-13566038D01*
X34338029Y-13566038D02*
X34290410Y-13518419D01*
X34290410Y-13518419D02*
X34290410Y-13613657D01*
X35195171Y-14518419D02*
X35195171Y-13994609D01*
X35195171Y-13994609D02*
X35147552Y-13899371D01*
X35147552Y-13899371D02*
X35052314Y-13851752D01*
X35052314Y-13851752D02*
X34861838Y-13851752D01*
X34861838Y-13851752D02*
X34766600Y-13899371D01*
X35195171Y-14470800D02*
X35099933Y-14518419D01*
X35099933Y-14518419D02*
X34861838Y-14518419D01*
X34861838Y-14518419D02*
X34766600Y-14470800D01*
X34766600Y-14470800D02*
X34718981Y-14375561D01*
X34718981Y-14375561D02*
X34718981Y-14280323D01*
X34718981Y-14280323D02*
X34766600Y-14185085D01*
X34766600Y-14185085D02*
X34861838Y-14137466D01*
X34861838Y-14137466D02*
X35099933Y-14137466D01*
X35099933Y-14137466D02*
X35195171Y-14089847D01*
X35814219Y-14518419D02*
X35718981Y-14470800D01*
X35718981Y-14470800D02*
X35671362Y-14375561D01*
X35671362Y-14375561D02*
X35671362Y-13518419D01*
X36957077Y-13851752D02*
X36957077Y-14851752D01*
X36957077Y-13899371D02*
X37052315Y-13851752D01*
X37052315Y-13851752D02*
X37242791Y-13851752D01*
X37242791Y-13851752D02*
X37338029Y-13899371D01*
X37338029Y-13899371D02*
X37385648Y-13946990D01*
X37385648Y-13946990D02*
X37433267Y-14042228D01*
X37433267Y-14042228D02*
X37433267Y-14327942D01*
X37433267Y-14327942D02*
X37385648Y-14423180D01*
X37385648Y-14423180D02*
X37338029Y-14470800D01*
X37338029Y-14470800D02*
X37242791Y-14518419D01*
X37242791Y-14518419D02*
X37052315Y-14518419D01*
X37052315Y-14518419D02*
X36957077Y-14470800D01*
X38004696Y-14518419D02*
X37909458Y-14470800D01*
X37909458Y-14470800D02*
X37861839Y-14423180D01*
X37861839Y-14423180D02*
X37814220Y-14327942D01*
X37814220Y-14327942D02*
X37814220Y-14042228D01*
X37814220Y-14042228D02*
X37861839Y-13946990D01*
X37861839Y-13946990D02*
X37909458Y-13899371D01*
X37909458Y-13899371D02*
X38004696Y-13851752D01*
X38004696Y-13851752D02*
X38147553Y-13851752D01*
X38147553Y-13851752D02*
X38242791Y-13899371D01*
X38242791Y-13899371D02*
X38290410Y-13946990D01*
X38290410Y-13946990D02*
X38338029Y-14042228D01*
X38338029Y-14042228D02*
X38338029Y-14327942D01*
X38338029Y-14327942D02*
X38290410Y-14423180D01*
X38290410Y-14423180D02*
X38242791Y-14470800D01*
X38242791Y-14470800D02*
X38147553Y-14518419D01*
X38147553Y-14518419D02*
X38004696Y-14518419D01*
X38766601Y-14518419D02*
X38766601Y-13851752D01*
X38766601Y-14042228D02*
X38814220Y-13946990D01*
X38814220Y-13946990D02*
X38861839Y-13899371D01*
X38861839Y-13899371D02*
X38957077Y-13851752D01*
X38957077Y-13851752D02*
X39052315Y-13851752D01*
X39242792Y-13851752D02*
X39623744Y-13851752D01*
X39385649Y-13518419D02*
X39385649Y-14375561D01*
X39385649Y-14375561D02*
X39433268Y-14470800D01*
X39433268Y-14470800D02*
X39528506Y-14518419D01*
X39528506Y-14518419D02*
X39623744Y-14518419D01*
X41147554Y-14518419D02*
X41147554Y-13994609D01*
X41147554Y-13994609D02*
X41099935Y-13899371D01*
X41099935Y-13899371D02*
X41004697Y-13851752D01*
X41004697Y-13851752D02*
X40814221Y-13851752D01*
X40814221Y-13851752D02*
X40718983Y-13899371D01*
X41147554Y-14470800D02*
X41052316Y-14518419D01*
X41052316Y-14518419D02*
X40814221Y-14518419D01*
X40814221Y-14518419D02*
X40718983Y-14470800D01*
X40718983Y-14470800D02*
X40671364Y-14375561D01*
X40671364Y-14375561D02*
X40671364Y-14280323D01*
X40671364Y-14280323D02*
X40718983Y-14185085D01*
X40718983Y-14185085D02*
X40814221Y-14137466D01*
X40814221Y-14137466D02*
X41052316Y-14137466D01*
X41052316Y-14137466D02*
X41147554Y-14089847D01*
X42052316Y-14518419D02*
X42052316Y-13518419D01*
X42052316Y-14470800D02*
X41957078Y-14518419D01*
X41957078Y-14518419D02*
X41766602Y-14518419D01*
X41766602Y-14518419D02*
X41671364Y-14470800D01*
X41671364Y-14470800D02*
X41623745Y-14423180D01*
X41623745Y-14423180D02*
X41576126Y-14327942D01*
X41576126Y-14327942D02*
X41576126Y-14042228D01*
X41576126Y-14042228D02*
X41623745Y-13946990D01*
X41623745Y-13946990D02*
X41671364Y-13899371D01*
X41671364Y-13899371D02*
X41766602Y-13851752D01*
X41766602Y-13851752D02*
X41957078Y-13851752D01*
X41957078Y-13851752D02*
X42052316Y-13899371D01*
X42957078Y-14518419D02*
X42957078Y-13994609D01*
X42957078Y-13994609D02*
X42909459Y-13899371D01*
X42909459Y-13899371D02*
X42814221Y-13851752D01*
X42814221Y-13851752D02*
X42623745Y-13851752D01*
X42623745Y-13851752D02*
X42528507Y-13899371D01*
X42957078Y-14470800D02*
X42861840Y-14518419D01*
X42861840Y-14518419D02*
X42623745Y-14518419D01*
X42623745Y-14518419D02*
X42528507Y-14470800D01*
X42528507Y-14470800D02*
X42480888Y-14375561D01*
X42480888Y-14375561D02*
X42480888Y-14280323D01*
X42480888Y-14280323D02*
X42528507Y-14185085D01*
X42528507Y-14185085D02*
X42623745Y-14137466D01*
X42623745Y-14137466D02*
X42861840Y-14137466D01*
X42861840Y-14137466D02*
X42957078Y-14089847D01*
X43433269Y-13851752D02*
X43433269Y-14851752D01*
X43433269Y-13899371D02*
X43528507Y-13851752D01*
X43528507Y-13851752D02*
X43718983Y-13851752D01*
X43718983Y-13851752D02*
X43814221Y-13899371D01*
X43814221Y-13899371D02*
X43861840Y-13946990D01*
X43861840Y-13946990D02*
X43909459Y-14042228D01*
X43909459Y-14042228D02*
X43909459Y-14327942D01*
X43909459Y-14327942D02*
X43861840Y-14423180D01*
X43861840Y-14423180D02*
X43814221Y-14470800D01*
X43814221Y-14470800D02*
X43718983Y-14518419D01*
X43718983Y-14518419D02*
X43528507Y-14518419D01*
X43528507Y-14518419D02*
X43433269Y-14470800D01*
X44195174Y-13851752D02*
X44576126Y-13851752D01*
X44338031Y-13518419D02*
X44338031Y-14375561D01*
X44338031Y-14375561D02*
X44385650Y-14470800D01*
X44385650Y-14470800D02*
X44480888Y-14518419D01*
X44480888Y-14518419D02*
X44576126Y-14518419D01*
X45290412Y-14470800D02*
X45195174Y-14518419D01*
X45195174Y-14518419D02*
X45004698Y-14518419D01*
X45004698Y-14518419D02*
X44909460Y-14470800D01*
X44909460Y-14470800D02*
X44861841Y-14375561D01*
X44861841Y-14375561D02*
X44861841Y-13994609D01*
X44861841Y-13994609D02*
X44909460Y-13899371D01*
X44909460Y-13899371D02*
X45004698Y-13851752D01*
X45004698Y-13851752D02*
X45195174Y-13851752D01*
X45195174Y-13851752D02*
X45290412Y-13899371D01*
X45290412Y-13899371D02*
X45338031Y-13994609D01*
X45338031Y-13994609D02*
X45338031Y-14089847D01*
X45338031Y-14089847D02*
X44861841Y-14185085D01*
X45766603Y-14518419D02*
X45766603Y-13851752D01*
X45766603Y-14042228D02*
X45814222Y-13946990D01*
X45814222Y-13946990D02*
X45861841Y-13899371D01*
X45861841Y-13899371D02*
X45957079Y-13851752D01*
X45957079Y-13851752D02*
X46052317Y-13851752D01*
X47433270Y-14851752D02*
X47195175Y-14851752D01*
X47195175Y-14851752D02*
X47195175Y-13423180D01*
X47195175Y-13423180D02*
X47433270Y-13423180D01*
X47814223Y-14518419D02*
X47814223Y-13518419D01*
X47814223Y-13518419D02*
X48195175Y-13518419D01*
X48195175Y-13518419D02*
X48290413Y-13566038D01*
X48290413Y-13566038D02*
X48338032Y-13613657D01*
X48338032Y-13613657D02*
X48385651Y-13708895D01*
X48385651Y-13708895D02*
X48385651Y-13851752D01*
X48385651Y-13851752D02*
X48338032Y-13946990D01*
X48338032Y-13946990D02*
X48290413Y-13994609D01*
X48290413Y-13994609D02*
X48195175Y-14042228D01*
X48195175Y-14042228D02*
X47814223Y-14042228D01*
X49385651Y-14423180D02*
X49338032Y-14470800D01*
X49338032Y-14470800D02*
X49195175Y-14518419D01*
X49195175Y-14518419D02*
X49099937Y-14518419D01*
X49099937Y-14518419D02*
X48957080Y-14470800D01*
X48957080Y-14470800D02*
X48861842Y-14375561D01*
X48861842Y-14375561D02*
X48814223Y-14280323D01*
X48814223Y-14280323D02*
X48766604Y-14089847D01*
X48766604Y-14089847D02*
X48766604Y-13946990D01*
X48766604Y-13946990D02*
X48814223Y-13756514D01*
X48814223Y-13756514D02*
X48861842Y-13661276D01*
X48861842Y-13661276D02*
X48957080Y-13566038D01*
X48957080Y-13566038D02*
X49099937Y-13518419D01*
X49099937Y-13518419D02*
X49195175Y-13518419D01*
X49195175Y-13518419D02*
X49338032Y-13566038D01*
X49338032Y-13566038D02*
X49385651Y-13613657D01*
X50147556Y-13994609D02*
X50290413Y-14042228D01*
X50290413Y-14042228D02*
X50338032Y-14089847D01*
X50338032Y-14089847D02*
X50385651Y-14185085D01*
X50385651Y-14185085D02*
X50385651Y-14327942D01*
X50385651Y-14327942D02*
X50338032Y-14423180D01*
X50338032Y-14423180D02*
X50290413Y-14470800D01*
X50290413Y-14470800D02*
X50195175Y-14518419D01*
X50195175Y-14518419D02*
X49814223Y-14518419D01*
X49814223Y-14518419D02*
X49814223Y-13518419D01*
X49814223Y-13518419D02*
X50147556Y-13518419D01*
X50147556Y-13518419D02*
X50242794Y-13566038D01*
X50242794Y-13566038D02*
X50290413Y-13613657D01*
X50290413Y-13613657D02*
X50338032Y-13708895D01*
X50338032Y-13708895D02*
X50338032Y-13804133D01*
X50338032Y-13804133D02*
X50290413Y-13899371D01*
X50290413Y-13899371D02*
X50242794Y-13946990D01*
X50242794Y-13946990D02*
X50147556Y-13994609D01*
X50147556Y-13994609D02*
X49814223Y-13994609D01*
X51480890Y-13851752D02*
X51718985Y-14518419D01*
X51718985Y-14518419D02*
X51957080Y-13851752D01*
X52861842Y-14518419D02*
X52290414Y-14518419D01*
X52576128Y-14518419D02*
X52576128Y-13518419D01*
X52576128Y-13518419D02*
X52480890Y-13661276D01*
X52480890Y-13661276D02*
X52385652Y-13756514D01*
X52385652Y-13756514D02*
X52290414Y-13804133D01*
X53290414Y-14423180D02*
X53338033Y-14470800D01*
X53338033Y-14470800D02*
X53290414Y-14518419D01*
X53290414Y-14518419D02*
X53242795Y-14470800D01*
X53242795Y-14470800D02*
X53290414Y-14423180D01*
X53290414Y-14423180D02*
X53290414Y-14518419D01*
X53718985Y-13613657D02*
X53766604Y-13566038D01*
X53766604Y-13566038D02*
X53861842Y-13518419D01*
X53861842Y-13518419D02*
X54099937Y-13518419D01*
X54099937Y-13518419D02*
X54195175Y-13566038D01*
X54195175Y-13566038D02*
X54242794Y-13613657D01*
X54242794Y-13613657D02*
X54290413Y-13708895D01*
X54290413Y-13708895D02*
X54290413Y-13804133D01*
X54290413Y-13804133D02*
X54242794Y-13946990D01*
X54242794Y-13946990D02*
X53671366Y-14518419D01*
X53671366Y-14518419D02*
X54290413Y-14518419D01*
X54718985Y-14423180D02*
X54766604Y-14470800D01*
X54766604Y-14470800D02*
X54718985Y-14518419D01*
X54718985Y-14518419D02*
X54671366Y-14470800D01*
X54671366Y-14470800D02*
X54718985Y-14423180D01*
X54718985Y-14423180D02*
X54718985Y-14518419D01*
X55718984Y-14518419D02*
X55147556Y-14518419D01*
X55433270Y-14518419D02*
X55433270Y-13518419D01*
X55433270Y-13518419D02*
X55338032Y-13661276D01*
X55338032Y-13661276D02*
X55242794Y-13756514D01*
X55242794Y-13756514D02*
X55147556Y-13804133D01*
X56052318Y-14851752D02*
X56290413Y-14851752D01*
X56290413Y-14851752D02*
X56290413Y-13423180D01*
X56290413Y-13423180D02*
X56052318Y-13423180D01*
X19766598Y-16509371D02*
X19718979Y-16461752D01*
X19718979Y-16461752D02*
X19623741Y-16318895D01*
X19623741Y-16318895D02*
X19576122Y-16223657D01*
X19576122Y-16223657D02*
X19528503Y-16080800D01*
X19528503Y-16080800D02*
X19480884Y-15842704D01*
X19480884Y-15842704D02*
X19480884Y-15652228D01*
X19480884Y-15652228D02*
X19528503Y-15414133D01*
X19528503Y-15414133D02*
X19576122Y-15271276D01*
X19576122Y-15271276D02*
X19623741Y-15176038D01*
X19623741Y-15176038D02*
X19718979Y-15033180D01*
X19718979Y-15033180D02*
X19766598Y-14985561D01*
X20576122Y-16080800D02*
X20480884Y-16128419D01*
X20480884Y-16128419D02*
X20290408Y-16128419D01*
X20290408Y-16128419D02*
X20195170Y-16080800D01*
X20195170Y-16080800D02*
X20147551Y-16033180D01*
X20147551Y-16033180D02*
X20099932Y-15937942D01*
X20099932Y-15937942D02*
X20099932Y-15652228D01*
X20099932Y-15652228D02*
X20147551Y-15556990D01*
X20147551Y-15556990D02*
X20195170Y-15509371D01*
X20195170Y-15509371D02*
X20290408Y-15461752D01*
X20290408Y-15461752D02*
X20480884Y-15461752D01*
X20480884Y-15461752D02*
X20576122Y-15509371D01*
X20909456Y-16509371D02*
X20957075Y-16461752D01*
X20957075Y-16461752D02*
X21052313Y-16318895D01*
X21052313Y-16318895D02*
X21099932Y-16223657D01*
X21099932Y-16223657D02*
X21147551Y-16080800D01*
X21147551Y-16080800D02*
X21195170Y-15842704D01*
X21195170Y-15842704D02*
X21195170Y-15652228D01*
X21195170Y-15652228D02*
X21147551Y-15414133D01*
X21147551Y-15414133D02*
X21099932Y-15271276D01*
X21099932Y-15271276D02*
X21052313Y-15176038D01*
X21052313Y-15176038D02*
X20957075Y-15033180D01*
X20957075Y-15033180D02*
X20909456Y-14985561D01*
X21623742Y-15223657D02*
X21671361Y-15176038D01*
X21671361Y-15176038D02*
X21766599Y-15128419D01*
X21766599Y-15128419D02*
X22004694Y-15128419D01*
X22004694Y-15128419D02*
X22099932Y-15176038D01*
X22099932Y-15176038D02*
X22147551Y-15223657D01*
X22147551Y-15223657D02*
X22195170Y-15318895D01*
X22195170Y-15318895D02*
X22195170Y-15414133D01*
X22195170Y-15414133D02*
X22147551Y-15556990D01*
X22147551Y-15556990D02*
X21576123Y-16128419D01*
X21576123Y-16128419D02*
X22195170Y-16128419D01*
X22814218Y-15128419D02*
X22909456Y-15128419D01*
X22909456Y-15128419D02*
X23004694Y-15176038D01*
X23004694Y-15176038D02*
X23052313Y-15223657D01*
X23052313Y-15223657D02*
X23099932Y-15318895D01*
X23099932Y-15318895D02*
X23147551Y-15509371D01*
X23147551Y-15509371D02*
X23147551Y-15747466D01*
X23147551Y-15747466D02*
X23099932Y-15937942D01*
X23099932Y-15937942D02*
X23052313Y-16033180D01*
X23052313Y-16033180D02*
X23004694Y-16080800D01*
X23004694Y-16080800D02*
X22909456Y-16128419D01*
X22909456Y-16128419D02*
X22814218Y-16128419D01*
X22814218Y-16128419D02*
X22718980Y-16080800D01*
X22718980Y-16080800D02*
X22671361Y-16033180D01*
X22671361Y-16033180D02*
X22623742Y-15937942D01*
X22623742Y-15937942D02*
X22576123Y-15747466D01*
X22576123Y-15747466D02*
X22576123Y-15509371D01*
X22576123Y-15509371D02*
X22623742Y-15318895D01*
X22623742Y-15318895D02*
X22671361Y-15223657D01*
X22671361Y-15223657D02*
X22718980Y-15176038D01*
X22718980Y-15176038D02*
X22814218Y-15128419D01*
X23528504Y-15223657D02*
X23576123Y-15176038D01*
X23576123Y-15176038D02*
X23671361Y-15128419D01*
X23671361Y-15128419D02*
X23909456Y-15128419D01*
X23909456Y-15128419D02*
X24004694Y-15176038D01*
X24004694Y-15176038D02*
X24052313Y-15223657D01*
X24052313Y-15223657D02*
X24099932Y-15318895D01*
X24099932Y-15318895D02*
X24099932Y-15414133D01*
X24099932Y-15414133D02*
X24052313Y-15556990D01*
X24052313Y-15556990D02*
X23480885Y-16128419D01*
X23480885Y-16128419D02*
X24099932Y-16128419D01*
X24433266Y-15128419D02*
X25052313Y-15128419D01*
X25052313Y-15128419D02*
X24718980Y-15509371D01*
X24718980Y-15509371D02*
X24861837Y-15509371D01*
X24861837Y-15509371D02*
X24957075Y-15556990D01*
X24957075Y-15556990D02*
X25004694Y-15604609D01*
X25004694Y-15604609D02*
X25052313Y-15699847D01*
X25052313Y-15699847D02*
X25052313Y-15937942D01*
X25052313Y-15937942D02*
X25004694Y-16033180D01*
X25004694Y-16033180D02*
X24957075Y-16080800D01*
X24957075Y-16080800D02*
X24861837Y-16128419D01*
X24861837Y-16128419D02*
X24576123Y-16128419D01*
X24576123Y-16128419D02*
X24480885Y-16080800D01*
X24480885Y-16080800D02*
X24433266Y-16033180D01*
X26242790Y-16128419D02*
X26242790Y-15128419D01*
X26242790Y-15509371D02*
X26338028Y-15461752D01*
X26338028Y-15461752D02*
X26528504Y-15461752D01*
X26528504Y-15461752D02*
X26623742Y-15509371D01*
X26623742Y-15509371D02*
X26671361Y-15556990D01*
X26671361Y-15556990D02*
X26718980Y-15652228D01*
X26718980Y-15652228D02*
X26718980Y-15937942D01*
X26718980Y-15937942D02*
X26671361Y-16033180D01*
X26671361Y-16033180D02*
X26623742Y-16080800D01*
X26623742Y-16080800D02*
X26528504Y-16128419D01*
X26528504Y-16128419D02*
X26338028Y-16128419D01*
X26338028Y-16128419D02*
X26242790Y-16080800D01*
X27052314Y-15461752D02*
X27290409Y-16128419D01*
X27528504Y-15461752D02*
X27290409Y-16128419D01*
X27290409Y-16128419D02*
X27195171Y-16366514D01*
X27195171Y-16366514D02*
X27147552Y-16414133D01*
X27147552Y-16414133D02*
X27052314Y-16461752D01*
X29242790Y-16033180D02*
X29195171Y-16080800D01*
X29195171Y-16080800D02*
X29052314Y-16128419D01*
X29052314Y-16128419D02*
X28957076Y-16128419D01*
X28957076Y-16128419D02*
X28814219Y-16080800D01*
X28814219Y-16080800D02*
X28718981Y-15985561D01*
X28718981Y-15985561D02*
X28671362Y-15890323D01*
X28671362Y-15890323D02*
X28623743Y-15699847D01*
X28623743Y-15699847D02*
X28623743Y-15556990D01*
X28623743Y-15556990D02*
X28671362Y-15366514D01*
X28671362Y-15366514D02*
X28718981Y-15271276D01*
X28718981Y-15271276D02*
X28814219Y-15176038D01*
X28814219Y-15176038D02*
X28957076Y-15128419D01*
X28957076Y-15128419D02*
X29052314Y-15128419D01*
X29052314Y-15128419D02*
X29195171Y-15176038D01*
X29195171Y-15176038D02*
X29242790Y-15223657D01*
X30052314Y-16080800D02*
X29957076Y-16128419D01*
X29957076Y-16128419D02*
X29766600Y-16128419D01*
X29766600Y-16128419D02*
X29671362Y-16080800D01*
X29671362Y-16080800D02*
X29623743Y-15985561D01*
X29623743Y-15985561D02*
X29623743Y-15604609D01*
X29623743Y-15604609D02*
X29671362Y-15509371D01*
X29671362Y-15509371D02*
X29766600Y-15461752D01*
X29766600Y-15461752D02*
X29957076Y-15461752D01*
X29957076Y-15461752D02*
X30052314Y-15509371D01*
X30052314Y-15509371D02*
X30099933Y-15604609D01*
X30099933Y-15604609D02*
X30099933Y-15699847D01*
X30099933Y-15699847D02*
X29623743Y-15795085D01*
X30480886Y-16080800D02*
X30576124Y-16128419D01*
X30576124Y-16128419D02*
X30766600Y-16128419D01*
X30766600Y-16128419D02*
X30861838Y-16080800D01*
X30861838Y-16080800D02*
X30909457Y-15985561D01*
X30909457Y-15985561D02*
X30909457Y-15937942D01*
X30909457Y-15937942D02*
X30861838Y-15842704D01*
X30861838Y-15842704D02*
X30766600Y-15795085D01*
X30766600Y-15795085D02*
X30623743Y-15795085D01*
X30623743Y-15795085D02*
X30528505Y-15747466D01*
X30528505Y-15747466D02*
X30480886Y-15652228D01*
X30480886Y-15652228D02*
X30480886Y-15604609D01*
X30480886Y-15604609D02*
X30528505Y-15509371D01*
X30528505Y-15509371D02*
X30623743Y-15461752D01*
X30623743Y-15461752D02*
X30766600Y-15461752D01*
X30766600Y-15461752D02*
X30861838Y-15509371D01*
X31766600Y-16128419D02*
X31766600Y-15604609D01*
X31766600Y-15604609D02*
X31718981Y-15509371D01*
X31718981Y-15509371D02*
X31623743Y-15461752D01*
X31623743Y-15461752D02*
X31433267Y-15461752D01*
X31433267Y-15461752D02*
X31338029Y-15509371D01*
X31766600Y-16080800D02*
X31671362Y-16128419D01*
X31671362Y-16128419D02*
X31433267Y-16128419D01*
X31433267Y-16128419D02*
X31338029Y-16080800D01*
X31338029Y-16080800D02*
X31290410Y-15985561D01*
X31290410Y-15985561D02*
X31290410Y-15890323D01*
X31290410Y-15890323D02*
X31338029Y-15795085D01*
X31338029Y-15795085D02*
X31433267Y-15747466D01*
X31433267Y-15747466D02*
X31671362Y-15747466D01*
X31671362Y-15747466D02*
X31766600Y-15699847D01*
X32242791Y-16128419D02*
X32242791Y-15461752D01*
X32242791Y-15652228D02*
X32290410Y-15556990D01*
X32290410Y-15556990D02*
X32338029Y-15509371D01*
X32338029Y-15509371D02*
X32433267Y-15461752D01*
X32433267Y-15461752D02*
X32528505Y-15461752D01*
X34195172Y-16128419D02*
X33861839Y-15652228D01*
X33623744Y-16128419D02*
X33623744Y-15128419D01*
X33623744Y-15128419D02*
X34004696Y-15128419D01*
X34004696Y-15128419D02*
X34099934Y-15176038D01*
X34099934Y-15176038D02*
X34147553Y-15223657D01*
X34147553Y-15223657D02*
X34195172Y-15318895D01*
X34195172Y-15318895D02*
X34195172Y-15461752D01*
X34195172Y-15461752D02*
X34147553Y-15556990D01*
X34147553Y-15556990D02*
X34099934Y-15604609D01*
X34099934Y-15604609D02*
X34004696Y-15652228D01*
X34004696Y-15652228D02*
X33623744Y-15652228D01*
X34623744Y-16128419D02*
X34623744Y-15461752D01*
X34623744Y-15128419D02*
X34576125Y-15176038D01*
X34576125Y-15176038D02*
X34623744Y-15223657D01*
X34623744Y-15223657D02*
X34671363Y-15176038D01*
X34671363Y-15176038D02*
X34623744Y-15128419D01*
X34623744Y-15128419D02*
X34623744Y-15223657D01*
X35099934Y-15461752D02*
X35099934Y-16128419D01*
X35099934Y-15556990D02*
X35147553Y-15509371D01*
X35147553Y-15509371D02*
X35242791Y-15461752D01*
X35242791Y-15461752D02*
X35385648Y-15461752D01*
X35385648Y-15461752D02*
X35480886Y-15509371D01*
X35480886Y-15509371D02*
X35528505Y-15604609D01*
X35528505Y-15604609D02*
X35528505Y-16128419D01*
X36433267Y-16080800D02*
X36338029Y-16128419D01*
X36338029Y-16128419D02*
X36147553Y-16128419D01*
X36147553Y-16128419D02*
X36052315Y-16080800D01*
X36052315Y-16080800D02*
X36004696Y-16033180D01*
X36004696Y-16033180D02*
X35957077Y-15937942D01*
X35957077Y-15937942D02*
X35957077Y-15652228D01*
X35957077Y-15652228D02*
X36004696Y-15556990D01*
X36004696Y-15556990D02*
X36052315Y-15509371D01*
X36052315Y-15509371D02*
X36147553Y-15461752D01*
X36147553Y-15461752D02*
X36338029Y-15461752D01*
X36338029Y-15461752D02*
X36433267Y-15509371D01*
X37004696Y-16128419D02*
X36909458Y-16080800D01*
X36909458Y-16080800D02*
X36861839Y-16033180D01*
X36861839Y-16033180D02*
X36814220Y-15937942D01*
X36814220Y-15937942D02*
X36814220Y-15652228D01*
X36814220Y-15652228D02*
X36861839Y-15556990D01*
X36861839Y-15556990D02*
X36909458Y-15509371D01*
X36909458Y-15509371D02*
X37004696Y-15461752D01*
X37004696Y-15461752D02*
X37147553Y-15461752D01*
X37147553Y-15461752D02*
X37242791Y-15509371D01*
X37242791Y-15509371D02*
X37290410Y-15556990D01*
X37290410Y-15556990D02*
X37338029Y-15652228D01*
X37338029Y-15652228D02*
X37338029Y-15937942D01*
X37338029Y-15937942D02*
X37290410Y-16033180D01*
X37290410Y-16033180D02*
X37242791Y-16080800D01*
X37242791Y-16080800D02*
X37147553Y-16128419D01*
X37147553Y-16128419D02*
X37004696Y-16128419D01*
X37766601Y-15461752D02*
X37766601Y-16128419D01*
X37766601Y-15556990D02*
X37814220Y-15509371D01*
X37814220Y-15509371D02*
X37909458Y-15461752D01*
X37909458Y-15461752D02*
X38052315Y-15461752D01*
X38052315Y-15461752D02*
X38147553Y-15509371D01*
X38147553Y-15509371D02*
X38195172Y-15604609D01*
X38195172Y-15604609D02*
X38195172Y-16128419D01*
X42480888Y-15461752D02*
X42480888Y-16128419D01*
X42480888Y-15556990D02*
X42528507Y-15509371D01*
X42528507Y-15509371D02*
X42623745Y-15461752D01*
X42623745Y-15461752D02*
X42766602Y-15461752D01*
X42766602Y-15461752D02*
X42861840Y-15509371D01*
X42861840Y-15509371D02*
X42909459Y-15604609D01*
X42909459Y-15604609D02*
X42909459Y-16128419D01*
X43385650Y-16128419D02*
X43385650Y-15461752D01*
X43385650Y-15128419D02*
X43338031Y-15176038D01*
X43338031Y-15176038D02*
X43385650Y-15223657D01*
X43385650Y-15223657D02*
X43433269Y-15176038D01*
X43433269Y-15176038D02*
X43385650Y-15128419D01*
X43385650Y-15128419D02*
X43385650Y-15223657D01*
X44290411Y-15461752D02*
X44290411Y-16271276D01*
X44290411Y-16271276D02*
X44242792Y-16366514D01*
X44242792Y-16366514D02*
X44195173Y-16414133D01*
X44195173Y-16414133D02*
X44099935Y-16461752D01*
X44099935Y-16461752D02*
X43957078Y-16461752D01*
X43957078Y-16461752D02*
X43861840Y-16414133D01*
X44290411Y-16080800D02*
X44195173Y-16128419D01*
X44195173Y-16128419D02*
X44004697Y-16128419D01*
X44004697Y-16128419D02*
X43909459Y-16080800D01*
X43909459Y-16080800D02*
X43861840Y-16033180D01*
X43861840Y-16033180D02*
X43814221Y-15937942D01*
X43814221Y-15937942D02*
X43814221Y-15652228D01*
X43814221Y-15652228D02*
X43861840Y-15556990D01*
X43861840Y-15556990D02*
X43909459Y-15509371D01*
X43909459Y-15509371D02*
X44004697Y-15461752D01*
X44004697Y-15461752D02*
X44195173Y-15461752D01*
X44195173Y-15461752D02*
X44290411Y-15509371D01*
X44766602Y-16128419D02*
X44766602Y-15128419D01*
X45195173Y-16128419D02*
X45195173Y-15604609D01*
X45195173Y-15604609D02*
X45147554Y-15509371D01*
X45147554Y-15509371D02*
X45052316Y-15461752D01*
X45052316Y-15461752D02*
X44909459Y-15461752D01*
X44909459Y-15461752D02*
X44814221Y-15509371D01*
X44814221Y-15509371D02*
X44766602Y-15556990D01*
X45528507Y-15461752D02*
X45909459Y-15461752D01*
X45671364Y-15128419D02*
X45671364Y-15985561D01*
X45671364Y-15985561D02*
X45718983Y-16080800D01*
X45718983Y-16080800D02*
X45814221Y-16128419D01*
X45814221Y-16128419D02*
X45909459Y-16128419D01*
X46099936Y-15461752D02*
X46480888Y-15461752D01*
X46242793Y-16128419D02*
X46242793Y-15271276D01*
X46242793Y-15271276D02*
X46290412Y-15176038D01*
X46290412Y-15176038D02*
X46385650Y-15128419D01*
X46385650Y-15128419D02*
X46480888Y-15128419D01*
X46957079Y-16128419D02*
X46861841Y-16080800D01*
X46861841Y-16080800D02*
X46814222Y-16033180D01*
X46814222Y-16033180D02*
X46766603Y-15937942D01*
X46766603Y-15937942D02*
X46766603Y-15652228D01*
X46766603Y-15652228D02*
X46814222Y-15556990D01*
X46814222Y-15556990D02*
X46861841Y-15509371D01*
X46861841Y-15509371D02*
X46957079Y-15461752D01*
X46957079Y-15461752D02*
X47099936Y-15461752D01*
X47099936Y-15461752D02*
X47195174Y-15509371D01*
X47195174Y-15509371D02*
X47242793Y-15556990D01*
X47242793Y-15556990D02*
X47290412Y-15652228D01*
X47290412Y-15652228D02*
X47290412Y-15937942D01*
X47290412Y-15937942D02*
X47242793Y-16033180D01*
X47242793Y-16033180D02*
X47195174Y-16080800D01*
X47195174Y-16080800D02*
X47099936Y-16128419D01*
X47099936Y-16128419D02*
X46957079Y-16128419D01*
X47623746Y-16128419D02*
X48147555Y-15461752D01*
X47623746Y-15461752D02*
X48147555Y-16128419D01*
X48957079Y-16128419D02*
X48957079Y-15604609D01*
X48957079Y-15604609D02*
X48909460Y-15509371D01*
X48909460Y-15509371D02*
X48814222Y-15461752D01*
X48814222Y-15461752D02*
X48623746Y-15461752D01*
X48623746Y-15461752D02*
X48528508Y-15509371D01*
X48957079Y-16080800D02*
X48861841Y-16128419D01*
X48861841Y-16128419D02*
X48623746Y-16128419D01*
X48623746Y-16128419D02*
X48528508Y-16080800D01*
X48528508Y-16080800D02*
X48480889Y-15985561D01*
X48480889Y-15985561D02*
X48480889Y-15890323D01*
X48480889Y-15890323D02*
X48528508Y-15795085D01*
X48528508Y-15795085D02*
X48623746Y-15747466D01*
X48623746Y-15747466D02*
X48861841Y-15747466D01*
X48861841Y-15747466D02*
X48957079Y-15699847D01*
X49433270Y-15461752D02*
X49433270Y-16128419D01*
X49433270Y-15556990D02*
X49480889Y-15509371D01*
X49480889Y-15509371D02*
X49576127Y-15461752D01*
X49576127Y-15461752D02*
X49718984Y-15461752D01*
X49718984Y-15461752D02*
X49814222Y-15509371D01*
X49814222Y-15509371D02*
X49861841Y-15604609D01*
X49861841Y-15604609D02*
X49861841Y-16128419D01*
X50766603Y-16128419D02*
X50766603Y-15128419D01*
X50766603Y-16080800D02*
X50671365Y-16128419D01*
X50671365Y-16128419D02*
X50480889Y-16128419D01*
X50480889Y-16128419D02*
X50385651Y-16080800D01*
X50385651Y-16080800D02*
X50338032Y-16033180D01*
X50338032Y-16033180D02*
X50290413Y-15937942D01*
X50290413Y-15937942D02*
X50290413Y-15652228D01*
X50290413Y-15652228D02*
X50338032Y-15556990D01*
X50338032Y-15556990D02*
X50385651Y-15509371D01*
X50385651Y-15509371D02*
X50480889Y-15461752D01*
X50480889Y-15461752D02*
X50671365Y-15461752D01*
X50671365Y-15461752D02*
X50766603Y-15509371D01*
X51671365Y-16080800D02*
X51576127Y-16128419D01*
X51576127Y-16128419D02*
X51385651Y-16128419D01*
X51385651Y-16128419D02*
X51290413Y-16080800D01*
X51290413Y-16080800D02*
X51242794Y-16033180D01*
X51242794Y-16033180D02*
X51195175Y-15937942D01*
X51195175Y-15937942D02*
X51195175Y-15652228D01*
X51195175Y-15652228D02*
X51242794Y-15556990D01*
X51242794Y-15556990D02*
X51290413Y-15509371D01*
X51290413Y-15509371D02*
X51385651Y-15461752D01*
X51385651Y-15461752D02*
X51576127Y-15461752D01*
X51576127Y-15461752D02*
X51671365Y-15509371D01*
X52242794Y-16128419D02*
X52147556Y-16080800D01*
X52147556Y-16080800D02*
X52099937Y-16033180D01*
X52099937Y-16033180D02*
X52052318Y-15937942D01*
X52052318Y-15937942D02*
X52052318Y-15652228D01*
X52052318Y-15652228D02*
X52099937Y-15556990D01*
X52099937Y-15556990D02*
X52147556Y-15509371D01*
X52147556Y-15509371D02*
X52242794Y-15461752D01*
X52242794Y-15461752D02*
X52385651Y-15461752D01*
X52385651Y-15461752D02*
X52480889Y-15509371D01*
X52480889Y-15509371D02*
X52528508Y-15556990D01*
X52528508Y-15556990D02*
X52576127Y-15652228D01*
X52576127Y-15652228D02*
X52576127Y-15937942D01*
X52576127Y-15937942D02*
X52528508Y-16033180D01*
X52528508Y-16033180D02*
X52480889Y-16080800D01*
X52480889Y-16080800D02*
X52385651Y-16128419D01*
X52385651Y-16128419D02*
X52242794Y-16128419D01*
X53004699Y-16033180D02*
X53052318Y-16080800D01*
X53052318Y-16080800D02*
X53004699Y-16128419D01*
X53004699Y-16128419D02*
X52957080Y-16080800D01*
X52957080Y-16080800D02*
X53004699Y-16033180D01*
X53004699Y-16033180D02*
X53004699Y-16128419D01*
X53909460Y-16080800D02*
X53814222Y-16128419D01*
X53814222Y-16128419D02*
X53623746Y-16128419D01*
X53623746Y-16128419D02*
X53528508Y-16080800D01*
X53528508Y-16080800D02*
X53480889Y-16033180D01*
X53480889Y-16033180D02*
X53433270Y-15937942D01*
X53433270Y-15937942D02*
X53433270Y-15652228D01*
X53433270Y-15652228D02*
X53480889Y-15556990D01*
X53480889Y-15556990D02*
X53528508Y-15509371D01*
X53528508Y-15509371D02*
X53623746Y-15461752D01*
X53623746Y-15461752D02*
X53814222Y-15461752D01*
X53814222Y-15461752D02*
X53909460Y-15509371D01*
X54480889Y-16128419D02*
X54385651Y-16080800D01*
X54385651Y-16080800D02*
X54338032Y-16033180D01*
X54338032Y-16033180D02*
X54290413Y-15937942D01*
X54290413Y-15937942D02*
X54290413Y-15652228D01*
X54290413Y-15652228D02*
X54338032Y-15556990D01*
X54338032Y-15556990D02*
X54385651Y-15509371D01*
X54385651Y-15509371D02*
X54480889Y-15461752D01*
X54480889Y-15461752D02*
X54623746Y-15461752D01*
X54623746Y-15461752D02*
X54718984Y-15509371D01*
X54718984Y-15509371D02*
X54766603Y-15556990D01*
X54766603Y-15556990D02*
X54814222Y-15652228D01*
X54814222Y-15652228D02*
X54814222Y-15937942D01*
X54814222Y-15937942D02*
X54766603Y-16033180D01*
X54766603Y-16033180D02*
X54718984Y-16080800D01*
X54718984Y-16080800D02*
X54623746Y-16128419D01*
X54623746Y-16128419D02*
X54480889Y-16128419D01*
X55242794Y-16128419D02*
X55242794Y-15461752D01*
X55242794Y-15556990D02*
X55290413Y-15509371D01*
X55290413Y-15509371D02*
X55385651Y-15461752D01*
X55385651Y-15461752D02*
X55528508Y-15461752D01*
X55528508Y-15461752D02*
X55623746Y-15509371D01*
X55623746Y-15509371D02*
X55671365Y-15604609D01*
X55671365Y-15604609D02*
X55671365Y-16128419D01*
X55671365Y-15604609D02*
X55718984Y-15509371D01*
X55718984Y-15509371D02*
X55814222Y-15461752D01*
X55814222Y-15461752D02*
X55957079Y-15461752D01*
X55957079Y-15461752D02*
X56052318Y-15509371D01*
X56052318Y-15509371D02*
X56099937Y-15604609D01*
X56099937Y-15604609D02*
X56099937Y-16128419D01*
X23491646Y-26506419D02*
X24158312Y-26506419D01*
X24158312Y-26506419D02*
X23729741Y-27506419D01*
X93950905Y-35929419D02*
X93950905Y-34929419D01*
X93950905Y-34929419D02*
X94331857Y-34929419D01*
X94331857Y-34929419D02*
X94427095Y-34977038D01*
X94427095Y-34977038D02*
X94474714Y-35024657D01*
X94474714Y-35024657D02*
X94522333Y-35119895D01*
X94522333Y-35119895D02*
X94522333Y-35262752D01*
X94522333Y-35262752D02*
X94474714Y-35357990D01*
X94474714Y-35357990D02*
X94427095Y-35405609D01*
X94427095Y-35405609D02*
X94331857Y-35453228D01*
X94331857Y-35453228D02*
X93950905Y-35453228D01*
X94903286Y-35881800D02*
X95046143Y-35929419D01*
X95046143Y-35929419D02*
X95284238Y-35929419D01*
X95284238Y-35929419D02*
X95379476Y-35881800D01*
X95379476Y-35881800D02*
X95427095Y-35834180D01*
X95427095Y-35834180D02*
X95474714Y-35738942D01*
X95474714Y-35738942D02*
X95474714Y-35643704D01*
X95474714Y-35643704D02*
X95427095Y-35548466D01*
X95427095Y-35548466D02*
X95379476Y-35500847D01*
X95379476Y-35500847D02*
X95284238Y-35453228D01*
X95284238Y-35453228D02*
X95093762Y-35405609D01*
X95093762Y-35405609D02*
X94998524Y-35357990D01*
X94998524Y-35357990D02*
X94950905Y-35310371D01*
X94950905Y-35310371D02*
X94903286Y-35215133D01*
X94903286Y-35215133D02*
X94903286Y-35119895D01*
X94903286Y-35119895D02*
X94950905Y-35024657D01*
X94950905Y-35024657D02*
X94998524Y-34977038D01*
X94998524Y-34977038D02*
X95093762Y-34929419D01*
X95093762Y-34929419D02*
X95331857Y-34929419D01*
X95331857Y-34929419D02*
X95474714Y-34977038D01*
X96617571Y-34881800D02*
X95760429Y-36167514D01*
X96903286Y-35024657D02*
X96950905Y-34977038D01*
X96950905Y-34977038D02*
X97046143Y-34929419D01*
X97046143Y-34929419D02*
X97284238Y-34929419D01*
X97284238Y-34929419D02*
X97379476Y-34977038D01*
X97379476Y-34977038D02*
X97427095Y-35024657D01*
X97427095Y-35024657D02*
X97474714Y-35119895D01*
X97474714Y-35119895D02*
X97474714Y-35215133D01*
X97474714Y-35215133D02*
X97427095Y-35357990D01*
X97427095Y-35357990D02*
X96855667Y-35929419D01*
X96855667Y-35929419D02*
X97474714Y-35929419D01*
X99474715Y-35929419D02*
X99427096Y-35929419D01*
X99427096Y-35929419D02*
X99331857Y-35881800D01*
X99331857Y-35881800D02*
X99189000Y-35738942D01*
X99189000Y-35738942D02*
X98950905Y-35453228D01*
X98950905Y-35453228D02*
X98855667Y-35310371D01*
X98855667Y-35310371D02*
X98808048Y-35167514D01*
X98808048Y-35167514D02*
X98808048Y-35072276D01*
X98808048Y-35072276D02*
X98855667Y-34977038D01*
X98855667Y-34977038D02*
X98950905Y-34929419D01*
X98950905Y-34929419D02*
X98998524Y-34929419D01*
X98998524Y-34929419D02*
X99093762Y-34977038D01*
X99093762Y-34977038D02*
X99141381Y-35072276D01*
X99141381Y-35072276D02*
X99141381Y-35119895D01*
X99141381Y-35119895D02*
X99093762Y-35215133D01*
X99093762Y-35215133D02*
X99046143Y-35262752D01*
X99046143Y-35262752D02*
X98760429Y-35453228D01*
X98760429Y-35453228D02*
X98712810Y-35500847D01*
X98712810Y-35500847D02*
X98665191Y-35596085D01*
X98665191Y-35596085D02*
X98665191Y-35738942D01*
X98665191Y-35738942D02*
X98712810Y-35834180D01*
X98712810Y-35834180D02*
X98760429Y-35881800D01*
X98760429Y-35881800D02*
X98855667Y-35929419D01*
X98855667Y-35929419D02*
X98998524Y-35929419D01*
X98998524Y-35929419D02*
X99093762Y-35881800D01*
X99093762Y-35881800D02*
X99141381Y-35834180D01*
X99141381Y-35834180D02*
X99284238Y-35643704D01*
X99284238Y-35643704D02*
X99331857Y-35500847D01*
X99331857Y-35500847D02*
X99331857Y-35405609D01*
X93141380Y-36539419D02*
X93141380Y-37348942D01*
X93141380Y-37348942D02*
X93188999Y-37444180D01*
X93188999Y-37444180D02*
X93236618Y-37491800D01*
X93236618Y-37491800D02*
X93331856Y-37539419D01*
X93331856Y-37539419D02*
X93522332Y-37539419D01*
X93522332Y-37539419D02*
X93617570Y-37491800D01*
X93617570Y-37491800D02*
X93665189Y-37444180D01*
X93665189Y-37444180D02*
X93712808Y-37348942D01*
X93712808Y-37348942D02*
X93712808Y-36539419D01*
X94141380Y-37491800D02*
X94284237Y-37539419D01*
X94284237Y-37539419D02*
X94522332Y-37539419D01*
X94522332Y-37539419D02*
X94617570Y-37491800D01*
X94617570Y-37491800D02*
X94665189Y-37444180D01*
X94665189Y-37444180D02*
X94712808Y-37348942D01*
X94712808Y-37348942D02*
X94712808Y-37253704D01*
X94712808Y-37253704D02*
X94665189Y-37158466D01*
X94665189Y-37158466D02*
X94617570Y-37110847D01*
X94617570Y-37110847D02*
X94522332Y-37063228D01*
X94522332Y-37063228D02*
X94331856Y-37015609D01*
X94331856Y-37015609D02*
X94236618Y-36967990D01*
X94236618Y-36967990D02*
X94188999Y-36920371D01*
X94188999Y-36920371D02*
X94141380Y-36825133D01*
X94141380Y-36825133D02*
X94141380Y-36729895D01*
X94141380Y-36729895D02*
X94188999Y-36634657D01*
X94188999Y-36634657D02*
X94236618Y-36587038D01*
X94236618Y-36587038D02*
X94331856Y-36539419D01*
X94331856Y-36539419D02*
X94569951Y-36539419D01*
X94569951Y-36539419D02*
X94712808Y-36587038D01*
X95474713Y-37015609D02*
X95617570Y-37063228D01*
X95617570Y-37063228D02*
X95665189Y-37110847D01*
X95665189Y-37110847D02*
X95712808Y-37206085D01*
X95712808Y-37206085D02*
X95712808Y-37348942D01*
X95712808Y-37348942D02*
X95665189Y-37444180D01*
X95665189Y-37444180D02*
X95617570Y-37491800D01*
X95617570Y-37491800D02*
X95522332Y-37539419D01*
X95522332Y-37539419D02*
X95141380Y-37539419D01*
X95141380Y-37539419D02*
X95141380Y-36539419D01*
X95141380Y-36539419D02*
X95474713Y-36539419D01*
X95474713Y-36539419D02*
X95569951Y-36587038D01*
X95569951Y-36587038D02*
X95617570Y-36634657D01*
X95617570Y-36634657D02*
X95665189Y-36729895D01*
X95665189Y-36729895D02*
X95665189Y-36825133D01*
X95665189Y-36825133D02*
X95617570Y-36920371D01*
X95617570Y-36920371D02*
X95569951Y-36967990D01*
X95569951Y-36967990D02*
X95474713Y-37015609D01*
X95474713Y-37015609D02*
X95141380Y-37015609D01*
X96903285Y-36872752D02*
X96903285Y-37872752D01*
X96903285Y-36920371D02*
X96998523Y-36872752D01*
X96998523Y-36872752D02*
X97188999Y-36872752D01*
X97188999Y-36872752D02*
X97284237Y-36920371D01*
X97284237Y-36920371D02*
X97331856Y-36967990D01*
X97331856Y-36967990D02*
X97379475Y-37063228D01*
X97379475Y-37063228D02*
X97379475Y-37348942D01*
X97379475Y-37348942D02*
X97331856Y-37444180D01*
X97331856Y-37444180D02*
X97284237Y-37491800D01*
X97284237Y-37491800D02*
X97188999Y-37539419D01*
X97188999Y-37539419D02*
X96998523Y-37539419D01*
X96998523Y-37539419D02*
X96903285Y-37491800D01*
X97950904Y-37539419D02*
X97855666Y-37491800D01*
X97855666Y-37491800D02*
X97808047Y-37444180D01*
X97808047Y-37444180D02*
X97760428Y-37348942D01*
X97760428Y-37348942D02*
X97760428Y-37063228D01*
X97760428Y-37063228D02*
X97808047Y-36967990D01*
X97808047Y-36967990D02*
X97855666Y-36920371D01*
X97855666Y-36920371D02*
X97950904Y-36872752D01*
X97950904Y-36872752D02*
X98093761Y-36872752D01*
X98093761Y-36872752D02*
X98188999Y-36920371D01*
X98188999Y-36920371D02*
X98236618Y-36967990D01*
X98236618Y-36967990D02*
X98284237Y-37063228D01*
X98284237Y-37063228D02*
X98284237Y-37348942D01*
X98284237Y-37348942D02*
X98236618Y-37444180D01*
X98236618Y-37444180D02*
X98188999Y-37491800D01*
X98188999Y-37491800D02*
X98093761Y-37539419D01*
X98093761Y-37539419D02*
X97950904Y-37539419D01*
X98712809Y-37539419D02*
X98712809Y-36872752D01*
X98712809Y-37063228D02*
X98760428Y-36967990D01*
X98760428Y-36967990D02*
X98808047Y-36920371D01*
X98808047Y-36920371D02*
X98903285Y-36872752D01*
X98903285Y-36872752D02*
X98998523Y-36872752D01*
X99189000Y-36872752D02*
X99569952Y-36872752D01*
X99331857Y-36539419D02*
X99331857Y-37396561D01*
X99331857Y-37396561D02*
X99379476Y-37491800D01*
X99379476Y-37491800D02*
X99474714Y-37539419D01*
X99474714Y-37539419D02*
X99569952Y-37539419D01*
X99855667Y-37491800D02*
X99950905Y-37539419D01*
X99950905Y-37539419D02*
X100141381Y-37539419D01*
X100141381Y-37539419D02*
X100236619Y-37491800D01*
X100236619Y-37491800D02*
X100284238Y-37396561D01*
X100284238Y-37396561D02*
X100284238Y-37348942D01*
X100284238Y-37348942D02*
X100236619Y-37253704D01*
X100236619Y-37253704D02*
X100141381Y-37206085D01*
X100141381Y-37206085D02*
X99998524Y-37206085D01*
X99998524Y-37206085D02*
X99903286Y-37158466D01*
X99903286Y-37158466D02*
X99855667Y-37063228D01*
X99855667Y-37063228D02*
X99855667Y-37015609D01*
X99855667Y-37015609D02*
X99903286Y-36920371D01*
X99903286Y-36920371D02*
X99998524Y-36872752D01*
X99998524Y-36872752D02*
X100141381Y-36872752D01*
X100141381Y-36872752D02*
X100236619Y-36920371D01*
X50733074Y-80719419D02*
X50256884Y-80719419D01*
X50256884Y-80719419D02*
X50256884Y-79719419D01*
X50971170Y-79719419D02*
X51637836Y-79719419D01*
X51637836Y-79719419D02*
X51209265Y-80719419D01*
X52161646Y-80147990D02*
X52066408Y-80100371D01*
X52066408Y-80100371D02*
X52018789Y-80052752D01*
X52018789Y-80052752D02*
X51971170Y-79957514D01*
X51971170Y-79957514D02*
X51971170Y-79909895D01*
X51971170Y-79909895D02*
X52018789Y-79814657D01*
X52018789Y-79814657D02*
X52066408Y-79767038D01*
X52066408Y-79767038D02*
X52161646Y-79719419D01*
X52161646Y-79719419D02*
X52352122Y-79719419D01*
X52352122Y-79719419D02*
X52447360Y-79767038D01*
X52447360Y-79767038D02*
X52494979Y-79814657D01*
X52494979Y-79814657D02*
X52542598Y-79909895D01*
X52542598Y-79909895D02*
X52542598Y-79957514D01*
X52542598Y-79957514D02*
X52494979Y-80052752D01*
X52494979Y-80052752D02*
X52447360Y-80100371D01*
X52447360Y-80100371D02*
X52352122Y-80147990D01*
X52352122Y-80147990D02*
X52161646Y-80147990D01*
X52161646Y-80147990D02*
X52066408Y-80195609D01*
X52066408Y-80195609D02*
X52018789Y-80243228D01*
X52018789Y-80243228D02*
X51971170Y-80338466D01*
X51971170Y-80338466D02*
X51971170Y-80528942D01*
X51971170Y-80528942D02*
X52018789Y-80624180D01*
X52018789Y-80624180D02*
X52066408Y-80671800D01*
X52066408Y-80671800D02*
X52161646Y-80719419D01*
X52161646Y-80719419D02*
X52352122Y-80719419D01*
X52352122Y-80719419D02*
X52447360Y-80671800D01*
X52447360Y-80671800D02*
X52494979Y-80624180D01*
X52494979Y-80624180D02*
X52542598Y-80528942D01*
X52542598Y-80528942D02*
X52542598Y-80338466D01*
X52542598Y-80338466D02*
X52494979Y-80243228D01*
X52494979Y-80243228D02*
X52447360Y-80195609D01*
X52447360Y-80195609D02*
X52352122Y-80147990D01*
X53161646Y-79719419D02*
X53256884Y-79719419D01*
X53256884Y-79719419D02*
X53352122Y-79767038D01*
X53352122Y-79767038D02*
X53399741Y-79814657D01*
X53399741Y-79814657D02*
X53447360Y-79909895D01*
X53447360Y-79909895D02*
X53494979Y-80100371D01*
X53494979Y-80100371D02*
X53494979Y-80338466D01*
X53494979Y-80338466D02*
X53447360Y-80528942D01*
X53447360Y-80528942D02*
X53399741Y-80624180D01*
X53399741Y-80624180D02*
X53352122Y-80671800D01*
X53352122Y-80671800D02*
X53256884Y-80719419D01*
X53256884Y-80719419D02*
X53161646Y-80719419D01*
X53161646Y-80719419D02*
X53066408Y-80671800D01*
X53066408Y-80671800D02*
X53018789Y-80624180D01*
X53018789Y-80624180D02*
X52971170Y-80528942D01*
X52971170Y-80528942D02*
X52923551Y-80338466D01*
X52923551Y-80338466D02*
X52923551Y-80100371D01*
X52923551Y-80100371D02*
X52971170Y-79909895D01*
X52971170Y-79909895D02*
X53018789Y-79814657D01*
X53018789Y-79814657D02*
X53066408Y-79767038D01*
X53066408Y-79767038D02*
X53161646Y-79719419D01*
X54399741Y-79719419D02*
X53923551Y-79719419D01*
X53923551Y-79719419D02*
X53875932Y-80195609D01*
X53875932Y-80195609D02*
X53923551Y-80147990D01*
X53923551Y-80147990D02*
X54018789Y-80100371D01*
X54018789Y-80100371D02*
X54256884Y-80100371D01*
X54256884Y-80100371D02*
X54352122Y-80147990D01*
X54352122Y-80147990D02*
X54399741Y-80195609D01*
X54399741Y-80195609D02*
X54447360Y-80290847D01*
X54447360Y-80290847D02*
X54447360Y-80528942D01*
X54447360Y-80528942D02*
X54399741Y-80624180D01*
X54399741Y-80624180D02*
X54352122Y-80671800D01*
X54352122Y-80671800D02*
X54256884Y-80719419D01*
X54256884Y-80719419D02*
X54018789Y-80719419D01*
X54018789Y-80719419D02*
X53923551Y-80671800D01*
X53923551Y-80671800D02*
X53875932Y-80624180D01*
X49952419Y-23377306D02*
X49952419Y-23948734D01*
X49952419Y-23663020D02*
X48952419Y-23663020D01*
X48952419Y-23663020D02*
X49095276Y-23758258D01*
X49095276Y-23758258D02*
X49190514Y-23853496D01*
X49190514Y-23853496D02*
X49238133Y-23948734D01*
X49952419Y-22948734D02*
X48952419Y-22948734D01*
X49952419Y-22377306D02*
X49380990Y-22805877D01*
X48952419Y-22377306D02*
X49523847Y-22948734D01*
X40493693Y-42746419D02*
X39922265Y-42746419D01*
X40207979Y-42746419D02*
X40207979Y-41746419D01*
X40207979Y-41746419D02*
X40112741Y-41889276D01*
X40112741Y-41889276D02*
X40017503Y-41984514D01*
X40017503Y-41984514D02*
X39922265Y-42032133D01*
X41112741Y-41746419D02*
X41207979Y-41746419D01*
X41207979Y-41746419D02*
X41303217Y-41794038D01*
X41303217Y-41794038D02*
X41350836Y-41841657D01*
X41350836Y-41841657D02*
X41398455Y-41936895D01*
X41398455Y-41936895D02*
X41446074Y-42127371D01*
X41446074Y-42127371D02*
X41446074Y-42365466D01*
X41446074Y-42365466D02*
X41398455Y-42555942D01*
X41398455Y-42555942D02*
X41350836Y-42651180D01*
X41350836Y-42651180D02*
X41303217Y-42698800D01*
X41303217Y-42698800D02*
X41207979Y-42746419D01*
X41207979Y-42746419D02*
X41112741Y-42746419D01*
X41112741Y-42746419D02*
X41017503Y-42698800D01*
X41017503Y-42698800D02*
X40969884Y-42651180D01*
X40969884Y-42651180D02*
X40922265Y-42555942D01*
X40922265Y-42555942D02*
X40874646Y-42365466D01*
X40874646Y-42365466D02*
X40874646Y-42127371D01*
X40874646Y-42127371D02*
X40922265Y-41936895D01*
X40922265Y-41936895D02*
X40969884Y-41841657D01*
X40969884Y-41841657D02*
X41017503Y-41794038D01*
X41017503Y-41794038D02*
X41112741Y-41746419D01*
X42065122Y-41746419D02*
X42160360Y-41746419D01*
X42160360Y-41746419D02*
X42255598Y-41794038D01*
X42255598Y-41794038D02*
X42303217Y-41841657D01*
X42303217Y-41841657D02*
X42350836Y-41936895D01*
X42350836Y-41936895D02*
X42398455Y-42127371D01*
X42398455Y-42127371D02*
X42398455Y-42365466D01*
X42398455Y-42365466D02*
X42350836Y-42555942D01*
X42350836Y-42555942D02*
X42303217Y-42651180D01*
X42303217Y-42651180D02*
X42255598Y-42698800D01*
X42255598Y-42698800D02*
X42160360Y-42746419D01*
X42160360Y-42746419D02*
X42065122Y-42746419D01*
X42065122Y-42746419D02*
X41969884Y-42698800D01*
X41969884Y-42698800D02*
X41922265Y-42651180D01*
X41922265Y-42651180D02*
X41874646Y-42555942D01*
X41874646Y-42555942D02*
X41827027Y-42365466D01*
X41827027Y-42365466D02*
X41827027Y-42127371D01*
X41827027Y-42127371D02*
X41874646Y-41936895D01*
X41874646Y-41936895D02*
X41922265Y-41841657D01*
X41922265Y-41841657D02*
X41969884Y-41794038D01*
X41969884Y-41794038D02*
X42065122Y-41746419D01*
X42827027Y-42079752D02*
X42827027Y-42746419D01*
X42827027Y-42174990D02*
X42874646Y-42127371D01*
X42874646Y-42127371D02*
X42969884Y-42079752D01*
X42969884Y-42079752D02*
X43112741Y-42079752D01*
X43112741Y-42079752D02*
X43207979Y-42127371D01*
X43207979Y-42127371D02*
X43255598Y-42222609D01*
X43255598Y-42222609D02*
X43255598Y-42746419D01*
X44065122Y-42222609D02*
X43731789Y-42222609D01*
X43731789Y-42746419D02*
X43731789Y-41746419D01*
X43731789Y-41746419D02*
X44207979Y-41746419D01*
X79123265Y-13858419D02*
X79123265Y-14048895D01*
X79504217Y-13858419D02*
X79504217Y-14048895D01*
X79932789Y-14858419D02*
X79932789Y-13858419D01*
X80408979Y-14191752D02*
X80408979Y-14858419D01*
X80408979Y-14286990D02*
X80456598Y-14239371D01*
X80456598Y-14239371D02*
X80551836Y-14191752D01*
X80551836Y-14191752D02*
X80694693Y-14191752D01*
X80694693Y-14191752D02*
X80789931Y-14239371D01*
X80789931Y-14239371D02*
X80837550Y-14334609D01*
X80837550Y-14334609D02*
X80837550Y-14858419D01*
X81313741Y-14477466D02*
X82075646Y-14477466D01*
X82980407Y-14858419D02*
X82980407Y-14334609D01*
X82980407Y-14334609D02*
X82932788Y-14239371D01*
X82932788Y-14239371D02*
X82837550Y-14191752D01*
X82837550Y-14191752D02*
X82647074Y-14191752D01*
X82647074Y-14191752D02*
X82551836Y-14239371D01*
X82980407Y-14810800D02*
X82885169Y-14858419D01*
X82885169Y-14858419D02*
X82647074Y-14858419D01*
X82647074Y-14858419D02*
X82551836Y-14810800D01*
X82551836Y-14810800D02*
X82504217Y-14715561D01*
X82504217Y-14715561D02*
X82504217Y-14620323D01*
X82504217Y-14620323D02*
X82551836Y-14525085D01*
X82551836Y-14525085D02*
X82647074Y-14477466D01*
X82647074Y-14477466D02*
X82885169Y-14477466D01*
X82885169Y-14477466D02*
X82980407Y-14429847D01*
X83456598Y-14477466D02*
X84218503Y-14477466D01*
X84694693Y-14858419D02*
X84694693Y-13858419D01*
X84694693Y-14239371D02*
X84789931Y-14191752D01*
X84789931Y-14191752D02*
X84980407Y-14191752D01*
X84980407Y-14191752D02*
X85075645Y-14239371D01*
X85075645Y-14239371D02*
X85123264Y-14286990D01*
X85123264Y-14286990D02*
X85170883Y-14382228D01*
X85170883Y-14382228D02*
X85170883Y-14667942D01*
X85170883Y-14667942D02*
X85123264Y-14763180D01*
X85123264Y-14763180D02*
X85075645Y-14810800D01*
X85075645Y-14810800D02*
X84980407Y-14858419D01*
X84980407Y-14858419D02*
X84789931Y-14858419D01*
X84789931Y-14858419D02*
X84694693Y-14810800D01*
X85742312Y-14858419D02*
X85647074Y-14810800D01*
X85647074Y-14810800D02*
X85599455Y-14763180D01*
X85599455Y-14763180D02*
X85551836Y-14667942D01*
X85551836Y-14667942D02*
X85551836Y-14382228D01*
X85551836Y-14382228D02*
X85599455Y-14286990D01*
X85599455Y-14286990D02*
X85647074Y-14239371D01*
X85647074Y-14239371D02*
X85742312Y-14191752D01*
X85742312Y-14191752D02*
X85885169Y-14191752D01*
X85885169Y-14191752D02*
X85980407Y-14239371D01*
X85980407Y-14239371D02*
X86028026Y-14286990D01*
X86028026Y-14286990D02*
X86075645Y-14382228D01*
X86075645Y-14382228D02*
X86075645Y-14667942D01*
X86075645Y-14667942D02*
X86028026Y-14763180D01*
X86028026Y-14763180D02*
X85980407Y-14810800D01*
X85980407Y-14810800D02*
X85885169Y-14858419D01*
X85885169Y-14858419D02*
X85742312Y-14858419D01*
X86408979Y-14858419D02*
X86932788Y-14191752D01*
X86408979Y-14191752D02*
X86932788Y-14858419D01*
X87266122Y-13858419D02*
X87266122Y-14048895D01*
X87647074Y-13858419D02*
X87647074Y-14048895D01*
X88694694Y-13858419D02*
X89028027Y-14858419D01*
X89028027Y-14858419D02*
X89361360Y-13858419D01*
X90075646Y-14810800D02*
X89980408Y-14858419D01*
X89980408Y-14858419D02*
X89789932Y-14858419D01*
X89789932Y-14858419D02*
X89694694Y-14810800D01*
X89694694Y-14810800D02*
X89647075Y-14715561D01*
X89647075Y-14715561D02*
X89647075Y-14334609D01*
X89647075Y-14334609D02*
X89694694Y-14239371D01*
X89694694Y-14239371D02*
X89789932Y-14191752D01*
X89789932Y-14191752D02*
X89980408Y-14191752D01*
X89980408Y-14191752D02*
X90075646Y-14239371D01*
X90075646Y-14239371D02*
X90123265Y-14334609D01*
X90123265Y-14334609D02*
X90123265Y-14429847D01*
X90123265Y-14429847D02*
X89647075Y-14525085D01*
X90551837Y-14858419D02*
X90551837Y-14191752D01*
X90551837Y-14382228D02*
X90599456Y-14286990D01*
X90599456Y-14286990D02*
X90647075Y-14239371D01*
X90647075Y-14239371D02*
X90742313Y-14191752D01*
X90742313Y-14191752D02*
X90837551Y-14191752D01*
X91123266Y-14810800D02*
X91218504Y-14858419D01*
X91218504Y-14858419D02*
X91408980Y-14858419D01*
X91408980Y-14858419D02*
X91504218Y-14810800D01*
X91504218Y-14810800D02*
X91551837Y-14715561D01*
X91551837Y-14715561D02*
X91551837Y-14667942D01*
X91551837Y-14667942D02*
X91504218Y-14572704D01*
X91504218Y-14572704D02*
X91408980Y-14525085D01*
X91408980Y-14525085D02*
X91266123Y-14525085D01*
X91266123Y-14525085D02*
X91170885Y-14477466D01*
X91170885Y-14477466D02*
X91123266Y-14382228D01*
X91123266Y-14382228D02*
X91123266Y-14334609D01*
X91123266Y-14334609D02*
X91170885Y-14239371D01*
X91170885Y-14239371D02*
X91266123Y-14191752D01*
X91266123Y-14191752D02*
X91408980Y-14191752D01*
X91408980Y-14191752D02*
X91504218Y-14239371D01*
X91980409Y-14858419D02*
X91980409Y-14191752D01*
X91980409Y-13858419D02*
X91932790Y-13906038D01*
X91932790Y-13906038D02*
X91980409Y-13953657D01*
X91980409Y-13953657D02*
X92028028Y-13906038D01*
X92028028Y-13906038D02*
X91980409Y-13858419D01*
X91980409Y-13858419D02*
X91980409Y-13953657D01*
X92599456Y-14858419D02*
X92504218Y-14810800D01*
X92504218Y-14810800D02*
X92456599Y-14763180D01*
X92456599Y-14763180D02*
X92408980Y-14667942D01*
X92408980Y-14667942D02*
X92408980Y-14382228D01*
X92408980Y-14382228D02*
X92456599Y-14286990D01*
X92456599Y-14286990D02*
X92504218Y-14239371D01*
X92504218Y-14239371D02*
X92599456Y-14191752D01*
X92599456Y-14191752D02*
X92742313Y-14191752D01*
X92742313Y-14191752D02*
X92837551Y-14239371D01*
X92837551Y-14239371D02*
X92885170Y-14286990D01*
X92885170Y-14286990D02*
X92932789Y-14382228D01*
X92932789Y-14382228D02*
X92932789Y-14667942D01*
X92932789Y-14667942D02*
X92885170Y-14763180D01*
X92885170Y-14763180D02*
X92837551Y-14810800D01*
X92837551Y-14810800D02*
X92742313Y-14858419D01*
X92742313Y-14858419D02*
X92599456Y-14858419D01*
X93361361Y-14191752D02*
X93361361Y-14858419D01*
X93361361Y-14286990D02*
X93408980Y-14239371D01*
X93408980Y-14239371D02*
X93504218Y-14191752D01*
X93504218Y-14191752D02*
X93647075Y-14191752D01*
X93647075Y-14191752D02*
X93742313Y-14239371D01*
X93742313Y-14239371D02*
X93789932Y-14334609D01*
X93789932Y-14334609D02*
X93789932Y-14858419D01*
X92547884Y-73988419D02*
X92547884Y-72988419D01*
X92547884Y-72988419D02*
X92928836Y-72988419D01*
X92928836Y-72988419D02*
X93024074Y-73036038D01*
X93024074Y-73036038D02*
X93071693Y-73083657D01*
X93071693Y-73083657D02*
X93119312Y-73178895D01*
X93119312Y-73178895D02*
X93119312Y-73321752D01*
X93119312Y-73321752D02*
X93071693Y-73416990D01*
X93071693Y-73416990D02*
X93024074Y-73464609D01*
X93024074Y-73464609D02*
X92928836Y-73512228D01*
X92928836Y-73512228D02*
X92547884Y-73512228D01*
X93738360Y-72988419D02*
X93928836Y-72988419D01*
X93928836Y-72988419D02*
X94024074Y-73036038D01*
X94024074Y-73036038D02*
X94119312Y-73131276D01*
X94119312Y-73131276D02*
X94166931Y-73321752D01*
X94166931Y-73321752D02*
X94166931Y-73655085D01*
X94166931Y-73655085D02*
X94119312Y-73845561D01*
X94119312Y-73845561D02*
X94024074Y-73940800D01*
X94024074Y-73940800D02*
X93928836Y-73988419D01*
X93928836Y-73988419D02*
X93738360Y-73988419D01*
X93738360Y-73988419D02*
X93643122Y-73940800D01*
X93643122Y-73940800D02*
X93547884Y-73845561D01*
X93547884Y-73845561D02*
X93500265Y-73655085D01*
X93500265Y-73655085D02*
X93500265Y-73321752D01*
X93500265Y-73321752D02*
X93547884Y-73131276D01*
X93547884Y-73131276D02*
X93643122Y-73036038D01*
X93643122Y-73036038D02*
X93738360Y-72988419D01*
X94500265Y-72988419D02*
X94738360Y-73988419D01*
X94738360Y-73988419D02*
X94928836Y-73274133D01*
X94928836Y-73274133D02*
X95119312Y-73988419D01*
X95119312Y-73988419D02*
X95357408Y-72988419D01*
X95738360Y-73464609D02*
X96071693Y-73464609D01*
X96214550Y-73988419D02*
X95738360Y-73988419D01*
X95738360Y-73988419D02*
X95738360Y-72988419D01*
X95738360Y-72988419D02*
X96214550Y-72988419D01*
X97214550Y-73988419D02*
X96881217Y-73512228D01*
X96643122Y-73988419D02*
X96643122Y-72988419D01*
X96643122Y-72988419D02*
X97024074Y-72988419D01*
X97024074Y-72988419D02*
X97119312Y-73036038D01*
X97119312Y-73036038D02*
X97166931Y-73083657D01*
X97166931Y-73083657D02*
X97214550Y-73178895D01*
X97214550Y-73178895D02*
X97214550Y-73321752D01*
X97214550Y-73321752D02*
X97166931Y-73416990D01*
X97166931Y-73416990D02*
X97119312Y-73464609D01*
X97119312Y-73464609D02*
X97024074Y-73512228D01*
X97024074Y-73512228D02*
X96643122Y-73512228D01*
X98881217Y-73988419D02*
X98405027Y-73988419D01*
X98405027Y-73988419D02*
X98405027Y-72988419D01*
X99214551Y-73464609D02*
X99547884Y-73464609D01*
X99690741Y-73988419D02*
X99214551Y-73988419D01*
X99214551Y-73988419D02*
X99214551Y-72988419D01*
X99214551Y-72988419D02*
X99690741Y-72988419D01*
X100119313Y-73988419D02*
X100119313Y-72988419D01*
X100119313Y-72988419D02*
X100357408Y-72988419D01*
X100357408Y-72988419D02*
X100500265Y-73036038D01*
X100500265Y-73036038D02*
X100595503Y-73131276D01*
X100595503Y-73131276D02*
X100643122Y-73226514D01*
X100643122Y-73226514D02*
X100690741Y-73416990D01*
X100690741Y-73416990D02*
X100690741Y-73559847D01*
X100690741Y-73559847D02*
X100643122Y-73750323D01*
X100643122Y-73750323D02*
X100595503Y-73845561D01*
X100595503Y-73845561D02*
X100500265Y-73940800D01*
X100500265Y-73940800D02*
X100357408Y-73988419D01*
X100357408Y-73988419D02*
X100119313Y-73988419D01*
D11*
X98307095Y-75323819D02*
X98307095Y-74323819D01*
X98307095Y-74800009D02*
X98878523Y-74800009D01*
X98878523Y-75323819D02*
X98878523Y-74323819D01*
X99783285Y-74657152D02*
X99783285Y-75323819D01*
X99545190Y-74276200D02*
X99307095Y-74990485D01*
X99307095Y-74990485D02*
X99926142Y-74990485D01*
X14807095Y-75323819D02*
X14807095Y-74323819D01*
X14807095Y-74800009D02*
X15378523Y-74800009D01*
X15378523Y-75323819D02*
X15378523Y-74323819D01*
X15759476Y-74323819D02*
X16378523Y-74323819D01*
X16378523Y-74323819D02*
X16045190Y-74704771D01*
X16045190Y-74704771D02*
X16188047Y-74704771D01*
X16188047Y-74704771D02*
X16283285Y-74752390D01*
X16283285Y-74752390D02*
X16330904Y-74800009D01*
X16330904Y-74800009D02*
X16378523Y-74895247D01*
X16378523Y-74895247D02*
X16378523Y-75133342D01*
X16378523Y-75133342D02*
X16330904Y-75228580D01*
X16330904Y-75228580D02*
X16283285Y-75276200D01*
X16283285Y-75276200D02*
X16188047Y-75323819D01*
X16188047Y-75323819D02*
X15902333Y-75323819D01*
X15902333Y-75323819D02*
X15807095Y-75276200D01*
X15807095Y-75276200D02*
X15759476Y-75228580D01*
X98307095Y-11823819D02*
X98307095Y-10823819D01*
X98307095Y-11300009D02*
X98878523Y-11300009D01*
X98878523Y-11823819D02*
X98878523Y-10823819D01*
X99307095Y-10919057D02*
X99354714Y-10871438D01*
X99354714Y-10871438D02*
X99449952Y-10823819D01*
X99449952Y-10823819D02*
X99688047Y-10823819D01*
X99688047Y-10823819D02*
X99783285Y-10871438D01*
X99783285Y-10871438D02*
X99830904Y-10919057D01*
X99830904Y-10919057D02*
X99878523Y-11014295D01*
X99878523Y-11014295D02*
X99878523Y-11109533D01*
X99878523Y-11109533D02*
X99830904Y-11252390D01*
X99830904Y-11252390D02*
X99259476Y-11823819D01*
X99259476Y-11823819D02*
X99878523Y-11823819D01*
X14807095Y-11823819D02*
X14807095Y-10823819D01*
X14807095Y-11300009D02*
X15378523Y-11300009D01*
X15378523Y-11823819D02*
X15378523Y-10823819D01*
X16378523Y-11823819D02*
X15807095Y-11823819D01*
X16092809Y-11823819D02*
X16092809Y-10823819D01*
X16092809Y-10823819D02*
X15997571Y-10966676D01*
X15997571Y-10966676D02*
X15902333Y-11061914D01*
X15902333Y-11061914D02*
X15807095Y-11109533D01*
X23753819Y-69242333D02*
X24468104Y-69242333D01*
X24468104Y-69242333D02*
X24610961Y-69289952D01*
X24610961Y-69289952D02*
X24706200Y-69385190D01*
X24706200Y-69385190D02*
X24753819Y-69528047D01*
X24753819Y-69528047D02*
X24753819Y-69623285D01*
X24753819Y-68242333D02*
X24753819Y-68813761D01*
X24753819Y-68528047D02*
X23753819Y-68528047D01*
X23753819Y-68528047D02*
X23896676Y-68623285D01*
X23896676Y-68623285D02*
X23991914Y-68718523D01*
X23991914Y-68718523D02*
X24039533Y-68813761D01*
X80708580Y-76065666D02*
X80756200Y-76113285D01*
X80756200Y-76113285D02*
X80803819Y-76256142D01*
X80803819Y-76256142D02*
X80803819Y-76351380D01*
X80803819Y-76351380D02*
X80756200Y-76494237D01*
X80756200Y-76494237D02*
X80660961Y-76589475D01*
X80660961Y-76589475D02*
X80565723Y-76637094D01*
X80565723Y-76637094D02*
X80375247Y-76684713D01*
X80375247Y-76684713D02*
X80232390Y-76684713D01*
X80232390Y-76684713D02*
X80041914Y-76637094D01*
X80041914Y-76637094D02*
X79946676Y-76589475D01*
X79946676Y-76589475D02*
X79851438Y-76494237D01*
X79851438Y-76494237D02*
X79803819Y-76351380D01*
X79803819Y-76351380D02*
X79803819Y-76256142D01*
X79803819Y-76256142D02*
X79851438Y-76113285D01*
X79851438Y-76113285D02*
X79899057Y-76065666D01*
X79803819Y-75160904D02*
X79803819Y-75637094D01*
X79803819Y-75637094D02*
X80280009Y-75684713D01*
X80280009Y-75684713D02*
X80232390Y-75637094D01*
X80232390Y-75637094D02*
X80184771Y-75541856D01*
X80184771Y-75541856D02*
X80184771Y-75303761D01*
X80184771Y-75303761D02*
X80232390Y-75208523D01*
X80232390Y-75208523D02*
X80280009Y-75160904D01*
X80280009Y-75160904D02*
X80375247Y-75113285D01*
X80375247Y-75113285D02*
X80613342Y-75113285D01*
X80613342Y-75113285D02*
X80708580Y-75160904D01*
X80708580Y-75160904D02*
X80756200Y-75208523D01*
X80756200Y-75208523D02*
X80803819Y-75303761D01*
X80803819Y-75303761D02*
X80803819Y-75541856D01*
X80803819Y-75541856D02*
X80756200Y-75637094D01*
X80756200Y-75637094D02*
X80708580Y-75684713D01*
X27293819Y-60757094D02*
X26293819Y-60757094D01*
X26293819Y-60757094D02*
X26293819Y-60518999D01*
X26293819Y-60518999D02*
X26341438Y-60376142D01*
X26341438Y-60376142D02*
X26436676Y-60280904D01*
X26436676Y-60280904D02*
X26531914Y-60233285D01*
X26531914Y-60233285D02*
X26722390Y-60185666D01*
X26722390Y-60185666D02*
X26865247Y-60185666D01*
X26865247Y-60185666D02*
X27055723Y-60233285D01*
X27055723Y-60233285D02*
X27150961Y-60280904D01*
X27150961Y-60280904D02*
X27246200Y-60376142D01*
X27246200Y-60376142D02*
X27293819Y-60518999D01*
X27293819Y-60518999D02*
X27293819Y-60757094D01*
X26389057Y-59804713D02*
X26341438Y-59757094D01*
X26341438Y-59757094D02*
X26293819Y-59661856D01*
X26293819Y-59661856D02*
X26293819Y-59423761D01*
X26293819Y-59423761D02*
X26341438Y-59328523D01*
X26341438Y-59328523D02*
X26389057Y-59280904D01*
X26389057Y-59280904D02*
X26484295Y-59233285D01*
X26484295Y-59233285D02*
X26579533Y-59233285D01*
X26579533Y-59233285D02*
X26722390Y-59280904D01*
X26722390Y-59280904D02*
X27293819Y-59852332D01*
X27293819Y-59852332D02*
X27293819Y-59233285D01*
X27733819Y-65360904D02*
X26733819Y-65360904D01*
X27733819Y-64789476D02*
X27162390Y-65218047D01*
X26733819Y-64789476D02*
X27305247Y-65360904D01*
X92267905Y-70633819D02*
X92267905Y-69633819D01*
X92267905Y-69633819D02*
X92506000Y-69633819D01*
X92506000Y-69633819D02*
X92648857Y-69681438D01*
X92648857Y-69681438D02*
X92744095Y-69776676D01*
X92744095Y-69776676D02*
X92791714Y-69871914D01*
X92791714Y-69871914D02*
X92839333Y-70062390D01*
X92839333Y-70062390D02*
X92839333Y-70205247D01*
X92839333Y-70205247D02*
X92791714Y-70395723D01*
X92791714Y-70395723D02*
X92744095Y-70490961D01*
X92744095Y-70490961D02*
X92648857Y-70586200D01*
X92648857Y-70586200D02*
X92506000Y-70633819D01*
X92506000Y-70633819D02*
X92267905Y-70633819D01*
X93696476Y-69967152D02*
X93696476Y-70633819D01*
X93458381Y-69586200D02*
X93220286Y-70300485D01*
X93220286Y-70300485D02*
X93839333Y-70300485D01*
X42841095Y-67982819D02*
X42841095Y-68792342D01*
X42841095Y-68792342D02*
X42888714Y-68887580D01*
X42888714Y-68887580D02*
X42936333Y-68935200D01*
X42936333Y-68935200D02*
X43031571Y-68982819D01*
X43031571Y-68982819D02*
X43222047Y-68982819D01*
X43222047Y-68982819D02*
X43317285Y-68935200D01*
X43317285Y-68935200D02*
X43364904Y-68887580D01*
X43364904Y-68887580D02*
X43412523Y-68792342D01*
X43412523Y-68792342D02*
X43412523Y-67982819D01*
X44412523Y-68982819D02*
X43841095Y-68982819D01*
X44126809Y-68982819D02*
X44126809Y-67982819D01*
X44126809Y-67982819D02*
X44031571Y-68125676D01*
X44031571Y-68125676D02*
X43936333Y-68220914D01*
X43936333Y-68220914D02*
X43841095Y-68268533D01*
X29833819Y-30404094D02*
X28833819Y-30404094D01*
X28833819Y-30404094D02*
X28833819Y-30165999D01*
X28833819Y-30165999D02*
X28881438Y-30023142D01*
X28881438Y-30023142D02*
X28976676Y-29927904D01*
X28976676Y-29927904D02*
X29071914Y-29880285D01*
X29071914Y-29880285D02*
X29262390Y-29832666D01*
X29262390Y-29832666D02*
X29405247Y-29832666D01*
X29405247Y-29832666D02*
X29595723Y-29880285D01*
X29595723Y-29880285D02*
X29690961Y-29927904D01*
X29690961Y-29927904D02*
X29786200Y-30023142D01*
X29786200Y-30023142D02*
X29833819Y-30165999D01*
X29833819Y-30165999D02*
X29833819Y-30404094D01*
X29833819Y-28880285D02*
X29833819Y-29451713D01*
X29833819Y-29165999D02*
X28833819Y-29165999D01*
X28833819Y-29165999D02*
X28976676Y-29261237D01*
X28976676Y-29261237D02*
X29071914Y-29356475D01*
X29071914Y-29356475D02*
X29119533Y-29451713D01*
X27293819Y-19640904D02*
X26293819Y-19640904D01*
X27293819Y-19069476D02*
X26722390Y-19498047D01*
X26293819Y-19069476D02*
X26865247Y-19640904D01*
X47613819Y-29705666D02*
X47137628Y-30038999D01*
X47613819Y-30277094D02*
X46613819Y-30277094D01*
X46613819Y-30277094D02*
X46613819Y-29896142D01*
X46613819Y-29896142D02*
X46661438Y-29800904D01*
X46661438Y-29800904D02*
X46709057Y-29753285D01*
X46709057Y-29753285D02*
X46804295Y-29705666D01*
X46804295Y-29705666D02*
X46947152Y-29705666D01*
X46947152Y-29705666D02*
X47042390Y-29753285D01*
X47042390Y-29753285D02*
X47090009Y-29800904D01*
X47090009Y-29800904D02*
X47137628Y-29896142D01*
X47137628Y-29896142D02*
X47137628Y-30277094D01*
X47613819Y-28753285D02*
X47613819Y-29324713D01*
X47613819Y-29038999D02*
X46613819Y-29038999D01*
X46613819Y-29038999D02*
X46756676Y-29134237D01*
X46756676Y-29134237D02*
X46851914Y-29229475D01*
X46851914Y-29229475D02*
X46899533Y-29324713D01*
X42398580Y-75385666D02*
X42446200Y-75433285D01*
X42446200Y-75433285D02*
X42493819Y-75576142D01*
X42493819Y-75576142D02*
X42493819Y-75671380D01*
X42493819Y-75671380D02*
X42446200Y-75814237D01*
X42446200Y-75814237D02*
X42350961Y-75909475D01*
X42350961Y-75909475D02*
X42255723Y-75957094D01*
X42255723Y-75957094D02*
X42065247Y-76004713D01*
X42065247Y-76004713D02*
X41922390Y-76004713D01*
X41922390Y-76004713D02*
X41731914Y-75957094D01*
X41731914Y-75957094D02*
X41636676Y-75909475D01*
X41636676Y-75909475D02*
X41541438Y-75814237D01*
X41541438Y-75814237D02*
X41493819Y-75671380D01*
X41493819Y-75671380D02*
X41493819Y-75576142D01*
X41493819Y-75576142D02*
X41541438Y-75433285D01*
X41541438Y-75433285D02*
X41589057Y-75385666D01*
X41493819Y-75052332D02*
X41493819Y-74433285D01*
X41493819Y-74433285D02*
X41874771Y-74766618D01*
X41874771Y-74766618D02*
X41874771Y-74623761D01*
X41874771Y-74623761D02*
X41922390Y-74528523D01*
X41922390Y-74528523D02*
X41970009Y-74480904D01*
X41970009Y-74480904D02*
X42065247Y-74433285D01*
X42065247Y-74433285D02*
X42303342Y-74433285D01*
X42303342Y-74433285D02*
X42398580Y-74480904D01*
X42398580Y-74480904D02*
X42446200Y-74528523D01*
X42446200Y-74528523D02*
X42493819Y-74623761D01*
X42493819Y-74623761D02*
X42493819Y-74909475D01*
X42493819Y-74909475D02*
X42446200Y-75004713D01*
X42446200Y-75004713D02*
X42398580Y-75052332D01*
X39993819Y-29705666D02*
X39517628Y-30038999D01*
X39993819Y-30277094D02*
X38993819Y-30277094D01*
X38993819Y-30277094D02*
X38993819Y-29896142D01*
X38993819Y-29896142D02*
X39041438Y-29800904D01*
X39041438Y-29800904D02*
X39089057Y-29753285D01*
X39089057Y-29753285D02*
X39184295Y-29705666D01*
X39184295Y-29705666D02*
X39327152Y-29705666D01*
X39327152Y-29705666D02*
X39422390Y-29753285D01*
X39422390Y-29753285D02*
X39470009Y-29800904D01*
X39470009Y-29800904D02*
X39517628Y-29896142D01*
X39517628Y-29896142D02*
X39517628Y-30277094D01*
X39089057Y-29324713D02*
X39041438Y-29277094D01*
X39041438Y-29277094D02*
X38993819Y-29181856D01*
X38993819Y-29181856D02*
X38993819Y-28943761D01*
X38993819Y-28943761D02*
X39041438Y-28848523D01*
X39041438Y-28848523D02*
X39089057Y-28800904D01*
X39089057Y-28800904D02*
X39184295Y-28753285D01*
X39184295Y-28753285D02*
X39279533Y-28753285D01*
X39279533Y-28753285D02*
X39422390Y-28800904D01*
X39422390Y-28800904D02*
X39993819Y-29372332D01*
X39993819Y-29372332D02*
X39993819Y-28753285D01*
X92267905Y-62886819D02*
X92267905Y-61886819D01*
X92267905Y-61886819D02*
X92506000Y-61886819D01*
X92506000Y-61886819D02*
X92648857Y-61934438D01*
X92648857Y-61934438D02*
X92744095Y-62029676D01*
X92744095Y-62029676D02*
X92791714Y-62124914D01*
X92791714Y-62124914D02*
X92839333Y-62315390D01*
X92839333Y-62315390D02*
X92839333Y-62458247D01*
X92839333Y-62458247D02*
X92791714Y-62648723D01*
X92791714Y-62648723D02*
X92744095Y-62743961D01*
X92744095Y-62743961D02*
X92648857Y-62839200D01*
X92648857Y-62839200D02*
X92506000Y-62886819D01*
X92506000Y-62886819D02*
X92267905Y-62886819D01*
X93172667Y-61886819D02*
X93791714Y-61886819D01*
X93791714Y-61886819D02*
X93458381Y-62267771D01*
X93458381Y-62267771D02*
X93601238Y-62267771D01*
X93601238Y-62267771D02*
X93696476Y-62315390D01*
X93696476Y-62315390D02*
X93744095Y-62363009D01*
X93744095Y-62363009D02*
X93791714Y-62458247D01*
X93791714Y-62458247D02*
X93791714Y-62696342D01*
X93791714Y-62696342D02*
X93744095Y-62791580D01*
X93744095Y-62791580D02*
X93696476Y-62839200D01*
X93696476Y-62839200D02*
X93601238Y-62886819D01*
X93601238Y-62886819D02*
X93315524Y-62886819D01*
X93315524Y-62886819D02*
X93220286Y-62839200D01*
X93220286Y-62839200D02*
X93172667Y-62791580D01*
X33697095Y-23913819D02*
X33697095Y-24723342D01*
X33697095Y-24723342D02*
X33744714Y-24818580D01*
X33744714Y-24818580D02*
X33792333Y-24866200D01*
X33792333Y-24866200D02*
X33887571Y-24913819D01*
X33887571Y-24913819D02*
X34078047Y-24913819D01*
X34078047Y-24913819D02*
X34173285Y-24866200D01*
X34173285Y-24866200D02*
X34220904Y-24818580D01*
X34220904Y-24818580D02*
X34268523Y-24723342D01*
X34268523Y-24723342D02*
X34268523Y-23913819D01*
X34697095Y-24009057D02*
X34744714Y-23961438D01*
X34744714Y-23961438D02*
X34839952Y-23913819D01*
X34839952Y-23913819D02*
X35078047Y-23913819D01*
X35078047Y-23913819D02*
X35173285Y-23961438D01*
X35173285Y-23961438D02*
X35220904Y-24009057D01*
X35220904Y-24009057D02*
X35268523Y-24104295D01*
X35268523Y-24104295D02*
X35268523Y-24199533D01*
X35268523Y-24199533D02*
X35220904Y-24342390D01*
X35220904Y-24342390D02*
X34649476Y-24913819D01*
X34649476Y-24913819D02*
X35268523Y-24913819D01*
X49532333Y-35073819D02*
X49199000Y-34597628D01*
X48960905Y-35073819D02*
X48960905Y-34073819D01*
X48960905Y-34073819D02*
X49341857Y-34073819D01*
X49341857Y-34073819D02*
X49437095Y-34121438D01*
X49437095Y-34121438D02*
X49484714Y-34169057D01*
X49484714Y-34169057D02*
X49532333Y-34264295D01*
X49532333Y-34264295D02*
X49532333Y-34407152D01*
X49532333Y-34407152D02*
X49484714Y-34502390D01*
X49484714Y-34502390D02*
X49437095Y-34550009D01*
X49437095Y-34550009D02*
X49341857Y-34597628D01*
X49341857Y-34597628D02*
X48960905Y-34597628D01*
X49865667Y-34073819D02*
X50484714Y-34073819D01*
X50484714Y-34073819D02*
X50151381Y-34454771D01*
X50151381Y-34454771D02*
X50294238Y-34454771D01*
X50294238Y-34454771D02*
X50389476Y-34502390D01*
X50389476Y-34502390D02*
X50437095Y-34550009D01*
X50437095Y-34550009D02*
X50484714Y-34645247D01*
X50484714Y-34645247D02*
X50484714Y-34883342D01*
X50484714Y-34883342D02*
X50437095Y-34978580D01*
X50437095Y-34978580D02*
X50389476Y-35026200D01*
X50389476Y-35026200D02*
X50294238Y-35073819D01*
X50294238Y-35073819D02*
X50008524Y-35073819D01*
X50008524Y-35073819D02*
X49913286Y-35026200D01*
X49913286Y-35026200D02*
X49865667Y-34978580D01*
X80012333Y-60643819D02*
X79679000Y-60167628D01*
X79440905Y-60643819D02*
X79440905Y-59643819D01*
X79440905Y-59643819D02*
X79821857Y-59643819D01*
X79821857Y-59643819D02*
X79917095Y-59691438D01*
X79917095Y-59691438D02*
X79964714Y-59739057D01*
X79964714Y-59739057D02*
X80012333Y-59834295D01*
X80012333Y-59834295D02*
X80012333Y-59977152D01*
X80012333Y-59977152D02*
X79964714Y-60072390D01*
X79964714Y-60072390D02*
X79917095Y-60120009D01*
X79917095Y-60120009D02*
X79821857Y-60167628D01*
X79821857Y-60167628D02*
X79440905Y-60167628D01*
X80869476Y-59977152D02*
X80869476Y-60643819D01*
X80631381Y-59596200D02*
X80393286Y-60310485D01*
X80393286Y-60310485D02*
X81012333Y-60310485D01*
X67798580Y-75385666D02*
X67846200Y-75433285D01*
X67846200Y-75433285D02*
X67893819Y-75576142D01*
X67893819Y-75576142D02*
X67893819Y-75671380D01*
X67893819Y-75671380D02*
X67846200Y-75814237D01*
X67846200Y-75814237D02*
X67750961Y-75909475D01*
X67750961Y-75909475D02*
X67655723Y-75957094D01*
X67655723Y-75957094D02*
X67465247Y-76004713D01*
X67465247Y-76004713D02*
X67322390Y-76004713D01*
X67322390Y-76004713D02*
X67131914Y-75957094D01*
X67131914Y-75957094D02*
X67036676Y-75909475D01*
X67036676Y-75909475D02*
X66941438Y-75814237D01*
X66941438Y-75814237D02*
X66893819Y-75671380D01*
X66893819Y-75671380D02*
X66893819Y-75576142D01*
X66893819Y-75576142D02*
X66941438Y-75433285D01*
X66941438Y-75433285D02*
X66989057Y-75385666D01*
X67227152Y-74528523D02*
X67893819Y-74528523D01*
X66846200Y-74766618D02*
X67560485Y-75004713D01*
X67560485Y-75004713D02*
X67560485Y-74385666D01*
X18673819Y-21236333D02*
X19388104Y-21236333D01*
X19388104Y-21236333D02*
X19530961Y-21283952D01*
X19530961Y-21283952D02*
X19626200Y-21379190D01*
X19626200Y-21379190D02*
X19673819Y-21522047D01*
X19673819Y-21522047D02*
X19673819Y-21617285D01*
X18673819Y-20855380D02*
X18673819Y-20236333D01*
X18673819Y-20236333D02*
X19054771Y-20569666D01*
X19054771Y-20569666D02*
X19054771Y-20426809D01*
X19054771Y-20426809D02*
X19102390Y-20331571D01*
X19102390Y-20331571D02*
X19150009Y-20283952D01*
X19150009Y-20283952D02*
X19245247Y-20236333D01*
X19245247Y-20236333D02*
X19483342Y-20236333D01*
X19483342Y-20236333D02*
X19578580Y-20283952D01*
X19578580Y-20283952D02*
X19626200Y-20331571D01*
X19626200Y-20331571D02*
X19673819Y-20426809D01*
X19673819Y-20426809D02*
X19673819Y-20712523D01*
X19673819Y-20712523D02*
X19626200Y-20807761D01*
X19626200Y-20807761D02*
X19578580Y-20855380D01*
X29283761Y-35169057D02*
X29188523Y-35121438D01*
X29188523Y-35121438D02*
X29093285Y-35026200D01*
X29093285Y-35026200D02*
X28950428Y-34883342D01*
X28950428Y-34883342D02*
X28855190Y-34835723D01*
X28855190Y-34835723D02*
X28759952Y-34835723D01*
X28807571Y-35073819D02*
X28712333Y-35026200D01*
X28712333Y-35026200D02*
X28617095Y-34930961D01*
X28617095Y-34930961D02*
X28569476Y-34740485D01*
X28569476Y-34740485D02*
X28569476Y-34407152D01*
X28569476Y-34407152D02*
X28617095Y-34216676D01*
X28617095Y-34216676D02*
X28712333Y-34121438D01*
X28712333Y-34121438D02*
X28807571Y-34073819D01*
X28807571Y-34073819D02*
X28998047Y-34073819D01*
X28998047Y-34073819D02*
X29093285Y-34121438D01*
X29093285Y-34121438D02*
X29188523Y-34216676D01*
X29188523Y-34216676D02*
X29236142Y-34407152D01*
X29236142Y-34407152D02*
X29236142Y-34740485D01*
X29236142Y-34740485D02*
X29188523Y-34930961D01*
X29188523Y-34930961D02*
X29093285Y-35026200D01*
X29093285Y-35026200D02*
X28998047Y-35073819D01*
X28998047Y-35073819D02*
X28807571Y-35073819D01*
X30188523Y-35073819D02*
X29617095Y-35073819D01*
X29902809Y-35073819D02*
X29902809Y-34073819D01*
X29902809Y-34073819D02*
X29807571Y-34216676D01*
X29807571Y-34216676D02*
X29712333Y-34311914D01*
X29712333Y-34311914D02*
X29617095Y-34359533D01*
X66764714Y-60188104D02*
X67240904Y-60188104D01*
X66669476Y-60473819D02*
X67002809Y-59473819D01*
X67002809Y-59473819D02*
X67336142Y-60473819D01*
X68193285Y-60473819D02*
X67621857Y-60473819D01*
X67907571Y-60473819D02*
X67907571Y-59473819D01*
X67907571Y-59473819D02*
X67812333Y-59616676D01*
X67812333Y-59616676D02*
X67717095Y-59711914D01*
X67717095Y-59711914D02*
X67621857Y-59759533D01*
X68740904Y-19924180D02*
X68740904Y-19114657D01*
X68740904Y-19114657D02*
X68693285Y-19019419D01*
X68693285Y-19019419D02*
X68645666Y-18971800D01*
X68645666Y-18971800D02*
X68550428Y-18924180D01*
X68550428Y-18924180D02*
X68359952Y-18924180D01*
X68359952Y-18924180D02*
X68264714Y-18971800D01*
X68264714Y-18971800D02*
X68217095Y-19019419D01*
X68217095Y-19019419D02*
X68169476Y-19114657D01*
X68169476Y-19114657D02*
X68169476Y-19924180D01*
X67740904Y-18971800D02*
X67598047Y-18924180D01*
X67598047Y-18924180D02*
X67359952Y-18924180D01*
X67359952Y-18924180D02*
X67264714Y-18971800D01*
X67264714Y-18971800D02*
X67217095Y-19019419D01*
X67217095Y-19019419D02*
X67169476Y-19114657D01*
X67169476Y-19114657D02*
X67169476Y-19209895D01*
X67169476Y-19209895D02*
X67217095Y-19305133D01*
X67217095Y-19305133D02*
X67264714Y-19352752D01*
X67264714Y-19352752D02*
X67359952Y-19400371D01*
X67359952Y-19400371D02*
X67550428Y-19447990D01*
X67550428Y-19447990D02*
X67645666Y-19495609D01*
X67645666Y-19495609D02*
X67693285Y-19543228D01*
X67693285Y-19543228D02*
X67740904Y-19638466D01*
X67740904Y-19638466D02*
X67740904Y-19733704D01*
X67740904Y-19733704D02*
X67693285Y-19828942D01*
X67693285Y-19828942D02*
X67645666Y-19876561D01*
X67645666Y-19876561D02*
X67550428Y-19924180D01*
X67550428Y-19924180D02*
X67312333Y-19924180D01*
X67312333Y-19924180D02*
X67169476Y-19876561D01*
X66407571Y-19447990D02*
X66264714Y-19400371D01*
X66264714Y-19400371D02*
X66217095Y-19352752D01*
X66217095Y-19352752D02*
X66169476Y-19257514D01*
X66169476Y-19257514D02*
X66169476Y-19114657D01*
X66169476Y-19114657D02*
X66217095Y-19019419D01*
X66217095Y-19019419D02*
X66264714Y-18971800D01*
X66264714Y-18971800D02*
X66359952Y-18924180D01*
X66359952Y-18924180D02*
X66740904Y-18924180D01*
X66740904Y-18924180D02*
X66740904Y-19924180D01*
X66740904Y-19924180D02*
X66407571Y-19924180D01*
X66407571Y-19924180D02*
X66312333Y-19876561D01*
X66312333Y-19876561D02*
X66264714Y-19828942D01*
X66264714Y-19828942D02*
X66217095Y-19733704D01*
X66217095Y-19733704D02*
X66217095Y-19638466D01*
X66217095Y-19638466D02*
X66264714Y-19543228D01*
X66264714Y-19543228D02*
X66312333Y-19495609D01*
X66312333Y-19495609D02*
X66407571Y-19447990D01*
X66407571Y-19447990D02*
X66740904Y-19447990D01*
X80012333Y-68093819D02*
X79679000Y-67617628D01*
X79440905Y-68093819D02*
X79440905Y-67093819D01*
X79440905Y-67093819D02*
X79821857Y-67093819D01*
X79821857Y-67093819D02*
X79917095Y-67141438D01*
X79917095Y-67141438D02*
X79964714Y-67189057D01*
X79964714Y-67189057D02*
X80012333Y-67284295D01*
X80012333Y-67284295D02*
X80012333Y-67427152D01*
X80012333Y-67427152D02*
X79964714Y-67522390D01*
X79964714Y-67522390D02*
X79917095Y-67570009D01*
X79917095Y-67570009D02*
X79821857Y-67617628D01*
X79821857Y-67617628D02*
X79440905Y-67617628D01*
X80917095Y-67093819D02*
X80440905Y-67093819D01*
X80440905Y-67093819D02*
X80393286Y-67570009D01*
X80393286Y-67570009D02*
X80440905Y-67522390D01*
X80440905Y-67522390D02*
X80536143Y-67474771D01*
X80536143Y-67474771D02*
X80774238Y-67474771D01*
X80774238Y-67474771D02*
X80869476Y-67522390D01*
X80869476Y-67522390D02*
X80917095Y-67570009D01*
X80917095Y-67570009D02*
X80964714Y-67665247D01*
X80964714Y-67665247D02*
X80964714Y-67903342D01*
X80964714Y-67903342D02*
X80917095Y-67998580D01*
X80917095Y-67998580D02*
X80869476Y-68046200D01*
X80869476Y-68046200D02*
X80774238Y-68093819D01*
X80774238Y-68093819D02*
X80536143Y-68093819D01*
X80536143Y-68093819D02*
X80440905Y-68046200D01*
X80440905Y-68046200D02*
X80393286Y-67998580D01*
X51477095Y-72983819D02*
X51477095Y-73793342D01*
X51477095Y-73793342D02*
X51524714Y-73888580D01*
X51524714Y-73888580D02*
X51572333Y-73936200D01*
X51572333Y-73936200D02*
X51667571Y-73983819D01*
X51667571Y-73983819D02*
X51858047Y-73983819D01*
X51858047Y-73983819D02*
X51953285Y-73936200D01*
X51953285Y-73936200D02*
X52000904Y-73888580D01*
X52000904Y-73888580D02*
X52048523Y-73793342D01*
X52048523Y-73793342D02*
X52048523Y-72983819D01*
X52429476Y-72983819D02*
X53048523Y-72983819D01*
X53048523Y-72983819D02*
X52715190Y-73364771D01*
X52715190Y-73364771D02*
X52858047Y-73364771D01*
X52858047Y-73364771D02*
X52953285Y-73412390D01*
X52953285Y-73412390D02*
X53000904Y-73460009D01*
X53000904Y-73460009D02*
X53048523Y-73555247D01*
X53048523Y-73555247D02*
X53048523Y-73793342D01*
X53048523Y-73793342D02*
X53000904Y-73888580D01*
X53000904Y-73888580D02*
X52953285Y-73936200D01*
X52953285Y-73936200D02*
X52858047Y-73983819D01*
X52858047Y-73983819D02*
X52572333Y-73983819D01*
X52572333Y-73983819D02*
X52477095Y-73936200D01*
X52477095Y-73936200D02*
X52429476Y-73888580D01*
X96355666Y-21373819D02*
X96355666Y-22088104D01*
X96355666Y-22088104D02*
X96308047Y-22230961D01*
X96308047Y-22230961D02*
X96212809Y-22326200D01*
X96212809Y-22326200D02*
X96069952Y-22373819D01*
X96069952Y-22373819D02*
X95974714Y-22373819D01*
X96784238Y-21469057D02*
X96831857Y-21421438D01*
X96831857Y-21421438D02*
X96927095Y-21373819D01*
X96927095Y-21373819D02*
X97165190Y-21373819D01*
X97165190Y-21373819D02*
X97260428Y-21421438D01*
X97260428Y-21421438D02*
X97308047Y-21469057D01*
X97308047Y-21469057D02*
X97355666Y-21564295D01*
X97355666Y-21564295D02*
X97355666Y-21659533D01*
X97355666Y-21659533D02*
X97308047Y-21802390D01*
X97308047Y-21802390D02*
X96736619Y-22373819D01*
X96736619Y-22373819D02*
X97355666Y-22373819D01*
X34988580Y-76065666D02*
X35036200Y-76113285D01*
X35036200Y-76113285D02*
X35083819Y-76256142D01*
X35083819Y-76256142D02*
X35083819Y-76351380D01*
X35083819Y-76351380D02*
X35036200Y-76494237D01*
X35036200Y-76494237D02*
X34940961Y-76589475D01*
X34940961Y-76589475D02*
X34845723Y-76637094D01*
X34845723Y-76637094D02*
X34655247Y-76684713D01*
X34655247Y-76684713D02*
X34512390Y-76684713D01*
X34512390Y-76684713D02*
X34321914Y-76637094D01*
X34321914Y-76637094D02*
X34226676Y-76589475D01*
X34226676Y-76589475D02*
X34131438Y-76494237D01*
X34131438Y-76494237D02*
X34083819Y-76351380D01*
X34083819Y-76351380D02*
X34083819Y-76256142D01*
X34083819Y-76256142D02*
X34131438Y-76113285D01*
X34131438Y-76113285D02*
X34179057Y-76065666D01*
X34179057Y-75684713D02*
X34131438Y-75637094D01*
X34131438Y-75637094D02*
X34083819Y-75541856D01*
X34083819Y-75541856D02*
X34083819Y-75303761D01*
X34083819Y-75303761D02*
X34131438Y-75208523D01*
X34131438Y-75208523D02*
X34179057Y-75160904D01*
X34179057Y-75160904D02*
X34274295Y-75113285D01*
X34274295Y-75113285D02*
X34369533Y-75113285D01*
X34369533Y-75113285D02*
X34512390Y-75160904D01*
X34512390Y-75160904D02*
X35083819Y-75732332D01*
X35083819Y-75732332D02*
X35083819Y-75113285D01*
X90812333Y-42428580D02*
X90764714Y-42476200D01*
X90764714Y-42476200D02*
X90621857Y-42523819D01*
X90621857Y-42523819D02*
X90526619Y-42523819D01*
X90526619Y-42523819D02*
X90383762Y-42476200D01*
X90383762Y-42476200D02*
X90288524Y-42380961D01*
X90288524Y-42380961D02*
X90240905Y-42285723D01*
X90240905Y-42285723D02*
X90193286Y-42095247D01*
X90193286Y-42095247D02*
X90193286Y-41952390D01*
X90193286Y-41952390D02*
X90240905Y-41761914D01*
X90240905Y-41761914D02*
X90288524Y-41666676D01*
X90288524Y-41666676D02*
X90383762Y-41571438D01*
X90383762Y-41571438D02*
X90526619Y-41523819D01*
X90526619Y-41523819D02*
X90621857Y-41523819D01*
X90621857Y-41523819D02*
X90764714Y-41571438D01*
X90764714Y-41571438D02*
X90812333Y-41619057D01*
X91764714Y-42523819D02*
X91193286Y-42523819D01*
X91479000Y-42523819D02*
X91479000Y-41523819D01*
X91479000Y-41523819D02*
X91383762Y-41666676D01*
X91383762Y-41666676D02*
X91288524Y-41761914D01*
X91288524Y-41761914D02*
X91193286Y-41809533D01*
X24579200Y-57415332D02*
X24626819Y-57272475D01*
X24626819Y-57272475D02*
X24626819Y-57034380D01*
X24626819Y-57034380D02*
X24579200Y-56939142D01*
X24579200Y-56939142D02*
X24531580Y-56891523D01*
X24531580Y-56891523D02*
X24436342Y-56843904D01*
X24436342Y-56843904D02*
X24341104Y-56843904D01*
X24341104Y-56843904D02*
X24245866Y-56891523D01*
X24245866Y-56891523D02*
X24198247Y-56939142D01*
X24198247Y-56939142D02*
X24150628Y-57034380D01*
X24150628Y-57034380D02*
X24103009Y-57224856D01*
X24103009Y-57224856D02*
X24055390Y-57320094D01*
X24055390Y-57320094D02*
X24007771Y-57367713D01*
X24007771Y-57367713D02*
X23912533Y-57415332D01*
X23912533Y-57415332D02*
X23817295Y-57415332D01*
X23817295Y-57415332D02*
X23722057Y-57367713D01*
X23722057Y-57367713D02*
X23674438Y-57320094D01*
X23674438Y-57320094D02*
X23626819Y-57224856D01*
X23626819Y-57224856D02*
X23626819Y-56986761D01*
X23626819Y-56986761D02*
X23674438Y-56843904D01*
X23626819Y-56510570D02*
X24626819Y-56272475D01*
X24626819Y-56272475D02*
X23912533Y-56081999D01*
X23912533Y-56081999D02*
X24626819Y-55891523D01*
X24626819Y-55891523D02*
X23626819Y-55653428D01*
X24626819Y-54748666D02*
X24626819Y-55320094D01*
X24626819Y-55034380D02*
X23626819Y-55034380D01*
X23626819Y-55034380D02*
X23769676Y-55129618D01*
X23769676Y-55129618D02*
X23864914Y-55224856D01*
X23864914Y-55224856D02*
X23912533Y-55320094D01*
X37358580Y-44945666D02*
X37406200Y-44993285D01*
X37406200Y-44993285D02*
X37453819Y-45136142D01*
X37453819Y-45136142D02*
X37453819Y-45231380D01*
X37453819Y-45231380D02*
X37406200Y-45374237D01*
X37406200Y-45374237D02*
X37310961Y-45469475D01*
X37310961Y-45469475D02*
X37215723Y-45517094D01*
X37215723Y-45517094D02*
X37025247Y-45564713D01*
X37025247Y-45564713D02*
X36882390Y-45564713D01*
X36882390Y-45564713D02*
X36691914Y-45517094D01*
X36691914Y-45517094D02*
X36596676Y-45469475D01*
X36596676Y-45469475D02*
X36501438Y-45374237D01*
X36501438Y-45374237D02*
X36453819Y-45231380D01*
X36453819Y-45231380D02*
X36453819Y-45136142D01*
X36453819Y-45136142D02*
X36501438Y-44993285D01*
X36501438Y-44993285D02*
X36549057Y-44945666D01*
X36453819Y-44088523D02*
X36453819Y-44278999D01*
X36453819Y-44278999D02*
X36501438Y-44374237D01*
X36501438Y-44374237D02*
X36549057Y-44421856D01*
X36549057Y-44421856D02*
X36691914Y-44517094D01*
X36691914Y-44517094D02*
X36882390Y-44564713D01*
X36882390Y-44564713D02*
X37263342Y-44564713D01*
X37263342Y-44564713D02*
X37358580Y-44517094D01*
X37358580Y-44517094D02*
X37406200Y-44469475D01*
X37406200Y-44469475D02*
X37453819Y-44374237D01*
X37453819Y-44374237D02*
X37453819Y-44183761D01*
X37453819Y-44183761D02*
X37406200Y-44088523D01*
X37406200Y-44088523D02*
X37358580Y-44040904D01*
X37358580Y-44040904D02*
X37263342Y-43993285D01*
X37263342Y-43993285D02*
X37025247Y-43993285D01*
X37025247Y-43993285D02*
X36930009Y-44040904D01*
X36930009Y-44040904D02*
X36882390Y-44088523D01*
X36882390Y-44088523D02*
X36834771Y-44183761D01*
X36834771Y-44183761D02*
X36834771Y-44374237D01*
X36834771Y-44374237D02*
X36882390Y-44469475D01*
X36882390Y-44469475D02*
X36930009Y-44517094D01*
X36930009Y-44517094D02*
X37025247Y-44564713D01*
D12*
%TO.C,J1*%
X22589000Y-71799000D02*
X15849000Y-71799000D01*
X16369000Y-66019000D02*
X16369000Y-71799000D01*
X22589000Y-66019000D02*
X22589000Y-71799000D01*
X16249000Y-65779000D02*
X15609000Y-65779000D01*
X22589000Y-66019000D02*
X15849000Y-66019000D01*
X21469000Y-66019000D02*
X21469000Y-71799000D01*
X15849000Y-66019000D02*
X15849000Y-71799000D01*
X15609000Y-65779000D02*
X15609000Y-66179000D01*
%TO.C,C5*%
X74059000Y-76940000D02*
X71152000Y-76940000D01*
X76445000Y-79780000D02*
X73753000Y-79780000D01*
X78154000Y-78620000D02*
X76139000Y-78620000D01*
X76912000Y-79580000D02*
X73286000Y-79580000D01*
X79123000Y-76579000D02*
X71075000Y-76579000D01*
X74059000Y-78220000D02*
X71734000Y-78220000D01*
X79013000Y-77060000D02*
X76139000Y-77060000D01*
X78118000Y-78660000D02*
X76139000Y-78660000D01*
X77750000Y-79020000D02*
X72448000Y-79020000D01*
X79116000Y-76620000D02*
X71082000Y-76620000D01*
X78976000Y-77180000D02*
X76139000Y-77180000D01*
X74059000Y-77980000D02*
X71582000Y-77980000D01*
X79093000Y-76740000D02*
X71105000Y-76740000D01*
X79084000Y-76780000D02*
X76139000Y-76780000D01*
X78408000Y-78300000D02*
X76139000Y-78300000D01*
X74059000Y-78460000D02*
X71910000Y-78460000D01*
X74059000Y-78620000D02*
X72044000Y-78620000D01*
X79035000Y-76980000D02*
X76139000Y-76980000D01*
X74059000Y-78700000D02*
X72116000Y-78700000D01*
X74059000Y-78020000D02*
X71606000Y-78020000D01*
X74059000Y-77620000D02*
X71395000Y-77620000D01*
X78920000Y-77340000D02*
X76139000Y-77340000D01*
X77925000Y-78860000D02*
X72273000Y-78860000D01*
X74059000Y-77060000D02*
X71185000Y-77060000D01*
X79179000Y-75939000D02*
X71019000Y-75939000D01*
X77265000Y-79380000D02*
X72933000Y-79380000D01*
X78319000Y-78420000D02*
X76139000Y-78420000D01*
X78543000Y-78100000D02*
X76139000Y-78100000D01*
X74059000Y-77100000D02*
X71197000Y-77100000D01*
X78839000Y-77540000D02*
X76139000Y-77540000D01*
X74059000Y-77300000D02*
X71264000Y-77300000D01*
X74059000Y-77460000D02*
X71325000Y-77460000D01*
X78592000Y-78020000D02*
X76139000Y-78020000D01*
X79101000Y-76700000D02*
X71097000Y-76700000D01*
X79170000Y-76179000D02*
X71028000Y-76179000D01*
X78349000Y-78380000D02*
X76139000Y-78380000D01*
X75867000Y-79940000D02*
X74331000Y-79940000D01*
X76744000Y-79660000D02*
X73454000Y-79660000D01*
X79136000Y-76499000D02*
X71062000Y-76499000D01*
X74059000Y-77940000D02*
X71559000Y-77940000D01*
X74059000Y-78740000D02*
X72154000Y-78740000D01*
X74059000Y-76860000D02*
X71132000Y-76860000D01*
X77655000Y-79100000D02*
X72543000Y-79100000D01*
X79109000Y-76660000D02*
X71089000Y-76660000D01*
X78904000Y-77380000D02*
X76139000Y-77380000D01*
X77133000Y-79460000D02*
X73065000Y-79460000D01*
X78785000Y-77660000D02*
X76139000Y-77660000D01*
X74059000Y-77540000D02*
X71359000Y-77540000D01*
X74059000Y-77740000D02*
X71452000Y-77740000D01*
X75632000Y-79980000D02*
X74566000Y-79980000D01*
X78255000Y-78500000D02*
X76139000Y-78500000D01*
X78491000Y-78180000D02*
X76139000Y-78180000D01*
X78726000Y-77780000D02*
X76139000Y-77780000D01*
X79156000Y-76339000D02*
X71042000Y-76339000D01*
X77201000Y-79420000D02*
X72997000Y-79420000D01*
X78437000Y-78260000D02*
X76139000Y-78260000D01*
X77814000Y-71889302D02*
X77014000Y-71889302D01*
X79066000Y-76860000D02*
X76139000Y-76860000D01*
X74059000Y-76820000D02*
X71123000Y-76820000D01*
X78683000Y-77860000D02*
X76139000Y-77860000D01*
X78988000Y-77140000D02*
X76139000Y-77140000D01*
X77553000Y-79180000D02*
X72645000Y-79180000D01*
X79173000Y-76139000D02*
X71025000Y-76139000D01*
X74059000Y-78580000D02*
X72009000Y-78580000D01*
X74059000Y-78100000D02*
X71655000Y-78100000D01*
X78856000Y-77500000D02*
X76139000Y-77500000D01*
X78464000Y-78220000D02*
X76139000Y-78220000D01*
X78873000Y-77460000D02*
X76139000Y-77460000D01*
X77499000Y-79220000D02*
X72699000Y-79220000D01*
X74059000Y-77860000D02*
X71515000Y-77860000D01*
X78949000Y-77260000D02*
X76139000Y-77260000D01*
X79056000Y-76900000D02*
X76139000Y-76900000D01*
X78616000Y-77980000D02*
X76139000Y-77980000D01*
X77414000Y-71489302D02*
X77414000Y-72289302D01*
X74059000Y-77420000D02*
X71309000Y-77420000D01*
X74059000Y-78180000D02*
X71707000Y-78180000D01*
X78568000Y-78060000D02*
X76139000Y-78060000D01*
X74059000Y-78260000D02*
X71761000Y-78260000D01*
X79167000Y-76219000D02*
X71031000Y-76219000D01*
X77883000Y-78900000D02*
X72315000Y-78900000D01*
X76651000Y-79700000D02*
X73547000Y-79700000D01*
X77966000Y-78820000D02*
X76139000Y-78820000D01*
X74059000Y-77820000D02*
X71493000Y-77820000D01*
X77840000Y-78940000D02*
X72358000Y-78940000D01*
X79164000Y-76259000D02*
X71034000Y-76259000D01*
X79001000Y-77100000D02*
X76139000Y-77100000D01*
X76989000Y-79540000D02*
X73209000Y-79540000D01*
X77386000Y-79300000D02*
X72812000Y-79300000D01*
X74059000Y-78300000D02*
X71790000Y-78300000D01*
X77327000Y-79340000D02*
X72871000Y-79340000D01*
X76047000Y-79900000D02*
X74151000Y-79900000D01*
X79141000Y-76459000D02*
X71057000Y-76459000D01*
X78288000Y-78460000D02*
X76139000Y-78460000D01*
X78189000Y-78580000D02*
X76139000Y-78580000D01*
X79179000Y-75979000D02*
X71019000Y-75979000D01*
X76197000Y-79860000D02*
X74001000Y-79860000D01*
X78889000Y-77420000D02*
X76139000Y-77420000D01*
X78517000Y-78140000D02*
X76139000Y-78140000D01*
X78082000Y-78700000D02*
X76139000Y-78700000D01*
X78639000Y-77940000D02*
X76139000Y-77940000D01*
X77796000Y-78980000D02*
X72402000Y-78980000D01*
X78044000Y-78740000D02*
X76139000Y-78740000D01*
X79075000Y-76820000D02*
X76139000Y-76820000D01*
X74059000Y-78540000D02*
X71975000Y-78540000D01*
X77063000Y-79500000D02*
X73135000Y-79500000D01*
X74059000Y-76900000D02*
X71142000Y-76900000D01*
X78803000Y-77620000D02*
X76139000Y-77620000D01*
X79175000Y-76099000D02*
X71023000Y-76099000D01*
X74059000Y-76980000D02*
X71163000Y-76980000D01*
X74059000Y-77140000D02*
X71210000Y-77140000D01*
X76552000Y-79740000D02*
X73646000Y-79740000D01*
X74059000Y-77500000D02*
X71342000Y-77500000D01*
X74059000Y-78660000D02*
X72080000Y-78660000D01*
X79160000Y-76299000D02*
X71038000Y-76299000D01*
X74059000Y-76780000D02*
X71114000Y-76780000D01*
X78223000Y-78540000D02*
X76139000Y-78540000D01*
X79151000Y-76379000D02*
X71047000Y-76379000D01*
X76830000Y-79620000D02*
X73368000Y-79620000D01*
X74059000Y-78340000D02*
X71819000Y-78340000D01*
X78821000Y-77580000D02*
X76139000Y-77580000D01*
X78934000Y-77300000D02*
X76139000Y-77300000D01*
X74059000Y-78060000D02*
X71630000Y-78060000D01*
X77604000Y-79140000D02*
X72594000Y-79140000D01*
X77444000Y-79260000D02*
X72754000Y-79260000D01*
X79178000Y-76019000D02*
X71020000Y-76019000D01*
X79046000Y-76940000D02*
X76139000Y-76940000D01*
X74059000Y-77260000D02*
X71249000Y-77260000D01*
X78379000Y-78340000D02*
X76139000Y-78340000D01*
X74059000Y-78140000D02*
X71681000Y-78140000D01*
X78705000Y-77820000D02*
X76139000Y-77820000D01*
X74059000Y-77180000D02*
X71222000Y-77180000D01*
X74059000Y-77220000D02*
X71236000Y-77220000D01*
X74059000Y-77580000D02*
X71377000Y-77580000D01*
X78661000Y-77900000D02*
X76139000Y-77900000D01*
X74059000Y-77380000D02*
X71294000Y-77380000D01*
X79129000Y-76539000D02*
X71069000Y-76539000D01*
X74059000Y-78380000D02*
X71849000Y-78380000D01*
X74059000Y-77020000D02*
X71174000Y-77020000D01*
X79179000Y-75899000D02*
X71019000Y-75899000D01*
X74059000Y-78780000D02*
X72192000Y-78780000D01*
X74059000Y-77780000D02*
X71472000Y-77780000D01*
X74059000Y-78820000D02*
X72232000Y-78820000D01*
X77703000Y-79060000D02*
X72495000Y-79060000D01*
X79147000Y-76419000D02*
X71051000Y-76419000D01*
X74059000Y-77660000D02*
X71413000Y-77660000D01*
X78765000Y-77700000D02*
X76139000Y-77700000D01*
X78746000Y-77740000D02*
X76139000Y-77740000D01*
X74059000Y-77340000D02*
X71278000Y-77340000D01*
X74059000Y-78500000D02*
X71943000Y-78500000D01*
X79024000Y-77020000D02*
X76139000Y-77020000D01*
X78006000Y-78780000D02*
X76139000Y-78780000D01*
X79176000Y-76059000D02*
X71022000Y-76059000D01*
X76328000Y-79820000D02*
X73870000Y-79820000D01*
X74059000Y-78420000D02*
X71879000Y-78420000D01*
X74059000Y-77700000D02*
X71433000Y-77700000D01*
X78962000Y-77220000D02*
X76139000Y-77220000D01*
X74059000Y-77900000D02*
X71537000Y-77900000D01*
X79219000Y-75899000D02*
G75*
G03*
X79219000Y-75899000I-4120000J0D01*
G01*
%TO.C,D2*%
X27909000Y-61839000D02*
X30849000Y-61839000D01*
X27909000Y-61719000D02*
X30849000Y-61719000D01*
X30849000Y-62739000D02*
X30849000Y-57299000D01*
X29379000Y-56279000D02*
X29379000Y-57299000D01*
X27909000Y-62739000D02*
X30849000Y-62739000D01*
X27909000Y-61959000D02*
X30849000Y-61959000D01*
X30849000Y-57299000D02*
X27909000Y-57299000D01*
X29379000Y-63759000D02*
X29379000Y-62739000D01*
X27909000Y-57299000D02*
X27909000Y-62739000D01*
%TO.C,D4*%
X98249000Y-71415000D02*
X98249000Y-71259000D01*
X98249000Y-69099000D02*
X98249000Y-68943000D01*
X95647871Y-71258836D02*
G75*
G03*
X97729960Y-71258999I1041129J1079836D01*
G01*
X98248999Y-68943485D02*
G75*
G03*
X95016666Y-69100392I-1559999J-1235515D01*
G01*
X97729960Y-69099001D02*
G75*
G03*
X95647871Y-69099164I-1040960J-1079999D01*
G01*
X95016666Y-71257608D02*
G75*
G03*
X98248999Y-71414515I1672334J1078608D01*
G01*
%TO.C,U1*%
X48489000Y-48469000D02*
X38209000Y-48469000D01*
X48489000Y-66489000D02*
X48489000Y-48469000D01*
X38209000Y-66489000D02*
X48489000Y-66489000D01*
X45999000Y-48529000D02*
X44349000Y-48529000D01*
X40699000Y-48529000D02*
X40699000Y-66429000D01*
X40699000Y-66429000D02*
X45999000Y-66429000D01*
X42349000Y-48529000D02*
X40699000Y-48529000D01*
X38209000Y-48469000D02*
X38209000Y-66489000D01*
X45999000Y-66429000D02*
X45999000Y-48529000D01*
X42349000Y-48529000D02*
G75*
G03*
X44349000Y-48529000I1000000J0D01*
G01*
%TO.C,D1*%
X30499000Y-25309000D02*
X30499000Y-21069000D01*
X30499000Y-21789000D02*
X28259000Y-21789000D01*
X30499000Y-21669000D02*
X28259000Y-21669000D01*
X28259000Y-25309000D02*
X30499000Y-25309000D01*
X30499000Y-21909000D02*
X28259000Y-21909000D01*
X29379000Y-20419000D02*
X29379000Y-21069000D01*
X30499000Y-21069000D02*
X28259000Y-21069000D01*
X28259000Y-21069000D02*
X28259000Y-25309000D01*
X29379000Y-25959000D02*
X29379000Y-25309000D01*
%TO.C,R1*%
X48529000Y-19919000D02*
X48199000Y-19919000D01*
X45789000Y-26459000D02*
X45789000Y-19919000D01*
X48529000Y-26459000D02*
X48529000Y-19919000D01*
X48199000Y-26459000D02*
X48529000Y-26459000D01*
X46119000Y-26459000D02*
X45789000Y-26459000D01*
X45789000Y-19919000D02*
X46119000Y-19919000D01*
%TO.C,C3*%
X38614000Y-72099000D02*
X38169000Y-72099000D01*
X38614000Y-78339000D02*
X38169000Y-78339000D01*
X40909000Y-78339000D02*
X40464000Y-78339000D01*
X40909000Y-72099000D02*
X40909000Y-78339000D01*
X40909000Y-72099000D02*
X40464000Y-72099000D01*
X38169000Y-72099000D02*
X38169000Y-78339000D01*
%TO.C,R2*%
X40909000Y-19919000D02*
X40579000Y-19919000D01*
X38169000Y-26459000D02*
X38169000Y-19919000D01*
X40909000Y-26459000D02*
X40909000Y-19919000D01*
X40579000Y-26459000D02*
X40909000Y-26459000D01*
X38499000Y-26459000D02*
X38169000Y-26459000D01*
X38169000Y-19919000D02*
X38499000Y-19919000D01*
%TO.C,D3*%
X98249000Y-63795000D02*
X98249000Y-63639000D01*
X98249000Y-61479000D02*
X98249000Y-61323000D01*
X95647871Y-63638836D02*
G75*
G03*
X97729960Y-63638999I1041129J1079836D01*
G01*
X98248999Y-61323485D02*
G75*
G03*
X95016666Y-61480392I-1559999J-1235515D01*
G01*
X97729960Y-61479001D02*
G75*
G03*
X95647871Y-61479164I-1040960J-1079999D01*
G01*
X95016666Y-63637608D02*
G75*
G03*
X98248999Y-63794515I1672334J1078608D01*
G01*
%TO.C,U2*%
X36309000Y-22449000D02*
X36309000Y-18849000D01*
X36297478Y-18810522D02*
G75*
G03*
X31859000Y-20649000I-1838478J-1838478D01*
G01*
X31859000Y-20649000D02*
G75*
G03*
X36297478Y-22487478I2600000J0D01*
G01*
%TO.C,R3*%
X40079000Y-33249000D02*
X40079000Y-33579000D01*
X46619000Y-35989000D02*
X40079000Y-35989000D01*
X46619000Y-33249000D02*
X40079000Y-33249000D01*
X46619000Y-33579000D02*
X46619000Y-33249000D01*
X46619000Y-35659000D02*
X46619000Y-35989000D01*
X40079000Y-35989000D02*
X40079000Y-35659000D01*
%TO.C,R4*%
X88529000Y-63929000D02*
X88529000Y-63599000D01*
X81989000Y-61189000D02*
X88529000Y-61189000D01*
X81989000Y-63929000D02*
X88529000Y-63929000D01*
X81989000Y-63599000D02*
X81989000Y-63929000D01*
X81989000Y-61519000D02*
X81989000Y-61189000D01*
X88529000Y-61189000D02*
X88529000Y-61519000D01*
%TO.C,C4*%
X64014000Y-72099000D02*
X63569000Y-72099000D01*
X64014000Y-78339000D02*
X63569000Y-78339000D01*
X66309000Y-78339000D02*
X65864000Y-78339000D01*
X66309000Y-72099000D02*
X66309000Y-78339000D01*
X66309000Y-72099000D02*
X65864000Y-72099000D01*
X63569000Y-72099000D02*
X63569000Y-78339000D01*
%TO.C,J3*%
X22589000Y-22839000D02*
X22589000Y-31159000D01*
X16369000Y-22839000D02*
X16369000Y-31159000D01*
X22589000Y-22839000D02*
X15849000Y-22839000D01*
X15609000Y-22599000D02*
X15609000Y-22999000D01*
X21469000Y-22839000D02*
X21469000Y-31159000D01*
X16249000Y-22599000D02*
X15609000Y-22599000D01*
X22589000Y-31159000D02*
X15849000Y-31159000D01*
X15849000Y-22839000D02*
X15849000Y-31159000D01*
%TO.C,Q1*%
X36259000Y-32769000D02*
X32659000Y-32769000D01*
X32620522Y-32780522D02*
G75*
G03*
X34459000Y-37219000I1838478J-1838478D01*
G01*
X34459000Y-37219000D02*
G75*
G03*
X36297478Y-32780522I0J2600000D01*
G01*
%TO.C,A1*%
X73829000Y-56209000D02*
X76499000Y-56209000D01*
X63539000Y-12899000D02*
X71419000Y-12899000D01*
X58459000Y-15439000D02*
X58459000Y-58879000D01*
X71419000Y-12899000D02*
X71419000Y-23319000D01*
X63539000Y-23319000D02*
X63539000Y-12899000D01*
X58459000Y-15439000D02*
X63539000Y-15439000D01*
X76499000Y-53669000D02*
X76499000Y-15439000D01*
X73829000Y-18109000D02*
X76499000Y-18109000D01*
X61129000Y-56209000D02*
X61129000Y-18109000D01*
X73829000Y-53669000D02*
X73829000Y-56209000D01*
X61129000Y-18109000D02*
X58459000Y-18109000D01*
X61129000Y-56209000D02*
X58459000Y-56209000D01*
X73829000Y-53669000D02*
X76499000Y-53669000D01*
X58459000Y-58879000D02*
X76499000Y-58879000D01*
X76499000Y-15439000D02*
X71419000Y-15439000D01*
X76499000Y-58879000D02*
X76499000Y-56209000D01*
X71419000Y-23319000D02*
X63539000Y-23319000D01*
X73829000Y-53669000D02*
X73829000Y-18109000D01*
%TO.C,R5*%
X88529000Y-71549000D02*
X88529000Y-71219000D01*
X81989000Y-68809000D02*
X88529000Y-68809000D01*
X81989000Y-71549000D02*
X88529000Y-71549000D01*
X81989000Y-71219000D02*
X81989000Y-71549000D01*
X81989000Y-69139000D02*
X81989000Y-68809000D01*
X88529000Y-68809000D02*
X88529000Y-69139000D01*
%TO.C,U3*%
X47119000Y-74529000D02*
X57359000Y-74529000D01*
X50389000Y-74529000D02*
X50389000Y-76039000D01*
X54090000Y-74529000D02*
X54090000Y-76039000D01*
X47119000Y-74529000D02*
X47119000Y-79170000D01*
X47119000Y-79170000D02*
X57359000Y-79170000D01*
X57359000Y-74529000D02*
X57359000Y-79170000D01*
X47119000Y-76039000D02*
X57359000Y-76039000D01*
%TO.C,J2*%
X96689000Y-25729000D02*
X96689000Y-23129000D01*
X94089000Y-24459000D02*
X94089000Y-23129000D01*
X99289000Y-23129000D02*
X99289000Y-33409000D01*
X94089000Y-33409000D02*
X99289000Y-33409000D01*
X94089000Y-25729000D02*
X94089000Y-33409000D01*
X94089000Y-25729000D02*
X96689000Y-25729000D01*
X94089000Y-23129000D02*
X95419000Y-23129000D01*
X96689000Y-23129000D02*
X99289000Y-23129000D01*
%TO.C,C2*%
X28339000Y-76940000D02*
X25432000Y-76940000D01*
X30725000Y-79780000D02*
X28033000Y-79780000D01*
X32434000Y-78620000D02*
X30419000Y-78620000D01*
X31192000Y-79580000D02*
X27566000Y-79580000D01*
X33403000Y-76579000D02*
X25355000Y-76579000D01*
X28339000Y-78220000D02*
X26014000Y-78220000D01*
X33293000Y-77060000D02*
X30419000Y-77060000D01*
X32398000Y-78660000D02*
X30419000Y-78660000D01*
X32030000Y-79020000D02*
X26728000Y-79020000D01*
X33396000Y-76620000D02*
X25362000Y-76620000D01*
X33256000Y-77180000D02*
X30419000Y-77180000D01*
X28339000Y-77980000D02*
X25862000Y-77980000D01*
X33373000Y-76740000D02*
X25385000Y-76740000D01*
X33364000Y-76780000D02*
X30419000Y-76780000D01*
X32688000Y-78300000D02*
X30419000Y-78300000D01*
X28339000Y-78460000D02*
X26190000Y-78460000D01*
X28339000Y-78620000D02*
X26324000Y-78620000D01*
X33315000Y-76980000D02*
X30419000Y-76980000D01*
X28339000Y-78700000D02*
X26396000Y-78700000D01*
X28339000Y-78020000D02*
X25886000Y-78020000D01*
X28339000Y-77620000D02*
X25675000Y-77620000D01*
X33200000Y-77340000D02*
X30419000Y-77340000D01*
X32205000Y-78860000D02*
X26553000Y-78860000D01*
X28339000Y-77060000D02*
X25465000Y-77060000D01*
X33459000Y-75939000D02*
X25299000Y-75939000D01*
X31545000Y-79380000D02*
X27213000Y-79380000D01*
X32599000Y-78420000D02*
X30419000Y-78420000D01*
X32823000Y-78100000D02*
X30419000Y-78100000D01*
X28339000Y-77100000D02*
X25477000Y-77100000D01*
X33119000Y-77540000D02*
X30419000Y-77540000D01*
X28339000Y-77300000D02*
X25544000Y-77300000D01*
X28339000Y-77460000D02*
X25605000Y-77460000D01*
X32872000Y-78020000D02*
X30419000Y-78020000D01*
X33381000Y-76700000D02*
X25377000Y-76700000D01*
X33450000Y-76179000D02*
X25308000Y-76179000D01*
X32629000Y-78380000D02*
X30419000Y-78380000D01*
X30147000Y-79940000D02*
X28611000Y-79940000D01*
X31024000Y-79660000D02*
X27734000Y-79660000D01*
X33416000Y-76499000D02*
X25342000Y-76499000D01*
X28339000Y-77940000D02*
X25839000Y-77940000D01*
X28339000Y-78740000D02*
X26434000Y-78740000D01*
X28339000Y-76860000D02*
X25412000Y-76860000D01*
X31935000Y-79100000D02*
X26823000Y-79100000D01*
X33389000Y-76660000D02*
X25369000Y-76660000D01*
X33184000Y-77380000D02*
X30419000Y-77380000D01*
X31413000Y-79460000D02*
X27345000Y-79460000D01*
X33065000Y-77660000D02*
X30419000Y-77660000D01*
X28339000Y-77540000D02*
X25639000Y-77540000D01*
X28339000Y-77740000D02*
X25732000Y-77740000D01*
X29912000Y-79980000D02*
X28846000Y-79980000D01*
X32535000Y-78500000D02*
X30419000Y-78500000D01*
X32771000Y-78180000D02*
X30419000Y-78180000D01*
X33006000Y-77780000D02*
X30419000Y-77780000D01*
X33436000Y-76339000D02*
X25322000Y-76339000D01*
X31481000Y-79420000D02*
X27277000Y-79420000D01*
X32717000Y-78260000D02*
X30419000Y-78260000D01*
X32094000Y-71889302D02*
X31294000Y-71889302D01*
X33346000Y-76860000D02*
X30419000Y-76860000D01*
X28339000Y-76820000D02*
X25403000Y-76820000D01*
X32963000Y-77860000D02*
X30419000Y-77860000D01*
X33268000Y-77140000D02*
X30419000Y-77140000D01*
X31833000Y-79180000D02*
X26925000Y-79180000D01*
X33453000Y-76139000D02*
X25305000Y-76139000D01*
X28339000Y-78580000D02*
X26289000Y-78580000D01*
X28339000Y-78100000D02*
X25935000Y-78100000D01*
X33136000Y-77500000D02*
X30419000Y-77500000D01*
X32744000Y-78220000D02*
X30419000Y-78220000D01*
X33153000Y-77460000D02*
X30419000Y-77460000D01*
X31779000Y-79220000D02*
X26979000Y-79220000D01*
X28339000Y-77860000D02*
X25795000Y-77860000D01*
X33229000Y-77260000D02*
X30419000Y-77260000D01*
X33336000Y-76900000D02*
X30419000Y-76900000D01*
X32896000Y-77980000D02*
X30419000Y-77980000D01*
X31694000Y-71489302D02*
X31694000Y-72289302D01*
X28339000Y-77420000D02*
X25589000Y-77420000D01*
X28339000Y-78180000D02*
X25987000Y-78180000D01*
X32848000Y-78060000D02*
X30419000Y-78060000D01*
X28339000Y-78260000D02*
X26041000Y-78260000D01*
X33447000Y-76219000D02*
X25311000Y-76219000D01*
X32163000Y-78900000D02*
X26595000Y-78900000D01*
X30931000Y-79700000D02*
X27827000Y-79700000D01*
X32246000Y-78820000D02*
X30419000Y-78820000D01*
X28339000Y-77820000D02*
X25773000Y-77820000D01*
X32120000Y-78940000D02*
X26638000Y-78940000D01*
X33444000Y-76259000D02*
X25314000Y-76259000D01*
X33281000Y-77100000D02*
X30419000Y-77100000D01*
X31269000Y-79540000D02*
X27489000Y-79540000D01*
X31666000Y-79300000D02*
X27092000Y-79300000D01*
X28339000Y-78300000D02*
X26070000Y-78300000D01*
X31607000Y-79340000D02*
X27151000Y-79340000D01*
X30327000Y-79900000D02*
X28431000Y-79900000D01*
X33421000Y-76459000D02*
X25337000Y-76459000D01*
X32568000Y-78460000D02*
X30419000Y-78460000D01*
X32469000Y-78580000D02*
X30419000Y-78580000D01*
X33459000Y-75979000D02*
X25299000Y-75979000D01*
X30477000Y-79860000D02*
X28281000Y-79860000D01*
X33169000Y-77420000D02*
X30419000Y-77420000D01*
X32797000Y-78140000D02*
X30419000Y-78140000D01*
X32362000Y-78700000D02*
X30419000Y-78700000D01*
X32919000Y-77940000D02*
X30419000Y-77940000D01*
X32076000Y-78980000D02*
X26682000Y-78980000D01*
X32324000Y-78740000D02*
X30419000Y-78740000D01*
X33355000Y-76820000D02*
X30419000Y-76820000D01*
X28339000Y-78540000D02*
X26255000Y-78540000D01*
X31343000Y-79500000D02*
X27415000Y-79500000D01*
X28339000Y-76900000D02*
X25422000Y-76900000D01*
X33083000Y-77620000D02*
X30419000Y-77620000D01*
X33455000Y-76099000D02*
X25303000Y-76099000D01*
X28339000Y-76980000D02*
X25443000Y-76980000D01*
X28339000Y-77140000D02*
X25490000Y-77140000D01*
X30832000Y-79740000D02*
X27926000Y-79740000D01*
X28339000Y-77500000D02*
X25622000Y-77500000D01*
X28339000Y-78660000D02*
X26360000Y-78660000D01*
X33440000Y-76299000D02*
X25318000Y-76299000D01*
X28339000Y-76780000D02*
X25394000Y-76780000D01*
X32503000Y-78540000D02*
X30419000Y-78540000D01*
X33431000Y-76379000D02*
X25327000Y-76379000D01*
X31110000Y-79620000D02*
X27648000Y-79620000D01*
X28339000Y-78340000D02*
X26099000Y-78340000D01*
X33101000Y-77580000D02*
X30419000Y-77580000D01*
X33214000Y-77300000D02*
X30419000Y-77300000D01*
X28339000Y-78060000D02*
X25910000Y-78060000D01*
X31884000Y-79140000D02*
X26874000Y-79140000D01*
X31724000Y-79260000D02*
X27034000Y-79260000D01*
X33458000Y-76019000D02*
X25300000Y-76019000D01*
X33326000Y-76940000D02*
X30419000Y-76940000D01*
X28339000Y-77260000D02*
X25529000Y-77260000D01*
X32659000Y-78340000D02*
X30419000Y-78340000D01*
X28339000Y-78140000D02*
X25961000Y-78140000D01*
X32985000Y-77820000D02*
X30419000Y-77820000D01*
X28339000Y-77180000D02*
X25502000Y-77180000D01*
X28339000Y-77220000D02*
X25516000Y-77220000D01*
X28339000Y-77580000D02*
X25657000Y-77580000D01*
X32941000Y-77900000D02*
X30419000Y-77900000D01*
X28339000Y-77380000D02*
X25574000Y-77380000D01*
X33409000Y-76539000D02*
X25349000Y-76539000D01*
X28339000Y-78380000D02*
X26129000Y-78380000D01*
X28339000Y-77020000D02*
X25454000Y-77020000D01*
X33459000Y-75899000D02*
X25299000Y-75899000D01*
X28339000Y-78780000D02*
X26472000Y-78780000D01*
X28339000Y-77780000D02*
X25752000Y-77780000D01*
X28339000Y-78820000D02*
X26512000Y-78820000D01*
X31983000Y-79060000D02*
X26775000Y-79060000D01*
X33427000Y-76419000D02*
X25331000Y-76419000D01*
X28339000Y-77660000D02*
X25693000Y-77660000D01*
X33045000Y-77700000D02*
X30419000Y-77700000D01*
X33026000Y-77740000D02*
X30419000Y-77740000D01*
X28339000Y-77340000D02*
X25558000Y-77340000D01*
X28339000Y-78500000D02*
X26223000Y-78500000D01*
X33304000Y-77020000D02*
X30419000Y-77020000D01*
X32286000Y-78780000D02*
X30419000Y-78780000D01*
X33456000Y-76059000D02*
X25302000Y-76059000D01*
X30608000Y-79820000D02*
X28150000Y-79820000D01*
X28339000Y-78420000D02*
X26159000Y-78420000D01*
X28339000Y-77700000D02*
X25713000Y-77700000D01*
X33242000Y-77220000D02*
X30419000Y-77220000D01*
X28339000Y-77900000D02*
X25817000Y-77900000D01*
X33499000Y-75899000D02*
G75*
G03*
X33499000Y-75899000I-4120000J0D01*
G01*
%TO.C,C1*%
X92020000Y-48359000D02*
X92020000Y-51266000D01*
X94860000Y-45973000D02*
X94860000Y-48665000D01*
X93700000Y-44264000D02*
X93700000Y-46279000D01*
X94660000Y-45506000D02*
X94660000Y-49132000D01*
X91659000Y-43295000D02*
X91659000Y-51343000D01*
X93300000Y-48359000D02*
X93300000Y-50684000D01*
X92140000Y-43405000D02*
X92140000Y-46279000D01*
X93740000Y-44300000D02*
X93740000Y-46279000D01*
X94100000Y-44668000D02*
X94100000Y-49970000D01*
X91700000Y-43302000D02*
X91700000Y-51336000D01*
X92260000Y-43442000D02*
X92260000Y-46279000D01*
X93060000Y-48359000D02*
X93060000Y-50836000D01*
X91820000Y-43325000D02*
X91820000Y-51313000D01*
X91860000Y-43334000D02*
X91860000Y-46279000D01*
X93380000Y-44010000D02*
X93380000Y-46279000D01*
X93540000Y-48359000D02*
X93540000Y-50508000D01*
X93700000Y-48359000D02*
X93700000Y-50374000D01*
X92060000Y-43383000D02*
X92060000Y-46279000D01*
X93780000Y-48359000D02*
X93780000Y-50302000D01*
X93100000Y-48359000D02*
X93100000Y-50812000D01*
X92700000Y-48359000D02*
X92700000Y-51023000D01*
X92420000Y-43498000D02*
X92420000Y-46279000D01*
X93940000Y-44493000D02*
X93940000Y-50145000D01*
X92140000Y-48359000D02*
X92140000Y-51233000D01*
X91019000Y-43239000D02*
X91019000Y-51399000D01*
X94460000Y-45153000D02*
X94460000Y-49485000D01*
X93500000Y-44099000D02*
X93500000Y-46279000D01*
X93180000Y-43875000D02*
X93180000Y-46279000D01*
X92180000Y-48359000D02*
X92180000Y-51221000D01*
X92620000Y-43579000D02*
X92620000Y-46279000D01*
X92380000Y-48359000D02*
X92380000Y-51154000D01*
X92540000Y-48359000D02*
X92540000Y-51093000D01*
X93100000Y-43826000D02*
X93100000Y-46279000D01*
X91780000Y-43317000D02*
X91780000Y-51321000D01*
X91259000Y-43248000D02*
X91259000Y-51390000D01*
X93460000Y-44069000D02*
X93460000Y-46279000D01*
X95020000Y-46551000D02*
X95020000Y-48087000D01*
X94740000Y-45674000D02*
X94740000Y-48964000D01*
X91579000Y-43282000D02*
X91579000Y-51356000D01*
X93020000Y-48359000D02*
X93020000Y-50859000D01*
X93820000Y-48359000D02*
X93820000Y-50264000D01*
X91940000Y-48359000D02*
X91940000Y-51286000D01*
X94180000Y-44763000D02*
X94180000Y-49875000D01*
X91740000Y-43309000D02*
X91740000Y-51329000D01*
X92460000Y-43514000D02*
X92460000Y-46279000D01*
X94540000Y-45285000D02*
X94540000Y-49353000D01*
X92740000Y-43633000D02*
X92740000Y-46279000D01*
X92620000Y-48359000D02*
X92620000Y-51059000D01*
X92820000Y-48359000D02*
X92820000Y-50966000D01*
X95060000Y-46786000D02*
X95060000Y-47852000D01*
X93580000Y-44163000D02*
X93580000Y-46279000D01*
X93260000Y-43927000D02*
X93260000Y-46279000D01*
X92860000Y-43692000D02*
X92860000Y-46279000D01*
X91419000Y-43262000D02*
X91419000Y-51376000D01*
X94500000Y-45217000D02*
X94500000Y-49421000D01*
X93340000Y-43981000D02*
X93340000Y-46279000D01*
X86969302Y-44604000D02*
X86969302Y-45404000D01*
X91940000Y-43352000D02*
X91940000Y-46279000D01*
X91900000Y-48359000D02*
X91900000Y-51295000D01*
X92940000Y-43735000D02*
X92940000Y-46279000D01*
X92220000Y-43430000D02*
X92220000Y-46279000D01*
X94260000Y-44865000D02*
X94260000Y-49773000D01*
X91219000Y-43245000D02*
X91219000Y-51393000D01*
X93660000Y-48359000D02*
X93660000Y-50409000D01*
X93180000Y-48359000D02*
X93180000Y-50763000D01*
X92580000Y-43562000D02*
X92580000Y-46279000D01*
X93300000Y-43954000D02*
X93300000Y-46279000D01*
X92540000Y-43545000D02*
X92540000Y-46279000D01*
X94300000Y-44919000D02*
X94300000Y-49719000D01*
X92940000Y-48359000D02*
X92940000Y-50903000D01*
X92340000Y-43469000D02*
X92340000Y-46279000D01*
X91980000Y-43362000D02*
X91980000Y-46279000D01*
X93060000Y-43802000D02*
X93060000Y-46279000D01*
X86569302Y-45004000D02*
X87369302Y-45004000D01*
X92500000Y-48359000D02*
X92500000Y-51109000D01*
X93260000Y-48359000D02*
X93260000Y-50711000D01*
X93140000Y-43850000D02*
X93140000Y-46279000D01*
X93340000Y-48359000D02*
X93340000Y-50657000D01*
X91299000Y-43251000D02*
X91299000Y-51387000D01*
X93980000Y-44535000D02*
X93980000Y-50103000D01*
X94780000Y-45767000D02*
X94780000Y-48871000D01*
X93900000Y-44452000D02*
X93900000Y-46279000D01*
X92900000Y-48359000D02*
X92900000Y-50925000D01*
X94020000Y-44578000D02*
X94020000Y-50060000D01*
X91339000Y-43254000D02*
X91339000Y-51384000D01*
X92180000Y-43417000D02*
X92180000Y-46279000D01*
X94620000Y-45429000D02*
X94620000Y-49209000D01*
X94380000Y-45032000D02*
X94380000Y-49606000D01*
X93380000Y-48359000D02*
X93380000Y-50628000D01*
X94420000Y-45091000D02*
X94420000Y-49547000D01*
X94980000Y-46371000D02*
X94980000Y-48267000D01*
X91539000Y-43277000D02*
X91539000Y-51361000D01*
X93540000Y-44130000D02*
X93540000Y-46279000D01*
X93660000Y-44229000D02*
X93660000Y-46279000D01*
X91059000Y-43239000D02*
X91059000Y-51399000D01*
X94940000Y-46221000D02*
X94940000Y-48417000D01*
X92500000Y-43529000D02*
X92500000Y-46279000D01*
X93220000Y-43901000D02*
X93220000Y-46279000D01*
X93780000Y-44336000D02*
X93780000Y-46279000D01*
X93020000Y-43779000D02*
X93020000Y-46279000D01*
X94060000Y-44622000D02*
X94060000Y-50016000D01*
X93820000Y-44374000D02*
X93820000Y-46279000D01*
X91900000Y-43343000D02*
X91900000Y-46279000D01*
X93620000Y-48359000D02*
X93620000Y-50443000D01*
X94580000Y-45355000D02*
X94580000Y-49283000D01*
X91980000Y-48359000D02*
X91980000Y-51276000D01*
X92700000Y-43615000D02*
X92700000Y-46279000D01*
X91179000Y-43243000D02*
X91179000Y-51395000D01*
X92060000Y-48359000D02*
X92060000Y-51255000D01*
X92220000Y-48359000D02*
X92220000Y-51208000D01*
X94820000Y-45866000D02*
X94820000Y-48772000D01*
X92580000Y-48359000D02*
X92580000Y-51076000D01*
X93740000Y-48359000D02*
X93740000Y-50338000D01*
X91379000Y-43258000D02*
X91379000Y-51380000D01*
X91860000Y-48359000D02*
X91860000Y-51304000D01*
X93620000Y-44195000D02*
X93620000Y-46279000D01*
X91459000Y-43267000D02*
X91459000Y-51371000D01*
X94700000Y-45588000D02*
X94700000Y-49050000D01*
X93420000Y-48359000D02*
X93420000Y-50599000D01*
X92660000Y-43597000D02*
X92660000Y-46279000D01*
X92380000Y-43484000D02*
X92380000Y-46279000D01*
X93140000Y-48359000D02*
X93140000Y-50788000D01*
X94220000Y-44814000D02*
X94220000Y-49824000D01*
X94340000Y-44974000D02*
X94340000Y-49664000D01*
X91099000Y-43240000D02*
X91099000Y-51398000D01*
X92020000Y-43372000D02*
X92020000Y-46279000D01*
X92340000Y-48359000D02*
X92340000Y-51169000D01*
X93420000Y-44039000D02*
X93420000Y-46279000D01*
X93220000Y-48359000D02*
X93220000Y-50737000D01*
X92900000Y-43713000D02*
X92900000Y-46279000D01*
X92260000Y-48359000D02*
X92260000Y-51196000D01*
X92300000Y-48359000D02*
X92300000Y-51182000D01*
X92660000Y-48359000D02*
X92660000Y-51041000D01*
X92980000Y-43757000D02*
X92980000Y-46279000D01*
X92460000Y-48359000D02*
X92460000Y-51124000D01*
X91619000Y-43289000D02*
X91619000Y-51349000D01*
X93460000Y-48359000D02*
X93460000Y-50569000D01*
X92100000Y-48359000D02*
X92100000Y-51244000D01*
X90979000Y-43239000D02*
X90979000Y-51399000D01*
X93860000Y-48359000D02*
X93860000Y-50226000D01*
X92860000Y-48359000D02*
X92860000Y-50946000D01*
X93900000Y-48359000D02*
X93900000Y-50186000D01*
X94140000Y-44715000D02*
X94140000Y-49923000D01*
X91499000Y-43271000D02*
X91499000Y-51367000D01*
X92740000Y-48359000D02*
X92740000Y-51005000D01*
X92780000Y-43653000D02*
X92780000Y-46279000D01*
X92820000Y-43672000D02*
X92820000Y-46279000D01*
X92420000Y-48359000D02*
X92420000Y-51140000D01*
X93580000Y-48359000D02*
X93580000Y-50475000D01*
X92100000Y-43394000D02*
X92100000Y-46279000D01*
X93860000Y-44412000D02*
X93860000Y-46279000D01*
X91139000Y-43242000D02*
X91139000Y-51396000D01*
X94900000Y-46090000D02*
X94900000Y-48548000D01*
X93500000Y-48359000D02*
X93500000Y-50539000D01*
X92780000Y-48359000D02*
X92780000Y-50985000D01*
X92300000Y-43456000D02*
X92300000Y-46279000D01*
X92980000Y-48359000D02*
X92980000Y-50881000D01*
X95099000Y-47319000D02*
G75*
G03*
X95099000Y-47319000I-4120000J0D01*
G01*
%TO.C,SW1*%
X22589000Y-59099000D02*
X15849000Y-59099000D01*
X16369000Y-53319000D02*
X16369000Y-59099000D01*
X22589000Y-53319000D02*
X22589000Y-59099000D01*
X16249000Y-53079000D02*
X15609000Y-53079000D01*
X22589000Y-53319000D02*
X15849000Y-53319000D01*
X21469000Y-53319000D02*
X21469000Y-59099000D01*
X15849000Y-53319000D02*
X15849000Y-59099000D01*
X15609000Y-53079000D02*
X15609000Y-53479000D01*
%TO.C,C6*%
X45159000Y-43854000D02*
X45159000Y-43409000D01*
X38919000Y-43854000D02*
X38919000Y-43409000D01*
X38919000Y-46149000D02*
X38919000Y-45704000D01*
X45159000Y-46149000D02*
X38919000Y-46149000D01*
X45159000Y-46149000D02*
X45159000Y-45704000D01*
X45159000Y-43409000D02*
X38919000Y-43409000D01*
%TD*%
M02*
