%TF.GenerationSoftware,KiCad,Pcbnew,7.0.6*%
%TF.CreationDate,2023-08-12T10:32:04+02:00*%
%TF.ProjectId,ps2_mouse_to_serial_port_adapter_in_a_box,7073325f-6d6f-4757-9365-5f746f5f7365,rev?*%
%TF.SameCoordinates,Original*%
%TF.FileFunction,Soldermask,Top*%
%TF.FilePolarity,Negative*%
%FSLAX46Y46*%
G04 Gerber Fmt 4.6, Leading zero omitted, Abs format (unit mm)*
G04 Created by KiCad (PCBNEW 7.0.6) date 2023-08-12 10:32:04*
%MOMM*%
%LPD*%
G01*
G04 APERTURE LIST*
%ADD10R,2.100000X2.100000*%
%ADD11C,2.100000*%
%ADD12R,1.600000X1.600000*%
%ADD13C,1.600000*%
%ADD14C,4.000500*%
%ADD15R,2.200000X2.200000*%
%ADD16O,2.200000X2.200000*%
%ADD17R,1.800000X1.800000*%
%ADD18C,1.800000*%
%ADD19O,1.600000X1.600000*%
%ADD20R,1.500000X1.050000*%
%ADD21O,1.500000X1.050000*%
%ADD22R,1.050000X1.500000*%
%ADD23O,1.050000X1.500000*%
%ADD24R,1.905000X2.000000*%
%ADD25O,1.905000X2.000000*%
%ADD26R,1.700000X1.700000*%
%ADD27O,1.700000X1.700000*%
G04 APERTURE END LIST*
D10*
%TO.C,J1*%
X33020000Y-81280000D03*
D11*
X33020000Y-83820000D03*
%TD*%
D12*
%TO.C,C5*%
X88900000Y-87640000D03*
D13*
X88900000Y-91440000D03*
%TD*%
D14*
%TO.C,*%
X27940000Y-27940000D03*
%TD*%
%TO.C,*%
X114300000Y-93980000D03*
%TD*%
D15*
%TO.C,D2*%
X43180000Y-78740000D03*
D16*
X43180000Y-68580000D03*
%TD*%
D17*
%TO.C,D4*%
X111760000Y-83820000D03*
D18*
X109220000Y-83820000D03*
%TD*%
D12*
%TO.C,U1*%
X53340000Y-63500000D03*
D19*
X53340000Y-66040000D03*
X53340000Y-68580000D03*
X53340000Y-71120000D03*
X53340000Y-73660000D03*
X53340000Y-76200000D03*
X53340000Y-78740000D03*
X60960000Y-78740000D03*
X60960000Y-76200000D03*
X60960000Y-73660000D03*
X60960000Y-71120000D03*
X60960000Y-68580000D03*
X60960000Y-66040000D03*
X60960000Y-63500000D03*
%TD*%
D12*
%TO.C,D1*%
X43180000Y-33020000D03*
D19*
X43180000Y-40640000D03*
%TD*%
D13*
%TO.C,R1*%
X60960000Y-40640000D03*
D19*
X60960000Y-33020000D03*
%TD*%
D13*
%TO.C,C3*%
X53340000Y-86360000D03*
X53340000Y-91360000D03*
%TD*%
%TO.C,R2*%
X53340000Y-40640000D03*
D19*
X53340000Y-33020000D03*
%TD*%
D17*
%TO.C,D3*%
X111760000Y-76200000D03*
D18*
X109220000Y-76200000D03*
%TD*%
D20*
%TO.C,U2*%
X48260000Y-35560000D03*
D21*
X48260000Y-34290000D03*
X48260000Y-33020000D03*
%TD*%
D14*
%TO.C,*%
X27940000Y-93980000D03*
%TD*%
D13*
%TO.C,R3*%
X60960000Y-48260000D03*
D19*
X53340000Y-48260000D03*
%TD*%
D13*
%TO.C,R4*%
X95250000Y-76200000D03*
D19*
X102870000Y-76200000D03*
%TD*%
D14*
%TO.C,*%
X114300000Y-27940000D03*
%TD*%
D13*
%TO.C,C4*%
X78740000Y-86360000D03*
X78740000Y-91360000D03*
%TD*%
D10*
%TO.C,J3*%
X33020000Y-38100000D03*
D11*
X33020000Y-40640000D03*
X33020000Y-43180000D03*
%TD*%
D22*
%TO.C,Q1*%
X49530000Y-48260000D03*
D23*
X48260000Y-48260000D03*
X46990000Y-48260000D03*
%TD*%
D12*
%TO.C,A1*%
X88900000Y-68580000D03*
D19*
X88900000Y-66040000D03*
X88900000Y-63500000D03*
X88900000Y-60960000D03*
X88900000Y-58420000D03*
X88900000Y-55880000D03*
X88900000Y-53340000D03*
X88900000Y-50800000D03*
X88900000Y-48260000D03*
X88900000Y-45720000D03*
X88900000Y-43180000D03*
X88900000Y-40640000D03*
X88900000Y-38100000D03*
X88900000Y-35560000D03*
X88900000Y-33020000D03*
X73660000Y-33020000D03*
X73660000Y-35560000D03*
X73660000Y-38100000D03*
X73660000Y-40640000D03*
X73660000Y-43180000D03*
X73660000Y-45720000D03*
X73660000Y-48260000D03*
X73660000Y-50800000D03*
X73660000Y-53340000D03*
X73660000Y-55880000D03*
X73660000Y-58420000D03*
X73660000Y-60960000D03*
X73660000Y-63500000D03*
X73660000Y-66040000D03*
X73660000Y-68580000D03*
%TD*%
D13*
%TO.C,R5*%
X95250000Y-83820000D03*
D19*
X102870000Y-83820000D03*
%TD*%
D24*
%TO.C,U3*%
X63500000Y-91440000D03*
D25*
X66040000Y-91440000D03*
X68580000Y-91440000D03*
%TD*%
D26*
%TO.C,J2*%
X109220000Y-38100000D03*
D27*
X111760000Y-38100000D03*
X109220000Y-40640000D03*
X111760000Y-40640000D03*
X109220000Y-43180000D03*
X111760000Y-43180000D03*
X109220000Y-45720000D03*
X111760000Y-45720000D03*
%TD*%
D12*
%TO.C,C2*%
X43180000Y-87640000D03*
D13*
X43180000Y-91440000D03*
%TD*%
D12*
%TO.C,C1*%
X102880000Y-60960000D03*
D13*
X106680000Y-60960000D03*
%TD*%
D10*
%TO.C,SW1*%
X33020000Y-68580000D03*
D11*
X33020000Y-71120000D03*
%TD*%
D13*
%TO.C,C6*%
X58340000Y-58420000D03*
X53340000Y-58420000D03*
%TD*%
M02*
