M48
; DRILL file {KiCad 7.0.6} date Sat Aug 12 10:32:07 2023
; FORMAT={-:-/ absolute / inch / decimal}
; #@! TF.CreationDate,2023-08-12T10:32:07+02:00
; #@! TF.GenerationSoftware,Kicad,Pcbnew,7.0.6
; #@! TF.FileFunction,Plated,1,2,PTH
FMAT,2
INCH
; #@! TA.AperFunction,Plated,PTH,ComponentDrill
T1C0.0295
; #@! TA.AperFunction,Plated,PTH,ComponentDrill
T2C0.0315
; #@! TA.AperFunction,Plated,PTH,ComponentDrill
T3C0.0354
; #@! TA.AperFunction,Plated,PTH,ComponentDrill
T4C0.0394
; #@! TA.AperFunction,Plated,PTH,ComponentDrill
T5C0.0433
; #@! TA.AperFunction,Plated,PTH,ComponentDrill
T6C0.0902
%
G90
G05
T1
X1.85Y-1.9
X1.9Y-1.3
X1.9Y-1.35
X1.9Y-1.4
X1.9Y-1.9
X1.95Y-1.9
T2
X1.7Y-1.3
X1.7Y-1.6
X1.7Y-3.4504
X1.7Y-3.6
X2.1Y-1.3
X2.1Y-1.6
X2.1Y-1.9
X2.1Y-2.3
X2.1Y-2.5
X2.1Y-2.6
X2.1Y-2.7
X2.1Y-2.8
X2.1Y-2.9
X2.1Y-3.0
X2.1Y-3.1
X2.1Y-3.4
X2.1Y-3.5969
X2.2969Y-2.3
X2.4Y-1.3
X2.4Y-1.6
X2.4Y-1.9
X2.4Y-2.5
X2.4Y-2.6
X2.4Y-2.7
X2.4Y-2.8
X2.4Y-2.9
X2.4Y-3.0
X2.4Y-3.1
X3.1Y-3.4
X3.1Y-3.5969
X3.5Y-3.4504
X3.5Y-3.6
X3.75Y-3.0
X3.75Y-3.3
X4.05Y-3.0
X4.05Y-3.3
X4.0504Y-2.4
X4.2Y-2.4
T3
X4.3Y-3.0
X4.3Y-3.3
X4.4Y-3.0
X4.4Y-3.3
T4
X2.9Y-1.3
X2.9Y-1.4
X2.9Y-1.5
X2.9Y-1.6
X2.9Y-1.7
X2.9Y-1.8
X2.9Y-1.9
X2.9Y-2.0
X2.9Y-2.1
X2.9Y-2.2
X2.9Y-2.3
X2.9Y-2.4
X2.9Y-2.5
X2.9Y-2.6
X2.9Y-2.7
X3.5Y-1.3
X3.5Y-1.4
X3.5Y-1.5
X3.5Y-1.6
X3.5Y-1.7
X3.5Y-1.8
X3.5Y-1.9
X3.5Y-2.0
X3.5Y-2.1
X3.5Y-2.2
X3.5Y-2.3
X3.5Y-2.4
X3.5Y-2.5
X3.5Y-2.6
X3.5Y-2.7
X4.3Y-1.5
X4.3Y-1.6
X4.3Y-1.7
X4.3Y-1.8
X4.4Y-1.5
X4.4Y-1.6
X4.4Y-1.7
X4.4Y-1.8
T5
X1.3Y-1.5
X1.3Y-1.6
X1.3Y-1.7
X1.3Y-2.7
X1.3Y-2.8
X1.3Y-3.2
X1.3Y-3.3
X1.7Y-2.7
X1.7Y-3.1
X2.5Y-3.6
X2.6Y-3.6
X2.7Y-3.6
T6
X1.1Y-1.1
X1.1Y-3.7
X4.5Y-1.1
X4.5Y-3.7
T0
M30
