M48
; DRILL file {KiCad 7.0.6} date Sun Aug 13 12:07:48 2023
; FORMAT={-:-/ absolute / inch / decimal}
; #@! TF.CreationDate,2023-08-13T12:07:48+02:00
; #@! TF.GenerationSoftware,Kicad,Pcbnew,7.0.6
; #@! TF.FileFunction,Plated,1,2,PTH
FMAT,2
INCH
; #@! TA.AperFunction,Plated,PTH,ComponentDrill
T1C0.0295
; #@! TA.AperFunction,Plated,PTH,ComponentDrill
T2C0.0315
; #@! TA.AperFunction,Plated,PTH,ComponentDrill
T3C0.0354
; #@! TA.AperFunction,Plated,PTH,ComponentDrill
T4C0.0394
; #@! TA.AperFunction,Plated,PTH,ComponentDrill
T5C0.0433
; #@! TA.AperFunction,Plated,PTH,ComponentDrill
T6C0.0902
%
G90
G05
T1
X1.3067Y-1.363
X1.3567Y-0.763
X1.3567Y-0.813
X1.3567Y-0.863
X1.3567Y-1.363
X1.4067Y-1.363
T2
X1.1567Y-0.763
X1.1567Y-1.063
X1.1567Y-2.9133
X1.1567Y-3.063
X1.5567Y-0.763
X1.5567Y-1.063
X1.5567Y-1.363
X1.5567Y-1.763
X1.5567Y-1.963
X1.5567Y-2.063
X1.5567Y-2.163
X1.5567Y-2.263
X1.5567Y-2.363
X1.5567Y-2.463
X1.5567Y-2.563
X1.5567Y-2.863
X1.5567Y-3.0598
X1.7535Y-1.763
X1.8567Y-0.763
X1.8567Y-1.063
X1.8567Y-1.363
X1.8567Y-1.963
X1.8567Y-2.063
X1.8567Y-2.163
X1.8567Y-2.263
X1.8567Y-2.363
X1.8567Y-2.463
X1.8567Y-2.563
X2.5567Y-2.863
X2.5567Y-3.0598
X2.9567Y-2.9133
X2.9567Y-3.063
X3.2067Y-2.463
X3.2067Y-2.763
X3.5067Y-2.463
X3.5067Y-2.763
X3.507Y-1.863
X3.6567Y-1.863
T3
X3.7567Y-2.463
X3.7567Y-2.763
X3.8567Y-2.463
X3.8567Y-2.763
T4
X2.3567Y-0.763
X2.3567Y-0.863
X2.3567Y-0.963
X2.3567Y-1.063
X2.3567Y-1.163
X2.3567Y-1.263
X2.3567Y-1.363
X2.3567Y-1.463
X2.3567Y-1.563
X2.3567Y-1.663
X2.3567Y-1.763
X2.3567Y-1.863
X2.3567Y-1.963
X2.3567Y-2.063
X2.3567Y-2.163
X2.9567Y-0.763
X2.9567Y-0.863
X2.9567Y-0.963
X2.9567Y-1.063
X2.9567Y-1.163
X2.9567Y-1.263
X2.9567Y-1.363
X2.9567Y-1.463
X2.9567Y-1.563
X2.9567Y-1.663
X2.9567Y-1.763
X2.9567Y-1.863
X2.9567Y-1.963
X2.9567Y-2.063
X2.9567Y-2.163
X3.7567Y-0.963
X3.7567Y-1.063
X3.7567Y-1.163
X3.7567Y-1.263
X3.8567Y-0.963
X3.8567Y-1.063
X3.8567Y-1.163
X3.8567Y-1.263
T5
X0.7567Y-0.963
X0.7567Y-1.063
X0.7567Y-1.163
X0.7567Y-2.163
X0.7567Y-2.263
X0.7567Y-2.663
X0.7567Y-2.763
X1.1567Y-2.163
X1.1567Y-2.563
X1.9567Y-3.063
X2.0567Y-3.063
X2.1567Y-3.063
T6
X0.613Y-0.613
X0.613Y-3.113
X3.9004Y-0.613
X3.9004Y-3.113
T0
M30
