%TF.GenerationSoftware,KiCad,Pcbnew,7.0.6*%
%TF.CreationDate,2023-08-13T12:07:46+02:00*%
%TF.ProjectId,ps2_mouse_to_serial_port_adapter_in_a_box,7073325f-6d6f-4757-9365-5f746f5f7365,rev?*%
%TF.SameCoordinates,Original*%
%TF.FileFunction,Copper,L1,Top*%
%TF.FilePolarity,Positive*%
%FSLAX46Y46*%
G04 Gerber Fmt 4.6, Leading zero omitted, Abs format (unit mm)*
G04 Created by KiCad (PCBNEW 7.0.6) date 2023-08-13 12:07:46*
%MOMM*%
%LPD*%
G01*
G04 APERTURE LIST*
%TA.AperFunction,ComponentPad*%
%ADD10R,2.100000X2.100000*%
%TD*%
%TA.AperFunction,ComponentPad*%
%ADD11C,2.100000*%
%TD*%
%TA.AperFunction,ComponentPad*%
%ADD12R,1.600000X1.600000*%
%TD*%
%TA.AperFunction,ComponentPad*%
%ADD13C,1.600000*%
%TD*%
%TA.AperFunction,ComponentPad*%
%ADD14C,4.000500*%
%TD*%
%TA.AperFunction,ComponentPad*%
%ADD15R,2.200000X2.200000*%
%TD*%
%TA.AperFunction,ComponentPad*%
%ADD16O,2.200000X2.200000*%
%TD*%
%TA.AperFunction,ComponentPad*%
%ADD17R,1.800000X1.800000*%
%TD*%
%TA.AperFunction,ComponentPad*%
%ADD18C,1.800000*%
%TD*%
%TA.AperFunction,ComponentPad*%
%ADD19O,1.600000X1.600000*%
%TD*%
%TA.AperFunction,ComponentPad*%
%ADD20R,1.500000X1.050000*%
%TD*%
%TA.AperFunction,ComponentPad*%
%ADD21O,1.500000X1.050000*%
%TD*%
%TA.AperFunction,ComponentPad*%
%ADD22R,1.050000X1.500000*%
%TD*%
%TA.AperFunction,ComponentPad*%
%ADD23O,1.050000X1.500000*%
%TD*%
%TA.AperFunction,ComponentPad*%
%ADD24R,1.905000X2.000000*%
%TD*%
%TA.AperFunction,ComponentPad*%
%ADD25O,1.905000X2.000000*%
%TD*%
%TA.AperFunction,ComponentPad*%
%ADD26R,1.700000X1.700000*%
%TD*%
%TA.AperFunction,ComponentPad*%
%ADD27O,1.700000X1.700000*%
%TD*%
%TA.AperFunction,Conductor*%
%ADD28C,0.800000*%
%TD*%
%TA.AperFunction,Conductor*%
%ADD29C,0.400000*%
%TD*%
G04 APERTURE END LIST*
D10*
%TO.P,J1,1,Pin_1*%
%TO.N,Net-(J1-Pin_1)*%
X19219000Y-67639000D03*
D11*
%TO.P,J1,2,Pin_2*%
%TO.N,/GND*%
X19219000Y-70179000D03*
%TD*%
D12*
%TO.P,C5,1*%
%TO.N,/+5V*%
X75099000Y-73999000D03*
D13*
%TO.P,C5,2*%
%TO.N,/GND*%
X75099000Y-77799000D03*
%TD*%
D14*
%TO.P,,GND*%
%TO.N,/GND*%
X15569000Y-15569000D03*
%TD*%
%TO.P,,GND*%
%TO.N,/GND*%
X99069000Y-79069000D03*
%TD*%
D15*
%TO.P,D2,1,K*%
%TO.N,Net-(D2-K)*%
X29379000Y-65099000D03*
D16*
%TO.P,D2,2,A*%
%TO.N,Net-(D2-A)*%
X29379000Y-54939000D03*
%TD*%
D17*
%TO.P,D4,1,K*%
%TO.N,/GND*%
X97959000Y-70179000D03*
D18*
%TO.P,D4,2,A*%
%TO.N,Net-(D4-A)*%
X95419000Y-70179000D03*
%TD*%
D12*
%TO.P,U1,1*%
%TO.N,Net-(A1-D1{slash}TX)*%
X39539000Y-49859000D03*
D19*
%TO.P,U1,2*%
X39539000Y-52399000D03*
%TO.P,U1,3*%
%TO.N,Net-(J3-Pin_3)*%
X39539000Y-54939000D03*
%TO.P,U1,4*%
%TO.N,unconnected-(U1-Pad4)*%
X39539000Y-57479000D03*
%TO.P,U1,5*%
%TO.N,unconnected-(U1-Pad5)*%
X39539000Y-60019000D03*
%TO.P,U1,6*%
%TO.N,unconnected-(U1-Pad6)*%
X39539000Y-62559000D03*
%TO.P,U1,7,GND*%
%TO.N,/GND*%
X39539000Y-65099000D03*
%TO.P,U1,8*%
%TO.N,Net-(A1-D7)*%
X47159000Y-65099000D03*
%TO.P,U1,9*%
%TO.N,Net-(Q1-C)*%
X47159000Y-62559000D03*
%TO.P,U1,10*%
X47159000Y-60019000D03*
%TO.P,U1,11*%
%TO.N,unconnected-(U1-Pad11)*%
X47159000Y-57479000D03*
%TO.P,U1,12*%
%TO.N,unconnected-(U1-Pad12)*%
X47159000Y-54939000D03*
%TO.P,U1,13*%
%TO.N,unconnected-(U1-Pad13)*%
X47159000Y-52399000D03*
%TO.P,U1,14,VCC*%
%TO.N,/+5V*%
X47159000Y-49859000D03*
%TD*%
D12*
%TO.P,D1,1,K*%
%TO.N,Net-(D1-K)*%
X29379000Y-19379000D03*
D19*
%TO.P,D1,2,A*%
%TO.N,Net-(D1-A)*%
X29379000Y-26999000D03*
%TD*%
D13*
%TO.P,R1,1*%
%TO.N,Net-(Q1-B)*%
X47159000Y-26999000D03*
D19*
%TO.P,R1,2*%
%TO.N,Net-(U2-VO)*%
X47159000Y-19379000D03*
%TD*%
D13*
%TO.P,C3,1*%
%TO.N,Net-(D2-K)*%
X39539000Y-72719000D03*
%TO.P,C3,2*%
%TO.N,/GND*%
X39539000Y-77719000D03*
%TD*%
%TO.P,R2,1*%
%TO.N,Net-(Q1-B)*%
X39539000Y-26999000D03*
D19*
%TO.P,R2,2*%
%TO.N,/GND*%
X39539000Y-19379000D03*
%TD*%
D17*
%TO.P,D3,1,K*%
%TO.N,/GND*%
X97959000Y-62559000D03*
D18*
%TO.P,D3,2,A*%
%TO.N,Net-(D3-A)*%
X95419000Y-62559000D03*
%TD*%
D20*
%TO.P,U2,1,VO*%
%TO.N,Net-(U2-VO)*%
X34459000Y-21919000D03*
D21*
%TO.P,U2,2,GND*%
%TO.N,/GND*%
X34459000Y-20649000D03*
%TO.P,U2,3,VI*%
%TO.N,Net-(D1-K)*%
X34459000Y-19379000D03*
%TD*%
D14*
%TO.P,,GND*%
%TO.N,/GND*%
X15569000Y-79069000D03*
%TD*%
D13*
%TO.P,R3,1*%
%TO.N,/+5V*%
X47159000Y-34619000D03*
D19*
%TO.P,R3,2*%
%TO.N,Net-(Q1-C)*%
X39539000Y-34619000D03*
%TD*%
D13*
%TO.P,R4,1*%
%TO.N,Net-(A1-D8)*%
X81449000Y-62559000D03*
D19*
%TO.P,R4,2*%
%TO.N,Net-(D3-A)*%
X89069000Y-62559000D03*
%TD*%
D14*
%TO.P,,GND*%
%TO.N,/GND*%
X99069000Y-15569000D03*
%TD*%
D13*
%TO.P,C4,1*%
%TO.N,/+5V*%
X64939000Y-72719000D03*
%TO.P,C4,2*%
%TO.N,/GND*%
X64939000Y-77719000D03*
%TD*%
D10*
%TO.P,J3,1,Pin_1*%
%TO.N,/GND*%
X19219000Y-24459000D03*
D11*
%TO.P,J3,2,Pin_2*%
%TO.N,Net-(D1-A)*%
X19219000Y-26999000D03*
%TO.P,J3,3,Pin_3*%
%TO.N,Net-(J3-Pin_3)*%
X19219000Y-29539000D03*
%TD*%
D22*
%TO.P,Q1,1,C*%
%TO.N,Net-(Q1-C)*%
X35729000Y-34619000D03*
D23*
%TO.P,Q1,2,B*%
%TO.N,Net-(Q1-B)*%
X34459000Y-34619000D03*
%TO.P,Q1,3,E*%
%TO.N,/GND*%
X33189000Y-34619000D03*
%TD*%
D12*
%TO.P,A1,1,D1/TX*%
%TO.N,Net-(A1-D1{slash}TX)*%
X75099000Y-54939000D03*
D19*
%TO.P,A1,2,D0/RX*%
%TO.N,unconnected-(A1-D0{slash}RX-Pad2)*%
X75099000Y-52399000D03*
%TO.P,A1,3,~{RESET}*%
%TO.N,unconnected-(A1-~{RESET}-Pad3)*%
X75099000Y-49859000D03*
%TO.P,A1,4,GND*%
%TO.N,unconnected-(A1-GND-Pad4)*%
X75099000Y-47319000D03*
%TO.P,A1,5,D2*%
%TO.N,Net-(A1-D2)*%
X75099000Y-44779000D03*
%TO.P,A1,6,D3*%
%TO.N,unconnected-(A1-D3-Pad6)*%
X75099000Y-42239000D03*
%TO.P,A1,7,D4*%
%TO.N,unconnected-(A1-D4-Pad7)*%
X75099000Y-39699000D03*
%TO.P,A1,8,D5*%
%TO.N,Net-(A1-D5)*%
X75099000Y-37159000D03*
%TO.P,A1,9,D6*%
%TO.N,unconnected-(A1-D6-Pad9)*%
X75099000Y-34619000D03*
%TO.P,A1,10,D7*%
%TO.N,Net-(A1-D7)*%
X75099000Y-32079000D03*
%TO.P,A1,11,D8*%
%TO.N,Net-(A1-D8)*%
X75099000Y-29539000D03*
%TO.P,A1,12,D9*%
%TO.N,unconnected-(A1-D9-Pad12)*%
X75099000Y-26999000D03*
%TO.P,A1,13,D10*%
%TO.N,unconnected-(A1-D10-Pad13)*%
X75099000Y-24459000D03*
%TO.P,A1,14,D11*%
%TO.N,unconnected-(A1-D11-Pad14)*%
X75099000Y-21919000D03*
%TO.P,A1,15,D12*%
%TO.N,unconnected-(A1-D12-Pad15)*%
X75099000Y-19379000D03*
%TO.P,A1,16,D13*%
%TO.N,unconnected-(A1-D13-Pad16)*%
X59859000Y-19379000D03*
%TO.P,A1,17,3V3*%
%TO.N,unconnected-(A1-3V3-Pad17)*%
X59859000Y-21919000D03*
%TO.P,A1,18,AREF*%
%TO.N,unconnected-(A1-AREF-Pad18)*%
X59859000Y-24459000D03*
%TO.P,A1,19,A0*%
%TO.N,unconnected-(A1-A0-Pad19)*%
X59859000Y-26999000D03*
%TO.P,A1,20,A1*%
%TO.N,unconnected-(A1-A1-Pad20)*%
X59859000Y-29539000D03*
%TO.P,A1,21,A2*%
%TO.N,unconnected-(A1-A2-Pad21)*%
X59859000Y-32079000D03*
%TO.P,A1,22,A3*%
%TO.N,unconnected-(A1-A3-Pad22)*%
X59859000Y-34619000D03*
%TO.P,A1,23,A4*%
%TO.N,unconnected-(A1-A4-Pad23)*%
X59859000Y-37159000D03*
%TO.P,A1,24,A5*%
%TO.N,unconnected-(A1-A5-Pad24)*%
X59859000Y-39699000D03*
%TO.P,A1,25,A6*%
%TO.N,unconnected-(A1-A6-Pad25)*%
X59859000Y-42239000D03*
%TO.P,A1,26,A7*%
%TO.N,unconnected-(A1-A7-Pad26)*%
X59859000Y-44779000D03*
%TO.P,A1,27,+5V*%
%TO.N,unconnected-(A1-+5V-Pad27)*%
X59859000Y-47319000D03*
%TO.P,A1,28,~{RESET}*%
%TO.N,unconnected-(A1-~{RESET}-Pad28)*%
X59859000Y-49859000D03*
%TO.P,A1,29,GND*%
%TO.N,/GND*%
X59859000Y-52399000D03*
%TO.P,A1,30,VIN*%
%TO.N,/+5V*%
X59859000Y-54939000D03*
%TD*%
D13*
%TO.P,R5,1*%
%TO.N,/+5V*%
X81449000Y-70179000D03*
D19*
%TO.P,R5,2*%
%TO.N,Net-(D4-A)*%
X89069000Y-70179000D03*
%TD*%
D24*
%TO.P,U3,1,IN*%
%TO.N,Net-(D2-K)*%
X49699000Y-77799000D03*
D25*
%TO.P,U3,2,GND*%
%TO.N,/GND*%
X52239000Y-77799000D03*
%TO.P,U3,3,OUT*%
%TO.N,/+5V*%
X54779000Y-77799000D03*
%TD*%
D26*
%TO.P,J2,1,Pin_1*%
%TO.N,/GND*%
X95419000Y-24459000D03*
D27*
%TO.P,J2,2,Pin_2*%
X97959000Y-24459000D03*
%TO.P,J2,3,Pin_3*%
%TO.N,Net-(A1-D5)*%
X95419000Y-26999000D03*
%TO.P,J2,4,Pin_4*%
X97959000Y-26999000D03*
%TO.P,J2,5,Pin_5*%
%TO.N,Net-(A1-D2)*%
X95419000Y-29539000D03*
%TO.P,J2,6,Pin_6*%
X97959000Y-29539000D03*
%TO.P,J2,7,Pin_7*%
%TO.N,/+5V*%
X95419000Y-32079000D03*
%TO.P,J2,8,Pin_8*%
X97959000Y-32079000D03*
%TD*%
D12*
%TO.P,C2,1*%
%TO.N,Net-(D2-K)*%
X29379000Y-73999000D03*
D13*
%TO.P,C2,2*%
%TO.N,/GND*%
X29379000Y-77799000D03*
%TD*%
D12*
%TO.P,C1,1*%
%TO.N,/+5V*%
X89079000Y-47319000D03*
D13*
%TO.P,C1,2*%
%TO.N,/GND*%
X92879000Y-47319000D03*
%TD*%
D10*
%TO.P,SW1,1,A*%
%TO.N,Net-(D2-A)*%
X19219000Y-54939000D03*
D11*
%TO.P,SW1,2,B*%
%TO.N,Net-(J1-Pin_1)*%
X19219000Y-57479000D03*
%TD*%
D13*
%TO.P,C6,1*%
%TO.N,/+5V*%
X44539000Y-44779000D03*
%TO.P,C6,2*%
%TO.N,/GND*%
X39539000Y-44779000D03*
%TD*%
D28*
%TO.N,/GND*%
X24299000Y-21919000D02*
X31984000Y-21919000D01*
X49699000Y-47319000D02*
X42079000Y-47319000D01*
X42079000Y-67639000D02*
X39539000Y-65099000D01*
X59859000Y-52399000D02*
X54779000Y-52399000D01*
X54779000Y-52399000D02*
X49699000Y-47319000D01*
D29*
X41999000Y-75259000D02*
X42079000Y-75259000D01*
D28*
X42079000Y-75259000D02*
X42079000Y-67639000D01*
X39539000Y-77719000D02*
X41999000Y-75259000D01*
X21759000Y-24459000D02*
X24299000Y-21919000D01*
X31984000Y-21919000D02*
X33254000Y-20649000D01*
X33254000Y-20649000D02*
X34459000Y-20649000D01*
X19219000Y-24459000D02*
X21759000Y-24459000D01*
X42079000Y-47319000D02*
X39539000Y-44779000D01*
D29*
%TO.N,Net-(A1-D1{slash}TX)*%
X42079000Y-65099000D02*
X42079000Y-54939000D01*
X44619000Y-67639000D02*
X42079000Y-65099000D01*
X39539000Y-49859000D02*
X39539000Y-52399000D01*
X42079000Y-54939000D02*
X39539000Y-52399000D01*
X75099000Y-54939000D02*
X75099000Y-62559000D01*
X75099000Y-62559000D02*
X70019000Y-67639000D01*
X70019000Y-67639000D02*
X44619000Y-67639000D01*
%TO.N,Net-(A1-D7)*%
X72559000Y-32079000D02*
X70019000Y-34619000D01*
X75099000Y-32079000D02*
X72559000Y-32079000D01*
X70019000Y-34619000D02*
X70019000Y-62559000D01*
X70019000Y-62559000D02*
X67479000Y-65099000D01*
X67479000Y-65099000D02*
X47159000Y-65099000D01*
%TD*%
%TA.AperFunction,Conductor*%
%TO.N,/GND*%
G36*
X97499507Y-24249156D02*
G01*
X97459000Y-24387111D01*
X97459000Y-24530889D01*
X97499507Y-24668844D01*
X97525314Y-24709000D01*
X95852686Y-24709000D01*
X95878493Y-24668844D01*
X95919000Y-24530889D01*
X95919000Y-24387111D01*
X95878493Y-24249156D01*
X95852686Y-24209000D01*
X97525314Y-24209000D01*
X97499507Y-24249156D01*
G37*
%TD.AperFunction*%
%TA.AperFunction,Conductor*%
G36*
X101761539Y-12839185D02*
G01*
X101807294Y-12891989D01*
X101818500Y-12943500D01*
X101818500Y-15506402D01*
X101798815Y-15573441D01*
X101798464Y-15573744D01*
X101815436Y-15604202D01*
X101818500Y-15631597D01*
X101818500Y-79006402D01*
X101798815Y-79073441D01*
X101798464Y-79073744D01*
X101815436Y-79104202D01*
X101818500Y-79131597D01*
X101818500Y-81694500D01*
X101798815Y-81761539D01*
X101746011Y-81807294D01*
X101694500Y-81818500D01*
X12943500Y-81818500D01*
X12876461Y-81798815D01*
X12830706Y-81746011D01*
X12819500Y-81694500D01*
X12819500Y-79131597D01*
X12837109Y-79071629D01*
X13046389Y-79071629D01*
X13062477Y-79096662D01*
X13067255Y-79123811D01*
X13083559Y-79382973D01*
X13083560Y-79382980D01*
X13142513Y-79692020D01*
X13239730Y-79991224D01*
X13239732Y-79991229D01*
X13373680Y-80275882D01*
X13373684Y-80275888D01*
X13542254Y-80541513D01*
X13542256Y-80541516D01*
X13633108Y-80651337D01*
X14601678Y-79682767D01*
X14650923Y-79762300D01*
X14793948Y-79919191D01*
X14952572Y-80038979D01*
X13983793Y-81007758D01*
X13983794Y-81007760D01*
X14226638Y-81184196D01*
X14226656Y-81184207D01*
X14502341Y-81335766D01*
X14502349Y-81335770D01*
X14794849Y-81451579D01*
X14794852Y-81451580D01*
X15099577Y-81529819D01*
X15411688Y-81569249D01*
X15411700Y-81569250D01*
X15726300Y-81569250D01*
X15726311Y-81569249D01*
X16038422Y-81529819D01*
X16343147Y-81451580D01*
X16343150Y-81451579D01*
X16635650Y-81335770D01*
X16635658Y-81335766D01*
X16911343Y-81184207D01*
X16911353Y-81184201D01*
X17154204Y-81007758D01*
X17154205Y-81007758D01*
X16185427Y-80038979D01*
X16344052Y-79919191D01*
X16487077Y-79762300D01*
X16536321Y-79682768D01*
X17504890Y-80651337D01*
X17595742Y-80541517D01*
X17595745Y-80541513D01*
X17764315Y-80275888D01*
X17764319Y-80275882D01*
X17898267Y-79991229D01*
X17898269Y-79991224D01*
X17995486Y-79692020D01*
X18054439Y-79382980D01*
X18054440Y-79382973D01*
X18074193Y-79069005D01*
X18074193Y-79068994D01*
X18054440Y-78755026D01*
X18054439Y-78755019D01*
X17995486Y-78445979D01*
X17898269Y-78146775D01*
X17898267Y-78146770D01*
X17764319Y-77862117D01*
X17764315Y-77862111D01*
X17724265Y-77799002D01*
X28074034Y-77799002D01*
X28093858Y-78025599D01*
X28093860Y-78025610D01*
X28152730Y-78245317D01*
X28152734Y-78245326D01*
X28248865Y-78451481D01*
X28248866Y-78451483D01*
X28299973Y-78524471D01*
X28299974Y-78524472D01*
X28981046Y-77843399D01*
X28993835Y-77924148D01*
X29051359Y-78037045D01*
X29140955Y-78126641D01*
X29253852Y-78184165D01*
X29334599Y-78196953D01*
X28653526Y-78878025D01*
X28653526Y-78878026D01*
X28726512Y-78929131D01*
X28726516Y-78929133D01*
X28932673Y-79025265D01*
X28932682Y-79025269D01*
X29152389Y-79084139D01*
X29152400Y-79084141D01*
X29378998Y-79103966D01*
X29379002Y-79103966D01*
X29605599Y-79084141D01*
X29605610Y-79084139D01*
X29825317Y-79025269D01*
X29825331Y-79025264D01*
X30031478Y-78929136D01*
X30104472Y-78878025D01*
X29423401Y-78196953D01*
X29504148Y-78184165D01*
X29617045Y-78126641D01*
X29706641Y-78037045D01*
X29764165Y-77924148D01*
X29776953Y-77843400D01*
X30458025Y-78524472D01*
X30509136Y-78451478D01*
X30605264Y-78245331D01*
X30605269Y-78245317D01*
X30664139Y-78025610D01*
X30664141Y-78025599D01*
X30683966Y-77799002D01*
X30683966Y-77798997D01*
X30676967Y-77719002D01*
X38234034Y-77719002D01*
X38253858Y-77945599D01*
X38253860Y-77945610D01*
X38312730Y-78165317D01*
X38312734Y-78165326D01*
X38408865Y-78371481D01*
X38408866Y-78371483D01*
X38459973Y-78444471D01*
X38459973Y-78444472D01*
X39141045Y-77763399D01*
X39153835Y-77844148D01*
X39211359Y-77957045D01*
X39300955Y-78046641D01*
X39413852Y-78104165D01*
X39494599Y-78116953D01*
X38813526Y-78798025D01*
X38813526Y-78798026D01*
X38886512Y-78849131D01*
X38886516Y-78849133D01*
X39092673Y-78945265D01*
X39092682Y-78945269D01*
X39312389Y-79004139D01*
X39312400Y-79004141D01*
X39538998Y-79023966D01*
X39539002Y-79023966D01*
X39765599Y-79004141D01*
X39765610Y-79004139D01*
X39985317Y-78945269D01*
X39985331Y-78945264D01*
X40191478Y-78849136D01*
X40194714Y-78846870D01*
X48246000Y-78846870D01*
X48246001Y-78846876D01*
X48252408Y-78906483D01*
X48302702Y-79041328D01*
X48302706Y-79041335D01*
X48388952Y-79156544D01*
X48388955Y-79156547D01*
X48504164Y-79242793D01*
X48504171Y-79242797D01*
X48639017Y-79293091D01*
X48639016Y-79293091D01*
X48645944Y-79293835D01*
X48698627Y-79299500D01*
X50699372Y-79299499D01*
X50758983Y-79293091D01*
X50893831Y-79242796D01*
X51009046Y-79156546D01*
X51095296Y-79041331D01*
X51095297Y-79041328D01*
X51095298Y-79041327D01*
X51101773Y-79023966D01*
X51106907Y-79010197D01*
X51148776Y-78954264D01*
X51214240Y-78929844D01*
X51282513Y-78944694D01*
X51299252Y-78955675D01*
X51441831Y-79066649D01*
X51441840Y-79066655D01*
X51653531Y-79181215D01*
X51653545Y-79181221D01*
X51881207Y-79259379D01*
X51989000Y-79277366D01*
X51989000Y-78290683D01*
X52017819Y-78308209D01*
X52163404Y-78349000D01*
X52276622Y-78349000D01*
X52388783Y-78333584D01*
X52489000Y-78290053D01*
X52489000Y-79277365D01*
X52596792Y-79259379D01*
X52824454Y-79181221D01*
X52824468Y-79181215D01*
X53036159Y-79066655D01*
X53036168Y-79066649D01*
X53226116Y-78918806D01*
X53226126Y-78918797D01*
X53389154Y-78741702D01*
X53389155Y-78741701D01*
X53404891Y-78717616D01*
X53458036Y-78672258D01*
X53527267Y-78662833D01*
X53590604Y-78692333D01*
X53612510Y-78717614D01*
X53628446Y-78742007D01*
X53640431Y-78755026D01*
X53791537Y-78919171D01*
X53938809Y-79033797D01*
X53981017Y-79066649D01*
X53981561Y-79067072D01*
X54100793Y-79131597D01*
X54192478Y-79181215D01*
X54193336Y-79181679D01*
X54311598Y-79222278D01*
X54421083Y-79259865D01*
X54421085Y-79259865D01*
X54421087Y-79259866D01*
X54658601Y-79299500D01*
X54658602Y-79299500D01*
X54899398Y-79299500D01*
X54899399Y-79299500D01*
X55136913Y-79259866D01*
X55364664Y-79181679D01*
X55576439Y-79067072D01*
X55766463Y-78919171D01*
X55929551Y-78742010D01*
X56061255Y-78540422D01*
X56157983Y-78319905D01*
X56217095Y-78086476D01*
X56232000Y-77906600D01*
X56232000Y-77719002D01*
X63634034Y-77719002D01*
X63653858Y-77945599D01*
X63653860Y-77945610D01*
X63712730Y-78165317D01*
X63712734Y-78165326D01*
X63808865Y-78371481D01*
X63808866Y-78371483D01*
X63859973Y-78444471D01*
X63859974Y-78444472D01*
X64541046Y-77763399D01*
X64553835Y-77844148D01*
X64611359Y-77957045D01*
X64700955Y-78046641D01*
X64813852Y-78104165D01*
X64894599Y-78116953D01*
X64213526Y-78798025D01*
X64213526Y-78798026D01*
X64286512Y-78849131D01*
X64286516Y-78849133D01*
X64492673Y-78945265D01*
X64492682Y-78945269D01*
X64712389Y-79004139D01*
X64712400Y-79004141D01*
X64938998Y-79023966D01*
X64939002Y-79023966D01*
X65165599Y-79004141D01*
X65165610Y-79004139D01*
X65385317Y-78945269D01*
X65385331Y-78945264D01*
X65591478Y-78849136D01*
X65664472Y-78798025D01*
X64983401Y-78116953D01*
X65064148Y-78104165D01*
X65177045Y-78046641D01*
X65266641Y-77957045D01*
X65324165Y-77844148D01*
X65336953Y-77763400D01*
X66018025Y-78444472D01*
X66069136Y-78371478D01*
X66165264Y-78165331D01*
X66165269Y-78165317D01*
X66224139Y-77945610D01*
X66224141Y-77945599D01*
X66236967Y-77799002D01*
X73794034Y-77799002D01*
X73813858Y-78025599D01*
X73813860Y-78025610D01*
X73872730Y-78245317D01*
X73872734Y-78245326D01*
X73968865Y-78451481D01*
X73968866Y-78451483D01*
X74019973Y-78524471D01*
X74019974Y-78524472D01*
X74701046Y-77843399D01*
X74713835Y-77924148D01*
X74771359Y-78037045D01*
X74860955Y-78126641D01*
X74973852Y-78184165D01*
X75054599Y-78196953D01*
X74373526Y-78878025D01*
X74373526Y-78878026D01*
X74446512Y-78929131D01*
X74446516Y-78929133D01*
X74652673Y-79025265D01*
X74652682Y-79025269D01*
X74872389Y-79084139D01*
X74872400Y-79084141D01*
X75098998Y-79103966D01*
X75099002Y-79103966D01*
X75325599Y-79084141D01*
X75325610Y-79084139D01*
X75382091Y-79069005D01*
X96563807Y-79069005D01*
X96583559Y-79382973D01*
X96583560Y-79382980D01*
X96642513Y-79692020D01*
X96739730Y-79991224D01*
X96739732Y-79991229D01*
X96873680Y-80275882D01*
X96873684Y-80275888D01*
X97042254Y-80541513D01*
X97042256Y-80541516D01*
X97133108Y-80651337D01*
X98101678Y-79682767D01*
X98150923Y-79762300D01*
X98293948Y-79919191D01*
X98452572Y-80038979D01*
X97483793Y-81007758D01*
X97483794Y-81007760D01*
X97726638Y-81184196D01*
X97726656Y-81184207D01*
X98002341Y-81335766D01*
X98002349Y-81335770D01*
X98294849Y-81451579D01*
X98294852Y-81451580D01*
X98599577Y-81529819D01*
X98911688Y-81569249D01*
X98911700Y-81569250D01*
X99226300Y-81569250D01*
X99226311Y-81569249D01*
X99538422Y-81529819D01*
X99843147Y-81451580D01*
X99843150Y-81451579D01*
X100135650Y-81335770D01*
X100135658Y-81335766D01*
X100411343Y-81184207D01*
X100411353Y-81184201D01*
X100654204Y-81007758D01*
X100654205Y-81007758D01*
X99685427Y-80038979D01*
X99844052Y-79919191D01*
X99987077Y-79762300D01*
X100036321Y-79682768D01*
X101004890Y-80651337D01*
X101095742Y-80541517D01*
X101095745Y-80541513D01*
X101264315Y-80275888D01*
X101264319Y-80275882D01*
X101398267Y-79991229D01*
X101398269Y-79991224D01*
X101495486Y-79692020D01*
X101554439Y-79382980D01*
X101554440Y-79382973D01*
X101570745Y-79123811D01*
X101591610Y-79066369D01*
X101575523Y-79041337D01*
X101570745Y-79014188D01*
X101554440Y-78755026D01*
X101554439Y-78755019D01*
X101495486Y-78445979D01*
X101398269Y-78146775D01*
X101398267Y-78146770D01*
X101264319Y-77862117D01*
X101264315Y-77862111D01*
X101095747Y-77596489D01*
X101004889Y-77486661D01*
X100036320Y-78455230D01*
X99987077Y-78375700D01*
X99844052Y-78218809D01*
X99685426Y-78099019D01*
X100654205Y-77130240D01*
X100654204Y-77130238D01*
X100411361Y-76953803D01*
X100411343Y-76953792D01*
X100135658Y-76802233D01*
X100135650Y-76802229D01*
X99843150Y-76686420D01*
X99843147Y-76686419D01*
X99538422Y-76608180D01*
X99226311Y-76568750D01*
X98911688Y-76568750D01*
X98599577Y-76608180D01*
X98294852Y-76686419D01*
X98294849Y-76686420D01*
X98002349Y-76802229D01*
X98002341Y-76802233D01*
X97726653Y-76953793D01*
X97726648Y-76953796D01*
X97483794Y-77130239D01*
X97483793Y-77130240D01*
X98452573Y-78099019D01*
X98293948Y-78218809D01*
X98150923Y-78375700D01*
X98101678Y-78455231D01*
X97133108Y-77486661D01*
X97042256Y-77596484D01*
X97042254Y-77596487D01*
X96873684Y-77862111D01*
X96873680Y-77862117D01*
X96739732Y-78146770D01*
X96739730Y-78146775D01*
X96642513Y-78445979D01*
X96583560Y-78755019D01*
X96583559Y-78755026D01*
X96563807Y-79068994D01*
X96563807Y-79069005D01*
X75382091Y-79069005D01*
X75545317Y-79025269D01*
X75545331Y-79025264D01*
X75751478Y-78929136D01*
X75824472Y-78878025D01*
X75143401Y-78196953D01*
X75224148Y-78184165D01*
X75337045Y-78126641D01*
X75426641Y-78037045D01*
X75484165Y-77924148D01*
X75496953Y-77843400D01*
X76178025Y-78524472D01*
X76229136Y-78451478D01*
X76325264Y-78245331D01*
X76325269Y-78245317D01*
X76384139Y-78025610D01*
X76384141Y-78025599D01*
X76403966Y-77799002D01*
X76403966Y-77798997D01*
X76384141Y-77572400D01*
X76384139Y-77572389D01*
X76325269Y-77352682D01*
X76325265Y-77352673D01*
X76229133Y-77146516D01*
X76229131Y-77146512D01*
X76178026Y-77073526D01*
X76178025Y-77073526D01*
X75496953Y-77754598D01*
X75484165Y-77673852D01*
X75426641Y-77560955D01*
X75337045Y-77471359D01*
X75224148Y-77413835D01*
X75143400Y-77401046D01*
X75824472Y-76719974D01*
X75824471Y-76719973D01*
X75751483Y-76668866D01*
X75751481Y-76668865D01*
X75545326Y-76572734D01*
X75545317Y-76572730D01*
X75325610Y-76513860D01*
X75325599Y-76513858D01*
X75099002Y-76494034D01*
X75098998Y-76494034D01*
X74872400Y-76513858D01*
X74872389Y-76513860D01*
X74652682Y-76572730D01*
X74652673Y-76572734D01*
X74446513Y-76668868D01*
X74373527Y-76719972D01*
X74373526Y-76719973D01*
X75054600Y-77401046D01*
X74973852Y-77413835D01*
X74860955Y-77471359D01*
X74771359Y-77560955D01*
X74713835Y-77673852D01*
X74701046Y-77754599D01*
X74019973Y-77073526D01*
X74019972Y-77073527D01*
X73968868Y-77146513D01*
X73872734Y-77352673D01*
X73872730Y-77352682D01*
X73813860Y-77572389D01*
X73813858Y-77572400D01*
X73794034Y-77798997D01*
X73794034Y-77799002D01*
X66236967Y-77799002D01*
X66243966Y-77719002D01*
X66243966Y-77718997D01*
X66224141Y-77492400D01*
X66224139Y-77492389D01*
X66165269Y-77272682D01*
X66165265Y-77272673D01*
X66069133Y-77066516D01*
X66069131Y-77066512D01*
X66018026Y-76993526D01*
X66018025Y-76993526D01*
X65336953Y-77674596D01*
X65324165Y-77593852D01*
X65266641Y-77480955D01*
X65177045Y-77391359D01*
X65064148Y-77333835D01*
X64983400Y-77321046D01*
X65664472Y-76639974D01*
X65664471Y-76639973D01*
X65591483Y-76588866D01*
X65591481Y-76588865D01*
X65385326Y-76492734D01*
X65385317Y-76492730D01*
X65165610Y-76433860D01*
X65165599Y-76433858D01*
X64939002Y-76414034D01*
X64938998Y-76414034D01*
X64712400Y-76433858D01*
X64712389Y-76433860D01*
X64492682Y-76492730D01*
X64492673Y-76492734D01*
X64286513Y-76588868D01*
X64213527Y-76639972D01*
X64213526Y-76639973D01*
X64894600Y-77321046D01*
X64813852Y-77333835D01*
X64700955Y-77391359D01*
X64611359Y-77480955D01*
X64553835Y-77593852D01*
X64541046Y-77674599D01*
X63859973Y-76993526D01*
X63859972Y-76993527D01*
X63808868Y-77066513D01*
X63712734Y-77272673D01*
X63712730Y-77272682D01*
X63653860Y-77492389D01*
X63653858Y-77492400D01*
X63634034Y-77718997D01*
X63634034Y-77719002D01*
X56232000Y-77719002D01*
X56232000Y-77691400D01*
X56217095Y-77511524D01*
X56157983Y-77278095D01*
X56061255Y-77057578D01*
X55929551Y-76855990D01*
X55766463Y-76678829D01*
X55609505Y-76556664D01*
X55576441Y-76530929D01*
X55364665Y-76416321D01*
X55364656Y-76416318D01*
X55136916Y-76338134D01*
X54937800Y-76304908D01*
X54899399Y-76298500D01*
X54658601Y-76298500D01*
X54620200Y-76304908D01*
X54421083Y-76338134D01*
X54193343Y-76416318D01*
X54193334Y-76416321D01*
X53981558Y-76530929D01*
X53907119Y-76588868D01*
X53791537Y-76678829D01*
X53791534Y-76678831D01*
X53791534Y-76678832D01*
X53628450Y-76855988D01*
X53628446Y-76855994D01*
X53612507Y-76880389D01*
X53559359Y-76925744D01*
X53490127Y-76935165D01*
X53426793Y-76905661D01*
X53404892Y-76880385D01*
X53389154Y-76856296D01*
X53226126Y-76679202D01*
X53226116Y-76679193D01*
X53036168Y-76531350D01*
X53036159Y-76531344D01*
X52824468Y-76416784D01*
X52824454Y-76416778D01*
X52596791Y-76338619D01*
X52489000Y-76320633D01*
X52489000Y-77307316D01*
X52460181Y-77289791D01*
X52314596Y-77249000D01*
X52201378Y-77249000D01*
X52089217Y-77264416D01*
X51988999Y-77307946D01*
X51989000Y-76320633D01*
X51988999Y-76320633D01*
X51881208Y-76338619D01*
X51653545Y-76416778D01*
X51653531Y-76416784D01*
X51441840Y-76531344D01*
X51441838Y-76531345D01*
X51299252Y-76642325D01*
X51234258Y-76667967D01*
X51165718Y-76654400D01*
X51115393Y-76605932D01*
X51106907Y-76587801D01*
X51095297Y-76556671D01*
X51095293Y-76556664D01*
X51009047Y-76441455D01*
X51009044Y-76441452D01*
X50893835Y-76355206D01*
X50893828Y-76355202D01*
X50758982Y-76304908D01*
X50758983Y-76304908D01*
X50699383Y-76298501D01*
X50699381Y-76298500D01*
X50699373Y-76298500D01*
X50699364Y-76298500D01*
X48698629Y-76298500D01*
X48698623Y-76298501D01*
X48639016Y-76304908D01*
X48504171Y-76355202D01*
X48504164Y-76355206D01*
X48388955Y-76441452D01*
X48388952Y-76441455D01*
X48302706Y-76556664D01*
X48302702Y-76556671D01*
X48252408Y-76691517D01*
X48246001Y-76751116D01*
X48246000Y-76751135D01*
X48246000Y-78846870D01*
X40194714Y-78846870D01*
X40264472Y-78798025D01*
X39583401Y-78116953D01*
X39664148Y-78104165D01*
X39777045Y-78046641D01*
X39866641Y-77957045D01*
X39924165Y-77844148D01*
X39936953Y-77763400D01*
X40618025Y-78444472D01*
X40669136Y-78371478D01*
X40765264Y-78165331D01*
X40765269Y-78165317D01*
X40824139Y-77945610D01*
X40824141Y-77945599D01*
X40843966Y-77719002D01*
X40843966Y-77718997D01*
X40824141Y-77492400D01*
X40824139Y-77492389D01*
X40765269Y-77272682D01*
X40765265Y-77272673D01*
X40669133Y-77066516D01*
X40669131Y-77066512D01*
X40618026Y-76993526D01*
X40618025Y-76993526D01*
X39936953Y-77674598D01*
X39924165Y-77593852D01*
X39866641Y-77480955D01*
X39777045Y-77391359D01*
X39664148Y-77333835D01*
X39583400Y-77321046D01*
X40264472Y-76639974D01*
X40264471Y-76639973D01*
X40191483Y-76588866D01*
X40191481Y-76588865D01*
X39985326Y-76492734D01*
X39985317Y-76492730D01*
X39765610Y-76433860D01*
X39765599Y-76433858D01*
X39539002Y-76414034D01*
X39538998Y-76414034D01*
X39312400Y-76433858D01*
X39312389Y-76433860D01*
X39092682Y-76492730D01*
X39092673Y-76492734D01*
X38886513Y-76588868D01*
X38813527Y-76639972D01*
X38813526Y-76639973D01*
X39494600Y-77321046D01*
X39413852Y-77333835D01*
X39300955Y-77391359D01*
X39211359Y-77480955D01*
X39153835Y-77593852D01*
X39141046Y-77674598D01*
X38459973Y-76993526D01*
X38408868Y-77066513D01*
X38312734Y-77272673D01*
X38312730Y-77272682D01*
X38253860Y-77492389D01*
X38253858Y-77492400D01*
X38234034Y-77718997D01*
X38234034Y-77719002D01*
X30676967Y-77719002D01*
X30664141Y-77572400D01*
X30664139Y-77572389D01*
X30605269Y-77352682D01*
X30605265Y-77352673D01*
X30509133Y-77146516D01*
X30509131Y-77146512D01*
X30458026Y-77073526D01*
X30458025Y-77073526D01*
X29776953Y-77754598D01*
X29764165Y-77673852D01*
X29706641Y-77560955D01*
X29617045Y-77471359D01*
X29504148Y-77413835D01*
X29423400Y-77401046D01*
X30104472Y-76719974D01*
X30104471Y-76719973D01*
X30031483Y-76668866D01*
X30031481Y-76668865D01*
X29825326Y-76572734D01*
X29825317Y-76572730D01*
X29605610Y-76513860D01*
X29605599Y-76513858D01*
X29379002Y-76494034D01*
X29378998Y-76494034D01*
X29152400Y-76513858D01*
X29152389Y-76513860D01*
X28932682Y-76572730D01*
X28932673Y-76572734D01*
X28726513Y-76668868D01*
X28653527Y-76719972D01*
X28653526Y-76719973D01*
X29334600Y-77401046D01*
X29253852Y-77413835D01*
X29140955Y-77471359D01*
X29051359Y-77560955D01*
X28993835Y-77673852D01*
X28981046Y-77754599D01*
X28299973Y-77073526D01*
X28299972Y-77073527D01*
X28248868Y-77146513D01*
X28152734Y-77352673D01*
X28152730Y-77352682D01*
X28093860Y-77572389D01*
X28093858Y-77572400D01*
X28074034Y-77798997D01*
X28074034Y-77799002D01*
X17724265Y-77799002D01*
X17595747Y-77596489D01*
X17504889Y-77486661D01*
X16536320Y-78455230D01*
X16487077Y-78375700D01*
X16344052Y-78218809D01*
X16185426Y-78099019D01*
X17154205Y-77130240D01*
X17154204Y-77130238D01*
X16911361Y-76953803D01*
X16911343Y-76953792D01*
X16635658Y-76802233D01*
X16635650Y-76802229D01*
X16343150Y-76686420D01*
X16343147Y-76686419D01*
X16038422Y-76608180D01*
X15726311Y-76568750D01*
X15411688Y-76568750D01*
X15099577Y-76608180D01*
X14794852Y-76686419D01*
X14794849Y-76686420D01*
X14502349Y-76802229D01*
X14502341Y-76802233D01*
X14226653Y-76953793D01*
X14226648Y-76953796D01*
X13983794Y-77130239D01*
X13983793Y-77130240D01*
X14952573Y-78099019D01*
X14793948Y-78218809D01*
X14650923Y-78375700D01*
X14601678Y-78455231D01*
X13633108Y-77486661D01*
X13542256Y-77596484D01*
X13542254Y-77596487D01*
X13373684Y-77862111D01*
X13373680Y-77862117D01*
X13239732Y-78146770D01*
X13239730Y-78146775D01*
X13142513Y-78445979D01*
X13083560Y-78755019D01*
X13083559Y-78755026D01*
X13067255Y-79014188D01*
X13046389Y-79071629D01*
X12837109Y-79071629D01*
X12839185Y-79064558D01*
X12839535Y-79064254D01*
X12822564Y-79033797D01*
X12819500Y-79006402D01*
X12819500Y-74846870D01*
X28078500Y-74846870D01*
X28078501Y-74846876D01*
X28084908Y-74906483D01*
X28135202Y-75041328D01*
X28135206Y-75041335D01*
X28221452Y-75156544D01*
X28221455Y-75156547D01*
X28336664Y-75242793D01*
X28336671Y-75242797D01*
X28471517Y-75293091D01*
X28471516Y-75293091D01*
X28478444Y-75293835D01*
X28531127Y-75299500D01*
X30226872Y-75299499D01*
X30286483Y-75293091D01*
X30421331Y-75242796D01*
X30536546Y-75156546D01*
X30622796Y-75041331D01*
X30673091Y-74906483D01*
X30679500Y-74846873D01*
X30679500Y-74846870D01*
X73798500Y-74846870D01*
X73798501Y-74846876D01*
X73804908Y-74906483D01*
X73855202Y-75041328D01*
X73855206Y-75041335D01*
X73941452Y-75156544D01*
X73941455Y-75156547D01*
X74056664Y-75242793D01*
X74056671Y-75242797D01*
X74191517Y-75293091D01*
X74191516Y-75293091D01*
X74198444Y-75293835D01*
X74251127Y-75299500D01*
X75946872Y-75299499D01*
X76006483Y-75293091D01*
X76141331Y-75242796D01*
X76256546Y-75156546D01*
X76342796Y-75041331D01*
X76393091Y-74906483D01*
X76399500Y-74846873D01*
X76399499Y-73151128D01*
X76393091Y-73091517D01*
X76342796Y-72956669D01*
X76342795Y-72956668D01*
X76342793Y-72956664D01*
X76256547Y-72841455D01*
X76256544Y-72841452D01*
X76141335Y-72755206D01*
X76141328Y-72755202D01*
X76006482Y-72704908D01*
X76006483Y-72704908D01*
X75946883Y-72698501D01*
X75946881Y-72698500D01*
X75946873Y-72698500D01*
X75946864Y-72698500D01*
X74251129Y-72698500D01*
X74251123Y-72698501D01*
X74191516Y-72704908D01*
X74056671Y-72755202D01*
X74056664Y-72755206D01*
X73941455Y-72841452D01*
X73941452Y-72841455D01*
X73855206Y-72956664D01*
X73855202Y-72956671D01*
X73804908Y-73091517D01*
X73798501Y-73151116D01*
X73798501Y-73151123D01*
X73798500Y-73151135D01*
X73798500Y-74846870D01*
X30679500Y-74846870D01*
X30679499Y-73151128D01*
X30673091Y-73091517D01*
X30622796Y-72956669D01*
X30622795Y-72956668D01*
X30622793Y-72956664D01*
X30536547Y-72841455D01*
X30536544Y-72841452D01*
X30421335Y-72755206D01*
X30421328Y-72755202D01*
X30324268Y-72719001D01*
X38233532Y-72719001D01*
X38253364Y-72945686D01*
X38253366Y-72945697D01*
X38312258Y-73165488D01*
X38312261Y-73165497D01*
X38408431Y-73371732D01*
X38408432Y-73371734D01*
X38538954Y-73558141D01*
X38699858Y-73719045D01*
X38699861Y-73719047D01*
X38886266Y-73849568D01*
X39092504Y-73945739D01*
X39312308Y-74004635D01*
X39474230Y-74018801D01*
X39538998Y-74024468D01*
X39539000Y-74024468D01*
X39539002Y-74024468D01*
X39595673Y-74019509D01*
X39765692Y-74004635D01*
X39985496Y-73945739D01*
X40191734Y-73849568D01*
X40378139Y-73719047D01*
X40539047Y-73558139D01*
X40669568Y-73371734D01*
X40765739Y-73165496D01*
X40824635Y-72945692D01*
X40844468Y-72719001D01*
X63633532Y-72719001D01*
X63653364Y-72945686D01*
X63653366Y-72945697D01*
X63712258Y-73165488D01*
X63712261Y-73165497D01*
X63808431Y-73371732D01*
X63808432Y-73371734D01*
X63938954Y-73558141D01*
X64099858Y-73719045D01*
X64099861Y-73719047D01*
X64286266Y-73849568D01*
X64492504Y-73945739D01*
X64712308Y-74004635D01*
X64874230Y-74018801D01*
X64938998Y-74024468D01*
X64939000Y-74024468D01*
X64939002Y-74024468D01*
X64995672Y-74019509D01*
X65165692Y-74004635D01*
X65385496Y-73945739D01*
X65591734Y-73849568D01*
X65778139Y-73719047D01*
X65939047Y-73558139D01*
X66069568Y-73371734D01*
X66165739Y-73165496D01*
X66224635Y-72945692D01*
X66244468Y-72719000D01*
X66242674Y-72698500D01*
X66224635Y-72492313D01*
X66224635Y-72492308D01*
X66165739Y-72272504D01*
X66069568Y-72066266D01*
X65939047Y-71879861D01*
X65939045Y-71879858D01*
X65778141Y-71718954D01*
X65591734Y-71588432D01*
X65591732Y-71588431D01*
X65385497Y-71492261D01*
X65385488Y-71492258D01*
X65165697Y-71433366D01*
X65165693Y-71433365D01*
X65165692Y-71433365D01*
X65165691Y-71433364D01*
X65165686Y-71433364D01*
X64939002Y-71413532D01*
X64938998Y-71413532D01*
X64712313Y-71433364D01*
X64712302Y-71433366D01*
X64492511Y-71492258D01*
X64492502Y-71492261D01*
X64286267Y-71588431D01*
X64286265Y-71588432D01*
X64099858Y-71718954D01*
X63938954Y-71879858D01*
X63808432Y-72066265D01*
X63808431Y-72066267D01*
X63712261Y-72272502D01*
X63712258Y-72272511D01*
X63653366Y-72492302D01*
X63653364Y-72492313D01*
X63633532Y-72718998D01*
X63633532Y-72719001D01*
X40844468Y-72719001D01*
X40844468Y-72719000D01*
X40842674Y-72698500D01*
X40824635Y-72492313D01*
X40824635Y-72492308D01*
X40765739Y-72272504D01*
X40669568Y-72066266D01*
X40539047Y-71879861D01*
X40539045Y-71879858D01*
X40378141Y-71718954D01*
X40191734Y-71588432D01*
X40191732Y-71588431D01*
X39985497Y-71492261D01*
X39985488Y-71492258D01*
X39765697Y-71433366D01*
X39765693Y-71433365D01*
X39765692Y-71433365D01*
X39765691Y-71433364D01*
X39765686Y-71433364D01*
X39539002Y-71413532D01*
X39538998Y-71413532D01*
X39312313Y-71433364D01*
X39312302Y-71433366D01*
X39092511Y-71492258D01*
X39092502Y-71492261D01*
X38886267Y-71588431D01*
X38886265Y-71588432D01*
X38699858Y-71718954D01*
X38538954Y-71879858D01*
X38408432Y-72066265D01*
X38408431Y-72066267D01*
X38312261Y-72272502D01*
X38312258Y-72272511D01*
X38253366Y-72492302D01*
X38253364Y-72492313D01*
X38233532Y-72718998D01*
X38233532Y-72719001D01*
X30324268Y-72719001D01*
X30286482Y-72704908D01*
X30286483Y-72704908D01*
X30226883Y-72698501D01*
X30226881Y-72698500D01*
X30226873Y-72698500D01*
X30226864Y-72698500D01*
X28531129Y-72698500D01*
X28531123Y-72698501D01*
X28471516Y-72704908D01*
X28336671Y-72755202D01*
X28336664Y-72755206D01*
X28221455Y-72841452D01*
X28221452Y-72841455D01*
X28135206Y-72956664D01*
X28135202Y-72956671D01*
X28084908Y-73091517D01*
X28078501Y-73151116D01*
X28078501Y-73151123D01*
X28078500Y-73151135D01*
X28078500Y-74846870D01*
X12819500Y-74846870D01*
X12819500Y-70179000D01*
X17664207Y-70179000D01*
X17683348Y-70422219D01*
X17740303Y-70659457D01*
X17833668Y-70884861D01*
X17957504Y-71086942D01*
X18693070Y-70351375D01*
X18695884Y-70364915D01*
X18765442Y-70499156D01*
X18868638Y-70609652D01*
X18997819Y-70688209D01*
X19049002Y-70702549D01*
X18311056Y-71440494D01*
X18513138Y-71564331D01*
X18738542Y-71657696D01*
X18975780Y-71714651D01*
X18975779Y-71714651D01*
X19219000Y-71733792D01*
X19462219Y-71714651D01*
X19699457Y-71657696D01*
X19924861Y-71564331D01*
X20126942Y-71440494D01*
X19390568Y-70704121D01*
X19507458Y-70653349D01*
X19624739Y-70557934D01*
X19711928Y-70434415D01*
X19742354Y-70348802D01*
X20480494Y-71086942D01*
X20604331Y-70884861D01*
X20697696Y-70659457D01*
X20754651Y-70422219D01*
X20773792Y-70179001D01*
X80143532Y-70179001D01*
X80163364Y-70405686D01*
X80163366Y-70405697D01*
X80222258Y-70625488D01*
X80222261Y-70625497D01*
X80318431Y-70831732D01*
X80318432Y-70831734D01*
X80448954Y-71018141D01*
X80609858Y-71179045D01*
X80609861Y-71179047D01*
X80796266Y-71309568D01*
X81002504Y-71405739D01*
X81222308Y-71464635D01*
X81384230Y-71478801D01*
X81448998Y-71484468D01*
X81449000Y-71484468D01*
X81449002Y-71484468D01*
X81505672Y-71479509D01*
X81675692Y-71464635D01*
X81895496Y-71405739D01*
X82101734Y-71309568D01*
X82288139Y-71179047D01*
X82449047Y-71018139D01*
X82579568Y-70831734D01*
X82675739Y-70625496D01*
X82734635Y-70405692D01*
X82751634Y-70211384D01*
X82754468Y-70179001D01*
X87763532Y-70179001D01*
X87783364Y-70405686D01*
X87783366Y-70405697D01*
X87842258Y-70625488D01*
X87842261Y-70625497D01*
X87938431Y-70831732D01*
X87938432Y-70831734D01*
X88068954Y-71018141D01*
X88229858Y-71179045D01*
X88229861Y-71179047D01*
X88416266Y-71309568D01*
X88622504Y-71405739D01*
X88842308Y-71464635D01*
X89004230Y-71478801D01*
X89068998Y-71484468D01*
X89069000Y-71484468D01*
X89069002Y-71484468D01*
X89125673Y-71479509D01*
X89295692Y-71464635D01*
X89515496Y-71405739D01*
X89721734Y-71309568D01*
X89908139Y-71179047D01*
X90069047Y-71018139D01*
X90199568Y-70831734D01*
X90295739Y-70625496D01*
X90354635Y-70405692D01*
X90371634Y-70211384D01*
X90374468Y-70179006D01*
X94013700Y-70179006D01*
X94032864Y-70410297D01*
X94032866Y-70410308D01*
X94089842Y-70635300D01*
X94183075Y-70847848D01*
X94310016Y-71042147D01*
X94310019Y-71042151D01*
X94310021Y-71042153D01*
X94467216Y-71212913D01*
X94467219Y-71212915D01*
X94467222Y-71212918D01*
X94650365Y-71355464D01*
X94650371Y-71355468D01*
X94650374Y-71355470D01*
X94854497Y-71465936D01*
X94931179Y-71492261D01*
X95074015Y-71541297D01*
X95074017Y-71541297D01*
X95074019Y-71541298D01*
X95302951Y-71579500D01*
X95302952Y-71579500D01*
X95535048Y-71579500D01*
X95535049Y-71579500D01*
X95763981Y-71541298D01*
X95983503Y-71465936D01*
X96187626Y-71355470D01*
X96370784Y-71212913D01*
X96379511Y-71203432D01*
X96439394Y-71167441D01*
X96509232Y-71169538D01*
X96566850Y-71209060D01*
X96586924Y-71244080D01*
X96615645Y-71321086D01*
X96615649Y-71321093D01*
X96701809Y-71436187D01*
X96701812Y-71436190D01*
X96816906Y-71522350D01*
X96816913Y-71522354D01*
X96951620Y-71572596D01*
X96951627Y-71572598D01*
X97011155Y-71578999D01*
X97011172Y-71579000D01*
X97709000Y-71579000D01*
X97709000Y-70553189D01*
X97761547Y-70589016D01*
X97891173Y-70629000D01*
X97992724Y-70629000D01*
X98093138Y-70613865D01*
X98209000Y-70558068D01*
X98209000Y-71579000D01*
X98906828Y-71579000D01*
X98906844Y-71578999D01*
X98966372Y-71572598D01*
X98966379Y-71572596D01*
X99101086Y-71522354D01*
X99101093Y-71522350D01*
X99216187Y-71436190D01*
X99216190Y-71436187D01*
X99302350Y-71321093D01*
X99302354Y-71321086D01*
X99352596Y-71186379D01*
X99352598Y-71186372D01*
X99358999Y-71126844D01*
X99359000Y-71126827D01*
X99359000Y-70429000D01*
X98334278Y-70429000D01*
X98382625Y-70345260D01*
X98412810Y-70213008D01*
X98402673Y-70077735D01*
X98353113Y-69951459D01*
X98335203Y-69929000D01*
X99359000Y-69929000D01*
X99359000Y-69231172D01*
X99358999Y-69231155D01*
X99352598Y-69171627D01*
X99352596Y-69171620D01*
X99302354Y-69036913D01*
X99302350Y-69036906D01*
X99216190Y-68921812D01*
X99216187Y-68921809D01*
X99101093Y-68835649D01*
X99101086Y-68835645D01*
X98966379Y-68785403D01*
X98966372Y-68785401D01*
X98906844Y-68779000D01*
X98209000Y-68779000D01*
X98209000Y-69804810D01*
X98156453Y-69768984D01*
X98026827Y-69729000D01*
X97925276Y-69729000D01*
X97824862Y-69744135D01*
X97709000Y-69799931D01*
X97709000Y-68779000D01*
X97011155Y-68779000D01*
X96951627Y-68785401D01*
X96951620Y-68785403D01*
X96816913Y-68835645D01*
X96816906Y-68835649D01*
X96701812Y-68921809D01*
X96701809Y-68921812D01*
X96615649Y-69036906D01*
X96615646Y-69036911D01*
X96586924Y-69113920D01*
X96545052Y-69169853D01*
X96479588Y-69194270D01*
X96411315Y-69179418D01*
X96379514Y-69154571D01*
X96370784Y-69145087D01*
X96370779Y-69145083D01*
X96370777Y-69145081D01*
X96187634Y-69002535D01*
X96187628Y-69002531D01*
X95983504Y-68892064D01*
X95983495Y-68892061D01*
X95763984Y-68816702D01*
X95576404Y-68785401D01*
X95535049Y-68778500D01*
X95302951Y-68778500D01*
X95261596Y-68785401D01*
X95074015Y-68816702D01*
X94854504Y-68892061D01*
X94854495Y-68892064D01*
X94650371Y-69002531D01*
X94650365Y-69002535D01*
X94467222Y-69145081D01*
X94467219Y-69145084D01*
X94467216Y-69145086D01*
X94467216Y-69145087D01*
X94442791Y-69171620D01*
X94310016Y-69315852D01*
X94183075Y-69510151D01*
X94089842Y-69722699D01*
X94032866Y-69947691D01*
X94032864Y-69947702D01*
X94013700Y-70178993D01*
X94013700Y-70179006D01*
X90374468Y-70179006D01*
X90374468Y-70179001D01*
X90374468Y-70178998D01*
X90359922Y-70012740D01*
X90354635Y-69952308D01*
X90295739Y-69732504D01*
X90199568Y-69526266D01*
X90069047Y-69339861D01*
X90069045Y-69339858D01*
X89908141Y-69178954D01*
X89721734Y-69048432D01*
X89721732Y-69048431D01*
X89515497Y-68952261D01*
X89515488Y-68952258D01*
X89295697Y-68893366D01*
X89295693Y-68893365D01*
X89295692Y-68893365D01*
X89295691Y-68893364D01*
X89295686Y-68893364D01*
X89069002Y-68873532D01*
X89068998Y-68873532D01*
X88842313Y-68893364D01*
X88842302Y-68893366D01*
X88622511Y-68952258D01*
X88622502Y-68952261D01*
X88416267Y-69048431D01*
X88416265Y-69048432D01*
X88229858Y-69178954D01*
X88068954Y-69339858D01*
X87938432Y-69526265D01*
X87938431Y-69526267D01*
X87842261Y-69732502D01*
X87842258Y-69732511D01*
X87783366Y-69952302D01*
X87783364Y-69952313D01*
X87763532Y-70178998D01*
X87763532Y-70179001D01*
X82754468Y-70179001D01*
X82754468Y-70178998D01*
X82739922Y-70012740D01*
X82734635Y-69952308D01*
X82675739Y-69732504D01*
X82579568Y-69526266D01*
X82449047Y-69339861D01*
X82449045Y-69339858D01*
X82288141Y-69178954D01*
X82101734Y-69048432D01*
X82101732Y-69048431D01*
X81895497Y-68952261D01*
X81895488Y-68952258D01*
X81675697Y-68893366D01*
X81675693Y-68893365D01*
X81675692Y-68893365D01*
X81675691Y-68893364D01*
X81675686Y-68893364D01*
X81449002Y-68873532D01*
X81448998Y-68873532D01*
X81222313Y-68893364D01*
X81222302Y-68893366D01*
X81002511Y-68952258D01*
X81002502Y-68952261D01*
X80796267Y-69048431D01*
X80796265Y-69048432D01*
X80609858Y-69178954D01*
X80448954Y-69339858D01*
X80318432Y-69526265D01*
X80318431Y-69526267D01*
X80222261Y-69732502D01*
X80222258Y-69732511D01*
X80163366Y-69952302D01*
X80163364Y-69952313D01*
X80143532Y-70178998D01*
X80143532Y-70179001D01*
X20773792Y-70179001D01*
X20773792Y-70178999D01*
X20754651Y-69935780D01*
X20697696Y-69698542D01*
X20604331Y-69473138D01*
X20491149Y-69288442D01*
X20472904Y-69220996D01*
X20494020Y-69154394D01*
X20522560Y-69124389D01*
X20626546Y-69046546D01*
X20712796Y-68931331D01*
X20763091Y-68796483D01*
X20769500Y-68736873D01*
X20769499Y-66541128D01*
X20763091Y-66481517D01*
X20748101Y-66441328D01*
X20712797Y-66346671D01*
X20712793Y-66346664D01*
X20638087Y-66246870D01*
X27778500Y-66246870D01*
X27778501Y-66246876D01*
X27784908Y-66306483D01*
X27835202Y-66441328D01*
X27835206Y-66441335D01*
X27921452Y-66556544D01*
X27921455Y-66556547D01*
X28036664Y-66642793D01*
X28036671Y-66642797D01*
X28171517Y-66693091D01*
X28171516Y-66693091D01*
X28178444Y-66693835D01*
X28231127Y-66699500D01*
X30526872Y-66699499D01*
X30586483Y-66693091D01*
X30721331Y-66642796D01*
X30836546Y-66556546D01*
X30922796Y-66441331D01*
X30973091Y-66306483D01*
X30979500Y-66246873D01*
X30979499Y-63951128D01*
X30973666Y-63896863D01*
X30973091Y-63891516D01*
X30922797Y-63756671D01*
X30922793Y-63756664D01*
X30836547Y-63641455D01*
X30836544Y-63641452D01*
X30721335Y-63555206D01*
X30721328Y-63555202D01*
X30586482Y-63504908D01*
X30586483Y-63504908D01*
X30526883Y-63498501D01*
X30526881Y-63498500D01*
X30526873Y-63498500D01*
X30526864Y-63498500D01*
X28231129Y-63498500D01*
X28231123Y-63498501D01*
X28171516Y-63504908D01*
X28036671Y-63555202D01*
X28036664Y-63555206D01*
X27921455Y-63641452D01*
X27921452Y-63641455D01*
X27835206Y-63756664D01*
X27835202Y-63756671D01*
X27784908Y-63891517D01*
X27779518Y-63941657D01*
X27778501Y-63951123D01*
X27778500Y-63951135D01*
X27778500Y-66246870D01*
X20638087Y-66246870D01*
X20626547Y-66231455D01*
X20626544Y-66231452D01*
X20511335Y-66145206D01*
X20511328Y-66145202D01*
X20376482Y-66094908D01*
X20376483Y-66094908D01*
X20316883Y-66088501D01*
X20316881Y-66088500D01*
X20316873Y-66088500D01*
X20316864Y-66088500D01*
X18121129Y-66088500D01*
X18121123Y-66088501D01*
X18061516Y-66094908D01*
X17926671Y-66145202D01*
X17926664Y-66145206D01*
X17811455Y-66231452D01*
X17811452Y-66231455D01*
X17725206Y-66346664D01*
X17725202Y-66346671D01*
X17674908Y-66481517D01*
X17668501Y-66541116D01*
X17668501Y-66541123D01*
X17668500Y-66541135D01*
X17668500Y-68736870D01*
X17668501Y-68736876D01*
X17674908Y-68796483D01*
X17725202Y-68931328D01*
X17725206Y-68931335D01*
X17778504Y-69002531D01*
X17811454Y-69046546D01*
X17915434Y-69124386D01*
X17957305Y-69180319D01*
X17962289Y-69250011D01*
X17946851Y-69288441D01*
X17833667Y-69473140D01*
X17740303Y-69698542D01*
X17683348Y-69935780D01*
X17664207Y-70179000D01*
X12819500Y-70179000D01*
X12819500Y-62559001D01*
X38233532Y-62559001D01*
X38253364Y-62785686D01*
X38253366Y-62785697D01*
X38312258Y-63005488D01*
X38312261Y-63005497D01*
X38408431Y-63211732D01*
X38408432Y-63211734D01*
X38538954Y-63398141D01*
X38699858Y-63559045D01*
X38699861Y-63559047D01*
X38886266Y-63689568D01*
X38944865Y-63716893D01*
X38997305Y-63763065D01*
X39016457Y-63830258D01*
X38996242Y-63897139D01*
X38944867Y-63941657D01*
X38886515Y-63968867D01*
X38700179Y-64099342D01*
X38539342Y-64260179D01*
X38408865Y-64446517D01*
X38312734Y-64652673D01*
X38312730Y-64652682D01*
X38260127Y-64848999D01*
X38260128Y-64849000D01*
X39223314Y-64849000D01*
X39211359Y-64860955D01*
X39153835Y-64973852D01*
X39134014Y-65099000D01*
X39153835Y-65224148D01*
X39211359Y-65337045D01*
X39223314Y-65349000D01*
X38260128Y-65349000D01*
X38312730Y-65545317D01*
X38312734Y-65545326D01*
X38408865Y-65751482D01*
X38539342Y-65937820D01*
X38700179Y-66098657D01*
X38886517Y-66229134D01*
X39092673Y-66325265D01*
X39092682Y-66325269D01*
X39288999Y-66377872D01*
X39289000Y-66377871D01*
X39289000Y-65414686D01*
X39300955Y-65426641D01*
X39413852Y-65484165D01*
X39507519Y-65499000D01*
X39570481Y-65499000D01*
X39664148Y-65484165D01*
X39777045Y-65426641D01*
X39789000Y-65414685D01*
X39789000Y-66377872D01*
X39985317Y-66325269D01*
X39985326Y-66325265D01*
X40191482Y-66229134D01*
X40377820Y-66098657D01*
X40538657Y-65937820D01*
X40669134Y-65751482D01*
X40765265Y-65545326D01*
X40765269Y-65545317D01*
X40817872Y-65349000D01*
X39854686Y-65349000D01*
X39866641Y-65337045D01*
X39924165Y-65224148D01*
X39943986Y-65099000D01*
X39924165Y-64973852D01*
X39866641Y-64860955D01*
X39854686Y-64849000D01*
X40817872Y-64849000D01*
X40817872Y-64848999D01*
X40765269Y-64652682D01*
X40765265Y-64652673D01*
X40669134Y-64446517D01*
X40538657Y-64260179D01*
X40377820Y-64099342D01*
X40191482Y-63968865D01*
X40133133Y-63941657D01*
X40080694Y-63895484D01*
X40061542Y-63828291D01*
X40081758Y-63761410D01*
X40133129Y-63716895D01*
X40191734Y-63689568D01*
X40378139Y-63559047D01*
X40539047Y-63398139D01*
X40669568Y-63211734D01*
X40765739Y-63005496D01*
X40824635Y-62785692D01*
X40841634Y-62591384D01*
X40844468Y-62559001D01*
X40844468Y-62558998D01*
X40824635Y-62332313D01*
X40824635Y-62332308D01*
X40765739Y-62112504D01*
X40669568Y-61906266D01*
X40539047Y-61719861D01*
X40539045Y-61719858D01*
X40378141Y-61558954D01*
X40191734Y-61428432D01*
X40191728Y-61428429D01*
X40133725Y-61401382D01*
X40081285Y-61355210D01*
X40062133Y-61288017D01*
X40082348Y-61221135D01*
X40133725Y-61176618D01*
X40191734Y-61149568D01*
X40378139Y-61019047D01*
X40539047Y-60858139D01*
X40669568Y-60671734D01*
X40765739Y-60465496D01*
X40824635Y-60245692D01*
X40844468Y-60019000D01*
X40824635Y-59792308D01*
X40765739Y-59572504D01*
X40669568Y-59366266D01*
X40539047Y-59179861D01*
X40539045Y-59179858D01*
X40378141Y-59018954D01*
X40191734Y-58888432D01*
X40191728Y-58888429D01*
X40133725Y-58861382D01*
X40081285Y-58815210D01*
X40062133Y-58748017D01*
X40082348Y-58681135D01*
X40133725Y-58636618D01*
X40191734Y-58609568D01*
X40378139Y-58479047D01*
X40539047Y-58318139D01*
X40669568Y-58131734D01*
X40765739Y-57925496D01*
X40824635Y-57705692D01*
X40844468Y-57479000D01*
X40824635Y-57252308D01*
X40765739Y-57032504D01*
X40669568Y-56826266D01*
X40539047Y-56639861D01*
X40539045Y-56639858D01*
X40378141Y-56478954D01*
X40191734Y-56348432D01*
X40191728Y-56348429D01*
X40133725Y-56321382D01*
X40081285Y-56275210D01*
X40062133Y-56208017D01*
X40082348Y-56141135D01*
X40133725Y-56096618D01*
X40191734Y-56069568D01*
X40378139Y-55939047D01*
X40539047Y-55778139D01*
X40669568Y-55591734D01*
X40765739Y-55385496D01*
X40824635Y-55165692D01*
X40840911Y-54979649D01*
X40866363Y-54914582D01*
X40922954Y-54873603D01*
X40992716Y-54869725D01*
X41052120Y-54902777D01*
X41342181Y-55192838D01*
X41375666Y-55254161D01*
X41378500Y-55280519D01*
X41378500Y-65075951D01*
X41378387Y-65079696D01*
X41374642Y-65141603D01*
X41374642Y-65141605D01*
X41385821Y-65202612D01*
X41386384Y-65206313D01*
X41393859Y-65267870D01*
X41393860Y-65267874D01*
X41397451Y-65277343D01*
X41403474Y-65298946D01*
X41405304Y-65308930D01*
X41430759Y-65365490D01*
X41432189Y-65368941D01*
X41454182Y-65426930D01*
X41454183Y-65426931D01*
X41459936Y-65435266D01*
X41470961Y-65454813D01*
X41475120Y-65464055D01*
X41475124Y-65464060D01*
X41513371Y-65512878D01*
X41515591Y-65515896D01*
X41550812Y-65566924D01*
X41550816Y-65566928D01*
X41550817Y-65566929D01*
X41597250Y-65608064D01*
X41599941Y-65610598D01*
X44107399Y-68118056D01*
X44109935Y-68120750D01*
X44151071Y-68167183D01*
X44182431Y-68188829D01*
X44202110Y-68202413D01*
X44205127Y-68204633D01*
X44253938Y-68242874D01*
X44253943Y-68242877D01*
X44263174Y-68247031D01*
X44282727Y-68258059D01*
X44291070Y-68263818D01*
X44349044Y-68285804D01*
X44349057Y-68285809D01*
X44352508Y-68287238D01*
X44382093Y-68300553D01*
X44409063Y-68312692D01*
X44409064Y-68312692D01*
X44409068Y-68312694D01*
X44419030Y-68314519D01*
X44440651Y-68320546D01*
X44440667Y-68320552D01*
X44450128Y-68324140D01*
X44466871Y-68326173D01*
X44511689Y-68331615D01*
X44515386Y-68332177D01*
X44576394Y-68343357D01*
X44576395Y-68343356D01*
X44576396Y-68343357D01*
X44638292Y-68339613D01*
X44642036Y-68339500D01*
X69995952Y-68339500D01*
X69999697Y-68339613D01*
X70007042Y-68340057D01*
X70061606Y-68343358D01*
X70099314Y-68336447D01*
X70122621Y-68332177D01*
X70126325Y-68331613D01*
X70144170Y-68329446D01*
X70187872Y-68324140D01*
X70197335Y-68320550D01*
X70218961Y-68314522D01*
X70219893Y-68314351D01*
X70228932Y-68312695D01*
X70285512Y-68287229D01*
X70288942Y-68285809D01*
X70346930Y-68263818D01*
X70355266Y-68258062D01*
X70374821Y-68247034D01*
X70384057Y-68242878D01*
X70432896Y-68204613D01*
X70435876Y-68202421D01*
X70486929Y-68167183D01*
X70528065Y-68120748D01*
X70530599Y-68118056D01*
X75578056Y-63070599D01*
X75580748Y-63068065D01*
X75627183Y-63026929D01*
X75662421Y-62975876D01*
X75664613Y-62972896D01*
X75702878Y-62924057D01*
X75707034Y-62914821D01*
X75718062Y-62895266D01*
X75723818Y-62886930D01*
X75745812Y-62828931D01*
X75747227Y-62825515D01*
X75772695Y-62768931D01*
X75774522Y-62758959D01*
X75780546Y-62737347D01*
X75784140Y-62727872D01*
X75791615Y-62666309D01*
X75792177Y-62662619D01*
X75795535Y-62644289D01*
X75803358Y-62601606D01*
X75800780Y-62559001D01*
X80143532Y-62559001D01*
X80163364Y-62785686D01*
X80163366Y-62785697D01*
X80222258Y-63005488D01*
X80222261Y-63005497D01*
X80318431Y-63211732D01*
X80318432Y-63211734D01*
X80448954Y-63398141D01*
X80609858Y-63559045D01*
X80609861Y-63559047D01*
X80796266Y-63689568D01*
X81002504Y-63785739D01*
X81222308Y-63844635D01*
X81384230Y-63858801D01*
X81448998Y-63864468D01*
X81449000Y-63864468D01*
X81449002Y-63864468D01*
X81505672Y-63859509D01*
X81675692Y-63844635D01*
X81895496Y-63785739D01*
X82101734Y-63689568D01*
X82288139Y-63559047D01*
X82449047Y-63398139D01*
X82579568Y-63211734D01*
X82675739Y-63005496D01*
X82734635Y-62785692D01*
X82751634Y-62591384D01*
X82754468Y-62559001D01*
X87763532Y-62559001D01*
X87783364Y-62785686D01*
X87783366Y-62785697D01*
X87842258Y-63005488D01*
X87842261Y-63005497D01*
X87938431Y-63211732D01*
X87938432Y-63211734D01*
X88068954Y-63398141D01*
X88229858Y-63559045D01*
X88229861Y-63559047D01*
X88416266Y-63689568D01*
X88622504Y-63785739D01*
X88842308Y-63844635D01*
X89004230Y-63858801D01*
X89068998Y-63864468D01*
X89069000Y-63864468D01*
X89069002Y-63864468D01*
X89125673Y-63859509D01*
X89295692Y-63844635D01*
X89515496Y-63785739D01*
X89721734Y-63689568D01*
X89908139Y-63559047D01*
X90069047Y-63398139D01*
X90199568Y-63211734D01*
X90295739Y-63005496D01*
X90354635Y-62785692D01*
X90371634Y-62591384D01*
X90374468Y-62559006D01*
X94013700Y-62559006D01*
X94032864Y-62790297D01*
X94032866Y-62790308D01*
X94089842Y-63015300D01*
X94183075Y-63227848D01*
X94310016Y-63422147D01*
X94310019Y-63422151D01*
X94310021Y-63422153D01*
X94467216Y-63592913D01*
X94467219Y-63592915D01*
X94467222Y-63592918D01*
X94650365Y-63735464D01*
X94650371Y-63735468D01*
X94650374Y-63735470D01*
X94854497Y-63845936D01*
X94908479Y-63864468D01*
X95074015Y-63921297D01*
X95074017Y-63921297D01*
X95074019Y-63921298D01*
X95302951Y-63959500D01*
X95302952Y-63959500D01*
X95535048Y-63959500D01*
X95535049Y-63959500D01*
X95763981Y-63921298D01*
X95983503Y-63845936D01*
X96187626Y-63735470D01*
X96370784Y-63592913D01*
X96379511Y-63583432D01*
X96439394Y-63547441D01*
X96509232Y-63549538D01*
X96566850Y-63589060D01*
X96586924Y-63624080D01*
X96615645Y-63701086D01*
X96615649Y-63701093D01*
X96701809Y-63816187D01*
X96701812Y-63816190D01*
X96816906Y-63902350D01*
X96816913Y-63902354D01*
X96951620Y-63952596D01*
X96951627Y-63952598D01*
X97011155Y-63958999D01*
X97011172Y-63959000D01*
X97709000Y-63959000D01*
X97709000Y-62933189D01*
X97761547Y-62969016D01*
X97891173Y-63009000D01*
X97992724Y-63009000D01*
X98093138Y-62993865D01*
X98209000Y-62938068D01*
X98209000Y-63959000D01*
X98906828Y-63959000D01*
X98906844Y-63958999D01*
X98966372Y-63952598D01*
X98966379Y-63952596D01*
X99101086Y-63902354D01*
X99101093Y-63902350D01*
X99216187Y-63816190D01*
X99216190Y-63816187D01*
X99302350Y-63701093D01*
X99302354Y-63701086D01*
X99352596Y-63566379D01*
X99352598Y-63566372D01*
X99358999Y-63506844D01*
X99359000Y-63506827D01*
X99359000Y-62809000D01*
X98334278Y-62809000D01*
X98382625Y-62725260D01*
X98412810Y-62593008D01*
X98402673Y-62457735D01*
X98353113Y-62331459D01*
X98335203Y-62309000D01*
X99359000Y-62309000D01*
X99359000Y-61611172D01*
X99358999Y-61611155D01*
X99352598Y-61551627D01*
X99352596Y-61551620D01*
X99302354Y-61416913D01*
X99302350Y-61416906D01*
X99216190Y-61301812D01*
X99216187Y-61301809D01*
X99101093Y-61215649D01*
X99101086Y-61215645D01*
X98966379Y-61165403D01*
X98966372Y-61165401D01*
X98906844Y-61159000D01*
X98209000Y-61159000D01*
X98209000Y-62184810D01*
X98156453Y-62148984D01*
X98026827Y-62109000D01*
X97925276Y-62109000D01*
X97824862Y-62124135D01*
X97709000Y-62179931D01*
X97709000Y-61159000D01*
X97011155Y-61159000D01*
X96951627Y-61165401D01*
X96951620Y-61165403D01*
X96816913Y-61215645D01*
X96816906Y-61215649D01*
X96701812Y-61301809D01*
X96701809Y-61301812D01*
X96615649Y-61416906D01*
X96615646Y-61416911D01*
X96586924Y-61493920D01*
X96545052Y-61549853D01*
X96479588Y-61574270D01*
X96411315Y-61559418D01*
X96379514Y-61534571D01*
X96370784Y-61525087D01*
X96370779Y-61525083D01*
X96370777Y-61525081D01*
X96187634Y-61382535D01*
X96187628Y-61382531D01*
X95983504Y-61272064D01*
X95983495Y-61272061D01*
X95763984Y-61196702D01*
X95576404Y-61165401D01*
X95535049Y-61158500D01*
X95302951Y-61158500D01*
X95261596Y-61165401D01*
X95074015Y-61196702D01*
X94854504Y-61272061D01*
X94854495Y-61272064D01*
X94650371Y-61382531D01*
X94650365Y-61382535D01*
X94467222Y-61525081D01*
X94467219Y-61525084D01*
X94467216Y-61525086D01*
X94467216Y-61525087D01*
X94442791Y-61551620D01*
X94310016Y-61695852D01*
X94183075Y-61890151D01*
X94089842Y-62102699D01*
X94032866Y-62327691D01*
X94032864Y-62327702D01*
X94013700Y-62558993D01*
X94013700Y-62559006D01*
X90374468Y-62559006D01*
X90374468Y-62559001D01*
X90374468Y-62558998D01*
X90354635Y-62332313D01*
X90354635Y-62332308D01*
X90295739Y-62112504D01*
X90199568Y-61906266D01*
X90069047Y-61719861D01*
X90069045Y-61719858D01*
X89908141Y-61558954D01*
X89721734Y-61428432D01*
X89721732Y-61428431D01*
X89515497Y-61332261D01*
X89515488Y-61332258D01*
X89295697Y-61273366D01*
X89295693Y-61273365D01*
X89295692Y-61273365D01*
X89295691Y-61273364D01*
X89295686Y-61273364D01*
X89069002Y-61253532D01*
X89068998Y-61253532D01*
X88842313Y-61273364D01*
X88842302Y-61273366D01*
X88622511Y-61332258D01*
X88622502Y-61332261D01*
X88416267Y-61428431D01*
X88416265Y-61428432D01*
X88229858Y-61558954D01*
X88068954Y-61719858D01*
X87938432Y-61906265D01*
X87938431Y-61906267D01*
X87842261Y-62112502D01*
X87842258Y-62112511D01*
X87783366Y-62332302D01*
X87783364Y-62332313D01*
X87763532Y-62558998D01*
X87763532Y-62559001D01*
X82754468Y-62559001D01*
X82754468Y-62558998D01*
X82734635Y-62332313D01*
X82734635Y-62332308D01*
X82675739Y-62112504D01*
X82579568Y-61906266D01*
X82449047Y-61719861D01*
X82449045Y-61719858D01*
X82288141Y-61558954D01*
X82101734Y-61428432D01*
X82101732Y-61428431D01*
X81895497Y-61332261D01*
X81895488Y-61332258D01*
X81675697Y-61273366D01*
X81675693Y-61273365D01*
X81675692Y-61273365D01*
X81675691Y-61273364D01*
X81675686Y-61273364D01*
X81449002Y-61253532D01*
X81448998Y-61253532D01*
X81222313Y-61273364D01*
X81222302Y-61273366D01*
X81002511Y-61332258D01*
X81002502Y-61332261D01*
X80796267Y-61428431D01*
X80796265Y-61428432D01*
X80609858Y-61558954D01*
X80448954Y-61719858D01*
X80318432Y-61906265D01*
X80318431Y-61906267D01*
X80222261Y-62112502D01*
X80222258Y-62112511D01*
X80163366Y-62332302D01*
X80163364Y-62332313D01*
X80143532Y-62558998D01*
X80143532Y-62559001D01*
X75800780Y-62559001D01*
X75800245Y-62550161D01*
X75799613Y-62539696D01*
X75799500Y-62535951D01*
X75799500Y-56363499D01*
X75819185Y-56296460D01*
X75871989Y-56250705D01*
X75923500Y-56239499D01*
X75946871Y-56239499D01*
X75946872Y-56239499D01*
X76006483Y-56233091D01*
X76141331Y-56182796D01*
X76256546Y-56096546D01*
X76342796Y-55981331D01*
X76393091Y-55846483D01*
X76399500Y-55786873D01*
X76399499Y-54091128D01*
X76393091Y-54031517D01*
X76379598Y-53995341D01*
X76342797Y-53896671D01*
X76342793Y-53896664D01*
X76256547Y-53781455D01*
X76256544Y-53781452D01*
X76141335Y-53695206D01*
X76141328Y-53695202D01*
X76006482Y-53644908D01*
X76006483Y-53644908D01*
X75971404Y-53641137D01*
X75906853Y-53614399D01*
X75867005Y-53557006D01*
X75864512Y-53487181D01*
X75900165Y-53427092D01*
X75913539Y-53416272D01*
X75938140Y-53399046D01*
X76099045Y-53238141D01*
X76099044Y-53238141D01*
X76099047Y-53238139D01*
X76229568Y-53051734D01*
X76325739Y-52845496D01*
X76384635Y-52625692D01*
X76404468Y-52399000D01*
X76384635Y-52172308D01*
X76325739Y-51952504D01*
X76229568Y-51746266D01*
X76099047Y-51559861D01*
X76099045Y-51559858D01*
X75938141Y-51398954D01*
X75751734Y-51268432D01*
X75751728Y-51268429D01*
X75693725Y-51241382D01*
X75641285Y-51195210D01*
X75622133Y-51128017D01*
X75642348Y-51061135D01*
X75693725Y-51016618D01*
X75751734Y-50989568D01*
X75938139Y-50859047D01*
X76099047Y-50698139D01*
X76229568Y-50511734D01*
X76325739Y-50305496D01*
X76384635Y-50085692D01*
X76404468Y-49859000D01*
X76384635Y-49632308D01*
X76325739Y-49412504D01*
X76229568Y-49206266D01*
X76099047Y-49019861D01*
X76099045Y-49019858D01*
X75938141Y-48858954D01*
X75751734Y-48728432D01*
X75751728Y-48728429D01*
X75693882Y-48701455D01*
X75693724Y-48701381D01*
X75641285Y-48655210D01*
X75622133Y-48588017D01*
X75642348Y-48521135D01*
X75693725Y-48476618D01*
X75751734Y-48449568D01*
X75938139Y-48319047D01*
X76090316Y-48166870D01*
X87778500Y-48166870D01*
X87778501Y-48166876D01*
X87784908Y-48226483D01*
X87835202Y-48361328D01*
X87835206Y-48361335D01*
X87921452Y-48476544D01*
X87921455Y-48476547D01*
X88036664Y-48562793D01*
X88036671Y-48562797D01*
X88171517Y-48613091D01*
X88171516Y-48613091D01*
X88178444Y-48613835D01*
X88231127Y-48619500D01*
X89926872Y-48619499D01*
X89986483Y-48613091D01*
X90121331Y-48562796D01*
X90236546Y-48476546D01*
X90322796Y-48361331D01*
X90373091Y-48226483D01*
X90379500Y-48166873D01*
X90379500Y-47319002D01*
X91574034Y-47319002D01*
X91593858Y-47545599D01*
X91593860Y-47545610D01*
X91652730Y-47765317D01*
X91652734Y-47765326D01*
X91748865Y-47971481D01*
X91748866Y-47971483D01*
X91799973Y-48044471D01*
X91799974Y-48044472D01*
X92481046Y-47363399D01*
X92493835Y-47444148D01*
X92551359Y-47557045D01*
X92640955Y-47646641D01*
X92753852Y-47704165D01*
X92834599Y-47716953D01*
X92153526Y-48398025D01*
X92153526Y-48398026D01*
X92226512Y-48449131D01*
X92226516Y-48449133D01*
X92432673Y-48545265D01*
X92432682Y-48545269D01*
X92652389Y-48604139D01*
X92652400Y-48604141D01*
X92878998Y-48623966D01*
X92879002Y-48623966D01*
X93105599Y-48604141D01*
X93105610Y-48604139D01*
X93325317Y-48545269D01*
X93325331Y-48545264D01*
X93531478Y-48449136D01*
X93604472Y-48398025D01*
X92923401Y-47716953D01*
X93004148Y-47704165D01*
X93117045Y-47646641D01*
X93206641Y-47557045D01*
X93264165Y-47444148D01*
X93276953Y-47363400D01*
X93958025Y-48044472D01*
X94009136Y-47971478D01*
X94105264Y-47765331D01*
X94105269Y-47765317D01*
X94164139Y-47545610D01*
X94164141Y-47545599D01*
X94183966Y-47319002D01*
X94183966Y-47318997D01*
X94164141Y-47092400D01*
X94164139Y-47092389D01*
X94105269Y-46872682D01*
X94105265Y-46872673D01*
X94009133Y-46666516D01*
X94009131Y-46666512D01*
X93958026Y-46593526D01*
X93958025Y-46593526D01*
X93276953Y-47274598D01*
X93264165Y-47193852D01*
X93206641Y-47080955D01*
X93117045Y-46991359D01*
X93004148Y-46933835D01*
X92923400Y-46921046D01*
X93604472Y-46239974D01*
X93604471Y-46239973D01*
X93531483Y-46188866D01*
X93531481Y-46188865D01*
X93325326Y-46092734D01*
X93325317Y-46092730D01*
X93105610Y-46033860D01*
X93105599Y-46033858D01*
X92879002Y-46014034D01*
X92878998Y-46014034D01*
X92652400Y-46033858D01*
X92652389Y-46033860D01*
X92432682Y-46092730D01*
X92432673Y-46092734D01*
X92226513Y-46188868D01*
X92153527Y-46239972D01*
X92153526Y-46239973D01*
X92834600Y-46921046D01*
X92753852Y-46933835D01*
X92640955Y-46991359D01*
X92551359Y-47080955D01*
X92493835Y-47193852D01*
X92481046Y-47274599D01*
X91799973Y-46593526D01*
X91799972Y-46593527D01*
X91748868Y-46666513D01*
X91652734Y-46872673D01*
X91652730Y-46872682D01*
X91593860Y-47092389D01*
X91593858Y-47092400D01*
X91574034Y-47318997D01*
X91574034Y-47319002D01*
X90379500Y-47319002D01*
X90379499Y-46471128D01*
X90373091Y-46411517D01*
X90338567Y-46318954D01*
X90322797Y-46276671D01*
X90322793Y-46276664D01*
X90236547Y-46161455D01*
X90236544Y-46161452D01*
X90121335Y-46075206D01*
X90121328Y-46075202D01*
X89986482Y-46024908D01*
X89986483Y-46024908D01*
X89926883Y-46018501D01*
X89926881Y-46018500D01*
X89926873Y-46018500D01*
X89926864Y-46018500D01*
X88231129Y-46018500D01*
X88231123Y-46018501D01*
X88171516Y-46024908D01*
X88036671Y-46075202D01*
X88036664Y-46075206D01*
X87921455Y-46161452D01*
X87921452Y-46161455D01*
X87835206Y-46276664D01*
X87835202Y-46276671D01*
X87784908Y-46411517D01*
X87778501Y-46471116D01*
X87778501Y-46471123D01*
X87778500Y-46471135D01*
X87778500Y-48166870D01*
X76090316Y-48166870D01*
X76099047Y-48158139D01*
X76229568Y-47971734D01*
X76325739Y-47765496D01*
X76384635Y-47545692D01*
X76404468Y-47319000D01*
X76384635Y-47092308D01*
X76325739Y-46872504D01*
X76229568Y-46666266D01*
X76099047Y-46479861D01*
X76099045Y-46479858D01*
X75938141Y-46318954D01*
X75825341Y-46239972D01*
X75751734Y-46188432D01*
X75693722Y-46161380D01*
X75641284Y-46115208D01*
X75622133Y-46048014D01*
X75642349Y-45981133D01*
X75693721Y-45936619D01*
X75751734Y-45909568D01*
X75938139Y-45779047D01*
X76099047Y-45618139D01*
X76229568Y-45431734D01*
X76325739Y-45225496D01*
X76384635Y-45005692D01*
X76404468Y-44779000D01*
X76384635Y-44552308D01*
X76325739Y-44332504D01*
X76229568Y-44126266D01*
X76099047Y-43939861D01*
X76099045Y-43939858D01*
X75938141Y-43778954D01*
X75751734Y-43648432D01*
X75751728Y-43648429D01*
X75693725Y-43621382D01*
X75641285Y-43575210D01*
X75622133Y-43508017D01*
X75642348Y-43441135D01*
X75693725Y-43396618D01*
X75751734Y-43369568D01*
X75938139Y-43239047D01*
X76099047Y-43078139D01*
X76229568Y-42891734D01*
X76325739Y-42685496D01*
X76384635Y-42465692D01*
X76404468Y-42239000D01*
X76384635Y-42012308D01*
X76325739Y-41792504D01*
X76229568Y-41586266D01*
X76099047Y-41399861D01*
X76099045Y-41399858D01*
X75938141Y-41238954D01*
X75751734Y-41108432D01*
X75751728Y-41108429D01*
X75693725Y-41081382D01*
X75641285Y-41035210D01*
X75622133Y-40968017D01*
X75642348Y-40901135D01*
X75693725Y-40856618D01*
X75751734Y-40829568D01*
X75938139Y-40699047D01*
X76099047Y-40538139D01*
X76229568Y-40351734D01*
X76325739Y-40145496D01*
X76384635Y-39925692D01*
X76404468Y-39699000D01*
X76384635Y-39472308D01*
X76325739Y-39252504D01*
X76229568Y-39046266D01*
X76099047Y-38859861D01*
X76099045Y-38859858D01*
X75938141Y-38698954D01*
X75751734Y-38568432D01*
X75751728Y-38568429D01*
X75693725Y-38541382D01*
X75641285Y-38495210D01*
X75622133Y-38428017D01*
X75642348Y-38361135D01*
X75693725Y-38316618D01*
X75751734Y-38289568D01*
X75938139Y-38159047D01*
X76099047Y-37998139D01*
X76229568Y-37811734D01*
X76325739Y-37605496D01*
X76384635Y-37385692D01*
X76404468Y-37159000D01*
X76384635Y-36932308D01*
X76325739Y-36712504D01*
X76229568Y-36506266D01*
X76099047Y-36319861D01*
X76099045Y-36319858D01*
X75938141Y-36158954D01*
X75751734Y-36028432D01*
X75751728Y-36028429D01*
X75693725Y-36001382D01*
X75641285Y-35955210D01*
X75622133Y-35888017D01*
X75642348Y-35821135D01*
X75693725Y-35776618D01*
X75751734Y-35749568D01*
X75938139Y-35619047D01*
X76099047Y-35458139D01*
X76229568Y-35271734D01*
X76325739Y-35065496D01*
X76384635Y-34845692D01*
X76404468Y-34619000D01*
X76400740Y-34576394D01*
X76391107Y-34466281D01*
X76384635Y-34392308D01*
X76339916Y-34225415D01*
X76325741Y-34172511D01*
X76325738Y-34172502D01*
X76229568Y-33966266D01*
X76099047Y-33779861D01*
X76099045Y-33779858D01*
X75938141Y-33618954D01*
X75751734Y-33488432D01*
X75751728Y-33488429D01*
X75693725Y-33461382D01*
X75641285Y-33415210D01*
X75622133Y-33348017D01*
X75642348Y-33281135D01*
X75693725Y-33236618D01*
X75751734Y-33209568D01*
X75938139Y-33079047D01*
X76099047Y-32918139D01*
X76229568Y-32731734D01*
X76325739Y-32525496D01*
X76384635Y-32305692D01*
X76404468Y-32079000D01*
X94063341Y-32079000D01*
X94083936Y-32314403D01*
X94083938Y-32314413D01*
X94145094Y-32542655D01*
X94145096Y-32542659D01*
X94145097Y-32542663D01*
X94149000Y-32551032D01*
X94244965Y-32756830D01*
X94244967Y-32756834D01*
X94353281Y-32911521D01*
X94380505Y-32950401D01*
X94547599Y-33117495D01*
X94644384Y-33185265D01*
X94741165Y-33253032D01*
X94741167Y-33253033D01*
X94741170Y-33253035D01*
X94955337Y-33352903D01*
X95183592Y-33414063D01*
X95359485Y-33429452D01*
X95418999Y-33434659D01*
X95419000Y-33434659D01*
X95419001Y-33434659D01*
X95458234Y-33431226D01*
X95654408Y-33414063D01*
X95882663Y-33352903D01*
X96096830Y-33253035D01*
X96290401Y-33117495D01*
X96457495Y-32950401D01*
X96587424Y-32764842D01*
X96642002Y-32721217D01*
X96711500Y-32714023D01*
X96773855Y-32745546D01*
X96790575Y-32764842D01*
X96920500Y-32950395D01*
X96920505Y-32950401D01*
X97087599Y-33117495D01*
X97184384Y-33185265D01*
X97281165Y-33253032D01*
X97281167Y-33253033D01*
X97281170Y-33253035D01*
X97495337Y-33352903D01*
X97723592Y-33414063D01*
X97899485Y-33429452D01*
X97958999Y-33434659D01*
X97959000Y-33434659D01*
X97959001Y-33434659D01*
X97998234Y-33431226D01*
X98194408Y-33414063D01*
X98422663Y-33352903D01*
X98636830Y-33253035D01*
X98830401Y-33117495D01*
X98997495Y-32950401D01*
X99133035Y-32756830D01*
X99232903Y-32542663D01*
X99294063Y-32314408D01*
X99314659Y-32079000D01*
X99294063Y-31843592D01*
X99232903Y-31615337D01*
X99133035Y-31401171D01*
X99127425Y-31393158D01*
X98997494Y-31207597D01*
X98830402Y-31040506D01*
X98830401Y-31040505D01*
X98698903Y-30948429D01*
X98644841Y-30910574D01*
X98601216Y-30855997D01*
X98594024Y-30786498D01*
X98625546Y-30724144D01*
X98644836Y-30707428D01*
X98830401Y-30577495D01*
X98997495Y-30410401D01*
X99133035Y-30216830D01*
X99232903Y-30002663D01*
X99294063Y-29774408D01*
X99314659Y-29539000D01*
X99294063Y-29303592D01*
X99232903Y-29075337D01*
X99133035Y-28861171D01*
X99127425Y-28853158D01*
X98997494Y-28667597D01*
X98830402Y-28500506D01*
X98830401Y-28500505D01*
X98660276Y-28381382D01*
X98644841Y-28370574D01*
X98601216Y-28315997D01*
X98594024Y-28246498D01*
X98625546Y-28184144D01*
X98644836Y-28167428D01*
X98830401Y-28037495D01*
X98997495Y-27870401D01*
X99133035Y-27676830D01*
X99232903Y-27462663D01*
X99294063Y-27234408D01*
X99314659Y-26999000D01*
X99294063Y-26763592D01*
X99232903Y-26535337D01*
X99133035Y-26321171D01*
X99127425Y-26313158D01*
X98997494Y-26127597D01*
X98830402Y-25960506D01*
X98830401Y-25960505D01*
X98644405Y-25830269D01*
X98600781Y-25775692D01*
X98593588Y-25706193D01*
X98625110Y-25643839D01*
X98644405Y-25627119D01*
X98830082Y-25497105D01*
X98997105Y-25330082D01*
X99132600Y-25136578D01*
X99232429Y-24922492D01*
X99232432Y-24922486D01*
X99289636Y-24709000D01*
X98392686Y-24709000D01*
X98418493Y-24668844D01*
X98459000Y-24530889D01*
X98459000Y-24387111D01*
X98418493Y-24249156D01*
X98392686Y-24209000D01*
X99289636Y-24209000D01*
X99289635Y-24208999D01*
X99232432Y-23995513D01*
X99232429Y-23995507D01*
X99132600Y-23781422D01*
X99132599Y-23781420D01*
X98997113Y-23587926D01*
X98997108Y-23587920D01*
X98830082Y-23420894D01*
X98636578Y-23285399D01*
X98422492Y-23185570D01*
X98422486Y-23185567D01*
X98209000Y-23128364D01*
X98209000Y-24023498D01*
X98101315Y-23974320D01*
X97994763Y-23959000D01*
X97923237Y-23959000D01*
X97816685Y-23974320D01*
X97709000Y-24023498D01*
X97709000Y-23128364D01*
X97708999Y-23128364D01*
X97495513Y-23185567D01*
X97495507Y-23185570D01*
X97281422Y-23285399D01*
X97281420Y-23285400D01*
X97087926Y-23420886D01*
X96965477Y-23543335D01*
X96904154Y-23576819D01*
X96834462Y-23571835D01*
X96778529Y-23529963D01*
X96761614Y-23498986D01*
X96712354Y-23366913D01*
X96712350Y-23366906D01*
X96626190Y-23251812D01*
X96626187Y-23251809D01*
X96511093Y-23165649D01*
X96511086Y-23165645D01*
X96376379Y-23115403D01*
X96376372Y-23115401D01*
X96316844Y-23109000D01*
X95669000Y-23109000D01*
X95669000Y-24023498D01*
X95561315Y-23974320D01*
X95454763Y-23959000D01*
X95383237Y-23959000D01*
X95276685Y-23974320D01*
X95169000Y-24023498D01*
X95169000Y-23109000D01*
X94521155Y-23109000D01*
X94461627Y-23115401D01*
X94461620Y-23115403D01*
X94326913Y-23165645D01*
X94326906Y-23165649D01*
X94211812Y-23251809D01*
X94211809Y-23251812D01*
X94125649Y-23366906D01*
X94125645Y-23366913D01*
X94075403Y-23501620D01*
X94075401Y-23501627D01*
X94069000Y-23561155D01*
X94069000Y-24209000D01*
X94985314Y-24209000D01*
X94959507Y-24249156D01*
X94919000Y-24387111D01*
X94919000Y-24530889D01*
X94959507Y-24668844D01*
X94985314Y-24709000D01*
X94069000Y-24709000D01*
X94069000Y-25356844D01*
X94075401Y-25416372D01*
X94075403Y-25416379D01*
X94125645Y-25551086D01*
X94125649Y-25551093D01*
X94211809Y-25666187D01*
X94211812Y-25666190D01*
X94326906Y-25752350D01*
X94326913Y-25752354D01*
X94458470Y-25801421D01*
X94514403Y-25843292D01*
X94538821Y-25908756D01*
X94523970Y-25977029D01*
X94502819Y-26005284D01*
X94380503Y-26127600D01*
X94244965Y-26321169D01*
X94244964Y-26321171D01*
X94145098Y-26535335D01*
X94145094Y-26535344D01*
X94083938Y-26763586D01*
X94083936Y-26763596D01*
X94063341Y-26998999D01*
X94063341Y-26999000D01*
X94083936Y-27234403D01*
X94083938Y-27234413D01*
X94145094Y-27462655D01*
X94145096Y-27462659D01*
X94145097Y-27462663D01*
X94153004Y-27479619D01*
X94244965Y-27676830D01*
X94244967Y-27676834D01*
X94264752Y-27705089D01*
X94380501Y-27870396D01*
X94380506Y-27870402D01*
X94547597Y-28037493D01*
X94547603Y-28037498D01*
X94733158Y-28167425D01*
X94776783Y-28222002D01*
X94783977Y-28291500D01*
X94752454Y-28353855D01*
X94733158Y-28370575D01*
X94547597Y-28500505D01*
X94380505Y-28667597D01*
X94244965Y-28861169D01*
X94244964Y-28861171D01*
X94145098Y-29075335D01*
X94145094Y-29075344D01*
X94083938Y-29303586D01*
X94083936Y-29303596D01*
X94063341Y-29538999D01*
X94063341Y-29539000D01*
X94083936Y-29774403D01*
X94083938Y-29774413D01*
X94145094Y-30002655D01*
X94145096Y-30002659D01*
X94145097Y-30002663D01*
X94153004Y-30019619D01*
X94244965Y-30216830D01*
X94244967Y-30216834D01*
X94264752Y-30245089D01*
X94380501Y-30410396D01*
X94380506Y-30410402D01*
X94547597Y-30577493D01*
X94547603Y-30577498D01*
X94733158Y-30707425D01*
X94776783Y-30762002D01*
X94783977Y-30831500D01*
X94752454Y-30893855D01*
X94733158Y-30910575D01*
X94547597Y-31040505D01*
X94380505Y-31207597D01*
X94244965Y-31401169D01*
X94244964Y-31401171D01*
X94145098Y-31615335D01*
X94145094Y-31615344D01*
X94083938Y-31843586D01*
X94083936Y-31843596D01*
X94063341Y-32078999D01*
X94063341Y-32079000D01*
X76404468Y-32079000D01*
X76384635Y-31852308D01*
X76325739Y-31632504D01*
X76229568Y-31426266D01*
X76099047Y-31239861D01*
X76099045Y-31239858D01*
X75938141Y-31078954D01*
X75751734Y-30948432D01*
X75751728Y-30948429D01*
X75693725Y-30921382D01*
X75641285Y-30875210D01*
X75622133Y-30808017D01*
X75642348Y-30741135D01*
X75693725Y-30696618D01*
X75751734Y-30669568D01*
X75938139Y-30539047D01*
X76099047Y-30378139D01*
X76229568Y-30191734D01*
X76325739Y-29985496D01*
X76384635Y-29765692D01*
X76404468Y-29539000D01*
X76384635Y-29312308D01*
X76325739Y-29092504D01*
X76229568Y-28886266D01*
X76099047Y-28699861D01*
X76099045Y-28699858D01*
X75938141Y-28538954D01*
X75751735Y-28408433D01*
X75751736Y-28408433D01*
X75751734Y-28408432D01*
X75693722Y-28381380D01*
X75641284Y-28335208D01*
X75622133Y-28268014D01*
X75642349Y-28201133D01*
X75693721Y-28156619D01*
X75751734Y-28129568D01*
X75938139Y-27999047D01*
X76099047Y-27838139D01*
X76229568Y-27651734D01*
X76325739Y-27445496D01*
X76384635Y-27225692D01*
X76404468Y-26999000D01*
X76384635Y-26772308D01*
X76325739Y-26552504D01*
X76229568Y-26346266D01*
X76099047Y-26159861D01*
X76099045Y-26159858D01*
X75938141Y-25998954D01*
X75751734Y-25868432D01*
X75751728Y-25868429D01*
X75693725Y-25841382D01*
X75641285Y-25795210D01*
X75622133Y-25728017D01*
X75642348Y-25661135D01*
X75693725Y-25616618D01*
X75694253Y-25616372D01*
X75751734Y-25589568D01*
X75938139Y-25459047D01*
X76099047Y-25298139D01*
X76229568Y-25111734D01*
X76325739Y-24905496D01*
X76384635Y-24685692D01*
X76404468Y-24459000D01*
X76384635Y-24232308D01*
X76325739Y-24012504D01*
X76229568Y-23806266D01*
X76099047Y-23619861D01*
X76099045Y-23619858D01*
X75938141Y-23458954D01*
X75751735Y-23328433D01*
X75751736Y-23328433D01*
X75751734Y-23328432D01*
X75693722Y-23301380D01*
X75641284Y-23255208D01*
X75622133Y-23188014D01*
X75642349Y-23121133D01*
X75693721Y-23076619D01*
X75751734Y-23049568D01*
X75938139Y-22919047D01*
X76099047Y-22758139D01*
X76229568Y-22571734D01*
X76325739Y-22365496D01*
X76384635Y-22145692D01*
X76404468Y-21919000D01*
X76384635Y-21692308D01*
X76325739Y-21472504D01*
X76229568Y-21266266D01*
X76122808Y-21113795D01*
X76099045Y-21079858D01*
X75938141Y-20918954D01*
X75751734Y-20788432D01*
X75751728Y-20788429D01*
X75693725Y-20761382D01*
X75641285Y-20715210D01*
X75622133Y-20648017D01*
X75642348Y-20581135D01*
X75693725Y-20536618D01*
X75751734Y-20509568D01*
X75938139Y-20379047D01*
X76099047Y-20218139D01*
X76229568Y-20031734D01*
X76325739Y-19825496D01*
X76384635Y-19605692D01*
X76404468Y-19379000D01*
X76384635Y-19152308D01*
X76325739Y-18932504D01*
X76229568Y-18726266D01*
X76099047Y-18539861D01*
X76099045Y-18539858D01*
X75938141Y-18378954D01*
X75751734Y-18248432D01*
X75751732Y-18248431D01*
X75545497Y-18152261D01*
X75545488Y-18152258D01*
X75325697Y-18093366D01*
X75325693Y-18093365D01*
X75325692Y-18093365D01*
X75325691Y-18093364D01*
X75325686Y-18093364D01*
X75099002Y-18073532D01*
X75098998Y-18073532D01*
X74872313Y-18093364D01*
X74872302Y-18093366D01*
X74652511Y-18152258D01*
X74652502Y-18152261D01*
X74446267Y-18248431D01*
X74446265Y-18248432D01*
X74259858Y-18378954D01*
X74098954Y-18539858D01*
X73968432Y-18726265D01*
X73968431Y-18726267D01*
X73872261Y-18932502D01*
X73872258Y-18932511D01*
X73813366Y-19152302D01*
X73813364Y-19152313D01*
X73793532Y-19378998D01*
X73793532Y-19379001D01*
X73813364Y-19605686D01*
X73813366Y-19605697D01*
X73872258Y-19825488D01*
X73872261Y-19825497D01*
X73968431Y-20031732D01*
X73968432Y-20031734D01*
X74098954Y-20218141D01*
X74259858Y-20379045D01*
X74259861Y-20379047D01*
X74446266Y-20509568D01*
X74504275Y-20536618D01*
X74556714Y-20582791D01*
X74575866Y-20649984D01*
X74555650Y-20716865D01*
X74504275Y-20761382D01*
X74446267Y-20788431D01*
X74446265Y-20788432D01*
X74259858Y-20918954D01*
X74098954Y-21079858D01*
X73968432Y-21266265D01*
X73968431Y-21266267D01*
X73872261Y-21472502D01*
X73872258Y-21472511D01*
X73813366Y-21692302D01*
X73813364Y-21692313D01*
X73793532Y-21918998D01*
X73793532Y-21919001D01*
X73813364Y-22145686D01*
X73813366Y-22145697D01*
X73872258Y-22365488D01*
X73872261Y-22365497D01*
X73968431Y-22571732D01*
X73968432Y-22571734D01*
X74098954Y-22758141D01*
X74259858Y-22919045D01*
X74259861Y-22919047D01*
X74446266Y-23049568D01*
X74504275Y-23076618D01*
X74556714Y-23122791D01*
X74575866Y-23189984D01*
X74555650Y-23256865D01*
X74504275Y-23301381D01*
X74487272Y-23309310D01*
X74446267Y-23328431D01*
X74446265Y-23328432D01*
X74259858Y-23458954D01*
X74098954Y-23619858D01*
X73968432Y-23806265D01*
X73968431Y-23806267D01*
X73872261Y-24012502D01*
X73872258Y-24012511D01*
X73813366Y-24232302D01*
X73813364Y-24232313D01*
X73793532Y-24458998D01*
X73793532Y-24459001D01*
X73813364Y-24685686D01*
X73813366Y-24685697D01*
X73872258Y-24905488D01*
X73872261Y-24905497D01*
X73968431Y-25111732D01*
X73968432Y-25111734D01*
X74098954Y-25298141D01*
X74259858Y-25459045D01*
X74259861Y-25459047D01*
X74446266Y-25589568D01*
X74503747Y-25616372D01*
X74504275Y-25616618D01*
X74556714Y-25662791D01*
X74575866Y-25729984D01*
X74555650Y-25796865D01*
X74504275Y-25841382D01*
X74446267Y-25868431D01*
X74446265Y-25868432D01*
X74259858Y-25998954D01*
X74098954Y-26159858D01*
X73968432Y-26346265D01*
X73968431Y-26346267D01*
X73872261Y-26552502D01*
X73872258Y-26552511D01*
X73813366Y-26772302D01*
X73813364Y-26772313D01*
X73793532Y-26998998D01*
X73793532Y-26999001D01*
X73813364Y-27225686D01*
X73813366Y-27225697D01*
X73872258Y-27445488D01*
X73872261Y-27445497D01*
X73968431Y-27651732D01*
X73968432Y-27651734D01*
X74098954Y-27838141D01*
X74259858Y-27999045D01*
X74259861Y-27999047D01*
X74446266Y-28129568D01*
X74504275Y-28156618D01*
X74556714Y-28202791D01*
X74575866Y-28269984D01*
X74555650Y-28336865D01*
X74504275Y-28381382D01*
X74446267Y-28408431D01*
X74446265Y-28408432D01*
X74259858Y-28538954D01*
X74098954Y-28699858D01*
X73968432Y-28886265D01*
X73968431Y-28886267D01*
X73872261Y-29092502D01*
X73872258Y-29092511D01*
X73813366Y-29312302D01*
X73813364Y-29312313D01*
X73793532Y-29538998D01*
X73793532Y-29539001D01*
X73813364Y-29765686D01*
X73813366Y-29765697D01*
X73872258Y-29985488D01*
X73872261Y-29985497D01*
X73968431Y-30191732D01*
X73968432Y-30191734D01*
X74098954Y-30378141D01*
X74259858Y-30539045D01*
X74259861Y-30539047D01*
X74446266Y-30669568D01*
X74504275Y-30696618D01*
X74556714Y-30742791D01*
X74575866Y-30809984D01*
X74555650Y-30876865D01*
X74504275Y-30921382D01*
X74446267Y-30948431D01*
X74446265Y-30948432D01*
X74259858Y-31078954D01*
X74098954Y-31239858D01*
X74038902Y-31325623D01*
X73984325Y-31369248D01*
X73937327Y-31378500D01*
X72582036Y-31378500D01*
X72578292Y-31378387D01*
X72516397Y-31374643D01*
X72516390Y-31374643D01*
X72455402Y-31385819D01*
X72451701Y-31386382D01*
X72390125Y-31393860D01*
X72380642Y-31397456D01*
X72359038Y-31403478D01*
X72357535Y-31403754D01*
X72349065Y-31405306D01*
X72349063Y-31405307D01*
X72292527Y-31430752D01*
X72289069Y-31432184D01*
X72231069Y-31454182D01*
X72222724Y-31459942D01*
X72203183Y-31470964D01*
X72193944Y-31475122D01*
X72193939Y-31475125D01*
X72145121Y-31513370D01*
X72142106Y-31515589D01*
X72091072Y-31550816D01*
X72091065Y-31550822D01*
X72049942Y-31597240D01*
X72047375Y-31599966D01*
X69539966Y-34107375D01*
X69537240Y-34109942D01*
X69490818Y-34151068D01*
X69455586Y-34202109D01*
X69453368Y-34205124D01*
X69415124Y-34253939D01*
X69415119Y-34253948D01*
X69410960Y-34263188D01*
X69399942Y-34282723D01*
X69394187Y-34291061D01*
X69394183Y-34291067D01*
X69394182Y-34291070D01*
X69394180Y-34291074D01*
X69394179Y-34291077D01*
X69372189Y-34349055D01*
X69370757Y-34352513D01*
X69345305Y-34409068D01*
X69343477Y-34419042D01*
X69337453Y-34440653D01*
X69333860Y-34450127D01*
X69333859Y-34450128D01*
X69326384Y-34511685D01*
X69325821Y-34515386D01*
X69314642Y-34576390D01*
X69314642Y-34576395D01*
X69318387Y-34638302D01*
X69318500Y-34642047D01*
X69318500Y-62217481D01*
X69298815Y-62284520D01*
X69282181Y-62305162D01*
X67225162Y-64362181D01*
X67163839Y-64395666D01*
X67137481Y-64398500D01*
X48320673Y-64398500D01*
X48253634Y-64378815D01*
X48219098Y-64345623D01*
X48159045Y-64259858D01*
X47998141Y-64098954D01*
X47811734Y-63968432D01*
X47811728Y-63968429D01*
X47774626Y-63951128D01*
X47753724Y-63941381D01*
X47701285Y-63895210D01*
X47682133Y-63828017D01*
X47702348Y-63761135D01*
X47753725Y-63716618D01*
X47811734Y-63689568D01*
X47998139Y-63559047D01*
X48159047Y-63398139D01*
X48289568Y-63211734D01*
X48385739Y-63005496D01*
X48444635Y-62785692D01*
X48461634Y-62591384D01*
X48464468Y-62559001D01*
X48464468Y-62558998D01*
X48444635Y-62332313D01*
X48444635Y-62332308D01*
X48385739Y-62112504D01*
X48289568Y-61906266D01*
X48159047Y-61719861D01*
X48159045Y-61719858D01*
X47998141Y-61558954D01*
X47811734Y-61428432D01*
X47811728Y-61428429D01*
X47753725Y-61401382D01*
X47701285Y-61355210D01*
X47682133Y-61288017D01*
X47702348Y-61221135D01*
X47753725Y-61176618D01*
X47811734Y-61149568D01*
X47998139Y-61019047D01*
X48159047Y-60858139D01*
X48289568Y-60671734D01*
X48385739Y-60465496D01*
X48444635Y-60245692D01*
X48464468Y-60019000D01*
X48444635Y-59792308D01*
X48385739Y-59572504D01*
X48289568Y-59366266D01*
X48159047Y-59179861D01*
X48159045Y-59179858D01*
X47998141Y-59018954D01*
X47811734Y-58888432D01*
X47811728Y-58888429D01*
X47753725Y-58861382D01*
X47701285Y-58815210D01*
X47682133Y-58748017D01*
X47702348Y-58681135D01*
X47753725Y-58636618D01*
X47811734Y-58609568D01*
X47998139Y-58479047D01*
X48159047Y-58318139D01*
X48289568Y-58131734D01*
X48385739Y-57925496D01*
X48444635Y-57705692D01*
X48464468Y-57479000D01*
X48444635Y-57252308D01*
X48385739Y-57032504D01*
X48289568Y-56826266D01*
X48159047Y-56639861D01*
X48159045Y-56639858D01*
X47998141Y-56478954D01*
X47811734Y-56348432D01*
X47811728Y-56348429D01*
X47753725Y-56321382D01*
X47701285Y-56275210D01*
X47682133Y-56208017D01*
X47702348Y-56141135D01*
X47753725Y-56096618D01*
X47811734Y-56069568D01*
X47998139Y-55939047D01*
X48159047Y-55778139D01*
X48289568Y-55591734D01*
X48385739Y-55385496D01*
X48444635Y-55165692D01*
X48464468Y-54939001D01*
X58553532Y-54939001D01*
X58573364Y-55165686D01*
X58573366Y-55165697D01*
X58632258Y-55385488D01*
X58632261Y-55385497D01*
X58728431Y-55591732D01*
X58728432Y-55591734D01*
X58858954Y-55778141D01*
X59019858Y-55939045D01*
X59019861Y-55939047D01*
X59206266Y-56069568D01*
X59412504Y-56165739D01*
X59632308Y-56224635D01*
X59794230Y-56238801D01*
X59858998Y-56244468D01*
X59859000Y-56244468D01*
X59859002Y-56244468D01*
X59915807Y-56239498D01*
X60085692Y-56224635D01*
X60305496Y-56165739D01*
X60511734Y-56069568D01*
X60698139Y-55939047D01*
X60859047Y-55778139D01*
X60989568Y-55591734D01*
X61085739Y-55385496D01*
X61144635Y-55165692D01*
X61164468Y-54939000D01*
X61160740Y-54896394D01*
X61158407Y-54869725D01*
X61144635Y-54712308D01*
X61085739Y-54492504D01*
X60989568Y-54286266D01*
X60859047Y-54099861D01*
X60859045Y-54099858D01*
X60698141Y-53938954D01*
X60511734Y-53808432D01*
X60511732Y-53808431D01*
X60500275Y-53803088D01*
X60453132Y-53781105D01*
X60400694Y-53734934D01*
X60381542Y-53667740D01*
X60401758Y-53600859D01*
X60453134Y-53556341D01*
X60511484Y-53529132D01*
X60697820Y-53398657D01*
X60858657Y-53237820D01*
X60989134Y-53051482D01*
X61085265Y-52845326D01*
X61085269Y-52845317D01*
X61137872Y-52649000D01*
X60292686Y-52649000D01*
X60318493Y-52608844D01*
X60359000Y-52470889D01*
X60359000Y-52327111D01*
X60318493Y-52189156D01*
X60292686Y-52149000D01*
X61137872Y-52149000D01*
X61137872Y-52148999D01*
X61085269Y-51952682D01*
X61085265Y-51952673D01*
X60989134Y-51746517D01*
X60858657Y-51560179D01*
X60697820Y-51399342D01*
X60511482Y-51268865D01*
X60453133Y-51241657D01*
X60400694Y-51195484D01*
X60381542Y-51128291D01*
X60401758Y-51061410D01*
X60453129Y-51016895D01*
X60511734Y-50989568D01*
X60698139Y-50859047D01*
X60859047Y-50698139D01*
X60989568Y-50511734D01*
X61085739Y-50305496D01*
X61144635Y-50085692D01*
X61164468Y-49859000D01*
X61144635Y-49632308D01*
X61085739Y-49412504D01*
X60989568Y-49206266D01*
X60859047Y-49019861D01*
X60859045Y-49019858D01*
X60698141Y-48858954D01*
X60511734Y-48728432D01*
X60511728Y-48728429D01*
X60453882Y-48701455D01*
X60453724Y-48701381D01*
X60401285Y-48655210D01*
X60382133Y-48588017D01*
X60402348Y-48521135D01*
X60453725Y-48476618D01*
X60511734Y-48449568D01*
X60698139Y-48319047D01*
X60859047Y-48158139D01*
X60989568Y-47971734D01*
X61085739Y-47765496D01*
X61144635Y-47545692D01*
X61164468Y-47319000D01*
X61144635Y-47092308D01*
X61085739Y-46872504D01*
X60989568Y-46666266D01*
X60859047Y-46479861D01*
X60859045Y-46479858D01*
X60698141Y-46318954D01*
X60511734Y-46188432D01*
X60511728Y-46188429D01*
X60453882Y-46161455D01*
X60453724Y-46161381D01*
X60401285Y-46115210D01*
X60382133Y-46048017D01*
X60402348Y-45981135D01*
X60453725Y-45936618D01*
X60511734Y-45909568D01*
X60698139Y-45779047D01*
X60859047Y-45618139D01*
X60989568Y-45431734D01*
X61085739Y-45225496D01*
X61144635Y-45005692D01*
X61164468Y-44779000D01*
X61144635Y-44552308D01*
X61085739Y-44332504D01*
X60989568Y-44126266D01*
X60859047Y-43939861D01*
X60859045Y-43939858D01*
X60698141Y-43778954D01*
X60511734Y-43648432D01*
X60511728Y-43648429D01*
X60453725Y-43621382D01*
X60401285Y-43575210D01*
X60382133Y-43508017D01*
X60402348Y-43441135D01*
X60453725Y-43396618D01*
X60511734Y-43369568D01*
X60698139Y-43239047D01*
X60859047Y-43078139D01*
X60989568Y-42891734D01*
X61085739Y-42685496D01*
X61144635Y-42465692D01*
X61164468Y-42239000D01*
X61144635Y-42012308D01*
X61085739Y-41792504D01*
X60989568Y-41586266D01*
X60859047Y-41399861D01*
X60859045Y-41399858D01*
X60698141Y-41238954D01*
X60511734Y-41108432D01*
X60511728Y-41108429D01*
X60453725Y-41081382D01*
X60401285Y-41035210D01*
X60382133Y-40968017D01*
X60402348Y-40901135D01*
X60453725Y-40856618D01*
X60511734Y-40829568D01*
X60698139Y-40699047D01*
X60859047Y-40538139D01*
X60989568Y-40351734D01*
X61085739Y-40145496D01*
X61144635Y-39925692D01*
X61164468Y-39699000D01*
X61144635Y-39472308D01*
X61085739Y-39252504D01*
X60989568Y-39046266D01*
X60859047Y-38859861D01*
X60859045Y-38859858D01*
X60698141Y-38698954D01*
X60511734Y-38568432D01*
X60511728Y-38568429D01*
X60453725Y-38541382D01*
X60401285Y-38495210D01*
X60382133Y-38428017D01*
X60402348Y-38361135D01*
X60453725Y-38316618D01*
X60511734Y-38289568D01*
X60698139Y-38159047D01*
X60859047Y-37998139D01*
X60989568Y-37811734D01*
X61085739Y-37605496D01*
X61144635Y-37385692D01*
X61164468Y-37159000D01*
X61144635Y-36932308D01*
X61085739Y-36712504D01*
X60989568Y-36506266D01*
X60859047Y-36319861D01*
X60859045Y-36319858D01*
X60698141Y-36158954D01*
X60511734Y-36028432D01*
X60511728Y-36028429D01*
X60453725Y-36001382D01*
X60401285Y-35955210D01*
X60382133Y-35888017D01*
X60402348Y-35821135D01*
X60453725Y-35776618D01*
X60511734Y-35749568D01*
X60698139Y-35619047D01*
X60859047Y-35458139D01*
X60989568Y-35271734D01*
X61085739Y-35065496D01*
X61144635Y-34845692D01*
X61164468Y-34619000D01*
X61160740Y-34576394D01*
X61151107Y-34466281D01*
X61144635Y-34392308D01*
X61099916Y-34225415D01*
X61085741Y-34172511D01*
X61085738Y-34172502D01*
X60989568Y-33966266D01*
X60859047Y-33779861D01*
X60859045Y-33779858D01*
X60698141Y-33618954D01*
X60511734Y-33488432D01*
X60511728Y-33488429D01*
X60453725Y-33461382D01*
X60401285Y-33415210D01*
X60382133Y-33348017D01*
X60402348Y-33281135D01*
X60453725Y-33236618D01*
X60511734Y-33209568D01*
X60698139Y-33079047D01*
X60859047Y-32918139D01*
X60989568Y-32731734D01*
X61085739Y-32525496D01*
X61144635Y-32305692D01*
X61164468Y-32079000D01*
X61144635Y-31852308D01*
X61085739Y-31632504D01*
X60989568Y-31426266D01*
X60859047Y-31239861D01*
X60859045Y-31239858D01*
X60698141Y-31078954D01*
X60511734Y-30948432D01*
X60511728Y-30948429D01*
X60453725Y-30921382D01*
X60401285Y-30875210D01*
X60382133Y-30808017D01*
X60402348Y-30741135D01*
X60453725Y-30696618D01*
X60511734Y-30669568D01*
X60698139Y-30539047D01*
X60859047Y-30378139D01*
X60989568Y-30191734D01*
X61085739Y-29985496D01*
X61144635Y-29765692D01*
X61164468Y-29539000D01*
X61144635Y-29312308D01*
X61085739Y-29092504D01*
X60989568Y-28886266D01*
X60859047Y-28699861D01*
X60859045Y-28699858D01*
X60698141Y-28538954D01*
X60511734Y-28408432D01*
X60511728Y-28408429D01*
X60453725Y-28381382D01*
X60401285Y-28335210D01*
X60382133Y-28268017D01*
X60402348Y-28201135D01*
X60453725Y-28156618D01*
X60511734Y-28129568D01*
X60698139Y-27999047D01*
X60859047Y-27838139D01*
X60989568Y-27651734D01*
X61085739Y-27445496D01*
X61144635Y-27225692D01*
X61164468Y-26999000D01*
X61144635Y-26772308D01*
X61085739Y-26552504D01*
X60989568Y-26346266D01*
X60859047Y-26159861D01*
X60859045Y-26159858D01*
X60698141Y-25998954D01*
X60511734Y-25868432D01*
X60511728Y-25868429D01*
X60453725Y-25841382D01*
X60401285Y-25795210D01*
X60382133Y-25728017D01*
X60402348Y-25661135D01*
X60453725Y-25616618D01*
X60454253Y-25616372D01*
X60511734Y-25589568D01*
X60698139Y-25459047D01*
X60859047Y-25298139D01*
X60989568Y-25111734D01*
X61085739Y-24905496D01*
X61144635Y-24685692D01*
X61164468Y-24459000D01*
X61144635Y-24232308D01*
X61085739Y-24012504D01*
X60989568Y-23806266D01*
X60859047Y-23619861D01*
X60859045Y-23619858D01*
X60698141Y-23458954D01*
X60511734Y-23328432D01*
X60511728Y-23328429D01*
X60484038Y-23315517D01*
X60453724Y-23301381D01*
X60401285Y-23255210D01*
X60382133Y-23188017D01*
X60402348Y-23121135D01*
X60453725Y-23076618D01*
X60511734Y-23049568D01*
X60698139Y-22919047D01*
X60859047Y-22758139D01*
X60989568Y-22571734D01*
X61085739Y-22365496D01*
X61144635Y-22145692D01*
X61164468Y-21919000D01*
X61144635Y-21692308D01*
X61085739Y-21472504D01*
X60989568Y-21266266D01*
X60882808Y-21113795D01*
X60859045Y-21079858D01*
X60698141Y-20918954D01*
X60511734Y-20788432D01*
X60511728Y-20788429D01*
X60453725Y-20761382D01*
X60401285Y-20715210D01*
X60382133Y-20648017D01*
X60402348Y-20581135D01*
X60453725Y-20536618D01*
X60511734Y-20509568D01*
X60698139Y-20379047D01*
X60859047Y-20218139D01*
X60989568Y-20031734D01*
X61085739Y-19825496D01*
X61144635Y-19605692D01*
X61164468Y-19379000D01*
X61144635Y-19152308D01*
X61085739Y-18932504D01*
X60989568Y-18726266D01*
X60859047Y-18539861D01*
X60859045Y-18539858D01*
X60698141Y-18378954D01*
X60511734Y-18248432D01*
X60511732Y-18248431D01*
X60305497Y-18152261D01*
X60305488Y-18152258D01*
X60085697Y-18093366D01*
X60085693Y-18093365D01*
X60085692Y-18093365D01*
X60085691Y-18093364D01*
X60085686Y-18093364D01*
X59859002Y-18073532D01*
X59858998Y-18073532D01*
X59632313Y-18093364D01*
X59632302Y-18093366D01*
X59412511Y-18152258D01*
X59412502Y-18152261D01*
X59206267Y-18248431D01*
X59206265Y-18248432D01*
X59019858Y-18378954D01*
X58858954Y-18539858D01*
X58728432Y-18726265D01*
X58728431Y-18726267D01*
X58632261Y-18932502D01*
X58632258Y-18932511D01*
X58573366Y-19152302D01*
X58573364Y-19152313D01*
X58553532Y-19378998D01*
X58553532Y-19379001D01*
X58573364Y-19605686D01*
X58573366Y-19605697D01*
X58632258Y-19825488D01*
X58632261Y-19825497D01*
X58728431Y-20031732D01*
X58728432Y-20031734D01*
X58858954Y-20218141D01*
X59019858Y-20379045D01*
X59019861Y-20379047D01*
X59206266Y-20509568D01*
X59264275Y-20536618D01*
X59316714Y-20582791D01*
X59335866Y-20649984D01*
X59315650Y-20716865D01*
X59264275Y-20761382D01*
X59206267Y-20788431D01*
X59206265Y-20788432D01*
X59019858Y-20918954D01*
X58858954Y-21079858D01*
X58728432Y-21266265D01*
X58728431Y-21266267D01*
X58632261Y-21472502D01*
X58632258Y-21472511D01*
X58573366Y-21692302D01*
X58573364Y-21692313D01*
X58553532Y-21918998D01*
X58553532Y-21919001D01*
X58573364Y-22145686D01*
X58573366Y-22145697D01*
X58632258Y-22365488D01*
X58632261Y-22365497D01*
X58728431Y-22571732D01*
X58728432Y-22571734D01*
X58858954Y-22758141D01*
X59019858Y-22919045D01*
X59019861Y-22919047D01*
X59206266Y-23049568D01*
X59264275Y-23076618D01*
X59316714Y-23122791D01*
X59335866Y-23189984D01*
X59315650Y-23256865D01*
X59264275Y-23301381D01*
X59247272Y-23309310D01*
X59206267Y-23328431D01*
X59206265Y-23328432D01*
X59019858Y-23458954D01*
X58858954Y-23619858D01*
X58728432Y-23806265D01*
X58728431Y-23806267D01*
X58632261Y-24012502D01*
X58632258Y-24012511D01*
X58573366Y-24232302D01*
X58573364Y-24232313D01*
X58553532Y-24458998D01*
X58553532Y-24459001D01*
X58573364Y-24685686D01*
X58573366Y-24685697D01*
X58632258Y-24905488D01*
X58632261Y-24905497D01*
X58728431Y-25111732D01*
X58728432Y-25111734D01*
X58858954Y-25298141D01*
X59019858Y-25459045D01*
X59019861Y-25459047D01*
X59206266Y-25589568D01*
X59263747Y-25616372D01*
X59264275Y-25616618D01*
X59316714Y-25662791D01*
X59335866Y-25729984D01*
X59315650Y-25796865D01*
X59264275Y-25841382D01*
X59206267Y-25868431D01*
X59206265Y-25868432D01*
X59019858Y-25998954D01*
X58858954Y-26159858D01*
X58728432Y-26346265D01*
X58728431Y-26346267D01*
X58632261Y-26552502D01*
X58632258Y-26552511D01*
X58573366Y-26772302D01*
X58573364Y-26772313D01*
X58553532Y-26998998D01*
X58553532Y-26999001D01*
X58573364Y-27225686D01*
X58573366Y-27225697D01*
X58632258Y-27445488D01*
X58632261Y-27445497D01*
X58728431Y-27651732D01*
X58728432Y-27651734D01*
X58858954Y-27838141D01*
X59019858Y-27999045D01*
X59019861Y-27999047D01*
X59206266Y-28129568D01*
X59264275Y-28156618D01*
X59316714Y-28202791D01*
X59335866Y-28269984D01*
X59315650Y-28336865D01*
X59264275Y-28381382D01*
X59206267Y-28408431D01*
X59206265Y-28408432D01*
X59019858Y-28538954D01*
X58858954Y-28699858D01*
X58728432Y-28886265D01*
X58728431Y-28886267D01*
X58632261Y-29092502D01*
X58632258Y-29092511D01*
X58573366Y-29312302D01*
X58573364Y-29312313D01*
X58553532Y-29538998D01*
X58553532Y-29539001D01*
X58573364Y-29765686D01*
X58573366Y-29765697D01*
X58632258Y-29985488D01*
X58632261Y-29985497D01*
X58728431Y-30191732D01*
X58728432Y-30191734D01*
X58858954Y-30378141D01*
X59019858Y-30539045D01*
X59019861Y-30539047D01*
X59206266Y-30669568D01*
X59264275Y-30696618D01*
X59316714Y-30742791D01*
X59335866Y-30809984D01*
X59315650Y-30876865D01*
X59264275Y-30921382D01*
X59206267Y-30948431D01*
X59206265Y-30948432D01*
X59019858Y-31078954D01*
X58858954Y-31239858D01*
X58728432Y-31426265D01*
X58728431Y-31426267D01*
X58632261Y-31632502D01*
X58632258Y-31632511D01*
X58573366Y-31852302D01*
X58573364Y-31852313D01*
X58553532Y-32078998D01*
X58553532Y-32079001D01*
X58573364Y-32305686D01*
X58573366Y-32305697D01*
X58632258Y-32525488D01*
X58632261Y-32525497D01*
X58728431Y-32731732D01*
X58728432Y-32731734D01*
X58858954Y-32918141D01*
X59019858Y-33079045D01*
X59019861Y-33079047D01*
X59206266Y-33209568D01*
X59264275Y-33236618D01*
X59316714Y-33282791D01*
X59335866Y-33349984D01*
X59315650Y-33416865D01*
X59264275Y-33461382D01*
X59206267Y-33488431D01*
X59206265Y-33488432D01*
X59019858Y-33618954D01*
X58858954Y-33779858D01*
X58728432Y-33966265D01*
X58728431Y-33966267D01*
X58632261Y-34172502D01*
X58632258Y-34172511D01*
X58573366Y-34392302D01*
X58573364Y-34392313D01*
X58553532Y-34618998D01*
X58553532Y-34619001D01*
X58573364Y-34845686D01*
X58573366Y-34845697D01*
X58632258Y-35065488D01*
X58632261Y-35065497D01*
X58728431Y-35271732D01*
X58728432Y-35271734D01*
X58858954Y-35458141D01*
X59019858Y-35619045D01*
X59019861Y-35619047D01*
X59206266Y-35749568D01*
X59264275Y-35776618D01*
X59316714Y-35822791D01*
X59335866Y-35889984D01*
X59315650Y-35956865D01*
X59264275Y-36001382D01*
X59206267Y-36028431D01*
X59206265Y-36028432D01*
X59019858Y-36158954D01*
X58858954Y-36319858D01*
X58728432Y-36506265D01*
X58728431Y-36506267D01*
X58632261Y-36712502D01*
X58632258Y-36712511D01*
X58573366Y-36932302D01*
X58573364Y-36932313D01*
X58553532Y-37158998D01*
X58553532Y-37159001D01*
X58573364Y-37385686D01*
X58573366Y-37385697D01*
X58632258Y-37605488D01*
X58632261Y-37605497D01*
X58728431Y-37811732D01*
X58728432Y-37811734D01*
X58858954Y-37998141D01*
X59019858Y-38159045D01*
X59019861Y-38159047D01*
X59206266Y-38289568D01*
X59264275Y-38316618D01*
X59316714Y-38362791D01*
X59335866Y-38429984D01*
X59315650Y-38496865D01*
X59264275Y-38541382D01*
X59206267Y-38568431D01*
X59206265Y-38568432D01*
X59019858Y-38698954D01*
X58858954Y-38859858D01*
X58728432Y-39046265D01*
X58728431Y-39046267D01*
X58632261Y-39252502D01*
X58632258Y-39252511D01*
X58573366Y-39472302D01*
X58573364Y-39472313D01*
X58553532Y-39698998D01*
X58553532Y-39699001D01*
X58573364Y-39925686D01*
X58573366Y-39925697D01*
X58632258Y-40145488D01*
X58632261Y-40145497D01*
X58728431Y-40351732D01*
X58728432Y-40351734D01*
X58858954Y-40538141D01*
X59019858Y-40699045D01*
X59019861Y-40699047D01*
X59206266Y-40829568D01*
X59264275Y-40856618D01*
X59316714Y-40902791D01*
X59335866Y-40969984D01*
X59315650Y-41036865D01*
X59264275Y-41081382D01*
X59206267Y-41108431D01*
X59206265Y-41108432D01*
X59019858Y-41238954D01*
X58858954Y-41399858D01*
X58728432Y-41586265D01*
X58728431Y-41586267D01*
X58632261Y-41792502D01*
X58632258Y-41792511D01*
X58573366Y-42012302D01*
X58573364Y-42012313D01*
X58553532Y-42238998D01*
X58553532Y-42239001D01*
X58573364Y-42465686D01*
X58573366Y-42465697D01*
X58632258Y-42685488D01*
X58632261Y-42685497D01*
X58728431Y-42891732D01*
X58728432Y-42891734D01*
X58858954Y-43078141D01*
X59019858Y-43239045D01*
X59019861Y-43239047D01*
X59206266Y-43369568D01*
X59264275Y-43396618D01*
X59316714Y-43442791D01*
X59335866Y-43509984D01*
X59315650Y-43576865D01*
X59264275Y-43621382D01*
X59206267Y-43648431D01*
X59206265Y-43648432D01*
X59019858Y-43778954D01*
X58858954Y-43939858D01*
X58728432Y-44126265D01*
X58728431Y-44126267D01*
X58632261Y-44332502D01*
X58632258Y-44332511D01*
X58573366Y-44552302D01*
X58573364Y-44552313D01*
X58553532Y-44778998D01*
X58553532Y-44779001D01*
X58573364Y-45005686D01*
X58573366Y-45005697D01*
X58632258Y-45225488D01*
X58632261Y-45225497D01*
X58728431Y-45431732D01*
X58728432Y-45431734D01*
X58858954Y-45618141D01*
X59019858Y-45779045D01*
X59019861Y-45779047D01*
X59206266Y-45909568D01*
X59264275Y-45936618D01*
X59316714Y-45982791D01*
X59335866Y-46049984D01*
X59315650Y-46116865D01*
X59264275Y-46161381D01*
X59264118Y-46161455D01*
X59206267Y-46188431D01*
X59206265Y-46188432D01*
X59019858Y-46318954D01*
X58858954Y-46479858D01*
X58728432Y-46666265D01*
X58728431Y-46666267D01*
X58632261Y-46872502D01*
X58632258Y-46872511D01*
X58573366Y-47092302D01*
X58573364Y-47092313D01*
X58553532Y-47318998D01*
X58553532Y-47319001D01*
X58573364Y-47545686D01*
X58573366Y-47545697D01*
X58632258Y-47765488D01*
X58632261Y-47765497D01*
X58728431Y-47971732D01*
X58728432Y-47971734D01*
X58858954Y-48158141D01*
X59019858Y-48319045D01*
X59019861Y-48319047D01*
X59206266Y-48449568D01*
X59264275Y-48476618D01*
X59316714Y-48522791D01*
X59335866Y-48589984D01*
X59315650Y-48656865D01*
X59264275Y-48701381D01*
X59264118Y-48701455D01*
X59206267Y-48728431D01*
X59206265Y-48728432D01*
X59019858Y-48858954D01*
X58858954Y-49019858D01*
X58728432Y-49206265D01*
X58728431Y-49206267D01*
X58632261Y-49412502D01*
X58632258Y-49412511D01*
X58573366Y-49632302D01*
X58573364Y-49632313D01*
X58553532Y-49858998D01*
X58553532Y-49859001D01*
X58573364Y-50085686D01*
X58573366Y-50085697D01*
X58632258Y-50305488D01*
X58632261Y-50305497D01*
X58728431Y-50511732D01*
X58728432Y-50511734D01*
X58858954Y-50698141D01*
X59019858Y-50859045D01*
X59019861Y-50859047D01*
X59206266Y-50989568D01*
X59264865Y-51016893D01*
X59317305Y-51063065D01*
X59336457Y-51130258D01*
X59316242Y-51197139D01*
X59264867Y-51241657D01*
X59206515Y-51268867D01*
X59020179Y-51399342D01*
X58859342Y-51560179D01*
X58728865Y-51746517D01*
X58632734Y-51952673D01*
X58632730Y-51952682D01*
X58580127Y-52148999D01*
X58580128Y-52149000D01*
X59425314Y-52149000D01*
X59399507Y-52189156D01*
X59359000Y-52327111D01*
X59359000Y-52470889D01*
X59399507Y-52608844D01*
X59425314Y-52649000D01*
X58580128Y-52649000D01*
X58632730Y-52845317D01*
X58632734Y-52845326D01*
X58728865Y-53051482D01*
X58859342Y-53237820D01*
X59020179Y-53398657D01*
X59206518Y-53529134D01*
X59206520Y-53529135D01*
X59264865Y-53556342D01*
X59317305Y-53602514D01*
X59336457Y-53669707D01*
X59316242Y-53736589D01*
X59264867Y-53781105D01*
X59206268Y-53808431D01*
X59206264Y-53808433D01*
X59019858Y-53938954D01*
X58858954Y-54099858D01*
X58728432Y-54286265D01*
X58728431Y-54286267D01*
X58632261Y-54492502D01*
X58632258Y-54492511D01*
X58573366Y-54712302D01*
X58573364Y-54712313D01*
X58553532Y-54938998D01*
X58553532Y-54939001D01*
X48464468Y-54939001D01*
X48464468Y-54939000D01*
X48460740Y-54896394D01*
X48458407Y-54869725D01*
X48444635Y-54712308D01*
X48385739Y-54492504D01*
X48289568Y-54286266D01*
X48159047Y-54099861D01*
X48159045Y-54099858D01*
X47998141Y-53938954D01*
X47811734Y-53808432D01*
X47811728Y-53808429D01*
X47754015Y-53781517D01*
X47753724Y-53781381D01*
X47701285Y-53735210D01*
X47682133Y-53668017D01*
X47702348Y-53601135D01*
X47753725Y-53556618D01*
X47754319Y-53556341D01*
X47811734Y-53529568D01*
X47998139Y-53399047D01*
X48159047Y-53238139D01*
X48289568Y-53051734D01*
X48385739Y-52845496D01*
X48444635Y-52625692D01*
X48464468Y-52399000D01*
X48444635Y-52172308D01*
X48385739Y-51952504D01*
X48289568Y-51746266D01*
X48159047Y-51559861D01*
X48159045Y-51559858D01*
X47998141Y-51398954D01*
X47811734Y-51268432D01*
X47811728Y-51268429D01*
X47753725Y-51241382D01*
X47701285Y-51195210D01*
X47682133Y-51128017D01*
X47702348Y-51061135D01*
X47753725Y-51016618D01*
X47811734Y-50989568D01*
X47998139Y-50859047D01*
X48159047Y-50698139D01*
X48289568Y-50511734D01*
X48385739Y-50305496D01*
X48444635Y-50085692D01*
X48464468Y-49859000D01*
X48444635Y-49632308D01*
X48385739Y-49412504D01*
X48289568Y-49206266D01*
X48159047Y-49019861D01*
X48159045Y-49019858D01*
X47998141Y-48858954D01*
X47811734Y-48728432D01*
X47811732Y-48728431D01*
X47605497Y-48632261D01*
X47605488Y-48632258D01*
X47385697Y-48573366D01*
X47385693Y-48573365D01*
X47385692Y-48573365D01*
X47385691Y-48573364D01*
X47385686Y-48573364D01*
X47159002Y-48553532D01*
X47158998Y-48553532D01*
X46932313Y-48573364D01*
X46932302Y-48573366D01*
X46712511Y-48632258D01*
X46712502Y-48632261D01*
X46506267Y-48728431D01*
X46506265Y-48728432D01*
X46319858Y-48858954D01*
X46158954Y-49019858D01*
X46028432Y-49206265D01*
X46028431Y-49206267D01*
X45932261Y-49412502D01*
X45932258Y-49412511D01*
X45873366Y-49632302D01*
X45873364Y-49632313D01*
X45853532Y-49858998D01*
X45853532Y-49859001D01*
X45873364Y-50085686D01*
X45873366Y-50085697D01*
X45932258Y-50305488D01*
X45932261Y-50305497D01*
X46028431Y-50511732D01*
X46028432Y-50511734D01*
X46158954Y-50698141D01*
X46319858Y-50859045D01*
X46319861Y-50859047D01*
X46506266Y-50989568D01*
X46564275Y-51016618D01*
X46616714Y-51062791D01*
X46635866Y-51129984D01*
X46615650Y-51196865D01*
X46564275Y-51241382D01*
X46506267Y-51268431D01*
X46506265Y-51268432D01*
X46319858Y-51398954D01*
X46158954Y-51559858D01*
X46028432Y-51746265D01*
X46028431Y-51746267D01*
X45932261Y-51952502D01*
X45932258Y-51952511D01*
X45873366Y-52172302D01*
X45873364Y-52172313D01*
X45853532Y-52398998D01*
X45853532Y-52399001D01*
X45873364Y-52625686D01*
X45873366Y-52625697D01*
X45932258Y-52845488D01*
X45932261Y-52845497D01*
X46028431Y-53051732D01*
X46028432Y-53051734D01*
X46158954Y-53238141D01*
X46319858Y-53399045D01*
X46359914Y-53427092D01*
X46506266Y-53529568D01*
X46529384Y-53540348D01*
X46564275Y-53556618D01*
X46616714Y-53602791D01*
X46635866Y-53669984D01*
X46615650Y-53736865D01*
X46564275Y-53781381D01*
X46563985Y-53781517D01*
X46506267Y-53808431D01*
X46506265Y-53808432D01*
X46319858Y-53938954D01*
X46158954Y-54099858D01*
X46028432Y-54286265D01*
X46028431Y-54286267D01*
X45932261Y-54492502D01*
X45932258Y-54492511D01*
X45873366Y-54712302D01*
X45873364Y-54712313D01*
X45853532Y-54938998D01*
X45853532Y-54939001D01*
X45873364Y-55165686D01*
X45873366Y-55165697D01*
X45932258Y-55385488D01*
X45932261Y-55385497D01*
X46028431Y-55591732D01*
X46028432Y-55591734D01*
X46158954Y-55778141D01*
X46319858Y-55939045D01*
X46319861Y-55939047D01*
X46506266Y-56069568D01*
X46564275Y-56096618D01*
X46616714Y-56142791D01*
X46635866Y-56209984D01*
X46615650Y-56276865D01*
X46564275Y-56321382D01*
X46506267Y-56348431D01*
X46506265Y-56348432D01*
X46319858Y-56478954D01*
X46158954Y-56639858D01*
X46028432Y-56826265D01*
X46028431Y-56826267D01*
X45932261Y-57032502D01*
X45932258Y-57032511D01*
X45873366Y-57252302D01*
X45873364Y-57252313D01*
X45853532Y-57478998D01*
X45853532Y-57479001D01*
X45873364Y-57705686D01*
X45873366Y-57705697D01*
X45932258Y-57925488D01*
X45932261Y-57925497D01*
X46028431Y-58131732D01*
X46028432Y-58131734D01*
X46158954Y-58318141D01*
X46319858Y-58479045D01*
X46319861Y-58479047D01*
X46506266Y-58609568D01*
X46564275Y-58636618D01*
X46616714Y-58682791D01*
X46635866Y-58749984D01*
X46615650Y-58816865D01*
X46564275Y-58861382D01*
X46506267Y-58888431D01*
X46506265Y-58888432D01*
X46319858Y-59018954D01*
X46158954Y-59179858D01*
X46028432Y-59366265D01*
X46028431Y-59366267D01*
X45932261Y-59572502D01*
X45932258Y-59572511D01*
X45873366Y-59792302D01*
X45873364Y-59792313D01*
X45853532Y-60018998D01*
X45853532Y-60019001D01*
X45873364Y-60245686D01*
X45873366Y-60245697D01*
X45932258Y-60465488D01*
X45932261Y-60465497D01*
X46028431Y-60671732D01*
X46028432Y-60671734D01*
X46158954Y-60858141D01*
X46319858Y-61019045D01*
X46319861Y-61019047D01*
X46506266Y-61149568D01*
X46564275Y-61176618D01*
X46616714Y-61222791D01*
X46635866Y-61289984D01*
X46615650Y-61356865D01*
X46564275Y-61401382D01*
X46506267Y-61428431D01*
X46506265Y-61428432D01*
X46319858Y-61558954D01*
X46158954Y-61719858D01*
X46028432Y-61906265D01*
X46028431Y-61906267D01*
X45932261Y-62112502D01*
X45932258Y-62112511D01*
X45873366Y-62332302D01*
X45873364Y-62332313D01*
X45853532Y-62558998D01*
X45853532Y-62559001D01*
X45873364Y-62785686D01*
X45873366Y-62785697D01*
X45932258Y-63005488D01*
X45932261Y-63005497D01*
X46028431Y-63211732D01*
X46028432Y-63211734D01*
X46158954Y-63398141D01*
X46319858Y-63559045D01*
X46437549Y-63641452D01*
X46506266Y-63689568D01*
X46564278Y-63716619D01*
X46616713Y-63762788D01*
X46635866Y-63829982D01*
X46615651Y-63896863D01*
X46564277Y-63941380D01*
X46506268Y-63968430D01*
X46506265Y-63968432D01*
X46319858Y-64098954D01*
X46158954Y-64259858D01*
X46028432Y-64446265D01*
X46028431Y-64446267D01*
X45932261Y-64652502D01*
X45932258Y-64652511D01*
X45873366Y-64872302D01*
X45873364Y-64872313D01*
X45853532Y-65098998D01*
X45853532Y-65099001D01*
X45873364Y-65325686D01*
X45873366Y-65325697D01*
X45932258Y-65545488D01*
X45932261Y-65545497D01*
X46028431Y-65751732D01*
X46028432Y-65751734D01*
X46158954Y-65938141D01*
X46319858Y-66099045D01*
X46319861Y-66099047D01*
X46506266Y-66229568D01*
X46712504Y-66325739D01*
X46932308Y-66384635D01*
X47094230Y-66398801D01*
X47158998Y-66404468D01*
X47159000Y-66404468D01*
X47159002Y-66404468D01*
X47215673Y-66399509D01*
X47385692Y-66384635D01*
X47605496Y-66325739D01*
X47811734Y-66229568D01*
X47998139Y-66099047D01*
X48159047Y-65938139D01*
X48219096Y-65852377D01*
X48273675Y-65808752D01*
X48320673Y-65799500D01*
X67455952Y-65799500D01*
X67459697Y-65799613D01*
X67467042Y-65800057D01*
X67521606Y-65803358D01*
X67559314Y-65796447D01*
X67582621Y-65792177D01*
X67586325Y-65791613D01*
X67604170Y-65789446D01*
X67647872Y-65784140D01*
X67657335Y-65780550D01*
X67678961Y-65774522D01*
X67679893Y-65774351D01*
X67688932Y-65772695D01*
X67745512Y-65747229D01*
X67748942Y-65745809D01*
X67806930Y-65723818D01*
X67815266Y-65718062D01*
X67834821Y-65707034D01*
X67844057Y-65702878D01*
X67892896Y-65664613D01*
X67895876Y-65662421D01*
X67946929Y-65627183D01*
X67988065Y-65580748D01*
X67990599Y-65578056D01*
X70498056Y-63070599D01*
X70500748Y-63068065D01*
X70547183Y-63026929D01*
X70582427Y-62975866D01*
X70584617Y-62972890D01*
X70622877Y-62924057D01*
X70627031Y-62914827D01*
X70638062Y-62895268D01*
X70639904Y-62892599D01*
X70643818Y-62886930D01*
X70665812Y-62828933D01*
X70667231Y-62825505D01*
X70692694Y-62768932D01*
X70694520Y-62758965D01*
X70700548Y-62737340D01*
X70704140Y-62727872D01*
X70711615Y-62666309D01*
X70712179Y-62662605D01*
X70716456Y-62639258D01*
X70723357Y-62601606D01*
X70720779Y-62558993D01*
X70719613Y-62539707D01*
X70719500Y-62535963D01*
X70719500Y-34960518D01*
X70739185Y-34893479D01*
X70755819Y-34872837D01*
X72812838Y-32815819D01*
X72874161Y-32782334D01*
X72900519Y-32779500D01*
X73937327Y-32779500D01*
X74004366Y-32799185D01*
X74038902Y-32832377D01*
X74098954Y-32918141D01*
X74259858Y-33079045D01*
X74259861Y-33079047D01*
X74446266Y-33209568D01*
X74504275Y-33236618D01*
X74556714Y-33282791D01*
X74575866Y-33349984D01*
X74555650Y-33416865D01*
X74504275Y-33461382D01*
X74446267Y-33488431D01*
X74446265Y-33488432D01*
X74259858Y-33618954D01*
X74098954Y-33779858D01*
X73968432Y-33966265D01*
X73968431Y-33966267D01*
X73872261Y-34172502D01*
X73872258Y-34172511D01*
X73813366Y-34392302D01*
X73813364Y-34392313D01*
X73793532Y-34618998D01*
X73793532Y-34619001D01*
X73813364Y-34845686D01*
X73813366Y-34845697D01*
X73872258Y-35065488D01*
X73872261Y-35065497D01*
X73968431Y-35271732D01*
X73968432Y-35271734D01*
X74098954Y-35458141D01*
X74259858Y-35619045D01*
X74376615Y-35700798D01*
X74446266Y-35749568D01*
X74504278Y-35776619D01*
X74556713Y-35822788D01*
X74575866Y-35889982D01*
X74555651Y-35956863D01*
X74504277Y-36001380D01*
X74446268Y-36028430D01*
X74446265Y-36028432D01*
X74259858Y-36158954D01*
X74098954Y-36319858D01*
X73968432Y-36506265D01*
X73968431Y-36506267D01*
X73872261Y-36712502D01*
X73872258Y-36712511D01*
X73813366Y-36932302D01*
X73813364Y-36932313D01*
X73793532Y-37158998D01*
X73793532Y-37159001D01*
X73813364Y-37385686D01*
X73813366Y-37385697D01*
X73872258Y-37605488D01*
X73872261Y-37605497D01*
X73968431Y-37811732D01*
X73968432Y-37811734D01*
X74098954Y-37998141D01*
X74259858Y-38159045D01*
X74259861Y-38159047D01*
X74446266Y-38289568D01*
X74504275Y-38316618D01*
X74556714Y-38362791D01*
X74575866Y-38429984D01*
X74555650Y-38496865D01*
X74504275Y-38541382D01*
X74446267Y-38568431D01*
X74446265Y-38568432D01*
X74259858Y-38698954D01*
X74098954Y-38859858D01*
X73968432Y-39046265D01*
X73968431Y-39046267D01*
X73872261Y-39252502D01*
X73872258Y-39252511D01*
X73813366Y-39472302D01*
X73813364Y-39472313D01*
X73793532Y-39698998D01*
X73793532Y-39699001D01*
X73813364Y-39925686D01*
X73813366Y-39925697D01*
X73872258Y-40145488D01*
X73872261Y-40145497D01*
X73968431Y-40351732D01*
X73968432Y-40351734D01*
X74098954Y-40538141D01*
X74259858Y-40699045D01*
X74259861Y-40699047D01*
X74446266Y-40829568D01*
X74504275Y-40856618D01*
X74556714Y-40902791D01*
X74575866Y-40969984D01*
X74555650Y-41036865D01*
X74504275Y-41081382D01*
X74446267Y-41108431D01*
X74446265Y-41108432D01*
X74259858Y-41238954D01*
X74098954Y-41399858D01*
X73968432Y-41586265D01*
X73968431Y-41586267D01*
X73872261Y-41792502D01*
X73872258Y-41792511D01*
X73813366Y-42012302D01*
X73813364Y-42012313D01*
X73793532Y-42238998D01*
X73793532Y-42239001D01*
X73813364Y-42465686D01*
X73813366Y-42465697D01*
X73872258Y-42685488D01*
X73872261Y-42685497D01*
X73968431Y-42891732D01*
X73968432Y-42891734D01*
X74098954Y-43078141D01*
X74259858Y-43239045D01*
X74259861Y-43239047D01*
X74446266Y-43369568D01*
X74504275Y-43396618D01*
X74556714Y-43442791D01*
X74575866Y-43509984D01*
X74555650Y-43576865D01*
X74504275Y-43621382D01*
X74446267Y-43648431D01*
X74446265Y-43648432D01*
X74259858Y-43778954D01*
X74098954Y-43939858D01*
X73968432Y-44126265D01*
X73968431Y-44126267D01*
X73872261Y-44332502D01*
X73872258Y-44332511D01*
X73813366Y-44552302D01*
X73813364Y-44552313D01*
X73793532Y-44778998D01*
X73793532Y-44779001D01*
X73813364Y-45005686D01*
X73813366Y-45005697D01*
X73872258Y-45225488D01*
X73872261Y-45225497D01*
X73968431Y-45431732D01*
X73968432Y-45431734D01*
X74098954Y-45618141D01*
X74259858Y-45779045D01*
X74259861Y-45779047D01*
X74446266Y-45909568D01*
X74504275Y-45936618D01*
X74556714Y-45982791D01*
X74575866Y-46049984D01*
X74555650Y-46116865D01*
X74504275Y-46161381D01*
X74504118Y-46161455D01*
X74446267Y-46188431D01*
X74446265Y-46188432D01*
X74259858Y-46318954D01*
X74098954Y-46479858D01*
X73968432Y-46666265D01*
X73968431Y-46666267D01*
X73872261Y-46872502D01*
X73872258Y-46872511D01*
X73813366Y-47092302D01*
X73813364Y-47092313D01*
X73793532Y-47318998D01*
X73793532Y-47319001D01*
X73813364Y-47545686D01*
X73813366Y-47545697D01*
X73872258Y-47765488D01*
X73872261Y-47765497D01*
X73968431Y-47971732D01*
X73968432Y-47971734D01*
X74098954Y-48158141D01*
X74259858Y-48319045D01*
X74259861Y-48319047D01*
X74446266Y-48449568D01*
X74504275Y-48476618D01*
X74556714Y-48522791D01*
X74575866Y-48589984D01*
X74555650Y-48656865D01*
X74504275Y-48701381D01*
X74504118Y-48701455D01*
X74446267Y-48728431D01*
X74446265Y-48728432D01*
X74259858Y-48858954D01*
X74098954Y-49019858D01*
X73968432Y-49206265D01*
X73968431Y-49206267D01*
X73872261Y-49412502D01*
X73872258Y-49412511D01*
X73813366Y-49632302D01*
X73813364Y-49632313D01*
X73793532Y-49858998D01*
X73793532Y-49859001D01*
X73813364Y-50085686D01*
X73813366Y-50085697D01*
X73872258Y-50305488D01*
X73872261Y-50305497D01*
X73968431Y-50511732D01*
X73968432Y-50511734D01*
X74098954Y-50698141D01*
X74259858Y-50859045D01*
X74259861Y-50859047D01*
X74446266Y-50989568D01*
X74504275Y-51016618D01*
X74556714Y-51062791D01*
X74575866Y-51129984D01*
X74555650Y-51196865D01*
X74504275Y-51241382D01*
X74446267Y-51268431D01*
X74446265Y-51268432D01*
X74259858Y-51398954D01*
X74098954Y-51559858D01*
X73968432Y-51746265D01*
X73968431Y-51746267D01*
X73872261Y-51952502D01*
X73872258Y-51952511D01*
X73813366Y-52172302D01*
X73813364Y-52172313D01*
X73793532Y-52398998D01*
X73793532Y-52399001D01*
X73813364Y-52625686D01*
X73813366Y-52625697D01*
X73872258Y-52845488D01*
X73872261Y-52845497D01*
X73968431Y-53051732D01*
X73968432Y-53051734D01*
X74098954Y-53238141D01*
X74259858Y-53399045D01*
X74284462Y-53416273D01*
X74328087Y-53470849D01*
X74335281Y-53540348D01*
X74303758Y-53602703D01*
X74243529Y-53638117D01*
X74226593Y-53641138D01*
X74191516Y-53644908D01*
X74056671Y-53695202D01*
X74056664Y-53695206D01*
X73941455Y-53781452D01*
X73941452Y-53781455D01*
X73855206Y-53896664D01*
X73855202Y-53896671D01*
X73804908Y-54031517D01*
X73798501Y-54091116D01*
X73798501Y-54091123D01*
X73798500Y-54091135D01*
X73798500Y-55786870D01*
X73798501Y-55786876D01*
X73804908Y-55846483D01*
X73855202Y-55981328D01*
X73855206Y-55981335D01*
X73941452Y-56096544D01*
X73941455Y-56096547D01*
X74056664Y-56182793D01*
X74056671Y-56182797D01*
X74101618Y-56199560D01*
X74191517Y-56233091D01*
X74251127Y-56239500D01*
X74274497Y-56239499D01*
X74341536Y-56259181D01*
X74387292Y-56311983D01*
X74398500Y-56363499D01*
X74398500Y-62217480D01*
X74378815Y-62284519D01*
X74362181Y-62305161D01*
X69765162Y-66902181D01*
X69703839Y-66935666D01*
X69677481Y-66938500D01*
X44960519Y-66938500D01*
X44893480Y-66918815D01*
X44872838Y-66902181D01*
X42815819Y-64845161D01*
X42782334Y-64783838D01*
X42779500Y-64757480D01*
X42779500Y-54962035D01*
X42779613Y-54958290D01*
X42783357Y-54896394D01*
X42772177Y-54835386D01*
X42771615Y-54831689D01*
X42764140Y-54770129D01*
X42764139Y-54770125D01*
X42760546Y-54760651D01*
X42754519Y-54739029D01*
X42752694Y-54729070D01*
X42752694Y-54729068D01*
X42727239Y-54672512D01*
X42725809Y-54669057D01*
X42723035Y-54661743D01*
X42703818Y-54611070D01*
X42698059Y-54602727D01*
X42687030Y-54583172D01*
X42682877Y-54573943D01*
X42682874Y-54573938D01*
X42644633Y-54525127D01*
X42642413Y-54522110D01*
X42621977Y-54492504D01*
X42607183Y-54471071D01*
X42560750Y-54429935D01*
X42558056Y-54427399D01*
X40860027Y-52729369D01*
X40826542Y-52668047D01*
X40824180Y-52630881D01*
X40824633Y-52625697D01*
X40824635Y-52625692D01*
X40844468Y-52399000D01*
X40824635Y-52172308D01*
X40765739Y-51952504D01*
X40669568Y-51746266D01*
X40539047Y-51559861D01*
X40378139Y-51398953D01*
X40353535Y-51381725D01*
X40309912Y-51327149D01*
X40302719Y-51257650D01*
X40334241Y-51195296D01*
X40394471Y-51159882D01*
X40411404Y-51156861D01*
X40446483Y-51153091D01*
X40581331Y-51102796D01*
X40696546Y-51016546D01*
X40782796Y-50901331D01*
X40833091Y-50766483D01*
X40839500Y-50706873D01*
X40839499Y-49011128D01*
X40833091Y-48951517D01*
X40798567Y-48858954D01*
X40782797Y-48816671D01*
X40782793Y-48816664D01*
X40696547Y-48701455D01*
X40696544Y-48701452D01*
X40581335Y-48615206D01*
X40581328Y-48615202D01*
X40446482Y-48564908D01*
X40446483Y-48564908D01*
X40386883Y-48558501D01*
X40386881Y-48558500D01*
X40386873Y-48558500D01*
X40386864Y-48558500D01*
X38691129Y-48558500D01*
X38691123Y-48558501D01*
X38631516Y-48564908D01*
X38496671Y-48615202D01*
X38496664Y-48615206D01*
X38381455Y-48701452D01*
X38381452Y-48701455D01*
X38295206Y-48816664D01*
X38295202Y-48816671D01*
X38244908Y-48951517D01*
X38238501Y-49011116D01*
X38238501Y-49011123D01*
X38238500Y-49011135D01*
X38238500Y-50706870D01*
X38238501Y-50706876D01*
X38244908Y-50766483D01*
X38295202Y-50901328D01*
X38295206Y-50901335D01*
X38381452Y-51016544D01*
X38381455Y-51016547D01*
X38496664Y-51102793D01*
X38496671Y-51102797D01*
X38541618Y-51119560D01*
X38631517Y-51153091D01*
X38666596Y-51156862D01*
X38731144Y-51183599D01*
X38770993Y-51240991D01*
X38773488Y-51310816D01*
X38737836Y-51370905D01*
X38724464Y-51381725D01*
X38699864Y-51398950D01*
X38538951Y-51559862D01*
X38408432Y-51746265D01*
X38408431Y-51746267D01*
X38312261Y-51952502D01*
X38312258Y-51952511D01*
X38253366Y-52172302D01*
X38253364Y-52172313D01*
X38233532Y-52398998D01*
X38233532Y-52399001D01*
X38253364Y-52625686D01*
X38253366Y-52625697D01*
X38312258Y-52845488D01*
X38312261Y-52845497D01*
X38408431Y-53051732D01*
X38408432Y-53051734D01*
X38538954Y-53238141D01*
X38699858Y-53399045D01*
X38739914Y-53427092D01*
X38886266Y-53529568D01*
X38909384Y-53540348D01*
X38944275Y-53556618D01*
X38996714Y-53602791D01*
X39015866Y-53669984D01*
X38995650Y-53736865D01*
X38944275Y-53781381D01*
X38943985Y-53781517D01*
X38886267Y-53808431D01*
X38886265Y-53808432D01*
X38699858Y-53938954D01*
X38538954Y-54099858D01*
X38408432Y-54286265D01*
X38408431Y-54286267D01*
X38312261Y-54492502D01*
X38312258Y-54492511D01*
X38253366Y-54712302D01*
X38253364Y-54712313D01*
X38233532Y-54938998D01*
X38233532Y-54939001D01*
X38253364Y-55165686D01*
X38253366Y-55165697D01*
X38312258Y-55385488D01*
X38312261Y-55385497D01*
X38408431Y-55591732D01*
X38408432Y-55591734D01*
X38538954Y-55778141D01*
X38699858Y-55939045D01*
X38699861Y-55939047D01*
X38886266Y-56069568D01*
X38944275Y-56096618D01*
X38996714Y-56142791D01*
X39015866Y-56209984D01*
X38995650Y-56276865D01*
X38944275Y-56321382D01*
X38886267Y-56348431D01*
X38886265Y-56348432D01*
X38699858Y-56478954D01*
X38538954Y-56639858D01*
X38408432Y-56826265D01*
X38408431Y-56826267D01*
X38312261Y-57032502D01*
X38312258Y-57032511D01*
X38253366Y-57252302D01*
X38253364Y-57252313D01*
X38233532Y-57478998D01*
X38233532Y-57479001D01*
X38253364Y-57705686D01*
X38253366Y-57705697D01*
X38312258Y-57925488D01*
X38312261Y-57925497D01*
X38408431Y-58131732D01*
X38408432Y-58131734D01*
X38538954Y-58318141D01*
X38699858Y-58479045D01*
X38699861Y-58479047D01*
X38886266Y-58609568D01*
X38944275Y-58636618D01*
X38996714Y-58682791D01*
X39015866Y-58749984D01*
X38995650Y-58816865D01*
X38944275Y-58861382D01*
X38886267Y-58888431D01*
X38886265Y-58888432D01*
X38699858Y-59018954D01*
X38538954Y-59179858D01*
X38408432Y-59366265D01*
X38408431Y-59366267D01*
X38312261Y-59572502D01*
X38312258Y-59572511D01*
X38253366Y-59792302D01*
X38253364Y-59792313D01*
X38233532Y-60018998D01*
X38233532Y-60019001D01*
X38253364Y-60245686D01*
X38253366Y-60245697D01*
X38312258Y-60465488D01*
X38312261Y-60465497D01*
X38408431Y-60671732D01*
X38408432Y-60671734D01*
X38538954Y-60858141D01*
X38699858Y-61019045D01*
X38699861Y-61019047D01*
X38886266Y-61149568D01*
X38944275Y-61176618D01*
X38996714Y-61222791D01*
X39015866Y-61289984D01*
X38995650Y-61356865D01*
X38944275Y-61401382D01*
X38886267Y-61428431D01*
X38886265Y-61428432D01*
X38699858Y-61558954D01*
X38538954Y-61719858D01*
X38408432Y-61906265D01*
X38408431Y-61906267D01*
X38312261Y-62112502D01*
X38312258Y-62112511D01*
X38253366Y-62332302D01*
X38253364Y-62332313D01*
X38233532Y-62558998D01*
X38233532Y-62559001D01*
X12819500Y-62559001D01*
X12819500Y-57479000D01*
X17663706Y-57479000D01*
X17682853Y-57722297D01*
X17682853Y-57722300D01*
X17682854Y-57722302D01*
X17731637Y-57925496D01*
X17739830Y-57959619D01*
X17833222Y-58185089D01*
X17960737Y-58393173D01*
X17960738Y-58393176D01*
X17960741Y-58393179D01*
X18119241Y-58578759D01*
X18239108Y-58681135D01*
X18304823Y-58737261D01*
X18304826Y-58737262D01*
X18512910Y-58864777D01*
X18738381Y-58958169D01*
X18738378Y-58958169D01*
X18738384Y-58958170D01*
X18738388Y-58958172D01*
X18975698Y-59015146D01*
X19219000Y-59034294D01*
X19462302Y-59015146D01*
X19699612Y-58958172D01*
X19925089Y-58864777D01*
X20133179Y-58737259D01*
X20318759Y-58578759D01*
X20477259Y-58393179D01*
X20604777Y-58185089D01*
X20698172Y-57959612D01*
X20755146Y-57722302D01*
X20774294Y-57479000D01*
X20755146Y-57235698D01*
X20698172Y-56998388D01*
X20626878Y-56826267D01*
X20604777Y-56772910D01*
X20491550Y-56588142D01*
X20473305Y-56520697D01*
X20494421Y-56454094D01*
X20522962Y-56424088D01*
X20626546Y-56346546D01*
X20712796Y-56231331D01*
X20763091Y-56096483D01*
X20769500Y-56036873D01*
X20769499Y-54939000D01*
X27773551Y-54939000D01*
X27793317Y-55190151D01*
X27852126Y-55435110D01*
X27948533Y-55667859D01*
X28080160Y-55882653D01*
X28080161Y-55882656D01*
X28080164Y-55882659D01*
X28243776Y-56074224D01*
X28370899Y-56182797D01*
X28435343Y-56237838D01*
X28435346Y-56237839D01*
X28650140Y-56369466D01*
X28854452Y-56454094D01*
X28882889Y-56465873D01*
X29127852Y-56524683D01*
X29379000Y-56544449D01*
X29630148Y-56524683D01*
X29875111Y-56465873D01*
X30107859Y-56369466D01*
X30322659Y-56237836D01*
X30514224Y-56074224D01*
X30677836Y-55882659D01*
X30809466Y-55667859D01*
X30905873Y-55435111D01*
X30964683Y-55190148D01*
X30984449Y-54939000D01*
X30964683Y-54687852D01*
X30905873Y-54442889D01*
X30899450Y-54427383D01*
X30809466Y-54210140D01*
X30677839Y-53995346D01*
X30677838Y-53995343D01*
X30629676Y-53938953D01*
X30514224Y-53803776D01*
X30357574Y-53669984D01*
X30322656Y-53640161D01*
X30322653Y-53640160D01*
X30107859Y-53508533D01*
X29875110Y-53412126D01*
X29630151Y-53353317D01*
X29379000Y-53333551D01*
X29127848Y-53353317D01*
X28882889Y-53412126D01*
X28650140Y-53508533D01*
X28435346Y-53640160D01*
X28435343Y-53640161D01*
X28243776Y-53803776D01*
X28080161Y-53995343D01*
X28080160Y-53995346D01*
X27948533Y-54210140D01*
X27852126Y-54442889D01*
X27793317Y-54687848D01*
X27773551Y-54939000D01*
X20769499Y-54939000D01*
X20769499Y-53841128D01*
X20763091Y-53781517D01*
X20737260Y-53712261D01*
X20712797Y-53646671D01*
X20712793Y-53646664D01*
X20626547Y-53531455D01*
X20626544Y-53531452D01*
X20511335Y-53445206D01*
X20511328Y-53445202D01*
X20376482Y-53394908D01*
X20376483Y-53394908D01*
X20316883Y-53388501D01*
X20316881Y-53388500D01*
X20316873Y-53388500D01*
X20316864Y-53388500D01*
X18121129Y-53388500D01*
X18121123Y-53388501D01*
X18061516Y-53394908D01*
X17926671Y-53445202D01*
X17926664Y-53445206D01*
X17811455Y-53531452D01*
X17811452Y-53531455D01*
X17725206Y-53646664D01*
X17725202Y-53646671D01*
X17674908Y-53781517D01*
X17668501Y-53841116D01*
X17668501Y-53841123D01*
X17668500Y-53841135D01*
X17668500Y-56036870D01*
X17668501Y-56036876D01*
X17674908Y-56096483D01*
X17725202Y-56231328D01*
X17725206Y-56231335D01*
X17811452Y-56346544D01*
X17811455Y-56346547D01*
X17915033Y-56424086D01*
X17956904Y-56480019D01*
X17961888Y-56549711D01*
X17946449Y-56588142D01*
X17833222Y-56772910D01*
X17739830Y-56998380D01*
X17682853Y-57235702D01*
X17663706Y-57479000D01*
X12819500Y-57479000D01*
X12819500Y-44779002D01*
X38234034Y-44779002D01*
X38253858Y-45005599D01*
X38253860Y-45005610D01*
X38312730Y-45225317D01*
X38312734Y-45225326D01*
X38408865Y-45431481D01*
X38408866Y-45431483D01*
X38459973Y-45504471D01*
X38459974Y-45504472D01*
X39141046Y-44823399D01*
X39153835Y-44904148D01*
X39211359Y-45017045D01*
X39300955Y-45106641D01*
X39413852Y-45164165D01*
X39494599Y-45176953D01*
X38813526Y-45858025D01*
X38813526Y-45858026D01*
X38886512Y-45909131D01*
X38886516Y-45909133D01*
X39092673Y-46005265D01*
X39092682Y-46005269D01*
X39312389Y-46064139D01*
X39312400Y-46064141D01*
X39538998Y-46083966D01*
X39539002Y-46083966D01*
X39765599Y-46064141D01*
X39765610Y-46064139D01*
X39985317Y-46005269D01*
X39985331Y-46005264D01*
X40191478Y-45909136D01*
X40264472Y-45858025D01*
X39583401Y-45176953D01*
X39664148Y-45164165D01*
X39777045Y-45106641D01*
X39866641Y-45017045D01*
X39924165Y-44904148D01*
X39936953Y-44823400D01*
X40618025Y-45504472D01*
X40669136Y-45431478D01*
X40765264Y-45225331D01*
X40765269Y-45225317D01*
X40824139Y-45005610D01*
X40824141Y-45005599D01*
X40843966Y-44779002D01*
X40843966Y-44779001D01*
X43233532Y-44779001D01*
X43253364Y-45005686D01*
X43253366Y-45005697D01*
X43312258Y-45225488D01*
X43312261Y-45225497D01*
X43408431Y-45431732D01*
X43408432Y-45431734D01*
X43538954Y-45618141D01*
X43699858Y-45779045D01*
X43699861Y-45779047D01*
X43886266Y-45909568D01*
X44092504Y-46005739D01*
X44092509Y-46005740D01*
X44092511Y-46005741D01*
X44140129Y-46018500D01*
X44312308Y-46064635D01*
X44474230Y-46078801D01*
X44538998Y-46084468D01*
X44539000Y-46084468D01*
X44539002Y-46084468D01*
X44595672Y-46079509D01*
X44765692Y-46064635D01*
X44985496Y-46005739D01*
X45191734Y-45909568D01*
X45378139Y-45779047D01*
X45539047Y-45618139D01*
X45669568Y-45431734D01*
X45765739Y-45225496D01*
X45824635Y-45005692D01*
X45844468Y-44779000D01*
X45824635Y-44552308D01*
X45765739Y-44332504D01*
X45669568Y-44126266D01*
X45539047Y-43939861D01*
X45539045Y-43939858D01*
X45378141Y-43778954D01*
X45191734Y-43648432D01*
X45191732Y-43648431D01*
X44985497Y-43552261D01*
X44985488Y-43552258D01*
X44765697Y-43493366D01*
X44765693Y-43493365D01*
X44765692Y-43493365D01*
X44765691Y-43493364D01*
X44765686Y-43493364D01*
X44539002Y-43473532D01*
X44538998Y-43473532D01*
X44312313Y-43493364D01*
X44312302Y-43493366D01*
X44092511Y-43552258D01*
X44092502Y-43552261D01*
X43886267Y-43648431D01*
X43886265Y-43648432D01*
X43699858Y-43778954D01*
X43538954Y-43939858D01*
X43408432Y-44126265D01*
X43408431Y-44126267D01*
X43312261Y-44332502D01*
X43312258Y-44332511D01*
X43253366Y-44552302D01*
X43253364Y-44552313D01*
X43233532Y-44778998D01*
X43233532Y-44779001D01*
X40843966Y-44779001D01*
X40843966Y-44778997D01*
X40824141Y-44552400D01*
X40824139Y-44552389D01*
X40765269Y-44332682D01*
X40765265Y-44332673D01*
X40669133Y-44126516D01*
X40669131Y-44126512D01*
X40618026Y-44053526D01*
X40618025Y-44053526D01*
X39936953Y-44734598D01*
X39924165Y-44653852D01*
X39866641Y-44540955D01*
X39777045Y-44451359D01*
X39664148Y-44393835D01*
X39583400Y-44381046D01*
X40264472Y-43699974D01*
X40264471Y-43699973D01*
X40191483Y-43648866D01*
X40191481Y-43648865D01*
X39985326Y-43552734D01*
X39985317Y-43552730D01*
X39765610Y-43493860D01*
X39765599Y-43493858D01*
X39539002Y-43474034D01*
X39538998Y-43474034D01*
X39312400Y-43493858D01*
X39312389Y-43493860D01*
X39092682Y-43552730D01*
X39092673Y-43552734D01*
X38886513Y-43648868D01*
X38813527Y-43699972D01*
X38813526Y-43699973D01*
X39494600Y-44381046D01*
X39413852Y-44393835D01*
X39300955Y-44451359D01*
X39211359Y-44540955D01*
X39153835Y-44653852D01*
X39141046Y-44734599D01*
X38459973Y-44053526D01*
X38459972Y-44053527D01*
X38408868Y-44126513D01*
X38312734Y-44332673D01*
X38312730Y-44332682D01*
X38253860Y-44552389D01*
X38253858Y-44552400D01*
X38234034Y-44778997D01*
X38234034Y-44779002D01*
X12819500Y-44779002D01*
X12819500Y-34894357D01*
X32164000Y-34894357D01*
X32178829Y-35044932D01*
X32237443Y-35238154D01*
X32332615Y-35416209D01*
X32332620Y-35416215D01*
X32460707Y-35572292D01*
X32616784Y-35700379D01*
X32616790Y-35700384D01*
X32794846Y-35795557D01*
X32939000Y-35839285D01*
X32939000Y-34899617D01*
X33008052Y-34953363D01*
X33126424Y-34994000D01*
X33220073Y-34994000D01*
X33312446Y-34978586D01*
X33422514Y-34919019D01*
X33434630Y-34905856D01*
X33438701Y-34947190D01*
X33439000Y-34953270D01*
X33438999Y-35839285D01*
X33583151Y-35795557D01*
X33765014Y-35698348D01*
X33833416Y-35684106D01*
X33881921Y-35698348D01*
X34064654Y-35796021D01*
X34064656Y-35796021D01*
X34064659Y-35796023D01*
X34257967Y-35854662D01*
X34459000Y-35874462D01*
X34660033Y-35854662D01*
X34853341Y-35796023D01*
X34853344Y-35796021D01*
X34854423Y-35795694D01*
X34924290Y-35795070D01*
X34953380Y-35809470D01*
X34953886Y-35808546D01*
X34961671Y-35812797D01*
X35096517Y-35863091D01*
X35096516Y-35863091D01*
X35103444Y-35863835D01*
X35156127Y-35869500D01*
X36301872Y-35869499D01*
X36361483Y-35863091D01*
X36496331Y-35812796D01*
X36611546Y-35726546D01*
X36697796Y-35611331D01*
X36748091Y-35476483D01*
X36754500Y-35416873D01*
X36754500Y-34619001D01*
X38233532Y-34619001D01*
X38253364Y-34845686D01*
X38253366Y-34845697D01*
X38312258Y-35065488D01*
X38312261Y-35065497D01*
X38408431Y-35271732D01*
X38408432Y-35271734D01*
X38538954Y-35458141D01*
X38699858Y-35619045D01*
X38699861Y-35619047D01*
X38886266Y-35749568D01*
X39092504Y-35845739D01*
X39092509Y-35845740D01*
X39092511Y-35845741D01*
X39125805Y-35854662D01*
X39312308Y-35904635D01*
X39474230Y-35918801D01*
X39538998Y-35924468D01*
X39539000Y-35924468D01*
X39539002Y-35924468D01*
X39595672Y-35919509D01*
X39765692Y-35904635D01*
X39985496Y-35845739D01*
X40191734Y-35749568D01*
X40378139Y-35619047D01*
X40539047Y-35458139D01*
X40669568Y-35271734D01*
X40765739Y-35065496D01*
X40824635Y-34845692D01*
X40844468Y-34619001D01*
X45853532Y-34619001D01*
X45873364Y-34845686D01*
X45873366Y-34845697D01*
X45932258Y-35065488D01*
X45932261Y-35065497D01*
X46028431Y-35271732D01*
X46028432Y-35271734D01*
X46158954Y-35458141D01*
X46319858Y-35619045D01*
X46319861Y-35619047D01*
X46506266Y-35749568D01*
X46712504Y-35845739D01*
X46712509Y-35845740D01*
X46712511Y-35845741D01*
X46745805Y-35854662D01*
X46932308Y-35904635D01*
X47094230Y-35918801D01*
X47158998Y-35924468D01*
X47159000Y-35924468D01*
X47159002Y-35924468D01*
X47215673Y-35919509D01*
X47385692Y-35904635D01*
X47605496Y-35845739D01*
X47811734Y-35749568D01*
X47998139Y-35619047D01*
X48159047Y-35458139D01*
X48289568Y-35271734D01*
X48385739Y-35065496D01*
X48444635Y-34845692D01*
X48464468Y-34619000D01*
X48460740Y-34576394D01*
X48451107Y-34466281D01*
X48444635Y-34392308D01*
X48399916Y-34225415D01*
X48385741Y-34172511D01*
X48385738Y-34172502D01*
X48289568Y-33966266D01*
X48159047Y-33779861D01*
X48159045Y-33779858D01*
X47998141Y-33618954D01*
X47811734Y-33488432D01*
X47811732Y-33488431D01*
X47605497Y-33392261D01*
X47605488Y-33392258D01*
X47385697Y-33333366D01*
X47385693Y-33333365D01*
X47385692Y-33333365D01*
X47385691Y-33333364D01*
X47385686Y-33333364D01*
X47159002Y-33313532D01*
X47158998Y-33313532D01*
X46932313Y-33333364D01*
X46932302Y-33333366D01*
X46712511Y-33392258D01*
X46712502Y-33392261D01*
X46506267Y-33488431D01*
X46506265Y-33488432D01*
X46319858Y-33618954D01*
X46158954Y-33779858D01*
X46028432Y-33966265D01*
X46028431Y-33966267D01*
X45932261Y-34172502D01*
X45932258Y-34172511D01*
X45873366Y-34392302D01*
X45873364Y-34392313D01*
X45853532Y-34618998D01*
X45853532Y-34619001D01*
X40844468Y-34619001D01*
X40844468Y-34619000D01*
X40840740Y-34576394D01*
X40831107Y-34466281D01*
X40824635Y-34392308D01*
X40779916Y-34225415D01*
X40765741Y-34172511D01*
X40765738Y-34172502D01*
X40669568Y-33966266D01*
X40539047Y-33779861D01*
X40539045Y-33779858D01*
X40378141Y-33618954D01*
X40191734Y-33488432D01*
X40191732Y-33488431D01*
X39985497Y-33392261D01*
X39985488Y-33392258D01*
X39765697Y-33333366D01*
X39765693Y-33333365D01*
X39765692Y-33333365D01*
X39765691Y-33333364D01*
X39765686Y-33333364D01*
X39539002Y-33313532D01*
X39538998Y-33313532D01*
X39312313Y-33333364D01*
X39312302Y-33333366D01*
X39092511Y-33392258D01*
X39092502Y-33392261D01*
X38886267Y-33488431D01*
X38886265Y-33488432D01*
X38699858Y-33618954D01*
X38538954Y-33779858D01*
X38408432Y-33966265D01*
X38408431Y-33966267D01*
X38312261Y-34172502D01*
X38312258Y-34172511D01*
X38253366Y-34392302D01*
X38253364Y-34392313D01*
X38233532Y-34618998D01*
X38233532Y-34619001D01*
X36754500Y-34619001D01*
X36754499Y-33821128D01*
X36748091Y-33761517D01*
X36712356Y-33665707D01*
X36697797Y-33626671D01*
X36697793Y-33626664D01*
X36611547Y-33511455D01*
X36611544Y-33511452D01*
X36496335Y-33425206D01*
X36496328Y-33425202D01*
X36361482Y-33374908D01*
X36361483Y-33374908D01*
X36301883Y-33368501D01*
X36301881Y-33368500D01*
X36301873Y-33368500D01*
X36301864Y-33368500D01*
X35156129Y-33368500D01*
X35156123Y-33368501D01*
X35096516Y-33374908D01*
X34961671Y-33425202D01*
X34953890Y-33429452D01*
X34952759Y-33427381D01*
X34899239Y-33447331D01*
X34854424Y-33442306D01*
X34853343Y-33441978D01*
X34853341Y-33441977D01*
X34710715Y-33398712D01*
X34660031Y-33383337D01*
X34480962Y-33365701D01*
X34459000Y-33363538D01*
X34458999Y-33363538D01*
X34257968Y-33383337D01*
X34064654Y-33441978D01*
X33881922Y-33539651D01*
X33813519Y-33553893D01*
X33765016Y-33539651D01*
X33583150Y-33442441D01*
X33438999Y-33398712D01*
X33438999Y-34284727D01*
X33438700Y-34290806D01*
X33434370Y-34334779D01*
X33369948Y-34284637D01*
X33251576Y-34244000D01*
X33157927Y-34244000D01*
X33065554Y-34259414D01*
X32955486Y-34318981D01*
X32939000Y-34336889D01*
X32939000Y-33398712D01*
X32794849Y-33442441D01*
X32616790Y-33537615D01*
X32616784Y-33537620D01*
X32460707Y-33665707D01*
X32332620Y-33821784D01*
X32332615Y-33821790D01*
X32237443Y-33999845D01*
X32178829Y-34193067D01*
X32164000Y-34343642D01*
X32164000Y-34369000D01*
X32909440Y-34369000D01*
X32870722Y-34411059D01*
X32820449Y-34525670D01*
X32810114Y-34650395D01*
X32840837Y-34771719D01*
X32904394Y-34869000D01*
X32164000Y-34869000D01*
X32164000Y-34894357D01*
X12819500Y-34894357D01*
X12819500Y-29539000D01*
X17663706Y-29539000D01*
X17682853Y-29782297D01*
X17682853Y-29782300D01*
X17682854Y-29782302D01*
X17731637Y-29985496D01*
X17739830Y-30019619D01*
X17833222Y-30245089D01*
X17960737Y-30453173D01*
X17960738Y-30453176D01*
X17960741Y-30453179D01*
X18119241Y-30638759D01*
X18239108Y-30741135D01*
X18304823Y-30797261D01*
X18304826Y-30797262D01*
X18512910Y-30924777D01*
X18738381Y-31018169D01*
X18738378Y-31018169D01*
X18738384Y-31018170D01*
X18738388Y-31018172D01*
X18975698Y-31075146D01*
X19219000Y-31094294D01*
X19462302Y-31075146D01*
X19699612Y-31018172D01*
X19925089Y-30924777D01*
X20133179Y-30797259D01*
X20318759Y-30638759D01*
X20477259Y-30453179D01*
X20604777Y-30245089D01*
X20698172Y-30019612D01*
X20755146Y-29782302D01*
X20774294Y-29539000D01*
X20755146Y-29295698D01*
X20698172Y-29058388D01*
X20698169Y-29058380D01*
X20604777Y-28832910D01*
X20477262Y-28624826D01*
X20477261Y-28624823D01*
X20371080Y-28500501D01*
X20318759Y-28439241D01*
X20318757Y-28439239D01*
X20318756Y-28439238D01*
X20229832Y-28363290D01*
X20191638Y-28304784D01*
X20191139Y-28234916D01*
X20228493Y-28175869D01*
X20229832Y-28174710D01*
X20282687Y-28129567D01*
X20318759Y-28098759D01*
X20477259Y-27913179D01*
X20604777Y-27705089D01*
X20698172Y-27479612D01*
X20755146Y-27242302D01*
X20774294Y-26999001D01*
X28073532Y-26999001D01*
X28093364Y-27225686D01*
X28093366Y-27225697D01*
X28152258Y-27445488D01*
X28152261Y-27445497D01*
X28248431Y-27651732D01*
X28248432Y-27651734D01*
X28378954Y-27838141D01*
X28539858Y-27999045D01*
X28539861Y-27999047D01*
X28726266Y-28129568D01*
X28932504Y-28225739D01*
X29152308Y-28284635D01*
X29314230Y-28298801D01*
X29378998Y-28304468D01*
X29379000Y-28304468D01*
X29379002Y-28304468D01*
X29435672Y-28299509D01*
X29605692Y-28284635D01*
X29825496Y-28225739D01*
X30031734Y-28129568D01*
X30218139Y-27999047D01*
X30379047Y-27838139D01*
X30509568Y-27651734D01*
X30605739Y-27445496D01*
X30664635Y-27225692D01*
X30684468Y-26999001D01*
X38233532Y-26999001D01*
X38253364Y-27225686D01*
X38253366Y-27225697D01*
X38312258Y-27445488D01*
X38312261Y-27445497D01*
X38408431Y-27651732D01*
X38408432Y-27651734D01*
X38538954Y-27838141D01*
X38699858Y-27999045D01*
X38699861Y-27999047D01*
X38886266Y-28129568D01*
X39092504Y-28225739D01*
X39312308Y-28284635D01*
X39474230Y-28298801D01*
X39538998Y-28304468D01*
X39539000Y-28304468D01*
X39539002Y-28304468D01*
X39595672Y-28299509D01*
X39765692Y-28284635D01*
X39985496Y-28225739D01*
X40191734Y-28129568D01*
X40378139Y-27999047D01*
X40539047Y-27838139D01*
X40669568Y-27651734D01*
X40765739Y-27445496D01*
X40824635Y-27225692D01*
X40844468Y-26999001D01*
X45853532Y-26999001D01*
X45873364Y-27225686D01*
X45873366Y-27225697D01*
X45932258Y-27445488D01*
X45932261Y-27445497D01*
X46028431Y-27651732D01*
X46028432Y-27651734D01*
X46158954Y-27838141D01*
X46319858Y-27999045D01*
X46319861Y-27999047D01*
X46506266Y-28129568D01*
X46712504Y-28225739D01*
X46932308Y-28284635D01*
X47094230Y-28298801D01*
X47158998Y-28304468D01*
X47159000Y-28304468D01*
X47159002Y-28304468D01*
X47215673Y-28299509D01*
X47385692Y-28284635D01*
X47605496Y-28225739D01*
X47811734Y-28129568D01*
X47998139Y-27999047D01*
X48159047Y-27838139D01*
X48289568Y-27651734D01*
X48385739Y-27445496D01*
X48444635Y-27225692D01*
X48464468Y-26999000D01*
X48444635Y-26772308D01*
X48385739Y-26552504D01*
X48289568Y-26346266D01*
X48159047Y-26159861D01*
X48159045Y-26159858D01*
X47998141Y-25998954D01*
X47811734Y-25868432D01*
X47811732Y-25868431D01*
X47605497Y-25772261D01*
X47605488Y-25772258D01*
X47385697Y-25713366D01*
X47385693Y-25713365D01*
X47385692Y-25713365D01*
X47385691Y-25713364D01*
X47385686Y-25713364D01*
X47159002Y-25693532D01*
X47158998Y-25693532D01*
X46932313Y-25713364D01*
X46932302Y-25713366D01*
X46712511Y-25772258D01*
X46712502Y-25772261D01*
X46506267Y-25868431D01*
X46506265Y-25868432D01*
X46319858Y-25998954D01*
X46158954Y-26159858D01*
X46028432Y-26346265D01*
X46028431Y-26346267D01*
X45932261Y-26552502D01*
X45932258Y-26552511D01*
X45873366Y-26772302D01*
X45873364Y-26772313D01*
X45853532Y-26998998D01*
X45853532Y-26999001D01*
X40844468Y-26999001D01*
X40844468Y-26999000D01*
X40824635Y-26772308D01*
X40765739Y-26552504D01*
X40669568Y-26346266D01*
X40539047Y-26159861D01*
X40539045Y-26159858D01*
X40378141Y-25998954D01*
X40191734Y-25868432D01*
X40191732Y-25868431D01*
X39985497Y-25772261D01*
X39985488Y-25772258D01*
X39765697Y-25713366D01*
X39765693Y-25713365D01*
X39765692Y-25713365D01*
X39765691Y-25713364D01*
X39765686Y-25713364D01*
X39539002Y-25693532D01*
X39538998Y-25693532D01*
X39312313Y-25713364D01*
X39312302Y-25713366D01*
X39092511Y-25772258D01*
X39092502Y-25772261D01*
X38886267Y-25868431D01*
X38886265Y-25868432D01*
X38699858Y-25998954D01*
X38538954Y-26159858D01*
X38408432Y-26346265D01*
X38408431Y-26346267D01*
X38312261Y-26552502D01*
X38312258Y-26552511D01*
X38253366Y-26772302D01*
X38253364Y-26772313D01*
X38233532Y-26998998D01*
X38233532Y-26999001D01*
X30684468Y-26999001D01*
X30684468Y-26999000D01*
X30664635Y-26772308D01*
X30605739Y-26552504D01*
X30509568Y-26346266D01*
X30379047Y-26159861D01*
X30379045Y-26159858D01*
X30218141Y-25998954D01*
X30031734Y-25868432D01*
X30031732Y-25868431D01*
X29825497Y-25772261D01*
X29825488Y-25772258D01*
X29605697Y-25713366D01*
X29605693Y-25713365D01*
X29605692Y-25713365D01*
X29605691Y-25713364D01*
X29605686Y-25713364D01*
X29379002Y-25693532D01*
X29378998Y-25693532D01*
X29152313Y-25713364D01*
X29152302Y-25713366D01*
X28932511Y-25772258D01*
X28932502Y-25772261D01*
X28726267Y-25868431D01*
X28726265Y-25868432D01*
X28539858Y-25998954D01*
X28378954Y-26159858D01*
X28248432Y-26346265D01*
X28248431Y-26346267D01*
X28152261Y-26552502D01*
X28152258Y-26552511D01*
X28093366Y-26772302D01*
X28093364Y-26772313D01*
X28073532Y-26998998D01*
X28073532Y-26999001D01*
X20774294Y-26999001D01*
X20774294Y-26999000D01*
X20755146Y-26755698D01*
X20698172Y-26518388D01*
X20698169Y-26518380D01*
X20604777Y-26292910D01*
X20491288Y-26107714D01*
X20473043Y-26040268D01*
X20494159Y-25973666D01*
X20522704Y-25943657D01*
X20626190Y-25866186D01*
X20712350Y-25751093D01*
X20712354Y-25751086D01*
X20762596Y-25616379D01*
X20762598Y-25616372D01*
X20768999Y-25556844D01*
X20769000Y-25556827D01*
X20769000Y-24709000D01*
X19713852Y-24709000D01*
X19762559Y-24571953D01*
X19772877Y-24421114D01*
X19742116Y-24273085D01*
X19708910Y-24209000D01*
X20769000Y-24209000D01*
X20769000Y-23361172D01*
X20768999Y-23361155D01*
X20762598Y-23301627D01*
X20762596Y-23301620D01*
X20712354Y-23166913D01*
X20712350Y-23166906D01*
X20626190Y-23051812D01*
X20626187Y-23051809D01*
X20511093Y-22965649D01*
X20511086Y-22965645D01*
X20376379Y-22915403D01*
X20376372Y-22915401D01*
X20316844Y-22909000D01*
X19469000Y-22909000D01*
X19469000Y-23967316D01*
X19440181Y-23949791D01*
X19294596Y-23909000D01*
X19181378Y-23909000D01*
X19069217Y-23924416D01*
X18969000Y-23967946D01*
X18969000Y-22909000D01*
X18121155Y-22909000D01*
X18061627Y-22915401D01*
X18061620Y-22915403D01*
X17926913Y-22965645D01*
X17926906Y-22965649D01*
X17811812Y-23051809D01*
X17811809Y-23051812D01*
X17725649Y-23166906D01*
X17725645Y-23166913D01*
X17675403Y-23301620D01*
X17675401Y-23301627D01*
X17669000Y-23361155D01*
X17669000Y-24209000D01*
X18724148Y-24209000D01*
X18675441Y-24346047D01*
X18665123Y-24496886D01*
X18695884Y-24644915D01*
X18729090Y-24709000D01*
X17669000Y-24709000D01*
X17669000Y-25556844D01*
X17675401Y-25616372D01*
X17675403Y-25616379D01*
X17725645Y-25751086D01*
X17725649Y-25751093D01*
X17811809Y-25866187D01*
X17811812Y-25866190D01*
X17915295Y-25943658D01*
X17957166Y-25999592D01*
X17962150Y-26069283D01*
X17946711Y-26107714D01*
X17833222Y-26292910D01*
X17739830Y-26518380D01*
X17682853Y-26755702D01*
X17663706Y-26999000D01*
X17682853Y-27242297D01*
X17682853Y-27242300D01*
X17682854Y-27242302D01*
X17731637Y-27445496D01*
X17739830Y-27479619D01*
X17833222Y-27705089D01*
X17960737Y-27913173D01*
X17960738Y-27913176D01*
X18066919Y-28037498D01*
X18119241Y-28098759D01*
X18208168Y-28174709D01*
X18246361Y-28233215D01*
X18246860Y-28303083D01*
X18209506Y-28362130D01*
X18208169Y-28363289D01*
X18186986Y-28381381D01*
X18119241Y-28439241D01*
X18119239Y-28439242D01*
X18119238Y-28439244D01*
X17960738Y-28624823D01*
X17960737Y-28624826D01*
X17833222Y-28832910D01*
X17739830Y-29058380D01*
X17682853Y-29295702D01*
X17663706Y-29539000D01*
X12819500Y-29539000D01*
X12819500Y-20226870D01*
X28078500Y-20226870D01*
X28078501Y-20226876D01*
X28084908Y-20286483D01*
X28135202Y-20421328D01*
X28135206Y-20421335D01*
X28221452Y-20536544D01*
X28221455Y-20536547D01*
X28336664Y-20622793D01*
X28336671Y-20622797D01*
X28471517Y-20673091D01*
X28471516Y-20673091D01*
X28478444Y-20673835D01*
X28531127Y-20679500D01*
X30226872Y-20679499D01*
X30286483Y-20673091D01*
X30421331Y-20622796D01*
X30536546Y-20536546D01*
X30622796Y-20421331D01*
X30673091Y-20286483D01*
X30679500Y-20226873D01*
X30679499Y-19378999D01*
X33203538Y-19378999D01*
X33223337Y-19580031D01*
X33281978Y-19773345D01*
X33379651Y-19956077D01*
X33393893Y-20024479D01*
X33379651Y-20072983D01*
X33282442Y-20254846D01*
X33238715Y-20399000D01*
X34124729Y-20399000D01*
X34130809Y-20399299D01*
X34166776Y-20402841D01*
X34175145Y-20403665D01*
X34140722Y-20441059D01*
X34090449Y-20555670D01*
X34080114Y-20680395D01*
X34110837Y-20801719D01*
X34170801Y-20893500D01*
X33661129Y-20893500D01*
X33661125Y-20893501D01*
X33629406Y-20896910D01*
X33613273Y-20898645D01*
X33606646Y-20899000D01*
X33238714Y-20899000D01*
X33282677Y-21043928D01*
X33283300Y-21113795D01*
X33268629Y-21143435D01*
X33269454Y-21143886D01*
X33265202Y-21151671D01*
X33214908Y-21286517D01*
X33208501Y-21346116D01*
X33208501Y-21346123D01*
X33208500Y-21346135D01*
X33208500Y-22491870D01*
X33208501Y-22491876D01*
X33214908Y-22551483D01*
X33265202Y-22686328D01*
X33265206Y-22686335D01*
X33351452Y-22801544D01*
X33351455Y-22801547D01*
X33466664Y-22887793D01*
X33466671Y-22887797D01*
X33601517Y-22938091D01*
X33601516Y-22938091D01*
X33608444Y-22938835D01*
X33661127Y-22944500D01*
X35256872Y-22944499D01*
X35316483Y-22938091D01*
X35451331Y-22887796D01*
X35566546Y-22801546D01*
X35652796Y-22686331D01*
X35703091Y-22551483D01*
X35709500Y-22491873D01*
X35709499Y-21346128D01*
X35703091Y-21286517D01*
X35695538Y-21266267D01*
X35652797Y-21151671D01*
X35648546Y-21143886D01*
X35650465Y-21142837D01*
X35630299Y-21088772D01*
X35635322Y-21043928D01*
X35679285Y-20899000D01*
X35311350Y-20899000D01*
X35304717Y-20898644D01*
X35256873Y-20893500D01*
X35256872Y-20893500D01*
X34743623Y-20893500D01*
X34777278Y-20856941D01*
X34827551Y-20742330D01*
X34837886Y-20617605D01*
X34807163Y-20496281D01*
X34746424Y-20403313D01*
X34751223Y-20402841D01*
X34787191Y-20399299D01*
X34793271Y-20399000D01*
X35679285Y-20399000D01*
X35635557Y-20254848D01*
X35538348Y-20072985D01*
X35524106Y-20004582D01*
X35538348Y-19956078D01*
X35636021Y-19773345D01*
X35636021Y-19773344D01*
X35636023Y-19773341D01*
X35694662Y-19580033D01*
X35714462Y-19379000D01*
X35694662Y-19177967D01*
X35679808Y-19128999D01*
X38260127Y-19128999D01*
X38260128Y-19129000D01*
X39223314Y-19129000D01*
X39211359Y-19140955D01*
X39153835Y-19253852D01*
X39134014Y-19379000D01*
X39153835Y-19504148D01*
X39211359Y-19617045D01*
X39223314Y-19629000D01*
X38260128Y-19629000D01*
X38312730Y-19825317D01*
X38312734Y-19825326D01*
X38408865Y-20031482D01*
X38539342Y-20217820D01*
X38700179Y-20378657D01*
X38886517Y-20509134D01*
X39092673Y-20605265D01*
X39092682Y-20605269D01*
X39288999Y-20657872D01*
X39289000Y-20657871D01*
X39289000Y-19694686D01*
X39300955Y-19706641D01*
X39413852Y-19764165D01*
X39507519Y-19779000D01*
X39570481Y-19779000D01*
X39664148Y-19764165D01*
X39777045Y-19706641D01*
X39789000Y-19694686D01*
X39789000Y-20657872D01*
X39985317Y-20605269D01*
X39985326Y-20605265D01*
X40191482Y-20509134D01*
X40377820Y-20378657D01*
X40538657Y-20217820D01*
X40669134Y-20031482D01*
X40765265Y-19825326D01*
X40765269Y-19825317D01*
X40817872Y-19629000D01*
X39854686Y-19629000D01*
X39866641Y-19617045D01*
X39924165Y-19504148D01*
X39943986Y-19379001D01*
X45853532Y-19379001D01*
X45873364Y-19605686D01*
X45873366Y-19605697D01*
X45932258Y-19825488D01*
X45932261Y-19825497D01*
X46028431Y-20031732D01*
X46028432Y-20031734D01*
X46158954Y-20218141D01*
X46319858Y-20379045D01*
X46319861Y-20379047D01*
X46506266Y-20509568D01*
X46712504Y-20605739D01*
X46932308Y-20664635D01*
X47094230Y-20678801D01*
X47158998Y-20684468D01*
X47159000Y-20684468D01*
X47159002Y-20684468D01*
X47215807Y-20679498D01*
X47385692Y-20664635D01*
X47605496Y-20605739D01*
X47811734Y-20509568D01*
X47998139Y-20379047D01*
X48159047Y-20218139D01*
X48289568Y-20031734D01*
X48385739Y-19825496D01*
X48444635Y-19605692D01*
X48464468Y-19379000D01*
X48444635Y-19152308D01*
X48385739Y-18932504D01*
X48289568Y-18726266D01*
X48159047Y-18539861D01*
X48159045Y-18539858D01*
X47998141Y-18378954D01*
X47811734Y-18248432D01*
X47811732Y-18248431D01*
X47605497Y-18152261D01*
X47605488Y-18152258D01*
X47385697Y-18093366D01*
X47385693Y-18093365D01*
X47385692Y-18093365D01*
X47385691Y-18093364D01*
X47385686Y-18093364D01*
X47159002Y-18073532D01*
X47158998Y-18073532D01*
X46932313Y-18093364D01*
X46932302Y-18093366D01*
X46712511Y-18152258D01*
X46712502Y-18152261D01*
X46506267Y-18248431D01*
X46506265Y-18248432D01*
X46319858Y-18378954D01*
X46158954Y-18539858D01*
X46028432Y-18726265D01*
X46028431Y-18726267D01*
X45932261Y-18932502D01*
X45932258Y-18932511D01*
X45873366Y-19152302D01*
X45873364Y-19152313D01*
X45853532Y-19378998D01*
X45853532Y-19379001D01*
X39943986Y-19379001D01*
X39943986Y-19379000D01*
X39924165Y-19253852D01*
X39866641Y-19140955D01*
X39854686Y-19129000D01*
X40817872Y-19129000D01*
X40817872Y-19128999D01*
X40765269Y-18932682D01*
X40765265Y-18932673D01*
X40669134Y-18726517D01*
X40538657Y-18540179D01*
X40377820Y-18379342D01*
X40191482Y-18248865D01*
X39985328Y-18152734D01*
X39789000Y-18100127D01*
X39789000Y-19063314D01*
X39777045Y-19051359D01*
X39664148Y-18993835D01*
X39570481Y-18979000D01*
X39507519Y-18979000D01*
X39413852Y-18993835D01*
X39300955Y-19051359D01*
X39289000Y-19063313D01*
X39289000Y-18100127D01*
X39092671Y-18152734D01*
X38886517Y-18248865D01*
X38700179Y-18379342D01*
X38539342Y-18540179D01*
X38408865Y-18726517D01*
X38312734Y-18932673D01*
X38312730Y-18932682D01*
X38260127Y-19128999D01*
X35679808Y-19128999D01*
X35636023Y-18984659D01*
X35636021Y-18984656D01*
X35636021Y-18984654D01*
X35540801Y-18806511D01*
X35540799Y-18806509D01*
X35540798Y-18806506D01*
X35474946Y-18726265D01*
X35412647Y-18650352D01*
X35256495Y-18522203D01*
X35256488Y-18522198D01*
X35078345Y-18426978D01*
X34885031Y-18368337D01*
X34774900Y-18357490D01*
X34734380Y-18353500D01*
X34183620Y-18353500D01*
X34146433Y-18357162D01*
X34032968Y-18368337D01*
X33839654Y-18426978D01*
X33661511Y-18522198D01*
X33661504Y-18522203D01*
X33505352Y-18650352D01*
X33377203Y-18806504D01*
X33377198Y-18806511D01*
X33281978Y-18984654D01*
X33223337Y-19177968D01*
X33203538Y-19378999D01*
X30679499Y-19378999D01*
X30679499Y-18531128D01*
X30673091Y-18471517D01*
X30638567Y-18378954D01*
X30622797Y-18336671D01*
X30622793Y-18336664D01*
X30536547Y-18221455D01*
X30536544Y-18221452D01*
X30421335Y-18135206D01*
X30421328Y-18135202D01*
X30286482Y-18084908D01*
X30286483Y-18084908D01*
X30226883Y-18078501D01*
X30226881Y-18078500D01*
X30226873Y-18078500D01*
X30226864Y-18078500D01*
X28531129Y-18078500D01*
X28531123Y-18078501D01*
X28471516Y-18084908D01*
X28336671Y-18135202D01*
X28336664Y-18135206D01*
X28221455Y-18221452D01*
X28221452Y-18221455D01*
X28135206Y-18336664D01*
X28135202Y-18336671D01*
X28084908Y-18471517D01*
X28079459Y-18522203D01*
X28078501Y-18531123D01*
X28078500Y-18531135D01*
X28078500Y-20226870D01*
X12819500Y-20226870D01*
X12819500Y-15631597D01*
X12837109Y-15571629D01*
X13046389Y-15571629D01*
X13062477Y-15596662D01*
X13067255Y-15623811D01*
X13083559Y-15882973D01*
X13083560Y-15882980D01*
X13142513Y-16192020D01*
X13239730Y-16491224D01*
X13239732Y-16491229D01*
X13373680Y-16775882D01*
X13373684Y-16775888D01*
X13542254Y-17041513D01*
X13542256Y-17041516D01*
X13633108Y-17151337D01*
X14601678Y-16182767D01*
X14650923Y-16262300D01*
X14793948Y-16419191D01*
X14952572Y-16538979D01*
X13983793Y-17507758D01*
X13983794Y-17507760D01*
X14226638Y-17684196D01*
X14226656Y-17684207D01*
X14502341Y-17835766D01*
X14502349Y-17835770D01*
X14794849Y-17951579D01*
X14794852Y-17951580D01*
X15099577Y-18029819D01*
X15411688Y-18069249D01*
X15411700Y-18069250D01*
X15726300Y-18069250D01*
X15726311Y-18069249D01*
X16038422Y-18029819D01*
X16343147Y-17951580D01*
X16343150Y-17951579D01*
X16635650Y-17835770D01*
X16635658Y-17835766D01*
X16911343Y-17684207D01*
X16911353Y-17684201D01*
X17154204Y-17507758D01*
X17154205Y-17507758D01*
X16185427Y-16538979D01*
X16344052Y-16419191D01*
X16487077Y-16262300D01*
X16536321Y-16182768D01*
X17504890Y-17151337D01*
X17595742Y-17041517D01*
X17595745Y-17041513D01*
X17764315Y-16775888D01*
X17764319Y-16775882D01*
X17898267Y-16491229D01*
X17898269Y-16491224D01*
X17995486Y-16192020D01*
X18054439Y-15882980D01*
X18054440Y-15882973D01*
X18074193Y-15569005D01*
X96563807Y-15569005D01*
X96583559Y-15882973D01*
X96583560Y-15882980D01*
X96642513Y-16192020D01*
X96739730Y-16491224D01*
X96739732Y-16491229D01*
X96873680Y-16775882D01*
X96873684Y-16775888D01*
X97042254Y-17041513D01*
X97042256Y-17041516D01*
X97133108Y-17151337D01*
X98101678Y-16182767D01*
X98150923Y-16262300D01*
X98293948Y-16419191D01*
X98452572Y-16538979D01*
X97483793Y-17507758D01*
X97483794Y-17507760D01*
X97726638Y-17684196D01*
X97726656Y-17684207D01*
X98002341Y-17835766D01*
X98002349Y-17835770D01*
X98294849Y-17951579D01*
X98294852Y-17951580D01*
X98599577Y-18029819D01*
X98911688Y-18069249D01*
X98911700Y-18069250D01*
X99226300Y-18069250D01*
X99226311Y-18069249D01*
X99538422Y-18029819D01*
X99843147Y-17951580D01*
X99843150Y-17951579D01*
X100135650Y-17835770D01*
X100135658Y-17835766D01*
X100411343Y-17684207D01*
X100411353Y-17684201D01*
X100654204Y-17507758D01*
X100654205Y-17507758D01*
X99685427Y-16538979D01*
X99844052Y-16419191D01*
X99987077Y-16262300D01*
X100036321Y-16182768D01*
X101004890Y-17151337D01*
X101095742Y-17041517D01*
X101095745Y-17041513D01*
X101264315Y-16775888D01*
X101264319Y-16775882D01*
X101398267Y-16491229D01*
X101398269Y-16491224D01*
X101495486Y-16192020D01*
X101554439Y-15882980D01*
X101554440Y-15882973D01*
X101570745Y-15623811D01*
X101591610Y-15566369D01*
X101575523Y-15541337D01*
X101570745Y-15514188D01*
X101554440Y-15255026D01*
X101554439Y-15255019D01*
X101495486Y-14945979D01*
X101398269Y-14646775D01*
X101398267Y-14646770D01*
X101264319Y-14362117D01*
X101264315Y-14362111D01*
X101095747Y-14096489D01*
X101004889Y-13986661D01*
X100036320Y-14955230D01*
X99987077Y-14875700D01*
X99844052Y-14718809D01*
X99685426Y-14599019D01*
X100654205Y-13630240D01*
X100654204Y-13630238D01*
X100411361Y-13453803D01*
X100411343Y-13453792D01*
X100135658Y-13302233D01*
X100135650Y-13302229D01*
X99843150Y-13186420D01*
X99843147Y-13186419D01*
X99538422Y-13108180D01*
X99226311Y-13068750D01*
X98911688Y-13068750D01*
X98599577Y-13108180D01*
X98294852Y-13186419D01*
X98294849Y-13186420D01*
X98002349Y-13302229D01*
X98002341Y-13302233D01*
X97726653Y-13453793D01*
X97726648Y-13453796D01*
X97483794Y-13630239D01*
X97483793Y-13630240D01*
X98452573Y-14599019D01*
X98293948Y-14718809D01*
X98150923Y-14875700D01*
X98101679Y-14955231D01*
X97133108Y-13986661D01*
X97042256Y-14096484D01*
X97042254Y-14096487D01*
X96873684Y-14362111D01*
X96873680Y-14362117D01*
X96739732Y-14646770D01*
X96739730Y-14646775D01*
X96642513Y-14945979D01*
X96583560Y-15255019D01*
X96583559Y-15255026D01*
X96563807Y-15568994D01*
X96563807Y-15569005D01*
X18074193Y-15569005D01*
X18074193Y-15568994D01*
X18054440Y-15255026D01*
X18054439Y-15255019D01*
X17995486Y-14945979D01*
X17898269Y-14646775D01*
X17898267Y-14646770D01*
X17764319Y-14362117D01*
X17764315Y-14362111D01*
X17595747Y-14096489D01*
X17504889Y-13986661D01*
X16536320Y-14955229D01*
X16487077Y-14875700D01*
X16344052Y-14718809D01*
X16185426Y-14599019D01*
X17154205Y-13630240D01*
X17154204Y-13630238D01*
X16911361Y-13453803D01*
X16911343Y-13453792D01*
X16635658Y-13302233D01*
X16635650Y-13302229D01*
X16343150Y-13186420D01*
X16343147Y-13186419D01*
X16038422Y-13108180D01*
X15726311Y-13068750D01*
X15411688Y-13068750D01*
X15099577Y-13108180D01*
X14794852Y-13186419D01*
X14794849Y-13186420D01*
X14502349Y-13302229D01*
X14502341Y-13302233D01*
X14226653Y-13453793D01*
X14226648Y-13453796D01*
X13983794Y-13630239D01*
X13983793Y-13630240D01*
X14952573Y-14599019D01*
X14793948Y-14718809D01*
X14650923Y-14875700D01*
X14601678Y-14955231D01*
X13633108Y-13986661D01*
X13542256Y-14096484D01*
X13542254Y-14096487D01*
X13373684Y-14362111D01*
X13373680Y-14362117D01*
X13239732Y-14646770D01*
X13239730Y-14646775D01*
X13142513Y-14945979D01*
X13083560Y-15255019D01*
X13083559Y-15255026D01*
X13067255Y-15514188D01*
X13046389Y-15571629D01*
X12837109Y-15571629D01*
X12839185Y-15564558D01*
X12839535Y-15564254D01*
X12822564Y-15533797D01*
X12819500Y-15506402D01*
X12819500Y-12943500D01*
X12839185Y-12876461D01*
X12891989Y-12830706D01*
X12943500Y-12819500D01*
X101694500Y-12819500D01*
X101761539Y-12839185D01*
G37*
%TD.AperFunction*%
%TD*%
M02*
