%TF.GenerationSoftware,KiCad,Pcbnew,7.0.6*%
%TF.CreationDate,2023-08-13T12:07:49+02:00*%
%TF.ProjectId,ps2_mouse_to_serial_port_adapter_in_a_box,7073325f-6d6f-4757-9365-5f746f5f7365,rev?*%
%TF.SameCoordinates,Original*%
%TF.FileFunction,Drillmap*%
%TF.FilePolarity,Positive*%
%FSLAX45Y45*%
G04 Gerber Fmt 4.5, Leading zero omitted, Abs format (unit mm)*
G04 Created by KiCad (PCBNEW 7.0.6) date 2023-08-13 12:07:49*
%MOMM*%
%LPD*%
G01*
G04 APERTURE LIST*
%ADD10C,0.050000*%
%ADD11C,0.200000*%
G04 APERTURE END LIST*
D10*
X1231900Y-1231900D02*
X10231900Y-1231900D01*
X10231900Y-8231900D01*
X1231900Y-8231900D01*
X1231900Y-1231900D01*
D11*
X1490177Y-8545884D02*
X1490177Y-8345884D01*
X1490177Y-8345884D02*
X1537796Y-8345884D01*
X1537796Y-8345884D02*
X1566367Y-8355408D01*
X1566367Y-8355408D02*
X1585415Y-8374455D01*
X1585415Y-8374455D02*
X1594939Y-8393503D01*
X1594939Y-8393503D02*
X1604462Y-8431598D01*
X1604462Y-8431598D02*
X1604462Y-8460170D01*
X1604462Y-8460170D02*
X1594939Y-8498265D01*
X1594939Y-8498265D02*
X1585415Y-8517312D01*
X1585415Y-8517312D02*
X1566367Y-8536360D01*
X1566367Y-8536360D02*
X1537796Y-8545884D01*
X1537796Y-8545884D02*
X1490177Y-8545884D01*
X1690177Y-8545884D02*
X1690177Y-8412550D01*
X1690177Y-8450646D02*
X1699701Y-8431598D01*
X1699701Y-8431598D02*
X1709224Y-8422074D01*
X1709224Y-8422074D02*
X1728272Y-8412550D01*
X1728272Y-8412550D02*
X1747320Y-8412550D01*
X1813986Y-8545884D02*
X1813986Y-8412550D01*
X1813986Y-8345884D02*
X1804462Y-8355408D01*
X1804462Y-8355408D02*
X1813986Y-8364931D01*
X1813986Y-8364931D02*
X1823510Y-8355408D01*
X1823510Y-8355408D02*
X1813986Y-8345884D01*
X1813986Y-8345884D02*
X1813986Y-8364931D01*
X1937796Y-8545884D02*
X1918748Y-8536360D01*
X1918748Y-8536360D02*
X1909224Y-8517312D01*
X1909224Y-8517312D02*
X1909224Y-8345884D01*
X2042558Y-8545884D02*
X2023510Y-8536360D01*
X2023510Y-8536360D02*
X2013986Y-8517312D01*
X2013986Y-8517312D02*
X2013986Y-8345884D01*
X2271129Y-8545884D02*
X2271129Y-8345884D01*
X2271129Y-8345884D02*
X2337796Y-8488741D01*
X2337796Y-8488741D02*
X2404463Y-8345884D01*
X2404463Y-8345884D02*
X2404463Y-8545884D01*
X2585415Y-8545884D02*
X2585415Y-8441122D01*
X2585415Y-8441122D02*
X2575891Y-8422074D01*
X2575891Y-8422074D02*
X2556844Y-8412550D01*
X2556844Y-8412550D02*
X2518748Y-8412550D01*
X2518748Y-8412550D02*
X2499701Y-8422074D01*
X2585415Y-8536360D02*
X2566367Y-8545884D01*
X2566367Y-8545884D02*
X2518748Y-8545884D01*
X2518748Y-8545884D02*
X2499701Y-8536360D01*
X2499701Y-8536360D02*
X2490177Y-8517312D01*
X2490177Y-8517312D02*
X2490177Y-8498265D01*
X2490177Y-8498265D02*
X2499701Y-8479217D01*
X2499701Y-8479217D02*
X2518748Y-8469693D01*
X2518748Y-8469693D02*
X2566367Y-8469693D01*
X2566367Y-8469693D02*
X2585415Y-8460170D01*
X2680653Y-8412550D02*
X2680653Y-8612550D01*
X2680653Y-8422074D02*
X2699701Y-8412550D01*
X2699701Y-8412550D02*
X2737796Y-8412550D01*
X2737796Y-8412550D02*
X2756844Y-8422074D01*
X2756844Y-8422074D02*
X2766367Y-8431598D01*
X2766367Y-8431598D02*
X2775891Y-8450646D01*
X2775891Y-8450646D02*
X2775891Y-8507789D01*
X2775891Y-8507789D02*
X2766367Y-8526836D01*
X2766367Y-8526836D02*
X2756844Y-8536360D01*
X2756844Y-8536360D02*
X2737796Y-8545884D01*
X2737796Y-8545884D02*
X2699701Y-8545884D01*
X2699701Y-8545884D02*
X2680653Y-8536360D01*
X2861605Y-8526836D02*
X2871129Y-8536360D01*
X2871129Y-8536360D02*
X2861605Y-8545884D01*
X2861605Y-8545884D02*
X2852082Y-8536360D01*
X2852082Y-8536360D02*
X2861605Y-8526836D01*
X2861605Y-8526836D02*
X2861605Y-8545884D01*
X2861605Y-8422074D02*
X2871129Y-8431598D01*
X2871129Y-8431598D02*
X2861605Y-8441122D01*
X2861605Y-8441122D02*
X2852082Y-8431598D01*
X2852082Y-8431598D02*
X2861605Y-8422074D01*
X2861605Y-8422074D02*
X2861605Y-8441122D01*
M02*
