%TF.GenerationSoftware,KiCad,Pcbnew,7.0.6*%
%TF.CreationDate,2023-08-10T18:19:11+02:00*%
%TF.ProjectId,ps2_mouse_to_serial_rev2,7073325f-6d6f-4757-9365-5f746f5f7365,rev?*%
%TF.SameCoordinates,Original*%
%TF.FileFunction,Legend,Top*%
%TF.FilePolarity,Positive*%
%FSLAX46Y46*%
G04 Gerber Fmt 4.6, Leading zero omitted, Abs format (unit mm)*
G04 Created by KiCad (PCBNEW 7.0.6) date 2023-08-10 18:19:11*
%MOMM*%
%LPD*%
G01*
G04 APERTURE LIST*
%ADD10C,0.100000*%
%ADD11C,0.150000*%
%ADD12C,0.120000*%
%ADD13C,4.000500*%
G04 APERTURE END LIST*
D10*
X30783884Y-27132419D02*
X30783884Y-26132419D01*
X30783884Y-26132419D02*
X31164836Y-26132419D01*
X31164836Y-26132419D02*
X31260074Y-26180038D01*
X31260074Y-26180038D02*
X31307693Y-26227657D01*
X31307693Y-26227657D02*
X31355312Y-26322895D01*
X31355312Y-26322895D02*
X31355312Y-26465752D01*
X31355312Y-26465752D02*
X31307693Y-26560990D01*
X31307693Y-26560990D02*
X31260074Y-26608609D01*
X31260074Y-26608609D02*
X31164836Y-26656228D01*
X31164836Y-26656228D02*
X30783884Y-26656228D01*
X31736265Y-27084800D02*
X31879122Y-27132419D01*
X31879122Y-27132419D02*
X32117217Y-27132419D01*
X32117217Y-27132419D02*
X32212455Y-27084800D01*
X32212455Y-27084800D02*
X32260074Y-27037180D01*
X32260074Y-27037180D02*
X32307693Y-26941942D01*
X32307693Y-26941942D02*
X32307693Y-26846704D01*
X32307693Y-26846704D02*
X32260074Y-26751466D01*
X32260074Y-26751466D02*
X32212455Y-26703847D01*
X32212455Y-26703847D02*
X32117217Y-26656228D01*
X32117217Y-26656228D02*
X31926741Y-26608609D01*
X31926741Y-26608609D02*
X31831503Y-26560990D01*
X31831503Y-26560990D02*
X31783884Y-26513371D01*
X31783884Y-26513371D02*
X31736265Y-26418133D01*
X31736265Y-26418133D02*
X31736265Y-26322895D01*
X31736265Y-26322895D02*
X31783884Y-26227657D01*
X31783884Y-26227657D02*
X31831503Y-26180038D01*
X31831503Y-26180038D02*
X31926741Y-26132419D01*
X31926741Y-26132419D02*
X32164836Y-26132419D01*
X32164836Y-26132419D02*
X32307693Y-26180038D01*
X33450550Y-26084800D02*
X32593408Y-27370514D01*
X33736265Y-26227657D02*
X33783884Y-26180038D01*
X33783884Y-26180038D02*
X33879122Y-26132419D01*
X33879122Y-26132419D02*
X34117217Y-26132419D01*
X34117217Y-26132419D02*
X34212455Y-26180038D01*
X34212455Y-26180038D02*
X34260074Y-26227657D01*
X34260074Y-26227657D02*
X34307693Y-26322895D01*
X34307693Y-26322895D02*
X34307693Y-26418133D01*
X34307693Y-26418133D02*
X34260074Y-26560990D01*
X34260074Y-26560990D02*
X33688646Y-27132419D01*
X33688646Y-27132419D02*
X34307693Y-27132419D01*
X35498170Y-27132419D02*
X35498170Y-26465752D01*
X35498170Y-26560990D02*
X35545789Y-26513371D01*
X35545789Y-26513371D02*
X35641027Y-26465752D01*
X35641027Y-26465752D02*
X35783884Y-26465752D01*
X35783884Y-26465752D02*
X35879122Y-26513371D01*
X35879122Y-26513371D02*
X35926741Y-26608609D01*
X35926741Y-26608609D02*
X35926741Y-27132419D01*
X35926741Y-26608609D02*
X35974360Y-26513371D01*
X35974360Y-26513371D02*
X36069598Y-26465752D01*
X36069598Y-26465752D02*
X36212455Y-26465752D01*
X36212455Y-26465752D02*
X36307694Y-26513371D01*
X36307694Y-26513371D02*
X36355313Y-26608609D01*
X36355313Y-26608609D02*
X36355313Y-27132419D01*
X36974360Y-27132419D02*
X36879122Y-27084800D01*
X36879122Y-27084800D02*
X36831503Y-27037180D01*
X36831503Y-27037180D02*
X36783884Y-26941942D01*
X36783884Y-26941942D02*
X36783884Y-26656228D01*
X36783884Y-26656228D02*
X36831503Y-26560990D01*
X36831503Y-26560990D02*
X36879122Y-26513371D01*
X36879122Y-26513371D02*
X36974360Y-26465752D01*
X36974360Y-26465752D02*
X37117217Y-26465752D01*
X37117217Y-26465752D02*
X37212455Y-26513371D01*
X37212455Y-26513371D02*
X37260074Y-26560990D01*
X37260074Y-26560990D02*
X37307693Y-26656228D01*
X37307693Y-26656228D02*
X37307693Y-26941942D01*
X37307693Y-26941942D02*
X37260074Y-27037180D01*
X37260074Y-27037180D02*
X37212455Y-27084800D01*
X37212455Y-27084800D02*
X37117217Y-27132419D01*
X37117217Y-27132419D02*
X36974360Y-27132419D01*
X38164836Y-26465752D02*
X38164836Y-27132419D01*
X37736265Y-26465752D02*
X37736265Y-26989561D01*
X37736265Y-26989561D02*
X37783884Y-27084800D01*
X37783884Y-27084800D02*
X37879122Y-27132419D01*
X37879122Y-27132419D02*
X38021979Y-27132419D01*
X38021979Y-27132419D02*
X38117217Y-27084800D01*
X38117217Y-27084800D02*
X38164836Y-27037180D01*
X38593408Y-27084800D02*
X38688646Y-27132419D01*
X38688646Y-27132419D02*
X38879122Y-27132419D01*
X38879122Y-27132419D02*
X38974360Y-27084800D01*
X38974360Y-27084800D02*
X39021979Y-26989561D01*
X39021979Y-26989561D02*
X39021979Y-26941942D01*
X39021979Y-26941942D02*
X38974360Y-26846704D01*
X38974360Y-26846704D02*
X38879122Y-26799085D01*
X38879122Y-26799085D02*
X38736265Y-26799085D01*
X38736265Y-26799085D02*
X38641027Y-26751466D01*
X38641027Y-26751466D02*
X38593408Y-26656228D01*
X38593408Y-26656228D02*
X38593408Y-26608609D01*
X38593408Y-26608609D02*
X38641027Y-26513371D01*
X38641027Y-26513371D02*
X38736265Y-26465752D01*
X38736265Y-26465752D02*
X38879122Y-26465752D01*
X38879122Y-26465752D02*
X38974360Y-26513371D01*
X39831503Y-27084800D02*
X39736265Y-27132419D01*
X39736265Y-27132419D02*
X39545789Y-27132419D01*
X39545789Y-27132419D02*
X39450551Y-27084800D01*
X39450551Y-27084800D02*
X39402932Y-26989561D01*
X39402932Y-26989561D02*
X39402932Y-26608609D01*
X39402932Y-26608609D02*
X39450551Y-26513371D01*
X39450551Y-26513371D02*
X39545789Y-26465752D01*
X39545789Y-26465752D02*
X39736265Y-26465752D01*
X39736265Y-26465752D02*
X39831503Y-26513371D01*
X39831503Y-26513371D02*
X39879122Y-26608609D01*
X39879122Y-26608609D02*
X39879122Y-26703847D01*
X39879122Y-26703847D02*
X39402932Y-26799085D01*
X40926742Y-26465752D02*
X41307694Y-26465752D01*
X41069599Y-26132419D02*
X41069599Y-26989561D01*
X41069599Y-26989561D02*
X41117218Y-27084800D01*
X41117218Y-27084800D02*
X41212456Y-27132419D01*
X41212456Y-27132419D02*
X41307694Y-27132419D01*
X41783885Y-27132419D02*
X41688647Y-27084800D01*
X41688647Y-27084800D02*
X41641028Y-27037180D01*
X41641028Y-27037180D02*
X41593409Y-26941942D01*
X41593409Y-26941942D02*
X41593409Y-26656228D01*
X41593409Y-26656228D02*
X41641028Y-26560990D01*
X41641028Y-26560990D02*
X41688647Y-26513371D01*
X41688647Y-26513371D02*
X41783885Y-26465752D01*
X41783885Y-26465752D02*
X41926742Y-26465752D01*
X41926742Y-26465752D02*
X42021980Y-26513371D01*
X42021980Y-26513371D02*
X42069599Y-26560990D01*
X42069599Y-26560990D02*
X42117218Y-26656228D01*
X42117218Y-26656228D02*
X42117218Y-26941942D01*
X42117218Y-26941942D02*
X42069599Y-27037180D01*
X42069599Y-27037180D02*
X42021980Y-27084800D01*
X42021980Y-27084800D02*
X41926742Y-27132419D01*
X41926742Y-27132419D02*
X41783885Y-27132419D01*
X43260076Y-27084800D02*
X43355314Y-27132419D01*
X43355314Y-27132419D02*
X43545790Y-27132419D01*
X43545790Y-27132419D02*
X43641028Y-27084800D01*
X43641028Y-27084800D02*
X43688647Y-26989561D01*
X43688647Y-26989561D02*
X43688647Y-26941942D01*
X43688647Y-26941942D02*
X43641028Y-26846704D01*
X43641028Y-26846704D02*
X43545790Y-26799085D01*
X43545790Y-26799085D02*
X43402933Y-26799085D01*
X43402933Y-26799085D02*
X43307695Y-26751466D01*
X43307695Y-26751466D02*
X43260076Y-26656228D01*
X43260076Y-26656228D02*
X43260076Y-26608609D01*
X43260076Y-26608609D02*
X43307695Y-26513371D01*
X43307695Y-26513371D02*
X43402933Y-26465752D01*
X43402933Y-26465752D02*
X43545790Y-26465752D01*
X43545790Y-26465752D02*
X43641028Y-26513371D01*
X44498171Y-27084800D02*
X44402933Y-27132419D01*
X44402933Y-27132419D02*
X44212457Y-27132419D01*
X44212457Y-27132419D02*
X44117219Y-27084800D01*
X44117219Y-27084800D02*
X44069600Y-26989561D01*
X44069600Y-26989561D02*
X44069600Y-26608609D01*
X44069600Y-26608609D02*
X44117219Y-26513371D01*
X44117219Y-26513371D02*
X44212457Y-26465752D01*
X44212457Y-26465752D02*
X44402933Y-26465752D01*
X44402933Y-26465752D02*
X44498171Y-26513371D01*
X44498171Y-26513371D02*
X44545790Y-26608609D01*
X44545790Y-26608609D02*
X44545790Y-26703847D01*
X44545790Y-26703847D02*
X44069600Y-26799085D01*
X44974362Y-27132419D02*
X44974362Y-26465752D01*
X44974362Y-26656228D02*
X45021981Y-26560990D01*
X45021981Y-26560990D02*
X45069600Y-26513371D01*
X45069600Y-26513371D02*
X45164838Y-26465752D01*
X45164838Y-26465752D02*
X45260076Y-26465752D01*
X45593410Y-27132419D02*
X45593410Y-26465752D01*
X45593410Y-26132419D02*
X45545791Y-26180038D01*
X45545791Y-26180038D02*
X45593410Y-26227657D01*
X45593410Y-26227657D02*
X45641029Y-26180038D01*
X45641029Y-26180038D02*
X45593410Y-26132419D01*
X45593410Y-26132419D02*
X45593410Y-26227657D01*
X46498171Y-27132419D02*
X46498171Y-26608609D01*
X46498171Y-26608609D02*
X46450552Y-26513371D01*
X46450552Y-26513371D02*
X46355314Y-26465752D01*
X46355314Y-26465752D02*
X46164838Y-26465752D01*
X46164838Y-26465752D02*
X46069600Y-26513371D01*
X46498171Y-27084800D02*
X46402933Y-27132419D01*
X46402933Y-27132419D02*
X46164838Y-27132419D01*
X46164838Y-27132419D02*
X46069600Y-27084800D01*
X46069600Y-27084800D02*
X46021981Y-26989561D01*
X46021981Y-26989561D02*
X46021981Y-26894323D01*
X46021981Y-26894323D02*
X46069600Y-26799085D01*
X46069600Y-26799085D02*
X46164838Y-26751466D01*
X46164838Y-26751466D02*
X46402933Y-26751466D01*
X46402933Y-26751466D02*
X46498171Y-26703847D01*
X47117219Y-27132419D02*
X47021981Y-27084800D01*
X47021981Y-27084800D02*
X46974362Y-26989561D01*
X46974362Y-26989561D02*
X46974362Y-26132419D01*
X48260077Y-26465752D02*
X48260077Y-27465752D01*
X48260077Y-26513371D02*
X48355315Y-26465752D01*
X48355315Y-26465752D02*
X48545791Y-26465752D01*
X48545791Y-26465752D02*
X48641029Y-26513371D01*
X48641029Y-26513371D02*
X48688648Y-26560990D01*
X48688648Y-26560990D02*
X48736267Y-26656228D01*
X48736267Y-26656228D02*
X48736267Y-26941942D01*
X48736267Y-26941942D02*
X48688648Y-27037180D01*
X48688648Y-27037180D02*
X48641029Y-27084800D01*
X48641029Y-27084800D02*
X48545791Y-27132419D01*
X48545791Y-27132419D02*
X48355315Y-27132419D01*
X48355315Y-27132419D02*
X48260077Y-27084800D01*
X49307696Y-27132419D02*
X49212458Y-27084800D01*
X49212458Y-27084800D02*
X49164839Y-27037180D01*
X49164839Y-27037180D02*
X49117220Y-26941942D01*
X49117220Y-26941942D02*
X49117220Y-26656228D01*
X49117220Y-26656228D02*
X49164839Y-26560990D01*
X49164839Y-26560990D02*
X49212458Y-26513371D01*
X49212458Y-26513371D02*
X49307696Y-26465752D01*
X49307696Y-26465752D02*
X49450553Y-26465752D01*
X49450553Y-26465752D02*
X49545791Y-26513371D01*
X49545791Y-26513371D02*
X49593410Y-26560990D01*
X49593410Y-26560990D02*
X49641029Y-26656228D01*
X49641029Y-26656228D02*
X49641029Y-26941942D01*
X49641029Y-26941942D02*
X49593410Y-27037180D01*
X49593410Y-27037180D02*
X49545791Y-27084800D01*
X49545791Y-27084800D02*
X49450553Y-27132419D01*
X49450553Y-27132419D02*
X49307696Y-27132419D01*
X50069601Y-27132419D02*
X50069601Y-26465752D01*
X50069601Y-26656228D02*
X50117220Y-26560990D01*
X50117220Y-26560990D02*
X50164839Y-26513371D01*
X50164839Y-26513371D02*
X50260077Y-26465752D01*
X50260077Y-26465752D02*
X50355315Y-26465752D01*
X50545792Y-26465752D02*
X50926744Y-26465752D01*
X50688649Y-26132419D02*
X50688649Y-26989561D01*
X50688649Y-26989561D02*
X50736268Y-27084800D01*
X50736268Y-27084800D02*
X50831506Y-27132419D01*
X50831506Y-27132419D02*
X50926744Y-27132419D01*
X52450554Y-27132419D02*
X52450554Y-26608609D01*
X52450554Y-26608609D02*
X52402935Y-26513371D01*
X52402935Y-26513371D02*
X52307697Y-26465752D01*
X52307697Y-26465752D02*
X52117221Y-26465752D01*
X52117221Y-26465752D02*
X52021983Y-26513371D01*
X52450554Y-27084800D02*
X52355316Y-27132419D01*
X52355316Y-27132419D02*
X52117221Y-27132419D01*
X52117221Y-27132419D02*
X52021983Y-27084800D01*
X52021983Y-27084800D02*
X51974364Y-26989561D01*
X51974364Y-26989561D02*
X51974364Y-26894323D01*
X51974364Y-26894323D02*
X52021983Y-26799085D01*
X52021983Y-26799085D02*
X52117221Y-26751466D01*
X52117221Y-26751466D02*
X52355316Y-26751466D01*
X52355316Y-26751466D02*
X52450554Y-26703847D01*
X53355316Y-27132419D02*
X53355316Y-26132419D01*
X53355316Y-27084800D02*
X53260078Y-27132419D01*
X53260078Y-27132419D02*
X53069602Y-27132419D01*
X53069602Y-27132419D02*
X52974364Y-27084800D01*
X52974364Y-27084800D02*
X52926745Y-27037180D01*
X52926745Y-27037180D02*
X52879126Y-26941942D01*
X52879126Y-26941942D02*
X52879126Y-26656228D01*
X52879126Y-26656228D02*
X52926745Y-26560990D01*
X52926745Y-26560990D02*
X52974364Y-26513371D01*
X52974364Y-26513371D02*
X53069602Y-26465752D01*
X53069602Y-26465752D02*
X53260078Y-26465752D01*
X53260078Y-26465752D02*
X53355316Y-26513371D01*
X54260078Y-27132419D02*
X54260078Y-26608609D01*
X54260078Y-26608609D02*
X54212459Y-26513371D01*
X54212459Y-26513371D02*
X54117221Y-26465752D01*
X54117221Y-26465752D02*
X53926745Y-26465752D01*
X53926745Y-26465752D02*
X53831507Y-26513371D01*
X54260078Y-27084800D02*
X54164840Y-27132419D01*
X54164840Y-27132419D02*
X53926745Y-27132419D01*
X53926745Y-27132419D02*
X53831507Y-27084800D01*
X53831507Y-27084800D02*
X53783888Y-26989561D01*
X53783888Y-26989561D02*
X53783888Y-26894323D01*
X53783888Y-26894323D02*
X53831507Y-26799085D01*
X53831507Y-26799085D02*
X53926745Y-26751466D01*
X53926745Y-26751466D02*
X54164840Y-26751466D01*
X54164840Y-26751466D02*
X54260078Y-26703847D01*
X54736269Y-26465752D02*
X54736269Y-27465752D01*
X54736269Y-26513371D02*
X54831507Y-26465752D01*
X54831507Y-26465752D02*
X55021983Y-26465752D01*
X55021983Y-26465752D02*
X55117221Y-26513371D01*
X55117221Y-26513371D02*
X55164840Y-26560990D01*
X55164840Y-26560990D02*
X55212459Y-26656228D01*
X55212459Y-26656228D02*
X55212459Y-26941942D01*
X55212459Y-26941942D02*
X55164840Y-27037180D01*
X55164840Y-27037180D02*
X55117221Y-27084800D01*
X55117221Y-27084800D02*
X55021983Y-27132419D01*
X55021983Y-27132419D02*
X54831507Y-27132419D01*
X54831507Y-27132419D02*
X54736269Y-27084800D01*
X55498174Y-26465752D02*
X55879126Y-26465752D01*
X55641031Y-26132419D02*
X55641031Y-26989561D01*
X55641031Y-26989561D02*
X55688650Y-27084800D01*
X55688650Y-27084800D02*
X55783888Y-27132419D01*
X55783888Y-27132419D02*
X55879126Y-27132419D01*
X56593412Y-27084800D02*
X56498174Y-27132419D01*
X56498174Y-27132419D02*
X56307698Y-27132419D01*
X56307698Y-27132419D02*
X56212460Y-27084800D01*
X56212460Y-27084800D02*
X56164841Y-26989561D01*
X56164841Y-26989561D02*
X56164841Y-26608609D01*
X56164841Y-26608609D02*
X56212460Y-26513371D01*
X56212460Y-26513371D02*
X56307698Y-26465752D01*
X56307698Y-26465752D02*
X56498174Y-26465752D01*
X56498174Y-26465752D02*
X56593412Y-26513371D01*
X56593412Y-26513371D02*
X56641031Y-26608609D01*
X56641031Y-26608609D02*
X56641031Y-26703847D01*
X56641031Y-26703847D02*
X56164841Y-26799085D01*
X57069603Y-27132419D02*
X57069603Y-26465752D01*
X57069603Y-26656228D02*
X57117222Y-26560990D01*
X57117222Y-26560990D02*
X57164841Y-26513371D01*
X57164841Y-26513371D02*
X57260079Y-26465752D01*
X57260079Y-26465752D02*
X57355317Y-26465752D01*
X58355318Y-26465752D02*
X58593413Y-27132419D01*
X58593413Y-27132419D02*
X58831508Y-26465752D01*
X59736270Y-27132419D02*
X59164842Y-27132419D01*
X59450556Y-27132419D02*
X59450556Y-26132419D01*
X59450556Y-26132419D02*
X59355318Y-26275276D01*
X59355318Y-26275276D02*
X59260080Y-26370514D01*
X59260080Y-26370514D02*
X59164842Y-26418133D01*
X60164842Y-27037180D02*
X60212461Y-27084800D01*
X60212461Y-27084800D02*
X60164842Y-27132419D01*
X60164842Y-27132419D02*
X60117223Y-27084800D01*
X60117223Y-27084800D02*
X60164842Y-27037180D01*
X60164842Y-27037180D02*
X60164842Y-27132419D01*
X60831508Y-26132419D02*
X60926746Y-26132419D01*
X60926746Y-26132419D02*
X61021984Y-26180038D01*
X61021984Y-26180038D02*
X61069603Y-26227657D01*
X61069603Y-26227657D02*
X61117222Y-26322895D01*
X61117222Y-26322895D02*
X61164841Y-26513371D01*
X61164841Y-26513371D02*
X61164841Y-26751466D01*
X61164841Y-26751466D02*
X61117222Y-26941942D01*
X61117222Y-26941942D02*
X61069603Y-27037180D01*
X61069603Y-27037180D02*
X61021984Y-27084800D01*
X61021984Y-27084800D02*
X60926746Y-27132419D01*
X60926746Y-27132419D02*
X60831508Y-27132419D01*
X60831508Y-27132419D02*
X60736270Y-27084800D01*
X60736270Y-27084800D02*
X60688651Y-27037180D01*
X60688651Y-27037180D02*
X60641032Y-26941942D01*
X60641032Y-26941942D02*
X60593413Y-26751466D01*
X60593413Y-26751466D02*
X60593413Y-26513371D01*
X60593413Y-26513371D02*
X60641032Y-26322895D01*
X60641032Y-26322895D02*
X60688651Y-26227657D01*
X60688651Y-26227657D02*
X60736270Y-26180038D01*
X60736270Y-26180038D02*
X60831508Y-26132419D01*
X61593413Y-27037180D02*
X61641032Y-27084800D01*
X61641032Y-27084800D02*
X61593413Y-27132419D01*
X61593413Y-27132419D02*
X61545794Y-27084800D01*
X61545794Y-27084800D02*
X61593413Y-27037180D01*
X61593413Y-27037180D02*
X61593413Y-27132419D01*
X62593412Y-27132419D02*
X62021984Y-27132419D01*
X62307698Y-27132419D02*
X62307698Y-26132419D01*
X62307698Y-26132419D02*
X62212460Y-26275276D01*
X62212460Y-26275276D02*
X62117222Y-26370514D01*
X62117222Y-26370514D02*
X62021984Y-26418133D01*
X64355317Y-27132419D02*
X64021984Y-26656228D01*
X63783889Y-27132419D02*
X63783889Y-26132419D01*
X63783889Y-26132419D02*
X64164841Y-26132419D01*
X64164841Y-26132419D02*
X64260079Y-26180038D01*
X64260079Y-26180038D02*
X64307698Y-26227657D01*
X64307698Y-26227657D02*
X64355317Y-26322895D01*
X64355317Y-26322895D02*
X64355317Y-26465752D01*
X64355317Y-26465752D02*
X64307698Y-26560990D01*
X64307698Y-26560990D02*
X64260079Y-26608609D01*
X64260079Y-26608609D02*
X64164841Y-26656228D01*
X64164841Y-26656228D02*
X63783889Y-26656228D01*
X65164841Y-27084800D02*
X65069603Y-27132419D01*
X65069603Y-27132419D02*
X64879127Y-27132419D01*
X64879127Y-27132419D02*
X64783889Y-27084800D01*
X64783889Y-27084800D02*
X64736270Y-26989561D01*
X64736270Y-26989561D02*
X64736270Y-26608609D01*
X64736270Y-26608609D02*
X64783889Y-26513371D01*
X64783889Y-26513371D02*
X64879127Y-26465752D01*
X64879127Y-26465752D02*
X65069603Y-26465752D01*
X65069603Y-26465752D02*
X65164841Y-26513371D01*
X65164841Y-26513371D02*
X65212460Y-26608609D01*
X65212460Y-26608609D02*
X65212460Y-26703847D01*
X65212460Y-26703847D02*
X64736270Y-26799085D01*
X65545794Y-26465752D02*
X65783889Y-27132419D01*
X65783889Y-27132419D02*
X66021984Y-26465752D01*
X66355318Y-26227657D02*
X66402937Y-26180038D01*
X66402937Y-26180038D02*
X66498175Y-26132419D01*
X66498175Y-26132419D02*
X66736270Y-26132419D01*
X66736270Y-26132419D02*
X66831508Y-26180038D01*
X66831508Y-26180038D02*
X66879127Y-26227657D01*
X66879127Y-26227657D02*
X66926746Y-26322895D01*
X66926746Y-26322895D02*
X66926746Y-26418133D01*
X66926746Y-26418133D02*
X66879127Y-26560990D01*
X66879127Y-26560990D02*
X66307699Y-27132419D01*
X66307699Y-27132419D02*
X66926746Y-27132419D01*
X31069598Y-29123371D02*
X31021979Y-29075752D01*
X31021979Y-29075752D02*
X30926741Y-28932895D01*
X30926741Y-28932895D02*
X30879122Y-28837657D01*
X30879122Y-28837657D02*
X30831503Y-28694800D01*
X30831503Y-28694800D02*
X30783884Y-28456704D01*
X30783884Y-28456704D02*
X30783884Y-28266228D01*
X30783884Y-28266228D02*
X30831503Y-28028133D01*
X30831503Y-28028133D02*
X30879122Y-27885276D01*
X30879122Y-27885276D02*
X30926741Y-27790038D01*
X30926741Y-27790038D02*
X31021979Y-27647180D01*
X31021979Y-27647180D02*
X31069598Y-27599561D01*
X31879122Y-28694800D02*
X31783884Y-28742419D01*
X31783884Y-28742419D02*
X31593408Y-28742419D01*
X31593408Y-28742419D02*
X31498170Y-28694800D01*
X31498170Y-28694800D02*
X31450551Y-28647180D01*
X31450551Y-28647180D02*
X31402932Y-28551942D01*
X31402932Y-28551942D02*
X31402932Y-28266228D01*
X31402932Y-28266228D02*
X31450551Y-28170990D01*
X31450551Y-28170990D02*
X31498170Y-28123371D01*
X31498170Y-28123371D02*
X31593408Y-28075752D01*
X31593408Y-28075752D02*
X31783884Y-28075752D01*
X31783884Y-28075752D02*
X31879122Y-28123371D01*
X32212456Y-29123371D02*
X32260075Y-29075752D01*
X32260075Y-29075752D02*
X32355313Y-28932895D01*
X32355313Y-28932895D02*
X32402932Y-28837657D01*
X32402932Y-28837657D02*
X32450551Y-28694800D01*
X32450551Y-28694800D02*
X32498170Y-28456704D01*
X32498170Y-28456704D02*
X32498170Y-28266228D01*
X32498170Y-28266228D02*
X32450551Y-28028133D01*
X32450551Y-28028133D02*
X32402932Y-27885276D01*
X32402932Y-27885276D02*
X32355313Y-27790038D01*
X32355313Y-27790038D02*
X32260075Y-27647180D01*
X32260075Y-27647180D02*
X32212456Y-27599561D01*
X32926742Y-27837657D02*
X32974361Y-27790038D01*
X32974361Y-27790038D02*
X33069599Y-27742419D01*
X33069599Y-27742419D02*
X33307694Y-27742419D01*
X33307694Y-27742419D02*
X33402932Y-27790038D01*
X33402932Y-27790038D02*
X33450551Y-27837657D01*
X33450551Y-27837657D02*
X33498170Y-27932895D01*
X33498170Y-27932895D02*
X33498170Y-28028133D01*
X33498170Y-28028133D02*
X33450551Y-28170990D01*
X33450551Y-28170990D02*
X32879123Y-28742419D01*
X32879123Y-28742419D02*
X33498170Y-28742419D01*
X34117218Y-27742419D02*
X34212456Y-27742419D01*
X34212456Y-27742419D02*
X34307694Y-27790038D01*
X34307694Y-27790038D02*
X34355313Y-27837657D01*
X34355313Y-27837657D02*
X34402932Y-27932895D01*
X34402932Y-27932895D02*
X34450551Y-28123371D01*
X34450551Y-28123371D02*
X34450551Y-28361466D01*
X34450551Y-28361466D02*
X34402932Y-28551942D01*
X34402932Y-28551942D02*
X34355313Y-28647180D01*
X34355313Y-28647180D02*
X34307694Y-28694800D01*
X34307694Y-28694800D02*
X34212456Y-28742419D01*
X34212456Y-28742419D02*
X34117218Y-28742419D01*
X34117218Y-28742419D02*
X34021980Y-28694800D01*
X34021980Y-28694800D02*
X33974361Y-28647180D01*
X33974361Y-28647180D02*
X33926742Y-28551942D01*
X33926742Y-28551942D02*
X33879123Y-28361466D01*
X33879123Y-28361466D02*
X33879123Y-28123371D01*
X33879123Y-28123371D02*
X33926742Y-27932895D01*
X33926742Y-27932895D02*
X33974361Y-27837657D01*
X33974361Y-27837657D02*
X34021980Y-27790038D01*
X34021980Y-27790038D02*
X34117218Y-27742419D01*
X34831504Y-27837657D02*
X34879123Y-27790038D01*
X34879123Y-27790038D02*
X34974361Y-27742419D01*
X34974361Y-27742419D02*
X35212456Y-27742419D01*
X35212456Y-27742419D02*
X35307694Y-27790038D01*
X35307694Y-27790038D02*
X35355313Y-27837657D01*
X35355313Y-27837657D02*
X35402932Y-27932895D01*
X35402932Y-27932895D02*
X35402932Y-28028133D01*
X35402932Y-28028133D02*
X35355313Y-28170990D01*
X35355313Y-28170990D02*
X34783885Y-28742419D01*
X34783885Y-28742419D02*
X35402932Y-28742419D01*
X35736266Y-27742419D02*
X36355313Y-27742419D01*
X36355313Y-27742419D02*
X36021980Y-28123371D01*
X36021980Y-28123371D02*
X36164837Y-28123371D01*
X36164837Y-28123371D02*
X36260075Y-28170990D01*
X36260075Y-28170990D02*
X36307694Y-28218609D01*
X36307694Y-28218609D02*
X36355313Y-28313847D01*
X36355313Y-28313847D02*
X36355313Y-28551942D01*
X36355313Y-28551942D02*
X36307694Y-28647180D01*
X36307694Y-28647180D02*
X36260075Y-28694800D01*
X36260075Y-28694800D02*
X36164837Y-28742419D01*
X36164837Y-28742419D02*
X35879123Y-28742419D01*
X35879123Y-28742419D02*
X35783885Y-28694800D01*
X35783885Y-28694800D02*
X35736266Y-28647180D01*
X37545790Y-28742419D02*
X37545790Y-27742419D01*
X37545790Y-28123371D02*
X37641028Y-28075752D01*
X37641028Y-28075752D02*
X37831504Y-28075752D01*
X37831504Y-28075752D02*
X37926742Y-28123371D01*
X37926742Y-28123371D02*
X37974361Y-28170990D01*
X37974361Y-28170990D02*
X38021980Y-28266228D01*
X38021980Y-28266228D02*
X38021980Y-28551942D01*
X38021980Y-28551942D02*
X37974361Y-28647180D01*
X37974361Y-28647180D02*
X37926742Y-28694800D01*
X37926742Y-28694800D02*
X37831504Y-28742419D01*
X37831504Y-28742419D02*
X37641028Y-28742419D01*
X37641028Y-28742419D02*
X37545790Y-28694800D01*
X38355314Y-28075752D02*
X38593409Y-28742419D01*
X38831504Y-28075752D02*
X38593409Y-28742419D01*
X38593409Y-28742419D02*
X38498171Y-28980514D01*
X38498171Y-28980514D02*
X38450552Y-29028133D01*
X38450552Y-29028133D02*
X38355314Y-29075752D01*
X40545790Y-28647180D02*
X40498171Y-28694800D01*
X40498171Y-28694800D02*
X40355314Y-28742419D01*
X40355314Y-28742419D02*
X40260076Y-28742419D01*
X40260076Y-28742419D02*
X40117219Y-28694800D01*
X40117219Y-28694800D02*
X40021981Y-28599561D01*
X40021981Y-28599561D02*
X39974362Y-28504323D01*
X39974362Y-28504323D02*
X39926743Y-28313847D01*
X39926743Y-28313847D02*
X39926743Y-28170990D01*
X39926743Y-28170990D02*
X39974362Y-27980514D01*
X39974362Y-27980514D02*
X40021981Y-27885276D01*
X40021981Y-27885276D02*
X40117219Y-27790038D01*
X40117219Y-27790038D02*
X40260076Y-27742419D01*
X40260076Y-27742419D02*
X40355314Y-27742419D01*
X40355314Y-27742419D02*
X40498171Y-27790038D01*
X40498171Y-27790038D02*
X40545790Y-27837657D01*
X41355314Y-28694800D02*
X41260076Y-28742419D01*
X41260076Y-28742419D02*
X41069600Y-28742419D01*
X41069600Y-28742419D02*
X40974362Y-28694800D01*
X40974362Y-28694800D02*
X40926743Y-28599561D01*
X40926743Y-28599561D02*
X40926743Y-28218609D01*
X40926743Y-28218609D02*
X40974362Y-28123371D01*
X40974362Y-28123371D02*
X41069600Y-28075752D01*
X41069600Y-28075752D02*
X41260076Y-28075752D01*
X41260076Y-28075752D02*
X41355314Y-28123371D01*
X41355314Y-28123371D02*
X41402933Y-28218609D01*
X41402933Y-28218609D02*
X41402933Y-28313847D01*
X41402933Y-28313847D02*
X40926743Y-28409085D01*
X41783886Y-28694800D02*
X41879124Y-28742419D01*
X41879124Y-28742419D02*
X42069600Y-28742419D01*
X42069600Y-28742419D02*
X42164838Y-28694800D01*
X42164838Y-28694800D02*
X42212457Y-28599561D01*
X42212457Y-28599561D02*
X42212457Y-28551942D01*
X42212457Y-28551942D02*
X42164838Y-28456704D01*
X42164838Y-28456704D02*
X42069600Y-28409085D01*
X42069600Y-28409085D02*
X41926743Y-28409085D01*
X41926743Y-28409085D02*
X41831505Y-28361466D01*
X41831505Y-28361466D02*
X41783886Y-28266228D01*
X41783886Y-28266228D02*
X41783886Y-28218609D01*
X41783886Y-28218609D02*
X41831505Y-28123371D01*
X41831505Y-28123371D02*
X41926743Y-28075752D01*
X41926743Y-28075752D02*
X42069600Y-28075752D01*
X42069600Y-28075752D02*
X42164838Y-28123371D01*
X43069600Y-28742419D02*
X43069600Y-28218609D01*
X43069600Y-28218609D02*
X43021981Y-28123371D01*
X43021981Y-28123371D02*
X42926743Y-28075752D01*
X42926743Y-28075752D02*
X42736267Y-28075752D01*
X42736267Y-28075752D02*
X42641029Y-28123371D01*
X43069600Y-28694800D02*
X42974362Y-28742419D01*
X42974362Y-28742419D02*
X42736267Y-28742419D01*
X42736267Y-28742419D02*
X42641029Y-28694800D01*
X42641029Y-28694800D02*
X42593410Y-28599561D01*
X42593410Y-28599561D02*
X42593410Y-28504323D01*
X42593410Y-28504323D02*
X42641029Y-28409085D01*
X42641029Y-28409085D02*
X42736267Y-28361466D01*
X42736267Y-28361466D02*
X42974362Y-28361466D01*
X42974362Y-28361466D02*
X43069600Y-28313847D01*
X43545791Y-28742419D02*
X43545791Y-28075752D01*
X43545791Y-28266228D02*
X43593410Y-28170990D01*
X43593410Y-28170990D02*
X43641029Y-28123371D01*
X43641029Y-28123371D02*
X43736267Y-28075752D01*
X43736267Y-28075752D02*
X43831505Y-28075752D01*
X45498172Y-28742419D02*
X45164839Y-28266228D01*
X44926744Y-28742419D02*
X44926744Y-27742419D01*
X44926744Y-27742419D02*
X45307696Y-27742419D01*
X45307696Y-27742419D02*
X45402934Y-27790038D01*
X45402934Y-27790038D02*
X45450553Y-27837657D01*
X45450553Y-27837657D02*
X45498172Y-27932895D01*
X45498172Y-27932895D02*
X45498172Y-28075752D01*
X45498172Y-28075752D02*
X45450553Y-28170990D01*
X45450553Y-28170990D02*
X45402934Y-28218609D01*
X45402934Y-28218609D02*
X45307696Y-28266228D01*
X45307696Y-28266228D02*
X44926744Y-28266228D01*
X45926744Y-28742419D02*
X45926744Y-28075752D01*
X45926744Y-27742419D02*
X45879125Y-27790038D01*
X45879125Y-27790038D02*
X45926744Y-27837657D01*
X45926744Y-27837657D02*
X45974363Y-27790038D01*
X45974363Y-27790038D02*
X45926744Y-27742419D01*
X45926744Y-27742419D02*
X45926744Y-27837657D01*
X46402934Y-28075752D02*
X46402934Y-28742419D01*
X46402934Y-28170990D02*
X46450553Y-28123371D01*
X46450553Y-28123371D02*
X46545791Y-28075752D01*
X46545791Y-28075752D02*
X46688648Y-28075752D01*
X46688648Y-28075752D02*
X46783886Y-28123371D01*
X46783886Y-28123371D02*
X46831505Y-28218609D01*
X46831505Y-28218609D02*
X46831505Y-28742419D01*
X47736267Y-28694800D02*
X47641029Y-28742419D01*
X47641029Y-28742419D02*
X47450553Y-28742419D01*
X47450553Y-28742419D02*
X47355315Y-28694800D01*
X47355315Y-28694800D02*
X47307696Y-28647180D01*
X47307696Y-28647180D02*
X47260077Y-28551942D01*
X47260077Y-28551942D02*
X47260077Y-28266228D01*
X47260077Y-28266228D02*
X47307696Y-28170990D01*
X47307696Y-28170990D02*
X47355315Y-28123371D01*
X47355315Y-28123371D02*
X47450553Y-28075752D01*
X47450553Y-28075752D02*
X47641029Y-28075752D01*
X47641029Y-28075752D02*
X47736267Y-28123371D01*
X48307696Y-28742419D02*
X48212458Y-28694800D01*
X48212458Y-28694800D02*
X48164839Y-28647180D01*
X48164839Y-28647180D02*
X48117220Y-28551942D01*
X48117220Y-28551942D02*
X48117220Y-28266228D01*
X48117220Y-28266228D02*
X48164839Y-28170990D01*
X48164839Y-28170990D02*
X48212458Y-28123371D01*
X48212458Y-28123371D02*
X48307696Y-28075752D01*
X48307696Y-28075752D02*
X48450553Y-28075752D01*
X48450553Y-28075752D02*
X48545791Y-28123371D01*
X48545791Y-28123371D02*
X48593410Y-28170990D01*
X48593410Y-28170990D02*
X48641029Y-28266228D01*
X48641029Y-28266228D02*
X48641029Y-28551942D01*
X48641029Y-28551942D02*
X48593410Y-28647180D01*
X48593410Y-28647180D02*
X48545791Y-28694800D01*
X48545791Y-28694800D02*
X48450553Y-28742419D01*
X48450553Y-28742419D02*
X48307696Y-28742419D01*
X49069601Y-28075752D02*
X49069601Y-28742419D01*
X49069601Y-28170990D02*
X49117220Y-28123371D01*
X49117220Y-28123371D02*
X49212458Y-28075752D01*
X49212458Y-28075752D02*
X49355315Y-28075752D01*
X49355315Y-28075752D02*
X49450553Y-28123371D01*
X49450553Y-28123371D02*
X49498172Y-28218609D01*
X49498172Y-28218609D02*
X49498172Y-28742419D01*
X30783884Y-29685752D02*
X30783884Y-30352419D01*
X30783884Y-29780990D02*
X30831503Y-29733371D01*
X30831503Y-29733371D02*
X30926741Y-29685752D01*
X30926741Y-29685752D02*
X31069598Y-29685752D01*
X31069598Y-29685752D02*
X31164836Y-29733371D01*
X31164836Y-29733371D02*
X31212455Y-29828609D01*
X31212455Y-29828609D02*
X31212455Y-30352419D01*
X31688646Y-30352419D02*
X31688646Y-29685752D01*
X31688646Y-29352419D02*
X31641027Y-29400038D01*
X31641027Y-29400038D02*
X31688646Y-29447657D01*
X31688646Y-29447657D02*
X31736265Y-29400038D01*
X31736265Y-29400038D02*
X31688646Y-29352419D01*
X31688646Y-29352419D02*
X31688646Y-29447657D01*
X32593407Y-29685752D02*
X32593407Y-30495276D01*
X32593407Y-30495276D02*
X32545788Y-30590514D01*
X32545788Y-30590514D02*
X32498169Y-30638133D01*
X32498169Y-30638133D02*
X32402931Y-30685752D01*
X32402931Y-30685752D02*
X32260074Y-30685752D01*
X32260074Y-30685752D02*
X32164836Y-30638133D01*
X32593407Y-30304800D02*
X32498169Y-30352419D01*
X32498169Y-30352419D02*
X32307693Y-30352419D01*
X32307693Y-30352419D02*
X32212455Y-30304800D01*
X32212455Y-30304800D02*
X32164836Y-30257180D01*
X32164836Y-30257180D02*
X32117217Y-30161942D01*
X32117217Y-30161942D02*
X32117217Y-29876228D01*
X32117217Y-29876228D02*
X32164836Y-29780990D01*
X32164836Y-29780990D02*
X32212455Y-29733371D01*
X32212455Y-29733371D02*
X32307693Y-29685752D01*
X32307693Y-29685752D02*
X32498169Y-29685752D01*
X32498169Y-29685752D02*
X32593407Y-29733371D01*
X33069598Y-30352419D02*
X33069598Y-29352419D01*
X33498169Y-30352419D02*
X33498169Y-29828609D01*
X33498169Y-29828609D02*
X33450550Y-29733371D01*
X33450550Y-29733371D02*
X33355312Y-29685752D01*
X33355312Y-29685752D02*
X33212455Y-29685752D01*
X33212455Y-29685752D02*
X33117217Y-29733371D01*
X33117217Y-29733371D02*
X33069598Y-29780990D01*
X33831503Y-29685752D02*
X34212455Y-29685752D01*
X33974360Y-29352419D02*
X33974360Y-30209561D01*
X33974360Y-30209561D02*
X34021979Y-30304800D01*
X34021979Y-30304800D02*
X34117217Y-30352419D01*
X34117217Y-30352419D02*
X34212455Y-30352419D01*
X34402932Y-29685752D02*
X34783884Y-29685752D01*
X34545789Y-30352419D02*
X34545789Y-29495276D01*
X34545789Y-29495276D02*
X34593408Y-29400038D01*
X34593408Y-29400038D02*
X34688646Y-29352419D01*
X34688646Y-29352419D02*
X34783884Y-29352419D01*
X35260075Y-30352419D02*
X35164837Y-30304800D01*
X35164837Y-30304800D02*
X35117218Y-30257180D01*
X35117218Y-30257180D02*
X35069599Y-30161942D01*
X35069599Y-30161942D02*
X35069599Y-29876228D01*
X35069599Y-29876228D02*
X35117218Y-29780990D01*
X35117218Y-29780990D02*
X35164837Y-29733371D01*
X35164837Y-29733371D02*
X35260075Y-29685752D01*
X35260075Y-29685752D02*
X35402932Y-29685752D01*
X35402932Y-29685752D02*
X35498170Y-29733371D01*
X35498170Y-29733371D02*
X35545789Y-29780990D01*
X35545789Y-29780990D02*
X35593408Y-29876228D01*
X35593408Y-29876228D02*
X35593408Y-30161942D01*
X35593408Y-30161942D02*
X35545789Y-30257180D01*
X35545789Y-30257180D02*
X35498170Y-30304800D01*
X35498170Y-30304800D02*
X35402932Y-30352419D01*
X35402932Y-30352419D02*
X35260075Y-30352419D01*
X35926742Y-30352419D02*
X36450551Y-29685752D01*
X35926742Y-29685752D02*
X36450551Y-30352419D01*
X37260075Y-30352419D02*
X37260075Y-29828609D01*
X37260075Y-29828609D02*
X37212456Y-29733371D01*
X37212456Y-29733371D02*
X37117218Y-29685752D01*
X37117218Y-29685752D02*
X36926742Y-29685752D01*
X36926742Y-29685752D02*
X36831504Y-29733371D01*
X37260075Y-30304800D02*
X37164837Y-30352419D01*
X37164837Y-30352419D02*
X36926742Y-30352419D01*
X36926742Y-30352419D02*
X36831504Y-30304800D01*
X36831504Y-30304800D02*
X36783885Y-30209561D01*
X36783885Y-30209561D02*
X36783885Y-30114323D01*
X36783885Y-30114323D02*
X36831504Y-30019085D01*
X36831504Y-30019085D02*
X36926742Y-29971466D01*
X36926742Y-29971466D02*
X37164837Y-29971466D01*
X37164837Y-29971466D02*
X37260075Y-29923847D01*
X37736266Y-29685752D02*
X37736266Y-30352419D01*
X37736266Y-29780990D02*
X37783885Y-29733371D01*
X37783885Y-29733371D02*
X37879123Y-29685752D01*
X37879123Y-29685752D02*
X38021980Y-29685752D01*
X38021980Y-29685752D02*
X38117218Y-29733371D01*
X38117218Y-29733371D02*
X38164837Y-29828609D01*
X38164837Y-29828609D02*
X38164837Y-30352419D01*
X39069599Y-30352419D02*
X39069599Y-29352419D01*
X39069599Y-30304800D02*
X38974361Y-30352419D01*
X38974361Y-30352419D02*
X38783885Y-30352419D01*
X38783885Y-30352419D02*
X38688647Y-30304800D01*
X38688647Y-30304800D02*
X38641028Y-30257180D01*
X38641028Y-30257180D02*
X38593409Y-30161942D01*
X38593409Y-30161942D02*
X38593409Y-29876228D01*
X38593409Y-29876228D02*
X38641028Y-29780990D01*
X38641028Y-29780990D02*
X38688647Y-29733371D01*
X38688647Y-29733371D02*
X38783885Y-29685752D01*
X38783885Y-29685752D02*
X38974361Y-29685752D01*
X38974361Y-29685752D02*
X39069599Y-29733371D01*
X39974361Y-30304800D02*
X39879123Y-30352419D01*
X39879123Y-30352419D02*
X39688647Y-30352419D01*
X39688647Y-30352419D02*
X39593409Y-30304800D01*
X39593409Y-30304800D02*
X39545790Y-30257180D01*
X39545790Y-30257180D02*
X39498171Y-30161942D01*
X39498171Y-30161942D02*
X39498171Y-29876228D01*
X39498171Y-29876228D02*
X39545790Y-29780990D01*
X39545790Y-29780990D02*
X39593409Y-29733371D01*
X39593409Y-29733371D02*
X39688647Y-29685752D01*
X39688647Y-29685752D02*
X39879123Y-29685752D01*
X39879123Y-29685752D02*
X39974361Y-29733371D01*
X40545790Y-30352419D02*
X40450552Y-30304800D01*
X40450552Y-30304800D02*
X40402933Y-30257180D01*
X40402933Y-30257180D02*
X40355314Y-30161942D01*
X40355314Y-30161942D02*
X40355314Y-29876228D01*
X40355314Y-29876228D02*
X40402933Y-29780990D01*
X40402933Y-29780990D02*
X40450552Y-29733371D01*
X40450552Y-29733371D02*
X40545790Y-29685752D01*
X40545790Y-29685752D02*
X40688647Y-29685752D01*
X40688647Y-29685752D02*
X40783885Y-29733371D01*
X40783885Y-29733371D02*
X40831504Y-29780990D01*
X40831504Y-29780990D02*
X40879123Y-29876228D01*
X40879123Y-29876228D02*
X40879123Y-30161942D01*
X40879123Y-30161942D02*
X40831504Y-30257180D01*
X40831504Y-30257180D02*
X40783885Y-30304800D01*
X40783885Y-30304800D02*
X40688647Y-30352419D01*
X40688647Y-30352419D02*
X40545790Y-30352419D01*
X41307695Y-30257180D02*
X41355314Y-30304800D01*
X41355314Y-30304800D02*
X41307695Y-30352419D01*
X41307695Y-30352419D02*
X41260076Y-30304800D01*
X41260076Y-30304800D02*
X41307695Y-30257180D01*
X41307695Y-30257180D02*
X41307695Y-30352419D01*
X42212456Y-30304800D02*
X42117218Y-30352419D01*
X42117218Y-30352419D02*
X41926742Y-30352419D01*
X41926742Y-30352419D02*
X41831504Y-30304800D01*
X41831504Y-30304800D02*
X41783885Y-30257180D01*
X41783885Y-30257180D02*
X41736266Y-30161942D01*
X41736266Y-30161942D02*
X41736266Y-29876228D01*
X41736266Y-29876228D02*
X41783885Y-29780990D01*
X41783885Y-29780990D02*
X41831504Y-29733371D01*
X41831504Y-29733371D02*
X41926742Y-29685752D01*
X41926742Y-29685752D02*
X42117218Y-29685752D01*
X42117218Y-29685752D02*
X42212456Y-29733371D01*
X42783885Y-30352419D02*
X42688647Y-30304800D01*
X42688647Y-30304800D02*
X42641028Y-30257180D01*
X42641028Y-30257180D02*
X42593409Y-30161942D01*
X42593409Y-30161942D02*
X42593409Y-29876228D01*
X42593409Y-29876228D02*
X42641028Y-29780990D01*
X42641028Y-29780990D02*
X42688647Y-29733371D01*
X42688647Y-29733371D02*
X42783885Y-29685752D01*
X42783885Y-29685752D02*
X42926742Y-29685752D01*
X42926742Y-29685752D02*
X43021980Y-29733371D01*
X43021980Y-29733371D02*
X43069599Y-29780990D01*
X43069599Y-29780990D02*
X43117218Y-29876228D01*
X43117218Y-29876228D02*
X43117218Y-30161942D01*
X43117218Y-30161942D02*
X43069599Y-30257180D01*
X43069599Y-30257180D02*
X43021980Y-30304800D01*
X43021980Y-30304800D02*
X42926742Y-30352419D01*
X42926742Y-30352419D02*
X42783885Y-30352419D01*
X43545790Y-30352419D02*
X43545790Y-29685752D01*
X43545790Y-29780990D02*
X43593409Y-29733371D01*
X43593409Y-29733371D02*
X43688647Y-29685752D01*
X43688647Y-29685752D02*
X43831504Y-29685752D01*
X43831504Y-29685752D02*
X43926742Y-29733371D01*
X43926742Y-29733371D02*
X43974361Y-29828609D01*
X43974361Y-29828609D02*
X43974361Y-30352419D01*
X43974361Y-29828609D02*
X44021980Y-29733371D01*
X44021980Y-29733371D02*
X44117218Y-29685752D01*
X44117218Y-29685752D02*
X44260075Y-29685752D01*
X44260075Y-29685752D02*
X44355314Y-29733371D01*
X44355314Y-29733371D02*
X44402933Y-29828609D01*
X44402933Y-29828609D02*
X44402933Y-30352419D01*
X94236265Y-26812419D02*
X94236265Y-27002895D01*
X94617217Y-26812419D02*
X94617217Y-27002895D01*
X95045789Y-27812419D02*
X95045789Y-26812419D01*
X95521979Y-27145752D02*
X95521979Y-27812419D01*
X95521979Y-27240990D02*
X95569598Y-27193371D01*
X95569598Y-27193371D02*
X95664836Y-27145752D01*
X95664836Y-27145752D02*
X95807693Y-27145752D01*
X95807693Y-27145752D02*
X95902931Y-27193371D01*
X95902931Y-27193371D02*
X95950550Y-27288609D01*
X95950550Y-27288609D02*
X95950550Y-27812419D01*
X96426741Y-27431466D02*
X97188646Y-27431466D01*
X98093407Y-27812419D02*
X98093407Y-27288609D01*
X98093407Y-27288609D02*
X98045788Y-27193371D01*
X98045788Y-27193371D02*
X97950550Y-27145752D01*
X97950550Y-27145752D02*
X97760074Y-27145752D01*
X97760074Y-27145752D02*
X97664836Y-27193371D01*
X98093407Y-27764800D02*
X97998169Y-27812419D01*
X97998169Y-27812419D02*
X97760074Y-27812419D01*
X97760074Y-27812419D02*
X97664836Y-27764800D01*
X97664836Y-27764800D02*
X97617217Y-27669561D01*
X97617217Y-27669561D02*
X97617217Y-27574323D01*
X97617217Y-27574323D02*
X97664836Y-27479085D01*
X97664836Y-27479085D02*
X97760074Y-27431466D01*
X97760074Y-27431466D02*
X97998169Y-27431466D01*
X97998169Y-27431466D02*
X98093407Y-27383847D01*
X98569598Y-27431466D02*
X99331503Y-27431466D01*
X99807693Y-27812419D02*
X99807693Y-26812419D01*
X99807693Y-27193371D02*
X99902931Y-27145752D01*
X99902931Y-27145752D02*
X100093407Y-27145752D01*
X100093407Y-27145752D02*
X100188645Y-27193371D01*
X100188645Y-27193371D02*
X100236264Y-27240990D01*
X100236264Y-27240990D02*
X100283883Y-27336228D01*
X100283883Y-27336228D02*
X100283883Y-27621942D01*
X100283883Y-27621942D02*
X100236264Y-27717180D01*
X100236264Y-27717180D02*
X100188645Y-27764800D01*
X100188645Y-27764800D02*
X100093407Y-27812419D01*
X100093407Y-27812419D02*
X99902931Y-27812419D01*
X99902931Y-27812419D02*
X99807693Y-27764800D01*
X100855312Y-27812419D02*
X100760074Y-27764800D01*
X100760074Y-27764800D02*
X100712455Y-27717180D01*
X100712455Y-27717180D02*
X100664836Y-27621942D01*
X100664836Y-27621942D02*
X100664836Y-27336228D01*
X100664836Y-27336228D02*
X100712455Y-27240990D01*
X100712455Y-27240990D02*
X100760074Y-27193371D01*
X100760074Y-27193371D02*
X100855312Y-27145752D01*
X100855312Y-27145752D02*
X100998169Y-27145752D01*
X100998169Y-27145752D02*
X101093407Y-27193371D01*
X101093407Y-27193371D02*
X101141026Y-27240990D01*
X101141026Y-27240990D02*
X101188645Y-27336228D01*
X101188645Y-27336228D02*
X101188645Y-27621942D01*
X101188645Y-27621942D02*
X101141026Y-27717180D01*
X101141026Y-27717180D02*
X101093407Y-27764800D01*
X101093407Y-27764800D02*
X100998169Y-27812419D01*
X100998169Y-27812419D02*
X100855312Y-27812419D01*
X101521979Y-27812419D02*
X102045788Y-27145752D01*
X101521979Y-27145752D02*
X102045788Y-27812419D01*
X102379122Y-26812419D02*
X102379122Y-27002895D01*
X102760074Y-26812419D02*
X102760074Y-27002895D01*
D11*
X110156666Y-35014819D02*
X110156666Y-35729104D01*
X110156666Y-35729104D02*
X110109047Y-35871961D01*
X110109047Y-35871961D02*
X110013809Y-35967200D01*
X110013809Y-35967200D02*
X109870952Y-36014819D01*
X109870952Y-36014819D02*
X109775714Y-36014819D01*
X110537619Y-35014819D02*
X111156666Y-35014819D01*
X111156666Y-35014819D02*
X110823333Y-35395771D01*
X110823333Y-35395771D02*
X110966190Y-35395771D01*
X110966190Y-35395771D02*
X111061428Y-35443390D01*
X111061428Y-35443390D02*
X111109047Y-35491009D01*
X111109047Y-35491009D02*
X111156666Y-35586247D01*
X111156666Y-35586247D02*
X111156666Y-35824342D01*
X111156666Y-35824342D02*
X111109047Y-35919580D01*
X111109047Y-35919580D02*
X111061428Y-35967200D01*
X111061428Y-35967200D02*
X110966190Y-36014819D01*
X110966190Y-36014819D02*
X110680476Y-36014819D01*
X110680476Y-36014819D02*
X110585238Y-35967200D01*
X110585238Y-35967200D02*
X110537619Y-35919580D01*
X37554819Y-82883333D02*
X38269104Y-82883333D01*
X38269104Y-82883333D02*
X38411961Y-82930952D01*
X38411961Y-82930952D02*
X38507200Y-83026190D01*
X38507200Y-83026190D02*
X38554819Y-83169047D01*
X38554819Y-83169047D02*
X38554819Y-83264285D01*
X38554819Y-81883333D02*
X38554819Y-82454761D01*
X38554819Y-82169047D02*
X37554819Y-82169047D01*
X37554819Y-82169047D02*
X37697676Y-82264285D01*
X37697676Y-82264285D02*
X37792914Y-82359523D01*
X37792914Y-82359523D02*
X37840533Y-82454761D01*
X37554819Y-43513333D02*
X38269104Y-43513333D01*
X38269104Y-43513333D02*
X38411961Y-43560952D01*
X38411961Y-43560952D02*
X38507200Y-43656190D01*
X38507200Y-43656190D02*
X38554819Y-43799047D01*
X38554819Y-43799047D02*
X38554819Y-43894285D01*
X37650057Y-43084761D02*
X37602438Y-43037142D01*
X37602438Y-43037142D02*
X37554819Y-42941904D01*
X37554819Y-42941904D02*
X37554819Y-42703809D01*
X37554819Y-42703809D02*
X37602438Y-42608571D01*
X37602438Y-42608571D02*
X37650057Y-42560952D01*
X37650057Y-42560952D02*
X37745295Y-42513333D01*
X37745295Y-42513333D02*
X37840533Y-42513333D01*
X37840533Y-42513333D02*
X37983390Y-42560952D01*
X37983390Y-42560952D02*
X38554819Y-43132380D01*
X38554819Y-43132380D02*
X38554819Y-42513333D01*
X94509580Y-89706666D02*
X94557200Y-89754285D01*
X94557200Y-89754285D02*
X94604819Y-89897142D01*
X94604819Y-89897142D02*
X94604819Y-89992380D01*
X94604819Y-89992380D02*
X94557200Y-90135237D01*
X94557200Y-90135237D02*
X94461961Y-90230475D01*
X94461961Y-90230475D02*
X94366723Y-90278094D01*
X94366723Y-90278094D02*
X94176247Y-90325713D01*
X94176247Y-90325713D02*
X94033390Y-90325713D01*
X94033390Y-90325713D02*
X93842914Y-90278094D01*
X93842914Y-90278094D02*
X93747676Y-90230475D01*
X93747676Y-90230475D02*
X93652438Y-90135237D01*
X93652438Y-90135237D02*
X93604819Y-89992380D01*
X93604819Y-89992380D02*
X93604819Y-89897142D01*
X93604819Y-89897142D02*
X93652438Y-89754285D01*
X93652438Y-89754285D02*
X93700057Y-89706666D01*
X93938152Y-88849523D02*
X94604819Y-88849523D01*
X93557200Y-89087618D02*
X94271485Y-89325713D01*
X94271485Y-89325713D02*
X94271485Y-88706666D01*
X41094819Y-74398094D02*
X40094819Y-74398094D01*
X40094819Y-74398094D02*
X40094819Y-74159999D01*
X40094819Y-74159999D02*
X40142438Y-74017142D01*
X40142438Y-74017142D02*
X40237676Y-73921904D01*
X40237676Y-73921904D02*
X40332914Y-73874285D01*
X40332914Y-73874285D02*
X40523390Y-73826666D01*
X40523390Y-73826666D02*
X40666247Y-73826666D01*
X40666247Y-73826666D02*
X40856723Y-73874285D01*
X40856723Y-73874285D02*
X40951961Y-73921904D01*
X40951961Y-73921904D02*
X41047200Y-74017142D01*
X41047200Y-74017142D02*
X41094819Y-74159999D01*
X41094819Y-74159999D02*
X41094819Y-74398094D01*
X41094819Y-72874285D02*
X41094819Y-73445713D01*
X41094819Y-73159999D02*
X40094819Y-73159999D01*
X40094819Y-73159999D02*
X40237676Y-73255237D01*
X40237676Y-73255237D02*
X40332914Y-73350475D01*
X40332914Y-73350475D02*
X40380533Y-73445713D01*
X41534819Y-79001904D02*
X40534819Y-79001904D01*
X41534819Y-78430476D02*
X40963390Y-78859047D01*
X40534819Y-78430476D02*
X41106247Y-79001904D01*
X109751905Y-87234819D02*
X109751905Y-86234819D01*
X109751905Y-86234819D02*
X109990000Y-86234819D01*
X109990000Y-86234819D02*
X110132857Y-86282438D01*
X110132857Y-86282438D02*
X110228095Y-86377676D01*
X110228095Y-86377676D02*
X110275714Y-86472914D01*
X110275714Y-86472914D02*
X110323333Y-86663390D01*
X110323333Y-86663390D02*
X110323333Y-86806247D01*
X110323333Y-86806247D02*
X110275714Y-86996723D01*
X110275714Y-86996723D02*
X110228095Y-87091961D01*
X110228095Y-87091961D02*
X110132857Y-87187200D01*
X110132857Y-87187200D02*
X109990000Y-87234819D01*
X109990000Y-87234819D02*
X109751905Y-87234819D01*
X110704286Y-86330057D02*
X110751905Y-86282438D01*
X110751905Y-86282438D02*
X110847143Y-86234819D01*
X110847143Y-86234819D02*
X111085238Y-86234819D01*
X111085238Y-86234819D02*
X111180476Y-86282438D01*
X111180476Y-86282438D02*
X111228095Y-86330057D01*
X111228095Y-86330057D02*
X111275714Y-86425295D01*
X111275714Y-86425295D02*
X111275714Y-86520533D01*
X111275714Y-86520533D02*
X111228095Y-86663390D01*
X111228095Y-86663390D02*
X110656667Y-87234819D01*
X110656667Y-87234819D02*
X111275714Y-87234819D01*
X56388095Y-60624819D02*
X56388095Y-61434342D01*
X56388095Y-61434342D02*
X56435714Y-61529580D01*
X56435714Y-61529580D02*
X56483333Y-61577200D01*
X56483333Y-61577200D02*
X56578571Y-61624819D01*
X56578571Y-61624819D02*
X56769047Y-61624819D01*
X56769047Y-61624819D02*
X56864285Y-61577200D01*
X56864285Y-61577200D02*
X56911904Y-61529580D01*
X56911904Y-61529580D02*
X56959523Y-61434342D01*
X56959523Y-61434342D02*
X56959523Y-60624819D01*
X57959523Y-61624819D02*
X57388095Y-61624819D01*
X57673809Y-61624819D02*
X57673809Y-60624819D01*
X57673809Y-60624819D02*
X57578571Y-60767676D01*
X57578571Y-60767676D02*
X57483333Y-60862914D01*
X57483333Y-60862914D02*
X57388095Y-60910533D01*
X41094819Y-38838094D02*
X40094819Y-38838094D01*
X40094819Y-38838094D02*
X40094819Y-38599999D01*
X40094819Y-38599999D02*
X40142438Y-38457142D01*
X40142438Y-38457142D02*
X40237676Y-38361904D01*
X40237676Y-38361904D02*
X40332914Y-38314285D01*
X40332914Y-38314285D02*
X40523390Y-38266666D01*
X40523390Y-38266666D02*
X40666247Y-38266666D01*
X40666247Y-38266666D02*
X40856723Y-38314285D01*
X40856723Y-38314285D02*
X40951961Y-38361904D01*
X40951961Y-38361904D02*
X41047200Y-38457142D01*
X41047200Y-38457142D02*
X41094819Y-38599999D01*
X41094819Y-38599999D02*
X41094819Y-38838094D01*
X40094819Y-37933332D02*
X40094819Y-37314285D01*
X40094819Y-37314285D02*
X40475771Y-37647618D01*
X40475771Y-37647618D02*
X40475771Y-37504761D01*
X40475771Y-37504761D02*
X40523390Y-37409523D01*
X40523390Y-37409523D02*
X40571009Y-37361904D01*
X40571009Y-37361904D02*
X40666247Y-37314285D01*
X40666247Y-37314285D02*
X40904342Y-37314285D01*
X40904342Y-37314285D02*
X40999580Y-37361904D01*
X40999580Y-37361904D02*
X41047200Y-37409523D01*
X41047200Y-37409523D02*
X41094819Y-37504761D01*
X41094819Y-37504761D02*
X41094819Y-37790475D01*
X41094819Y-37790475D02*
X41047200Y-37885713D01*
X41047200Y-37885713D02*
X40999580Y-37933332D01*
X41094819Y-33281904D02*
X40094819Y-33281904D01*
X41094819Y-32710476D02*
X40523390Y-33139047D01*
X40094819Y-32710476D02*
X40666247Y-33281904D01*
X61414819Y-43346666D02*
X60938628Y-43679999D01*
X61414819Y-43918094D02*
X60414819Y-43918094D01*
X60414819Y-43918094D02*
X60414819Y-43537142D01*
X60414819Y-43537142D02*
X60462438Y-43441904D01*
X60462438Y-43441904D02*
X60510057Y-43394285D01*
X60510057Y-43394285D02*
X60605295Y-43346666D01*
X60605295Y-43346666D02*
X60748152Y-43346666D01*
X60748152Y-43346666D02*
X60843390Y-43394285D01*
X60843390Y-43394285D02*
X60891009Y-43441904D01*
X60891009Y-43441904D02*
X60938628Y-43537142D01*
X60938628Y-43537142D02*
X60938628Y-43918094D01*
X60748152Y-42489523D02*
X61414819Y-42489523D01*
X60367200Y-42727618D02*
X61081485Y-42965713D01*
X61081485Y-42965713D02*
X61081485Y-42346666D01*
X56199580Y-89026666D02*
X56247200Y-89074285D01*
X56247200Y-89074285D02*
X56294819Y-89217142D01*
X56294819Y-89217142D02*
X56294819Y-89312380D01*
X56294819Y-89312380D02*
X56247200Y-89455237D01*
X56247200Y-89455237D02*
X56151961Y-89550475D01*
X56151961Y-89550475D02*
X56056723Y-89598094D01*
X56056723Y-89598094D02*
X55866247Y-89645713D01*
X55866247Y-89645713D02*
X55723390Y-89645713D01*
X55723390Y-89645713D02*
X55532914Y-89598094D01*
X55532914Y-89598094D02*
X55437676Y-89550475D01*
X55437676Y-89550475D02*
X55342438Y-89455237D01*
X55342438Y-89455237D02*
X55294819Y-89312380D01*
X55294819Y-89312380D02*
X55294819Y-89217142D01*
X55294819Y-89217142D02*
X55342438Y-89074285D01*
X55342438Y-89074285D02*
X55390057Y-89026666D01*
X55390057Y-88645713D02*
X55342438Y-88598094D01*
X55342438Y-88598094D02*
X55294819Y-88502856D01*
X55294819Y-88502856D02*
X55294819Y-88264761D01*
X55294819Y-88264761D02*
X55342438Y-88169523D01*
X55342438Y-88169523D02*
X55390057Y-88121904D01*
X55390057Y-88121904D02*
X55485295Y-88074285D01*
X55485295Y-88074285D02*
X55580533Y-88074285D01*
X55580533Y-88074285D02*
X55723390Y-88121904D01*
X55723390Y-88121904D02*
X56294819Y-88693332D01*
X56294819Y-88693332D02*
X56294819Y-88074285D01*
X53794819Y-43346666D02*
X53318628Y-43679999D01*
X53794819Y-43918094D02*
X52794819Y-43918094D01*
X52794819Y-43918094D02*
X52794819Y-43537142D01*
X52794819Y-43537142D02*
X52842438Y-43441904D01*
X52842438Y-43441904D02*
X52890057Y-43394285D01*
X52890057Y-43394285D02*
X52985295Y-43346666D01*
X52985295Y-43346666D02*
X53128152Y-43346666D01*
X53128152Y-43346666D02*
X53223390Y-43394285D01*
X53223390Y-43394285D02*
X53271009Y-43441904D01*
X53271009Y-43441904D02*
X53318628Y-43537142D01*
X53318628Y-43537142D02*
X53318628Y-43918094D01*
X52794819Y-43013332D02*
X52794819Y-42394285D01*
X52794819Y-42394285D02*
X53175771Y-42727618D01*
X53175771Y-42727618D02*
X53175771Y-42584761D01*
X53175771Y-42584761D02*
X53223390Y-42489523D01*
X53223390Y-42489523D02*
X53271009Y-42441904D01*
X53271009Y-42441904D02*
X53366247Y-42394285D01*
X53366247Y-42394285D02*
X53604342Y-42394285D01*
X53604342Y-42394285D02*
X53699580Y-42441904D01*
X53699580Y-42441904D02*
X53747200Y-42489523D01*
X53747200Y-42489523D02*
X53794819Y-42584761D01*
X53794819Y-42584761D02*
X53794819Y-42870475D01*
X53794819Y-42870475D02*
X53747200Y-42965713D01*
X53747200Y-42965713D02*
X53699580Y-43013332D01*
X109751905Y-79614819D02*
X109751905Y-78614819D01*
X109751905Y-78614819D02*
X109990000Y-78614819D01*
X109990000Y-78614819D02*
X110132857Y-78662438D01*
X110132857Y-78662438D02*
X110228095Y-78757676D01*
X110228095Y-78757676D02*
X110275714Y-78852914D01*
X110275714Y-78852914D02*
X110323333Y-79043390D01*
X110323333Y-79043390D02*
X110323333Y-79186247D01*
X110323333Y-79186247D02*
X110275714Y-79376723D01*
X110275714Y-79376723D02*
X110228095Y-79471961D01*
X110228095Y-79471961D02*
X110132857Y-79567200D01*
X110132857Y-79567200D02*
X109990000Y-79614819D01*
X109990000Y-79614819D02*
X109751905Y-79614819D01*
X111180476Y-78948152D02*
X111180476Y-79614819D01*
X110942381Y-78567200D02*
X110704286Y-79281485D01*
X110704286Y-79281485D02*
X111323333Y-79281485D01*
X47498095Y-29934819D02*
X47498095Y-30744342D01*
X47498095Y-30744342D02*
X47545714Y-30839580D01*
X47545714Y-30839580D02*
X47593333Y-30887200D01*
X47593333Y-30887200D02*
X47688571Y-30934819D01*
X47688571Y-30934819D02*
X47879047Y-30934819D01*
X47879047Y-30934819D02*
X47974285Y-30887200D01*
X47974285Y-30887200D02*
X48021904Y-30839580D01*
X48021904Y-30839580D02*
X48069523Y-30744342D01*
X48069523Y-30744342D02*
X48069523Y-29934819D01*
X48450476Y-29934819D02*
X49069523Y-29934819D01*
X49069523Y-29934819D02*
X48736190Y-30315771D01*
X48736190Y-30315771D02*
X48879047Y-30315771D01*
X48879047Y-30315771D02*
X48974285Y-30363390D01*
X48974285Y-30363390D02*
X49021904Y-30411009D01*
X49021904Y-30411009D02*
X49069523Y-30506247D01*
X49069523Y-30506247D02*
X49069523Y-30744342D01*
X49069523Y-30744342D02*
X49021904Y-30839580D01*
X49021904Y-30839580D02*
X48974285Y-30887200D01*
X48974285Y-30887200D02*
X48879047Y-30934819D01*
X48879047Y-30934819D02*
X48593333Y-30934819D01*
X48593333Y-30934819D02*
X48498095Y-30887200D01*
X48498095Y-30887200D02*
X48450476Y-30839580D01*
X63333333Y-48714819D02*
X63000000Y-48238628D01*
X62761905Y-48714819D02*
X62761905Y-47714819D01*
X62761905Y-47714819D02*
X63142857Y-47714819D01*
X63142857Y-47714819D02*
X63238095Y-47762438D01*
X63238095Y-47762438D02*
X63285714Y-47810057D01*
X63285714Y-47810057D02*
X63333333Y-47905295D01*
X63333333Y-47905295D02*
X63333333Y-48048152D01*
X63333333Y-48048152D02*
X63285714Y-48143390D01*
X63285714Y-48143390D02*
X63238095Y-48191009D01*
X63238095Y-48191009D02*
X63142857Y-48238628D01*
X63142857Y-48238628D02*
X62761905Y-48238628D01*
X63714286Y-47810057D02*
X63761905Y-47762438D01*
X63761905Y-47762438D02*
X63857143Y-47714819D01*
X63857143Y-47714819D02*
X64095238Y-47714819D01*
X64095238Y-47714819D02*
X64190476Y-47762438D01*
X64190476Y-47762438D02*
X64238095Y-47810057D01*
X64238095Y-47810057D02*
X64285714Y-47905295D01*
X64285714Y-47905295D02*
X64285714Y-48000533D01*
X64285714Y-48000533D02*
X64238095Y-48143390D01*
X64238095Y-48143390D02*
X63666667Y-48714819D01*
X63666667Y-48714819D02*
X64285714Y-48714819D01*
X93813333Y-74284819D02*
X93480000Y-73808628D01*
X93241905Y-74284819D02*
X93241905Y-73284819D01*
X93241905Y-73284819D02*
X93622857Y-73284819D01*
X93622857Y-73284819D02*
X93718095Y-73332438D01*
X93718095Y-73332438D02*
X93765714Y-73380057D01*
X93765714Y-73380057D02*
X93813333Y-73475295D01*
X93813333Y-73475295D02*
X93813333Y-73618152D01*
X93813333Y-73618152D02*
X93765714Y-73713390D01*
X93765714Y-73713390D02*
X93718095Y-73761009D01*
X93718095Y-73761009D02*
X93622857Y-73808628D01*
X93622857Y-73808628D02*
X93241905Y-73808628D01*
X94718095Y-73284819D02*
X94241905Y-73284819D01*
X94241905Y-73284819D02*
X94194286Y-73761009D01*
X94194286Y-73761009D02*
X94241905Y-73713390D01*
X94241905Y-73713390D02*
X94337143Y-73665771D01*
X94337143Y-73665771D02*
X94575238Y-73665771D01*
X94575238Y-73665771D02*
X94670476Y-73713390D01*
X94670476Y-73713390D02*
X94718095Y-73761009D01*
X94718095Y-73761009D02*
X94765714Y-73856247D01*
X94765714Y-73856247D02*
X94765714Y-74094342D01*
X94765714Y-74094342D02*
X94718095Y-74189580D01*
X94718095Y-74189580D02*
X94670476Y-74237200D01*
X94670476Y-74237200D02*
X94575238Y-74284819D01*
X94575238Y-74284819D02*
X94337143Y-74284819D01*
X94337143Y-74284819D02*
X94241905Y-74237200D01*
X94241905Y-74237200D02*
X94194286Y-74189580D01*
X81599580Y-89026666D02*
X81647200Y-89074285D01*
X81647200Y-89074285D02*
X81694819Y-89217142D01*
X81694819Y-89217142D02*
X81694819Y-89312380D01*
X81694819Y-89312380D02*
X81647200Y-89455237D01*
X81647200Y-89455237D02*
X81551961Y-89550475D01*
X81551961Y-89550475D02*
X81456723Y-89598094D01*
X81456723Y-89598094D02*
X81266247Y-89645713D01*
X81266247Y-89645713D02*
X81123390Y-89645713D01*
X81123390Y-89645713D02*
X80932914Y-89598094D01*
X80932914Y-89598094D02*
X80837676Y-89550475D01*
X80837676Y-89550475D02*
X80742438Y-89455237D01*
X80742438Y-89455237D02*
X80694819Y-89312380D01*
X80694819Y-89312380D02*
X80694819Y-89217142D01*
X80694819Y-89217142D02*
X80742438Y-89074285D01*
X80742438Y-89074285D02*
X80790057Y-89026666D01*
X80694819Y-88693332D02*
X80694819Y-88074285D01*
X80694819Y-88074285D02*
X81075771Y-88407618D01*
X81075771Y-88407618D02*
X81075771Y-88264761D01*
X81075771Y-88264761D02*
X81123390Y-88169523D01*
X81123390Y-88169523D02*
X81171009Y-88121904D01*
X81171009Y-88121904D02*
X81266247Y-88074285D01*
X81266247Y-88074285D02*
X81504342Y-88074285D01*
X81504342Y-88074285D02*
X81599580Y-88121904D01*
X81599580Y-88121904D02*
X81647200Y-88169523D01*
X81647200Y-88169523D02*
X81694819Y-88264761D01*
X81694819Y-88264761D02*
X81694819Y-88550475D01*
X81694819Y-88550475D02*
X81647200Y-88645713D01*
X81647200Y-88645713D02*
X81599580Y-88693332D01*
X43084761Y-48810057D02*
X42989523Y-48762438D01*
X42989523Y-48762438D02*
X42894285Y-48667200D01*
X42894285Y-48667200D02*
X42751428Y-48524342D01*
X42751428Y-48524342D02*
X42656190Y-48476723D01*
X42656190Y-48476723D02*
X42560952Y-48476723D01*
X42608571Y-48714819D02*
X42513333Y-48667200D01*
X42513333Y-48667200D02*
X42418095Y-48571961D01*
X42418095Y-48571961D02*
X42370476Y-48381485D01*
X42370476Y-48381485D02*
X42370476Y-48048152D01*
X42370476Y-48048152D02*
X42418095Y-47857676D01*
X42418095Y-47857676D02*
X42513333Y-47762438D01*
X42513333Y-47762438D02*
X42608571Y-47714819D01*
X42608571Y-47714819D02*
X42799047Y-47714819D01*
X42799047Y-47714819D02*
X42894285Y-47762438D01*
X42894285Y-47762438D02*
X42989523Y-47857676D01*
X42989523Y-47857676D02*
X43037142Y-48048152D01*
X43037142Y-48048152D02*
X43037142Y-48381485D01*
X43037142Y-48381485D02*
X42989523Y-48571961D01*
X42989523Y-48571961D02*
X42894285Y-48667200D01*
X42894285Y-48667200D02*
X42799047Y-48714819D01*
X42799047Y-48714819D02*
X42608571Y-48714819D01*
X43989523Y-48714819D02*
X43418095Y-48714819D01*
X43703809Y-48714819D02*
X43703809Y-47714819D01*
X43703809Y-47714819D02*
X43608571Y-47857676D01*
X43608571Y-47857676D02*
X43513333Y-47952914D01*
X43513333Y-47952914D02*
X43418095Y-48000533D01*
X80565714Y-73829104D02*
X81041904Y-73829104D01*
X80470476Y-74114819D02*
X80803809Y-73114819D01*
X80803809Y-73114819D02*
X81137142Y-74114819D01*
X81994285Y-74114819D02*
X81422857Y-74114819D01*
X81708571Y-74114819D02*
X81708571Y-73114819D01*
X81708571Y-73114819D02*
X81613333Y-73257676D01*
X81613333Y-73257676D02*
X81518095Y-73352914D01*
X81518095Y-73352914D02*
X81422857Y-73400533D01*
X82541904Y-33565180D02*
X82541904Y-32755657D01*
X82541904Y-32755657D02*
X82494285Y-32660419D01*
X82494285Y-32660419D02*
X82446666Y-32612800D01*
X82446666Y-32612800D02*
X82351428Y-32565180D01*
X82351428Y-32565180D02*
X82160952Y-32565180D01*
X82160952Y-32565180D02*
X82065714Y-32612800D01*
X82065714Y-32612800D02*
X82018095Y-32660419D01*
X82018095Y-32660419D02*
X81970476Y-32755657D01*
X81970476Y-32755657D02*
X81970476Y-33565180D01*
X81541904Y-32612800D02*
X81399047Y-32565180D01*
X81399047Y-32565180D02*
X81160952Y-32565180D01*
X81160952Y-32565180D02*
X81065714Y-32612800D01*
X81065714Y-32612800D02*
X81018095Y-32660419D01*
X81018095Y-32660419D02*
X80970476Y-32755657D01*
X80970476Y-32755657D02*
X80970476Y-32850895D01*
X80970476Y-32850895D02*
X81018095Y-32946133D01*
X81018095Y-32946133D02*
X81065714Y-32993752D01*
X81065714Y-32993752D02*
X81160952Y-33041371D01*
X81160952Y-33041371D02*
X81351428Y-33088990D01*
X81351428Y-33088990D02*
X81446666Y-33136609D01*
X81446666Y-33136609D02*
X81494285Y-33184228D01*
X81494285Y-33184228D02*
X81541904Y-33279466D01*
X81541904Y-33279466D02*
X81541904Y-33374704D01*
X81541904Y-33374704D02*
X81494285Y-33469942D01*
X81494285Y-33469942D02*
X81446666Y-33517561D01*
X81446666Y-33517561D02*
X81351428Y-33565180D01*
X81351428Y-33565180D02*
X81113333Y-33565180D01*
X81113333Y-33565180D02*
X80970476Y-33517561D01*
X80208571Y-33088990D02*
X80065714Y-33041371D01*
X80065714Y-33041371D02*
X80018095Y-32993752D01*
X80018095Y-32993752D02*
X79970476Y-32898514D01*
X79970476Y-32898514D02*
X79970476Y-32755657D01*
X79970476Y-32755657D02*
X80018095Y-32660419D01*
X80018095Y-32660419D02*
X80065714Y-32612800D01*
X80065714Y-32612800D02*
X80160952Y-32565180D01*
X80160952Y-32565180D02*
X80541904Y-32565180D01*
X80541904Y-32565180D02*
X80541904Y-33565180D01*
X80541904Y-33565180D02*
X80208571Y-33565180D01*
X80208571Y-33565180D02*
X80113333Y-33517561D01*
X80113333Y-33517561D02*
X80065714Y-33469942D01*
X80065714Y-33469942D02*
X80018095Y-33374704D01*
X80018095Y-33374704D02*
X80018095Y-33279466D01*
X80018095Y-33279466D02*
X80065714Y-33184228D01*
X80065714Y-33184228D02*
X80113333Y-33136609D01*
X80113333Y-33136609D02*
X80208571Y-33088990D01*
X80208571Y-33088990D02*
X80541904Y-33088990D01*
X93813333Y-81734819D02*
X93480000Y-81258628D01*
X93241905Y-81734819D02*
X93241905Y-80734819D01*
X93241905Y-80734819D02*
X93622857Y-80734819D01*
X93622857Y-80734819D02*
X93718095Y-80782438D01*
X93718095Y-80782438D02*
X93765714Y-80830057D01*
X93765714Y-80830057D02*
X93813333Y-80925295D01*
X93813333Y-80925295D02*
X93813333Y-81068152D01*
X93813333Y-81068152D02*
X93765714Y-81163390D01*
X93765714Y-81163390D02*
X93718095Y-81211009D01*
X93718095Y-81211009D02*
X93622857Y-81258628D01*
X93622857Y-81258628D02*
X93241905Y-81258628D01*
X94765714Y-81734819D02*
X94194286Y-81734819D01*
X94480000Y-81734819D02*
X94480000Y-80734819D01*
X94480000Y-80734819D02*
X94384762Y-80877676D01*
X94384762Y-80877676D02*
X94289524Y-80972914D01*
X94289524Y-80972914D02*
X94194286Y-81020533D01*
X65278095Y-86624819D02*
X65278095Y-87434342D01*
X65278095Y-87434342D02*
X65325714Y-87529580D01*
X65325714Y-87529580D02*
X65373333Y-87577200D01*
X65373333Y-87577200D02*
X65468571Y-87624819D01*
X65468571Y-87624819D02*
X65659047Y-87624819D01*
X65659047Y-87624819D02*
X65754285Y-87577200D01*
X65754285Y-87577200D02*
X65801904Y-87529580D01*
X65801904Y-87529580D02*
X65849523Y-87434342D01*
X65849523Y-87434342D02*
X65849523Y-86624819D01*
X66278095Y-86720057D02*
X66325714Y-86672438D01*
X66325714Y-86672438D02*
X66420952Y-86624819D01*
X66420952Y-86624819D02*
X66659047Y-86624819D01*
X66659047Y-86624819D02*
X66754285Y-86672438D01*
X66754285Y-86672438D02*
X66801904Y-86720057D01*
X66801904Y-86720057D02*
X66849523Y-86815295D01*
X66849523Y-86815295D02*
X66849523Y-86910533D01*
X66849523Y-86910533D02*
X66801904Y-87053390D01*
X66801904Y-87053390D02*
X66230476Y-87624819D01*
X66230476Y-87624819D02*
X66849523Y-87624819D01*
X48789580Y-89706666D02*
X48837200Y-89754285D01*
X48837200Y-89754285D02*
X48884819Y-89897142D01*
X48884819Y-89897142D02*
X48884819Y-89992380D01*
X48884819Y-89992380D02*
X48837200Y-90135237D01*
X48837200Y-90135237D02*
X48741961Y-90230475D01*
X48741961Y-90230475D02*
X48646723Y-90278094D01*
X48646723Y-90278094D02*
X48456247Y-90325713D01*
X48456247Y-90325713D02*
X48313390Y-90325713D01*
X48313390Y-90325713D02*
X48122914Y-90278094D01*
X48122914Y-90278094D02*
X48027676Y-90230475D01*
X48027676Y-90230475D02*
X47932438Y-90135237D01*
X47932438Y-90135237D02*
X47884819Y-89992380D01*
X47884819Y-89992380D02*
X47884819Y-89897142D01*
X47884819Y-89897142D02*
X47932438Y-89754285D01*
X47932438Y-89754285D02*
X47980057Y-89706666D01*
X48884819Y-88754285D02*
X48884819Y-89325713D01*
X48884819Y-89039999D02*
X47884819Y-89039999D01*
X47884819Y-89039999D02*
X48027676Y-89135237D01*
X48027676Y-89135237D02*
X48122914Y-89230475D01*
X48122914Y-89230475D02*
X48170533Y-89325713D01*
X104613333Y-56069580D02*
X104565714Y-56117200D01*
X104565714Y-56117200D02*
X104422857Y-56164819D01*
X104422857Y-56164819D02*
X104327619Y-56164819D01*
X104327619Y-56164819D02*
X104184762Y-56117200D01*
X104184762Y-56117200D02*
X104089524Y-56021961D01*
X104089524Y-56021961D02*
X104041905Y-55926723D01*
X104041905Y-55926723D02*
X103994286Y-55736247D01*
X103994286Y-55736247D02*
X103994286Y-55593390D01*
X103994286Y-55593390D02*
X104041905Y-55402914D01*
X104041905Y-55402914D02*
X104089524Y-55307676D01*
X104089524Y-55307676D02*
X104184762Y-55212438D01*
X104184762Y-55212438D02*
X104327619Y-55164819D01*
X104327619Y-55164819D02*
X104422857Y-55164819D01*
X104422857Y-55164819D02*
X104565714Y-55212438D01*
X104565714Y-55212438D02*
X104613333Y-55260057D01*
X105470476Y-55164819D02*
X105280000Y-55164819D01*
X105280000Y-55164819D02*
X105184762Y-55212438D01*
X105184762Y-55212438D02*
X105137143Y-55260057D01*
X105137143Y-55260057D02*
X105041905Y-55402914D01*
X105041905Y-55402914D02*
X104994286Y-55593390D01*
X104994286Y-55593390D02*
X104994286Y-55974342D01*
X104994286Y-55974342D02*
X105041905Y-56069580D01*
X105041905Y-56069580D02*
X105089524Y-56117200D01*
X105089524Y-56117200D02*
X105184762Y-56164819D01*
X105184762Y-56164819D02*
X105375238Y-56164819D01*
X105375238Y-56164819D02*
X105470476Y-56117200D01*
X105470476Y-56117200D02*
X105518095Y-56069580D01*
X105518095Y-56069580D02*
X105565714Y-55974342D01*
X105565714Y-55974342D02*
X105565714Y-55736247D01*
X105565714Y-55736247D02*
X105518095Y-55641009D01*
X105518095Y-55641009D02*
X105470476Y-55593390D01*
X105470476Y-55593390D02*
X105375238Y-55545771D01*
X105375238Y-55545771D02*
X105184762Y-55545771D01*
X105184762Y-55545771D02*
X105089524Y-55593390D01*
X105089524Y-55593390D02*
X105041905Y-55641009D01*
X105041905Y-55641009D02*
X104994286Y-55736247D01*
X38507200Y-72453332D02*
X38554819Y-72310475D01*
X38554819Y-72310475D02*
X38554819Y-72072380D01*
X38554819Y-72072380D02*
X38507200Y-71977142D01*
X38507200Y-71977142D02*
X38459580Y-71929523D01*
X38459580Y-71929523D02*
X38364342Y-71881904D01*
X38364342Y-71881904D02*
X38269104Y-71881904D01*
X38269104Y-71881904D02*
X38173866Y-71929523D01*
X38173866Y-71929523D02*
X38126247Y-71977142D01*
X38126247Y-71977142D02*
X38078628Y-72072380D01*
X38078628Y-72072380D02*
X38031009Y-72262856D01*
X38031009Y-72262856D02*
X37983390Y-72358094D01*
X37983390Y-72358094D02*
X37935771Y-72405713D01*
X37935771Y-72405713D02*
X37840533Y-72453332D01*
X37840533Y-72453332D02*
X37745295Y-72453332D01*
X37745295Y-72453332D02*
X37650057Y-72405713D01*
X37650057Y-72405713D02*
X37602438Y-72358094D01*
X37602438Y-72358094D02*
X37554819Y-72262856D01*
X37554819Y-72262856D02*
X37554819Y-72024761D01*
X37554819Y-72024761D02*
X37602438Y-71881904D01*
X37554819Y-71548570D02*
X38554819Y-71310475D01*
X38554819Y-71310475D02*
X37840533Y-71119999D01*
X37840533Y-71119999D02*
X38554819Y-70929523D01*
X38554819Y-70929523D02*
X37554819Y-70691428D01*
X38554819Y-69786666D02*
X38554819Y-70358094D01*
X38554819Y-70072380D02*
X37554819Y-70072380D01*
X37554819Y-70072380D02*
X37697676Y-70167618D01*
X37697676Y-70167618D02*
X37792914Y-70262856D01*
X37792914Y-70262856D02*
X37840533Y-70358094D01*
X51159580Y-58586666D02*
X51207200Y-58634285D01*
X51207200Y-58634285D02*
X51254819Y-58777142D01*
X51254819Y-58777142D02*
X51254819Y-58872380D01*
X51254819Y-58872380D02*
X51207200Y-59015237D01*
X51207200Y-59015237D02*
X51111961Y-59110475D01*
X51111961Y-59110475D02*
X51016723Y-59158094D01*
X51016723Y-59158094D02*
X50826247Y-59205713D01*
X50826247Y-59205713D02*
X50683390Y-59205713D01*
X50683390Y-59205713D02*
X50492914Y-59158094D01*
X50492914Y-59158094D02*
X50397676Y-59110475D01*
X50397676Y-59110475D02*
X50302438Y-59015237D01*
X50302438Y-59015237D02*
X50254819Y-58872380D01*
X50254819Y-58872380D02*
X50254819Y-58777142D01*
X50254819Y-58777142D02*
X50302438Y-58634285D01*
X50302438Y-58634285D02*
X50350057Y-58586666D01*
X50254819Y-57681904D02*
X50254819Y-58158094D01*
X50254819Y-58158094D02*
X50731009Y-58205713D01*
X50731009Y-58205713D02*
X50683390Y-58158094D01*
X50683390Y-58158094D02*
X50635771Y-58062856D01*
X50635771Y-58062856D02*
X50635771Y-57824761D01*
X50635771Y-57824761D02*
X50683390Y-57729523D01*
X50683390Y-57729523D02*
X50731009Y-57681904D01*
X50731009Y-57681904D02*
X50826247Y-57634285D01*
X50826247Y-57634285D02*
X51064342Y-57634285D01*
X51064342Y-57634285D02*
X51159580Y-57681904D01*
X51159580Y-57681904D02*
X51207200Y-57729523D01*
X51207200Y-57729523D02*
X51254819Y-57824761D01*
X51254819Y-57824761D02*
X51254819Y-58062856D01*
X51254819Y-58062856D02*
X51207200Y-58158094D01*
X51207200Y-58158094D02*
X51159580Y-58205713D01*
D12*
%TO.C,J3*%
X110490000Y-39370000D02*
X110490000Y-36770000D01*
X107890000Y-38100000D02*
X107890000Y-36770000D01*
X113090000Y-36770000D02*
X113090000Y-47050000D01*
X107890000Y-47050000D02*
X113090000Y-47050000D01*
X107890000Y-39370000D02*
X107890000Y-47050000D01*
X107890000Y-39370000D02*
X110490000Y-39370000D01*
X107890000Y-36770000D02*
X109220000Y-36770000D01*
X110490000Y-36770000D02*
X113090000Y-36770000D01*
%TO.C,J1*%
X36390000Y-85440000D02*
X29650000Y-85440000D01*
X30170000Y-79660000D02*
X30170000Y-85440000D01*
X36390000Y-79660000D02*
X36390000Y-85440000D01*
X30050000Y-79420000D02*
X29410000Y-79420000D01*
X36390000Y-79660000D02*
X29650000Y-79660000D01*
X35270000Y-79660000D02*
X35270000Y-85440000D01*
X29650000Y-79660000D02*
X29650000Y-85440000D01*
X29410000Y-79420000D02*
X29410000Y-79820000D01*
%TO.C,J2*%
X36390000Y-36480000D02*
X36390000Y-44800000D01*
X30170000Y-36480000D02*
X30170000Y-44800000D01*
X36390000Y-36480000D02*
X29650000Y-36480000D01*
X29410000Y-36240000D02*
X29410000Y-36640000D01*
X35270000Y-36480000D02*
X35270000Y-44800000D01*
X30050000Y-36240000D02*
X29410000Y-36240000D01*
X36390000Y-44800000D02*
X29650000Y-44800000D01*
X29650000Y-36480000D02*
X29650000Y-44800000D01*
%TO.C,C4*%
X91215000Y-85130302D02*
X91215000Y-85930302D01*
X91615000Y-85530302D02*
X90815000Y-85530302D01*
X92980000Y-89540000D02*
X84820000Y-89540000D01*
X92980000Y-89580000D02*
X84820000Y-89580000D01*
X92980000Y-89620000D02*
X84820000Y-89620000D01*
X92979000Y-89660000D02*
X84821000Y-89660000D01*
X92977000Y-89700000D02*
X84823000Y-89700000D01*
X92976000Y-89740000D02*
X84824000Y-89740000D01*
X92974000Y-89780000D02*
X84826000Y-89780000D01*
X92971000Y-89820000D02*
X84829000Y-89820000D01*
X92968000Y-89860000D02*
X84832000Y-89860000D01*
X92965000Y-89900000D02*
X84835000Y-89900000D01*
X92961000Y-89940000D02*
X84839000Y-89940000D01*
X92957000Y-89980000D02*
X84843000Y-89980000D01*
X92952000Y-90020000D02*
X84848000Y-90020000D01*
X92948000Y-90060000D02*
X84852000Y-90060000D01*
X92942000Y-90100000D02*
X84858000Y-90100000D01*
X92937000Y-90140000D02*
X84863000Y-90140000D01*
X92930000Y-90180000D02*
X84870000Y-90180000D01*
X92924000Y-90220000D02*
X84876000Y-90220000D01*
X92917000Y-90261000D02*
X84883000Y-90261000D01*
X92910000Y-90301000D02*
X84890000Y-90301000D01*
X92902000Y-90341000D02*
X84898000Y-90341000D01*
X92894000Y-90381000D02*
X84906000Y-90381000D01*
X92885000Y-90421000D02*
X89940000Y-90421000D01*
X87860000Y-90421000D02*
X84915000Y-90421000D01*
X92876000Y-90461000D02*
X89940000Y-90461000D01*
X87860000Y-90461000D02*
X84924000Y-90461000D01*
X92867000Y-90501000D02*
X89940000Y-90501000D01*
X87860000Y-90501000D02*
X84933000Y-90501000D01*
X92857000Y-90541000D02*
X89940000Y-90541000D01*
X87860000Y-90541000D02*
X84943000Y-90541000D01*
X92847000Y-90581000D02*
X89940000Y-90581000D01*
X87860000Y-90581000D02*
X84953000Y-90581000D01*
X92836000Y-90621000D02*
X89940000Y-90621000D01*
X87860000Y-90621000D02*
X84964000Y-90621000D01*
X92825000Y-90661000D02*
X89940000Y-90661000D01*
X87860000Y-90661000D02*
X84975000Y-90661000D01*
X92814000Y-90701000D02*
X89940000Y-90701000D01*
X87860000Y-90701000D02*
X84986000Y-90701000D01*
X92802000Y-90741000D02*
X89940000Y-90741000D01*
X87860000Y-90741000D02*
X84998000Y-90741000D01*
X92789000Y-90781000D02*
X89940000Y-90781000D01*
X87860000Y-90781000D02*
X85011000Y-90781000D01*
X92777000Y-90821000D02*
X89940000Y-90821000D01*
X87860000Y-90821000D02*
X85023000Y-90821000D01*
X92763000Y-90861000D02*
X89940000Y-90861000D01*
X87860000Y-90861000D02*
X85037000Y-90861000D01*
X92750000Y-90901000D02*
X89940000Y-90901000D01*
X87860000Y-90901000D02*
X85050000Y-90901000D01*
X92735000Y-90941000D02*
X89940000Y-90941000D01*
X87860000Y-90941000D02*
X85065000Y-90941000D01*
X92721000Y-90981000D02*
X89940000Y-90981000D01*
X87860000Y-90981000D02*
X85079000Y-90981000D01*
X92705000Y-91021000D02*
X89940000Y-91021000D01*
X87860000Y-91021000D02*
X85095000Y-91021000D01*
X92690000Y-91061000D02*
X89940000Y-91061000D01*
X87860000Y-91061000D02*
X85110000Y-91061000D01*
X92674000Y-91101000D02*
X89940000Y-91101000D01*
X87860000Y-91101000D02*
X85126000Y-91101000D01*
X92657000Y-91141000D02*
X89940000Y-91141000D01*
X87860000Y-91141000D02*
X85143000Y-91141000D01*
X92640000Y-91181000D02*
X89940000Y-91181000D01*
X87860000Y-91181000D02*
X85160000Y-91181000D01*
X92622000Y-91221000D02*
X89940000Y-91221000D01*
X87860000Y-91221000D02*
X85178000Y-91221000D01*
X92604000Y-91261000D02*
X89940000Y-91261000D01*
X87860000Y-91261000D02*
X85196000Y-91261000D01*
X92586000Y-91301000D02*
X89940000Y-91301000D01*
X87860000Y-91301000D02*
X85214000Y-91301000D01*
X92566000Y-91341000D02*
X89940000Y-91341000D01*
X87860000Y-91341000D02*
X85234000Y-91341000D01*
X92547000Y-91381000D02*
X89940000Y-91381000D01*
X87860000Y-91381000D02*
X85253000Y-91381000D01*
X92527000Y-91421000D02*
X89940000Y-91421000D01*
X87860000Y-91421000D02*
X85273000Y-91421000D01*
X92506000Y-91461000D02*
X89940000Y-91461000D01*
X87860000Y-91461000D02*
X85294000Y-91461000D01*
X92484000Y-91501000D02*
X89940000Y-91501000D01*
X87860000Y-91501000D02*
X85316000Y-91501000D01*
X92462000Y-91541000D02*
X89940000Y-91541000D01*
X87860000Y-91541000D02*
X85338000Y-91541000D01*
X92440000Y-91581000D02*
X89940000Y-91581000D01*
X87860000Y-91581000D02*
X85360000Y-91581000D01*
X92417000Y-91621000D02*
X89940000Y-91621000D01*
X87860000Y-91621000D02*
X85383000Y-91621000D01*
X92393000Y-91661000D02*
X89940000Y-91661000D01*
X87860000Y-91661000D02*
X85407000Y-91661000D01*
X92369000Y-91701000D02*
X89940000Y-91701000D01*
X87860000Y-91701000D02*
X85431000Y-91701000D01*
X92344000Y-91741000D02*
X89940000Y-91741000D01*
X87860000Y-91741000D02*
X85456000Y-91741000D01*
X92318000Y-91781000D02*
X89940000Y-91781000D01*
X87860000Y-91781000D02*
X85482000Y-91781000D01*
X92292000Y-91821000D02*
X89940000Y-91821000D01*
X87860000Y-91821000D02*
X85508000Y-91821000D01*
X92265000Y-91861000D02*
X89940000Y-91861000D01*
X87860000Y-91861000D02*
X85535000Y-91861000D01*
X92238000Y-91901000D02*
X89940000Y-91901000D01*
X87860000Y-91901000D02*
X85562000Y-91901000D01*
X92209000Y-91941000D02*
X89940000Y-91941000D01*
X87860000Y-91941000D02*
X85591000Y-91941000D01*
X92180000Y-91981000D02*
X89940000Y-91981000D01*
X87860000Y-91981000D02*
X85620000Y-91981000D01*
X92150000Y-92021000D02*
X89940000Y-92021000D01*
X87860000Y-92021000D02*
X85650000Y-92021000D01*
X92120000Y-92061000D02*
X89940000Y-92061000D01*
X87860000Y-92061000D02*
X85680000Y-92061000D01*
X92089000Y-92101000D02*
X89940000Y-92101000D01*
X87860000Y-92101000D02*
X85711000Y-92101000D01*
X92056000Y-92141000D02*
X89940000Y-92141000D01*
X87860000Y-92141000D02*
X85744000Y-92141000D01*
X92024000Y-92181000D02*
X89940000Y-92181000D01*
X87860000Y-92181000D02*
X85776000Y-92181000D01*
X91990000Y-92221000D02*
X89940000Y-92221000D01*
X87860000Y-92221000D02*
X85810000Y-92221000D01*
X91955000Y-92261000D02*
X89940000Y-92261000D01*
X87860000Y-92261000D02*
X85845000Y-92261000D01*
X91919000Y-92301000D02*
X89940000Y-92301000D01*
X87860000Y-92301000D02*
X85881000Y-92301000D01*
X91883000Y-92341000D02*
X89940000Y-92341000D01*
X87860000Y-92341000D02*
X85917000Y-92341000D01*
X91845000Y-92381000D02*
X89940000Y-92381000D01*
X87860000Y-92381000D02*
X85955000Y-92381000D01*
X91807000Y-92421000D02*
X89940000Y-92421000D01*
X87860000Y-92421000D02*
X85993000Y-92421000D01*
X91767000Y-92461000D02*
X89940000Y-92461000D01*
X87860000Y-92461000D02*
X86033000Y-92461000D01*
X91726000Y-92501000D02*
X86074000Y-92501000D01*
X91684000Y-92541000D02*
X86116000Y-92541000D01*
X91641000Y-92581000D02*
X86159000Y-92581000D01*
X91597000Y-92621000D02*
X86203000Y-92621000D01*
X91551000Y-92661000D02*
X86249000Y-92661000D01*
X91504000Y-92701000D02*
X86296000Y-92701000D01*
X91456000Y-92741000D02*
X86344000Y-92741000D01*
X91405000Y-92781000D02*
X86395000Y-92781000D01*
X91354000Y-92821000D02*
X86446000Y-92821000D01*
X91300000Y-92861000D02*
X86500000Y-92861000D01*
X91245000Y-92901000D02*
X86555000Y-92901000D01*
X91187000Y-92941000D02*
X86613000Y-92941000D01*
X91128000Y-92981000D02*
X86672000Y-92981000D01*
X91066000Y-93021000D02*
X86734000Y-93021000D01*
X91002000Y-93061000D02*
X86798000Y-93061000D01*
X90934000Y-93101000D02*
X86866000Y-93101000D01*
X90864000Y-93141000D02*
X86936000Y-93141000D01*
X90790000Y-93181000D02*
X87010000Y-93181000D01*
X90713000Y-93221000D02*
X87087000Y-93221000D01*
X90631000Y-93261000D02*
X87169000Y-93261000D01*
X90545000Y-93301000D02*
X87255000Y-93301000D01*
X90452000Y-93341000D02*
X87348000Y-93341000D01*
X90353000Y-93381000D02*
X87447000Y-93381000D01*
X90246000Y-93421000D02*
X87554000Y-93421000D01*
X90129000Y-93461000D02*
X87671000Y-93461000D01*
X89998000Y-93501000D02*
X87802000Y-93501000D01*
X89848000Y-93541000D02*
X87952000Y-93541000D01*
X89668000Y-93581000D02*
X88132000Y-93581000D01*
X89433000Y-93621000D02*
X88367000Y-93621000D01*
X93020000Y-89540000D02*
G75*
G03*
X93020000Y-89540000I-4120000J0D01*
G01*
%TO.C,D1*%
X43180000Y-77400000D02*
X43180000Y-76380000D01*
X41710000Y-76380000D02*
X44650000Y-76380000D01*
X44650000Y-76380000D02*
X44650000Y-70940000D01*
X41710000Y-75600000D02*
X44650000Y-75600000D01*
X41710000Y-75480000D02*
X44650000Y-75480000D01*
X41710000Y-75360000D02*
X44650000Y-75360000D01*
X41710000Y-70940000D02*
X41710000Y-76380000D01*
X44650000Y-70940000D02*
X41710000Y-70940000D01*
X43180000Y-69920000D02*
X43180000Y-70940000D01*
%TO.C,D2*%
X112050000Y-85056000D02*
X112050000Y-84900000D01*
X112050000Y-82740000D02*
X112050000Y-82584000D01*
X108817666Y-84898608D02*
G75*
G03*
X112049999Y-85055515I1672334J1078608D01*
G01*
X109448871Y-84899836D02*
G75*
G03*
X111530960Y-84899999I1041129J1079836D01*
G01*
X111530960Y-82740001D02*
G75*
G03*
X109448871Y-82740164I-1040960J-1079999D01*
G01*
X112049999Y-82584485D02*
G75*
G03*
X108817666Y-82741392I-1559999J-1235515D01*
G01*
%TO.C,U1*%
X52010000Y-62110000D02*
X52010000Y-80130000D01*
X52010000Y-80130000D02*
X62290000Y-80130000D01*
X54500000Y-62170000D02*
X54500000Y-80070000D01*
X54500000Y-80070000D02*
X59800000Y-80070000D01*
X56150000Y-62170000D02*
X54500000Y-62170000D01*
X59800000Y-62170000D02*
X58150000Y-62170000D01*
X59800000Y-80070000D02*
X59800000Y-62170000D01*
X62290000Y-62110000D02*
X52010000Y-62110000D01*
X62290000Y-80130000D02*
X62290000Y-62110000D01*
X56150000Y-62170000D02*
G75*
G03*
X58150000Y-62170000I1000000J0D01*
G01*
%TO.C,D3*%
X43180000Y-34060000D02*
X43180000Y-34710000D01*
X44300000Y-34710000D02*
X42060000Y-34710000D01*
X42060000Y-34710000D02*
X42060000Y-38950000D01*
X44300000Y-35310000D02*
X42060000Y-35310000D01*
X44300000Y-35430000D02*
X42060000Y-35430000D01*
X44300000Y-35550000D02*
X42060000Y-35550000D01*
X44300000Y-38950000D02*
X44300000Y-34710000D01*
X42060000Y-38950000D02*
X44300000Y-38950000D01*
X43180000Y-39600000D02*
X43180000Y-38950000D01*
%TO.C,R4*%
X59590000Y-40100000D02*
X59590000Y-33560000D01*
X59920000Y-40100000D02*
X59590000Y-40100000D01*
X62000000Y-40100000D02*
X62330000Y-40100000D01*
X62330000Y-40100000D02*
X62330000Y-33560000D01*
X59590000Y-33560000D02*
X59920000Y-33560000D01*
X62330000Y-33560000D02*
X62000000Y-33560000D01*
%TO.C,C2*%
X54710000Y-85740000D02*
X54265000Y-85740000D01*
X54710000Y-85740000D02*
X54710000Y-91980000D01*
X52415000Y-85740000D02*
X51970000Y-85740000D01*
X51970000Y-85740000D02*
X51970000Y-91980000D01*
X54710000Y-91980000D02*
X54265000Y-91980000D01*
X52415000Y-91980000D02*
X51970000Y-91980000D01*
%TO.C,R3*%
X51970000Y-40100000D02*
X51970000Y-33560000D01*
X52300000Y-40100000D02*
X51970000Y-40100000D01*
X54380000Y-40100000D02*
X54710000Y-40100000D01*
X54710000Y-40100000D02*
X54710000Y-33560000D01*
X51970000Y-33560000D02*
X52300000Y-33560000D01*
X54710000Y-33560000D02*
X54380000Y-33560000D01*
%TO.C,D4*%
X112050000Y-77436000D02*
X112050000Y-77280000D01*
X112050000Y-75120000D02*
X112050000Y-74964000D01*
X108817666Y-77278608D02*
G75*
G03*
X112049999Y-77435515I1672334J1078608D01*
G01*
X109448871Y-77279836D02*
G75*
G03*
X111530960Y-77279999I1041129J1079836D01*
G01*
X111530960Y-75120001D02*
G75*
G03*
X109448871Y-75120164I-1040960J-1079999D01*
G01*
X112049999Y-74964485D02*
G75*
G03*
X108817666Y-75121392I-1559999J-1235515D01*
G01*
%TO.C,U3*%
X50110000Y-36090000D02*
X50110000Y-32490000D01*
X45660000Y-34290000D02*
G75*
G03*
X50098478Y-36128478I2600000J0D01*
G01*
X50098478Y-32451522D02*
G75*
G03*
X45660000Y-34290000I-1838478J-1838478D01*
G01*
%TO.C,R2*%
X60420000Y-49630000D02*
X53880000Y-49630000D01*
X60420000Y-49300000D02*
X60420000Y-49630000D01*
X60420000Y-47220000D02*
X60420000Y-46890000D01*
X60420000Y-46890000D02*
X53880000Y-46890000D01*
X53880000Y-49630000D02*
X53880000Y-49300000D01*
X53880000Y-46890000D02*
X53880000Y-47220000D01*
%TO.C,R5*%
X95790000Y-74830000D02*
X102330000Y-74830000D01*
X95790000Y-75160000D02*
X95790000Y-74830000D01*
X95790000Y-77240000D02*
X95790000Y-77570000D01*
X95790000Y-77570000D02*
X102330000Y-77570000D01*
X102330000Y-74830000D02*
X102330000Y-75160000D01*
X102330000Y-77570000D02*
X102330000Y-77240000D01*
%TO.C,C3*%
X80110000Y-85740000D02*
X79665000Y-85740000D01*
X80110000Y-85740000D02*
X80110000Y-91980000D01*
X77815000Y-85740000D02*
X77370000Y-85740000D01*
X77370000Y-85740000D02*
X77370000Y-91980000D01*
X80110000Y-91980000D02*
X79665000Y-91980000D01*
X77815000Y-91980000D02*
X77370000Y-91980000D01*
%TO.C,Q1*%
X50060000Y-46410000D02*
X46460000Y-46410000D01*
X48260000Y-50860000D02*
G75*
G03*
X50098478Y-46421522I0J2600000D01*
G01*
X46421522Y-46421522D02*
G75*
G03*
X48260000Y-50860000I1838478J-1838478D01*
G01*
%TO.C,A1*%
X90300000Y-72520000D02*
X90300000Y-69850000D01*
X90300000Y-67310000D02*
X90300000Y-29080000D01*
X90300000Y-29080000D02*
X85220000Y-29080000D01*
X87630000Y-69850000D02*
X90300000Y-69850000D01*
X87630000Y-67310000D02*
X90300000Y-67310000D01*
X87630000Y-67310000D02*
X87630000Y-69850000D01*
X87630000Y-67310000D02*
X87630000Y-31750000D01*
X87630000Y-31750000D02*
X90300000Y-31750000D01*
X85220000Y-36960000D02*
X77340000Y-36960000D01*
X85220000Y-26540000D02*
X85220000Y-36960000D01*
X77340000Y-36960000D02*
X77340000Y-26540000D01*
X77340000Y-26540000D02*
X85220000Y-26540000D01*
X74930000Y-69850000D02*
X74930000Y-31750000D01*
X74930000Y-69850000D02*
X72260000Y-69850000D01*
X74930000Y-31750000D02*
X72260000Y-31750000D01*
X72260000Y-72520000D02*
X90300000Y-72520000D01*
X72260000Y-29080000D02*
X77340000Y-29080000D01*
X72260000Y-29080000D02*
X72260000Y-72520000D01*
%TO.C,R1*%
X95790000Y-82450000D02*
X102330000Y-82450000D01*
X95790000Y-82780000D02*
X95790000Y-82450000D01*
X95790000Y-84860000D02*
X95790000Y-85190000D01*
X95790000Y-85190000D02*
X102330000Y-85190000D01*
X102330000Y-82450000D02*
X102330000Y-82780000D01*
X102330000Y-85190000D02*
X102330000Y-84860000D01*
%TO.C,U2*%
X60920000Y-88170000D02*
X60920000Y-92811000D01*
X60920000Y-88170000D02*
X71160000Y-88170000D01*
X60920000Y-89680000D02*
X71160000Y-89680000D01*
X60920000Y-92811000D02*
X71160000Y-92811000D01*
X64190000Y-88170000D02*
X64190000Y-89680000D01*
X67891000Y-88170000D02*
X67891000Y-89680000D01*
X71160000Y-88170000D02*
X71160000Y-92811000D01*
%TO.C,C1*%
X45495000Y-85130302D02*
X45495000Y-85930302D01*
X45895000Y-85530302D02*
X45095000Y-85530302D01*
X47260000Y-89540000D02*
X39100000Y-89540000D01*
X47260000Y-89580000D02*
X39100000Y-89580000D01*
X47260000Y-89620000D02*
X39100000Y-89620000D01*
X47259000Y-89660000D02*
X39101000Y-89660000D01*
X47257000Y-89700000D02*
X39103000Y-89700000D01*
X47256000Y-89740000D02*
X39104000Y-89740000D01*
X47254000Y-89780000D02*
X39106000Y-89780000D01*
X47251000Y-89820000D02*
X39109000Y-89820000D01*
X47248000Y-89860000D02*
X39112000Y-89860000D01*
X47245000Y-89900000D02*
X39115000Y-89900000D01*
X47241000Y-89940000D02*
X39119000Y-89940000D01*
X47237000Y-89980000D02*
X39123000Y-89980000D01*
X47232000Y-90020000D02*
X39128000Y-90020000D01*
X47228000Y-90060000D02*
X39132000Y-90060000D01*
X47222000Y-90100000D02*
X39138000Y-90100000D01*
X47217000Y-90140000D02*
X39143000Y-90140000D01*
X47210000Y-90180000D02*
X39150000Y-90180000D01*
X47204000Y-90220000D02*
X39156000Y-90220000D01*
X47197000Y-90261000D02*
X39163000Y-90261000D01*
X47190000Y-90301000D02*
X39170000Y-90301000D01*
X47182000Y-90341000D02*
X39178000Y-90341000D01*
X47174000Y-90381000D02*
X39186000Y-90381000D01*
X47165000Y-90421000D02*
X44220000Y-90421000D01*
X42140000Y-90421000D02*
X39195000Y-90421000D01*
X47156000Y-90461000D02*
X44220000Y-90461000D01*
X42140000Y-90461000D02*
X39204000Y-90461000D01*
X47147000Y-90501000D02*
X44220000Y-90501000D01*
X42140000Y-90501000D02*
X39213000Y-90501000D01*
X47137000Y-90541000D02*
X44220000Y-90541000D01*
X42140000Y-90541000D02*
X39223000Y-90541000D01*
X47127000Y-90581000D02*
X44220000Y-90581000D01*
X42140000Y-90581000D02*
X39233000Y-90581000D01*
X47116000Y-90621000D02*
X44220000Y-90621000D01*
X42140000Y-90621000D02*
X39244000Y-90621000D01*
X47105000Y-90661000D02*
X44220000Y-90661000D01*
X42140000Y-90661000D02*
X39255000Y-90661000D01*
X47094000Y-90701000D02*
X44220000Y-90701000D01*
X42140000Y-90701000D02*
X39266000Y-90701000D01*
X47082000Y-90741000D02*
X44220000Y-90741000D01*
X42140000Y-90741000D02*
X39278000Y-90741000D01*
X47069000Y-90781000D02*
X44220000Y-90781000D01*
X42140000Y-90781000D02*
X39291000Y-90781000D01*
X47057000Y-90821000D02*
X44220000Y-90821000D01*
X42140000Y-90821000D02*
X39303000Y-90821000D01*
X47043000Y-90861000D02*
X44220000Y-90861000D01*
X42140000Y-90861000D02*
X39317000Y-90861000D01*
X47030000Y-90901000D02*
X44220000Y-90901000D01*
X42140000Y-90901000D02*
X39330000Y-90901000D01*
X47015000Y-90941000D02*
X44220000Y-90941000D01*
X42140000Y-90941000D02*
X39345000Y-90941000D01*
X47001000Y-90981000D02*
X44220000Y-90981000D01*
X42140000Y-90981000D02*
X39359000Y-90981000D01*
X46985000Y-91021000D02*
X44220000Y-91021000D01*
X42140000Y-91021000D02*
X39375000Y-91021000D01*
X46970000Y-91061000D02*
X44220000Y-91061000D01*
X42140000Y-91061000D02*
X39390000Y-91061000D01*
X46954000Y-91101000D02*
X44220000Y-91101000D01*
X42140000Y-91101000D02*
X39406000Y-91101000D01*
X46937000Y-91141000D02*
X44220000Y-91141000D01*
X42140000Y-91141000D02*
X39423000Y-91141000D01*
X46920000Y-91181000D02*
X44220000Y-91181000D01*
X42140000Y-91181000D02*
X39440000Y-91181000D01*
X46902000Y-91221000D02*
X44220000Y-91221000D01*
X42140000Y-91221000D02*
X39458000Y-91221000D01*
X46884000Y-91261000D02*
X44220000Y-91261000D01*
X42140000Y-91261000D02*
X39476000Y-91261000D01*
X46866000Y-91301000D02*
X44220000Y-91301000D01*
X42140000Y-91301000D02*
X39494000Y-91301000D01*
X46846000Y-91341000D02*
X44220000Y-91341000D01*
X42140000Y-91341000D02*
X39514000Y-91341000D01*
X46827000Y-91381000D02*
X44220000Y-91381000D01*
X42140000Y-91381000D02*
X39533000Y-91381000D01*
X46807000Y-91421000D02*
X44220000Y-91421000D01*
X42140000Y-91421000D02*
X39553000Y-91421000D01*
X46786000Y-91461000D02*
X44220000Y-91461000D01*
X42140000Y-91461000D02*
X39574000Y-91461000D01*
X46764000Y-91501000D02*
X44220000Y-91501000D01*
X42140000Y-91501000D02*
X39596000Y-91501000D01*
X46742000Y-91541000D02*
X44220000Y-91541000D01*
X42140000Y-91541000D02*
X39618000Y-91541000D01*
X46720000Y-91581000D02*
X44220000Y-91581000D01*
X42140000Y-91581000D02*
X39640000Y-91581000D01*
X46697000Y-91621000D02*
X44220000Y-91621000D01*
X42140000Y-91621000D02*
X39663000Y-91621000D01*
X46673000Y-91661000D02*
X44220000Y-91661000D01*
X42140000Y-91661000D02*
X39687000Y-91661000D01*
X46649000Y-91701000D02*
X44220000Y-91701000D01*
X42140000Y-91701000D02*
X39711000Y-91701000D01*
X46624000Y-91741000D02*
X44220000Y-91741000D01*
X42140000Y-91741000D02*
X39736000Y-91741000D01*
X46598000Y-91781000D02*
X44220000Y-91781000D01*
X42140000Y-91781000D02*
X39762000Y-91781000D01*
X46572000Y-91821000D02*
X44220000Y-91821000D01*
X42140000Y-91821000D02*
X39788000Y-91821000D01*
X46545000Y-91861000D02*
X44220000Y-91861000D01*
X42140000Y-91861000D02*
X39815000Y-91861000D01*
X46518000Y-91901000D02*
X44220000Y-91901000D01*
X42140000Y-91901000D02*
X39842000Y-91901000D01*
X46489000Y-91941000D02*
X44220000Y-91941000D01*
X42140000Y-91941000D02*
X39871000Y-91941000D01*
X46460000Y-91981000D02*
X44220000Y-91981000D01*
X42140000Y-91981000D02*
X39900000Y-91981000D01*
X46430000Y-92021000D02*
X44220000Y-92021000D01*
X42140000Y-92021000D02*
X39930000Y-92021000D01*
X46400000Y-92061000D02*
X44220000Y-92061000D01*
X42140000Y-92061000D02*
X39960000Y-92061000D01*
X46369000Y-92101000D02*
X44220000Y-92101000D01*
X42140000Y-92101000D02*
X39991000Y-92101000D01*
X46336000Y-92141000D02*
X44220000Y-92141000D01*
X42140000Y-92141000D02*
X40024000Y-92141000D01*
X46304000Y-92181000D02*
X44220000Y-92181000D01*
X42140000Y-92181000D02*
X40056000Y-92181000D01*
X46270000Y-92221000D02*
X44220000Y-92221000D01*
X42140000Y-92221000D02*
X40090000Y-92221000D01*
X46235000Y-92261000D02*
X44220000Y-92261000D01*
X42140000Y-92261000D02*
X40125000Y-92261000D01*
X46199000Y-92301000D02*
X44220000Y-92301000D01*
X42140000Y-92301000D02*
X40161000Y-92301000D01*
X46163000Y-92341000D02*
X44220000Y-92341000D01*
X42140000Y-92341000D02*
X40197000Y-92341000D01*
X46125000Y-92381000D02*
X44220000Y-92381000D01*
X42140000Y-92381000D02*
X40235000Y-92381000D01*
X46087000Y-92421000D02*
X44220000Y-92421000D01*
X42140000Y-92421000D02*
X40273000Y-92421000D01*
X46047000Y-92461000D02*
X44220000Y-92461000D01*
X42140000Y-92461000D02*
X40313000Y-92461000D01*
X46006000Y-92501000D02*
X40354000Y-92501000D01*
X45964000Y-92541000D02*
X40396000Y-92541000D01*
X45921000Y-92581000D02*
X40439000Y-92581000D01*
X45877000Y-92621000D02*
X40483000Y-92621000D01*
X45831000Y-92661000D02*
X40529000Y-92661000D01*
X45784000Y-92701000D02*
X40576000Y-92701000D01*
X45736000Y-92741000D02*
X40624000Y-92741000D01*
X45685000Y-92781000D02*
X40675000Y-92781000D01*
X45634000Y-92821000D02*
X40726000Y-92821000D01*
X45580000Y-92861000D02*
X40780000Y-92861000D01*
X45525000Y-92901000D02*
X40835000Y-92901000D01*
X45467000Y-92941000D02*
X40893000Y-92941000D01*
X45408000Y-92981000D02*
X40952000Y-92981000D01*
X45346000Y-93021000D02*
X41014000Y-93021000D01*
X45282000Y-93061000D02*
X41078000Y-93061000D01*
X45214000Y-93101000D02*
X41146000Y-93101000D01*
X45144000Y-93141000D02*
X41216000Y-93141000D01*
X45070000Y-93181000D02*
X41290000Y-93181000D01*
X44993000Y-93221000D02*
X41367000Y-93221000D01*
X44911000Y-93261000D02*
X41449000Y-93261000D01*
X44825000Y-93301000D02*
X41535000Y-93301000D01*
X44732000Y-93341000D02*
X41628000Y-93341000D01*
X44633000Y-93381000D02*
X41727000Y-93381000D01*
X44526000Y-93421000D02*
X41834000Y-93421000D01*
X44409000Y-93461000D02*
X41951000Y-93461000D01*
X44278000Y-93501000D02*
X42082000Y-93501000D01*
X44128000Y-93541000D02*
X42232000Y-93541000D01*
X43948000Y-93581000D02*
X42412000Y-93581000D01*
X43713000Y-93621000D02*
X42647000Y-93621000D01*
X47300000Y-89540000D02*
G75*
G03*
X47300000Y-89540000I-4120000J0D01*
G01*
%TO.C,C6*%
X100370302Y-58645000D02*
X101170302Y-58645000D01*
X100770302Y-58245000D02*
X100770302Y-59045000D01*
X104780000Y-56880000D02*
X104780000Y-65040000D01*
X104820000Y-56880000D02*
X104820000Y-65040000D01*
X104860000Y-56880000D02*
X104860000Y-65040000D01*
X104900000Y-56881000D02*
X104900000Y-65039000D01*
X104940000Y-56883000D02*
X104940000Y-65037000D01*
X104980000Y-56884000D02*
X104980000Y-65036000D01*
X105020000Y-56886000D02*
X105020000Y-65034000D01*
X105060000Y-56889000D02*
X105060000Y-65031000D01*
X105100000Y-56892000D02*
X105100000Y-65028000D01*
X105140000Y-56895000D02*
X105140000Y-65025000D01*
X105180000Y-56899000D02*
X105180000Y-65021000D01*
X105220000Y-56903000D02*
X105220000Y-65017000D01*
X105260000Y-56908000D02*
X105260000Y-65012000D01*
X105300000Y-56912000D02*
X105300000Y-65008000D01*
X105340000Y-56918000D02*
X105340000Y-65002000D01*
X105380000Y-56923000D02*
X105380000Y-64997000D01*
X105420000Y-56930000D02*
X105420000Y-64990000D01*
X105460000Y-56936000D02*
X105460000Y-64984000D01*
X105501000Y-56943000D02*
X105501000Y-64977000D01*
X105541000Y-56950000D02*
X105541000Y-64970000D01*
X105581000Y-56958000D02*
X105581000Y-64962000D01*
X105621000Y-56966000D02*
X105621000Y-64954000D01*
X105661000Y-56975000D02*
X105661000Y-59920000D01*
X105661000Y-62000000D02*
X105661000Y-64945000D01*
X105701000Y-56984000D02*
X105701000Y-59920000D01*
X105701000Y-62000000D02*
X105701000Y-64936000D01*
X105741000Y-56993000D02*
X105741000Y-59920000D01*
X105741000Y-62000000D02*
X105741000Y-64927000D01*
X105781000Y-57003000D02*
X105781000Y-59920000D01*
X105781000Y-62000000D02*
X105781000Y-64917000D01*
X105821000Y-57013000D02*
X105821000Y-59920000D01*
X105821000Y-62000000D02*
X105821000Y-64907000D01*
X105861000Y-57024000D02*
X105861000Y-59920000D01*
X105861000Y-62000000D02*
X105861000Y-64896000D01*
X105901000Y-57035000D02*
X105901000Y-59920000D01*
X105901000Y-62000000D02*
X105901000Y-64885000D01*
X105941000Y-57046000D02*
X105941000Y-59920000D01*
X105941000Y-62000000D02*
X105941000Y-64874000D01*
X105981000Y-57058000D02*
X105981000Y-59920000D01*
X105981000Y-62000000D02*
X105981000Y-64862000D01*
X106021000Y-57071000D02*
X106021000Y-59920000D01*
X106021000Y-62000000D02*
X106021000Y-64849000D01*
X106061000Y-57083000D02*
X106061000Y-59920000D01*
X106061000Y-62000000D02*
X106061000Y-64837000D01*
X106101000Y-57097000D02*
X106101000Y-59920000D01*
X106101000Y-62000000D02*
X106101000Y-64823000D01*
X106141000Y-57110000D02*
X106141000Y-59920000D01*
X106141000Y-62000000D02*
X106141000Y-64810000D01*
X106181000Y-57125000D02*
X106181000Y-59920000D01*
X106181000Y-62000000D02*
X106181000Y-64795000D01*
X106221000Y-57139000D02*
X106221000Y-59920000D01*
X106221000Y-62000000D02*
X106221000Y-64781000D01*
X106261000Y-57155000D02*
X106261000Y-59920000D01*
X106261000Y-62000000D02*
X106261000Y-64765000D01*
X106301000Y-57170000D02*
X106301000Y-59920000D01*
X106301000Y-62000000D02*
X106301000Y-64750000D01*
X106341000Y-57186000D02*
X106341000Y-59920000D01*
X106341000Y-62000000D02*
X106341000Y-64734000D01*
X106381000Y-57203000D02*
X106381000Y-59920000D01*
X106381000Y-62000000D02*
X106381000Y-64717000D01*
X106421000Y-57220000D02*
X106421000Y-59920000D01*
X106421000Y-62000000D02*
X106421000Y-64700000D01*
X106461000Y-57238000D02*
X106461000Y-59920000D01*
X106461000Y-62000000D02*
X106461000Y-64682000D01*
X106501000Y-57256000D02*
X106501000Y-59920000D01*
X106501000Y-62000000D02*
X106501000Y-64664000D01*
X106541000Y-57274000D02*
X106541000Y-59920000D01*
X106541000Y-62000000D02*
X106541000Y-64646000D01*
X106581000Y-57294000D02*
X106581000Y-59920000D01*
X106581000Y-62000000D02*
X106581000Y-64626000D01*
X106621000Y-57313000D02*
X106621000Y-59920000D01*
X106621000Y-62000000D02*
X106621000Y-64607000D01*
X106661000Y-57333000D02*
X106661000Y-59920000D01*
X106661000Y-62000000D02*
X106661000Y-64587000D01*
X106701000Y-57354000D02*
X106701000Y-59920000D01*
X106701000Y-62000000D02*
X106701000Y-64566000D01*
X106741000Y-57376000D02*
X106741000Y-59920000D01*
X106741000Y-62000000D02*
X106741000Y-64544000D01*
X106781000Y-57398000D02*
X106781000Y-59920000D01*
X106781000Y-62000000D02*
X106781000Y-64522000D01*
X106821000Y-57420000D02*
X106821000Y-59920000D01*
X106821000Y-62000000D02*
X106821000Y-64500000D01*
X106861000Y-57443000D02*
X106861000Y-59920000D01*
X106861000Y-62000000D02*
X106861000Y-64477000D01*
X106901000Y-57467000D02*
X106901000Y-59920000D01*
X106901000Y-62000000D02*
X106901000Y-64453000D01*
X106941000Y-57491000D02*
X106941000Y-59920000D01*
X106941000Y-62000000D02*
X106941000Y-64429000D01*
X106981000Y-57516000D02*
X106981000Y-59920000D01*
X106981000Y-62000000D02*
X106981000Y-64404000D01*
X107021000Y-57542000D02*
X107021000Y-59920000D01*
X107021000Y-62000000D02*
X107021000Y-64378000D01*
X107061000Y-57568000D02*
X107061000Y-59920000D01*
X107061000Y-62000000D02*
X107061000Y-64352000D01*
X107101000Y-57595000D02*
X107101000Y-59920000D01*
X107101000Y-62000000D02*
X107101000Y-64325000D01*
X107141000Y-57622000D02*
X107141000Y-59920000D01*
X107141000Y-62000000D02*
X107141000Y-64298000D01*
X107181000Y-57651000D02*
X107181000Y-59920000D01*
X107181000Y-62000000D02*
X107181000Y-64269000D01*
X107221000Y-57680000D02*
X107221000Y-59920000D01*
X107221000Y-62000000D02*
X107221000Y-64240000D01*
X107261000Y-57710000D02*
X107261000Y-59920000D01*
X107261000Y-62000000D02*
X107261000Y-64210000D01*
X107301000Y-57740000D02*
X107301000Y-59920000D01*
X107301000Y-62000000D02*
X107301000Y-64180000D01*
X107341000Y-57771000D02*
X107341000Y-59920000D01*
X107341000Y-62000000D02*
X107341000Y-64149000D01*
X107381000Y-57804000D02*
X107381000Y-59920000D01*
X107381000Y-62000000D02*
X107381000Y-64116000D01*
X107421000Y-57836000D02*
X107421000Y-59920000D01*
X107421000Y-62000000D02*
X107421000Y-64084000D01*
X107461000Y-57870000D02*
X107461000Y-59920000D01*
X107461000Y-62000000D02*
X107461000Y-64050000D01*
X107501000Y-57905000D02*
X107501000Y-59920000D01*
X107501000Y-62000000D02*
X107501000Y-64015000D01*
X107541000Y-57941000D02*
X107541000Y-59920000D01*
X107541000Y-62000000D02*
X107541000Y-63979000D01*
X107581000Y-57977000D02*
X107581000Y-59920000D01*
X107581000Y-62000000D02*
X107581000Y-63943000D01*
X107621000Y-58015000D02*
X107621000Y-59920000D01*
X107621000Y-62000000D02*
X107621000Y-63905000D01*
X107661000Y-58053000D02*
X107661000Y-59920000D01*
X107661000Y-62000000D02*
X107661000Y-63867000D01*
X107701000Y-58093000D02*
X107701000Y-59920000D01*
X107701000Y-62000000D02*
X107701000Y-63827000D01*
X107741000Y-58134000D02*
X107741000Y-63786000D01*
X107781000Y-58176000D02*
X107781000Y-63744000D01*
X107821000Y-58219000D02*
X107821000Y-63701000D01*
X107861000Y-58263000D02*
X107861000Y-63657000D01*
X107901000Y-58309000D02*
X107901000Y-63611000D01*
X107941000Y-58356000D02*
X107941000Y-63564000D01*
X107981000Y-58404000D02*
X107981000Y-63516000D01*
X108021000Y-58455000D02*
X108021000Y-63465000D01*
X108061000Y-58506000D02*
X108061000Y-63414000D01*
X108101000Y-58560000D02*
X108101000Y-63360000D01*
X108141000Y-58615000D02*
X108141000Y-63305000D01*
X108181000Y-58673000D02*
X108181000Y-63247000D01*
X108221000Y-58732000D02*
X108221000Y-63188000D01*
X108261000Y-58794000D02*
X108261000Y-63126000D01*
X108301000Y-58858000D02*
X108301000Y-63062000D01*
X108341000Y-58926000D02*
X108341000Y-62994000D01*
X108381000Y-58996000D02*
X108381000Y-62924000D01*
X108421000Y-59070000D02*
X108421000Y-62850000D01*
X108461000Y-59147000D02*
X108461000Y-62773000D01*
X108501000Y-59229000D02*
X108501000Y-62691000D01*
X108541000Y-59315000D02*
X108541000Y-62605000D01*
X108581000Y-59408000D02*
X108581000Y-62512000D01*
X108621000Y-59507000D02*
X108621000Y-62413000D01*
X108661000Y-59614000D02*
X108661000Y-62306000D01*
X108701000Y-59731000D02*
X108701000Y-62189000D01*
X108741000Y-59862000D02*
X108741000Y-62058000D01*
X108781000Y-60012000D02*
X108781000Y-61908000D01*
X108821000Y-60192000D02*
X108821000Y-61728000D01*
X108861000Y-60427000D02*
X108861000Y-61493000D01*
X108900000Y-60960000D02*
G75*
G03*
X108900000Y-60960000I-4120000J0D01*
G01*
%TO.C,SW1*%
X30050000Y-66720000D02*
X29410000Y-66720000D01*
X29410000Y-66720000D02*
X29410000Y-67120000D01*
X36390000Y-66960000D02*
X29650000Y-66960000D01*
X36390000Y-66960000D02*
X36390000Y-72740000D01*
X35270000Y-66960000D02*
X35270000Y-72740000D01*
X30170000Y-66960000D02*
X30170000Y-72740000D01*
X29650000Y-66960000D02*
X29650000Y-72740000D01*
X36390000Y-72740000D02*
X29650000Y-72740000D01*
%TO.C,C5*%
X58960000Y-59790000D02*
X58960000Y-59345000D01*
X58960000Y-59790000D02*
X52720000Y-59790000D01*
X58960000Y-57495000D02*
X58960000Y-57050000D01*
X58960000Y-57050000D02*
X52720000Y-57050000D01*
X52720000Y-59790000D02*
X52720000Y-59345000D01*
X52720000Y-57495000D02*
X52720000Y-57050000D01*
%TD*%
D13*
%TO.C,*%
X27940000Y-27940000D03*
%TD*%
%TO.C,*%
X114300000Y-93980000D03*
%TD*%
%TO.C,*%
X27940000Y-93980000D03*
%TD*%
%TO.C,*%
X114300000Y-27940000D03*
%TD*%
M02*
